<?xml version="1.0" standalone="no"?>
<!DOCTYPE svg PUBLIC "-//W3C//DTD SVG 1.1//EN" "http://www.w3.org/Graphics/SVG/1.1/DTD/svg11.dtd" >
<svg xmlns="http://www.w3.org/2000/svg" xmlns:svg="http://www.w3.org/2000/svg" xmlns:xlink="http://www.w3.org/1999/xlink" viewBox="0 0 2048 2048" style=""><path d="M732.0 1023.0Q732.0 942.0 771.5 876.0Q811.0 810.0 877.5 771.0Q944.0 732.0 1025.0 732.0Q1106.0 732.0 1172.0 771.0Q1238.0 810.0 1277.0 876.0Q1316.0 942.0 1316.0 1023.0Q1316.0 1104.0 1277.0 1170.5Q1238.0 1237.0 1172.0 1276.5Q1106.0 1316.0 1025.0 1316.0Q944.0 1316.0 877.5 1276.5Q811.0 1237.0 771.5 1170.5Q732.0 1104.0 732.0 1023.0ZM810.0 1023.0Q810.0 1111.0 873.0 1174.5Q936.0 1238.0 1025.0 1238.0Q1112.0 1238.0 1175.0 1174.5Q1238.0 1111.0 1238.0 1023.0Q1238.0 936.0 1175.0 873.0Q1112.0 810.0 1025.0 810.0Q936.0 810.0 873.0 873.0Q810.0 936.0 810.0 1023.0Z" fill="black"></path></svg>