<?xml version="1.0" standalone="no"?>
<!DOCTYPE svg PUBLIC "-//W3C//DTD SVG 1.1//EN" "http://www.w3.org/Graphics/SVG/1.1/DTD/svg11.dtd" >
<svg xmlns="http://www.w3.org/2000/svg" xmlns:svg="http://www.w3.org/2000/svg" xmlns:xlink="http://www.w3.org/1999/xlink" viewBox="0 0 2048 2048" style=""><path d="M977.0 156.0Q963.0 201.0 893.0 201.0Q875.0 261.0 854.0 318.0Q833.0 375.0 811.0 427.0H1065.0L1229.0 257.0L1509.0 511.0Q1497.0 531.0 1478.0 539.0Q1459.0 547.0 1417.0 552.0Q1383.0 714.0 1331.0 863.0Q1384.0 1127.0 1545.0 1332.0Q1706.0 1537.0 2019.0 1653.0V1680.0Q1794.0 1730.0 1763.0 1996.0Q1610.0 1888.0 1516.0 1719.5Q1422.0 1551.0 1372.0 1350.5Q1322.0 1150.0 1301.0 945.0Q1207.0 1187.0 1050.5 1392.5Q894.0 1598.0 648.5 1753.5Q403.0 1909.0 43.0 2002.0L29.0 1981.0Q344.0 1828.0 559.0 1600.0Q774.0 1372.0 901.5 1088.5Q1029.0 805.0 1083.0 484.0H787.0Q662.0 759.0 487.0 942.5Q312.0 1126.0 82.0 1252.0L64.0 1236.0Q179.0 1096.0 279.5 909.5Q380.0 723.0 452.5 503.0Q525.0 283.0 557.0 46.0Z" fill="black"></path></svg>