<?xml version="1.0" standalone="no"?>
<!DOCTYPE svg PUBLIC "-//W3C//DTD SVG 1.1//EN" "http://www.w3.org/Graphics/SVG/1.1/DTD/svg11.dtd" >
<svg xmlns="http://www.w3.org/2000/svg" xmlns:svg="http://www.w3.org/2000/svg" xmlns:xlink="http://www.w3.org/1999/xlink" viewBox="0 0 2048 2048" style=""><path d="M1528.0 1121.0V570.0H1139.0V1121.0ZM1214.0 89.0Q1211.0 110.0 1196.5 126.0Q1182.0 142.0 1139.0 148.0V513.0H1509.0L1645.0 363.0L1925.0 576.0Q1916.0 589.0 1897.0 602.0Q1878.0 615.0 1845.0 621.0V1281.0Q1844.0 1289.0 1800.0 1305.5Q1756.0 1322.0 1695.0 1336.0Q1634.0 1350.0 1583.0 1350.0H1528.0V1178.0H1139.0V1887.0Q1139.0 1902.0 1099.5 1928.0Q1060.0 1954.0 1000.5 1975.0Q941.0 1996.0 881.0 1996.0H821.0V1178.0H436.0V1285.0Q436.0 1300.0 396.0 1324.0Q356.0 1348.0 294.0 1366.5Q232.0 1385.0 168.0 1385.0H123.0V386.0L459.0 513.0H821.0V52.0ZM436.0 1121.0H821.0V570.0H436.0Z" fill="black"></path></svg>