<?xml version="1.0" standalone="no"?>
<!DOCTYPE svg PUBLIC "-//W3C//DTD SVG 1.1//EN" "http://www.w3.org/Graphics/SVG/1.1/DTD/svg11.dtd" >
<svg xmlns="http://www.w3.org/2000/svg" xmlns:svg="http://www.w3.org/2000/svg" xmlns:xlink="http://www.w3.org/1999/xlink" viewBox="0 0 2048 2048" style=""><path d="M849.5 106.5 1232.5 135.5Q1229.5 156.5 1215.0 171.5Q1200.5 186.5 1157.5 192.5V552.5H1384.5L1556.5 393.5L1822.5 632.5Q1811.5 651.5 1792.5 658.0Q1773.5 664.5 1732.5 667.5Q1612.5 853.5 1436.0 1015.5Q1259.5 1177.5 1036.0 1306.0Q812.5 1434.5 552.5 1517.5Q627.5 1585.5 730.5 1618.5Q833.5 1651.5 975.5 1662.5Q1117.5 1673.5 1308.5 1673.5Q1364.5 1673.5 1453.0 1673.5Q1541.5 1673.5 1641.0 1673.0Q1740.5 1672.5 1831.0 1671.5Q1921.5 1670.5 1982.5 1669.5V1691.5Q1908.5 1711.5 1873.5 1782.5Q1838.5 1853.5 1836.5 1941.5Q1793.5 1941.5 1722.5 1941.5Q1651.5 1941.5 1571.0 1941.5Q1490.5 1941.5 1418.5 1941.5Q1346.5 1941.5 1302.5 1941.5Q1064.5 1941.5 902.0 1900.5Q739.5 1859.5 633.5 1752.5Q527.5 1645.5 460.5 1447.5Q435.5 1508.5 401.5 1584.5Q367.5 1660.5 334.0 1732.5Q300.5 1804.5 276.5 1851.5Q291.5 1877.5 287.5 1901.0Q283.5 1924.5 266.5 1939.5L65.5 1708.5Q113.5 1674.5 179.0 1623.5Q244.5 1572.5 309.0 1517.5Q373.5 1462.5 419.5 1417.5L442.5 1243.5L577.5 1275.5L470.5 1423.5Q484.5 1443.5 498.5 1460.5Q512.5 1477.5 526.5 1493.5Q701.5 1383.5 865.5 1240.0Q1029.5 1096.5 1164.0 935.5Q1298.5 774.5 1384.5 610.5H210.5L192.5 552.5H849.5Z" fill="black"></path></svg>