<?xml version="1.0" standalone="no"?>
<!DOCTYPE svg PUBLIC "-//W3C//DTD SVG 1.1//EN" "http://www.w3.org/Graphics/SVG/1.1/DTD/svg11.dtd" >
<svg xmlns="http://www.w3.org/2000/svg" xmlns:svg="http://www.w3.org/2000/svg" xmlns:xlink="http://www.w3.org/1999/xlink" viewBox="0 0 2048 2048" style=""><path d="M874.0 1045.0 876.0 1049.0V576.0H104.0L88.0 519.0H876.0V361.0Q703.0 369.0 527.0 372.0Q351.0 375.0 188.0 373.0L184.0 343.0Q352.0 319.0 539.5 284.5Q727.0 250.0 910.5 210.0Q1094.0 170.0 1254.0 128.0Q1414.0 86.0 1528.0 48.0L1784.0 310.0Q1764.0 325.0 1726.0 325.0Q1688.0 325.0 1634.0 302.0Q1536.0 314.0 1418.0 325.0Q1300.0 336.0 1171.0 345.0V519.0H1548.0L1702.0 328.0Q1702.0 328.0 1730.0 349.0Q1758.0 370.0 1801.5 403.0Q1845.0 436.0 1892.5 473.0Q1940.0 510.0 1980.0 543.0Q1971.0 576.0 1921.0 576.0H1171.0V1098.0Q1244.0 1238.0 1374.0 1343.0Q1504.0 1448.0 1666.5 1516.5Q1829.0 1585.0 1999.0 1615.0L1995.0 1637.0Q1915.0 1659.0 1858.0 1727.0Q1801.0 1795.0 1778.0 1899.0Q1543.0 1796.0 1398.0 1622.5Q1253.0 1449.0 1171.0 1180.0V1920.0Q1170.0 1934.0 1107.0 1967.0Q1044.0 2000.0 932.0 2000.0H876.0V1494.0Q715.0 1621.0 503.5 1730.0Q292.0 1839.0 63.0 1905.0L49.0 1879.0Q220.0 1793.0 380.5 1659.5Q541.0 1526.0 670.0 1367.0Q799.0 1208.0 874.0 1045.0ZM82.0 1088.0Q139.0 1082.0 248.0 1065.0Q357.0 1048.0 481.0 1027.0V873.0H141.0L123.0 816.0H481.0V627.0L811.0 654.0Q808.0 671.0 797.0 683.0Q786.0 695.0 754.0 699.0V1236.0Q754.0 1247.0 717.0 1267.0Q680.0 1287.0 626.5 1303.5Q573.0 1320.0 522.0 1320.0H481.0V1125.0Q403.0 1197.0 282.0 1299.0Q270.0 1340.0 231.0 1350.0ZM1722.0 656.0 1913.0 879.0Q1889.0 903.0 1845.0 875.0Q1796.0 888.0 1708.0 901.5Q1620.0 915.0 1528.0 924.0V1039.0Q1528.0 1056.0 1535.0 1063.0Q1542.0 1070.0 1567.0 1070.0H1646.0Q1668.0 1070.0 1686.5 1069.5Q1705.0 1069.0 1716.0 1068.0Q1728.0 1068.0 1739.0 1065.5Q1750.0 1063.0 1759.0 1053.0Q1771.0 1041.0 1789.5 1005.5Q1808.0 970.0 1827.0 924.0H1847.0L1855.0 1055.0Q1897.0 1075.0 1911.0 1096.5Q1925.0 1118.0 1925.0 1152.0Q1925.0 1218.0 1856.0 1256.5Q1787.0 1295.0 1618.0 1295.0H1495.0Q1410.0 1295.0 1368.5 1277.5Q1327.0 1260.0 1313.5 1218.5Q1300.0 1177.0 1300.0 1105.0V627.0L1589.0 652.0Q1583.0 695.0 1528.0 703.0V832.0Q1586.0 786.0 1640.5 736.5Q1695.0 687.0 1722.0 656.0Z" fill="black"></path></svg>