<?xml version="1.0" standalone="no"?>
<!DOCTYPE svg PUBLIC "-//W3C//DTD SVG 1.1//EN" "http://www.w3.org/Graphics/SVG/1.1/DTD/svg11.dtd" >
<svg xmlns="http://www.w3.org/2000/svg" xmlns:svg="http://www.w3.org/2000/svg" xmlns:xlink="http://www.w3.org/1999/xlink" viewBox="0 0 2048 2048" style=""><path d="M1694.0 45.0Q1694.0 45.0 1725.5 69.0Q1757.0 93.0 1806.0 131.0Q1855.0 169.0 1908.0 211.5Q1961.0 254.0 2005.0 290.0Q1996.0 323.0 1942.0 323.0H1133.0V678.0Q1387.0 714.0 1549.0 786.5Q1711.0 859.0 1795.5 947.5Q1880.0 1036.0 1900.5 1120.5Q1921.0 1205.0 1891.5 1267.0Q1862.0 1329.0 1795.5 1349.0Q1729.0 1369.0 1641.0 1327.0Q1582.0 1222.0 1499.0 1115.5Q1416.0 1009.0 1321.0 910.0Q1226.0 811.0 1133.0 729.0V1914.0Q1133.0 1925.0 1101.0 1946.0Q1069.0 1967.0 1011.5 1985.0Q954.0 2003.0 875.0 2003.0H815.0V323.0H60.0L43.0 266.0H1522.0Z" fill="black"></path></svg>