<?xml version="1.0" standalone="no"?>
<!DOCTYPE svg PUBLIC "-//W3C//DTD SVG 1.1//EN" "http://www.w3.org/Graphics/SVG/1.1/DTD/svg11.dtd" >
<svg xmlns="http://www.w3.org/2000/svg" xmlns:svg="http://www.w3.org/2000/svg" xmlns:xlink="http://www.w3.org/1999/xlink" viewBox="0 0 2048 2048" style=""><path d="M1587.0 179.0Q1587.0 179.0 1618.0 202.0Q1649.0 225.0 1696.0 261.5Q1743.0 298.0 1794.5 338.5Q1846.0 379.0 1889.0 414.0Q1880.0 447.0 1827.0 447.0H170.0L154.0 390.0H1422.0ZM1448.0 865.0Q1448.0 865.0 1477.5 887.0Q1507.0 909.0 1552.5 944.0Q1598.0 979.0 1648.0 1018.5Q1698.0 1058.0 1739.0 1092.0Q1730.0 1125.0 1678.0 1125.0H303.0L287.0 1068.0H1286.0ZM1696.0 1596.0Q1696.0 1596.0 1727.0 1619.5Q1758.0 1643.0 1805.5 1680.0Q1853.0 1717.0 1905.5 1758.5Q1958.0 1800.0 2001.0 1836.0Q1992.0 1869.0 1940.0 1869.0H64.0L47.0 1811.0H1526.0Z" fill="black"></path></svg>