<?xml version="1.0" standalone="no"?>
<!DOCTYPE svg PUBLIC "-//W3C//DTD SVG 1.1//EN" "http://www.w3.org/Graphics/SVG/1.1/DTD/svg11.dtd" >
<svg xmlns="http://www.w3.org/2000/svg" xmlns:svg="http://www.w3.org/2000/svg" xmlns:xlink="http://www.w3.org/1999/xlink" viewBox="0 0 2048 2048" style=""><path d="M665.0 111.5Q861.0 112.5 980.5 155.5Q1100.0 198.5 1156.0 262.5Q1212.0 326.5 1216.5 393.5Q1221.0 460.5 1185.5 510.5Q1150.0 560.5 1086.5 574.5Q1023.0 588.5 945.0 546.5Q905.0 429.5 822.5 315.0Q740.0 200.5 652.0 124.5ZM54.0 1879.5H853.0V1252.5H296.0L280.0 1195.5H853.0V673.5H206.0L189.0 615.5H1457.0L1619.0 408.5Q1619.0 408.5 1649.0 431.0Q1679.0 453.5 1725.0 489.0Q1771.0 524.5 1821.5 564.5Q1872.0 604.5 1914.0 640.5Q1905.0 673.5 1852.0 673.5H1181.0V1195.5H1396.0L1553.0 994.5Q1553.0 994.5 1582.0 1016.5Q1611.0 1038.5 1655.5 1073.0Q1700.0 1107.5 1749.0 1146.5Q1798.0 1185.5 1838.0 1219.5Q1835.0 1236.5 1818.5 1244.5Q1802.0 1252.5 1779.0 1252.5H1181.0V1879.5H1523.0L1691.0 1666.5Q1691.0 1666.5 1721.5 1689.5Q1752.0 1712.5 1799.5 1749.0Q1847.0 1785.5 1899.0 1826.5Q1951.0 1867.5 1994.0 1903.5Q1985.0 1936.5 1932.0 1936.5H71.0Z" fill="black"></path></svg>