<?xml version="1.0" standalone="no"?>
<!DOCTYPE svg PUBLIC "-//W3C//DTD SVG 1.1//EN" "http://www.w3.org/Graphics/SVG/1.1/DTD/svg11.dtd" >
<svg xmlns="http://www.w3.org/2000/svg" xmlns:svg="http://www.w3.org/2000/svg" xmlns:xlink="http://www.w3.org/1999/xlink" viewBox="0 0 2048 2048" style=""><path d="M1225.0 772.0Q1459.0 792.0 1609.5 849.5Q1760.0 907.0 1840.5 982.5Q1921.0 1058.0 1943.0 1133.0Q1965.0 1208.0 1941.0 1265.0Q1917.0 1322.0 1858.5 1343.0Q1800.0 1364.0 1720.0 1329.0Q1666.0 1233.0 1581.5 1133.0Q1497.0 1033.0 1399.5 943.0Q1302.0 853.0 1210.0 786.0ZM67.0 276.0H1517.0L1687.0 61.0Q1687.0 61.0 1718.0 84.5Q1749.0 108.0 1797.0 145.0Q1845.0 182.0 1897.5 223.5Q1950.0 265.0 1993.0 301.0Q1984.0 334.0 1931.0 334.0H1366.0Q1282.0 490.0 1153.0 641.0L1237.0 672.0Q1232.0 686.0 1218.0 696.0Q1204.0 706.0 1173.0 711.0V1923.0Q1171.0 1931.0 1132.5 1946.5Q1094.0 1962.0 1038.0 1974.5Q982.0 1987.0 928.0 1987.0H870.0V920.0Q697.0 1064.0 492.5 1184.0Q288.0 1304.0 65.0 1386.0L55.0 1370.0Q206.0 1271.0 346.5 1147.5Q487.0 1024.0 606.0 886.5Q725.0 749.0 814.0 608.0Q903.0 467.0 952.0 334.0H84.0Z" fill="black"></path></svg>