<?xml version="1.0" standalone="no"?>
<!DOCTYPE svg PUBLIC "-//W3C//DTD SVG 1.1//EN" "http://www.w3.org/Graphics/SVG/1.1/DTD/svg11.dtd" >
<svg xmlns="http://www.w3.org/2000/svg" xmlns:svg="http://www.w3.org/2000/svg" xmlns:xlink="http://www.w3.org/1999/xlink" viewBox="0 0 2048 2048" style=""><path d="M1063.0 160.5Q1079.0 462.5 1130.5 699.5Q1182.0 936.5 1286.5 1116.0Q1391.0 1295.5 1565.0 1423.5Q1739.0 1551.5 1999.0 1634.5L1997.0 1659.5Q1885.0 1682.5 1816.0 1763.0Q1747.0 1843.5 1723.0 1964.5Q1537.0 1869.5 1414.0 1732.0Q1291.0 1594.5 1216.5 1417.5Q1142.0 1240.5 1103.0 1024.5Q1064.0 808.5 1047.0 555.5Q1032.0 758.5 986.5 955.5Q941.0 1152.5 838.0 1336.0Q735.0 1519.5 549.5 1682.5Q364.0 1845.5 70.0 1981.5L49.0 1954.5Q264.0 1784.5 397.5 1604.0Q531.0 1423.5 602.5 1235.5Q674.0 1047.5 703.0 854.0Q732.0 660.5 736.5 463.0Q741.0 265.5 742.0 66.5L1139.0 102.5Q1136.0 126.5 1119.5 140.5Q1103.0 154.5 1063.0 160.5Z" fill="black"></path></svg>