<?xml version="1.0" standalone="no"?>
<!DOCTYPE svg PUBLIC "-//W3C//DTD SVG 1.1//EN" "http://www.w3.org/Graphics/SVG/1.1/DTD/svg11.dtd" >
<svg xmlns="http://www.w3.org/2000/svg" xmlns:svg="http://www.w3.org/2000/svg" xmlns:xlink="http://www.w3.org/1999/xlink" viewBox="0 0 2048 2048" style=""><path d="M1115.5 231.0Q1029.5 375.0 888.5 513.0Q747.5 651.0 575.5 768.0H1079.5L1226.5 592.0Q1226.5 592.0 1253.5 611.0Q1280.5 630.0 1322.5 661.0Q1364.5 692.0 1410.5 727.0Q1456.5 762.0 1494.5 792.0Q1485.5 825.0 1435.5 825.0H583.5L569.5 772.0Q313.5 943.0 32.5 1040.0L20.5 1020.0Q158.5 933.0 290.5 814.0Q422.5 695.0 533.5 561.0Q644.5 427.0 721.0 294.0Q797.5 161.0 825.5 47.0L1257.5 155.0Q1251.5 178.0 1227.0 189.0Q1202.5 200.0 1148.5 207.0Q1218.5 303.0 1321.5 374.5Q1424.5 446.0 1545.0 496.0Q1665.5 546.0 1790.0 580.0Q1914.5 614.0 2027.5 637.0V669.0Q1961.5 689.0 1914.0 735.5Q1866.5 782.0 1838.0 841.5Q1809.5 901.0 1799.5 958.0Q1564.5 844.0 1383.0 669.5Q1201.5 495.0 1115.5 231.0ZM247.5 1104.0H1408.5L1552.5 942.0L1857.5 1169.0Q1845.5 1184.0 1822.5 1199.5Q1799.5 1215.0 1761.5 1222.0V1538.0Q1761.5 1630.0 1734.0 1696.5Q1706.5 1763.0 1620.0 1804.0Q1533.5 1845.0 1357.5 1859.0Q1351.5 1786.0 1340.0 1734.0Q1328.5 1682.0 1298.5 1648.0Q1269.5 1615.0 1227.5 1590.0Q1185.5 1565.0 1091.5 1548.0V1525.0Q1091.5 1525.0 1130.5 1527.5Q1169.5 1530.0 1223.5 1532.5Q1277.5 1535.0 1325.5 1537.5Q1373.5 1540.0 1392.5 1540.0Q1416.5 1540.0 1425.0 1529.5Q1433.5 1519.0 1433.5 1499.0V1161.0H1050.5V1939.0Q1048.5 1948.0 981.0 1974.5Q913.5 2001.0 790.5 2001.0H730.5V1161.0H266.5Z" fill="black"></path></svg>