<?xml version="1.0" standalone="no"?>
<!DOCTYPE svg PUBLIC "-//W3C//DTD SVG 1.1//EN" "http://www.w3.org/Graphics/SVG/1.1/DTD/svg11.dtd" >
<svg xmlns="http://www.w3.org/2000/svg" xmlns:svg="http://www.w3.org/2000/svg" xmlns:xlink="http://www.w3.org/1999/xlink" viewBox="0 0 2048 2048" style=""><path d="M128.0 588.0H620.0Q621.0 463.0 620.5 329.5Q620.0 196.0 620.0 55.0L1013.0 90.0Q1007.0 138.0 937.0 149.0Q936.0 265.0 934.0 374.0Q932.0 483.0 929.0 588.0H1197.0L1336.0 426.0L1592.0 633.0Q1582.0 645.0 1564.5 655.0Q1547.0 665.0 1515.0 670.0V1579.0Q1515.0 1602.0 1525.0 1612.0Q1535.0 1622.0 1566.0 1622.0H1662.0Q1685.0 1622.0 1706.5 1621.5Q1728.0 1621.0 1740.0 1620.0Q1755.0 1618.0 1765.5 1613.0Q1776.0 1608.0 1787.0 1589.0Q1807.0 1554.0 1836.0 1464.0Q1865.0 1374.0 1898.0 1268.0H1918.0L1924.0 1608.0Q1976.0 1634.0 1992.0 1660.0Q2008.0 1686.0 2008.0 1726.0Q2008.0 1814.0 1922.0 1858.0Q1836.0 1902.0 1627.0 1902.0H1480.0Q1375.0 1902.0 1320.0 1881.0Q1265.0 1860.0 1244.5 1807.0Q1224.0 1754.0 1224.0 1659.0V645.0H927.0Q917.0 867.0 880.0 1063.0Q843.0 1259.0 752.5 1428.0Q662.0 1597.0 495.0 1738.5Q328.0 1880.0 58.0 1993.0L40.0 1966.0Q217.0 1831.0 328.5 1682.5Q440.0 1534.0 501.0 1370.5Q562.0 1207.0 587.0 1026.0Q612.0 845.0 618.0 645.0H147.0Z" fill="black"></path></svg>