<?xml version="1.0" standalone="no"?>
<!DOCTYPE svg PUBLIC "-//W3C//DTD SVG 1.1//EN" "http://www.w3.org/Graphics/SVG/1.1/DTD/svg11.dtd" >
<svg xmlns="http://www.w3.org/2000/svg" xmlns:svg="http://www.w3.org/2000/svg" xmlns:xlink="http://www.w3.org/1999/xlink" viewBox="0 0 2048 2048" style=""><path d="M1643.5 475.0 2012.5 508.0Q2008.5 528.0 1994.5 542.5Q1980.5 557.0 1940.5 563.0V1831.0Q1940.5 1844.0 1903.0 1865.5Q1865.5 1887.0 1809.5 1904.0Q1753.5 1921.0 1698.5 1921.0H1643.5V1741.0H994.5V1841.0Q994.5 1855.0 960.0 1878.0Q925.5 1901.0 873.5 1919.0Q821.5 1937.0 768.5 1937.0H721.5V483.0L1069.5 514.0Q1066.5 535.0 1052.0 551.0Q1037.5 567.0 994.5 573.0V1683.0H1170.5V92.0L1540.5 125.0Q1537.5 148.0 1523.0 163.0Q1508.5 178.0 1465.5 184.0V1683.0H1643.5ZM430.5 51.0 824.5 168.0Q816.5 188.0 796.0 200.0Q775.5 212.0 740.5 211.0Q630.5 497.0 476.5 717.0L629.5 772.0Q619.5 802.0 566.5 813.0V1906.0Q565.5 1919.0 532.0 1940.5Q498.5 1962.0 445.5 1979.5Q392.5 1997.0 332.5 1997.0H279.5V952.0Q227.5 1004.0 172.0 1050.5Q116.5 1097.0 58.5 1138.0L35.5 1124.0Q116.5 993.0 193.5 819.0Q270.5 645.0 333.0 448.0Q395.5 251.0 430.5 51.0Z" fill="black"></path></svg>