<?xml version="1.0" standalone="no"?>
<!DOCTYPE svg PUBLIC "-//W3C//DTD SVG 1.1//EN" "http://www.w3.org/Graphics/SVG/1.1/DTD/svg11.dtd" >
<svg xmlns="http://www.w3.org/2000/svg" xmlns:svg="http://www.w3.org/2000/svg" xmlns:xlink="http://www.w3.org/1999/xlink" viewBox="0 0 2048 2048" style=""><path d="M267.0 978.0H654.0Q685.0 827.0 713.0 684.0Q741.0 541.0 763.0 421.0H181.0L165.0 364.0H1443.0L1601.0 146.0Q1601.0 146.0 1630.0 170.0Q1659.0 194.0 1704.0 231.5Q1749.0 269.0 1797.5 310.5Q1846.0 352.0 1885.0 388.0Q1876.0 421.0 1824.0 421.0H1074.0Q1051.0 542.0 1023.5 684.5Q996.0 827.0 964.0 978.0H1240.0L1379.0 831.0L1644.0 1035.0Q1634.0 1048.0 1615.0 1059.5Q1596.0 1071.0 1564.0 1078.0V1844.0H1588.0L1740.0 1615.0Q1740.0 1615.0 1767.5 1640.5Q1795.0 1666.0 1837.5 1705.5Q1880.0 1745.0 1925.5 1788.5Q1971.0 1832.0 2006.0 1869.0Q1997.0 1902.0 1947.0 1902.0H58.0L42.0 1844.0H456.0Q499.0 1683.0 547.5 1469.0Q596.0 1255.0 642.0 1035.0H286.0ZM767.0 1844.0H1261.0V1035.0H951.0Q905.0 1257.0 857.0 1470.0Q809.0 1683.0 767.0 1844.0Z" fill="black"></path></svg>