<?xml version="1.0" standalone="no"?>
<!DOCTYPE svg PUBLIC "-//W3C//DTD SVG 1.1//EN" "http://www.w3.org/Graphics/SVG/1.1/DTD/svg11.dtd" >
<svg xmlns="http://www.w3.org/2000/svg" xmlns:svg="http://www.w3.org/2000/svg" xmlns:xlink="http://www.w3.org/1999/xlink" viewBox="0 0 2048 2048" style=""><path d="M49.0 1868.0H789.0V123.0L1192.0 160.0Q1189.0 183.0 1174.0 198.0Q1159.0 213.0 1116.0 219.0V913.0H1382.0L1550.0 696.0Q1550.0 696.0 1580.5 719.5Q1611.0 743.0 1658.5 780.0Q1706.0 817.0 1757.5 859.0Q1809.0 901.0 1851.0 938.0Q1843.0 971.0 1792.0 971.0H1116.0V1868.0H1518.0L1690.0 1648.0Q1690.0 1648.0 1721.0 1672.0Q1752.0 1696.0 1800.5 1733.5Q1849.0 1771.0 1902.0 1813.0Q1955.0 1855.0 1999.0 1892.0Q1990.0 1925.0 1937.0 1925.0H66.0Z" fill="black"></path></svg>