<?xml version="1.0" standalone="no"?>
<!DOCTYPE svg PUBLIC "-//W3C//DTD SVG 1.1//EN" "http://www.w3.org/Graphics/SVG/1.1/DTD/svg11.dtd" >
<svg xmlns="http://www.w3.org/2000/svg" xmlns:svg="http://www.w3.org/2000/svg" xmlns:xlink="http://www.w3.org/1999/xlink" viewBox="0 0 2048 2048" style=""><path d="M50.0 1005.0 634.0 892.0V118.0L1015.0 157.0Q1013.0 177.0 997.0 193.5Q981.0 210.0 941.0 214.0V831.0L1504.0 722.0L1646.0 452.0Q1646.0 452.0 1680.5 470.5Q1715.0 489.0 1769.5 519.5Q1824.0 550.0 1885.0 584.5Q1946.0 619.0 1998.0 650.0Q1996.0 667.0 1981.0 679.0Q1966.0 691.0 1945.0 695.0L941.0 890.0V1549.0Q941.0 1597.0 971.5 1613.0Q1002.0 1629.0 1068.0 1629.0H1322.0Q1377.0 1629.0 1424.5 1628.5Q1472.0 1628.0 1504.0 1625.0Q1534.0 1624.0 1553.5 1616.0Q1573.0 1608.0 1590.0 1586.0Q1642.0 1508.0 1736.0 1238.0H1754.0L1764.0 1599.0Q1835.0 1628.0 1860.0 1658.0Q1885.0 1688.0 1885.0 1730.0Q1885.0 1802.0 1834.5 1846.5Q1784.0 1891.0 1655.0 1910.5Q1526.0 1930.0 1291.0 1930.0H1033.0Q892.0 1930.0 804.0 1908.5Q716.0 1887.0 675.0 1824.5Q634.0 1762.0 634.0 1640.0V949.0L77.0 1058.0Z" fill="black"></path></svg>