<?xml version="1.0" standalone="no"?>
<!DOCTYPE svg PUBLIC "-//W3C//DTD SVG 1.1//EN" "http://www.w3.org/Graphics/SVG/1.1/DTD/svg11.dtd" >
<svg xmlns="http://www.w3.org/2000/svg" xmlns:svg="http://www.w3.org/2000/svg" xmlns:xlink="http://www.w3.org/1999/xlink" viewBox="0 0 2048 2048" style=""><path d="M764.5 350.5Q946.5 392.5 1052.5 460.5Q1158.5 528.5 1203.0 604.0Q1247.5 679.5 1243.5 747.0Q1239.5 814.5 1200.0 858.5Q1160.5 902.5 1098.0 907.0Q1035.5 911.5 965.5 858.5Q940.5 728.5 877.0 597.0Q813.5 465.5 747.5 361.5ZM39.5 1458.5Q90.5 1451.5 158.5 1438.0Q226.5 1424.5 309.5 1407.5L289.5 111.5L668.5 137.5Q666.5 159.5 652.5 175.5Q638.5 191.5 594.5 197.5L612.5 1340.5Q857.5 1283.5 1106.5 1215.5L1110.5 1235.5Q973.5 1335.5 767.0 1459.5Q560.5 1583.5 250.5 1731.5Q233.5 1775.5 192.5 1788.5ZM1477.5 117.5 1882.5 152.5Q1879.5 176.5 1860.5 193.5Q1841.5 210.5 1802.5 213.5Q1793.5 439.5 1777.0 637.5Q1760.5 835.5 1716.0 1007.0Q1671.5 1178.5 1577.5 1323.5Q1738.5 1374.5 1833.5 1446.0Q1928.5 1517.5 1968.5 1593.0Q2008.5 1668.5 2005.0 1735.0Q2001.5 1801.5 1964.5 1844.5Q1927.5 1887.5 1866.5 1894.0Q1805.5 1900.5 1733.5 1854.5Q1696.5 1746.5 1633.5 1637.5Q1570.5 1528.5 1499.5 1430.5Q1361.5 1591.5 1121.0 1717.5Q880.5 1843.5 496.5 1936.5L481.5 1905.5Q772.5 1771.5 958.0 1627.5Q1143.5 1483.5 1248.5 1322.0Q1353.5 1160.5 1401.0 976.5Q1448.5 792.5 1461.0 579.5Q1473.5 366.5 1477.5 117.5Z" fill="black"></path></svg>