<?xml version="1.0" standalone="no"?>
<!DOCTYPE svg PUBLIC "-//W3C//DTD SVG 1.1//EN" "http://www.w3.org/Graphics/SVG/1.1/DTD/svg11.dtd" >
<svg xmlns="http://www.w3.org/2000/svg" xmlns:svg="http://www.w3.org/2000/svg" xmlns:xlink="http://www.w3.org/1999/xlink" viewBox="0 0 2048 2048" style=""><path d="M755.0 1207.0Q917.0 1229.0 1011.0 1278.5Q1105.0 1328.0 1144.0 1388.5Q1183.0 1449.0 1178.0 1505.5Q1173.0 1562.0 1136.5 1600.0Q1100.0 1638.0 1043.5 1642.5Q987.0 1647.0 923.0 1602.0Q901.0 1501.0 847.5 1397.5Q794.0 1294.0 738.0 1217.0ZM605.0 650.0Q599.0 665.0 584.5 675.0Q570.0 685.0 540.0 691.0V1910.0Q539.0 1920.0 503.5 1939.0Q468.0 1958.0 414.0 1974.0Q360.0 1990.0 304.0 1990.0H251.0V955.0Q156.0 1054.0 48.0 1133.0L28.0 1119.0Q100.0 987.0 169.5 811.5Q239.0 636.0 294.0 439.0Q349.0 242.0 380.0 44.0L779.0 163.0Q766.0 206.0 695.0 206.0Q654.0 319.0 607.5 421.0Q561.0 523.0 507.0 615.0ZM1742.0 912.0Q1742.0 912.0 1768.0 933.0Q1794.0 954.0 1834.0 987.5Q1874.0 1021.0 1918.0 1058.5Q1962.0 1096.0 1998.0 1129.0Q1989.0 1162.0 1938.0 1162.0H1631.0V1684.0Q1631.0 1780.0 1605.0 1846.0Q1579.0 1912.0 1496.0 1951.0Q1413.0 1990.0 1244.0 2004.0Q1238.0 1936.0 1225.0 1889.0Q1212.0 1842.0 1179.0 1809.0Q1146.0 1780.0 1099.5 1757.0Q1053.0 1734.0 953.0 1717.0V1693.0Q953.0 1693.0 997.5 1695.5Q1042.0 1698.0 1103.0 1701.0Q1164.0 1704.0 1218.0 1706.5Q1272.0 1709.0 1291.0 1709.0Q1334.0 1709.0 1334.0 1674.0V1162.0H624.0L607.0 1105.0H1334.0V865.0L1701.0 896.0Q1698.0 919.0 1682.5 932.0Q1667.0 945.0 1631.0 949.0V1062.0ZM1644.0 226.0Q1644.0 226.0 1671.0 247.5Q1698.0 269.0 1740.0 302.5Q1782.0 336.0 1828.0 374.0Q1874.0 412.0 1912.0 445.0Q1903.0 478.0 1852.0 478.0H1377.0V791.0H1598.0L1748.0 593.0Q1748.0 593.0 1776.0 614.5Q1804.0 636.0 1846.5 670.5Q1889.0 705.0 1936.0 743.5Q1983.0 782.0 2020.0 816.0Q2011.0 849.0 1961.0 849.0H566.0L550.0 791.0H1078.0V478.0H675.0L658.0 421.0H1078.0V44.0L1443.0 73.0Q1441.0 93.0 1427.5 106.5Q1414.0 120.0 1377.0 126.0V421.0H1496.0Z" fill="black"></path></svg>