<?xml version="1.0" standalone="no"?>
<!DOCTYPE svg PUBLIC "-//W3C//DTD SVG 1.1//EN" "http://www.w3.org/Graphics/SVG/1.1/DTD/svg11.dtd" >
<svg xmlns="http://www.w3.org/2000/svg" xmlns:svg="http://www.w3.org/2000/svg" xmlns:xlink="http://www.w3.org/1999/xlink" viewBox="0 0 2048 2048" style=""><path d="M405.0 50.0 798.0 167.0Q790.0 187.0 769.5 199.0Q749.0 211.0 714.0 210.0Q669.0 328.0 617.0 433.0Q565.0 538.0 505.0 632.0L632.0 679.0Q627.0 692.0 613.0 702.5Q599.0 713.0 568.0 720.0V1221.0Q670.0 1121.0 761.5 1000.5Q853.0 880.0 923.0 753.0Q993.0 626.0 1031.0 509.0H642.0L626.0 451.0H1123.0V60.0L1492.0 89.0Q1489.0 107.0 1476.0 120.5Q1463.0 134.0 1426.0 140.0V451.0H1560.0L1719.0 242.0Q1719.0 242.0 1748.5 265.0Q1778.0 288.0 1823.0 324.0Q1868.0 360.0 1917.0 400.5Q1966.0 441.0 2006.0 476.0Q1997.0 509.0 1945.0 509.0H1402.0L1377.0 552.0Q1393.0 673.0 1424.0 791.5Q1455.0 910.0 1502.0 1021.0Q1543.0 953.0 1586.5 875.5Q1630.0 798.0 1667.5 727.0Q1705.0 656.0 1730.0 607.0L2024.0 849.0Q2017.0 861.0 1998.5 865.5Q1980.0 870.0 1947.0 859.0Q1903.0 892.0 1832.0 931.5Q1761.0 971.0 1682.0 1010.5Q1603.0 1050.0 1533.0 1084.0Q1613.0 1245.0 1737.0 1382.5Q1861.0 1520.0 2039.0 1619.0L2037.0 1643.0Q1814.0 1693.0 1773.0 1967.0Q1685.0 1879.0 1619.5 1761.5Q1554.0 1644.0 1506.0 1510.0Q1393.0 1595.0 1226.5 1703.0Q1060.0 1811.0 822.0 1938.0Q806.0 1985.0 767.0 1998.0L615.0 1682.0Q713.0 1666.0 876.0 1629.0V1084.0Q802.0 1138.0 725.0 1185.5Q648.0 1233.0 568.0 1273.0V1914.0Q566.0 1925.0 530.0 1945.0Q494.0 1965.0 439.5 1981.5Q385.0 1998.0 327.0 1998.0H271.0V933.0Q216.0 989.0 156.0 1041.0Q96.0 1093.0 32.0 1137.0L9.0 1123.0Q90.0 992.0 167.0 818.0Q244.0 644.0 306.5 447.0Q369.0 250.0 405.0 50.0ZM1494.0 1473.0Q1426.0 1264.0 1393.0 1036.5Q1360.0 809.0 1347.0 603.0Q1269.0 719.0 1162.0 832.0V1561.0Q1244.0 1541.0 1327.5 1518.5Q1411.0 1496.0 1494.0 1473.0Z" fill="black"></path></svg>