<?xml version="1.0" standalone="no"?>
<!DOCTYPE svg PUBLIC "-//W3C//DTD SVG 1.1//EN" "http://www.w3.org/Graphics/SVG/1.1/DTD/svg11.dtd" >
<svg xmlns="http://www.w3.org/2000/svg" xmlns:svg="http://www.w3.org/2000/svg" xmlns:xlink="http://www.w3.org/1999/xlink" viewBox="0 0 2048 2048" style=""><path d="M1039.0 52.0 1433.0 189.0Q1415.0 234.0 1346.0 228.0Q1311.0 303.0 1272.5 371.5Q1234.0 440.0 1193.0 505.0H1582.0L1738.0 302.0Q1738.0 302.0 1766.0 324.0Q1794.0 346.0 1837.5 381.0Q1881.0 416.0 1929.0 455.5Q1977.0 495.0 2016.0 529.0Q2007.0 562.0 1955.0 562.0H1455.0V945.0H1537.0L1680.0 756.0Q1680.0 756.0 1706.5 777.0Q1733.0 798.0 1773.5 830.5Q1814.0 863.0 1859.0 900.0Q1904.0 937.0 1940.0 969.0Q1931.0 1002.0 1881.0 1002.0H1455.0V1393.0H1545.0L1701.0 1189.0Q1701.0 1189.0 1729.5 1211.0Q1758.0 1233.0 1802.0 1268.5Q1846.0 1304.0 1894.5 1343.5Q1943.0 1383.0 1983.0 1418.0Q1974.0 1451.0 1922.0 1451.0H1455.0V1920.0Q1455.0 1932.0 1389.0 1962.5Q1323.0 1993.0 1205.0 1993.0H1148.0V572.0Q1042.0 724.0 919.0 844.5Q796.0 965.0 656.0 1058.0L636.0 1043.0Q712.0 923.0 788.5 761.5Q865.0 600.0 930.5 417.0Q996.0 234.0 1039.0 52.0ZM484.0 50.0 873.0 177.0Q857.0 221.0 787.0 218.0Q734.0 345.0 672.5 458.0Q611.0 571.0 544.0 673.0L669.0 718.0Q664.0 731.0 650.0 741.5Q636.0 752.0 605.0 759.0V1916.0Q603.0 1926.0 567.0 1945.5Q531.0 1965.0 476.5 1981.5Q422.0 1998.0 363.0 1998.0H308.0V957.0Q191.0 1075.0 52.0 1172.0L32.0 1156.0Q119.0 1023.0 205.5 843.0Q292.0 663.0 365.0 459.5Q438.0 256.0 484.0 50.0Z" fill="black"></path></svg>