<?xml version="1.0" standalone="no"?>
<!DOCTYPE svg PUBLIC "-//W3C//DTD SVG 1.1//EN" "http://www.w3.org/Graphics/SVG/1.1/DTD/svg11.dtd" >
<svg xmlns="http://www.w3.org/2000/svg" xmlns:svg="http://www.w3.org/2000/svg" xmlns:xlink="http://www.w3.org/1999/xlink" viewBox="0 0 2048 2048" style=""><path d="M692.5 525.5H1626.5L1770.5 328.5Q1770.5 328.5 1796.5 350.5Q1822.5 372.5 1863.0 406.5Q1903.5 440.5 1947.0 479.0Q1990.5 517.5 2026.5 550.5Q2017.5 582.5 1966.5 582.5H709.5ZM860.5 244.5H1468.5L1604.5 56.5Q1604.5 56.5 1629.5 77.5Q1654.5 98.5 1693.0 131.0Q1731.5 163.5 1773.0 200.5Q1814.5 237.5 1847.5 269.5Q1841.5 302.5 1790.5 302.5H877.5ZM815.5 799.5H1538.5L1669.5 619.5Q1669.5 619.5 1693.5 639.5Q1717.5 659.5 1754.5 691.0Q1791.5 722.5 1832.0 758.0Q1872.5 793.5 1905.5 824.5Q1896.5 857.5 1847.5 857.5H832.5ZM815.5 1076.5H1538.5L1669.5 896.5Q1669.5 896.5 1693.5 916.5Q1717.5 936.5 1754.5 968.0Q1791.5 999.5 1832.0 1035.0Q1872.5 1070.5 1905.5 1100.5Q1896.5 1133.5 1847.5 1133.5H832.5ZM815.5 1344.5V1230.5L1118.5 1344.5H1534.5L1663.5 1203.5L1931.5 1404.5Q1922.5 1416.5 1903.5 1430.0Q1884.5 1443.5 1851.5 1449.5V1891.5Q1850.5 1899.5 1810.5 1917.5Q1770.5 1935.5 1713.5 1950.5Q1656.5 1965.5 1606.5 1965.5H1554.5V1823.5H1106.5V1895.5Q1106.5 1908.5 1069.0 1929.5Q1031.5 1950.5 974.5 1967.0Q917.5 1983.5 856.5 1983.5H815.5ZM1106.5 1766.5H1554.5V1402.5H1106.5ZM408.5 52.5 807.5 171.5Q794.5 214.5 723.5 214.5Q675.5 335.5 623.0 446.0Q570.5 556.5 512.5 656.5L635.5 701.5Q625.5 731.5 571.5 742.5V1914.5Q569.5 1924.5 534.0 1944.0Q498.5 1963.5 443.5 1979.5Q388.5 1995.5 330.5 1995.5H274.5V986.5Q221.5 1049.5 163.0 1105.0Q104.5 1160.5 43.5 1209.5L21.5 1195.5Q95.5 1054.5 170.0 866.5Q244.5 678.5 307.0 468.5Q369.5 258.5 408.5 52.5Z" fill="black"></path></svg>