<?xml version="1.0" standalone="no"?>
<!DOCTYPE svg PUBLIC "-//W3C//DTD SVG 1.1//EN" "http://www.w3.org/Graphics/SVG/1.1/DTD/svg11.dtd" >
<svg xmlns="http://www.w3.org/2000/svg" xmlns:svg="http://www.w3.org/2000/svg" xmlns:xlink="http://www.w3.org/1999/xlink" viewBox="0 0 2048 2048" style=""><path d="M649.0 859.5H1102.0V468.5H745.0L729.0 410.5H1102.0V60.5L1468.0 91.5Q1465.0 109.5 1452.5 123.0Q1440.0 136.5 1403.0 142.5V410.5H1509.0L1655.0 210.5Q1655.0 210.5 1681.5 232.5Q1708.0 254.5 1748.5 289.0Q1789.0 323.5 1833.0 362.5Q1877.0 401.5 1913.0 435.5Q1904.0 468.5 1855.0 468.5H1403.0V859.5H1583.0L1731.0 656.5Q1731.0 656.5 1757.5 678.5Q1784.0 700.5 1825.5 735.5Q1867.0 770.5 1912.0 810.0Q1957.0 849.5 1993.0 883.5Q1990.0 900.5 1973.5 908.5Q1957.0 916.5 1935.0 916.5H666.0ZM1102.0 924.5 1468.0 955.5Q1465.0 975.5 1452.5 989.0Q1440.0 1002.5 1403.0 1008.5V1307.5H1526.0L1675.0 1102.5Q1675.0 1102.5 1702.0 1125.0Q1729.0 1147.5 1771.0 1183.0Q1813.0 1218.5 1858.0 1258.0Q1903.0 1297.5 1939.0 1332.5Q1930.0 1365.5 1880.0 1365.5H1403.0V1854.5H1591.0L1747.0 1639.5Q1747.0 1639.5 1775.0 1663.0Q1803.0 1686.5 1846.5 1723.5Q1890.0 1760.5 1937.5 1802.0Q1985.0 1843.5 2023.0 1879.5Q2014.0 1911.5 1964.0 1911.5H645.0L629.0 1854.5H1102.0V1365.5H715.0L698.0 1307.5H1102.0ZM430.0 54.5 827.0 175.5Q813.0 221.5 745.0 218.5Q653.0 445.5 543.0 636.5L653.0 677.5Q649.0 692.5 634.5 702.0Q620.0 711.5 590.0 717.5V1909.5Q588.0 1921.5 552.0 1941.5Q516.0 1961.5 461.0 1977.5Q406.0 1993.5 348.0 1993.5H293.0V980.5Q176.0 1112.5 47.0 1211.5L25.0 1197.5Q101.0 1057.5 178.5 870.0Q256.0 682.5 322.0 472.0Q388.0 261.5 430.0 54.5Z" fill="black"></path></svg>