<?xml version="1.0" standalone="no"?>
<!DOCTYPE svg PUBLIC "-//W3C//DTD SVG 1.1//EN" "http://www.w3.org/Graphics/SVG/1.1/DTD/svg11.dtd" >
<svg xmlns="http://www.w3.org/2000/svg" xmlns:svg="http://www.w3.org/2000/svg" xmlns:xlink="http://www.w3.org/1999/xlink" viewBox="0 0 2048 2048" style=""><path d="M1149.0 58.0 1513.0 93.0Q1510.0 114.0 1495.0 129.0Q1480.0 144.0 1440.0 150.0V376.0H1563.0L1720.0 169.0Q1720.0 169.0 1749.0 191.5Q1778.0 214.0 1822.5 249.5Q1867.0 285.0 1916.0 325.0Q1965.0 365.0 2005.0 400.0Q2000.0 417.0 1983.5 425.0Q1967.0 433.0 1946.0 433.0H1440.0V640.0H1595.0L1722.0 500.0L1984.0 699.0Q1975.0 711.0 1955.0 724.0Q1935.0 737.0 1902.0 744.0V1180.0Q1902.0 1189.0 1863.0 1206.0Q1824.0 1223.0 1768.5 1237.5Q1713.0 1252.0 1665.0 1252.0H1616.0V1148.0H1440.0Q1437.0 1275.0 1409.5 1383.0Q1382.0 1491.0 1327.0 1580.0Q1482.0 1630.0 1663.5 1652.5Q1845.0 1675.0 2034.0 1672.0L2032.0 1697.0Q1947.0 1724.0 1884.5 1801.5Q1822.0 1879.0 1806.0 1991.0Q1603.0 1959.0 1446.5 1901.5Q1290.0 1844.0 1173.0 1752.0Q965.0 1921.0 549.0 1998.0L539.0 1977.0Q889.0 1834.0 1030.0 1608.0Q979.0 1541.0 938.0 1460.5Q897.0 1380.0 866.0 1283.0L887.0 1273.0Q924.0 1332.0 977.0 1383.0Q1030.0 1434.0 1096.0 1475.0Q1122.0 1403.0 1134.5 1321.5Q1147.0 1240.0 1149.0 1148.0H971.0V1195.0Q971.0 1207.0 934.5 1227.0Q898.0 1247.0 842.5 1263.0Q787.0 1279.0 729.0 1279.0H690.0V527.0L983.0 640.0H1149.0V433.0H684.0L668.0 376.0H1149.0ZM1616.0 1090.0V697.0H1440.0V1090.0ZM971.0 1090.0H1149.0V697.0H971.0ZM410.0 50.0 803.0 167.0Q795.0 187.0 774.5 199.0Q754.0 211.0 719.0 210.0Q673.0 331.0 619.5 438.0Q566.0 545.0 506.0 640.0L614.0 681.0Q608.0 696.0 593.5 706.0Q579.0 716.0 549.0 722.0V1916.0Q548.0 1926.0 513.5 1945.5Q479.0 1965.0 426.5 1981.5Q374.0 1998.0 317.0 1998.0H264.0V945.0Q210.0 999.0 153.5 1046.5Q97.0 1094.0 37.0 1137.0L14.0 1123.0Q95.0 992.0 172.0 818.0Q249.0 644.0 311.5 447.0Q374.0 250.0 410.0 50.0Z" fill="black"></path></svg>