<?xml version="1.0" standalone="no"?>
<!DOCTYPE svg PUBLIC "-//W3C//DTD SVG 1.1//EN" "http://www.w3.org/Graphics/SVG/1.1/DTD/svg11.dtd" >
<svg xmlns="http://www.w3.org/2000/svg" xmlns:svg="http://www.w3.org/2000/svg" xmlns:xlink="http://www.w3.org/1999/xlink" viewBox="0 0 2048 2048" style=""><path d="M1117.0 368.0Q1264.0 426.0 1346.0 498.5Q1428.0 571.0 1457.5 643.0Q1487.0 715.0 1476.5 775.5Q1466.0 836.0 1427.0 871.5Q1388.0 907.0 1333.5 905.0Q1279.0 903.0 1221.0 850.0Q1217.0 728.0 1179.0 604.0Q1141.0 480.0 1097.0 377.0ZM396.0 49.0 777.0 160.0V137.0L1135.0 168.0Q1132.0 186.0 1119.0 200.5Q1106.0 215.0 1068.0 221.0V1329.0L1424.0 1243.0L1428.0 1263.0Q1333.0 1340.0 1176.0 1449.0Q1019.0 1558.0 785.0 1698.0Q768.0 1745.0 728.0 1757.0L574.0 1438.0L777.0 1397.0V188.0Q762.0 209.0 714.0 209.0Q669.0 327.0 617.5 434.5Q566.0 542.0 509.0 639.0L615.0 678.0Q611.0 693.0 596.5 703.0Q582.0 713.0 552.0 719.0V1913.0Q550.0 1923.0 515.0 1942.5Q480.0 1962.0 427.5 1978.5Q375.0 1995.0 318.0 1995.0H265.0V971.0Q217.0 1024.0 165.5 1072.5Q114.0 1121.0 60.0 1165.0L38.0 1151.0Q108.0 1015.0 177.5 833.5Q247.0 652.0 304.0 450.0Q361.0 248.0 396.0 49.0ZM1563.0 127.0 1944.0 162.0Q1938.0 209.0 1869.0 221.0Q1864.0 467.0 1855.0 686.0Q1846.0 905.0 1802.5 1096.0Q1759.0 1287.0 1649.0 1450.0Q1788.0 1505.0 1867.5 1574.0Q1947.0 1643.0 1978.5 1713.0Q2010.0 1783.0 2003.5 1842.0Q1997.0 1901.0 1961.5 1938.0Q1926.0 1975.0 1871.5 1977.5Q1817.0 1980.0 1754.0 1935.0Q1726.0 1838.0 1677.0 1738.0Q1628.0 1638.0 1576.0 1546.0Q1459.0 1681.0 1271.5 1794.5Q1084.0 1908.0 800.0 1999.0L783.0 1972.0Q1034.0 1837.0 1186.5 1685.5Q1339.0 1534.0 1418.5 1363.0Q1498.0 1192.0 1528.0 999.5Q1558.0 807.0 1560.5 589.5Q1563.0 372.0 1563.0 127.0Z" fill="black"></path></svg>