<?xml version="1.0" standalone="no"?>
<!DOCTYPE svg PUBLIC "-//W3C//DTD SVG 1.1//EN" "http://www.w3.org/Graphics/SVG/1.1/DTD/svg11.dtd" >
<svg xmlns="http://www.w3.org/2000/svg" xmlns:svg="http://www.w3.org/2000/svg" xmlns:xlink="http://www.w3.org/1999/xlink" viewBox="0 0 2048 2048" style=""><path d="M657.5 1821.5H1580.5L1742.5 1598.5Q1742.5 1598.5 1772.0 1623.0Q1801.5 1647.5 1847.0 1685.5Q1892.5 1723.5 1941.5 1766.5Q1990.5 1809.5 2029.5 1846.5Q2020.5 1879.5 1969.5 1879.5H673.5ZM1505.5 318.5H1087.5V834.5H1505.5ZM798.5 261.5V140.5L1099.5 261.5H1484.5L1617.5 113.5L1881.5 320.5Q1872.5 332.5 1852.5 345.5Q1832.5 358.5 1801.5 365.5V1500.5Q1799.5 1509.5 1759.5 1528.0Q1719.5 1546.5 1662.5 1562.5Q1605.5 1578.5 1554.5 1578.5H1505.5V1461.5H1087.5V1529.5Q1087.5 1545.5 1053.0 1569.0Q1018.5 1592.5 963.0 1611.0Q907.5 1629.5 843.5 1629.5H798.5ZM1087.5 1404.5H1505.5V892.5H1087.5ZM378.5 52.5 780.5 167.5Q766.5 210.5 696.5 210.5Q606.5 452.5 493.5 652.5L626.5 701.5Q616.5 731.5 562.5 742.5V1914.5Q560.5 1924.5 525.0 1944.0Q489.5 1963.5 434.5 1979.5Q379.5 1995.5 321.5 1995.5H265.5V982.5Q213.5 1045.5 157.0 1102.0Q100.5 1158.5 40.5 1209.5L18.5 1195.5Q87.5 1053.5 157.0 864.5Q226.5 675.5 284.5 466.0Q342.5 256.5 378.5 52.5Z" fill="black"></path></svg>