<?xml version="1.0" standalone="no"?>
<!DOCTYPE svg PUBLIC "-//W3C//DTD SVG 1.1//EN" "http://www.w3.org/Graphics/SVG/1.1/DTD/svg11.dtd" >
<svg xmlns="http://www.w3.org/2000/svg" xmlns:svg="http://www.w3.org/2000/svg" xmlns:xlink="http://www.w3.org/1999/xlink" viewBox="0 0 2048 2048" style=""><path d="M682.5 337.0H1577.5L1739.5 111.0Q1739.5 111.0 1769.0 136.0Q1798.5 161.0 1844.5 199.5Q1890.5 238.0 1939.5 281.0Q1988.5 324.0 2027.5 361.0Q2018.5 394.0 1968.5 394.0H1816.5V1641.0Q1816.5 1738.0 1790.0 1814.5Q1763.5 1891.0 1680.0 1938.5Q1596.5 1986.0 1427.5 1998.0Q1424.5 1922.0 1411.0 1868.0Q1397.5 1814.0 1366.5 1780.0Q1337.5 1747.0 1291.0 1722.0Q1244.5 1697.0 1145.5 1680.0V1656.0Q1145.5 1656.0 1186.5 1658.0Q1227.5 1660.0 1285.5 1663.0Q1343.5 1666.0 1395.5 1668.0Q1447.5 1670.0 1468.5 1670.0Q1513.5 1670.0 1513.5 1631.0V394.0H698.5ZM715.5 668.0V562.0L985.5 668.0H1091.5L1216.5 531.0L1470.5 728.0Q1461.5 740.0 1440.0 753.5Q1418.5 767.0 1382.5 775.0V1389.0Q1381.5 1397.0 1345.0 1414.5Q1308.5 1432.0 1257.0 1446.5Q1205.5 1461.0 1159.5 1461.0H1114.5V1314.0H977.5V1416.0Q977.5 1428.0 944.5 1448.0Q911.5 1468.0 860.5 1484.0Q809.5 1500.0 753.5 1500.0H715.5ZM977.5 1256.0H1114.5V726.0H977.5ZM416.5 50.0 809.5 167.0Q801.5 187.0 781.0 199.0Q760.5 211.0 725.5 210.0Q630.5 454.0 506.5 650.0L647.5 701.0Q642.5 717.0 628.5 726.5Q614.5 736.0 583.5 742.0V1914.0Q581.5 1925.0 546.0 1945.0Q510.5 1965.0 455.5 1981.5Q400.5 1998.0 342.5 1998.0H287.5V929.0Q230.5 987.0 170.0 1039.0Q109.5 1091.0 43.5 1137.0L20.5 1123.0Q101.5 992.0 178.5 818.0Q255.5 644.0 318.0 447.0Q380.5 250.0 416.5 50.0Z" fill="black"></path></svg>