<?xml version="1.0" standalone="no"?>
<!DOCTYPE svg PUBLIC "-//W3C//DTD SVG 1.1//EN" "http://www.w3.org/Graphics/SVG/1.1/DTD/svg11.dtd" >
<svg xmlns="http://www.w3.org/2000/svg" xmlns:svg="http://www.w3.org/2000/svg" xmlns:xlink="http://www.w3.org/1999/xlink" viewBox="0 0 2048 2048" style=""><path d="M1376.0 519.0 1731.0 599.0Q1720.0 643.0 1653.0 646.0Q1640.0 683.0 1626.0 718.0Q1612.0 753.0 1595.0 785.0Q1718.0 815.0 1786.0 863.5Q1854.0 912.0 1878.0 966.5Q1902.0 1021.0 1891.5 1069.5Q1881.0 1118.0 1845.0 1149.5Q1809.0 1181.0 1757.5 1182.5Q1706.0 1184.0 1649.0 1144.0Q1636.0 1078.0 1607.5 1011.0Q1579.0 944.0 1544.0 884.0Q1438.0 1053.0 1278.0 1152.0Q1408.0 1319.0 1598.5 1431.0Q1789.0 1543.0 1995.0 1592.0L1991.0 1617.0Q1909.0 1637.0 1848.5 1705.0Q1788.0 1773.0 1763.0 1879.0Q1527.0 1758.0 1385.0 1557.0Q1243.0 1356.0 1163.0 1054.0V1887.0Q1163.0 1903.0 1125.5 1927.5Q1088.0 1952.0 1032.0 1972.0Q976.0 1992.0 920.0 1992.0H862.0V1435.0Q710.0 1574.0 505.5 1693.5Q301.0 1813.0 68.0 1885.0L53.0 1861.0Q230.0 1764.0 389.0 1612.5Q548.0 1461.0 671.0 1277.0Q794.0 1093.0 862.0 898.0V454.0H98.0L82.0 396.0H862.0V56.0L1239.0 93.0Q1236.0 115.0 1221.0 129.5Q1206.0 144.0 1163.0 150.0V396.0H1522.0L1683.0 198.0Q1683.0 198.0 1712.5 219.5Q1742.0 241.0 1787.5 275.5Q1833.0 310.0 1883.0 348.5Q1933.0 387.0 1974.0 421.0Q1965.0 454.0 1913.0 454.0H1163.0V961.0Q1180.0 1000.0 1201.0 1036.5Q1222.0 1073.0 1245.0 1107.0Q1302.0 987.0 1336.0 834.5Q1370.0 682.0 1376.0 519.0ZM405.0 521.0 750.0 617.0Q736.0 662.0 670.0 662.0Q654.0 701.0 638.5 736.5Q623.0 772.0 606.0 806.0Q717.0 845.0 761.0 898.5Q805.0 952.0 799.5 1004.0Q794.0 1056.0 755.5 1090.0Q717.0 1124.0 661.5 1124.0Q606.0 1124.0 551.0 1074.0Q551.0 1039.0 545.5 1002.5Q540.0 966.0 530.0 931.0Q455.0 1043.0 363.0 1125.5Q271.0 1208.0 162.0 1267.0L139.0 1250.0Q234.0 1118.0 306.5 927.0Q379.0 736.0 405.0 521.0Z" fill="black"></path></svg>