<?xml version="1.0" standalone="no"?>
<!DOCTYPE svg PUBLIC "-//W3C//DTD SVG 1.1//EN" "http://www.w3.org/Graphics/SVG/1.1/DTD/svg11.dtd" >
<svg xmlns="http://www.w3.org/2000/svg" xmlns:svg="http://www.w3.org/2000/svg" xmlns:xlink="http://www.w3.org/1999/xlink" viewBox="0 0 2048 2048" style=""><path d="M1515.0 767.0H1141.0V935.0H1515.0ZM1515.0 709.0V548.0H1141.0V709.0ZM930.0 50.0 1292.0 185.0Q1284.0 204.0 1263.5 215.5Q1243.0 227.0 1208.0 224.0L1157.0 296.0H1548.0L1702.0 93.0Q1702.0 93.0 1730.0 115.0Q1758.0 137.0 1801.5 172.0Q1845.0 207.0 1893.0 246.5Q1941.0 286.0 1980.0 320.0Q1971.0 353.0 1921.0 353.0H1112.0Q1092.0 378.0 1071.5 400.0Q1051.0 422.0 1030.0 443.0L1153.0 490.0H1495.0L1622.0 355.0L1880.0 548.0Q1862.0 577.0 1808.0 589.0V955.0Q1808.0 961.0 1794.0 972.0Q1831.0 1001.0 1897.0 1054.5Q1963.0 1108.0 2015.0 1154.0Q2009.0 1187.0 1958.0 1187.0H1790.0L2009.0 1367.0Q1984.0 1395.0 1927.0 1404.0Q1907.0 1648.0 1869.5 1769.5Q1832.0 1891.0 1755.0 1940.0Q1704.0 1974.0 1638.0 1985.0Q1572.0 1996.0 1478.0 1998.0Q1478.0 1944.0 1471.5 1907.0Q1465.0 1870.0 1442.0 1842.0Q1404.0 1795.0 1311.0 1770.0Q1223.0 1839.0 1114.5 1895.0Q1006.0 1951.0 878.0 1998.0L862.0 1969.0Q1045.0 1858.0 1165.5 1700.5Q1286.0 1543.0 1349.0 1354.0H1341.0Q1240.0 1511.0 1066.5 1629.0Q893.0 1747.0 680.0 1826.0L661.0 1799.0Q793.0 1713.0 897.0 1596.0Q1001.0 1479.0 1067.0 1354.0H1057.0Q966.0 1424.0 857.0 1479.5Q748.0 1535.0 629.0 1578.0L610.0 1551.0Q713.0 1480.0 796.0 1383.0Q879.0 1286.0 936.0 1187.0H647.0L631.0 1129.0H1622.0L1712.0 1012.0Q1678.0 1025.0 1640.0 1034.0Q1602.0 1043.0 1567.0 1043.0H1515.0V992.0H1130.0Q1107.0 1013.0 1038.0 1038.5Q969.0 1064.0 895.0 1064.0H854.0V591.0Q759.0 658.0 657.0 707.0L637.0 691.0Q692.0 615.0 747.0 512.0Q802.0 409.0 849.5 290.5Q897.0 172.0 930.0 50.0ZM1225.0 1187.0Q1203.0 1216.0 1177.5 1243.5Q1152.0 1271.0 1124.0 1297.0H1632.0L1751.0 1187.0ZM1634.0 1354.0Q1540.0 1580.0 1345.0 1744.0L1497.0 1750.0Q1536.0 1750.0 1558.0 1733.0Q1619.0 1689.0 1646.0 1354.0ZM391.0 52.0 790.0 169.0Q777.0 212.0 708.0 212.0Q621.0 436.0 518.0 615.0L610.0 650.0Q606.0 665.0 591.5 675.0Q577.0 685.0 547.0 691.0V1916.0Q545.0 1926.0 510.0 1945.5Q475.0 1965.0 422.0 1981.5Q369.0 1998.0 313.0 1998.0H260.0V974.0Q212.0 1027.0 160.5 1075.5Q109.0 1124.0 55.0 1168.0L33.0 1154.0Q103.0 1018.0 172.5 836.5Q242.0 655.0 299.0 453.0Q356.0 251.0 391.0 52.0Z" fill="black"></path></svg>