<?xml version="1.0" standalone="no"?>
<!DOCTYPE svg PUBLIC "-//W3C//DTD SVG 1.1//EN" "http://www.w3.org/Graphics/SVG/1.1/DTD/svg11.dtd" >
<svg xmlns="http://www.w3.org/2000/svg" xmlns:svg="http://www.w3.org/2000/svg" xmlns:xlink="http://www.w3.org/1999/xlink" viewBox="0 0 2048 2048" style=""><path d="M637.5 252.0H1599.5L1749.5 57.0Q1749.5 57.0 1776.5 78.5Q1803.5 100.0 1845.5 133.5Q1887.5 167.0 1933.5 205.0Q1979.5 243.0 2017.5 276.0Q2008.5 309.0 1958.5 309.0H653.5ZM1599.5 547.0H987.5V745.0V813.0H1599.5ZM323.5 51.0 694.5 160.0Q686.5 179.0 667.0 191.5Q647.5 204.0 612.5 203.0Q534.5 451.0 434.5 649.0L549.5 692.0Q542.5 706.0 527.5 716.0Q512.5 726.0 483.5 731.0V1849.0Q585.5 1677.0 633.5 1483.5Q681.5 1290.0 695.0 1099.5Q708.5 909.0 708.5 745.0V381.0L1030.5 489.0H1579.5L1702.5 358.0L1958.5 547.0Q1948.5 557.0 1931.5 568.0Q1914.5 579.0 1886.5 585.0V878.0Q1884.5 884.0 1846.5 898.5Q1808.5 913.0 1759.5 923.0Q1731.5 930.0 1703.5 934.0Q1675.5 938.0 1650.5 938.0H1599.5V870.0H985.5Q982.5 945.0 973.5 1032.0L1030.5 1054.0H1642.5L1759.5 923.0L2009.5 1112.0Q2000.5 1124.0 1980.0 1136.5Q1959.5 1149.0 1927.5 1155.0V1714.0Q1927.5 1796.0 1909.5 1853.5Q1891.5 1911.0 1833.0 1944.5Q1774.5 1978.0 1652.5 1988.0Q1652.5 1930.0 1650.0 1887.0Q1647.5 1844.0 1638.5 1816.0Q1632.5 1795.0 1620.0 1777.5Q1607.5 1760.0 1581.5 1751.0V1923.0Q1579.5 1931.0 1535.5 1950.5Q1491.5 1970.0 1413.5 1970.0H1376.5V1495.0H1296.5V1923.0Q1295.5 1931.0 1253.0 1950.5Q1210.5 1970.0 1136.5 1970.0H1102.5V1495.0H1018.5V1919.0Q1018.5 1930.0 990.0 1947.5Q961.5 1965.0 917.5 1978.5Q873.5 1992.0 825.5 1992.0H790.5V1575.0Q737.5 1659.0 665.0 1735.0Q592.5 1811.0 493.5 1876.0L483.5 1865.0V1925.0Q482.5 1934.0 449.5 1951.0Q416.5 1968.0 367.0 1982.5Q317.5 1997.0 266.5 1997.0H217.5V979.0Q140.5 1070.0 55.5 1147.0L30.5 1132.0Q94.5 995.0 152.5 817.0Q210.5 639.0 255.5 442.5Q300.5 246.0 323.5 51.0ZM1018.5 1437.0H1102.5V1112.0H1018.5ZM1296.5 1437.0H1376.5V1112.0H1296.5ZM1581.5 1495.0V1718.0L1636.5 1720.0Q1653.5 1720.0 1658.5 1711.5Q1663.5 1703.0 1663.5 1687.0V1495.0ZM1581.5 1437.0H1663.5V1112.0H1581.5Z" fill="black"></path></svg>