<?xml version="1.0" standalone="no"?>
<!DOCTYPE svg PUBLIC "-//W3C//DTD SVG 1.1//EN" "http://www.w3.org/Graphics/SVG/1.1/DTD/svg11.dtd" >
<svg xmlns="http://www.w3.org/2000/svg" xmlns:svg="http://www.w3.org/2000/svg" xmlns:xlink="http://www.w3.org/1999/xlink" viewBox="0 0 2048 2048" style=""><path d="M243.0 189.0Q426.0 238.0 530.0 313.0Q634.0 388.0 674.5 469.5Q715.0 551.0 706.0 622.5Q697.0 694.0 653.0 738.5Q609.0 783.0 543.5 784.0Q478.0 785.0 407.0 724.0Q400.0 585.0 349.5 446.5Q299.0 308.0 226.0 199.0ZM1498.0 169.0 1891.0 339.0Q1884.0 357.0 1861.0 367.5Q1838.0 378.0 1801.0 373.0Q1686.0 496.0 1555.5 604.0Q1425.0 712.0 1297.0 789.0L1279.0 775.0Q1311.0 702.0 1349.5 601.0Q1388.0 500.0 1426.5 387.5Q1465.0 275.0 1498.0 169.0ZM861.0 52.0 1244.0 83.0Q1241.0 104.0 1226.0 119.0Q1211.0 134.0 1168.0 140.0V873.0H1564.0L1719.0 677.0Q1719.0 677.0 1747.5 698.0Q1776.0 719.0 1820.5 753.0Q1865.0 787.0 1913.0 825.5Q1961.0 864.0 2000.0 898.0Q1991.0 931.0 1941.0 931.0H1386.0V1610.0Q1386.0 1635.0 1398.5 1644.0Q1411.0 1653.0 1449.0 1653.0H1596.0Q1629.0 1653.0 1659.0 1653.0Q1689.0 1653.0 1709.0 1651.0Q1744.0 1649.0 1764.0 1621.0Q1786.0 1588.0 1815.5 1510.0Q1845.0 1432.0 1883.0 1326.0H1902.0L1910.0 1635.0Q1967.0 1660.0 1984.5 1688.5Q2002.0 1717.0 2002.0 1762.0Q2002.0 1821.0 1963.0 1861.0Q1924.0 1901.0 1828.0 1920.5Q1732.0 1940.0 1560.0 1940.0H1371.0Q1254.0 1940.0 1192.0 1919.0Q1130.0 1898.0 1106.0 1844.0Q1082.0 1790.0 1082.0 1690.0V931.0H906.0Q892.0 1119.0 844.5 1284.5Q797.0 1450.0 701.0 1587.0Q605.0 1724.0 447.0 1827.5Q289.0 1931.0 54.0 1996.0L46.0 1975.0Q255.0 1848.0 366.5 1686.0Q478.0 1524.0 521.0 1333.5Q564.0 1143.0 568.0 931.0H63.0L46.0 873.0H861.0Z" fill="black"></path></svg>