<?xml version="1.0" standalone="no"?>
<!DOCTYPE svg PUBLIC "-//W3C//DTD SVG 1.1//EN" "http://www.w3.org/Graphics/SVG/1.1/DTD/svg11.dtd" >
<svg xmlns="http://www.w3.org/2000/svg" xmlns:svg="http://www.w3.org/2000/svg" xmlns:xlink="http://www.w3.org/1999/xlink" viewBox="0 0 2048 2048" style=""><path d="M163.5 585.5V466.5L466.5 585.5H853.5V290.5H77.5L61.5 233.5H1521.5L1687.5 26.5Q1687.5 26.5 1717.5 49.0Q1747.5 71.5 1794.5 107.0Q1841.5 142.5 1893.0 182.5Q1944.5 222.5 1986.5 257.5Q1977.5 290.5 1925.5 290.5H1144.5V585.5H1533.5L1660.5 442.5L1922.5 644.5Q1912.5 657.5 1893.0 669.5Q1873.5 681.5 1841.5 687.5V1709.5Q1841.5 1800.5 1817.5 1865.5Q1793.5 1930.5 1718.0 1969.0Q1642.5 2007.5 1486.5 2021.5Q1482.5 1953.5 1472.0 1906.5Q1461.5 1859.5 1435.5 1828.5Q1409.5 1797.5 1371.0 1774.0Q1332.5 1750.5 1251.5 1736.5V1709.5Q1251.5 1709.5 1283.5 1712.0Q1315.5 1714.5 1361.5 1717.0Q1407.5 1719.5 1450.0 1722.0Q1492.5 1724.5 1513.5 1724.5Q1537.5 1724.5 1546.0 1713.0Q1554.5 1701.5 1554.5 1683.5V1410.5Q1520.5 1478.5 1511.5 1556.5Q1459.5 1507.5 1422.0 1420.5Q1384.5 1333.5 1367.5 1236.5Q1307.5 1422.5 1144.5 1533.5V1890.5Q1144.5 1903.5 1082.5 1936.5Q1020.5 1969.5 907.5 1969.5H853.5V1408.5Q838.5 1439.5 828.0 1478.0Q817.5 1516.5 810.5 1556.5Q761.5 1507.5 726.0 1421.0Q690.5 1334.5 673.5 1238.5Q644.5 1330.5 585.0 1410.5Q525.5 1490.5 444.5 1545.5V1920.5Q444.5 1937.5 410.5 1961.0Q376.5 1984.5 322.5 2003.0Q268.5 2021.5 208.5 2021.5H163.5ZM595.5 833.5 649.5 751.5 786.5 853.5Q761.5 887.5 673.5 896.5V939.5Q685.5 1059.5 730.0 1144.0Q774.5 1228.5 853.5 1287.5V642.5H444.5V1511.5Q489.5 1444.5 527.0 1348.5Q564.5 1252.5 590.0 1146.0Q615.5 1039.5 622.5 939.5V890.5H501.5L489.5 833.5ZM1288.5 833.5 1341.5 749.5 1480.5 853.5Q1456.5 886.5 1367.5 896.5V937.5Q1380.5 1060.5 1425.0 1144.5Q1469.5 1228.5 1554.5 1287.5V642.5H1144.5V1488.5Q1188.5 1420.5 1224.0 1328.0Q1259.5 1235.5 1283.0 1134.5Q1306.5 1033.5 1314.5 939.5V890.5H1189.5L1177.5 833.5Z" fill="black"></path></svg>