<?xml version="1.0" standalone="no"?>
<!DOCTYPE svg PUBLIC "-//W3C//DTD SVG 1.1//EN" "http://www.w3.org/Graphics/SVG/1.1/DTD/svg11.dtd" >
<svg xmlns="http://www.w3.org/2000/svg" xmlns:svg="http://www.w3.org/2000/svg" xmlns:xlink="http://www.w3.org/1999/xlink" viewBox="0 0 2048 2048" style=""><path d="M315.0 212.5V93.5L627.0 212.5H1407.0L1540.0 67.5L1810.0 274.5Q1800.0 286.5 1780.0 299.0Q1760.0 311.5 1726.0 319.5V968.5Q1725.0 977.5 1685.0 997.0Q1645.0 1016.5 1588.5 1032.5Q1532.0 1048.5 1481.0 1048.5H1430.0V923.5H1374.0V1593.5Q1374.0 1617.5 1387.0 1627.0Q1400.0 1636.5 1440.0 1636.5H1595.0Q1631.0 1636.5 1662.5 1636.0Q1694.0 1635.5 1714.0 1633.5Q1734.0 1632.5 1745.5 1626.0Q1757.0 1619.5 1769.0 1601.5Q1789.0 1570.5 1818.0 1492.5Q1847.0 1414.5 1884.0 1308.5H1905.0L1911.0 1615.5Q1966.0 1640.5 1983.5 1668.0Q2001.0 1695.5 2001.0 1738.5Q2001.0 1795.5 1962.5 1834.0Q1924.0 1872.5 1828.0 1891.5Q1732.0 1910.5 1559.0 1910.5H1368.0Q1253.0 1910.5 1191.5 1890.0Q1130.0 1869.5 1106.5 1817.5Q1083.0 1765.5 1083.0 1668.5V923.5H942.0Q927.0 1116.5 876.0 1281.5Q825.0 1446.5 724.0 1581.5Q623.0 1716.5 459.5 1817.0Q296.0 1917.5 55.0 1980.5L47.0 1959.5Q272.0 1837.5 395.5 1679.5Q519.0 1521.5 569.5 1331.5Q620.0 1141.5 627.0 923.5H608.0V966.5Q608.0 980.5 571.0 1003.0Q534.0 1025.5 476.5 1043.0Q419.0 1060.5 358.0 1060.5H315.0ZM1430.0 865.5V270.5H608.0V865.5Z" fill="black"></path></svg>