<?xml version="1.0" standalone="no"?>
<!DOCTYPE svg PUBLIC "-//W3C//DTD SVG 1.1//EN" "http://www.w3.org/Graphics/SVG/1.1/DTD/svg11.dtd" >
<svg xmlns="http://www.w3.org/2000/svg" xmlns:svg="http://www.w3.org/2000/svg" xmlns:xlink="http://www.w3.org/1999/xlink" viewBox="0 0 2048 2048" style=""><path d="M128.0 133.0Q283.0 162.0 368.5 214.5Q454.0 267.0 484.0 328.0Q514.0 389.0 502.0 443.5Q490.0 498.0 448.5 532.0Q407.0 566.0 349.0 565.0Q291.0 564.0 231.0 512.0Q229.0 414.0 194.5 315.5Q160.0 217.0 112.0 143.0ZM128.0 1231.0Q153.0 1231.0 164.0 1226.0Q175.0 1221.0 194.0 1192.0Q207.0 1171.0 218.5 1152.5Q230.0 1134.0 248.0 1099.5Q266.0 1065.0 298.5 998.0Q331.0 931.0 386.0 815.5Q441.0 700.0 528.0 518.0L556.0 526.0Q539.0 594.0 516.0 683.5Q493.0 773.0 470.5 863.0Q448.0 953.0 431.0 1025.0Q414.0 1097.0 407.0 1130.0Q398.0 1173.0 390.5 1221.5Q383.0 1270.0 384.0 1306.0Q387.0 1362.0 412.0 1407.5Q437.0 1453.0 460.0 1510.5Q483.0 1568.0 479.0 1657.0Q475.0 1737.0 419.5 1785.0Q364.0 1833.0 280.0 1833.0Q243.0 1833.0 205.0 1810.0Q167.0 1787.0 153.0 1730.0Q172.0 1627.0 177.0 1534.5Q182.0 1442.0 172.5 1379.0Q163.0 1316.0 141.0 1300.0Q99.0 1273.0 38.0 1268.0V1231.0Q38.0 1231.0 56.0 1231.0Q74.0 1231.0 95.5 1231.0Q117.0 1231.0 128.0 1231.0ZM593.0 756.0 900.0 831.0Q887.0 875.0 823.0 878.0Q810.0 906.0 797.5 932.0Q785.0 958.0 771.0 983.0H919.0L1019.0 846.0Q1019.0 846.0 1050.0 872.5Q1081.0 899.0 1123.5 937.0Q1166.0 975.0 1199.0 1007.0Q1191.0 1040.0 1146.0 1040.0H970.0V1136.0Q970.0 1195.0 964.0 1265.0L1046.0 1141.0L1152.0 1241.0Q1152.0 1198.0 1151.5 1155.0Q1151.0 1112.0 1148.0 1071.0L1417.0 1093.0V864.0H1134.0L1115.0 807.0H1691.0L1806.0 690.0L2010.0 885.0Q1998.0 897.0 1980.0 901.5Q1962.0 906.0 1933.0 907.0Q1891.0 955.0 1830.0 1011.0Q1769.0 1067.0 1714.0 1104.0L1691.0 1089.0Q1699.0 1043.0 1703.5 980.5Q1708.0 918.0 1711.0 864.0H1650.0V1276.0H1673.0L1781.0 1112.0Q1781.0 1112.0 1814.5 1143.5Q1848.0 1175.0 1893.5 1218.5Q1939.0 1262.0 1974.0 1300.0Q1965.0 1333.0 1918.0 1333.0H1650.0V1681.0Q1678.0 1686.0 1708.5 1687.5Q1739.0 1689.0 1773.0 1689.0Q1799.0 1689.0 1840.5 1689.0Q1882.0 1689.0 1926.5 1689.0Q1971.0 1689.0 2002.0 1689.0V1712.0Q1956.0 1723.0 1934.5 1788.0Q1913.0 1853.0 1916.0 1939.0Q1887.0 1939.0 1837.5 1939.0Q1788.0 1939.0 1759.0 1939.0Q1641.0 1939.0 1551.0 1898.0Q1461.0 1857.0 1400.0 1757.0Q1339.0 1657.0 1308.0 1478.0Q1267.0 1629.0 1175.5 1763.0Q1084.0 1897.0 917.0 1993.0L900.0 1968.0Q947.0 1922.0 982.5 1868.5Q1018.0 1815.0 1046.0 1757.0Q1006.0 1750.0 968.0 1724.0Q965.0 1674.0 945.5 1621.0Q926.0 1568.0 898.0 1524.0Q843.0 1654.0 722.0 1779.0Q601.0 1904.0 380.0 1995.0L364.0 1972.0Q486.0 1875.0 560.5 1768.5Q635.0 1662.0 673.5 1554.5Q712.0 1447.0 726.0 1345.0H491.0L474.0 1288.0H735.0Q741.0 1208.0 741.0 1136.0V1040.0H739.0Q645.0 1194.0 522.0 1286.0L493.0 1270.0Q530.0 1170.0 556.5 1032.0Q583.0 894.0 593.0 756.0ZM1124.0 1517.0Q1131.0 1474.0 1137.0 1431.0Q1143.0 1388.0 1146.0 1345.0H952.0Q947.0 1370.0 941.0 1395.5Q935.0 1421.0 927.0 1446.0Q995.0 1456.0 1043.0 1474.5Q1091.0 1493.0 1124.0 1517.0ZM1032.0 131.0 1202.0 346.0Q1172.0 370.0 1118.0 344.0Q1047.0 367.0 969.0 383.5Q891.0 400.0 821.0 407.0V516.0Q821.0 534.0 828.0 540.5Q835.0 547.0 862.0 547.0H950.0Q973.0 547.0 994.0 547.0Q1015.0 547.0 1027.0 547.0Q1040.0 545.0 1050.5 542.5Q1061.0 540.0 1068.0 532.0Q1081.0 518.0 1099.5 480.5Q1118.0 443.0 1138.0 395.0H1159.0L1167.0 534.0Q1208.0 553.0 1222.0 572.5Q1236.0 592.0 1236.0 622.0Q1236.0 688.0 1166.5 719.5Q1097.0 751.0 923.0 751.0H794.0Q709.0 751.0 667.0 734.0Q625.0 717.0 611.0 677.5Q597.0 638.0 597.0 569.0V53.0L882.0 78.0Q875.0 120.0 821.0 129.0V315.0Q874.0 275.0 929.0 226.5Q984.0 178.0 1032.0 131.0ZM1226.0 391.0Q1329.0 385.0 1408.0 394.5Q1487.0 404.0 1546.0 426.0Q1570.0 381.0 1592.5 335.0Q1615.0 289.0 1634.0 248.0H1161.0L1142.0 190.0H1630.0L1761.0 61.0L1986.0 272.0Q1974.0 286.0 1955.0 291.0Q1936.0 296.0 1904.0 299.0Q1853.0 343.0 1783.0 389.0Q1713.0 435.0 1638.0 475.0Q1701.0 523.0 1717.0 581.0Q1733.0 639.0 1711.5 686.5Q1690.0 734.0 1640.5 753.0Q1591.0 772.0 1523.0 743.0Q1497.0 680.0 1447.5 615.5Q1398.0 551.0 1336.0 496.5Q1274.0 442.0 1212.0 407.0ZM1417.0 1550.0V1128.0Q1409.0 1139.0 1394.0 1144.5Q1379.0 1150.0 1359.0 1153.0Q1356.0 1211.0 1349.5 1269.5Q1343.0 1328.0 1331.0 1386.0Q1366.0 1484.0 1417.0 1550.0Z" fill="black"></path></svg>