<?xml version="1.0" standalone="no"?>
<!DOCTYPE svg PUBLIC "-//W3C//DTD SVG 1.1//EN" "http://www.w3.org/Graphics/SVG/1.1/DTD/svg11.dtd" >
<svg xmlns="http://www.w3.org/2000/svg" xmlns:svg="http://www.w3.org/2000/svg" xmlns:xlink="http://www.w3.org/1999/xlink" viewBox="0 0 2048 2048" style=""><path d="M829.0 60.0 1204.0 95.0Q1201.0 118.0 1186.5 133.0Q1172.0 148.0 1130.0 155.0V855.0H1433.0V257.0L1786.0 288.0Q1784.0 306.0 1770.5 319.5Q1757.0 333.0 1720.0 339.0V972.0Q1720.0 980.0 1684.0 994.5Q1648.0 1009.0 1593.5 1021.0Q1539.0 1033.0 1485.0 1033.0H1433.0V912.0H1130.0V1734.0H1532.0V1099.0L1884.0 1129.0Q1882.0 1148.0 1868.5 1161.0Q1855.0 1174.0 1818.0 1181.0V1904.0Q1818.0 1913.0 1782.0 1928.5Q1746.0 1944.0 1691.5 1956.5Q1637.0 1969.0 1583.0 1969.0H1532.0V1791.0H444.0V1922.0Q444.0 1932.0 409.0 1947.5Q374.0 1963.0 321.0 1975.5Q268.0 1988.0 215.0 1988.0H164.0V1099.0L512.0 1129.0Q509.0 1148.0 496.0 1161.0Q483.0 1174.0 444.0 1181.0V1734.0H829.0V912.0H542.0V980.0Q542.0 989.0 506.5 1004.0Q471.0 1019.0 417.5 1031.0Q364.0 1043.0 311.0 1043.0H262.0V257.0L610.0 288.0Q607.0 306.0 594.0 319.5Q581.0 333.0 542.0 339.0V855.0H829.0Z" fill="black"></path></svg>