<?xml version="1.0" standalone="no"?>
<!DOCTYPE svg PUBLIC "-//W3C//DTD SVG 1.1//EN" "http://www.w3.org/Graphics/SVG/1.1/DTD/svg11.dtd" >
<svg xmlns="http://www.w3.org/2000/svg" xmlns:svg="http://www.w3.org/2000/svg" xmlns:xlink="http://www.w3.org/1999/xlink" viewBox="0 0 2048 2048" style=""><path d="M119.5 139.0Q296.5 157.0 397.5 208.5Q498.5 260.0 537.5 326.0Q576.5 392.0 567.5 454.0Q558.5 516.0 515.0 557.5Q471.5 599.0 406.5 602.5Q341.5 606.0 271.5 551.0Q265.5 440.0 218.5 333.0Q171.5 226.0 105.5 149.0ZM138.5 1286.0Q165.5 1286.0 178.5 1281.0Q191.5 1276.0 211.5 1245.0Q228.5 1222.0 243.0 1200.0Q257.5 1178.0 281.5 1136.0Q305.5 1094.0 351.0 1012.5Q396.5 931.0 474.5 789.5Q552.5 648.0 674.5 426.0L703.5 434.0Q668.5 534.0 621.0 670.0Q573.5 806.0 533.5 928.0Q627.5 842.0 715.5 732.0Q803.5 622.0 875.0 502.0Q946.5 382.0 995.0 265.5Q1043.5 149.0 1059.5 51.0L1455.5 141.0Q1450.5 161.0 1430.5 172.5Q1410.5 184.0 1362.5 188.0Q1427.5 304.0 1536.0 390.5Q1644.5 477.0 1769.5 536.0Q1894.5 595.0 2008.5 626.0L2005.5 653.0Q1915.5 684.0 1863.5 764.0Q1811.5 844.0 1799.5 930.0Q1722.5 879.0 1649.5 807.0Q1640.5 837.0 1592.5 837.0H861.5L844.5 780.0Q767.5 835.0 686.5 882.0Q605.5 929.0 521.5 964.0Q499.5 1034.0 483.5 1088.0Q467.5 1142.0 459.5 1169.0Q444.5 1218.0 433.5 1271.5Q422.5 1325.0 422.5 1364.0Q425.5 1407.0 441.5 1441.5Q457.5 1476.0 477.5 1512.0Q497.5 1548.0 511.5 1594.5Q525.5 1641.0 523.5 1708.0Q520.5 1788.0 460.0 1838.0Q399.5 1888.0 306.5 1888.0Q266.5 1888.0 225.0 1866.0Q183.5 1844.0 164.5 1786.0Q186.5 1682.0 191.5 1590.0Q196.5 1498.0 186.0 1435.0Q175.5 1372.0 150.5 1356.0Q127.5 1342.0 100.5 1333.0Q73.5 1324.0 39.5 1321.0V1286.0Q39.5 1286.0 59.5 1286.0Q79.5 1286.0 103.0 1286.0Q126.5 1286.0 138.5 1286.0ZM1336.5 211.0Q1265.5 374.0 1136.0 519.5Q1006.5 665.0 844.5 780.0H1260.5L1399.5 588.0Q1399.5 588.0 1436.5 618.0Q1473.5 648.0 1525.5 692.5Q1577.5 737.0 1625.5 780.0Q1522.5 670.0 1448.0 525.0Q1373.5 380.0 1336.5 211.0ZM621.5 1071.0H1528.5L1653.5 930.0L1922.5 1130.0Q1912.5 1143.0 1892.5 1155.5Q1872.5 1168.0 1840.5 1175.0V1534.0Q1840.5 1629.0 1817.5 1697.0Q1794.5 1765.0 1720.5 1806.0Q1646.5 1847.0 1493.5 1861.0Q1489.5 1788.0 1480.0 1735.0Q1470.5 1682.0 1448.5 1646.0Q1425.5 1611.0 1391.5 1587.5Q1357.5 1564.0 1285.5 1550.0V1524.0Q1285.5 1524.0 1314.0 1525.5Q1342.5 1527.0 1383.0 1529.0Q1423.5 1531.0 1460.5 1532.5Q1497.5 1534.0 1512.5 1534.0Q1549.5 1534.0 1549.5 1497.0V1128.0H1244.5V1935.0Q1244.5 1944.0 1178.5 1970.5Q1112.5 1997.0 992.5 1997.0H934.5V1128.0H639.5Z" fill="black"></path></svg>