<?xml version="1.0" standalone="no"?>
<!DOCTYPE svg PUBLIC "-//W3C//DTD SVG 1.1//EN" "http://www.w3.org/Graphics/SVG/1.1/DTD/svg11.dtd" >
<svg xmlns="http://www.w3.org/2000/svg" xmlns:svg="http://www.w3.org/2000/svg" xmlns:xlink="http://www.w3.org/1999/xlink" viewBox="0 0 2048 2048" style=""><path d="M1090.0 857.0Q1224.0 892.0 1295.5 944.0Q1367.0 996.0 1388.5 1051.5Q1410.0 1107.0 1394.5 1154.5Q1379.0 1202.0 1338.5 1229.0Q1298.0 1256.0 1246.0 1251.0Q1194.0 1246.0 1143.0 1197.0Q1148.0 1109.0 1126.0 1021.0Q1104.0 933.0 1071.0 865.0ZM168.0 631.0H633.0L770.0 443.0Q770.0 443.0 795.0 464.0Q820.0 485.0 858.5 517.5Q897.0 550.0 938.5 587.0Q980.0 624.0 1014.0 656.0Q1008.0 689.0 957.0 689.0H185.0ZM68.0 947.0H715.0L850.0 761.0Q850.0 761.0 874.5 781.5Q899.0 802.0 937.0 834.5Q975.0 867.0 1016.5 903.5Q1058.0 940.0 1092.0 971.0Q1083.0 1004.0 1034.0 1004.0H871.0V1629.0Q871.0 1661.0 894.5 1672.5Q918.0 1684.0 1000.0 1684.0H1364.0Q1452.0 1684.0 1528.5 1683.0Q1605.0 1682.0 1645.0 1680.0Q1704.0 1675.0 1731.0 1645.0Q1755.0 1615.0 1783.5 1552.5Q1812.0 1490.0 1854.0 1385.0H1874.0L1882.0 1651.0Q1950.0 1671.0 1974.5 1697.0Q1999.0 1723.0 1999.0 1766.0Q1999.0 1813.0 1972.5 1846.0Q1946.0 1879.0 1875.5 1900.0Q1805.0 1921.0 1675.0 1930.5Q1545.0 1940.0 1340.0 1940.0H989.0Q846.0 1940.0 762.0 1923.0Q678.0 1906.0 642.0 1854.0Q606.0 1802.0 606.0 1699.0V1004.0H549.0Q539.0 1210.0 495.5 1397.0Q452.0 1584.0 350.0 1739.5Q248.0 1895.0 62.0 2006.0L49.0 1985.0Q154.0 1847.0 200.5 1687.0Q247.0 1527.0 257.5 1354.0Q268.0 1181.0 264.0 1004.0H84.0ZM1448.0 488.0 1530.0 494.0Q1542.0 441.0 1553.5 374.0Q1565.0 307.0 1573.0 251.0H430.0Q443.0 366.0 406.0 446.0Q369.0 526.0 307.0 560.0Q267.0 582.0 221.5 580.0Q176.0 578.0 139.5 553.0Q103.0 528.0 88.0 482.0Q70.0 416.0 102.0 368.0Q134.0 320.0 191.0 294.0Q247.0 266.0 300.5 200.5Q354.0 135.0 352.0 52.0H377.0Q392.0 89.0 404.0 124.0Q416.0 159.0 422.0 193.0H1557.0L1708.0 42.0L1968.0 287.0Q1954.0 301.0 1937.0 307.0Q1920.0 313.0 1886.0 314.0Q1831.0 359.0 1749.5 409.5Q1668.0 460.0 1589.0 500.0L1788.0 517.0Q1782.0 561.0 1718.0 570.0V720.0L1809.0 570.0Q1809.0 570.0 1841.5 604.0Q1874.0 638.0 1917.5 685.0Q1961.0 732.0 1993.0 771.0Q1987.0 804.0 1940.0 804.0H1718.0V1332.0Q1718.0 1422.0 1695.5 1485.0Q1673.0 1548.0 1601.5 1585.5Q1530.0 1623.0 1383.0 1635.0Q1378.0 1572.0 1368.5 1526.5Q1359.0 1481.0 1335.0 1451.0Q1311.0 1422.0 1273.5 1400.5Q1236.0 1379.0 1157.0 1365.0V1338.0Q1157.0 1338.0 1190.0 1340.0Q1223.0 1342.0 1268.0 1345.0Q1313.0 1348.0 1353.5 1350.0Q1394.0 1352.0 1409.0 1352.0Q1448.0 1352.0 1448.0 1320.0V804.0H1014.0L998.0 746.0H1448.0Z" fill="black"></path></svg>