<?xml version="1.0" standalone="no"?>
<!DOCTYPE svg PUBLIC "-//W3C//DTD SVG 1.1//EN" "http://www.w3.org/Graphics/SVG/1.1/DTD/svg11.dtd" >
<svg xmlns="http://www.w3.org/2000/svg" xmlns:svg="http://www.w3.org/2000/svg" xmlns:xlink="http://www.w3.org/1999/xlink" viewBox="0 0 2048 2048" style=""><path d="M1106.0 662.0H1440.0V324.0H1092.0L1073.0 267.0H1419.0L1550.0 121.0L1819.0 326.0Q1810.0 339.0 1789.5 352.0Q1769.0 365.0 1737.0 371.0V1170.0Q1736.0 1178.0 1695.0 1195.0Q1654.0 1212.0 1596.5 1226.0Q1539.0 1240.0 1489.0 1240.0H1440.0V1109.0H1356.0V1637.0Q1356.0 1660.0 1367.5 1669.0Q1379.0 1678.0 1419.0 1678.0H1583.0Q1620.0 1678.0 1654.0 1677.5Q1688.0 1677.0 1708.0 1676.0Q1745.0 1673.0 1766.0 1645.0Q1785.0 1616.0 1813.0 1546.5Q1841.0 1477.0 1878.0 1379.0H1899.0L1905.0 1657.0Q1960.0 1681.0 1977.5 1708.0Q1995.0 1735.0 1995.0 1778.0Q1995.0 1836.0 1956.5 1874.0Q1918.0 1912.0 1821.5 1931.0Q1725.0 1950.0 1548.0 1950.0H1350.0Q1234.0 1950.0 1172.5 1930.0Q1111.0 1910.0 1088.0 1858.0Q1065.0 1806.0 1065.0 1711.0V1109.0H981.0Q955.0 1340.0 856.5 1518.0Q758.0 1696.0 565.0 1818.5Q372.0 1941.0 62.0 2006.0L53.0 1983.0Q274.0 1884.0 402.0 1754.0Q530.0 1624.0 588.5 1462.5Q647.0 1301.0 660.0 1109.0H582.0V1170.0Q581.0 1180.0 552.5 1202.0Q524.0 1224.0 470.0 1242.0Q416.0 1260.0 338.0 1260.0L295.0 1262.0V162.0L563.0 246.0Q619.0 193.0 673.5 137.5Q728.0 82.0 760.0 42.0L1038.0 277.0Q995.0 311.0 899.0 281.0Q839.0 292.0 754.0 304.5Q669.0 317.0 582.0 326.0V662.0H633.0L750.0 502.0Q750.0 502.0 786.5 532.5Q823.0 563.0 872.0 606.0Q921.0 649.0 959.0 687.0Q953.0 720.0 903.0 720.0H582.0V1051.0H1440.0V720.0H1124.0Z" fill="black"></path></svg>