<?xml version="1.0" standalone="no"?>
<!DOCTYPE svg PUBLIC "-//W3C//DTD SVG 1.1//EN" "http://www.w3.org/Graphics/SVG/1.1/DTD/svg11.dtd" >
<svg xmlns="http://www.w3.org/2000/svg" xmlns:svg="http://www.w3.org/2000/svg" xmlns:xlink="http://www.w3.org/1999/xlink" viewBox="0 0 2048 2048" style=""><path d="M1172.0 1523.0Q1430.0 1540.0 1589.5 1582.5Q1749.0 1625.0 1829.5 1680.0Q1910.0 1735.0 1929.0 1791.0Q1948.0 1847.0 1922.5 1893.5Q1897.0 1940.0 1845.0 1965.0Q1793.0 1990.0 1732.0 1983.0Q1671.0 1976.0 1620.0 1924.0Q1568.0 1843.0 1458.5 1736.5Q1349.0 1630.0 1163.0 1545.0ZM660.0 1453.0 1012.0 1637.0Q998.0 1657.0 968.5 1666.5Q939.0 1676.0 885.0 1668.0Q792.0 1737.0 661.0 1799.0Q530.0 1861.0 375.0 1910.5Q220.0 1960.0 55.0 1992.0L47.0 1971.0Q173.0 1907.0 292.0 1817.5Q411.0 1728.0 507.0 1632.5Q603.0 1537.0 660.0 1453.0ZM1260.0 56.0 1637.0 89.0Q1633.0 112.0 1618.5 127.0Q1604.0 142.0 1561.0 148.0V384.0L1698.0 212.0Q1698.0 212.0 1724.0 231.5Q1750.0 251.0 1791.0 282.0Q1832.0 313.0 1876.5 348.0Q1921.0 383.0 1958.0 415.0Q1949.0 447.0 1899.0 447.0H1561.0V1377.0L1716.0 1177.0Q1716.0 1177.0 1745.0 1199.0Q1774.0 1221.0 1819.0 1256.0Q1864.0 1291.0 1912.5 1330.0Q1961.0 1369.0 2001.0 1404.0Q1996.0 1421.0 1979.5 1429.0Q1963.0 1437.0 1942.0 1437.0H68.0L51.0 1379.0H498.0V447.0H113.0L96.0 390.0H498.0V56.0L869.0 89.0Q865.0 111.0 850.5 126.0Q836.0 141.0 795.0 148.0V390.0H1260.0ZM795.0 1379.0H1260.0V1099.0H795.0ZM795.0 447.0V718.0H1260.0V447.0ZM795.0 775.0V1041.0H1260.0V775.0Z" fill="black"></path></svg>