<?xml version="1.0" standalone="no"?>
<!DOCTYPE svg PUBLIC "-//W3C//DTD SVG 1.1//EN" "http://www.w3.org/Graphics/SVG/1.1/DTD/svg11.dtd" >
<svg xmlns="http://www.w3.org/2000/svg" xmlns:svg="http://www.w3.org/2000/svg" xmlns:xlink="http://www.w3.org/1999/xlink" viewBox="0 0 2048 2048" style=""><path d="M880.0 245.5 994.0 63.5 1295.0 280.5Q1263.0 318.5 1184.5 341.0Q1106.0 363.5 1003.0 372.5V427.5Q1032.0 736.5 1152.5 971.5Q1273.0 1206.5 1484.5 1380.0Q1696.0 1553.5 2000.0 1680.5L1994.0 1701.5Q1883.0 1718.5 1812.0 1789.0Q1741.0 1859.5 1701.0 1984.5Q1613.0 1931.5 1520.0 1840.0Q1427.0 1748.5 1340.0 1630.5Q1253.0 1512.5 1183.5 1378.5Q1114.0 1244.5 1074.0 1107.5Q993.0 1286.5 845.5 1454.5Q698.0 1622.5 497.5 1758.5Q297.0 1894.5 58.0 1979.5L48.0 1963.5Q215.0 1869.5 368.0 1707.0Q521.0 1544.5 644.0 1335.5Q767.0 1126.5 845.0 889.5Q923.0 652.5 939.0 409.5L937.0 302.5H456.0L439.0 245.5Z" fill="black"></path></svg>