<?xml version="1.0" standalone="no"?>
<!DOCTYPE svg PUBLIC "-//W3C//DTD SVG 1.1//EN" "http://www.w3.org/Graphics/SVG/1.1/DTD/svg11.dtd" >
<svg xmlns="http://www.w3.org/2000/svg" xmlns:svg="http://www.w3.org/2000/svg" xmlns:xlink="http://www.w3.org/1999/xlink" viewBox="0 0 2048 2048" style=""><path d="M624.5 887.0 1007.5 1044.0Q1000.5 1063.0 978.5 1073.5Q956.5 1084.0 919.5 1079.0Q820.5 1298.0 693.0 1456.5Q565.5 1615.0 409.5 1727.0Q253.5 1839.0 67.5 1919.0L51.5 1900.0Q172.5 1789.0 285.0 1632.0Q397.5 1475.0 486.5 1286.0Q575.5 1097.0 624.5 887.0ZM1218.5 934.0Q1445.5 1011.0 1595.5 1110.5Q1745.5 1210.0 1831.0 1316.5Q1916.5 1423.0 1948.0 1523.0Q1979.5 1623.0 1967.5 1703.0Q1955.5 1783.0 1911.0 1830.0Q1866.5 1877.0 1800.0 1876.5Q1733.5 1876.0 1656.5 1814.0Q1631.5 1661.0 1565.5 1505.0Q1499.5 1349.0 1405.0 1206.0Q1310.5 1063.0 1200.5 948.0ZM100.5 608.0H880.5V129.0L1263.5 158.0Q1260.5 179.0 1245.5 194.0Q1230.5 209.0 1187.5 215.0V608.0H1540.5L1704.5 401.0Q1704.5 401.0 1734.0 423.5Q1763.5 446.0 1809.0 481.5Q1854.5 517.0 1905.0 557.0Q1955.5 597.0 1996.5 633.0Q1987.5 665.0 1937.5 665.0H116.5Z" fill="black"></path></svg>