<?xml version="1.0" standalone="no"?>
<!DOCTYPE svg PUBLIC "-//W3C//DTD SVG 1.1//EN" "http://www.w3.org/Graphics/SVG/1.1/DTD/svg11.dtd" >
<svg xmlns="http://www.w3.org/2000/svg" xmlns:svg="http://www.w3.org/2000/svg" xmlns:xlink="http://www.w3.org/1999/xlink" viewBox="0 0 2048 2048" style=""><path d="M1161.0 1368.5Q1401.0 1387.5 1553.0 1447.5Q1705.0 1507.5 1782.5 1587.5Q1860.0 1667.5 1877.0 1747.5Q1894.0 1827.5 1863.0 1887.0Q1832.0 1946.5 1767.0 1966.0Q1702.0 1985.5 1616.0 1942.5Q1568.0 1839.5 1492.5 1737.0Q1417.0 1634.5 1327.0 1543.0Q1237.0 1451.5 1147.0 1383.5ZM635.0 1295.5 983.0 1501.5Q974.0 1517.5 956.5 1525.5Q939.0 1533.5 903.0 1528.5Q810.0 1619.5 681.0 1707.0Q552.0 1794.5 395.5 1866.5Q239.0 1938.5 64.0 1983.5L51.0 1962.5Q179.0 1875.5 293.0 1760.0Q407.0 1644.5 495.5 1522.5Q584.0 1400.5 635.0 1295.5ZM1180.0 62.5 1557.0 92.5Q1554.0 115.5 1539.0 131.0Q1524.0 146.5 1481.0 152.5V578.5H1532.0L1671.0 385.5Q1671.0 385.5 1696.5 406.5Q1722.0 427.5 1761.5 461.0Q1801.0 494.5 1844.0 532.0Q1887.0 569.5 1921.0 602.5Q1912.0 635.5 1864.0 635.5H1481.0V1200.5H1559.0L1714.0 996.5Q1714.0 996.5 1742.5 1018.5Q1771.0 1040.5 1815.5 1076.0Q1860.0 1111.5 1908.5 1151.0Q1957.0 1190.5 1997.0 1225.5Q1988.0 1258.5 1936.0 1258.5H68.0L51.0 1200.5H520.0V635.5H146.0L129.0 578.5H520.0V62.5L891.0 92.5Q888.0 115.5 874.0 131.0Q860.0 146.5 817.0 152.5V578.5H1180.0ZM817.0 1200.5H1180.0V635.5H817.0Z" fill="black"></path></svg>