<?xml version="1.0" standalone="no"?>
<!DOCTYPE svg PUBLIC "-//W3C//DTD SVG 1.1//EN" "http://www.w3.org/Graphics/SVG/1.1/DTD/svg11.dtd" >
<svg xmlns="http://www.w3.org/2000/svg" xmlns:svg="http://www.w3.org/2000/svg" xmlns:xlink="http://www.w3.org/1999/xlink" viewBox="0 0 2048 2048" style=""><path d="M1506.0 631.0H1080.0Q1148.0 786.0 1252.5 911.0Q1357.0 1036.0 1506.0 1120.0ZM556.0 172.0H863.0L943.0 47.0L1160.0 199.0Q1139.0 223.0 1089.0 237.0Q1039.0 251.0 972.0 256.0Q999.0 422.0 1056.0 573.0H1486.0L1617.0 426.0L1887.0 635.0Q1878.0 647.0 1858.0 659.5Q1838.0 672.0 1807.0 678.0V1665.0Q1807.0 1763.0 1781.0 1832.5Q1755.0 1902.0 1672.0 1943.5Q1589.0 1985.0 1420.0 2001.0Q1412.0 1927.0 1398.5 1875.5Q1385.0 1824.0 1355.0 1790.0Q1322.0 1754.0 1276.0 1728.5Q1230.0 1703.0 1133.0 1687.0V1661.0Q1133.0 1661.0 1173.0 1663.5Q1213.0 1666.0 1270.0 1669.0Q1327.0 1672.0 1380.5 1674.5Q1434.0 1677.0 1461.0 1677.0Q1487.0 1677.0 1496.5 1665.5Q1506.0 1654.0 1506.0 1634.0V1229.0Q1406.0 1306.0 1373.0 1421.0Q1238.0 1311.0 1150.5 1164.0Q1063.0 1017.0 1011.0 829.0Q970.0 939.0 901.5 1043.5Q833.0 1148.0 725.0 1241.5Q617.0 1335.0 458.0 1411.0V1888.0Q458.0 1906.0 421.5 1930.5Q385.0 1955.0 327.5 1974.0Q270.0 1993.0 208.0 1993.0H161.0V450.0L480.0 573.0H955.0Q931.0 414.0 918.0 229.0H574.0ZM458.0 1347.0Q563.0 1236.0 629.0 1113.0Q695.0 990.0 731.5 866.5Q768.0 743.0 785.0 631.0H458.0Z" fill="black"></path></svg>