<?xml version="1.0" standalone="no"?>
<!DOCTYPE svg PUBLIC "-//W3C//DTD SVG 1.1//EN" "http://www.w3.org/Graphics/SVG/1.1/DTD/svg11.dtd" >
<svg xmlns="http://www.w3.org/2000/svg" xmlns:svg="http://www.w3.org/2000/svg" xmlns:xlink="http://www.w3.org/1999/xlink" viewBox="0 0 2048 2048" style=""><path d="M1125.0 680.0 1467.0 710.0Q1464.0 730.0 1449.5 746.0Q1435.0 762.0 1392.0 768.0V1526.0Q1392.0 1535.0 1358.5 1549.5Q1325.0 1564.0 1274.5 1575.5Q1224.0 1587.0 1173.0 1587.0H1125.0ZM1545.0 610.0 1898.0 641.0Q1891.0 688.0 1826.0 696.0V1683.0Q1826.0 1776.0 1802.5 1841.0Q1779.0 1906.0 1703.5 1944.0Q1628.0 1982.0 1474.0 1995.0Q1469.0 1930.0 1457.5 1883.0Q1446.0 1836.0 1420.0 1804.0Q1394.0 1775.0 1354.0 1752.0Q1314.0 1729.0 1230.0 1714.0V1689.0Q1230.0 1689.0 1265.5 1691.0Q1301.0 1693.0 1350.5 1695.5Q1400.0 1698.0 1443.5 1700.0Q1487.0 1702.0 1504.0 1702.0Q1545.0 1702.0 1545.0 1669.0ZM435.0 65.0Q593.0 71.0 688.0 108.0Q783.0 145.0 827.5 197.0Q872.0 249.0 874.5 303.5Q877.0 358.0 848.5 401.5Q820.0 445.0 771.0 463.0H1132.0Q1167.0 369.0 1201.0 252.5Q1235.0 136.0 1254.0 47.0L1656.0 143.0Q1646.0 186.0 1578.0 186.0Q1509.0 246.0 1403.0 322.0Q1297.0 398.0 1193.0 463.0H1556.0L1713.0 258.0Q1713.0 258.0 1742.5 280.5Q1772.0 303.0 1817.0 338.0Q1862.0 373.0 1911.0 413.0Q1960.0 453.0 2000.0 487.0Q1991.0 520.0 1941.0 520.0H65.0L48.0 463.0H659.0Q624.0 452.0 595.0 432.0Q580.0 334.0 529.5 238.5Q479.0 143.0 421.0 76.0ZM677.0 794.0H468.0V1040.0H677.0ZM192.0 737.0V622.0L476.0 737.0H656.0L779.0 598.0L1035.0 796.0Q1026.0 809.0 1006.0 821.0Q986.0 833.0 953.0 839.0V1704.0Q953.0 1792.0 932.5 1853.5Q912.0 1915.0 846.5 1951.5Q781.0 1988.0 646.0 2001.0Q645.0 1936.0 639.0 1890.0Q633.0 1844.0 618.0 1814.0Q604.0 1785.0 579.5 1763.0Q555.0 1741.0 501.0 1730.0V1704.0Q501.0 1704.0 529.0 1706.0Q557.0 1708.0 591.5 1710.0Q626.0 1712.0 644.0 1712.0Q664.0 1712.0 670.5 1703.0Q677.0 1694.0 677.0 1677.0V1431.0H468.0V1896.0Q468.0 1911.0 435.0 1933.0Q402.0 1955.0 348.5 1972.5Q295.0 1990.0 235.0 1990.0H192.0ZM677.0 1098.0H468.0V1374.0H677.0Z" fill="black"></path></svg>