<?xml version="1.0" standalone="no"?>
<!DOCTYPE svg PUBLIC "-//W3C//DTD SVG 1.1//EN" "http://www.w3.org/Graphics/SVG/1.1/DTD/svg11.dtd" >
<svg xmlns="http://www.w3.org/2000/svg" xmlns:svg="http://www.w3.org/2000/svg" xmlns:xlink="http://www.w3.org/1999/xlink" viewBox="0 0 2048 2048" style=""><path d="M864.0 325.5H1620.0L1773.0 167.5L2019.0 390.5Q1994.0 422.5 1925.0 433.5Q1920.0 787.5 1912.0 1033.5Q1904.0 1279.5 1887.5 1439.5Q1871.0 1599.5 1842.0 1693.0Q1813.0 1786.5 1767.0 1834.5Q1707.0 1897.5 1630.0 1925.5Q1553.0 1953.5 1446.0 1953.5Q1446.0 1879.5 1435.5 1829.5Q1425.0 1779.5 1401.0 1750.5Q1345.0 1679.5 1198.0 1646.5V1621.5Q1242.0 1625.5 1293.5 1629.0Q1345.0 1632.5 1391.0 1634.0Q1437.0 1635.5 1462.0 1635.5Q1508.0 1635.5 1538.0 1609.5Q1595.0 1555.5 1615.0 1257.0Q1635.0 958.5 1644.0 382.5H1425.0Q1421.0 587.5 1409.0 780.0Q1397.0 972.5 1359.0 1147.5Q1321.0 1322.5 1241.5 1476.0Q1162.0 1629.5 1024.5 1757.5Q887.0 1885.5 674.0 1983.5L655.0 1963.5Q827.0 1794.5 923.5 1610.0Q1020.0 1425.5 1063.5 1227.0Q1107.0 1028.5 1118.5 817.0Q1130.0 605.5 1132.0 382.5H883.0ZM827.0 767.5 1059.0 894.5Q1049.0 909.5 1029.0 919.0Q1009.0 928.5 977.0 921.5Q874.0 983.5 768.0 1031.5Q877.0 1067.5 925.0 1122.0Q973.0 1176.5 975.0 1231.5Q977.0 1286.5 944.5 1326.5Q912.0 1366.5 858.5 1374.5Q805.0 1382.5 743.0 1340.5Q728.0 1264.5 688.0 1185.0Q648.0 1105.5 602.0 1043.5V1910.5Q600.0 1920.5 538.5 1950.0Q477.0 1979.5 371.0 1979.5H317.0V1197.5Q254.0 1240.5 185.5 1279.0Q117.0 1317.5 45.0 1351.5L29.0 1328.5Q146.0 1224.5 254.0 1088.5Q362.0 952.5 447.5 803.5Q533.0 654.5 586.0 511.5H100.0L82.0 454.5H319.0V64.5L678.0 91.5Q675.0 113.5 660.0 128.5Q645.0 143.5 604.0 151.5V429.5L731.0 308.5L979.0 519.5Q968.0 536.5 951.0 543.0Q934.0 549.5 897.0 552.5Q843.0 658.5 769.5 761.5Q696.0 864.5 602.0 959.5V998.5Q630.0 1001.5 655.5 1005.5Q681.0 1009.5 704.0 1015.5Q732.0 969.5 764.5 903.0Q797.0 836.5 827.0 767.5Z" fill="black"></path></svg>