<?xml version="1.0" standalone="no"?>
<!DOCTYPE svg PUBLIC "-//W3C//DTD SVG 1.1//EN" "http://www.w3.org/Graphics/SVG/1.1/DTD/svg11.dtd" >
<svg xmlns="http://www.w3.org/2000/svg" xmlns:svg="http://www.w3.org/2000/svg" xmlns:xlink="http://www.w3.org/1999/xlink" viewBox="0 0 2048 2048" style=""><path d="M1244.0 62.0 1613.0 95.0Q1604.0 142.0 1535.0 154.0L1533.0 572.0H1617.0L1762.0 427.0L2002.0 636.0Q1990.0 650.0 1968.5 661.5Q1947.0 673.0 1912.0 679.0Q1909.0 944.0 1904.5 1135.0Q1900.0 1326.0 1891.0 1457.0Q1882.0 1588.0 1867.5 1673.0Q1853.0 1758.0 1829.5 1809.5Q1806.0 1861.0 1773.0 1895.0Q1719.0 1949.0 1650.0 1973.5Q1581.0 1998.0 1496.0 1998.0Q1498.0 1927.0 1492.0 1880.0Q1486.0 1833.0 1470.0 1805.0Q1448.0 1774.0 1416.0 1752.0Q1384.0 1730.0 1330.0 1715.0V1690.0Q1367.0 1694.0 1417.0 1696.5Q1467.0 1699.0 1496.0 1699.0Q1535.0 1699.0 1560.0 1674.0Q1590.0 1645.0 1606.5 1533.5Q1623.0 1422.0 1630.0 1202.5Q1637.0 983.0 1642.0 630.0H1531.0Q1528.0 871.0 1506.5 1073.5Q1485.0 1276.0 1422.5 1444.0Q1360.0 1612.0 1236.5 1748.0Q1113.0 1884.0 906.0 1992.0L886.0 1963.0Q957.0 1891.0 1010.0 1812.5Q1063.0 1734.0 1101.0 1649.0Q961.0 1706.0 750.5 1776.5Q540.0 1847.0 241.0 1936.0Q219.0 1976.0 177.0 1983.0L56.0 1672.0Q121.0 1670.0 224.0 1665.5Q327.0 1661.0 456.0 1652.0V1480.0H149.0L132.0 1422.0H456.0V1252.0H110.0L93.0 1195.0H456.0V1015.0H370.0V1062.0Q370.0 1074.0 314.5 1095.5Q259.0 1117.0 161.0 1117.0H116.0V533.0L390.0 638.0H806.0L904.0 529.0Q880.0 538.0 840.0 546.0Q800.0 554.0 745.0 554.0H673.0V363.0H511.0V507.0Q511.0 514.0 462.5 538.0Q414.0 562.0 312.0 562.0H243.0V363.0H61.0L46.0 306.0H243.0V50.0L568.0 77.0Q567.0 95.0 554.5 107.5Q542.0 120.0 511.0 126.0V306.0H673.0V50.0L1007.0 77.0Q1005.0 95.0 992.5 109.5Q980.0 124.0 947.0 130.0V306.0H960.0L1066.0 150.0Q1066.0 150.0 1095.5 176.0Q1125.0 202.0 1167.0 241.0Q1209.0 280.0 1246.0 320.0ZM1109.0 572.0H1246.0V343.0Q1235.0 363.0 1201.0 363.0H947.0V499.0Q947.0 503.0 937.0 511.0L1156.0 673.0Q1147.0 686.0 1130.5 695.5Q1114.0 705.0 1078.0 712.0V1039.0Q1078.0 1045.0 1049.0 1058.0Q1020.0 1071.0 966.0 1080.0Q998.0 1108.0 1045.5 1147.0Q1093.0 1186.0 1130.0 1219.0Q1121.0 1252.0 1074.0 1252.0H722.0V1422.0H808.0L915.0 1281.0Q915.0 1281.0 948.5 1308.5Q982.0 1336.0 1028.0 1374.5Q1074.0 1413.0 1111.0 1447.0Q1102.0 1480.0 1056.0 1480.0H722.0V1635.0L1121.0 1606.0Q1203.0 1407.0 1224.5 1166.5Q1246.0 926.0 1246.0 630.0H1128.0ZM888.0 1088.0H861.0H812.0V1015.0H722.0V1195.0H806.0ZM370.0 957.0H456.0V695.0H370.0ZM812.0 957.0V695.0H722.0V957.0Z" fill="black"></path></svg>