<?xml version="1.0" standalone="no"?>
<!DOCTYPE svg PUBLIC "-//W3C//DTD SVG 1.1//EN" "http://www.w3.org/Graphics/SVG/1.1/DTD/svg11.dtd" >
<svg xmlns="http://www.w3.org/2000/svg" xmlns:svg="http://www.w3.org/2000/svg" xmlns:xlink="http://www.w3.org/1999/xlink" viewBox="0 0 2048 2048" style=""><path d="M1233.5 213.0 1573.5 244.0Q1570.5 265.0 1556.0 280.0Q1541.5 295.0 1499.5 301.0V1454.0Q1499.5 1464.0 1466.5 1481.0Q1433.5 1498.0 1383.0 1512.0Q1332.5 1526.0 1282.5 1526.0H1233.5ZM1630.5 65.0 1985.5 98.0Q1981.5 146.0 1911.5 158.0V1679.0Q1911.5 1774.0 1888.5 1840.5Q1865.5 1907.0 1791.5 1946.0Q1717.5 1985.0 1565.5 1999.0Q1560.5 1931.0 1550.5 1881.5Q1540.5 1832.0 1516.5 1800.0Q1491.5 1768.0 1454.0 1745.0Q1416.5 1722.0 1338.5 1708.0V1681.0Q1338.5 1681.0 1370.5 1683.0Q1402.5 1685.0 1447.5 1687.5Q1492.5 1690.0 1533.0 1692.0Q1573.5 1694.0 1589.5 1694.0Q1630.5 1694.0 1630.5 1659.0ZM78.5 670.0 348.5 661.0Q362.5 577.0 374.5 480.0Q386.5 383.0 393.5 297.0H78.5L62.5 239.0H813.5L950.5 49.0Q950.5 49.0 976.0 70.0Q1001.5 91.0 1041.0 124.0Q1080.5 157.0 1122.5 194.5Q1164.5 232.0 1198.5 264.0Q1189.5 297.0 1141.5 297.0H721.5Q667.5 387.0 605.0 481.5Q542.5 576.0 477.5 657.0L844.5 639.0Q804.5 539.0 740.5 461.0L756.5 448.0Q910.5 479.0 998.0 534.0Q1085.5 589.0 1119.0 652.5Q1152.5 716.0 1144.5 774.0Q1136.5 832.0 1099.0 868.5Q1061.5 905.0 1007.0 907.0Q952.5 909.0 893.5 860.0Q893.5 822.0 886.5 782.5Q879.5 743.0 869.5 704.0Q759.5 754.0 607.0 814.5Q454.5 875.0 250.5 950.0Q239.5 970.0 221.5 982.0Q203.5 994.0 185.5 997.0ZM62.5 1624.0Q125.5 1619.0 229.0 1608.5Q332.5 1598.0 463.5 1583.0V1259.0H107.5L90.5 1202.0H463.5V909.0L815.5 936.0Q814.5 956.0 801.5 969.5Q788.5 983.0 750.5 989.0V1202.0H785.5L918.5 1010.0Q918.5 1010.0 943.0 1031.0Q967.5 1052.0 1005.0 1085.5Q1042.5 1119.0 1083.0 1156.5Q1123.5 1194.0 1155.5 1227.0Q1146.5 1259.0 1098.5 1259.0H750.5V1548.0L1170.5 1493.0L1172.5 1515.0Q1036.5 1589.0 815.5 1688.5Q594.5 1788.0 260.5 1917.0Q238.5 1959.0 197.5 1968.0Z" fill="black"></path></svg>