<?xml version="1.0" standalone="no"?>
<!DOCTYPE svg PUBLIC "-//W3C//DTD SVG 1.1//EN" "http://www.w3.org/Graphics/SVG/1.1/DTD/svg11.dtd" >
<svg xmlns="http://www.w3.org/2000/svg" xmlns:svg="http://www.w3.org/2000/svg" xmlns:xlink="http://www.w3.org/1999/xlink" viewBox="0 0 2048 2048" style=""><path d="M635.5 68.0 1012.5 220.0Q1006.5 237.0 990.0 247.5Q973.5 258.0 934.5 257.0Q851.5 401.0 726.0 546.0Q600.5 691.0 430.5 814.5Q260.5 938.0 43.5 1017.0L29.5 998.0Q184.5 877.0 304.5 717.5Q424.5 558.0 508.0 388.5Q591.5 219.0 635.5 68.0ZM1182.5 54.0Q1237.5 176.0 1329.5 272.0Q1421.5 368.0 1536.0 441.5Q1650.5 515.0 1774.5 569.0Q1898.5 623.0 2018.5 660.0L2012.5 685.0Q1922.5 702.0 1859.5 770.0Q1796.5 838.0 1764.5 947.0Q1541.5 800.0 1390.0 592.5Q1238.5 385.0 1162.5 64.0ZM306.5 898.0H1285.5L1436.5 752.0L1686.5 967.0Q1674.5 981.0 1654.5 991.5Q1634.5 1002.0 1600.5 1006.0Q1587.5 1272.0 1565.5 1450.0Q1543.5 1628.0 1506.0 1734.0Q1468.5 1840.0 1407.5 1887.0Q1349.5 1933.0 1277.5 1954.0Q1205.5 1975.0 1088.5 1975.0Q1089.5 1911.0 1079.0 1860.0Q1068.5 1809.0 1039.5 1778.0Q971.5 1708.0 809.5 1676.0V1654.0Q863.5 1658.0 926.5 1661.5Q989.5 1665.0 1043.5 1667.5Q1097.5 1670.0 1123.5 1670.0Q1166.5 1670.0 1192.5 1649.0Q1237.5 1614.0 1264.0 1435.0Q1290.5 1256.0 1305.5 955.0H986.5Q970.5 1094.0 930.5 1235.5Q890.5 1377.0 798.5 1512.0Q706.5 1647.0 540.0 1769.5Q373.5 1892.0 105.5 1994.0L86.5 1967.0Q279.5 1840.0 392.5 1710.0Q505.5 1580.0 561.5 1450.5Q617.5 1321.0 636.5 1196.0Q655.5 1071.0 660.5 955.0H324.5Z" fill="black"></path></svg>