<?xml version="1.0" standalone="no"?>
<!DOCTYPE svg PUBLIC "-//W3C//DTD SVG 1.1//EN" "http://www.w3.org/Graphics/SVG/1.1/DTD/svg11.dtd" >
<svg xmlns="http://www.w3.org/2000/svg" xmlns:svg="http://www.w3.org/2000/svg" xmlns:xlink="http://www.w3.org/1999/xlink" viewBox="0 0 2048 2048" style=""><path d="M1230.0 207.5 1577.0 238.5Q1573.0 259.5 1557.5 275.5Q1542.0 291.5 1501.0 297.5V1409.5Q1501.0 1419.5 1467.5 1437.5Q1434.0 1455.5 1383.0 1469.5Q1332.0 1483.5 1280.0 1483.5H1230.0ZM1634.0 64.5 2005.0 98.5Q2001.0 121.5 1984.0 136.0Q1967.0 150.5 1929.0 156.5V1638.5Q1929.0 1738.5 1904.0 1807.5Q1879.0 1876.5 1801.0 1917.5Q1723.0 1958.5 1562.0 1972.5Q1556.0 1900.5 1545.5 1849.0Q1535.0 1797.5 1507.0 1763.5Q1481.0 1730.5 1440.0 1706.5Q1399.0 1682.5 1314.0 1665.5V1638.5Q1314.0 1638.5 1349.5 1641.0Q1385.0 1643.5 1434.5 1646.5Q1484.0 1649.5 1528.0 1651.5Q1572.0 1653.5 1591.0 1653.5Q1634.0 1653.5 1634.0 1618.5ZM428.0 270.5V744.5H778.0V270.5ZM165.0 213.5V105.5L456.0 213.5H757.0L880.0 78.5L1136.0 272.5Q1127.0 283.5 1107.0 296.5Q1087.0 309.5 1054.0 315.5V817.5Q1053.0 824.5 1014.0 839.0Q975.0 853.5 922.0 865.5Q869.0 877.5 825.0 877.5H778.0V801.5H651.0Q645.0 934.5 632.0 1055.5H788.0L929.0 922.5L1167.0 1120.5Q1143.0 1150.5 1085.0 1159.5Q1074.0 1395.5 1055.5 1540.0Q1037.0 1684.5 1004.0 1763.5Q971.0 1842.5 917.0 1882.5Q820.0 1956.5 653.0 1956.5Q653.0 1894.5 647.5 1848.0Q642.0 1801.5 622.0 1774.5Q601.0 1744.5 566.5 1724.0Q532.0 1703.5 477.0 1688.5V1665.5Q518.0 1668.5 576.0 1671.0Q634.0 1673.5 663.0 1673.5Q701.0 1673.5 723.0 1657.5Q756.0 1629.5 776.0 1499.5Q796.0 1369.5 809.0 1112.5H624.0Q602.0 1287.5 546.0 1447.0Q490.0 1606.5 375.5 1742.5Q261.0 1878.5 63.0 1983.5L43.0 1960.5Q185.0 1794.5 253.5 1612.0Q322.0 1429.5 344.5 1238.5Q367.0 1047.5 372.0 854.5Q345.0 869.5 305.0 880.5Q265.0 891.5 215.0 891.5H165.0Z" fill="black"></path></svg>