<?xml version="1.0" standalone="no"?>
<!DOCTYPE svg PUBLIC "-//W3C//DTD SVG 1.1//EN" "http://www.w3.org/Graphics/SVG/1.1/DTD/svg11.dtd" >
<svg xmlns="http://www.w3.org/2000/svg" xmlns:svg="http://www.w3.org/2000/svg" xmlns:xlink="http://www.w3.org/1999/xlink" viewBox="0 0 2048 2048" style=""><path d="M1238.0 80.0 1595.0 112.0Q1586.0 161.0 1519.0 170.0L1515.0 583.0H1625.0L1771.0 438.0L2006.0 647.0Q1996.0 661.0 1974.0 672.0Q1952.0 683.0 1918.0 688.0Q1913.0 1008.0 1904.5 1220.0Q1896.0 1432.0 1880.0 1562.5Q1864.0 1693.0 1837.0 1765.5Q1810.0 1838.0 1767.0 1880.0Q1713.0 1934.0 1643.5 1957.0Q1574.0 1980.0 1488.0 1980.0Q1490.0 1913.0 1484.0 1866.0Q1478.0 1819.0 1459.0 1792.0Q1420.0 1731.0 1318.0 1702.0V1677.0Q1358.0 1680.0 1410.5 1682.5Q1463.0 1685.0 1492.0 1685.0Q1530.0 1685.0 1558.0 1661.0Q1588.0 1632.0 1606.0 1521.5Q1624.0 1411.0 1634.0 1196.5Q1644.0 982.0 1650.0 641.0H1515.0Q1509.0 873.0 1485.0 1073.0Q1461.0 1273.0 1396.0 1441.0Q1331.0 1609.0 1206.0 1748.0Q1081.0 1887.0 874.0 1999.0L853.0 1972.0Q1009.0 1813.0 1091.0 1628.0Q956.0 1688.0 749.0 1764.0Q542.0 1840.0 241.0 1935.0Q219.0 1975.0 175.0 1982.0L59.0 1648.0Q122.0 1647.0 222.0 1642.5Q322.0 1638.0 450.0 1632.0V1485.0H98.0L81.0 1427.0H450.0V1243.0H351.0V1269.0Q351.0 1283.0 296.0 1305.0Q241.0 1327.0 145.0 1327.0H100.0V573.0L372.0 676.0H450.0V534.0H65.0L48.0 477.0H450.0V325.0Q347.0 330.0 244.5 332.0Q142.0 334.0 46.0 334.0L42.0 305.0Q149.0 282.0 268.0 251.0Q387.0 220.0 504.0 185.0Q621.0 150.0 722.5 115.0Q824.0 80.0 896.0 49.0L1134.0 295.0Q1092.0 327.0 995.0 286.0Q932.0 294.0 857.5 300.5Q783.0 307.0 702.0 313.0V477.0H810.0L939.0 315.0Q939.0 315.0 979.5 345.5Q1020.0 376.0 1075.5 419.5Q1131.0 463.0 1175.0 501.0Q1169.0 534.0 1117.0 534.0H702.0V676.0H802.0L923.0 538.0L1150.0 710.0Q1141.0 724.0 1124.5 733.5Q1108.0 743.0 1072.0 749.0V1235.0Q1072.0 1241.0 1031.0 1259.5Q990.0 1278.0 917.0 1286.0Q932.0 1297.0 968.5 1325.0Q1005.0 1353.0 1049.0 1387.0Q1093.0 1421.0 1130.0 1452.0Q1121.0 1485.0 1072.0 1485.0H702.0V1618.0L1107.0 1591.0Q1190.0 1393.0 1214.5 1157.5Q1239.0 922.0 1240.0 641.0H1087.0L1068.0 583.0H1240.0ZM702.0 1427.0H786.0L900.0 1286.0L855.0 1288.0H808.0V1243.0H702.0ZM450.0 987.0H351.0V1186.0H450.0ZM702.0 987.0V1186.0H808.0V987.0ZM450.0 930.0V733.0H351.0V930.0ZM702.0 930.0H808.0V733.0H702.0Z" fill="black"></path></svg>