<?xml version="1.0" standalone="no"?>
<!DOCTYPE svg PUBLIC "-//W3C//DTD SVG 1.1//EN" "http://www.w3.org/Graphics/SVG/1.1/DTD/svg11.dtd" >
<svg xmlns="http://www.w3.org/2000/svg" xmlns:svg="http://www.w3.org/2000/svg" xmlns:xlink="http://www.w3.org/1999/xlink" viewBox="0 0 2048 2048" style=""><path d="M1243.0 216.0 1566.0 247.0Q1563.0 265.0 1550.5 278.5Q1538.0 292.0 1501.0 298.0V1418.0Q1501.0 1429.0 1468.5 1446.5Q1436.0 1464.0 1387.0 1478.0Q1338.0 1492.0 1290.0 1492.0H1243.0ZM1634.0 85.0 1995.0 118.0Q1991.0 166.0 1921.0 177.0V1668.0Q1921.0 1765.0 1897.0 1833.0Q1873.0 1901.0 1796.0 1941.0Q1719.0 1981.0 1560.0 1996.0Q1556.0 1926.0 1544.5 1875.5Q1533.0 1825.0 1505.0 1793.0Q1479.0 1759.0 1437.5 1735.5Q1396.0 1712.0 1310.0 1697.0V1670.0Q1310.0 1670.0 1346.0 1672.0Q1382.0 1674.0 1432.0 1677.0Q1482.0 1680.0 1527.5 1682.0Q1573.0 1684.0 1591.0 1684.0Q1634.0 1684.0 1634.0 1647.0ZM84.0 265.0H788.0L940.0 52.0Q940.0 52.0 968.0 75.5Q996.0 99.0 1039.5 135.5Q1083.0 172.0 1130.0 213.0Q1177.0 254.0 1214.0 290.0Q1205.0 322.0 1155.0 322.0H762.0Q737.0 407.0 703.0 492.0Q669.0 577.0 626.0 660.0H839.0L987.0 509.0L1239.0 734.0Q1228.0 752.0 1209.5 760.0Q1191.0 768.0 1153.0 773.0Q1102.0 971.0 1023.0 1154.5Q944.0 1338.0 822.5 1497.0Q701.0 1656.0 524.5 1783.0Q348.0 1910.0 104.0 1996.0L90.0 1975.0Q300.0 1843.0 450.0 1655.5Q600.0 1468.0 698.0 1244.0Q660.0 1284.0 596.5 1291.0Q533.0 1298.0 467.0 1244.0Q468.0 1181.0 450.0 1116.5Q432.0 1052.0 401.0 1000.0Q327.0 1086.0 244.0 1162.0Q161.0 1238.0 67.0 1301.0L53.0 1285.0Q148.0 1152.0 223.5 987.5Q299.0 823.0 348.0 651.0Q397.0 479.0 413.0 322.0H100.0ZM594.0 718.0Q563.0 771.0 529.0 824.5Q495.0 878.0 456.0 929.0Q612.0 955.0 676.0 1017.0Q740.0 1079.0 741.0 1142.0Q816.0 936.0 856.0 718.0Z" fill="black"></path></svg>