<?xml version="1.0" standalone="no"?>
<!DOCTYPE svg PUBLIC "-//W3C//DTD SVG 1.1//EN" "http://www.w3.org/Graphics/SVG/1.1/DTD/svg11.dtd" >
<svg xmlns="http://www.w3.org/2000/svg" xmlns:svg="http://www.w3.org/2000/svg" xmlns:xlink="http://www.w3.org/1999/xlink" viewBox="0 0 2048 2048" style=""><path d="M797.0 55.0 1198.0 92.0Q1195.0 117.0 1178.0 131.0Q1161.0 145.0 1122.0 149.0Q1119.0 261.0 1117.5 370.5Q1116.0 480.0 1110.0 586.0H1524.0L1686.0 426.0L1946.0 655.0Q1932.0 671.0 1910.0 681.5Q1888.0 692.0 1851.0 698.0Q1839.0 1045.0 1817.5 1283.5Q1796.0 1522.0 1756.0 1664.5Q1716.0 1807.0 1651.0 1866.0Q1588.0 1924.0 1507.5 1950.0Q1427.0 1976.0 1290.0 1976.0Q1292.0 1905.0 1278.0 1851.0Q1264.0 1797.0 1229.0 1763.0Q1152.0 1687.0 959.0 1648.0V1628.0Q1024.0 1632.0 1099.5 1636.5Q1175.0 1641.0 1239.5 1643.5Q1304.0 1646.0 1335.0 1646.0Q1389.0 1646.0 1415.0 1620.0Q1472.0 1574.0 1501.5 1316.5Q1531.0 1059.0 1546.0 643.0H1106.0Q1091.0 852.0 1044.5 1044.0Q998.0 1236.0 893.5 1407.5Q789.0 1579.0 602.5 1726.0Q416.0 1873.0 121.0 1993.0L102.0 1966.0Q304.0 1822.0 434.0 1668.5Q564.0 1515.0 637.5 1350.0Q711.0 1185.0 745.0 1008.5Q779.0 832.0 789.0 643.0H203.0L184.0 586.0H793.0Q797.0 458.0 797.0 325.5Q797.0 193.0 797.0 55.0Z" fill="black"></path></svg>