<?xml version="1.0" standalone="no"?>
<!DOCTYPE svg PUBLIC "-//W3C//DTD SVG 1.1//EN" "http://www.w3.org/Graphics/SVG/1.1/DTD/svg11.dtd" >
<svg xmlns="http://www.w3.org/2000/svg" xmlns:svg="http://www.w3.org/2000/svg" xmlns:xlink="http://www.w3.org/1999/xlink" viewBox="0 0 2048 2048" style=""><path d="M1295.0 200.0 1612.0 229.0Q1609.0 249.0 1595.5 262.5Q1582.0 276.0 1545.0 282.0V1452.0Q1545.0 1463.0 1514.0 1480.0Q1483.0 1497.0 1436.0 1510.0Q1389.0 1523.0 1342.0 1523.0H1295.0ZM1660.0 88.0 2002.0 120.0Q1998.0 143.0 1981.0 157.5Q1964.0 172.0 1926.0 178.0V1689.0Q1926.0 1781.0 1904.0 1846.0Q1882.0 1911.0 1811.0 1949.0Q1740.0 1987.0 1594.0 2001.0Q1589.0 1934.0 1579.0 1887.0Q1569.0 1840.0 1545.0 1808.0Q1520.0 1777.0 1483.0 1755.5Q1446.0 1734.0 1369.0 1720.0V1693.0Q1369.0 1693.0 1400.5 1695.0Q1432.0 1697.0 1476.5 1699.5Q1521.0 1702.0 1561.5 1704.0Q1602.0 1706.0 1619.0 1706.0Q1660.0 1706.0 1660.0 1671.0ZM781.0 190.0Q948.0 219.0 1048.0 266.0Q1148.0 313.0 1193.0 367.5Q1238.0 422.0 1241.0 474.0Q1244.0 526.0 1216.5 566.0Q1189.0 606.0 1144.0 625.0Q1099.0 644.0 1049.0 630.0Q1041.0 659.0 994.0 659.0H396.0L384.0 618.0Q344.0 649.0 300.0 677.0Q256.0 705.0 212.0 731.0L402.0 807.0H439.0L525.0 718.0L703.0 852.0Q688.0 871.0 648.0 880.0V1249.0Q647.0 1254.0 619.0 1264.0Q591.0 1274.0 553.5 1282.0Q516.0 1290.0 486.0 1290.0H453.0V1224.0H375.0V1278.0Q375.0 1294.0 328.0 1312.0L638.0 1400.0Q624.0 1443.0 558.0 1443.0Q547.0 1470.0 536.0 1495.5Q525.0 1521.0 515.0 1544.0Q605.0 1565.0 648.5 1602.0Q692.0 1639.0 701.0 1677.0Q736.0 1599.0 761.5 1510.0Q787.0 1421.0 797.0 1323.0L760.0 1325.0H726.0V721.0L945.0 807.0H988.0L1076.0 716.0L1258.0 852.0Q1243.0 871.0 1203.0 880.0V1247.0Q1202.0 1253.0 1173.0 1263.0Q1144.0 1273.0 1105.5 1281.5Q1067.0 1290.0 1037.0 1290.0H1002.0V1224.0H918.0V1267.0Q918.0 1275.0 893.5 1291.5Q869.0 1308.0 826.0 1319.0L1131.0 1405.0Q1118.0 1448.0 1051.0 1448.0Q1041.0 1477.0 1030.0 1504.5Q1019.0 1532.0 1006.0 1556.0Q1141.0 1598.0 1202.5 1660.0Q1264.0 1722.0 1271.0 1784.0Q1278.0 1846.0 1245.5 1889.5Q1213.0 1933.0 1158.0 1941.0Q1103.0 1949.0 1043.0 1900.0Q1038.0 1834.0 1016.0 1764.5Q994.0 1695.0 963.0 1634.0Q879.0 1775.0 762.0 1861.5Q645.0 1948.0 500.0 1998.0L480.0 1978.0Q523.0 1940.0 562.5 1893.5Q602.0 1847.0 636.0 1794.0Q608.0 1807.0 572.0 1802.5Q536.0 1798.0 500.0 1767.0Q505.0 1730.0 498.0 1690.5Q491.0 1651.0 476.0 1618.0Q399.0 1751.0 296.5 1842.5Q194.0 1934.0 68.0 1992.0L46.0 1972.0Q146.0 1858.0 219.0 1689.0Q292.0 1520.0 318.0 1319.0Q298.0 1325.0 273.0 1330.0Q248.0 1335.0 218.0 1335.0H185.0V745.0Q157.0 760.0 128.0 774.0Q99.0 788.0 70.0 800.0L58.0 786.0Q160.0 685.0 245.5 553.5Q331.0 422.0 392.0 288.0Q453.0 154.0 482.0 47.0L875.0 141.0Q869.0 162.0 849.0 174.5Q829.0 187.0 781.0 190.0ZM973.0 561.0Q953.0 482.0 902.0 385.5Q851.0 289.0 771.0 206.0Q708.0 308.0 614.5 410.5Q521.0 513.0 406.0 602.0H691.0L818.0 436.0ZM375.0 864.0V1167.0H453.0V864.0ZM918.0 864.0V1167.0H1002.0V864.0Z" fill="black"></path></svg>