<?xml version="1.0" standalone="no"?>
<!DOCTYPE svg PUBLIC "-//W3C//DTD SVG 1.1//EN" "http://www.w3.org/Graphics/SVG/1.1/DTD/svg11.dtd" >
<svg xmlns="http://www.w3.org/2000/svg" xmlns:svg="http://www.w3.org/2000/svg" xmlns:xlink="http://www.w3.org/1999/xlink" viewBox="0 0 2048 2048" style=""><path d="M654.5 771.0Q787.5 791.0 859.0 832.5Q930.5 874.0 954.0 923.5Q977.5 973.0 964.5 1017.0Q951.5 1061.0 914.5 1088.5Q877.5 1116.0 826.5 1114.0Q775.5 1112.0 724.5 1068.0Q726.5 991.0 700.0 913.0Q673.5 835.0 638.5 781.0ZM1250.5 75.0Q1247.5 96.0 1234.0 111.0Q1220.5 126.0 1177.5 134.0V353.0H1525.5L1687.5 150.0Q1687.5 150.0 1717.0 172.5Q1746.5 195.0 1792.5 229.5Q1838.5 264.0 1889.0 303.5Q1939.5 343.0 1982.5 378.0Q1973.5 410.0 1920.5 410.0H1177.5V683.0H1525.5L1658.5 535.0L1928.5 744.0Q1919.5 757.0 1900.5 769.0Q1881.5 781.0 1848.5 787.0V1680.0Q1848.5 1774.0 1823.5 1841.0Q1798.5 1908.0 1719.0 1947.5Q1639.5 1987.0 1478.5 2002.0Q1473.5 1931.0 1463.5 1881.0Q1453.5 1831.0 1427.5 1799.0Q1400.5 1768.0 1362.0 1743.5Q1323.5 1719.0 1240.5 1705.0V1678.0Q1240.5 1678.0 1273.0 1680.0Q1305.5 1682.0 1351.5 1685.0Q1397.5 1688.0 1440.5 1690.5Q1483.5 1693.0 1504.5 1693.0Q1529.5 1693.0 1537.5 1681.5Q1545.5 1670.0 1545.5 1652.0V740.0H527.5V1891.0Q527.5 1908.0 490.5 1932.0Q453.5 1956.0 395.0 1975.0Q336.5 1994.0 273.5 1994.0H226.5V558.0L548.5 683.0H876.5V410.0H81.5L65.5 353.0H876.5V46.0ZM1326.5 992.0Q1326.5 992.0 1360.5 1017.0Q1394.5 1042.0 1441.5 1077.5Q1488.5 1113.0 1527.5 1146.0Q1518.5 1178.0 1472.5 1178.0H1160.5V1420.0H1189.5L1310.5 1271.0Q1310.5 1271.0 1348.0 1299.5Q1385.5 1328.0 1437.5 1368.5Q1489.5 1409.0 1531.5 1445.0Q1522.5 1477.0 1476.5 1477.0H1160.5V1862.0Q1159.5 1870.0 1098.5 1894.0Q1037.5 1918.0 927.5 1918.0H874.5V1477.0H568.5L552.5 1420.0H874.5V1178.0H607.5L591.5 1121.0H1052.5Q1072.5 1040.0 1092.0 937.5Q1111.5 835.0 1121.5 757.0L1435.5 843.0Q1421.5 884.0 1357.5 881.0Q1311.5 934.0 1246.5 999.0Q1181.5 1064.0 1115.5 1121.0H1218.5Z" fill="black"></path></svg>