<?xml version="1.0" standalone="no"?>
<!DOCTYPE svg PUBLIC "-//W3C//DTD SVG 1.1//EN" "http://www.w3.org/Graphics/SVG/1.1/DTD/svg11.dtd" >
<svg xmlns="http://www.w3.org/2000/svg" xmlns:svg="http://www.w3.org/2000/svg" xmlns:xlink="http://www.w3.org/1999/xlink" viewBox="0 0 2048 2048" style=""><path d="M43.0 246.5H1542.0L1706.0 39.5Q1706.0 39.5 1736.0 62.0Q1766.0 84.5 1813.0 120.0Q1860.0 155.5 1911.5 196.0Q1963.0 236.5 2005.0 271.5Q1996.0 304.5 1944.0 304.5H1700.0V1655.5Q1700.0 1753.5 1670.0 1829.0Q1640.0 1904.5 1549.5 1951.0Q1459.0 1997.5 1278.0 2008.5Q1273.0 1935.5 1254.5 1881.5Q1236.0 1827.5 1194.0 1795.5Q1154.0 1762.5 1096.0 1737.5Q1038.0 1712.5 916.0 1692.5V1668.5Q916.0 1668.5 952.5 1670.5Q989.0 1672.5 1046.0 1675.5Q1103.0 1678.5 1164.0 1681.5Q1225.0 1684.5 1274.5 1686.5Q1324.0 1688.5 1346.0 1688.5Q1397.0 1688.5 1397.0 1643.5V304.5H59.0ZM834.0 701.5H559.0V1256.5H834.0ZM279.0 644.5V529.5L569.0 644.5H813.0L940.0 504.5L1202.0 703.5Q1192.0 715.5 1172.5 728.0Q1153.0 740.5 1120.0 746.5V1422.5Q1119.0 1430.5 1079.5 1446.0Q1040.0 1461.5 985.0 1474.5Q930.0 1487.5 883.0 1487.5H834.0V1313.5H559.0V1483.5Q559.0 1497.5 524.5 1518.5Q490.0 1539.5 435.0 1556.5Q380.0 1573.5 320.0 1573.5H279.0Z" fill="black"></path></svg>