<?xml version="1.0" standalone="no"?>
<!DOCTYPE svg PUBLIC "-//W3C//DTD SVG 1.1//EN" "http://www.w3.org/Graphics/SVG/1.1/DTD/svg11.dtd" >
<svg xmlns="http://www.w3.org/2000/svg" xmlns:svg="http://www.w3.org/2000/svg" xmlns:xlink="http://www.w3.org/1999/xlink" viewBox="0 0 2048 2048" style=""><path d="M855.5 66.5 1238.5 97.5Q1235.5 119.5 1220.5 134.5Q1205.5 149.5 1162.5 156.5V453.5H1404.5L1570.5 238.5Q1570.5 238.5 1601.0 262.0Q1631.5 285.5 1678.5 322.5Q1725.5 359.5 1777.5 401.0Q1829.5 442.5 1871.5 478.5Q1862.5 511.5 1812.5 511.5H1162.5V924.5H1502.5L1674.5 705.5Q1674.5 705.5 1706.0 729.5Q1737.5 753.5 1786.0 791.0Q1834.5 828.5 1887.5 870.5Q1940.5 912.5 1984.5 949.5Q1975.5 982.5 1922.5 982.5H1132.5Q1064.5 1085.5 985.5 1195.0Q906.5 1304.5 823.5 1408.0Q740.5 1511.5 661.5 1596.5Q834.5 1587.5 1035.0 1572.5Q1235.5 1557.5 1445.5 1539.5Q1387.5 1445.5 1321.0 1359.5Q1254.5 1273.5 1187.5 1199.5L1203.5 1187.5Q1417.5 1239.5 1560.5 1316.5Q1703.5 1393.5 1786.0 1480.5Q1868.5 1567.5 1899.5 1652.0Q1930.5 1736.5 1920.5 1806.0Q1910.5 1875.5 1869.0 1918.0Q1827.5 1960.5 1763.5 1963.0Q1699.5 1965.5 1623.5 1914.5Q1599.5 1837.5 1563.5 1758.5Q1527.5 1679.5 1484.5 1602.5Q1301.5 1675.5 1040.5 1756.5Q779.5 1837.5 403.5 1932.5Q382.5 1971.5 337.5 1981.5L171.5 1617.5Q242.5 1615.5 343.0 1612.0Q443.5 1608.5 564.5 1602.5Q593.5 1512.5 622.0 1404.0Q650.5 1295.5 675.5 1186.0Q700.5 1076.5 718.5 982.5H79.5L63.5 924.5H855.5V511.5H228.5L212.5 453.5H855.5Z" fill="black"></path></svg>