<?xml version="1.0" standalone="no"?>
<!DOCTYPE svg PUBLIC "-//W3C//DTD SVG 1.1//EN" "http://www.w3.org/Graphics/SVG/1.1/DTD/svg11.dtd" >
<svg xmlns="http://www.w3.org/2000/svg" xmlns:svg="http://www.w3.org/2000/svg" xmlns:xlink="http://www.w3.org/1999/xlink" viewBox="0 0 2048 2048" style=""><path d="M987.0 962.0 1253.0 1134.0Q1233.0 1162.0 1169.0 1151.0Q988.0 1284.0 778.0 1376.5Q568.0 1469.0 343.0 1521.0L329.0 1491.0Q520.0 1399.0 685.5 1266.5Q851.0 1134.0 987.0 962.0ZM1228.0 1167.0 1499.0 1349.0Q1475.0 1378.0 1408.0 1364.0Q1167.0 1523.0 907.5 1610.5Q648.0 1698.0 358.0 1734.0L348.0 1704.0Q603.0 1621.0 824.0 1492.5Q1045.0 1364.0 1228.0 1167.0ZM1454.0 1382.0 1746.0 1583.0Q1719.0 1614.0 1648.0 1595.0Q1431.0 1750.0 1212.5 1835.0Q994.0 1920.0 758.5 1955.5Q523.0 1991.0 255.0 1997.0L251.0 1966.0Q490.0 1920.0 704.0 1851.5Q918.0 1783.0 1106.0 1671.0Q1294.0 1559.0 1454.0 1382.0ZM688.0 51.0 1056.0 108.0Q1050.0 152.0 980.0 157.0Q904.0 230.0 794.0 309.0L1271.0 307.0Q1225.0 269.0 1180.0 234.5Q1135.0 200.0 1093.0 174.0L1109.0 157.0Q1303.0 155.0 1423.0 193.5Q1543.0 232.0 1601.0 290.5Q1659.0 349.0 1665.5 407.5Q1672.0 466.0 1638.0 505.0Q1604.0 544.0 1542.0 542.0L1660.0 573.0Q1654.0 592.0 1635.0 604.0Q1616.0 616.0 1583.0 614.0Q1547.0 651.0 1498.5 695.0Q1450.0 739.0 1396.0 782.0L1650.0 778.0Q1616.0 706.0 1574.0 655.0L1593.0 643.0Q1715.0 663.0 1784.0 702.0Q1853.0 741.0 1879.5 787.5Q1906.0 834.0 1899.5 876.5Q1893.0 919.0 1863.5 947.0Q1834.0 975.0 1790.0 977.0Q1746.0 979.0 1699.0 944.0Q1698.0 921.0 1692.0 898.0Q1686.0 875.0 1679.0 854.0Q1631.0 874.0 1572.0 897.5Q1513.0 921.0 1441.0 950.0Q1698.0 1057.0 2004.0 1091.0L2002.0 1124.0Q1919.0 1156.0 1879.5 1231.5Q1840.0 1307.0 1826.0 1384.0Q1559.0 1297.0 1366.5 1136.0Q1174.0 975.0 1060.0 749.0Q978.0 876.0 832.0 1008.5Q686.0 1141.0 488.0 1251.5Q290.0 1362.0 53.0 1423.0L44.0 1401.0Q210.0 1315.0 350.5 1195.0Q491.0 1075.0 597.0 942.0Q588.0 936.0 577.5 928.0Q567.0 920.0 556.0 909.0L559.0 858.0Q438.0 915.0 223.0 1001.0Q201.0 1041.0 163.0 1044.0L59.0 798.0L262.0 801.0Q278.0 728.0 292.5 644.5Q307.0 561.0 313.0 493.0L397.0 514.0L290.0 307.0L616.0 309.0Q661.0 170.0 688.0 51.0ZM1187.0 780.0 1294.0 782.0Q1312.0 711.0 1327.0 632.5Q1342.0 554.0 1351.0 491.0L1492.0 528.0Q1466.0 493.0 1430.5 455.0Q1395.0 417.0 1353.0 379.0Q1200.0 414.0 992.0 452.5Q784.0 491.0 503.0 540.0L620.0 569.0Q610.0 612.0 544.0 612.0Q506.0 654.0 451.0 704.0Q396.0 754.0 339.0 801.0L552.0 798.0Q536.0 714.0 507.0 653.0L528.0 645.0Q603.0 665.0 653.0 690.5Q703.0 716.0 733.0 745.0Q757.0 701.0 778.0 656.5Q799.0 612.0 815.0 569.0L1191.0 676.0Q1185.0 697.0 1164.0 709.0Q1143.0 721.0 1089.0 727.0Q1117.0 754.0 1148.0 779.5Q1179.0 805.0 1214.0 829.0Z" fill="black"></path></svg>