<?xml version="1.0" standalone="no"?>
<!DOCTYPE svg PUBLIC "-//W3C//DTD SVG 1.1//EN" "http://www.w3.org/Graphics/SVG/1.1/DTD/svg11.dtd" >
<svg xmlns="http://www.w3.org/2000/svg" xmlns:svg="http://www.w3.org/2000/svg" xmlns:xlink="http://www.w3.org/1999/xlink" viewBox="0 0 2048 2048" style=""><path d="M1691.0 685.0Q1691.0 685.0 1722.0 709.5Q1753.0 734.0 1801.5 773.5Q1850.0 813.0 1902.5 856.5Q1955.0 900.0 1998.0 939.0Q1989.0 972.0 1937.0 972.0H1173.0V1905.0Q1172.0 1915.0 1139.0 1936.0Q1106.0 1957.0 1046.5 1975.5Q987.0 1994.0 907.0 1994.0H845.0V972.0H67.0L50.0 914.0H845.0V435.0Q682.0 446.0 517.0 450.0Q352.0 454.0 194.0 449.0L190.0 423.0Q360.0 397.0 541.5 356.0Q723.0 315.0 896.0 265.0Q1069.0 215.0 1217.0 161.0Q1365.0 107.0 1468.0 54.0L1767.0 339.0Q1747.0 354.0 1709.0 356.0Q1671.0 358.0 1611.0 337.0Q1516.0 357.0 1405.0 375.0Q1294.0 393.0 1173.0 406.0V914.0H1519.0Z" fill="black"></path></svg>