<?xml version="1.0" standalone="no"?>
<!DOCTYPE svg PUBLIC "-//W3C//DTD SVG 1.1//EN" "http://www.w3.org/Graphics/SVG/1.1/DTD/svg11.dtd" >
<svg xmlns="http://www.w3.org/2000/svg" xmlns:svg="http://www.w3.org/2000/svg" xmlns:xlink="http://www.w3.org/1999/xlink" viewBox="0 0 2048 2048" style=""><path d="M982.0 234.5V113.5L1314.0 234.5H1541.0L1680.0 78.5L1959.0 297.5Q1950.0 310.5 1930.5 322.5Q1911.0 334.5 1879.0 340.5V1332.5Q1879.0 1434.5 1854.0 1506.5Q1829.0 1578.5 1750.0 1620.5Q1671.0 1662.5 1508.0 1676.5Q1504.0 1599.5 1494.5 1545.0Q1485.0 1490.5 1463.0 1455.5Q1440.0 1419.5 1405.0 1393.0Q1370.0 1366.5 1295.0 1352.5V1328.5Q1295.0 1328.5 1322.5 1330.0Q1350.0 1331.5 1389.0 1333.5Q1428.0 1335.5 1465.5 1337.0Q1503.0 1338.5 1523.0 1338.5Q1546.0 1338.5 1553.5 1327.5Q1561.0 1316.5 1561.0 1299.5V291.5H1285.0V1874.5Q1285.0 1886.5 1255.5 1909.0Q1226.0 1931.5 1171.0 1950.5Q1116.0 1969.5 1039.0 1969.5H982.0ZM89.0 244.5V127.5L378.0 244.5H542.0L679.0 95.5L945.0 306.5Q934.0 318.5 913.5 330.5Q893.0 342.5 861.0 349.5V1426.5Q860.0 1437.5 820.5 1459.5Q781.0 1481.5 724.0 1500.0Q667.0 1518.5 613.0 1518.5H564.0V1252.5H370.0V1522.5Q370.0 1538.5 336.5 1562.0Q303.0 1585.5 249.0 1603.0Q195.0 1620.5 134.0 1620.5H89.0ZM564.0 1194.5V301.5H370.0V1194.5Z" fill="black"></path></svg>