<?xml version="1.0" standalone="no"?>
<!DOCTYPE svg PUBLIC "-//W3C//DTD SVG 1.1//EN" "http://www.w3.org/Graphics/SVG/1.1/DTD/svg11.dtd" >
<svg xmlns="http://www.w3.org/2000/svg" xmlns:svg="http://www.w3.org/2000/svg" xmlns:xlink="http://www.w3.org/1999/xlink" viewBox="0 0 2048 2048" style=""><path d="M280.0 150.0Q454.0 197.0 553.0 267.5Q652.0 338.0 690.5 414.5Q729.0 491.0 720.5 558.0Q712.0 625.0 670.0 667.0Q628.0 709.0 565.5 710.0Q503.0 711.0 435.0 654.0Q426.0 525.0 376.0 394.0Q326.0 263.0 263.0 161.0ZM1467.0 122.0 1844.0 273.0Q1826.0 316.0 1756.0 310.0Q1653.0 433.0 1533.0 536.5Q1413.0 640.0 1293.0 714.0L1271.0 697.0Q1303.0 627.0 1338.0 532.0Q1373.0 437.0 1406.5 330.5Q1440.0 224.0 1467.0 122.0ZM859.0 52.0 1248.0 89.0Q1245.0 110.0 1230.5 126.0Q1216.0 142.0 1173.0 148.0V789.0H1474.0L1627.0 597.0Q1627.0 597.0 1655.5 618.0Q1684.0 639.0 1728.5 672.5Q1773.0 706.0 1821.5 743.5Q1870.0 781.0 1910.0 814.0Q1901.0 847.0 1850.0 847.0H1173.0V1246.0H1533.0L1697.0 1041.0Q1697.0 1041.0 1727.0 1063.0Q1757.0 1085.0 1803.0 1120.5Q1849.0 1156.0 1900.5 1195.5Q1952.0 1235.0 1994.0 1271.0Q1989.0 1287.0 1972.5 1295.0Q1956.0 1303.0 1934.0 1303.0H1173.0V1889.0Q1173.0 1904.0 1134.0 1929.5Q1095.0 1955.0 1036.5 1975.5Q978.0 1996.0 919.0 1996.0H859.0V1303.0H71.0L54.0 1246.0H859.0V847.0H202.0L185.0 789.0H859.0Z" fill="black"></path></svg>