<?xml version="1.0" standalone="no"?>
<!DOCTYPE svg PUBLIC "-//W3C//DTD SVG 1.1//EN" "http://www.w3.org/Graphics/SVG/1.1/DTD/svg11.dtd" >
<svg xmlns="http://www.w3.org/2000/svg" xmlns:svg="http://www.w3.org/2000/svg" xmlns:xlink="http://www.w3.org/1999/xlink" viewBox="0 0 2048 2048" style=""><path d="M1399.5 1747.0Q1399.5 1763.0 1365.0 1787.5Q1330.5 1812.0 1275.0 1830.5Q1219.5 1849.0 1155.5 1849.0H1108.5V778.0Q1100.5 800.0 1059.5 800.0H750.5V946.0Q885.5 979.0 959.5 1030.5Q1033.5 1082.0 1059.5 1139.0Q1085.5 1196.0 1074.0 1245.5Q1062.5 1295.0 1025.5 1325.5Q988.5 1356.0 937.0 1355.0Q885.5 1354.0 832.5 1308.0Q830.5 1232.0 807.5 1153.5Q784.5 1075.0 750.5 1009.0V1919.0Q749.5 1927.0 720.5 1946.0Q691.5 1965.0 639.5 1982.0Q587.5 1999.0 516.5 1999.0H463.5V1294.0Q386.5 1402.0 291.0 1497.0Q195.5 1592.0 84.5 1673.0L64.5 1652.0Q146.5 1540.0 211.0 1398.5Q275.5 1257.0 323.5 1103.5Q371.5 950.0 402.5 800.0H119.5L103.5 743.0H463.5V395.0Q376.5 401.0 288.0 405.5Q199.5 410.0 115.5 411.0L111.5 389.0Q233.5 348.0 367.0 288.5Q500.5 229.0 618.5 165.5Q736.5 102.0 811.5 49.0L1108.5 325.0V276.0L1409.5 397.0H1585.5L1719.5 250.0L1983.5 456.0Q1963.5 487.0 1903.5 501.0V1736.0Q1901.5 1747.0 1861.5 1766.5Q1821.5 1786.0 1764.5 1802.0Q1707.5 1818.0 1655.5 1818.0H1606.5V1595.0H1399.5ZM881.5 549.0Q881.5 549.0 920.5 583.5Q959.5 618.0 1012.5 667.5Q1065.5 717.0 1108.5 760.0V331.0Q1088.5 345.0 1052.0 345.5Q1015.5 346.0 961.5 327.0Q871.5 348.0 750.5 364.0V743.0ZM1606.5 454.0H1399.5V1538.0H1606.5Z" fill="black"></path></svg>