<?xml version="1.0" standalone="no"?>
<!DOCTYPE svg PUBLIC "-//W3C//DTD SVG 1.1//EN" "http://www.w3.org/Graphics/SVG/1.1/DTD/svg11.dtd" >
<svg xmlns="http://www.w3.org/2000/svg" xmlns:svg="http://www.w3.org/2000/svg" xmlns:xlink="http://www.w3.org/1999/xlink" viewBox="0 0 2048 2048" style=""><path d="M65.5 354.0V239.0L347.5 354.0H454.5L581.5 215.0L837.5 414.0Q826.5 426.0 806.5 438.0Q786.5 450.0 755.5 457.0V860.0Q832.5 689.0 890.0 479.5Q947.5 270.0 970.5 53.0L1349.5 147.0Q1335.5 191.0 1269.5 194.0Q1243.5 274.0 1213.0 348.0Q1182.5 422.0 1148.5 489.0H1562.5L1718.5 334.0L1982.5 586.0Q1962.5 611.0 1898.5 616.0Q1852.5 674.0 1786.5 741.0Q1720.5 808.0 1648.0 872.0Q1575.5 936.0 1509.5 983.0L1494.5 973.0Q1519.5 880.0 1543.0 761.5Q1566.5 643.0 1578.5 547.0H1398.5L1396.5 616.0Q1419.5 902.0 1483.0 1110.0Q1546.5 1318.0 1665.5 1461.5Q1784.5 1605.0 1972.5 1698.0L1965.5 1718.0Q1756.5 1772.0 1701.5 1988.0Q1586.5 1891.0 1519.5 1736.0Q1452.5 1581.0 1420.5 1374.5Q1388.5 1168.0 1378.5 917.0Q1358.5 1094.0 1308.0 1250.0Q1257.5 1406.0 1152.0 1540.5Q1046.5 1675.0 865.0 1788.5Q683.5 1902.0 401.5 1995.0L382.5 1966.0Q592.5 1855.0 727.0 1734.0Q861.5 1613.0 937.5 1481.0Q1013.5 1349.0 1048.0 1205.5Q1082.5 1062.0 1091.5 906.0Q1100.5 750.0 1101.5 579.0Q958.5 826.0 755.5 983.0V1411.0Q754.5 1420.0 716.0 1437.0Q677.5 1454.0 623.5 1468.5Q569.5 1483.0 522.5 1483.0H474.5V1300.0H341.5V1552.0Q341.5 1568.0 309.0 1590.5Q276.5 1613.0 223.0 1630.5Q169.5 1648.0 108.5 1648.0H65.5ZM474.5 411.0H341.5V1243.0H474.5Z" fill="black"></path></svg>