<?xml version="1.0" standalone="no"?>
<!DOCTYPE svg PUBLIC "-//W3C//DTD SVG 1.1//EN" "http://www.w3.org/Graphics/SVG/1.1/DTD/svg11.dtd" >
<svg xmlns="http://www.w3.org/2000/svg" xmlns:svg="http://www.w3.org/2000/svg" xmlns:xlink="http://www.w3.org/1999/xlink" viewBox="0 0 2048 2048" style=""><path d="M549.0 875.0H1071.0L1227.0 668.0Q1227.0 668.0 1255.5 690.5Q1284.0 713.0 1328.0 748.5Q1372.0 784.0 1420.0 824.0Q1468.0 864.0 1507.0 900.0Q1498.0 933.0 1448.0 933.0H565.0ZM1112.0 228.0Q1039.0 349.0 926.0 465.0Q813.0 581.0 673.0 684.5Q533.0 788.0 377.0 871.5Q221.0 955.0 62.0 1010.0L49.0 988.0Q182.0 904.0 309.5 789.0Q437.0 674.0 544.5 544.5Q652.0 415.0 727.0 287.0Q802.0 159.0 830.0 50.0L1251.0 154.0Q1244.0 176.0 1220.5 187.5Q1197.0 199.0 1143.0 203.0Q1212.0 296.0 1312.5 364.0Q1413.0 432.0 1530.0 480.0Q1647.0 528.0 1768.0 561.0Q1889.0 594.0 1999.0 615.0V648.0Q1935.0 667.0 1889.0 712.5Q1843.0 758.0 1815.0 815.5Q1787.0 873.0 1778.0 928.0Q1552.0 819.0 1374.5 649.5Q1197.0 480.0 1112.0 228.0ZM1364.0 1283.0H696.0V1760.0H1364.0ZM383.0 1225.0V1100.0L713.0 1225.0H1342.0L1481.0 1072.0L1765.0 1289.0Q1755.0 1301.0 1734.0 1314.5Q1713.0 1328.0 1679.0 1336.0V1909.0Q1678.0 1917.0 1634.0 1932.5Q1590.0 1948.0 1529.5 1961.5Q1469.0 1975.0 1417.0 1975.0H1364.0V1817.0H696.0V1901.0Q696.0 1916.0 656.0 1938.5Q616.0 1961.0 554.5 1979.5Q493.0 1998.0 428.0 1998.0H383.0Z" fill="black"></path></svg>