<?xml version="1.0" standalone="no"?>
<!DOCTYPE svg PUBLIC "-//W3C//DTD SVG 1.1//EN" "http://www.w3.org/Graphics/SVG/1.1/DTD/svg11.dtd" >
<svg xmlns="http://www.w3.org/2000/svg" xmlns:svg="http://www.w3.org/2000/svg" xmlns:xlink="http://www.w3.org/1999/xlink" viewBox="0 0 2048 2048" style=""><path d="M90.0 559.5H696.0Q710.0 488.5 720.5 414.0Q731.0 339.5 737.0 262.5H295.0L277.0 205.5H1331.0L1460.0 61.5L1729.0 264.5Q1718.0 276.5 1698.5 289.0Q1679.0 301.5 1647.0 309.5V559.5L1776.0 373.5Q1776.0 373.5 1799.5 394.0Q1823.0 414.5 1859.0 447.0Q1895.0 479.5 1934.5 516.0Q1974.0 552.5 2005.0 584.5Q1996.0 616.5 1948.0 616.5H1647.0V1005.5Q1646.0 1014.5 1605.0 1031.0Q1564.0 1047.5 1507.0 1061.5Q1450.0 1075.5 1401.0 1075.5H1352.0V960.5H858.0Q818.0 1029.5 768.0 1093.0Q718.0 1156.5 660.0 1214.5L842.0 1280.5H1417.0L1548.0 1139.5L1817.0 1339.5Q1807.0 1352.5 1788.5 1364.5Q1770.0 1376.5 1739.0 1382.5V1894.5Q1738.0 1902.5 1696.0 1919.0Q1654.0 1935.5 1596.5 1949.0Q1539.0 1962.5 1491.0 1962.5H1438.0V1825.5H813.0V1907.5Q813.0 1920.5 750.5 1953.5Q688.0 1986.5 578.0 1986.5H522.0V1331.5Q427.0 1403.5 311.5 1465.0Q196.0 1526.5 59.0 1575.5L43.0 1556.5Q227.0 1443.5 356.0 1293.5Q485.0 1143.5 569.0 960.5H274.0L256.0 903.5H594.0Q651.0 764.5 684.0 616.5H107.0ZM1438.0 1767.5V1337.5H813.0V1767.5ZM1352.0 262.5H1081.0Q1071.0 340.5 1056.5 414.5Q1042.0 488.5 1024.0 559.5H1352.0ZM1352.0 903.5V616.5H1008.0Q985.0 693.5 956.5 764.5Q928.0 835.5 891.0 903.5Z" fill="black"></path></svg>