<?xml version="1.0" standalone="no"?>
<!DOCTYPE svg PUBLIC "-//W3C//DTD SVG 1.1//EN" "http://www.w3.org/Graphics/SVG/1.1/DTD/svg11.dtd" >
<svg xmlns="http://www.w3.org/2000/svg" xmlns:svg="http://www.w3.org/2000/svg" xmlns:xlink="http://www.w3.org/1999/xlink" viewBox="0 0 2048 2048" style=""><path d="M1387.0 1380.0H682.0V1771.0H1387.0ZM340.0 880.0H1235.0L1366.0 741.0L1624.0 960.0Q1612.0 974.0 1589.5 984.0Q1567.0 994.0 1530.0 999.0Q1492.0 1060.0 1430.0 1151.5Q1368.0 1243.0 1313.0 1323.0H1364.0L1501.0 1171.0L1786.0 1386.0Q1775.0 1398.0 1754.5 1411.5Q1734.0 1425.0 1700.0 1433.0V1914.0Q1698.0 1922.0 1654.0 1937.0Q1610.0 1952.0 1550.0 1965.0Q1490.0 1978.0 1440.0 1978.0H1387.0V1828.0H682.0V1908.0Q682.0 1923.0 642.0 1945.5Q602.0 1968.0 540.5 1986.5Q479.0 2005.0 416.0 2005.0H373.0V1200.0L701.0 1323.0H1016.0L1012.0 1320.0Q1067.0 1231.0 1126.5 1126.5Q1186.0 1022.0 1231.0 938.0H359.0ZM1110.0 223.0Q1035.0 335.0 919.0 443.5Q803.0 552.0 662.0 649.0H1012.0L1151.0 481.0Q1151.0 481.0 1194.0 512.5Q1237.0 544.0 1296.5 588.5Q1356.0 633.0 1405.0 673.0Q1396.0 706.0 1346.0 706.0H670.0L656.0 653.0Q514.0 750.0 358.0 828.0Q202.0 906.0 47.0 958.0L35.0 935.0Q168.0 856.0 297.5 745.5Q427.0 635.0 537.0 512.0Q647.0 389.0 724.5 267.0Q802.0 145.0 832.0 43.0L1249.0 149.0Q1243.0 171.0 1219.5 182.5Q1196.0 194.0 1141.0 198.0Q1212.0 281.0 1315.5 342.5Q1419.0 404.0 1539.5 447.0Q1660.0 490.0 1782.0 519.0Q1904.0 548.0 2013.0 567.0L2011.0 600.0Q1951.0 618.0 1905.5 663.0Q1860.0 708.0 1832.0 765.5Q1804.0 823.0 1796.0 878.0Q1647.0 811.0 1513.0 718.0Q1379.0 625.0 1275.0 502.0Q1171.0 379.0 1110.0 223.0Z" fill="black"></path></svg>