<?xml version="1.0" standalone="no"?>
<!DOCTYPE svg PUBLIC "-//W3C//DTD SVG 1.1//EN" "http://www.w3.org/Graphics/SVG/1.1/DTD/svg11.dtd" >
<svg xmlns="http://www.w3.org/2000/svg" xmlns:svg="http://www.w3.org/2000/svg" xmlns:xlink="http://www.w3.org/1999/xlink" viewBox="0 0 2048 2048" style=""><path d="M1528.0 1688.0V303.0H434.0V1688.0ZM434.0 1847.0Q434.0 1866.0 399.0 1891.0Q364.0 1916.0 308.5 1935.0Q253.0 1954.0 190.0 1954.0H143.0V123.0L457.0 246.0H1507.0L1643.0 94.0L1905.0 305.0Q1894.0 319.0 1874.5 331.0Q1855.0 343.0 1825.0 350.0V1853.0Q1823.0 1865.0 1783.0 1886.0Q1743.0 1907.0 1686.0 1924.5Q1629.0 1942.0 1575.0 1942.0H1528.0V1745.0H434.0ZM1118.0 1227.0V696.0H879.0V1227.0ZM879.0 1403.0Q879.0 1415.0 846.0 1435.0Q813.0 1455.0 762.5 1471.0Q712.0 1487.0 657.0 1487.0H619.0V532.0L887.0 639.0H1098.0L1217.0 512.0L1458.0 694.0Q1449.0 705.0 1430.5 716.0Q1412.0 727.0 1384.0 733.0V1368.0Q1383.0 1376.0 1347.0 1393.5Q1311.0 1411.0 1260.0 1425.5Q1209.0 1440.0 1163.0 1440.0H1118.0V1284.0H879.0Z" fill="black"></path></svg>