<?xml version="1.0" standalone="no"?>
<!DOCTYPE svg PUBLIC "-//W3C//DTD SVG 1.1//EN" "http://www.w3.org/Graphics/SVG/1.1/DTD/svg11.dtd" >
<svg xmlns="http://www.w3.org/2000/svg" xmlns:svg="http://www.w3.org/2000/svg" xmlns:xlink="http://www.w3.org/1999/xlink" viewBox="0 0 2048 2048" style=""><path d="M180.0 862.5H850.0V106.5L1243.0 141.5Q1240.0 165.5 1225.0 181.0Q1210.0 196.5 1167.0 202.5V862.5H1419.0L1585.0 651.5Q1585.0 651.5 1615.5 674.0Q1646.0 696.5 1692.5 732.5Q1739.0 768.5 1790.0 809.5Q1841.0 850.5 1882.0 886.5Q1879.0 903.5 1862.5 911.5Q1846.0 919.5 1823.0 919.5H1167.0V1884.5H1518.0L1690.0 1664.5Q1690.0 1664.5 1721.0 1688.5Q1752.0 1712.5 1800.5 1750.0Q1849.0 1787.5 1902.0 1829.5Q1955.0 1871.5 1999.0 1908.5Q1990.0 1941.5 1937.0 1941.5H66.0L49.0 1884.5H850.0V919.5H197.0Z" fill="black"></path></svg>