<?xml version="1.0" standalone="no"?>
<!DOCTYPE svg PUBLIC "-//W3C//DTD SVG 1.1//EN" "http://www.w3.org/Graphics/SVG/1.1/DTD/svg11.dtd" >
<svg xmlns="http://www.w3.org/2000/svg" xmlns:svg="http://www.w3.org/2000/svg" xmlns:xlink="http://www.w3.org/1999/xlink" viewBox="0 0 2048 2048" style=""><path d="M1581.0 567.0 1599.0 561.0 1739.0 428.0 1976.0 627.0Q1965.0 639.0 1946.0 649.0Q1927.0 659.0 1896.0 664.0Q1894.0 869.0 1889.0 1001.0Q1884.0 1133.0 1872.0 1212.0Q1860.0 1291.0 1838.0 1335.0Q1816.0 1379.0 1780.0 1407.0Q1693.0 1479.0 1544.0 1479.0Q1544.0 1414.0 1540.5 1367.0Q1537.0 1320.0 1524.0 1294.0Q1513.0 1276.0 1502.0 1262.0Q1491.0 1248.0 1472.0 1237.0V1503.0Q1472.0 1516.0 1438.0 1535.0Q1404.0 1554.0 1352.5 1569.5Q1301.0 1585.0 1249.0 1585.0H1200.0V764.0L1071.0 811.0V1604.0Q1071.0 1648.0 1099.0 1664.5Q1127.0 1681.0 1198.0 1681.0H1460.0Q1522.0 1681.0 1574.5 1679.5Q1627.0 1678.0 1659.0 1675.0Q1712.0 1672.0 1743.0 1645.0Q1792.0 1578.0 1870.0 1374.0H1890.0L1898.0 1651.0Q1964.0 1675.0 1989.5 1703.0Q2015.0 1731.0 2015.0 1769.0Q2015.0 1837.0 1966.0 1878.0Q1917.0 1919.0 1791.0 1937.5Q1665.0 1956.0 1434.0 1956.0H1165.0Q1029.0 1956.0 946.0 1935.5Q863.0 1915.0 825.5 1856.5Q788.0 1798.0 788.0 1683.0V911.0L614.0 973.0L577.0 926.0L788.0 850.0V786.0L768.0 788.0H539.0V1372.0Q597.0 1354.0 656.0 1334.0Q715.0 1314.0 772.0 1292.0L778.0 1309.0Q694.0 1395.0 559.0 1514.0Q424.0 1633.0 227.0 1778.0Q214.0 1825.0 172.0 1841.0L33.0 1516.0Q73.0 1506.0 132.0 1491.0Q191.0 1476.0 262.0 1456.0V788.0H84.0L67.0 731.0H262.0V133.0L614.0 164.0Q611.0 185.0 596.5 200.5Q582.0 216.0 539.0 223.0V700.0L633.0 530.0Q633.0 530.0 658.0 558.5Q683.0 587.0 719.5 629.5Q756.0 672.0 788.0 713.0V264.0L1145.0 301.0Q1142.0 321.0 1125.5 336.5Q1109.0 352.0 1071.0 358.0V750.0L1200.0 702.0V92.0L1546.0 125.0Q1543.0 146.0 1528.5 161.0Q1514.0 176.0 1472.0 182.0V606.0ZM1472.0 668.0V1196.0H1530.0Q1560.0 1196.0 1577.0 1180.0Q1592.0 1164.0 1600.5 1106.5Q1609.0 1049.0 1613.5 930.5Q1618.0 812.0 1620.0 614.0Z" fill="black"></path></svg>