<?xml version="1.0" standalone="no"?>
<!DOCTYPE svg PUBLIC "-//W3C//DTD SVG 1.1//EN" "http://www.w3.org/Graphics/SVG/1.1/DTD/svg11.dtd" >
<svg xmlns="http://www.w3.org/2000/svg" xmlns:svg="http://www.w3.org/2000/svg" xmlns:xlink="http://www.w3.org/1999/xlink" viewBox="0 0 2048 2048" style=""><path d="M853.0 689.5H687.0V1064.5H853.0ZM1156.0 689.5V1064.5H1324.0V689.5ZM1545.0 99.5 1808.0 365.5Q1788.0 381.5 1750.5 381.5Q1713.0 381.5 1658.0 359.5Q1551.0 375.5 1423.5 387.5Q1296.0 399.5 1156.0 406.5V632.5H1574.0L1709.0 445.5Q1709.0 445.5 1734.0 466.5Q1759.0 487.5 1797.5 520.0Q1836.0 552.5 1877.5 589.0Q1919.0 625.5 1953.0 656.5Q1944.0 689.5 1896.0 689.5H1621.0V1043.5L1750.0 867.5Q1750.0 867.5 1776.5 889.0Q1803.0 910.5 1843.0 945.0Q1883.0 979.5 1927.0 1017.5Q1971.0 1055.5 2006.0 1088.5Q1997.0 1121.5 1949.0 1121.5H1621.0V1508.5L1746.0 1334.5Q1746.0 1334.5 1770.0 1354.5Q1794.0 1374.5 1830.5 1406.5Q1867.0 1438.5 1907.0 1474.0Q1947.0 1509.5 1980.0 1541.5Q1974.0 1574.5 1924.0 1574.5H1156.0V1891.5H1515.0L1683.0 1676.5Q1683.0 1676.5 1713.5 1700.0Q1744.0 1723.5 1792.0 1760.5Q1840.0 1797.5 1892.0 1839.0Q1944.0 1880.5 1986.0 1916.5Q1977.0 1948.5 1924.0 1948.5H63.0L46.0 1891.5H853.0V1574.5H161.0L145.0 1516.5H397.0V1121.5H59.0L42.0 1064.5H397.0V689.5H169.0L153.0 632.5H853.0V423.5Q683.0 427.5 511.0 428.5Q339.0 429.5 177.0 423.5L175.0 392.5Q350.0 372.5 542.0 340.5Q734.0 308.5 921.0 268.5Q1108.0 228.5 1269.5 185.0Q1431.0 141.5 1545.0 99.5ZM853.0 1516.5V1121.5H687.0V1516.5ZM1156.0 1516.5H1324.0V1121.5H1156.0Z" fill="black"></path></svg>