<?xml version="1.0" standalone="no"?>
<!DOCTYPE svg PUBLIC "-//W3C//DTD SVG 1.1//EN" "http://www.w3.org/Graphics/SVG/1.1/DTD/svg11.dtd" >
<svg xmlns="http://www.w3.org/2000/svg" xmlns:svg="http://www.w3.org/2000/svg" xmlns:xlink="http://www.w3.org/1999/xlink" viewBox="0 0 2048 2048" style=""><path d="M401.0 1305.0Q452.0 1301.0 541.0 1290.5Q630.0 1280.0 741.5 1264.5Q853.0 1249.0 969.0 1232.0L971.0 1252.0Q912.0 1301.0 817.0 1371.5Q722.0 1442.0 586.0 1533.0Q570.0 1576.0 530.0 1586.0ZM461.0 757.0V677.0L657.0 757.0H715.0L801.0 669.0L952.0 781.0L940.0 617.0H422.0L405.0 560.0H938.0Q932.0 428.0 932.0 292.0L1241.0 343.0Q1238.0 361.0 1221.5 376.0Q1205.0 391.0 1169.0 394.0V560.0H1272.0L1335.0 476.0Q1321.0 425.0 1293.0 377.0Q1265.0 329.0 1237.0 298.0L1255.0 286.0Q1370.0 288.0 1431.5 315.0Q1493.0 342.0 1513.0 379.5Q1533.0 417.0 1521.5 453.0Q1510.0 489.0 1477.0 509.0L1563.0 585.0Q1554.0 617.0 1507.0 617.0H1171.0Q1174.0 714.0 1182.5 807.0Q1191.0 900.0 1208.0 986.0Q1239.0 912.0 1263.5 833.5Q1288.0 755.0 1305.0 671.0L1589.0 791.0V257.0H371.0V1762.0H1589.0V812.0Q1571.0 837.0 1518.0 830.0Q1430.0 1075.0 1296.0 1252.0Q1331.0 1322.0 1376.0 1373.0Q1392.0 1393.0 1401.5 1391.5Q1411.0 1390.0 1423.0 1369.0Q1443.0 1335.0 1469.5 1276.0Q1496.0 1217.0 1518.0 1162.0L1538.0 1168.0L1503.0 1455.0Q1546.0 1536.0 1554.5 1584.0Q1563.0 1632.0 1538.0 1658.0Q1494.0 1701.0 1436.5 1696.5Q1379.0 1692.0 1326.0 1661.0Q1273.0 1630.0 1241.0 1594.0Q1178.0 1519.0 1128.0 1432.0Q1027.0 1523.0 907.0 1590.0Q787.0 1657.0 649.0 1705.0L631.0 1682.0Q751.0 1607.0 859.0 1504.5Q967.0 1402.0 1055.0 1273.0Q1016.0 1168.0 992.5 1054.5Q969.0 941.0 956.0 820.0Q942.0 827.0 924.0 830.0V1127.0Q924.0 1135.0 897.5 1150.0Q871.0 1165.0 833.5 1177.0Q796.0 1189.0 762.0 1189.0H729.0V1129.0H649.0V1166.0Q649.0 1173.0 625.0 1187.0Q601.0 1201.0 563.5 1212.5Q526.0 1224.0 487.0 1224.0H461.0ZM649.0 1072.0H729.0V814.0H649.0ZM98.0 200.0V83.0L393.0 200.0H1569.0L1698.0 56.0L1950.0 257.0Q1926.0 287.0 1868.0 302.0V1895.0Q1866.0 1906.0 1829.0 1926.5Q1792.0 1947.0 1738.0 1964.0Q1684.0 1981.0 1632.0 1981.0H1589.0V1820.0H371.0V1889.0Q371.0 1907.0 338.5 1931.0Q306.0 1955.0 254.0 1973.5Q202.0 1992.0 143.0 1992.0H98.0Z" fill="black"></path></svg>