<?xml version="1.0" standalone="no"?>
<!DOCTYPE svg PUBLIC "-//W3C//DTD SVG 1.1//EN" "http://www.w3.org/Graphics/SVG/1.1/DTD/svg11.dtd" >
<svg xmlns="http://www.w3.org/2000/svg" xmlns:svg="http://www.w3.org/2000/svg" xmlns:xlink="http://www.w3.org/1999/xlink" viewBox="0 0 2048 2048" style=""><path d="M955.5 909.0V913.0Q955.5 1029.0 944.0 1158.0Q932.5 1287.0 888.5 1417.0L996.5 1421.0Q1017.5 1421.0 1027.5 1409.0Q1049.5 1381.0 1058.5 1264.0Q1067.5 1147.0 1070.5 909.0ZM955.5 852.0H1052.5L1177.5 731.0L1359.5 881.0Q1351.5 799.0 1345.5 714.5Q1339.5 630.0 1336.5 543.0H955.5ZM1697.5 717.0 2008.5 823.0Q2000.5 843.0 1982.5 852.5Q1964.5 862.0 1924.5 860.0Q1878.5 997.0 1825.5 1115.5Q1772.5 1234.0 1709.5 1337.0Q1753.5 1458.0 1818.5 1552.0Q1833.5 1579.0 1844.5 1577.5Q1855.5 1576.0 1871.5 1550.0Q1894.5 1510.0 1927.5 1441.5Q1960.5 1373.0 1988.5 1307.0L2008.5 1311.0L1959.5 1677.0Q2002.5 1789.0 2011.0 1858.0Q2019.5 1927.0 1983.5 1950.0Q1935.5 1980.0 1883.0 1975.5Q1830.5 1971.0 1781.0 1944.0Q1731.5 1917.0 1691.5 1879.0Q1651.5 1841.0 1629.5 1804.0Q1566.5 1697.0 1521.5 1585.0Q1303.5 1818.0 968.5 1958.0L951.5 1929.0Q1109.5 1822.0 1234.0 1690.0Q1358.5 1558.0 1453.5 1391.0Q1421.5 1283.0 1400.5 1168.5Q1379.5 1054.0 1365.5 936.0Q1356.5 941.0 1344.5 945.0Q1332.5 949.0 1318.5 950.0Q1314.5 1154.0 1305.0 1286.0Q1295.5 1418.0 1272.5 1494.0Q1249.5 1570.0 1205.5 1606.0Q1165.5 1636.0 1115.0 1647.5Q1064.5 1659.0 1002.5 1661.0Q1002.5 1621.0 997.0 1583.0Q991.5 1545.0 976.5 1522.0Q962.5 1500.0 938.0 1480.0Q913.5 1460.0 878.5 1446.0Q824.5 1595.0 713.0 1732.5Q601.5 1870.0 402.5 1974.0L386.5 1958.0Q527.5 1798.0 590.5 1613.0Q653.5 1428.0 673.5 1239.0Q594.5 1310.0 483.0 1401.5Q371.5 1493.0 222.5 1602.0Q208.5 1650.0 165.5 1663.0L28.5 1335.0L234.5 1286.0V678.0H75.5L58.5 621.0H234.5V74.0L587.5 104.0Q584.5 126.0 569.5 141.0Q554.5 156.0 511.5 162.0V573.0L589.5 432.0L687.5 545.0V379.0L996.5 485.0H1334.5Q1328.5 283.0 1328.5 68.0L1670.5 102.0Q1670.5 118.0 1658.5 133.0Q1798.5 132.0 1867.5 165.5Q1936.5 199.0 1951.5 247.0Q1966.5 295.0 1941.0 337.5Q1915.5 380.0 1865.5 395.0Q1898.5 421.0 1936.0 451.5Q1973.5 482.0 2004.5 510.0Q1995.5 543.0 1947.5 543.0H1594.5Q1596.5 656.0 1603.5 767.5Q1610.5 879.0 1625.5 983.0Q1645.5 922.0 1663.5 855.0Q1681.5 788.0 1697.5 717.0ZM1730.5 375.0 1725.5 373.0Q1715.5 314.0 1685.0 254.5Q1654.5 195.0 1623.5 154.0L1596.5 160.0Q1595.5 240.0 1594.0 322.0Q1592.5 404.0 1592.5 485.0H1643.5ZM511.5 678.0V1215.0L679.5 1167.0Q683.5 1103.0 685.5 1039.5Q687.5 976.0 687.5 913.0V678.0Z" fill="black"></path></svg>