<?xml version="1.0" standalone="no"?>
<!DOCTYPE svg PUBLIC "-//W3C//DTD SVG 1.1//EN" "http://www.w3.org/Graphics/SVG/1.1/DTD/svg11.dtd" >
<svg xmlns="http://www.w3.org/2000/svg" xmlns:svg="http://www.w3.org/2000/svg" xmlns:xlink="http://www.w3.org/1999/xlink" viewBox="0 0 2048 2048" style=""><path d="M1682.0 278.5Q1682.0 278.5 1712.5 301.5Q1743.0 324.5 1789.5 361.0Q1836.0 397.5 1887.5 438.0Q1939.0 478.5 1981.0 514.5Q1972.0 546.5 1922.0 546.5H937.0Q881.0 652.5 813.0 757.5Q745.0 862.5 662.0 960.5L742.0 989.5Q730.0 1018.5 677.0 1030.5V1919.5Q675.0 1929.5 638.5 1948.0Q602.0 1966.5 546.5 1981.5Q491.0 1996.5 433.0 1996.5H376.0V1237.5Q234.0 1347.5 62.0 1433.5L46.0 1415.5Q241.0 1241.5 379.5 1012.5Q518.0 783.5 609.0 546.5H111.0L95.0 489.5H630.0Q671.0 374.5 700.5 263.5Q730.0 152.5 750.0 51.5L1164.0 155.5Q1160.0 174.5 1143.0 187.0Q1126.0 199.5 1086.0 202.5Q1062.0 271.5 1031.5 344.5Q1001.0 417.5 965.0 489.5H1516.0ZM1613.0 936.5Q1613.0 936.5 1639.5 956.5Q1666.0 976.5 1707.0 1008.5Q1748.0 1040.5 1793.0 1076.5Q1838.0 1112.5 1875.0 1144.5Q1872.0 1161.5 1855.5 1169.5Q1839.0 1177.5 1817.0 1177.5H1412.0V1806.5H1559.0L1717.0 1607.5Q1717.0 1607.5 1745.5 1629.5Q1774.0 1651.5 1818.5 1685.5Q1863.0 1719.5 1912.0 1758.5Q1961.0 1797.5 2002.0 1831.5Q1993.0 1863.5 1940.0 1863.5H709.0L693.0 1806.5H1111.0V1177.5H761.0L744.0 1120.5H1111.0V634.5L1477.0 665.5Q1476.0 685.5 1462.5 699.0Q1449.0 712.5 1412.0 718.5V1120.5H1467.0Z" fill="black"></path></svg>