<?xml version="1.0" standalone="no"?>
<!DOCTYPE svg PUBLIC "-//W3C//DTD SVG 1.1//EN" "http://www.w3.org/Graphics/SVG/1.1/DTD/svg11.dtd" >
<svg xmlns="http://www.w3.org/2000/svg" xmlns:svg="http://www.w3.org/2000/svg" xmlns:xlink="http://www.w3.org/1999/xlink" viewBox="0 0 2048 2048" style=""><path d="M1180.5 1167.0H1104.5V1308.0Q1148.5 1310.0 1190.0 1315.5Q1231.5 1321.0 1268.5 1329.0Q1285.5 1301.0 1303.0 1263.0Q1320.5 1225.0 1337.5 1188.0Q1310.5 1195.0 1280.0 1200.5Q1249.5 1206.0 1223.5 1206.0H1180.5ZM1104.5 1110.0H1180.5V917.0H776.5V1110.0ZM541.5 860.0V766.0L786.5 860.0H1163.5L1266.5 756.0L1477.5 909.0Q1462.5 931.0 1421.5 940.0V1149.0L1417.5 1153.0L1565.5 1274.0Q1557.5 1284.0 1542.0 1287.5Q1526.5 1291.0 1495.5 1282.0Q1464.5 1296.0 1415.5 1313.0Q1366.5 1330.0 1323.5 1345.0Q1430.5 1380.0 1485.5 1450.0Q1519.5 1495.0 1512.0 1541.0Q1504.5 1587.0 1471.5 1616.0Q1438.5 1645.0 1394.0 1641.0Q1349.5 1637.0 1309.5 1583.0Q1286.5 1526.0 1231.5 1454.0Q1176.5 1382.0 1104.5 1333.0V1681.0Q1104.5 1692.0 1049.0 1720.5Q993.5 1749.0 893.5 1749.0H846.5V1417.0Q758.5 1485.0 653.0 1539.5Q547.5 1594.0 430.5 1638.0L414.5 1612.0Q535.5 1526.0 630.0 1409.0Q724.5 1292.0 784.5 1167.0H766.5Q752.5 1184.0 694.0 1205.5Q635.5 1227.0 573.5 1227.0H541.5ZM397.5 680.0H844.5V534.0H500.5L483.5 477.0H844.5V295.0L1161.5 321.0Q1160.5 338.0 1148.5 350.0Q1136.5 362.0 1104.5 368.0V477.0H1196.5L1307.5 344.0Q1307.5 344.0 1341.5 369.5Q1375.5 395.0 1423.0 431.5Q1470.5 468.0 1509.5 502.0Q1503.5 534.0 1456.5 534.0H1104.5V680.0H1245.5L1360.5 538.0Q1360.5 538.0 1396.5 565.0Q1432.5 592.0 1482.5 631.0Q1532.5 670.0 1573.5 704.0Q1564.5 737.0 1517.5 737.0H414.5ZM104.5 196.0V78.0L403.5 196.0H1560.5L1692.5 51.0L1943.5 254.0Q1920.5 284.0 1862.5 299.0V1884.0Q1859.5 1894.0 1822.5 1915.0Q1785.5 1936.0 1731.5 1953.0Q1677.5 1970.0 1626.5 1970.0H1581.5V1853.0H381.5V1892.0Q381.5 1911.0 349.0 1935.5Q316.5 1960.0 264.0 1978.5Q211.5 1997.0 151.5 1997.0H104.5ZM1581.5 1796.0V254.0H381.5V1796.0Z" fill="black"></path></svg>