<?xml version="1.0" standalone="no"?>
<!DOCTYPE svg PUBLIC "-//W3C//DTD SVG 1.1//EN" "http://www.w3.org/Graphics/SVG/1.1/DTD/svg11.dtd" >
<svg xmlns="http://www.w3.org/2000/svg" xmlns:svg="http://www.w3.org/2000/svg" xmlns:xlink="http://www.w3.org/1999/xlink" viewBox="0 0 2048 2048" style=""><path d="M30.0 1403.0Q70.0 1395.0 132.5 1380.5Q195.0 1366.0 273.0 1347.0V737.0H79.0L62.0 680.0H273.0V86.0L636.0 117.0Q633.0 138.0 618.0 153.0Q603.0 168.0 560.0 176.0V653.0L656.0 479.0Q656.0 479.0 676.5 501.5Q697.0 524.0 727.5 559.5Q758.0 595.0 790.0 633.5Q822.0 672.0 845.0 704.0Q842.0 721.0 826.5 729.0Q811.0 737.0 792.0 737.0H560.0V1274.0L781.0 1214.0L785.0 1233.0L740.0 1274.0H1140.0Q1147.0 1200.0 1148.5 1120.0Q1150.0 1040.0 1152.0 954.0H1050.0Q976.0 1029.0 895.0 1087.0Q814.0 1145.0 728.0 1188.0L708.0 1171.0Q761.0 1087.0 813.5 966.0Q866.0 845.0 904.0 713.0L890.0 717.0L761.0 420.0L1019.0 422.0Q1043.0 328.0 1067.5 228.0Q1092.0 128.0 1109.0 51.0L1488.0 135.0Q1483.0 153.0 1465.0 166.0Q1447.0 179.0 1410.0 180.0Q1362.0 229.0 1293.0 293.0Q1224.0 357.0 1150.0 422.0L1623.0 416.0Q1592.0 373.0 1558.0 335.0Q1524.0 297.0 1492.0 266.0L1506.0 254.0Q1672.0 262.0 1772.5 303.0Q1873.0 344.0 1919.5 401.0Q1966.0 458.0 1968.5 515.5Q1971.0 573.0 1940.5 615.0Q1910.0 657.0 1856.5 667.5Q1803.0 678.0 1738.0 641.0Q1715.0 563.0 1670.0 491.0Q1556.0 524.0 1407.0 562.5Q1258.0 601.0 1066.0 647.0L1283.0 729.0Q1266.0 771.0 1199.0 768.0Q1153.0 839.0 1101.0 897.0H1564.0L1711.0 692.0Q1711.0 692.0 1738.0 714.5Q1765.0 737.0 1807.0 772.5Q1849.0 808.0 1894.0 847.5Q1939.0 887.0 1975.0 921.0Q1966.0 954.0 1916.0 954.0H1447.0Q1444.0 1042.0 1438.5 1121.0Q1433.0 1200.0 1422.0 1274.0H1586.0L1742.0 1048.0Q1742.0 1048.0 1770.5 1073.0Q1799.0 1098.0 1842.5 1136.5Q1886.0 1175.0 1933.5 1218.0Q1981.0 1261.0 2018.0 1298.0Q2009.0 1331.0 1959.0 1331.0H1469.0Q1542.0 1477.0 1691.0 1568.5Q1840.0 1660.0 2018.0 1689.0L2016.0 1712.0Q1851.0 1763.0 1807.0 1997.0Q1697.0 1930.0 1625.0 1839.5Q1553.0 1749.0 1509.0 1624.5Q1465.0 1500.0 1439.0 1331.0H1412.0Q1387.0 1447.0 1332.0 1545.5Q1277.0 1644.0 1176.0 1726.5Q1075.0 1809.0 913.5 1876.5Q752.0 1944.0 513.0 1997.0L497.0 1968.0Q724.0 1883.0 855.0 1786.0Q986.0 1689.0 1048.0 1576.0Q1110.0 1463.0 1131.0 1331.0H736.0L724.0 1288.0Q643.0 1360.0 521.5 1456.0Q400.0 1552.0 232.0 1669.0Q226.0 1689.0 211.5 1705.5Q197.0 1722.0 177.0 1728.0Z" fill="black"></path></svg>