<?xml version="1.0" standalone="no"?>
<!DOCTYPE svg PUBLIC "-//W3C//DTD SVG 1.1//EN" "http://www.w3.org/Graphics/SVG/1.1/DTD/svg11.dtd" >
<svg xmlns="http://www.w3.org/2000/svg" xmlns:svg="http://www.w3.org/2000/svg" xmlns:xlink="http://www.w3.org/1999/xlink" viewBox="0 0 2048 2048" style=""><path d="M507.5 1608.5H981.5V1408.5L1271.5 1430.5Q1244.5 1409.5 1234.5 1372.5Q1224.5 1335.5 1222.5 1279.5Q1128.5 1320.5 992.0 1377.0Q855.5 1433.5 661.5 1504.5Q643.5 1544.5 604.5 1551.5L491.5 1305.5Q471.5 1430.5 425.5 1554.0Q379.5 1677.5 297.0 1790.0Q214.5 1902.5 83.5 1995.5L63.5 1983.5Q149.5 1820.5 187.5 1634.0Q225.5 1447.5 234.5 1253.5Q243.5 1059.5 243.5 875.5V212.5L561.5 320.5H927.5V52.5L1277.5 78.5Q1276.5 98.5 1262.0 113.5Q1247.5 128.5 1204.5 136.5V320.5H1591.5L1726.5 136.5Q1726.5 136.5 1751.0 157.0Q1775.5 177.5 1813.5 209.5Q1851.5 241.5 1893.0 277.5Q1934.5 313.5 1968.5 345.5Q1959.5 377.5 1910.5 377.5H1417.5V537.5H1579.5L1697.5 408.5L1947.5 594.5Q1938.5 607.5 1918.5 620.0Q1898.5 632.5 1865.5 640.5V850.5Q1864.5 860.5 1814.5 881.0Q1764.5 901.5 1706.5 912.5L1912.5 1070.5Q1902.5 1083.5 1885.5 1088.5Q1868.5 1093.5 1835.5 1084.5Q1765.5 1099.5 1672.5 1112.5Q1579.5 1125.5 1488.5 1133.5V1221.5Q1488.5 1238.5 1495.5 1245.5Q1502.5 1252.5 1531.5 1252.5H1642.5Q1667.5 1252.5 1692.0 1252.5Q1716.5 1252.5 1730.5 1252.5Q1745.5 1250.5 1759.5 1248.0Q1773.5 1245.5 1783.5 1238.5Q1797.5 1224.5 1819.0 1193.0Q1840.5 1161.5 1861.5 1117.5H1882.5L1890.5 1238.5Q1939.5 1259.5 1956.0 1282.0Q1972.5 1304.5 1972.5 1336.5Q1972.5 1411.5 1894.0 1439.5Q1815.5 1467.5 1619.5 1467.5Q1636.5 1479.5 1673.5 1507.5Q1710.5 1535.5 1753.5 1569.5Q1796.5 1603.5 1830.5 1633.5Q1824.5 1666.5 1775.5 1666.5H1257.5V1887.5H1642.5L1763.5 1737.5Q1763.5 1737.5 1801.0 1766.0Q1838.5 1794.5 1890.5 1835.5Q1942.5 1876.5 1984.5 1911.5Q1975.5 1944.5 1927.5 1944.5H360.5L344.5 1887.5H981.5V1666.5H524.5ZM520.5 377.5V537.5H704.5V377.5ZM960.5 377.5V537.5H1157.5V377.5ZM520.5 594.5V795.5H704.5V594.5ZM630.5 861.5 954.5 887.5Q951.5 903.5 940.5 916.0Q929.5 928.5 897.5 932.5V1068.5H942.5L1046.5 928.5Q1046.5 928.5 1075.5 952.5Q1104.5 976.5 1145.5 1011.0Q1186.5 1045.5 1222.5 1078.5V863.5L1550.5 887.5Q1544.5 930.5 1488.5 939.5V1057.5Q1536.5 1022.5 1582.0 986.0Q1627.5 949.5 1660.5 918.5H1646.5H1599.5V853.5H520.5V873.5Q520.5 970.5 516.5 1075.0Q512.5 1179.5 495.5 1287.5L630.5 1281.5ZM1599.5 594.5H1417.5V795.5H1599.5ZM960.5 594.5V795.5H1157.5V594.5ZM1222.5 1246.5V1113.5Q1210.5 1125.5 1185.5 1125.5H897.5V1266.5ZM1316.5 1453.5Q1306.5 1479.5 1257.5 1487.5V1608.5H1488.5L1603.5 1467.5H1454.5Q1362.5 1467.5 1316.5 1453.5Z" fill="black"></path></svg>