<?xml version="1.0" standalone="no"?>
<!DOCTYPE svg PUBLIC "-//W3C//DTD SVG 1.1//EN" "http://www.w3.org/Graphics/SVG/1.1/DTD/svg11.dtd" >
<svg xmlns="http://www.w3.org/2000/svg" xmlns:svg="http://www.w3.org/2000/svg" xmlns:xlink="http://www.w3.org/1999/xlink" viewBox="0 0 2048 2048" style=""><path d="M397.0 311.0V516.0H499.0V311.0ZM141.0 254.0V148.0L425.0 254.0H741.0L868.0 90.0Q868.0 90.0 907.0 121.0Q946.0 152.0 1000.0 196.0Q1054.0 240.0 1097.0 279.0Q1088.0 311.0 1040.0 311.0H751.0V516.0H786.0L896.0 401.0L1122.0 569.0Q1114.0 579.0 1098.0 588.5Q1082.0 598.0 1056.0 604.0V862.0Q1056.0 872.0 1022.0 888.0Q988.0 904.0 939.5 917.0Q891.0 930.0 849.0 930.0H804.0V885.0H751.0V1153.0H769.0L894.0 989.0Q894.0 989.0 926.5 1015.0Q959.0 1041.0 1005.0 1079.0Q1051.0 1117.0 1093.0 1155.0Q1168.0 1098.0 1231.5 1032.5Q1295.0 967.0 1347.0 895.0Q1289.0 783.0 1247.5 640.0Q1206.0 497.0 1181.0 311.0H1120.0L1101.0 254.0H1576.0L1722.0 109.0L1969.0 322.0Q1953.0 348.0 1890.0 356.0Q1847.0 501.0 1781.5 631.0Q1716.0 761.0 1617.0 875.0Q1706.0 931.0 1805.0 975.0Q1904.0 1019.0 2010.0 1053.0L2008.0 1075.0Q1825.0 1110.0 1759.0 1321.0Q1662.0 1261.0 1583.0 1193.0Q1504.0 1125.0 1439.0 1040.0Q1341.0 1116.0 1220.0 1176.0Q1099.0 1236.0 950.0 1280.0L935.0 1256.0L1011.0 1210.0H397.0V1288.0Q397.0 1301.0 341.5 1331.5Q286.0 1362.0 188.0 1362.0H141.0ZM397.0 1153.0H499.0V885.0H397.0ZM1591.0 311.0H1216.0Q1251.0 445.0 1310.5 548.5Q1370.0 652.0 1447.0 733.0Q1498.0 635.0 1533.0 529.5Q1568.0 424.0 1591.0 311.0ZM804.0 574.0H397.0V827.0H804.0ZM38.0 1901.0H857.0V1583.0H263.0L247.0 1526.0H857.0V1280.0L1232.0 1309.0Q1229.0 1330.0 1215.0 1345.0Q1201.0 1360.0 1158.0 1368.0V1526.0H1400.0L1543.0 1342.0Q1543.0 1342.0 1569.0 1362.0Q1595.0 1382.0 1635.5 1414.5Q1676.0 1447.0 1719.5 1483.0Q1763.0 1519.0 1799.0 1550.0Q1791.0 1583.0 1742.0 1583.0H1158.0V1901.0H1574.0L1720.0 1712.0Q1720.0 1712.0 1746.5 1733.0Q1773.0 1754.0 1814.5 1786.5Q1856.0 1819.0 1901.5 1856.0Q1947.0 1893.0 1984.0 1925.0Q1975.0 1958.0 1924.0 1958.0H55.0Z" fill="black"></path></svg>