<?xml version="1.0" standalone="no"?>
<!DOCTYPE svg PUBLIC "-//W3C//DTD SVG 1.1//EN" "http://www.w3.org/Graphics/SVG/1.1/DTD/svg11.dtd" >
<svg xmlns="http://www.w3.org/2000/svg" xmlns:svg="http://www.w3.org/2000/svg" xmlns:xlink="http://www.w3.org/1999/xlink" viewBox="0 0 2048 2048" style=""><path d="M387.0 136.5Q539.0 152.5 625.0 195.5Q711.0 238.5 743.5 293.5Q776.0 348.5 767.0 400.0Q758.0 451.5 720.0 486.0Q682.0 520.5 625.5 523.0Q569.0 525.5 508.0 480.5Q499.0 389.5 458.0 300.5Q417.0 211.5 371.0 146.5ZM1342.0 132.5 1747.0 230.5Q1734.0 273.5 1669.0 273.5Q1600.0 330.5 1495.5 402.5Q1391.0 474.5 1289.0 531.5H1583.0L1737.0 380.5L1999.0 625.5Q1985.0 639.5 1968.0 645.0Q1951.0 650.5 1917.0 652.5Q1859.0 687.5 1775.5 727.5Q1692.0 767.5 1612.0 797.5L1678.0 847.5Q1670.0 857.5 1652.5 869.5Q1635.0 881.5 1606.0 885.5V1238.5Q1605.0 1245.5 1565.0 1260.0Q1525.0 1274.5 1470.5 1287.0Q1416.0 1299.5 1370.0 1299.5H1319.0V1223.5H1162.0V1508.5H1387.0L1528.0 1318.5Q1528.0 1318.5 1554.0 1339.5Q1580.0 1360.5 1620.5 1393.5Q1661.0 1426.5 1705.0 1463.5Q1749.0 1500.5 1784.0 1533.5Q1775.0 1565.5 1727.0 1565.5H1162.0V1897.5H1575.0L1719.0 1705.5Q1719.0 1705.5 1745.0 1726.5Q1771.0 1747.5 1811.5 1780.5Q1852.0 1813.5 1895.5 1851.5Q1939.0 1889.5 1975.0 1922.5Q1966.0 1954.5 1917.0 1954.5H113.0L97.0 1897.5H871.0V1565.5H308.0L291.0 1508.5H871.0V1223.5H719.0V1254.5Q719.0 1266.5 682.5 1286.5Q646.0 1306.5 591.0 1322.5Q536.0 1338.5 480.0 1338.5H441.0V679.5L731.0 789.5H1299.0L1422.0 656.5L1555.0 754.5Q1566.0 716.5 1577.0 672.5Q1588.0 628.5 1596.0 588.5H392.0Q408.0 701.5 373.0 778.0Q338.0 854.5 277.0 881.5Q214.0 911.5 150.0 885.5Q86.0 859.5 66.0 787.5Q49.0 716.5 86.0 669.5Q123.0 622.5 183.0 599.5Q229.0 573.5 267.0 512.5Q305.0 451.5 293.0 375.5L318.0 373.5Q341.0 415.5 356.5 455.0Q372.0 494.5 381.0 531.5H863.0V93.5L1235.0 122.5Q1234.0 140.5 1221.0 154.0Q1208.0 167.5 1170.0 175.5V531.5H1248.0Q1277.0 444.5 1302.5 331.5Q1328.0 218.5 1342.0 132.5ZM719.0 1166.5H1319.0V847.5H719.0Z" fill="black"></path></svg>