<?xml version="1.0" standalone="no"?>
<!DOCTYPE svg PUBLIC "-//W3C//DTD SVG 1.1//EN" "http://www.w3.org/Graphics/SVG/1.1/DTD/svg11.dtd" >
<svg xmlns="http://www.w3.org/2000/svg" xmlns:svg="http://www.w3.org/2000/svg" xmlns:xlink="http://www.w3.org/1999/xlink" viewBox="0 0 2048 2048" style=""><path d="M177.0 1869.0H855.0V918.0H85.0L69.0 861.0H855.0V122.0L1259.0 159.0Q1255.0 182.0 1240.5 197.0Q1226.0 212.0 1183.0 218.0V861.0H1508.0L1676.0 646.0Q1676.0 646.0 1707.0 669.5Q1738.0 693.0 1785.5 730.0Q1833.0 767.0 1885.0 808.0Q1937.0 849.0 1979.0 886.0Q1970.0 918.0 1918.0 918.0H1183.0V1869.0H1416.0L1586.0 1652.0Q1586.0 1652.0 1617.0 1675.0Q1648.0 1698.0 1696.0 1735.5Q1744.0 1773.0 1796.0 1814.5Q1848.0 1856.0 1891.0 1893.0Q1882.0 1926.0 1830.0 1926.0H194.0Z" fill="black"></path></svg>