<?xml version="1.0" standalone="no"?>
<!DOCTYPE svg PUBLIC "-//W3C//DTD SVG 1.1//EN" "http://www.w3.org/Graphics/SVG/1.1/DTD/svg11.dtd" >
<svg xmlns="http://www.w3.org/2000/svg" xmlns:svg="http://www.w3.org/2000/svg" xmlns:xlink="http://www.w3.org/1999/xlink" viewBox="0 0 2048 2048" style=""><path d="M74.5 354.0H365.5V51.0L707.5 80.0Q705.5 98.0 692.0 111.5Q678.5 125.0 641.5 131.0V354.0H662.5L785.5 178.0Q785.5 178.0 823.5 211.5Q861.5 245.0 912.5 292.0Q963.5 339.0 1002.5 379.0Q996.5 412.0 947.5 412.0H641.5V674.0H664.5L799.5 477.0Q799.5 477.0 836.0 509.0Q872.5 541.0 923.5 587.0Q974.5 633.0 1018.5 676.0V82.0L1301.5 199.0H1594.5L1713.5 63.0L1973.5 258.0Q1963.5 270.0 1943.5 282.5Q1923.5 295.0 1891.5 301.0V536.0Q1891.5 616.0 1869.0 674.0Q1846.5 732.0 1775.0 767.0Q1703.5 802.0 1557.5 813.0Q1554.5 755.0 1546.0 712.0Q1537.5 669.0 1514.5 641.0Q1492.5 613.0 1458.5 592.0Q1424.5 571.0 1350.5 559.0V532.0Q1350.5 532.0 1378.0 534.0Q1405.5 536.0 1445.0 538.5Q1484.5 541.0 1521.5 543.0Q1558.5 545.0 1577.5 545.0Q1614.5 545.0 1614.5 508.0V256.0H1291.5V921.0H1620.5L1758.5 778.0L2001.5 981.0Q1992.5 998.0 1977.0 1005.5Q1961.5 1013.0 1928.5 1018.0Q1903.5 1156.0 1858.0 1292.0Q1812.5 1428.0 1737.5 1552.0Q1802.5 1604.0 1873.5 1645.5Q1944.5 1687.0 2020.5 1722.0L2014.5 1745.0Q1928.5 1760.0 1862.0 1823.0Q1795.5 1886.0 1760.5 1988.0Q1648.5 1886.0 1573.5 1769.0Q1510.5 1834.0 1435.0 1891.0Q1359.5 1948.0 1268.5 1997.0L1252.5 1974.0Q1329.5 1897.0 1388.0 1804.5Q1446.5 1712.0 1489.5 1610.0Q1439.5 1488.0 1407.5 1335.0Q1375.5 1182.0 1356.5 979.0H1291.5V1888.0Q1291.5 1906.0 1260.0 1930.0Q1228.5 1954.0 1177.0 1972.5Q1125.5 1991.0 1063.5 1991.0H1018.5V1489.0Q1009.5 1515.0 965.5 1515.0H641.5V1923.0Q640.5 1934.0 581.5 1962.5Q522.5 1991.0 416.5 1991.0H365.5V1515.0H72.5L56.5 1458.0H365.5V1169.0H45.5L29.5 1112.0H303.5Q259.5 1102.0 220.5 1063.0Q223.5 980.0 204.0 895.0Q184.5 810.0 158.5 745.0L177.5 737.0Q319.5 779.0 387.5 837.0Q455.5 895.0 466.5 953.5Q477.5 1012.0 448.5 1056.0Q419.5 1100.0 369.5 1112.0H545.5Q562.5 1026.0 579.0 921.5Q595.5 817.0 605.5 731.0H43.5L27.5 674.0H365.5V412.0H90.5ZM1018.5 725.0Q1006.5 731.0 983.5 731.0H699.5L934.5 801.0Q920.5 842.0 856.5 840.0Q809.5 896.0 740.5 971.0Q671.5 1046.0 598.5 1112.0H684.5L811.5 940.0Q811.5 940.0 846.0 968.0Q880.5 996.0 928.5 1036.5Q976.5 1077.0 1018.5 1116.0ZM1018.5 1163.0Q1006.5 1169.0 985.5 1169.0H641.5V1458.0H664.5L793.5 1272.0Q793.5 1272.0 832.5 1306.0Q871.5 1340.0 924.0 1388.5Q976.5 1437.0 1018.5 1479.0ZM1637.5 979.0H1389.5Q1417.5 1103.0 1462.5 1201.5Q1507.5 1300.0 1567.5 1380.0Q1593.5 1282.0 1611.0 1180.5Q1628.5 1079.0 1637.5 979.0Z" fill="black"></path></svg>