<?xml version="1.0" standalone="no"?>
<!DOCTYPE svg PUBLIC "-//W3C//DTD SVG 1.1//EN" "http://www.w3.org/Graphics/SVG/1.1/DTD/svg11.dtd" >
<svg xmlns="http://www.w3.org/2000/svg" xmlns:svg="http://www.w3.org/2000/svg" xmlns:xlink="http://www.w3.org/1999/xlink" viewBox="0 0 2048 2048" style=""><path d="M1205.5 528.5H846.5L940.5 608.5Q930.5 625.5 913.5 633.5Q896.5 641.5 860.5 647.5Q854.5 713.5 846.5 778.0Q838.5 842.5 828.5 905.5H1205.5ZM312.5 55.5 645.5 125.5Q639.5 145.5 621.5 159.0Q603.5 172.5 561.5 172.5Q551.5 236.5 533.5 333.0Q515.5 429.5 494.5 542.5H561.5L697.5 399.5L838.5 520.5L824.5 471.5H1205.5V67.5L1567.5 102.5Q1564.5 124.5 1549.5 140.0Q1534.5 155.5 1491.5 162.5V471.5H1594.5L1723.5 293.5Q1723.5 293.5 1747.0 313.0Q1770.5 332.5 1807.5 363.5Q1844.5 394.5 1884.5 430.0Q1924.5 465.5 1956.5 495.5Q1947.5 528.5 1899.5 528.5H1491.5V905.5H1606.5L1739.5 723.5Q1739.5 723.5 1763.5 743.5Q1787.5 763.5 1825.0 795.0Q1862.5 826.5 1903.5 862.5Q1944.5 898.5 1977.5 930.5Q1968.5 962.5 1919.5 962.5H1526.5Q1604.5 1160.5 1739.5 1310.5Q1874.5 1460.5 2020.5 1546.5L2014.5 1568.5Q1847.5 1607.5 1782.5 1824.5Q1659.5 1674.5 1593.5 1459.0Q1527.5 1243.5 1491.5 962.5V1894.5Q1491.5 1908.5 1456.0 1932.0Q1420.5 1955.5 1367.0 1974.0Q1313.5 1992.5 1260.5 1992.5H1205.5V1417.5Q1089.5 1566.5 930.5 1687.5Q771.5 1808.5 566.5 1900.5L547.5 1878.5Q618.5 1826.5 680.5 1765.5Q742.5 1704.5 797.5 1636.5Q765.5 1659.5 722.0 1661.0Q678.5 1662.5 627.5 1634.5Q612.5 1585.5 584.5 1536.5Q495.5 1657.5 363.5 1759.0Q231.5 1860.5 43.5 1935.5L27.5 1913.5Q185.5 1802.5 289.0 1658.5Q392.5 1514.5 453.5 1345.5Q428.5 1316.5 401.5 1289.0Q374.5 1261.5 346.5 1237.5L320.5 1345.5Q283.5 1371.5 210.0 1376.0Q136.5 1380.5 52.5 1355.5Q78.5 1264.5 109.0 1141.0Q139.5 1017.5 169.5 878.0Q199.5 738.5 226.5 600.5H45.5L27.5 542.5H236.5Q264.5 395.5 284.5 267.0Q304.5 138.5 312.5 55.5ZM1121.5 962.5H817.5Q801.5 1048.5 777.5 1132.5Q753.5 1216.5 719.5 1294.5Q814.5 1362.5 840.0 1440.5Q865.5 1518.5 842.5 1577.5Q942.5 1438.5 1012.0 1283.0Q1081.5 1127.5 1121.5 962.5ZM484.5 600.5Q456.5 743.5 424.5 893.5Q392.5 1043.5 363.5 1173.5Q434.5 1182.5 500.5 1198.5Q537.5 1058.5 556.5 907.5Q575.5 756.5 584.5 600.5Z" fill="black"></path></svg>