<?xml version="1.0" standalone="no"?>
<!DOCTYPE svg PUBLIC "-//W3C//DTD SVG 1.1//EN" "http://www.w3.org/Graphics/SVG/1.1/DTD/svg11.dtd" >
<svg xmlns="http://www.w3.org/2000/svg" xmlns:svg="http://www.w3.org/2000/svg" xmlns:xlink="http://www.w3.org/1999/xlink" viewBox="0 0 2048 2048" style=""><path d="M620.0 877.5H1064.0L1191.0 713.5Q1191.0 713.5 1230.5 744.5Q1270.0 775.5 1323.5 819.5Q1377.0 863.5 1420.0 902.5Q1414.0 935.5 1365.0 935.5H636.0ZM1242.0 1346.5Q1438.0 1360.5 1558.0 1411.0Q1678.0 1461.5 1735.0 1530.0Q1792.0 1598.5 1797.5 1666.0Q1803.0 1733.5 1769.5 1782.5Q1736.0 1831.5 1675.0 1845.0Q1614.0 1858.5 1539.0 1815.5Q1511.0 1732.5 1461.5 1649.5Q1412.0 1566.5 1350.5 1491.5Q1289.0 1416.5 1228.0 1358.5ZM499.0 1275.5 822.0 1451.5Q815.0 1464.5 797.5 1473.5Q780.0 1482.5 744.0 1477.5Q642.0 1591.5 483.0 1698.5Q324.0 1805.5 132.0 1868.5L118.0 1848.5Q204.0 1771.5 278.5 1671.5Q353.0 1571.5 410.0 1467.5Q467.0 1363.5 499.0 1275.5ZM269.0 1152.5H1347.0L1482.0 984.5Q1482.0 984.5 1524.5 1016.0Q1567.0 1047.5 1626.0 1092.0Q1685.0 1136.5 1732.0 1176.5Q1723.0 1209.5 1674.0 1209.5H1170.0V1666.5Q1170.0 1760.5 1145.5 1831.5Q1121.0 1902.5 1044.5 1945.0Q968.0 1987.5 812.0 1997.5Q809.0 1930.5 800.5 1880.0Q792.0 1829.5 769.0 1797.5Q748.0 1768.5 712.5 1744.5Q677.0 1720.5 597.0 1707.5V1682.5Q597.0 1682.5 627.0 1684.0Q657.0 1685.5 699.0 1687.5Q741.0 1689.5 778.5 1691.0Q816.0 1692.5 833.0 1692.5Q869.0 1692.5 869.0 1660.5V1209.5H286.0ZM759.0 50.5 1160.0 150.5Q1147.0 201.5 1076.0 195.5Q1058.0 249.5 1036.0 303.0Q1014.0 356.5 988.0 408.5H1519.0L1674.0 199.5Q1674.0 199.5 1702.5 222.5Q1731.0 245.5 1775.0 281.5Q1819.0 317.5 1866.5 357.5Q1914.0 397.5 1953.0 433.5Q1950.0 450.5 1933.0 458.5Q1916.0 466.5 1893.0 466.5H1242.0Q1326.0 573.5 1454.5 649.0Q1583.0 724.5 1731.0 774.0Q1879.0 823.5 2020.0 853.5L2018.0 875.5Q1935.0 895.5 1880.0 963.5Q1825.0 1031.5 1799.0 1135.5Q1589.0 1026.5 1435.5 868.5Q1282.0 710.5 1197.0 466.5H957.0Q876.0 613.5 752.5 748.5Q629.0 883.5 454.5 997.5Q280.0 1111.5 42.0 1195.5L28.0 1176.5Q253.0 1026.5 397.5 841.5Q542.0 656.5 628.0 466.5H114.0L97.0 408.5H652.0Q689.0 316.5 715.5 225.5Q742.0 134.5 759.0 50.5Z" fill="black"></path></svg>