<?xml version="1.0" standalone="no"?>
<!DOCTYPE svg PUBLIC "-//W3C//DTD SVG 1.1//EN" "http://www.w3.org/Graphics/SVG/1.1/DTD/svg11.dtd" >
<svg xmlns="http://www.w3.org/2000/svg" xmlns:svg="http://www.w3.org/2000/svg" xmlns:xlink="http://www.w3.org/1999/xlink" viewBox="0 0 2048 2048" style=""><path d="M1317.0 370.5H964.0Q921.0 398.5 876.0 426.0Q831.0 453.5 782.0 479.5Q885.0 482.5 936.5 518.0Q988.0 553.5 997.5 601.5Q1007.0 649.5 985.0 690.5Q1082.0 619.5 1165.5 539.5Q1249.0 459.5 1317.0 370.5ZM1374.0 919.5Q1337.0 953.5 1297.0 987.0Q1257.0 1020.5 1212.0 1052.5H1507.0L1669.0 897.5L1964.0 1142.5Q1941.0 1173.5 1851.0 1179.5Q1691.0 1420.5 1455.5 1591.0Q1220.0 1761.5 885.5 1863.0Q551.0 1964.5 94.0 1996.5L86.0 1972.5Q376.0 1897.5 615.0 1800.0Q854.0 1702.5 1044.0 1573.5Q991.0 1582.5 928.0 1550.5Q911.0 1485.5 871.5 1423.0Q832.0 1360.5 786.0 1310.5Q657.0 1372.5 513.5 1423.0Q370.0 1473.5 217.0 1507.5L207.0 1491.5Q411.0 1388.5 589.0 1248.5Q767.0 1108.5 895.0 966.5Q724.0 1029.5 525.0 1072.5Q326.0 1115.5 94.0 1136.5L84.0 1114.5Q314.0 1045.5 514.5 957.5Q715.0 869.5 880.0 762.5Q840.0 768.5 790.0 749.5Q769.0 697.5 727.0 644.5Q685.0 591.5 639.0 551.5Q527.0 603.5 404.5 645.5Q282.0 687.5 151.0 714.5L141.0 698.5Q302.0 613.5 444.0 502.0Q586.0 390.5 695.0 272.5Q804.0 154.5 866.0 51.5L1298.0 153.5Q1291.0 173.5 1266.0 186.0Q1241.0 198.5 1186.0 198.5Q1153.0 228.5 1119.0 257.0Q1085.0 285.5 1046.0 313.5H1333.0L1493.0 161.5L1784.0 403.5Q1760.0 432.5 1671.0 438.5Q1582.0 545.5 1472.0 640.0Q1362.0 734.5 1229.0 813.5L1489.0 872.5Q1479.0 894.5 1454.0 907.0Q1429.0 919.5 1374.0 919.5ZM1497.0 1110.5H1132.0Q1085.0 1143.5 1032.0 1176.0Q979.0 1208.5 923.0 1239.5Q1039.0 1248.5 1099.0 1289.0Q1159.0 1329.5 1174.0 1382.0Q1189.0 1434.5 1169.0 1480.5Q1268.0 1400.5 1350.0 1308.5Q1432.0 1216.5 1497.0 1110.5Z" fill="black"></path></svg>