<?xml version="1.0" standalone="no"?>
<!DOCTYPE svg PUBLIC "-//W3C//DTD SVG 1.1//EN" "http://www.w3.org/Graphics/SVG/1.1/DTD/svg11.dtd" >
<svg xmlns="http://www.w3.org/2000/svg" xmlns:svg="http://www.w3.org/2000/svg" xmlns:xlink="http://www.w3.org/1999/xlink" viewBox="0 0 2048 2048" style=""><path d="M801.0 56.0 1208.0 93.0Q1204.0 118.0 1187.5 132.0Q1171.0 146.0 1133.0 152.0Q1129.0 278.0 1125.0 403.5Q1121.0 529.0 1110.0 650.0H1524.0L1694.0 435.0Q1694.0 435.0 1724.5 458.5Q1755.0 482.0 1803.0 519.0Q1851.0 556.0 1903.5 597.5Q1956.0 639.0 1999.0 675.0Q1990.0 707.0 1937.0 707.0H1137.0Q1172.0 900.0 1270.5 1080.0Q1369.0 1260.0 1546.0 1412.0Q1723.0 1564.0 1995.0 1670.0L1993.0 1697.0Q1767.0 1740.0 1731.0 1992.0Q1563.0 1879.0 1450.0 1726.5Q1337.0 1574.0 1266.5 1401.0Q1196.0 1228.0 1158.5 1051.0Q1121.0 874.0 1104.0 712.0Q1084.0 888.0 1034.5 1056.5Q985.0 1225.0 885.0 1377.0Q1049.0 1415.0 1137.0 1478.5Q1225.0 1542.0 1252.5 1613.0Q1280.0 1684.0 1261.0 1746.5Q1242.0 1809.0 1191.0 1846.0Q1140.0 1883.0 1070.5 1879.0Q1001.0 1875.0 930.0 1811.0Q930.0 1713.0 906.0 1618.5Q882.0 1524.0 842.0 1441.0Q725.0 1597.0 537.5 1734.0Q350.0 1871.0 68.0 1983.0L49.0 1957.0Q251.0 1817.0 386.0 1668.5Q521.0 1520.0 603.0 1363.5Q685.0 1207.0 726.5 1043.0Q768.0 879.0 784.0 707.0H72.0L55.0 650.0H788.0Q799.0 506.0 800.0 358.0Q801.0 210.0 801.0 56.0Z" fill="black"></path></svg>