<?xml version="1.0" standalone="no"?>
<!DOCTYPE svg PUBLIC "-//W3C//DTD SVG 1.1//EN" "http://www.w3.org/Graphics/SVG/1.1/DTD/svg11.dtd" >
<svg xmlns="http://www.w3.org/2000/svg" xmlns:svg="http://www.w3.org/2000/svg" xmlns:xlink="http://www.w3.org/1999/xlink" viewBox="0 0 2048 2048" style=""><path d="M59.0 267.0H589.0V50.0L941.0 79.0Q940.0 99.0 925.0 113.5Q910.0 128.0 870.0 134.0V267.0H1167.0V50.0L1527.0 79.0Q1525.0 100.0 1509.0 114.0Q1493.0 128.0 1453.0 134.0V267.0H1640.0L1771.0 99.0Q1771.0 99.0 1810.0 130.5Q1849.0 162.0 1902.5 207.0Q1956.0 252.0 1998.0 292.0Q1989.0 324.0 1941.0 324.0H1453.0V417.0Q1453.0 432.0 1383.0 450.0Q1313.0 468.0 1214.0 468.0H1167.0V324.0H870.0V425.0Q870.0 440.0 801.5 460.0Q733.0 480.0 636.0 480.0H589.0V324.0H73.0ZM1035.0 1219.0Q1017.0 1238.0 997.5 1255.5Q978.0 1273.0 958.0 1291.0H1195.0L1337.0 1152.0L1609.0 1367.0Q1583.0 1396.0 1507.0 1402.0Q1381.0 1576.0 1201.0 1699.5Q1021.0 1823.0 766.0 1897.0Q511.0 1971.0 159.0 1998.0L149.0 1971.0Q348.0 1920.0 516.5 1852.0Q685.0 1784.0 820.0 1697.0Q790.0 1697.0 749.0 1676.0Q738.0 1628.0 710.0 1579.5Q682.0 1531.0 648.0 1494.0Q450.0 1595.0 218.0 1649.0L206.0 1631.0Q324.0 1563.0 425.5 1475.5Q527.0 1388.0 606.0 1294.0Q685.0 1200.0 734.0 1113.0H366.0Q384.0 1223.0 356.5 1300.5Q329.0 1378.0 276.0 1412.0Q240.0 1434.0 195.5 1432.5Q151.0 1431.0 113.5 1406.0Q76.0 1381.0 61.0 1334.0Q42.0 1268.0 74.0 1219.0Q106.0 1170.0 163.0 1146.0Q206.0 1118.0 246.5 1058.0Q287.0 998.0 280.0 931.0H304.0L331.0 992.0V417.0L614.0 525.0H1429.0L1550.0 396.0L1799.0 582.0Q1790.0 593.0 1772.5 604.0Q1755.0 615.0 1726.0 621.0V910.0Q1725.0 919.0 1687.5 936.5Q1650.0 954.0 1597.0 968.0Q1544.0 982.0 1498.0 982.0H1449.0V904.0H597.0V945.0Q597.0 956.0 562.5 975.0Q528.0 994.0 475.0 1009.5Q422.0 1025.0 368.0 1025.0H343.0L351.0 1056.0H1629.0L1769.0 916.0L2006.0 1144.0Q1994.0 1157.0 1977.5 1162.0Q1961.0 1167.0 1928.0 1170.0Q1869.0 1218.0 1780.0 1275.0Q1691.0 1332.0 1617.0 1369.0L1601.0 1357.0Q1613.0 1307.0 1625.0 1239.0Q1637.0 1171.0 1646.0 1113.0H874.0L1142.0 1174.0Q1136.0 1196.0 1112.5 1207.0Q1089.0 1218.0 1035.0 1219.0ZM1449.0 847.0V582.0H1322.0V847.0ZM597.0 847.0H714.0V582.0H597.0ZM954.0 847.0H1081.0V582.0H954.0ZM1181.0 1348.0H884.0Q855.0 1370.0 824.0 1390.0Q793.0 1410.0 761.0 1430.0Q884.0 1440.0 929.5 1489.0Q975.0 1538.0 966.0 1590.0Q1093.0 1481.0 1181.0 1348.0Z" fill="black"></path></svg>