<?xml version="1.0" standalone="no"?>
<!DOCTYPE svg PUBLIC "-//W3C//DTD SVG 1.1//EN" "http://www.w3.org/Graphics/SVG/1.1/DTD/svg11.dtd" >
<svg xmlns="http://www.w3.org/2000/svg" xmlns:svg="http://www.w3.org/2000/svg" xmlns:xlink="http://www.w3.org/1999/xlink" viewBox="0 0 2048 2048" style=""><path d="M1013.5 1151.5V1040.5L1312.5 1151.5H1592.5L1728.5 999.5L1973.5 1188.5Q1963.5 1201.5 1946.0 1212.0Q1928.5 1222.5 1891.5 1229.5V1917.5Q1891.5 1926.5 1829.0 1952.5Q1766.5 1978.5 1654.5 1978.5H1601.5V1800.5H1289.5V1931.5Q1289.5 1945.5 1230.0 1970.0Q1170.5 1994.5 1064.5 1994.5H1013.5ZM1289.5 1743.5H1601.5V1208.5H1289.5ZM349.5 55.5 685.5 127.5Q679.5 147.5 661.5 161.0Q643.5 174.5 601.5 174.5Q589.5 243.5 569.5 347.0Q549.5 450.5 523.5 573.5H603.5L738.5 430.5L982.5 639.5Q971.5 657.5 955.0 665.5Q938.5 673.5 902.5 678.5L898.5 723.5L1132.5 719.5Q1155.5 611.5 1176.0 494.0Q1196.5 376.5 1211.5 262.5Q1226.5 148.5 1234.5 53.5L1635.5 166.5Q1629.5 186.5 1611.0 198.5Q1592.5 210.5 1556.5 209.5Q1500.5 315.5 1417.0 450.5Q1333.5 585.5 1232.5 714.5L1678.5 698.5Q1648.5 624.5 1610.0 555.5Q1571.5 486.5 1533.5 426.5L1551.5 415.5Q1725.5 468.5 1827.0 542.5Q1928.5 616.5 1971.0 695.0Q2013.5 773.5 2010.5 842.5Q2007.5 911.5 1970.5 955.0Q1933.5 998.5 1875.0 1002.0Q1816.5 1005.5 1750.5 952.5Q1744.5 907.5 1732.5 861.0Q1720.5 814.5 1705.5 768.5Q1585.5 814.5 1422.5 870.0Q1259.5 925.5 1044.5 991.5Q1020.5 1035.5 978.5 1038.5L894.5 751.5Q874.5 919.5 838.0 1078.5Q801.5 1237.5 730.5 1380.5Q840.5 1445.5 892.0 1520.5Q943.5 1595.5 949.0 1664.0Q954.5 1732.5 924.5 1779.5Q894.5 1826.5 839.0 1838.5Q783.5 1850.5 714.5 1810.5Q695.5 1755.5 666.0 1699.5Q636.5 1643.5 599.5 1589.5Q507.5 1704.5 373.0 1801.0Q238.5 1897.5 50.5 1968.5L34.5 1947.5Q191.5 1844.5 296.0 1711.5Q400.5 1578.5 468.5 1423.5Q440.5 1394.5 413.0 1367.0Q385.5 1339.5 355.5 1315.5L331.5 1407.5Q294.5 1433.5 221.0 1438.0Q147.5 1442.5 60.5 1417.5Q90.5 1323.5 124.0 1194.5Q157.5 1065.5 190.0 920.0Q222.5 774.5 251.5 630.5H56.5L38.5 573.5H263.5Q294.5 416.5 317.5 280.0Q340.5 143.5 349.5 55.5ZM511.5 630.5Q479.5 787.5 443.0 951.5Q406.5 1115.5 372.5 1255.5Q410.5 1261.5 447.0 1270.5Q483.5 1279.5 517.5 1290.5Q566.5 1138.5 591.0 972.5Q615.5 806.5 626.5 630.5Z" fill="black"></path></svg>