<?xml version="1.0" standalone="no"?>
<!DOCTYPE svg PUBLIC "-//W3C//DTD SVG 1.1//EN" "http://www.w3.org/Graphics/SVG/1.1/DTD/svg11.dtd" >
<svg xmlns="http://www.w3.org/2000/svg" xmlns:svg="http://www.w3.org/2000/svg" xmlns:xlink="http://www.w3.org/1999/xlink" viewBox="0 0 2048 2048" style=""><path d="M1247.0 981.0V586.0L1143.0 592.0Q1137.0 664.0 1127.0 769.5Q1117.0 875.0 1106.0 981.0ZM1516.0 1038.0V1476.0L1591.0 1478.0Q1627.0 1478.0 1639.0 1464.0Q1655.0 1446.0 1661.5 1349.0Q1668.0 1252.0 1669.0 1038.0ZM1673.0 248.0 1958.0 504.0Q1938.0 521.0 1902.5 522.5Q1867.0 524.0 1815.0 506.0Q1684.0 537.0 1516.0 559.0V981.0H1649.0L1782.0 856.0L2013.0 1044.0Q2003.0 1057.0 1984.5 1067.0Q1966.0 1077.0 1936.0 1081.0Q1933.0 1289.0 1925.5 1409.0Q1918.0 1529.0 1896.5 1591.0Q1875.0 1653.0 1831.0 1685.0Q1788.0 1716.0 1732.5 1732.5Q1677.0 1749.0 1598.0 1749.0Q1598.0 1689.0 1592.5 1644.0Q1587.0 1599.0 1569.0 1573.0Q1550.0 1545.0 1516.0 1524.0V1919.0Q1516.0 1931.0 1483.5 1949.5Q1451.0 1968.0 1401.5 1982.5Q1352.0 1997.0 1301.0 1997.0H1247.0V1450.0Q1025.0 1700.0 682.0 1863.0L664.0 1841.0Q788.0 1740.0 888.5 1608.5Q989.0 1477.0 1063.5 1331.0Q1138.0 1185.0 1184.0 1038.0H1100.0L1081.0 1184.0Q1035.0 1211.0 977.0 1218.0Q919.0 1225.0 813.0 1206.0Q833.0 1084.0 850.5 941.0Q868.0 798.0 881.5 663.0Q895.0 528.0 901.0 432.0L1124.0 530.0L1247.0 481.0V71.0L1591.0 104.0Q1588.0 127.0 1573.5 142.5Q1559.0 158.0 1516.0 164.0V348.0Q1562.0 322.0 1602.5 296.5Q1643.0 271.0 1673.0 248.0ZM246.0 51.0 569.0 121.0Q563.0 141.0 545.5 154.5Q528.0 168.0 488.0 168.0L443.0 514.0H510.0L639.0 375.0L875.0 577.0Q857.0 605.0 797.0 616.0Q783.0 802.0 755.5 982.0Q728.0 1162.0 662.0 1325.0Q750.0 1377.0 791.0 1438.5Q832.0 1500.0 835.0 1556.5Q838.0 1613.0 811.0 1653.0Q784.0 1693.0 735.5 1703.5Q687.0 1714.0 627.0 1681.0Q613.0 1646.0 594.5 1608.5Q576.0 1571.0 551.0 1534.0Q470.0 1655.0 348.5 1758.0Q227.0 1861.0 53.0 1939.0L35.0 1917.0Q179.0 1806.0 271.0 1665.5Q363.0 1525.0 418.0 1364.0Q393.0 1338.0 368.5 1314.5Q344.0 1291.0 320.0 1270.0L297.0 1386.0Q262.0 1414.0 192.0 1419.5Q122.0 1425.0 39.0 1405.0Q64.0 1305.0 90.0 1167.5Q116.0 1030.0 141.5 875.5Q167.0 721.0 189.0 571.0H57.0L39.0 514.0H197.0Q215.0 374.0 228.0 252.5Q241.0 131.0 246.0 51.0ZM434.0 571.0Q411.0 729.0 383.5 901.0Q356.0 1073.0 330.0 1220.0Q364.0 1225.0 394.5 1231.0Q425.0 1237.0 453.0 1243.0Q493.0 1086.0 509.5 916.0Q526.0 746.0 533.0 571.0Z" fill="black"></path></svg>