<?xml version="1.0" standalone="no"?>
<!DOCTYPE svg PUBLIC "-//W3C//DTD SVG 1.1//EN" "http://www.w3.org/Graphics/SVG/1.1/DTD/svg11.dtd" >
<svg xmlns="http://www.w3.org/2000/svg" xmlns:svg="http://www.w3.org/2000/svg" xmlns:xlink="http://www.w3.org/1999/xlink" viewBox="0 0 2048 2048" style=""><path d="M761.0 1006.0 871.0 1031.0V761.0Q719.0 882.0 515.0 971.5Q311.0 1061.0 69.0 1119.0L54.0 1094.0Q259.0 1002.0 421.0 865.0Q583.0 728.0 683.0 580.0H120.0L103.0 523.0H871.0V349.0Q712.0 355.0 550.0 358.0Q388.0 361.0 239.0 359.0L235.0 328.0Q389.0 305.0 561.5 272.0Q734.0 239.0 904.0 201.0Q1074.0 163.0 1222.0 123.5Q1370.0 84.0 1476.0 48.0L1725.0 306.0Q1681.0 340.0 1578.0 298.0Q1490.0 307.0 1386.0 316.0Q1282.0 325.0 1168.0 333.0V523.0H1564.0L1701.0 353.0Q1701.0 353.0 1726.5 372.0Q1752.0 391.0 1791.5 420.5Q1831.0 450.0 1874.0 484.0Q1917.0 518.0 1953.0 548.0Q1944.0 580.0 1895.0 580.0H1242.0Q1332.0 640.0 1456.5 683.0Q1581.0 726.0 1720.5 752.5Q1860.0 779.0 1994.0 787.0L1992.0 812.0Q1915.0 833.0 1862.0 899.5Q1809.0 966.0 1789.0 1068.0Q1569.0 999.0 1419.0 879.5Q1269.0 760.0 1173.0 580.0H1168.0V994.0Q1167.0 1002.0 1122.5 1024.5Q1078.0 1047.0 998.0 1058.0L1115.0 1082.0Q1109.0 1105.0 1087.0 1119.0Q1065.0 1133.0 1021.0 1133.0L945.0 1244.0H1574.0L1713.0 1072.0Q1713.0 1072.0 1738.5 1090.5Q1764.0 1109.0 1804.0 1139.0Q1844.0 1169.0 1888.0 1203.5Q1932.0 1238.0 1969.0 1268.0Q1960.0 1301.0 1910.0 1301.0H1568.0Q1529.0 1387.0 1485.0 1461.0Q1441.0 1535.0 1385.0 1596.0Q1576.0 1635.0 1682.0 1687.0Q1788.0 1739.0 1827.0 1793.0Q1866.0 1847.0 1854.0 1893.0Q1842.0 1939.0 1796.0 1967.0Q1750.0 1995.0 1686.0 1996.0Q1622.0 1997.0 1558.0 1959.0Q1491.0 1916.0 1399.0 1865.0Q1307.0 1814.0 1187.0 1760.0Q1016.0 1863.0 756.0 1919.0Q496.0 1975.0 99.0 2000.0L91.0 1975.0Q383.0 1920.0 593.5 1846.0Q804.0 1772.0 947.0 1668.0Q886.0 1646.0 821.0 1626.5Q756.0 1607.0 687.0 1590.0L591.0 1707.0Q533.0 1716.0 452.5 1700.5Q372.0 1685.0 304.0 1637.0Q359.0 1576.0 430.0 1485.5Q501.0 1395.0 568.0 1301.0H101.0L85.0 1244.0H609.0Q658.0 1173.0 698.5 1111.0Q739.0 1049.0 761.0 1006.0ZM904.0 1301.0Q864.0 1357.0 820.5 1415.0Q777.0 1473.0 734.0 1529.0Q828.0 1532.0 913.5 1537.5Q999.0 1543.0 1074.0 1549.0Q1170.0 1441.0 1222.0 1301.0Z" fill="black"></path></svg>