<?xml version="1.0" standalone="no"?>
<!DOCTYPE svg PUBLIC "-//W3C//DTD SVG 1.1//EN" "http://www.w3.org/Graphics/SVG/1.1/DTD/svg11.dtd" >
<svg xmlns="http://www.w3.org/2000/svg" xmlns:svg="http://www.w3.org/2000/svg" xmlns:xlink="http://www.w3.org/1999/xlink" viewBox="0 0 2048 2048" style=""><path d="M172.0 882.5H803.0Q814.0 756.5 814.5 619.0Q815.0 481.5 815.0 331.5H104.0L88.0 274.5H1509.0L1671.0 67.5Q1671.0 67.5 1701.0 90.0Q1731.0 112.5 1777.0 148.0Q1823.0 183.5 1874.0 223.5Q1925.0 263.5 1966.0 298.5Q1957.0 331.5 1905.0 331.5H1151.0Q1148.0 481.5 1144.0 619.0Q1140.0 756.5 1124.0 882.5H1460.0L1620.0 679.5Q1620.0 679.5 1649.5 701.5Q1679.0 723.5 1724.5 758.5Q1770.0 793.5 1820.0 833.0Q1870.0 872.5 1911.0 906.5Q1906.0 923.5 1889.5 931.5Q1873.0 939.5 1851.0 939.5H1124.0Q1164.0 1088.5 1267.5 1226.5Q1371.0 1364.5 1550.5 1479.5Q1730.0 1594.5 1997.0 1672.5V1697.5Q1886.0 1720.5 1823.5 1788.0Q1761.0 1855.5 1747.0 1980.5Q1590.0 1897.5 1479.0 1785.5Q1368.0 1673.5 1293.5 1544.0Q1219.0 1414.5 1174.5 1279.5Q1130.0 1144.5 1106.0 1017.5Q1075.0 1179.5 1010.0 1320.0Q945.0 1460.5 827.0 1580.0Q709.0 1699.5 523.0 1799.0Q337.0 1898.5 66.0 1978.5L51.0 1949.5Q255.0 1844.5 392.0 1731.5Q529.0 1618.5 612.0 1494.0Q695.0 1369.5 738.0 1231.5Q781.0 1093.5 797.0 939.5H188.0Z" fill="black"></path></svg>