<?xml version="1.0" standalone="no"?>
<!DOCTYPE svg PUBLIC "-//W3C//DTD SVG 1.1//EN" "http://www.w3.org/Graphics/SVG/1.1/DTD/svg11.dtd" >
<svg xmlns="http://www.w3.org/2000/svg" xmlns:svg="http://www.w3.org/2000/svg" xmlns:xlink="http://www.w3.org/1999/xlink" viewBox="0 0 2048 2048" style=""><path d="M812.5 53.5 1193.5 213.5Q1187.5 230.5 1170.0 241.0Q1152.5 251.5 1114.5 249.5Q1086.5 300.5 1055.5 354.0Q1024.5 407.5 989.5 460.5H1472.5L1632.5 295.5L1927.5 551.5Q1899.5 583.5 1818.5 591.5Q1721.5 867.5 1581.5 1096.0Q1441.5 1324.5 1243.5 1502.0Q1045.5 1679.5 778.0 1803.5Q510.5 1927.5 159.5 1994.5L147.5 1972.5Q504.5 1815.5 763.0 1607.0Q1021.5 1398.5 1196.5 1129.0Q1371.5 859.5 1478.5 518.5H950.5Q899.5 591.5 841.0 664.0Q782.5 736.5 714.5 807.5Q875.5 822.5 972.5 870.5Q1069.5 918.5 1112.0 982.0Q1154.5 1045.5 1153.5 1107.5Q1152.5 1169.5 1118.0 1214.0Q1083.5 1258.5 1024.5 1270.0Q965.5 1281.5 892.5 1241.5Q860.5 1142.5 795.0 1044.0Q729.5 945.5 649.5 870.5Q541.5 973.5 413.5 1065.0Q285.5 1156.5 135.5 1226.5L120.5 1208.5Q251.5 1092.5 361.5 948.0Q471.5 803.5 559.0 647.5Q646.5 491.5 710.5 339.0Q774.5 186.5 812.5 53.5Z" fill="black"></path></svg>