<?xml version="1.0" standalone="no"?>
<!DOCTYPE svg PUBLIC "-//W3C//DTD SVG 1.1//EN" "http://www.w3.org/Graphics/SVG/1.1/DTD/svg11.dtd" >
<svg xmlns="http://www.w3.org/2000/svg" xmlns:svg="http://www.w3.org/2000/svg" xmlns:xlink="http://www.w3.org/1999/xlink" viewBox="0 0 2048 2048" style=""><path d="M1055.0 340.5V221.5L1345.0 340.5H1608.0L1741.0 192.5L2001.0 399.5Q1992.0 411.5 1972.0 424.0Q1952.0 436.5 1921.0 442.5V1822.5Q1919.0 1833.5 1880.0 1853.5Q1841.0 1873.5 1784.5 1890.0Q1728.0 1906.5 1675.0 1906.5H1628.0V1669.5H1335.0V1847.5Q1335.0 1864.5 1302.5 1889.0Q1270.0 1913.5 1216.5 1931.5Q1163.0 1949.5 1100.0 1949.5H1055.0ZM1335.0 1611.5H1628.0V397.5H1335.0ZM371.0 55.5 715.0 129.5Q708.0 149.5 690.0 163.0Q672.0 176.5 631.0 176.5Q618.0 243.5 596.5 348.0Q575.0 452.5 549.0 575.5H655.0L790.0 430.5L1034.0 643.5Q1023.0 660.5 1006.5 668.5Q990.0 676.5 954.0 682.5Q936.0 868.5 901.5 1044.0Q867.0 1219.5 794.0 1376.5Q892.0 1438.5 937.0 1509.0Q982.0 1579.5 985.5 1643.5Q989.0 1707.5 959.0 1751.5Q929.0 1795.5 875.5 1807.0Q822.0 1818.5 754.0 1781.5Q737.0 1737.5 711.5 1692.0Q686.0 1646.5 655.0 1601.5Q558.0 1723.5 413.5 1823.0Q269.0 1922.5 63.0 1992.5L49.0 1970.5Q221.0 1867.5 335.0 1731.5Q449.0 1595.5 520.0 1433.5Q485.0 1396.5 449.5 1364.0Q414.0 1331.5 377.0 1300.5L344.0 1417.5Q304.0 1445.5 227.5 1448.5Q151.0 1451.5 65.0 1425.5Q96.0 1330.5 131.0 1200.5Q166.0 1070.5 200.5 924.0Q235.0 777.5 266.0 633.5H65.0L47.0 575.5H278.0Q312.0 417.5 336.5 280.5Q361.0 143.5 371.0 55.5ZM536.0 633.5Q503.0 783.5 465.5 942.0Q428.0 1100.5 393.0 1237.5Q444.0 1244.5 490.0 1255.0Q536.0 1265.5 577.0 1278.5Q622.0 1130.5 645.5 968.0Q669.0 805.5 678.0 633.5Z" fill="black"></path></svg>