<?xml version="1.0" standalone="no"?>
<!DOCTYPE svg PUBLIC "-//W3C//DTD SVG 1.1//EN" "http://www.w3.org/Graphics/SVG/1.1/DTD/svg11.dtd" >
<svg xmlns="http://www.w3.org/2000/svg" xmlns:svg="http://www.w3.org/2000/svg" xmlns:xlink="http://www.w3.org/1999/xlink" viewBox="0 0 2048 2048" style=""><path d="M1125.5 72.0 1487.5 118.0Q1484.5 139.0 1466.5 154.5Q1448.5 170.0 1405.5 173.0Q1390.5 245.0 1363.5 360.5Q1336.5 476.0 1301.5 611.0H1639.5L1778.5 419.0Q1778.5 419.0 1804.0 440.0Q1829.5 461.0 1869.0 494.0Q1908.5 527.0 1951.0 565.0Q1993.5 603.0 2028.5 636.0Q2019.5 668.0 1971.5 668.0H1811.5Q1779.5 880.0 1733.0 1059.0Q1686.5 1238.0 1606.5 1385.0Q1753.5 1468.0 1829.0 1560.5Q1904.5 1653.0 1922.0 1736.5Q1939.5 1820.0 1911.5 1878.0Q1883.5 1936.0 1822.0 1953.0Q1760.5 1970.0 1680.5 1928.0Q1640.5 1853.0 1582.5 1769.0Q1524.5 1685.0 1450.5 1602.0Q1337.5 1725.0 1168.5 1821.0Q999.5 1917.0 756.5 1989.0L740.5 1967.0Q935.5 1853.0 1068.0 1722.0Q1200.5 1591.0 1286.5 1434.0Q1247.5 1399.0 1204.5 1364.5Q1161.5 1330.0 1114.5 1299.0L1080.5 1414.0Q1037.5 1440.0 956.5 1443.0Q875.5 1446.0 785.5 1418.0Q816.5 1327.0 854.0 1204.5Q891.5 1082.0 929.0 944.0Q966.5 806.0 1000.5 668.0H779.5L762.5 611.0H1014.5Q1054.5 447.0 1084.5 303.5Q1114.5 160.0 1125.5 72.0ZM1286.5 668.0Q1251.5 808.0 1213.0 951.5Q1174.5 1095.0 1139.5 1219.0Q1199.5 1233.0 1254.5 1247.5Q1309.5 1262.0 1358.5 1279.0Q1409.5 1147.0 1441.5 995.5Q1473.5 844.0 1491.5 668.0ZM21.5 1092.0H465.5V787.0H367.5V888.0Q367.5 897.0 333.5 911.5Q299.5 926.0 249.0 937.5Q198.5 949.0 148.5 949.0H103.5V183.0L432.5 212.0Q431.5 230.0 418.0 243.5Q404.5 257.0 367.5 263.0V730.0H465.5V52.0L828.5 87.0Q825.5 108.0 810.5 124.0Q795.5 140.0 752.5 146.0V1897.0Q752.5 1912.0 717.0 1935.0Q681.5 1958.0 628.0 1977.0Q574.5 1996.0 521.5 1996.0H465.5V1150.0H404.5Q399.5 1325.0 372.0 1479.5Q344.5 1634.0 268.5 1763.0Q192.5 1892.0 41.5 1991.0L19.5 1965.0Q81.5 1849.0 106.5 1719.5Q131.5 1590.0 136.0 1447.0Q140.5 1304.0 140.5 1150.0H39.5Z" fill="black"></path></svg>