<?xml version="1.0" standalone="no"?>
<!DOCTYPE svg PUBLIC "-//W3C//DTD SVG 1.1//EN" "http://www.w3.org/Graphics/SVG/1.1/DTD/svg11.dtd" >
<svg xmlns="http://www.w3.org/2000/svg" xmlns:svg="http://www.w3.org/2000/svg" xmlns:xlink="http://www.w3.org/1999/xlink" viewBox="0 0 2048 2048" style=""><path d="M850.0 53.0 1235.0 80.0Q1232.0 101.0 1218.0 116.0Q1204.0 131.0 1159.0 139.0V362.0H1538.0L1694.0 147.0Q1694.0 147.0 1722.5 170.5Q1751.0 194.0 1794.5 231.0Q1838.0 268.0 1885.5 309.5Q1933.0 351.0 1970.0 387.0Q1961.0 420.0 1911.0 420.0H1127.0L1440.0 518.0Q1423.0 562.0 1356.0 559.0Q1339.0 600.0 1321.0 640.0Q1303.0 680.0 1284.0 717.0H1487.0L1643.0 559.0L1907.0 792.0Q1896.0 811.0 1877.5 819.0Q1859.0 827.0 1821.0 831.0Q1770.0 1026.0 1686.5 1202.0Q1603.0 1378.0 1473.0 1524.0Q1585.0 1574.0 1719.5 1608.5Q1854.0 1643.0 2009.0 1665.0L2007.0 1689.0Q1903.0 1726.0 1851.0 1801.0Q1799.0 1876.0 1784.0 1995.0Q1621.0 1945.0 1498.0 1870.5Q1375.0 1796.0 1284.0 1700.0Q1160.0 1793.0 1003.0 1867.5Q846.0 1942.0 647.0 1993.0L635.0 1972.0Q801.0 1891.0 933.5 1783.5Q1066.0 1676.0 1168.0 1548.0Q1109.0 1456.0 1065.0 1349.5Q1021.0 1243.0 985.0 1122.0Q846.0 1255.0 672.0 1345.0L652.0 1329.0Q740.0 1222.0 819.5 1079.0Q899.0 936.0 961.0 768.0Q1023.0 600.0 1057.0 420.0H578.0L895.0 557.0Q878.0 601.0 807.0 592.0Q698.0 770.0 568.0 907.0L705.0 958.0Q695.0 988.0 641.0 999.0V1921.0Q639.0 1931.0 603.0 1948.5Q567.0 1966.0 512.5 1980.5Q458.0 1995.0 402.0 1995.0H346.0V1100.0Q277.0 1149.0 205.0 1191.5Q133.0 1234.0 58.0 1270.0L39.0 1253.0Q127.0 1158.0 215.0 1025.5Q303.0 893.0 379.0 737.5Q455.0 582.0 508.0 420.0H76.0L60.0 362.0H850.0ZM1139.0 950.0Q1083.0 1026.0 1014.0 1095.0Q1057.0 1189.0 1121.0 1266.0Q1185.0 1343.0 1268.0 1405.0Q1300.0 1351.0 1329.0 1294.0Q1358.0 1237.0 1383.0 1177.0Q1344.0 1211.0 1285.5 1211.0Q1227.0 1211.0 1172.0 1159.0Q1175.0 1054.0 1139.0 950.0ZM1194.0 872.0Q1312.0 906.0 1366.5 956.0Q1421.0 1006.0 1430.0 1057.0Q1476.0 918.0 1503.0 774.0H1254.0Z" fill="black"></path></svg>