<?xml version="1.0" standalone="no"?>
<!DOCTYPE svg PUBLIC "-//W3C//DTD SVG 1.1//EN" "http://www.w3.org/Graphics/SVG/1.1/DTD/svg11.dtd" >
<svg xmlns="http://www.w3.org/2000/svg" xmlns:svg="http://www.w3.org/2000/svg" xmlns:xlink="http://www.w3.org/1999/xlink" viewBox="0 0 2048 2048" style=""><path d="M767.0 53.5 1162.0 114.5Q1158.0 137.5 1138.5 152.5Q1119.0 167.5 1074.0 170.5Q1050.0 243.5 1007.5 355.5Q965.0 467.5 914.0 598.5H1543.0L1707.0 383.5Q1707.0 383.5 1737.0 407.0Q1767.0 430.5 1814.0 467.0Q1861.0 503.5 1911.5 545.0Q1962.0 586.5 2004.0 622.5Q1995.0 655.5 1943.0 655.5H1607.0Q1565.0 878.5 1506.5 1060.0Q1448.0 1241.5 1355.0 1384.5Q1534.0 1451.5 1641.5 1528.5Q1749.0 1605.5 1797.0 1681.5Q1845.0 1757.5 1846.5 1821.5Q1848.0 1885.5 1814.0 1927.0Q1780.0 1968.5 1723.0 1977.5Q1666.0 1986.5 1598.0 1951.5Q1539.0 1873.5 1435.5 1777.5Q1332.0 1681.5 1191.0 1581.5Q1022.0 1741.5 751.5 1841.5Q481.0 1941.5 64.0 1994.5L54.0 1970.5Q381.0 1873.5 605.0 1747.0Q829.0 1620.5 972.0 1442.5Q893.0 1397.5 808.5 1355.0Q724.0 1312.5 634.0 1276.5L574.0 1403.5Q521.0 1427.5 430.5 1423.0Q340.0 1418.5 245.0 1380.5Q289.0 1293.5 342.0 1175.5Q395.0 1057.5 451.0 923.5Q507.0 789.5 560.0 655.5H60.0L44.0 598.5H583.0Q646.0 432.5 695.5 287.5Q745.0 142.5 767.0 53.5ZM892.0 655.5Q834.0 801.5 772.0 952.5Q710.0 1103.5 654.0 1229.5Q771.0 1242.5 874.0 1260.5Q977.0 1278.5 1068.0 1298.5Q1143.0 1168.5 1192.0 1009.0Q1241.0 849.5 1269.0 655.5Z" fill="black"></path></svg>