<?xml version="1.0" standalone="no"?>
<!DOCTYPE svg PUBLIC "-//W3C//DTD SVG 1.1//EN" "http://www.w3.org/Graphics/SVG/1.1/DTD/svg11.dtd" >
<svg xmlns="http://www.w3.org/2000/svg" xmlns:svg="http://www.w3.org/2000/svg" xmlns:xlink="http://www.w3.org/1999/xlink" viewBox="0 0 2048 2048" style=""><path d="M293.5 459.0V342.0L613.5 459.0H816.5L814.5 49.0L1205.5 84.0Q1198.5 134.0 1127.5 143.0L1125.5 459.0H1350.5L1487.5 315.0L1752.5 514.0Q1731.5 545.0 1672.5 557.0V1077.0L1786.5 889.0Q1786.5 889.0 1811.5 913.5Q1836.5 938.0 1874.0 976.5Q1911.5 1015.0 1951.0 1057.5Q1990.5 1100.0 2020.5 1137.0Q2014.5 1169.0 1965.5 1169.0H1119.5Q1185.5 1337.0 1395.0 1471.5Q1604.5 1606.0 1985.5 1679.0V1706.0Q1870.5 1731.0 1807.5 1799.0Q1744.5 1867.0 1733.5 1999.0Q1573.5 1933.0 1460.0 1837.5Q1346.5 1742.0 1271.5 1629.5Q1196.5 1517.0 1151.5 1399.0Q1106.5 1281.0 1084.5 1169.0H1072.5Q1037.5 1320.0 969.0 1445.0Q900.5 1570.0 783.5 1671.5Q666.5 1773.0 488.0 1854.0Q309.5 1935.0 54.5 1997.0L39.5 1968.0Q273.5 1866.0 421.0 1746.5Q568.5 1627.0 650.5 1484.0Q732.5 1341.0 769.5 1169.0H44.5L27.5 1112.0H293.5ZM1371.5 1112.0V516.0H1125.5Q1123.5 685.0 1115.5 834.0Q1107.5 983.0 1084.5 1112.0ZM781.5 1112.0Q804.5 981.0 810.5 833.0Q816.5 685.0 816.5 516.0H584.5V1112.0Z" fill="black"></path></svg>