<?xml version="1.0" standalone="no"?>
<!DOCTYPE svg PUBLIC "-//W3C//DTD SVG 1.1//EN" "http://www.w3.org/Graphics/SVG/1.1/DTD/svg11.dtd" >
<svg xmlns="http://www.w3.org/2000/svg" xmlns:svg="http://www.w3.org/2000/svg" xmlns:xlink="http://www.w3.org/1999/xlink" viewBox="0 0 2048 2048" style=""><path d="M1356.0 734.5H1186.0V1015.5L1369.0 978.5Q1359.0 857.5 1356.0 734.5ZM209.0 50.5 525.0 81.5Q522.0 102.5 506.0 117.5Q490.0 132.5 447.0 138.5Q442.0 203.5 432.0 298.0Q422.0 392.5 410.0 503.5H451.0L574.0 365.5L646.0 427.5L642.0 410.5Q732.0 364.5 828.5 301.0Q925.0 237.5 1009.5 171.5Q1094.0 105.5 1147.0 52.5L1350.0 200.5V64.5L1696.0 101.5Q1693.0 121.5 1676.5 138.0Q1660.0 154.5 1620.0 161.5Q1617.0 297.5 1615.0 426.5Q1613.0 555.5 1614.0 677.5H1672.0L1786.0 517.5Q1758.0 508.5 1725.0 482.5Q1728.0 404.5 1698.0 322.5Q1668.0 240.5 1625.0 185.5L1643.0 175.5Q1775.0 197.5 1846.0 241.5Q1917.0 285.5 1939.5 336.5Q1962.0 387.5 1948.5 432.5Q1935.0 477.5 1897.0 504.0Q1859.0 530.5 1809.0 523.5Q1827.0 537.5 1863.0 568.5Q1899.0 599.5 1940.0 635.5Q1981.0 671.5 2014.0 701.5Q2005.0 734.5 1956.0 734.5H1614.0Q1617.0 929.5 1633.0 1094.5Q1680.0 964.5 1707.0 847.5L2010.0 953.5Q2003.0 970.5 1986.5 981.5Q1970.0 992.5 1932.0 990.5Q1890.0 1093.5 1831.5 1199.0Q1773.0 1304.5 1694.0 1404.5Q1714.0 1464.5 1740.5 1516.0Q1767.0 1567.5 1801.0 1609.5Q1816.0 1630.5 1826.0 1629.0Q1836.0 1627.5 1848.0 1602.5Q1871.0 1559.5 1902.5 1487.5Q1934.0 1415.5 1958.0 1350.5L1981.0 1355.5L1938.0 1707.5Q2025.0 1902.5 1973.0 1949.5Q1920.0 1997.5 1857.5 1990.0Q1795.0 1982.5 1739.0 1946.0Q1683.0 1909.5 1647.0 1869.5Q1601.0 1813.5 1564.0 1749.5Q1527.0 1685.5 1498.0 1615.5Q1427.0 1676.5 1344.5 1732.0Q1262.0 1787.5 1168.0 1830.5Q1146.0 1899.5 1081.0 1942.5Q1016.0 1985.5 881.0 1996.5Q878.0 1934.5 871.5 1889.0Q865.0 1843.5 846.0 1813.5Q826.0 1784.5 794.0 1763.5Q762.0 1742.5 693.0 1729.5V1703.5Q693.0 1703.5 718.0 1705.0Q743.0 1706.5 778.5 1708.5Q814.0 1710.5 846.5 1712.0Q879.0 1713.5 893.0 1713.5Q930.0 1713.5 930.0 1676.5V1283.5L807.0 1350.5Q791.0 1394.5 750.0 1404.5L664.0 1156.5Q652.0 1208.5 637.5 1260.5Q623.0 1312.5 603.0 1361.5Q691.0 1434.5 714.5 1510.0Q738.0 1585.5 715.0 1641.5Q692.0 1697.5 637.0 1714.5Q582.0 1731.5 513.0 1686.5Q506.0 1665.5 498.5 1643.0Q491.0 1620.5 480.0 1598.5Q406.0 1706.5 299.0 1801.5Q192.0 1896.5 41.0 1971.5L23.0 1949.5Q154.0 1836.5 237.0 1697.0Q320.0 1557.5 369.0 1398.5Q352.0 1371.5 334.0 1348.0Q316.0 1324.5 297.0 1301.5L283.0 1383.5Q251.0 1409.5 183.0 1416.0Q115.0 1422.5 33.0 1404.5Q56.0 1303.5 79.5 1164.5Q103.0 1025.5 125.0 869.0Q147.0 712.5 164.0 560.5H41.0L23.0 503.5H173.0Q188.0 366.5 198.0 248.5Q208.0 130.5 209.0 50.5ZM1354.0 677.5Q1351.0 581.5 1350.5 483.0Q1350.0 384.5 1350.0 281.5L1303.0 273.5L1186.0 314.5V677.5ZM930.0 734.5H719.0Q713.0 828.5 703.0 921.5Q693.0 1014.5 674.0 1105.5L930.0 1062.5ZM930.0 677.5V382.5Q794.0 413.5 654.0 435.5L805.0 564.5Q790.0 592.5 728.0 603.5L723.0 677.5ZM1448.0 1467.5Q1419.0 1364.5 1400.5 1251.0Q1382.0 1137.5 1373.0 1013.5L1186.0 1131.5V1684.5Q1186.0 1733.5 1180.0 1776.5Q1259.0 1710.5 1325.5 1632.0Q1392.0 1553.5 1448.0 1467.5ZM402.0 560.5Q384.0 723.5 359.5 898.0Q335.0 1072.5 312.0 1219.5Q338.0 1227.5 361.5 1235.5Q385.0 1243.5 406.0 1252.5Q441.0 1088.5 454.5 913.5Q468.0 738.5 472.0 560.5Z" fill="black"></path></svg>