<?xml version="1.0" standalone="no"?>
<!DOCTYPE svg PUBLIC "-//W3C//DTD SVG 1.1//EN" "http://www.w3.org/Graphics/SVG/1.1/DTD/svg11.dtd" >
<svg xmlns="http://www.w3.org/2000/svg" xmlns:svg="http://www.w3.org/2000/svg" xmlns:xlink="http://www.w3.org/1999/xlink" viewBox="0 0 2048 2048" style=""><path d="M1346.0 1242.0V1471.0H1628.0V1242.0ZM1346.0 1185.0H1628.0V963.0H1346.0ZM1346.0 1529.0V1772.0H1628.0V1529.0ZM240.0 50.0 561.0 95.0Q557.0 115.0 540.0 130.0Q523.0 145.0 481.0 148.0Q475.0 213.0 463.5 307.5Q452.0 402.0 438.0 513.0H489.0L616.0 376.0L836.0 564.0V107.0L1133.0 210.0H1626.0L1749.0 75.0L2007.0 269.0Q1996.0 281.0 1976.5 293.5Q1957.0 306.0 1925.0 312.0V701.0Q1924.0 708.0 1894.5 722.0Q1865.0 736.0 1821.5 749.5Q1778.0 763.0 1735.0 769.0L1989.0 965.0Q1978.0 978.0 1957.5 990.0Q1937.0 1002.0 1907.0 1008.0V1914.0Q1905.0 1922.0 1866.5 1938.5Q1828.0 1955.0 1774.5 1969.0Q1721.0 1983.0 1675.0 1983.0H1628.0V1830.0H1346.0V1903.0Q1346.0 1918.0 1312.5 1939.0Q1279.0 1960.0 1227.0 1977.0Q1175.0 1994.0 1116.0 1994.0H1075.0V1166.0Q1059.0 1315.0 1014.5 1464.0Q970.0 1613.0 882.0 1749.5Q794.0 1886.0 645.0 1998.0L623.0 1983.0Q702.0 1843.0 745.0 1684.0Q718.0 1703.0 679.5 1703.0Q641.0 1703.0 596.0 1678.0Q575.0 1612.0 530.0 1539.0Q454.0 1659.0 339.0 1762.0Q224.0 1865.0 59.0 1946.0L41.0 1924.0Q178.0 1812.0 264.5 1669.0Q351.0 1526.0 403.0 1363.0Q383.0 1341.0 363.5 1320.0Q344.0 1299.0 324.0 1281.0L303.0 1393.0Q269.0 1420.0 199.5 1426.0Q130.0 1432.0 47.0 1412.0Q71.0 1312.0 96.0 1173.0Q121.0 1034.0 145.0 878.0Q169.0 722.0 188.0 570.0H63.0L45.0 513.0H195.0Q213.0 373.0 225.0 251.5Q237.0 130.0 240.0 50.0ZM1608.0 906.0 1731.0 769.0 1696.0 771.0H1647.0V677.0H1092.0V791.0V802.0L1354.0 906.0ZM1647.0 267.0H1503.0V619.0H1647.0ZM1229.0 267.0H1092.0V619.0H1229.0ZM791.0 1488.0Q821.0 1316.0 828.5 1140.0Q836.0 964.0 836.0 793.0V587.0Q823.0 607.0 772.0 613.0Q760.0 798.0 733.0 977.5Q706.0 1157.0 641.0 1322.0Q701.0 1360.0 737.5 1402.5Q774.0 1445.0 791.0 1488.0ZM430.0 570.0Q410.0 728.0 385.0 897.5Q360.0 1067.0 336.0 1211.0Q364.0 1217.0 389.0 1223.5Q414.0 1230.0 438.0 1236.0Q475.0 1079.0 490.5 910.5Q506.0 742.0 512.0 570.0Z" fill="black"></path></svg>