<?xml version="1.0" standalone="no"?>
<!DOCTYPE svg PUBLIC "-//W3C//DTD SVG 1.1//EN" "http://www.w3.org/Graphics/SVG/1.1/DTD/svg11.dtd" >
<svg xmlns="http://www.w3.org/2000/svg" xmlns:svg="http://www.w3.org/2000/svg" xmlns:xlink="http://www.w3.org/1999/xlink" viewBox="0 0 2048 2048" style=""><path d="M87.0 1522.0H804.0Q821.0 1475.0 828.5 1424.0Q836.0 1373.0 841.0 1320.0H697.0V1354.0Q697.0 1367.0 660.0 1388.0Q623.0 1409.0 566.5 1426.0Q510.0 1443.0 452.0 1443.0H411.0V654.0L714.0 769.0H1330.0L1457.0 634.0L1715.0 826.0Q1706.0 838.0 1688.5 849.5Q1671.0 861.0 1641.0 867.0V1330.0Q1640.0 1339.0 1601.0 1358.0Q1562.0 1377.0 1506.5 1392.5Q1451.0 1408.0 1402.0 1408.0H1351.0V1320.0H1152.0Q1146.0 1375.0 1136.0 1425.5Q1126.0 1476.0 1111.0 1522.0H1576.0L1715.0 1350.0Q1715.0 1350.0 1740.5 1369.0Q1766.0 1388.0 1806.0 1418.0Q1846.0 1448.0 1890.0 1482.0Q1934.0 1516.0 1971.0 1547.0Q1962.0 1580.0 1912.0 1580.0H1166.0Q1258.0 1638.0 1392.0 1666.0Q1526.0 1694.0 1680.0 1700.5Q1834.0 1707.0 1988.0 1701.0L1990.0 1723.0Q1913.0 1752.0 1868.0 1822.5Q1823.0 1893.0 1809.0 1996.0Q1562.0 1948.0 1383.0 1857.0Q1204.0 1766.0 1103.0 1580.0H1088.0Q1051.0 1658.0 981.0 1724.0Q911.0 1790.0 794.0 1842.5Q677.0 1895.0 499.5 1934.0Q322.0 1973.0 71.0 1998.0L58.0 1971.0Q285.0 1917.0 429.5 1855.5Q574.0 1794.0 656.5 1725.5Q739.0 1657.0 779.0 1580.0H103.0ZM1351.0 1262.0V1070.0H697.0V1262.0ZM1351.0 1012.0V826.0H697.0V1012.0ZM320.0 150.0H347.0Q361.0 181.0 370.5 211.0Q380.0 241.0 386.0 269.0H877.0V50.0L1248.0 77.0Q1245.0 98.0 1231.0 113.0Q1217.0 128.0 1174.0 134.0V269.0H1607.0L1740.0 134.0L1975.0 355.0Q1953.0 377.0 1895.0 380.0Q1858.0 406.0 1805.0 433.5Q1752.0 461.0 1697.0 484.0L1805.0 568.0Q1796.0 601.0 1748.0 601.0H1379.0V662.0Q1379.0 669.0 1344.5 680.5Q1310.0 692.0 1258.0 700.5Q1206.0 709.0 1154.0 709.0H1107.0V601.0H912.0V670.0Q912.0 678.0 878.0 689.5Q844.0 701.0 793.0 710.5Q742.0 720.0 691.0 720.0H646.0V601.0H349.0L335.0 550.0Q314.0 570.0 290.0 582.0Q236.0 609.0 172.5 586.5Q109.0 564.0 91.0 498.0Q76.0 434.0 109.0 389.5Q142.0 345.0 198.0 322.0Q241.0 302.0 283.0 254.0Q325.0 206.0 320.0 150.0ZM1107.0 357.0 1445.0 386.0Q1442.0 404.0 1429.0 417.5Q1416.0 431.0 1379.0 437.0V543.0H1457.0L1580.0 398.0L1613.0 421.0L1625.0 326.0H396.0Q402.0 399.0 387.0 453.5Q372.0 508.0 341.0 543.0H646.0V357.0L980.0 384.0Q977.0 402.0 963.0 416.0Q949.0 430.0 912.0 435.0V543.0H1107.0Z" fill="black"></path></svg>