<?xml version="1.0" standalone="no"?>
<!DOCTYPE svg PUBLIC "-//W3C//DTD SVG 1.1//EN" "http://www.w3.org/Graphics/SVG/1.1/DTD/svg11.dtd" >
<svg xmlns="http://www.w3.org/2000/svg" xmlns:svg="http://www.w3.org/2000/svg" xmlns:xlink="http://www.w3.org/1999/xlink" viewBox="0 0 2048 2048" style=""><path d="M490.5 478.0Q626.5 498.0 702.0 540.0Q777.5 582.0 804.5 632.0Q831.5 682.0 821.0 727.5Q810.5 773.0 773.5 802.0Q736.5 831.0 685.5 831.5Q634.5 832.0 580.5 789.0Q574.5 709.0 542.0 628.0Q509.5 547.0 473.5 488.0ZM713.5 1221.0V1436.0H1336.5V1221.0ZM713.5 1164.0H1336.5V959.0H713.5ZM426.5 902.0V783.0L727.5 902.0H879.5V431.0L1231.5 460.0Q1230.5 478.0 1216.5 491.5Q1202.5 505.0 1166.5 511.0V902.0H1317.5L1436.5 769.0L1690.5 957.0Q1682.5 968.0 1667.0 977.5Q1651.5 987.0 1626.5 992.0V1674.0Q1626.5 1768.0 1603.0 1835.0Q1579.5 1902.0 1503.0 1942.0Q1426.5 1982.0 1268.5 1996.0Q1263.5 1925.0 1252.5 1874.0Q1241.5 1823.0 1217.5 1791.0Q1191.5 1757.0 1152.0 1733.5Q1112.5 1710.0 1030.5 1694.0V1670.0Q1030.5 1670.0 1064.5 1671.5Q1098.5 1673.0 1146.0 1675.0Q1193.5 1677.0 1236.0 1678.5Q1278.5 1680.0 1295.5 1680.0Q1319.5 1680.0 1328.0 1670.0Q1336.5 1660.0 1336.5 1641.0V1494.0H713.5V1901.0Q713.5 1917.0 677.5 1939.5Q641.5 1962.0 586.0 1980.0Q530.5 1998.0 469.5 1998.0H426.5ZM342.5 195.0H367.5Q401.5 273.0 416.5 339.0H869.5V50.0L1250.5 77.0Q1248.5 98.0 1234.0 113.0Q1219.5 128.0 1176.5 136.0V339.0H1600.5L1733.5 204.0L1966.5 425.0Q1954.5 439.0 1937.0 443.5Q1919.5 448.0 1886.5 451.0Q1830.5 502.0 1743.0 563.0Q1655.5 624.0 1579.5 662.0L1561.5 650.0L1567.5 625.0H1553.5Q1479.5 685.0 1395.0 739.0Q1310.5 793.0 1235.5 828.0L1211.5 814.0Q1234.5 749.0 1260.5 652.5Q1286.5 556.0 1309.5 460.0L1581.5 566.0Q1591.5 523.0 1600.0 478.5Q1608.5 434.0 1614.5 396.0H426.5Q442.5 510.0 413.0 590.5Q383.5 671.0 328.5 709.0Q291.5 735.0 245.5 735.5Q199.5 736.0 160.5 713.0Q121.5 690.0 105.5 644.0Q83.5 579.0 113.0 529.0Q142.5 479.0 199.5 451.0Q232.5 431.0 266.5 391.5Q300.5 352.0 323.0 301.5Q345.5 251.0 342.5 195.0Z" fill="black"></path></svg>