<?xml version="1.0" standalone="no"?>
<!DOCTYPE svg PUBLIC "-//W3C//DTD SVG 1.1//EN" "http://www.w3.org/Graphics/SVG/1.1/DTD/svg11.dtd" >
<svg xmlns="http://www.w3.org/2000/svg" xmlns:svg="http://www.w3.org/2000/svg" xmlns:xlink="http://www.w3.org/1999/xlink" viewBox="0 0 2048 2048" style=""><path d="M330.0 181.0H354.0Q374.0 222.0 387.0 262.0Q400.0 302.0 410.0 339.0H868.0V50.0L1249.0 77.0Q1248.0 98.0 1233.5 113.0Q1219.0 128.0 1176.0 136.0V339.0H1610.0L1749.0 199.0L1991.0 427.0Q1978.0 441.0 1960.5 445.5Q1943.0 450.0 1911.0 453.0Q1860.0 489.0 1789.5 528.0Q1719.0 567.0 1649.0 599.0L1720.0 658.0Q1717.0 675.0 1700.5 683.0Q1684.0 691.0 1663.0 691.0H1182.0Q1212.0 811.0 1260.5 912.5Q1309.0 1014.0 1370.0 1098.0Q1445.0 1005.0 1515.5 901.0Q1586.0 797.0 1624.0 724.0L1939.0 945.0Q1932.0 959.0 1914.0 966.0Q1896.0 973.0 1860.0 965.0Q1774.0 1016.0 1659.5 1070.0Q1545.0 1124.0 1423.0 1168.0Q1543.0 1311.0 1694.0 1411.0Q1845.0 1511.0 2005.0 1582.0L1999.0 1604.0Q1809.0 1630.0 1726.0 1842.0Q1570.0 1718.0 1455.0 1563.5Q1340.0 1409.0 1264.0 1197.5Q1188.0 986.0 1147.0 691.0H1143.0Q1042.0 783.0 895.0 861.0Q1017.0 952.0 1094.5 1067.0Q1172.0 1182.0 1212.0 1304.0Q1252.0 1426.0 1258.5 1541.5Q1265.0 1657.0 1244.5 1750.5Q1224.0 1844.0 1182.0 1899.0Q1139.0 1955.0 1052.0 1976.5Q965.0 1998.0 844.0 1998.0Q841.0 1875.0 793.0 1815.0Q752.0 1765.0 618.0 1727.0V1707.0Q661.0 1711.0 713.5 1714.5Q766.0 1718.0 812.0 1720.5Q858.0 1723.0 883.0 1723.0Q904.0 1723.0 920.0 1718.5Q936.0 1714.0 944.0 1701.0Q958.0 1673.0 968.0 1626.5Q978.0 1580.0 981.0 1518.0Q787.0 1620.0 546.5 1697.5Q306.0 1775.0 55.0 1809.0L43.0 1785.0Q220.0 1726.0 392.0 1633.5Q564.0 1541.0 710.0 1427.5Q856.0 1314.0 956.0 1193.0L950.0 1166.0Q839.0 1228.0 700.5 1285.5Q562.0 1343.0 412.0 1390.0Q262.0 1437.0 115.0 1467.0L104.0 1445.0Q244.0 1383.0 384.5 1290.5Q525.0 1198.0 646.0 1092.5Q767.0 987.0 848.0 885.0Q691.0 965.0 506.0 1025.5Q321.0 1086.0 125.0 1127.0L115.0 1105.0Q299.0 1026.0 462.0 913.0Q625.0 800.0 737.0 691.0H395.0L379.0 634.0H1321.0L1464.0 451.0L1573.0 537.0Q1587.0 502.0 1598.0 466.0Q1609.0 430.0 1618.0 396.0H418.0Q433.0 511.0 399.0 590.5Q365.0 670.0 305.0 705.0Q266.0 730.0 220.5 729.0Q175.0 728.0 136.5 703.5Q98.0 679.0 82.0 632.0Q62.0 564.0 94.0 514.5Q126.0 465.0 184.0 437.0Q219.0 418.0 254.0 379.0Q289.0 340.0 311.5 288.5Q334.0 237.0 330.0 181.0Z" fill="black"></path></svg>