<?xml version="1.0" standalone="no"?>
<!DOCTYPE svg PUBLIC "-//W3C//DTD SVG 1.1//EN" "http://www.w3.org/Graphics/SVG/1.1/DTD/svg11.dtd" >
<svg xmlns="http://www.w3.org/2000/svg" xmlns:svg="http://www.w3.org/2000/svg" xmlns:xlink="http://www.w3.org/1999/xlink" viewBox="0 0 2048 2048" style=""><path d="M221.0 53.0 537.0 84.0Q534.0 105.0 518.0 120.0Q502.0 135.0 459.0 141.0Q454.0 207.0 444.0 304.5Q434.0 402.0 420.0 516.0H463.0L586.0 381.0L719.0 495.0L715.0 477.0H1045.0Q1062.0 440.0 1076.5 402.0Q1091.0 364.0 1100.0 327.0Q927.0 337.0 756.0 340.0L752.0 311.0Q862.0 288.0 984.5 256.5Q1107.0 225.0 1227.0 189.5Q1347.0 154.0 1451.5 118.0Q1556.0 82.0 1630.0 51.0L1852.0 274.0Q1811.0 304.0 1721.0 268.0Q1651.0 277.0 1569.5 286.5Q1488.0 296.0 1397.0 305.0Q1359.0 400.0 1303.0 477.0H1628.0L1757.0 319.0Q1757.0 319.0 1797.0 349.0Q1837.0 379.0 1891.5 421.5Q1946.0 464.0 1991.0 502.0Q1982.0 534.0 1934.0 534.0H1571.0Q1660.0 582.0 1780.5 612.0Q1901.0 642.0 2013.0 653.0L2011.0 676.0Q1883.0 713.0 1845.0 899.0Q1810.0 882.0 1777.0 862.0Q1744.0 842.0 1714.0 819.0V981.0Q1713.0 990.0 1678.0 1006.5Q1643.0 1023.0 1594.0 1036.5Q1545.0 1050.0 1503.0 1050.0H1456.0V985.0H1245.0V1020.0Q1245.0 1030.0 1191.5 1057.5Q1138.0 1085.0 1045.0 1085.0H1000.0V751.0Q881.0 824.0 738.0 874.0L723.0 850.0Q815.0 787.0 888.5 706.0Q962.0 625.0 1014.0 534.0H766.0L817.0 577.0Q802.0 605.0 740.0 616.0Q727.0 811.0 701.0 1005.0Q675.0 1199.0 602.0 1374.0Q686.0 1437.0 722.0 1503.0Q758.0 1569.0 757.0 1626.5Q756.0 1684.0 726.5 1721.5Q697.0 1759.0 648.0 1764.5Q599.0 1770.0 541.0 1732.0Q532.0 1699.0 517.5 1663.5Q503.0 1628.0 486.0 1593.0Q412.0 1698.0 306.5 1790.0Q201.0 1882.0 56.0 1956.0L37.0 1933.0Q163.0 1826.0 244.5 1692.5Q326.0 1559.0 375.0 1407.0L307.0 1319.0L295.0 1394.0Q261.0 1422.0 193.0 1428.5Q125.0 1435.0 45.0 1415.0Q67.0 1315.0 90.0 1176.0Q113.0 1037.0 135.5 881.0Q158.0 725.0 176.0 573.0H53.0L35.0 516.0H183.0Q198.0 376.0 209.0 255.0Q220.0 134.0 221.0 53.0ZM1487.0 534.0H1258.0Q1235.0 562.0 1209.0 587.0Q1183.0 612.0 1157.0 637.0L1272.0 680.0H1440.0L1520.0 598.0ZM1123.0 1313.0V1229.0L1336.0 1313.0H1379.0L1465.0 1224.0L1643.0 1358.0Q1628.0 1379.0 1585.0 1388.0V1667.0Q1584.0 1675.0 1551.5 1689.0Q1519.0 1703.0 1481.0 1712.0L1630.0 1718.0Q1652.0 1718.0 1658.5 1709.0Q1665.0 1700.0 1665.0 1683.0V1196.0H1041.0V1915.0Q1041.0 1927.0 1010.0 1946.0Q979.0 1965.0 930.5 1980.0Q882.0 1995.0 830.0 1995.0H793.0V1036.0L1055.0 1138.0H1645.0L1753.0 1016.0L1991.0 1194.0Q1982.0 1204.0 1964.0 1215.0Q1946.0 1226.0 1917.0 1231.0V1712.0Q1917.0 1795.0 1897.5 1854.0Q1878.0 1913.0 1815.0 1948.5Q1752.0 1984.0 1622.0 1997.0Q1619.0 1935.0 1611.5 1890.5Q1604.0 1846.0 1587.0 1816.0Q1569.0 1789.0 1540.0 1769.0Q1511.0 1749.0 1452.0 1739.0V1716.0L1428.0 1718.0H1395.0V1640.0H1309.0V1706.0Q1309.0 1715.0 1267.5 1738.0Q1226.0 1761.0 1155.0 1761.0H1123.0ZM1456.0 737.0H1245.0V928.0H1456.0ZM1395.0 1370.0H1309.0V1583.0H1395.0ZM414.0 573.0Q394.0 738.0 369.5 914.5Q345.0 1091.0 322.0 1239.0L412.0 1270.0Q450.0 1107.0 465.0 930.0Q480.0 753.0 484.0 573.0Z" fill="black"></path></svg>