<?xml version="1.0" standalone="no"?>
<!DOCTYPE svg PUBLIC "-//W3C//DTD SVG 1.1//EN" "http://www.w3.org/Graphics/SVG/1.1/DTD/svg11.dtd" >
<svg xmlns="http://www.w3.org/2000/svg" xmlns:svg="http://www.w3.org/2000/svg" xmlns:xlink="http://www.w3.org/1999/xlink" viewBox="0 0 2048 2048" style=""><path d="M306.5 179.5H330.5Q369.5 262.5 383.5 330.5H859.5V52.5L1240.5 79.5Q1238.5 100.5 1224.0 115.5Q1209.5 130.5 1166.5 138.5V330.5H1614.5L1754.5 191.5L1995.5 419.5Q1983.5 432.5 1966.0 437.5Q1948.5 442.5 1915.5 445.5Q1857.5 490.5 1771.0 541.5Q1684.5 592.5 1606.5 625.5L1661.5 668.5Q1652.5 681.5 1632.5 694.0Q1612.5 706.5 1579.5 713.5V1064.5Q1578.5 1073.5 1539.0 1090.5Q1499.5 1107.5 1444.0 1121.5Q1388.5 1135.5 1340.5 1135.5H1289.5V1023.5H1186.5Q1139.5 1095.5 1076.5 1180.5Q1013.5 1265.5 955.5 1330.5H1418.5L1547.5 1191.5L1811.5 1389.5Q1802.5 1402.5 1782.0 1415.0Q1761.5 1427.5 1729.5 1434.5V1903.5Q1728.5 1911.5 1689.0 1929.5Q1649.5 1947.5 1594.5 1962.5Q1539.5 1977.5 1489.5 1977.5H1438.5V1813.5H598.5V1907.5Q598.5 1920.5 561.5 1941.5Q524.5 1962.5 468.0 1979.0Q411.5 1995.5 353.5 1995.5H312.5V1215.5L617.5 1330.5H838.5Q844.5 1261.5 847.5 1175.5Q850.5 1089.5 850.5 1023.5H752.5V1072.5Q752.5 1084.5 715.5 1105.0Q678.5 1125.5 621.5 1142.0Q564.5 1158.5 504.5 1158.5H465.5V496.5L764.5 609.5H1268.5L1395.5 470.5L1575.5 605.5Q1589.5 557.5 1603.5 498.0Q1617.5 438.5 1627.5 388.5H394.5Q409.5 497.5 380.5 575.0Q351.5 652.5 297.5 689.5Q262.5 714.5 216.0 714.5Q169.5 714.5 130.0 690.0Q90.5 665.5 72.5 617.5Q52.5 550.5 83.5 499.5Q114.5 448.5 173.5 421.5Q203.5 401.5 236.0 364.0Q268.5 326.5 289.5 278.5Q310.5 230.5 306.5 179.5ZM752.5 965.5H1289.5V666.5H752.5ZM598.5 1756.5H1438.5V1387.5H598.5Z" fill="black"></path></svg>