<?xml version="1.0" standalone="no"?>
<!DOCTYPE svg PUBLIC "-//W3C//DTD SVG 1.1//EN" "http://www.w3.org/Graphics/SVG/1.1/DTD/svg11.dtd" >
<svg xmlns="http://www.w3.org/2000/svg" xmlns:svg="http://www.w3.org/2000/svg" xmlns:xlink="http://www.w3.org/1999/xlink" viewBox="0 0 2048 2048" style=""><path d="M1246.0 943.5H925.0Q885.0 1046.5 839.5 1154.5Q794.0 1262.5 753.0 1359.5Q843.0 1363.5 926.0 1372.5Q1009.0 1381.5 1082.0 1391.5Q1200.0 1207.5 1246.0 943.5ZM765.0 488.5 1142.0 558.5Q1137.0 579.5 1117.5 594.0Q1098.0 608.5 1054.0 609.5Q1035.0 658.5 1008.0 731.0Q981.0 803.5 949.0 886.5H1580.0L1725.0 693.5Q1725.0 693.5 1752.0 714.5Q1779.0 735.5 1820.5 769.0Q1862.0 802.5 1907.5 840.0Q1953.0 877.5 1990.0 910.5Q1981.0 943.5 1930.0 943.5H1576.0Q1542.0 1097.5 1495.0 1224.0Q1448.0 1350.5 1379.0 1455.5Q1557.0 1506.5 1665.0 1572.0Q1773.0 1637.5 1823.0 1705.5Q1873.0 1773.5 1876.0 1833.5Q1879.0 1893.5 1847.5 1934.5Q1816.0 1975.5 1760.0 1987.5Q1704.0 1999.5 1637.0 1969.5Q1573.0 1903.5 1462.0 1818.5Q1351.0 1733.5 1205.0 1647.5Q1036.0 1786.5 763.0 1868.5Q490.0 1950.5 66.0 1989.5L58.0 1963.5Q384.0 1886.5 608.5 1782.5Q833.0 1678.5 978.0 1525.5Q918.0 1495.5 855.0 1468.5Q792.0 1441.5 726.0 1416.5L665.0 1549.5Q612.0 1572.5 526.0 1569.5Q440.0 1566.5 349.0 1529.5Q385.0 1458.5 428.5 1363.0Q472.0 1267.5 518.0 1159.0Q564.0 1050.5 607.0 943.5H89.0L73.0 886.5H630.0Q676.0 766.5 712.0 661.5Q748.0 556.5 765.0 488.5ZM331.0 214.5H353.0Q375.0 260.5 390.0 302.5Q405.0 344.5 413.0 384.5H869.0V48.5L1250.0 75.5Q1249.0 96.5 1234.5 111.5Q1220.0 126.5 1177.0 134.5V384.5H1596.0L1742.0 240.5L1990.0 474.5Q1968.0 498.5 1910.0 501.5Q1863.0 541.5 1797.5 586.5Q1732.0 631.5 1661.5 673.0Q1591.0 714.5 1529.0 742.5L1514.0 730.5Q1539.0 670.5 1565.5 590.0Q1592.0 509.5 1609.0 441.5H423.0Q437.0 550.5 407.5 628.5Q378.0 706.5 325.0 744.5Q288.0 772.5 241.0 773.0Q194.0 773.5 153.5 748.5Q113.0 723.5 95.0 675.5Q72.0 607.5 103.5 555.5Q135.0 503.5 191.0 474.5Q224.0 453.5 258.0 414.0Q292.0 374.5 313.5 322.5Q335.0 270.5 331.0 214.5Z" fill="black"></path></svg>