<?xml version="1.0" standalone="no"?>
<!DOCTYPE svg PUBLIC "-//W3C//DTD SVG 1.1//EN" "http://www.w3.org/Graphics/SVG/1.1/DTD/svg11.dtd" >
<svg xmlns="http://www.w3.org/2000/svg" xmlns:svg="http://www.w3.org/2000/svg" xmlns:xlink="http://www.w3.org/1999/xlink" viewBox="0 0 2048 2048" style=""><path d="M625.0 428.0 948.0 565.0Q942.0 580.0 925.5 590.5Q909.0 601.0 873.0 600.0Q807.0 674.0 709.5 748.0Q612.0 822.0 495.5 884.5Q379.0 947.0 256.0 987.0L240.0 966.0Q323.0 895.0 398.0 800.0Q473.0 705.0 532.0 607.0Q591.0 509.0 625.0 428.0ZM1284.0 1833.0H752.0V1911.0Q752.0 1923.0 715.0 1944.0Q678.0 1965.0 621.0 1982.0Q564.0 1999.0 506.0 1999.0H465.0V1356.0Q365.0 1405.0 260.5 1446.5Q156.0 1488.0 53.0 1517.0L43.0 1495.0Q178.0 1422.0 306.5 1321.5Q435.0 1221.0 544.0 1108.5Q653.0 996.0 729.0 884.5Q805.0 773.0 834.0 678.0L1243.0 780.0Q1237.0 802.0 1214.0 812.5Q1191.0 823.0 1137.0 829.0Q1208.0 902.0 1312.0 959.0Q1416.0 1016.0 1536.0 1057.5Q1656.0 1099.0 1777.0 1125.5Q1898.0 1152.0 2005.0 1163.0V1196.0Q1945.0 1215.0 1901.0 1260.0Q1857.0 1305.0 1831.0 1361.5Q1805.0 1418.0 1798.0 1472.0Q1755.0 1457.0 1714.5 1438.0Q1674.0 1419.0 1634.0 1399.0Q1627.0 1406.0 1612.5 1414.5Q1598.0 1423.0 1575.0 1427.0V1913.0Q1574.0 1921.0 1534.0 1937.0Q1494.0 1953.0 1438.5 1966.5Q1383.0 1980.0 1335.0 1980.0H1284.0ZM1284.0 1775.0V1390.0H752.0V1775.0ZM1106.0 852.0Q1029.0 964.0 900.0 1073.0Q771.0 1182.0 612.0 1276.0L766.0 1333.0H1266.0L1372.0 1216.0Q1286.0 1139.0 1218.5 1047.5Q1151.0 956.0 1106.0 852.0ZM1096.0 481.0Q1269.0 476.0 1388.0 504.5Q1507.0 533.0 1579.0 579.0Q1595.0 533.0 1608.5 477.5Q1622.0 422.0 1632.0 375.0H406.0Q418.0 485.0 388.0 563.0Q358.0 641.0 305.0 678.0Q269.0 704.0 223.0 706.0Q177.0 708.0 137.0 685.0Q97.0 662.0 80.0 616.0Q59.0 552.0 88.0 502.5Q117.0 453.0 172.0 424.0Q206.0 403.0 242.0 363.5Q278.0 324.0 302.5 272.0Q327.0 220.0 326.0 164.0H350.0Q367.0 205.0 379.0 243.5Q391.0 282.0 397.0 317.0H860.0V49.0L1241.0 76.0Q1240.0 97.0 1225.5 112.0Q1211.0 127.0 1168.0 135.0V317.0H1620.0L1759.0 178.0L2001.0 405.0Q1989.0 419.0 1971.0 424.0Q1953.0 429.0 1921.0 432.0Q1866.0 476.0 1783.5 526.5Q1701.0 577.0 1624.0 614.0Q1689.0 671.0 1705.0 734.0Q1721.0 797.0 1698.0 848.0Q1675.0 899.0 1621.5 920.0Q1568.0 941.0 1495.0 913.0Q1451.0 837.0 1382.0 759.0Q1313.0 681.0 1234.0 612.5Q1155.0 544.0 1081.0 495.0Z" fill="black"></path></svg>