<?xml version="1.0" standalone="no"?>
<!DOCTYPE svg PUBLIC "-//W3C//DTD SVG 1.1//EN" "http://www.w3.org/Graphics/SVG/1.1/DTD/svg11.dtd" >
<svg xmlns="http://www.w3.org/2000/svg" xmlns:svg="http://www.w3.org/2000/svg" xmlns:xlink="http://www.w3.org/1999/xlink" viewBox="0 0 2048 2048" style=""><path d="M280.0 234.5H1400.0L1568.0 74.5L1842.0 312.5Q1822.0 337.5 1758.0 342.5Q1643.0 413.5 1500.5 491.0Q1358.0 568.5 1216.0 631.5L1250.0 633.5Q1245.0 677.5 1181.0 688.5V965.5H1508.0L1676.0 752.5Q1676.0 752.5 1706.5 775.5Q1737.0 798.5 1784.5 835.0Q1832.0 871.5 1884.0 912.5Q1936.0 953.5 1979.0 990.5Q1971.0 1022.5 1918.0 1022.5H1181.0V1626.5Q1181.0 1728.5 1152.5 1800.0Q1124.0 1871.5 1035.0 1914.5Q946.0 1957.5 765.0 1973.5Q756.0 1897.5 741.0 1845.5Q726.0 1793.5 687.0 1758.5Q650.0 1722.5 598.0 1697.0Q546.0 1671.5 435.0 1651.5V1626.5Q435.0 1626.5 468.5 1628.5Q502.0 1630.5 553.5 1633.5Q605.0 1636.5 659.5 1639.0Q714.0 1641.5 758.0 1643.5Q802.0 1645.5 820.0 1645.5Q867.0 1645.5 867.0 1606.5V1022.5H85.0L69.0 965.5H867.0V600.5L1121.0 623.5Q1194.0 548.5 1265.5 457.0Q1337.0 365.5 1388.0 291.5H298.0Z" fill="black"></path></svg>