<?xml version="1.0" standalone="no"?>
<!DOCTYPE svg PUBLIC "-//W3C//DTD SVG 1.1//EN" "http://www.w3.org/Graphics/SVG/1.1/DTD/svg11.dtd" >
<svg xmlns="http://www.w3.org/2000/svg" xmlns:svg="http://www.w3.org/2000/svg" xmlns:xlink="http://www.w3.org/1999/xlink" viewBox="0 0 2048 2048" style=""><path d="M195.5 1147.0V1040.0L465.5 1147.0H666.5L781.5 1018.0H74.5L58.5 960.0H379.5Q356.5 957.0 332.0 944.5Q307.5 932.0 285.5 907.0Q297.5 843.0 289.0 777.0Q280.5 711.0 260.5 665.0H129.5L113.5 608.0H435.5V399.0L766.5 426.0Q765.5 444.0 752.0 457.5Q738.5 471.0 701.5 477.0V608.0H760.5L871.5 477.0Q871.5 477.0 906.5 502.5Q941.5 528.0 990.0 564.0Q1038.5 600.0 1078.5 633.0Q1069.5 665.0 1022.5 665.0H695.5L961.5 731.0Q956.5 749.0 939.0 761.0Q921.5 773.0 887.5 772.0Q847.5 815.0 792.5 864.5Q737.5 914.0 678.5 960.0H799.5L910.5 831.0Q910.5 831.0 945.0 856.0Q979.5 881.0 1027.0 916.5Q1074.5 952.0 1112.5 985.0Q1106.5 1018.0 1059.5 1018.0H785.5L1035.5 1204.0Q1025.5 1216.0 1005.5 1229.0Q985.5 1242.0 953.5 1247.0V1726.0Q953.5 1807.0 934.0 1864.5Q914.5 1922.0 852.0 1956.0Q789.5 1990.0 660.5 2001.0Q658.5 1942.0 654.0 1899.5Q649.5 1857.0 635.5 1831.0Q623.5 1805.0 601.0 1784.5Q578.5 1764.0 529.5 1755.0V1728.0Q529.5 1728.0 554.0 1729.5Q578.5 1731.0 608.5 1732.5Q638.5 1734.0 656.5 1734.0Q686.5 1734.0 686.5 1702.0V1597.0H457.5V1911.0Q457.5 1923.0 425.0 1943.0Q392.5 1963.0 341.0 1979.0Q289.5 1995.0 234.5 1995.0H195.5ZM308.5 665.0Q423.5 700.0 473.0 747.0Q522.5 794.0 524.5 840.5Q526.5 887.0 495.5 920.0Q464.5 953.0 418.5 960.0H619.5Q630.5 894.0 640.0 812.5Q649.5 731.0 654.5 665.0ZM1112.5 1038.0V928.0L1407.5 1038.0H1588.5V878.0H1360.5Q1330.5 894.0 1271.5 907.5Q1212.5 921.0 1155.5 921.0H1112.5V391.0L1454.5 418.0Q1453.5 436.0 1440.5 450.5Q1427.5 465.0 1389.5 471.0V614.0H1645.5L1760.5 477.0Q1760.5 477.0 1795.5 503.5Q1830.5 530.0 1879.5 567.5Q1928.5 605.0 1969.5 639.0Q1960.5 672.0 1913.5 672.0H1389.5V821.0H1569.5L1684.5 702.0L1919.5 876.0Q1912.5 886.0 1896.5 895.5Q1880.5 905.0 1854.5 909.0V1065.0Q1852.5 1074.0 1805.5 1093.5Q1758.5 1113.0 1702.5 1124.0Q1731.5 1147.0 1775.0 1180.5Q1818.5 1214.0 1854.5 1243.0Q1845.5 1276.0 1799.5 1276.0H1667.5Q1687.5 1291.0 1739.0 1330.5Q1790.5 1370.0 1833.5 1407.0Q1827.5 1440.0 1780.5 1440.0H1692.5Q1715.5 1456.0 1761.0 1490.5Q1806.5 1525.0 1848.5 1558.0L1874.5 1489.0H1895.5L1901.5 1714.0Q1955.5 1735.0 1972.5 1760.0Q1989.5 1785.0 1989.5 1818.0Q1989.5 1872.0 1951.0 1905.0Q1912.5 1938.0 1820.5 1953.0Q1728.5 1968.0 1567.5 1968.0H1377.5Q1269.5 1968.0 1212.5 1949.0Q1155.5 1930.0 1134.0 1882.5Q1112.5 1835.0 1112.5 1749.0ZM1588.5 1095.0H1379.5V1218.0H1563.5L1637.5 1132.0H1588.5ZM686.5 1397.0H457.5V1540.0H686.5ZM686.5 1339.0V1204.0H457.5V1339.0ZM1645.5 1276.0H1379.5V1382.0H1553.5ZM1665.5 1440.0H1379.5V1550.0H1573.5ZM1379.5 1607.0V1691.0Q1379.5 1714.0 1391.0 1723.0Q1402.5 1732.0 1442.5 1732.0H1598.5Q1635.5 1732.0 1669.0 1732.0Q1702.5 1732.0 1721.5 1730.0Q1739.5 1729.0 1753.0 1724.5Q1766.5 1720.0 1778.5 1706.0Q1787.5 1692.0 1800.5 1666.5Q1813.5 1641.0 1827.5 1605.0L1813.5 1607.0ZM299.5 145.0H326.5Q356.5 215.0 369.5 278.0H850.5V47.0L1231.5 74.0Q1230.5 95.0 1216.0 110.0Q1201.5 125.0 1158.5 133.0V278.0H1594.5L1729.5 143.0L1964.5 364.0Q1952.5 378.0 1935.0 383.0Q1917.5 388.0 1885.5 391.0Q1825.5 436.0 1734.0 486.0Q1642.5 536.0 1565.5 567.0L1549.5 555.0Q1564.5 510.0 1580.0 449.5Q1595.5 389.0 1606.5 336.0H375.5Q380.5 425.0 350.0 485.0Q319.5 545.0 269.5 569.0Q215.5 595.0 153.0 573.0Q90.5 551.0 72.5 485.0Q58.5 422.0 92.0 378.5Q125.5 335.0 179.5 313.0Q222.5 293.0 263.5 246.0Q304.5 199.0 299.5 145.0Z" fill="black"></path></svg>