<?xml version="1.0" standalone="no"?>
<!DOCTYPE svg PUBLIC "-//W3C//DTD SVG 1.1//EN" "http://www.w3.org/Graphics/SVG/1.1/DTD/svg11.dtd" >
<svg xmlns="http://www.w3.org/2000/svg" xmlns:svg="http://www.w3.org/2000/svg" xmlns:xlink="http://www.w3.org/1999/xlink" viewBox="0 0 2048 2048" style=""><path d="M305.5 254.0H330.5Q347.5 288.0 359.0 321.0Q370.5 354.0 379.5 385.0H862.5V49.0L1243.5 76.0Q1242.5 97.0 1228.0 112.0Q1213.5 127.0 1170.5 135.0V385.0H1591.5L1735.5 241.0L1983.5 475.0Q1969.5 487.0 1952.0 492.5Q1934.5 498.0 1901.5 502.0Q1842.5 542.0 1755.5 586.0Q1668.5 630.0 1589.5 657.0L1712.5 760.0Q1703.5 792.0 1655.5 792.0H1170.5V1128.0H1581.5L1725.5 940.0Q1725.5 940.0 1752.0 960.5Q1778.5 981.0 1819.0 1014.0Q1859.5 1047.0 1904.5 1084.0Q1949.5 1121.0 1985.5 1153.0Q1976.5 1186.0 1927.5 1186.0H1170.5V1640.0Q1170.5 1739.0 1143.0 1815.0Q1115.5 1891.0 1031.0 1938.5Q946.5 1986.0 776.5 1999.0Q773.5 1923.0 760.0 1867.0Q746.5 1811.0 715.5 1777.0Q686.5 1745.0 640.0 1719.5Q593.5 1694.0 492.5 1677.0V1653.0Q492.5 1653.0 534.5 1655.0Q576.5 1657.0 635.5 1660.5Q694.5 1664.0 747.0 1666.5Q799.5 1669.0 819.5 1669.0Q862.5 1669.0 862.5 1630.0V1186.0H80.5L64.5 1128.0H862.5V792.0H387.5L371.5 735.0H1305.5L1450.5 551.0L1559.5 635.0Q1571.5 592.0 1584.0 540.0Q1596.5 488.0 1604.5 442.0H391.5Q410.5 553.0 383.0 631.5Q355.5 710.0 301.5 745.0Q265.5 769.0 220.5 767.5Q175.5 766.0 136.5 741.5Q97.5 717.0 82.5 670.0Q62.5 603.0 94.5 554.0Q126.5 505.0 182.5 477.0Q211.5 459.0 242.0 424.0Q272.5 389.0 291.5 345.0Q310.5 301.0 305.5 254.0Z" fill="black"></path></svg>