<?xml version="1.0" standalone="no"?>
<!DOCTYPE svg PUBLIC "-//W3C//DTD SVG 1.1//EN" "http://www.w3.org/Graphics/SVG/1.1/DTD/svg11.dtd" >
<svg xmlns="http://www.w3.org/2000/svg" xmlns:svg="http://www.w3.org/2000/svg" xmlns:xlink="http://www.w3.org/1999/xlink" viewBox="0 0 2048 2048" style=""><path d="M317.5 169.0H343.5Q356.5 198.0 365.0 225.5Q373.5 253.0 378.5 279.0H857.5V48.0L1238.5 75.0Q1237.5 96.0 1223.0 111.0Q1208.5 126.0 1165.5 134.0V279.0H1613.5L1748.5 144.0L1984.5 365.0Q1971.5 379.0 1954.0 384.0Q1936.5 389.0 1904.5 392.0Q1825.5 451.0 1707.5 507.0L1720.5 515.0Q1712.5 526.0 1697.0 535.5Q1681.5 545.0 1656.5 550.0V773.0Q1655.5 781.0 1619.0 798.0Q1582.5 815.0 1532.0 829.0Q1481.5 843.0 1437.5 843.0H1390.5V773.0H675.5V802.0Q675.5 812.0 641.5 830.0Q607.5 848.0 555.5 862.5Q503.5 877.0 450.5 877.0H415.5V357.0L691.5 462.0H1371.5L1486.5 343.0L1613.5 435.0L1629.5 337.0H388.5Q396.5 432.0 363.0 497.0Q329.5 562.0 274.5 587.0Q220.5 611.0 158.5 588.5Q96.5 566.0 79.5 498.0Q64.5 435.0 98.5 391.5Q132.5 348.0 186.5 326.0Q232.5 310.0 275.5 265.5Q318.5 221.0 317.5 169.0ZM675.5 716.0H759.5V519.0H675.5ZM1390.5 716.0V519.0H1304.5V716.0ZM982.5 716.0H1081.5V519.0H982.5ZM335.5 1721.0Q384.5 1718.0 457.0 1713.0Q529.5 1708.0 620.5 1701.0V1574.0Q498.5 1607.0 366.0 1631.0Q233.5 1655.0 93.5 1672.0L83.5 1647.0Q278.5 1595.0 446.0 1514.0Q613.5 1433.0 732.5 1344.0H693.5Q691.5 1356.0 655.0 1375.0Q618.5 1394.0 563.5 1409.0Q508.5 1424.0 452.5 1424.0H415.5V947.0L712.5 1058.0H1324.5L1431.5 945.0H79.5L63.5 888.0H1590.5L1724.5 726.0Q1724.5 726.0 1766.0 756.5Q1807.5 787.0 1865.0 830.0Q1922.5 873.0 1969.5 912.0Q1963.5 945.0 1912.5 945.0H1470.5L1697.5 1115.0Q1689.5 1126.0 1672.0 1137.0Q1654.5 1148.0 1625.5 1154.0V1326.0L1875.5 1506.0Q1866.5 1521.0 1849.0 1526.5Q1831.5 1532.0 1795.5 1525.0Q1735.5 1548.0 1659.0 1570.5Q1582.5 1593.0 1502.5 1613.0Q1611.5 1654.0 1734.5 1679.5Q1857.5 1705.0 1982.5 1719.0V1742.0Q1903.5 1765.0 1853.5 1829.0Q1803.5 1893.0 1783.5 1989.0Q1619.5 1934.0 1489.0 1855.5Q1358.5 1777.0 1263.5 1658.0V1662.0Q1148.5 1715.0 969.5 1787.0Q790.5 1859.0 528.5 1953.0Q509.5 1993.0 468.5 2000.0ZM696.5 1287.0H1345.5V1115.0H696.5ZM1345.5 1344.0H1140.5Q1188.5 1416.0 1256.0 1472.0Q1323.5 1528.0 1404.5 1570.0Q1449.5 1522.0 1493.0 1468.5Q1536.5 1415.0 1570.5 1369.0Q1535.5 1386.0 1486.5 1399.0Q1437.5 1412.0 1396.5 1412.0H1345.5ZM896.5 1479.0V1674.0L1246.5 1637.0Q1163.5 1527.0 1107.5 1363.0Q1061.5 1395.0 1008.5 1424.0Q955.5 1453.0 896.5 1479.0Z" fill="black"></path></svg>