<?xml version="1.0" standalone="no"?>
<!DOCTYPE svg PUBLIC "-//W3C//DTD SVG 1.1//EN" "http://www.w3.org/Graphics/SVG/1.1/DTD/svg11.dtd" >
<svg xmlns="http://www.w3.org/2000/svg" xmlns:svg="http://www.w3.org/2000/svg" xmlns:xlink="http://www.w3.org/1999/xlink" viewBox="0 0 2048 2048" style=""><path d="M774.5 1208.0Q910.5 1257.0 983.0 1319.5Q1055.5 1382.0 1078.0 1446.0Q1100.5 1510.0 1085.5 1563.0Q1070.5 1616.0 1030.5 1646.0Q990.5 1676.0 937.5 1671.0Q884.5 1666.0 832.5 1614.0Q839.5 1511.0 815.5 1405.0Q791.5 1299.0 754.5 1216.0ZM305.5 186.0H330.5Q365.5 260.0 381.5 330.0H858.5V49.0L1239.5 76.0Q1238.5 97.0 1224.0 112.0Q1209.5 127.0 1166.5 135.0V330.0H1600.5L1739.5 190.0L1981.5 418.0Q1968.5 431.0 1951.0 436.0Q1933.5 441.0 1901.5 444.0Q1858.5 475.0 1800.0 507.5Q1741.5 540.0 1680.5 571.0L1921.5 784.0Q1912.5 803.0 1894.5 810.0Q1876.5 817.0 1839.5 823.0Q1804.5 1009.0 1745.0 1176.5Q1685.5 1344.0 1583.5 1487.0Q1677.5 1563.0 1787.5 1619.5Q1897.5 1676.0 2020.5 1720.0L2015.5 1743.0Q1815.5 1778.0 1733.5 1995.0Q1633.5 1925.0 1553.5 1848.5Q1473.5 1772.0 1411.5 1675.0Q1291.5 1780.0 1127.5 1861.0Q963.5 1942.0 742.5 1995.0L729.5 1972.0Q932.5 1883.0 1076.5 1759.5Q1220.5 1636.0 1317.5 1483.0Q1266.5 1350.0 1234.0 1176.0Q1201.5 1002.0 1186.5 770.0H1090.5L1071.5 713.0H1528.5L1657.5 581.0Q1592.5 614.0 1530.5 637.0L1516.5 622.0Q1539.5 575.0 1563.5 509.5Q1587.5 444.0 1606.5 387.0H393.5Q409.5 499.0 378.0 577.0Q346.5 655.0 291.5 690.0Q254.5 715.0 210.0 714.0Q165.5 713.0 127.5 688.5Q89.5 664.0 74.5 618.0Q54.5 552.0 86.0 503.0Q117.5 454.0 172.5 428.0Q221.5 399.0 266.5 332.0Q311.5 265.0 305.5 186.0ZM1411.5 1300.0Q1463.5 1180.0 1497.0 1047.0Q1530.5 914.0 1548.5 770.0H1217.5Q1243.5 940.0 1293.0 1070.0Q1342.5 1200.0 1411.5 1300.0ZM60.5 1003.0H438.5V459.0L780.5 485.0Q779.5 505.0 766.0 518.5Q752.5 532.0 715.5 538.0V717.0H754.5L866.5 565.0Q866.5 565.0 902.0 594.0Q937.5 623.0 985.5 664.0Q1033.5 705.0 1071.5 741.0Q1062.5 774.0 1016.5 774.0H715.5V1003.0H801.5L928.5 844.0Q928.5 844.0 967.5 874.0Q1006.5 904.0 1059.5 947.0Q1112.5 990.0 1155.5 1028.0Q1146.5 1061.0 1100.5 1061.0H76.5ZM453.5 1069.0 797.5 1098.0Q791.5 1139.0 729.5 1151.0V1696.0Q729.5 1787.0 708.0 1850.0Q686.5 1913.0 617.0 1949.5Q547.5 1986.0 404.5 1999.0Q401.5 1936.0 394.5 1889.5Q387.5 1843.0 367.5 1812.0Q347.5 1783.0 315.5 1762.0Q283.5 1741.0 217.5 1728.0V1702.0Q217.5 1702.0 243.5 1703.5Q269.5 1705.0 306.0 1707.0Q342.5 1709.0 375.0 1710.5Q407.5 1712.0 420.5 1712.0Q453.5 1712.0 453.5 1685.0V1337.0L426.5 1339.0Q359.5 1487.0 264.5 1599.0Q169.5 1711.0 53.5 1784.0L27.5 1767.0Q84.5 1660.0 127.5 1508.0Q170.5 1356.0 189.5 1198.0L453.5 1280.0Z" fill="black"></path></svg>