<?xml version="1.0" standalone="no"?>
<!DOCTYPE svg PUBLIC "-//W3C//DTD SVG 1.1//EN" "http://www.w3.org/Graphics/SVG/1.1/DTD/svg11.dtd" >
<svg xmlns="http://www.w3.org/2000/svg" xmlns:svg="http://www.w3.org/2000/svg" xmlns:xlink="http://www.w3.org/1999/xlink" viewBox="0 0 2048 2048" style=""><path d="M759.0 1418.0V1778.0H1301.0V1418.0ZM787.0 1361.0H1283.0L1318.0 1324.0Q1244.0 1290.0 1175.0 1250.0Q1106.0 1210.0 1043.0 1162.0Q965.0 1210.0 879.0 1251.5Q793.0 1293.0 701.0 1330.0ZM1013.0 517.0Q994.0 543.0 973.0 568.0Q952.0 593.0 929.0 619.0H1209.0L1373.0 476.0L1613.0 701.0Q1600.0 720.0 1581.0 726.5Q1562.0 733.0 1521.0 736.0Q1397.0 902.0 1228.0 1035.0Q1404.0 1100.0 1599.5 1136.0Q1795.0 1172.0 1985.0 1189.0L1983.0 1215.0Q1893.0 1237.0 1838.0 1304.5Q1783.0 1372.0 1760.0 1475.0L1635.0 1443.0Q1628.0 1446.0 1618.5 1449.5Q1609.0 1453.0 1596.0 1455.0V1924.0Q1595.0 1931.0 1554.5 1947.0Q1514.0 1963.0 1457.5 1976.0Q1401.0 1989.0 1353.0 1989.0H1301.0V1836.0H759.0V1914.0Q759.0 1923.0 731.0 1942.5Q703.0 1962.0 651.0 1979.0Q599.0 1996.0 525.0 1996.0H472.0V1406.0Q283.0 1461.0 68.0 1492.0L56.0 1465.0Q293.0 1388.0 506.0 1276.5Q719.0 1165.0 890.0 1025.0Q797.0 929.0 728.0 812.0Q608.0 910.0 464.5 994.5Q321.0 1079.0 157.0 1135.0L142.0 1119.0Q279.0 1020.0 396.0 890.5Q513.0 761.0 599.5 627.0Q686.0 493.0 732.0 380.0L1113.0 472.0Q1107.0 492.0 1084.5 503.5Q1062.0 515.0 1013.0 517.0ZM1205.0 677.0H875.0Q851.0 701.0 826.0 724.5Q801.0 748.0 775.0 773.0Q866.0 861.0 994.0 933.0Q1057.0 873.0 1109.5 808.5Q1162.0 744.0 1205.0 677.0ZM345.0 171.0H370.0Q397.0 241.0 413.0 306.0H871.0V52.0L1252.0 79.0Q1251.0 100.0 1236.5 115.0Q1222.0 130.0 1179.0 138.0V306.0H1611.0L1750.0 165.0L1992.0 394.0Q1970.0 418.0 1912.0 421.0Q1853.0 470.0 1763.0 527.0Q1673.0 584.0 1596.0 619.0L1580.0 607.0Q1594.0 556.0 1606.0 489.0Q1618.0 422.0 1627.0 363.0H421.0Q435.0 480.0 401.0 561.0Q367.0 642.0 312.0 681.0Q275.0 706.0 230.5 707.5Q186.0 709.0 147.5 687.0Q109.0 665.0 93.0 621.0Q72.0 560.0 100.5 511.5Q129.0 463.0 181.0 435.0Q218.0 415.0 256.0 374.5Q294.0 334.0 319.5 281.5Q345.0 229.0 345.0 171.0Z" fill="black"></path></svg>