<?xml version="1.0" standalone="no"?>
<!DOCTYPE svg PUBLIC "-//W3C//DTD SVG 1.1//EN" "http://www.w3.org/Graphics/SVG/1.1/DTD/svg11.dtd" >
<svg xmlns="http://www.w3.org/2000/svg" xmlns:svg="http://www.w3.org/2000/svg" xmlns:xlink="http://www.w3.org/1999/xlink" viewBox="0 0 2048 2048" style=""><path d="M310.5 164.0H334.5Q348.5 193.0 358.0 220.5Q367.5 248.0 375.5 274.0H867.5V47.0L1237.5 74.0Q1234.5 95.0 1221.0 110.0Q1207.5 125.0 1164.5 131.0V274.0H1606.5L1741.5 139.0L1975.5 360.0Q1953.5 382.0 1895.5 385.0Q1846.5 420.0 1775.0 457.5Q1703.5 495.0 1633.5 524.0L1717.5 592.0Q1708.5 624.0 1659.5 624.0H1104.5Q1088.5 666.0 1063.5 702.0Q1273.5 700.0 1401.0 722.0Q1528.5 744.0 1590.0 780.0Q1651.5 816.0 1661.5 856.0Q1671.5 896.0 1644.5 931.0Q1617.5 966.0 1568.0 985.5Q1518.5 1005.0 1461.0 1000.0Q1403.5 995.0 1354.5 954.0Q1310.5 903.0 1231.0 847.0Q1151.5 791.0 1022.5 749.0Q966.5 805.0 867.0 852.0Q767.5 899.0 607.5 937.5Q447.5 976.0 209.5 1005.0L195.5 981.0Q403.5 931.0 528.5 875.5Q653.5 820.0 718.5 757.5Q783.5 695.0 809.5 624.0H367.5L353.5 575.0Q325.5 621.0 285.5 643.0Q249.5 664.0 207.0 662.5Q164.5 661.0 128.5 637.0Q92.5 613.0 78.5 569.0Q60.5 505.0 92.0 458.0Q123.5 411.0 176.5 387.0Q226.5 361.0 270.5 298.5Q314.5 236.0 310.5 164.0ZM844.5 373.0 1207.5 401.0Q1200.5 444.0 1141.5 452.0Q1135.5 513.0 1123.5 567.0H1332.5L1469.5 399.0L1577.5 481.0Q1600.5 407.0 1616.5 332.0H387.5Q400.5 405.0 391.5 464.5Q382.5 524.0 359.5 567.0H828.5Q837.5 523.0 840.5 474.0Q843.5 425.0 844.5 373.0ZM66.5 1042.0H1594.5L1733.5 856.0Q1733.5 856.0 1759.5 876.5Q1785.5 897.0 1825.5 929.0Q1865.5 961.0 1909.0 998.0Q1952.5 1035.0 1987.5 1067.0Q1978.5 1100.0 1930.5 1100.0H1639.5V1708.0Q1639.5 1794.0 1614.5 1855.5Q1589.5 1917.0 1511.5 1953.5Q1433.5 1990.0 1274.5 2001.0Q1270.5 1942.0 1260.0 1899.0Q1249.5 1856.0 1221.5 1829.0Q1195.5 1803.0 1154.5 1782.0Q1113.5 1761.0 1024.5 1747.0V1722.0Q1024.5 1722.0 1061.0 1724.5Q1097.5 1727.0 1148.0 1729.5Q1198.5 1732.0 1244.0 1734.5Q1289.5 1737.0 1307.5 1737.0Q1348.5 1737.0 1348.5 1702.0V1100.0H82.5ZM338.5 1251.0V1141.0L629.5 1251.0H875.5L996.5 1124.0L1243.5 1306.0Q1236.5 1317.0 1221.0 1327.0Q1205.5 1337.0 1180.5 1341.0V1618.0Q1179.5 1627.0 1140.5 1644.5Q1101.5 1662.0 1047.0 1676.5Q992.5 1691.0 944.5 1691.0H893.5V1591.0H619.5V1683.0Q619.5 1695.0 583.5 1715.0Q547.5 1735.0 492.0 1751.0Q436.5 1767.0 377.5 1767.0H338.5ZM619.5 1534.0H893.5V1308.0H619.5Z" fill="black"></path></svg>