<?xml version="1.0" standalone="no"?>
<!DOCTYPE svg PUBLIC "-//W3C//DTD SVG 1.1//EN" "http://www.w3.org/Graphics/SVG/1.1/DTD/svg11.dtd" >
<svg xmlns="http://www.w3.org/2000/svg" xmlns:svg="http://www.w3.org/2000/svg" xmlns:xlink="http://www.w3.org/1999/xlink" viewBox="0 0 2048 2048" style=""><path d="M19.5 977.0 271.5 958.0V587.0L404.5 600.0Q428.5 526.0 452.5 430.5Q476.5 335.0 492.5 262.0H60.5L41.5 204.0H479.5L617.5 67.0L836.5 260.0V188.0L1118.5 278.0Q1214.5 244.0 1314.0 202.5Q1413.5 161.0 1500.5 119.5Q1587.5 78.0 1647.5 45.0L1901.5 305.0Q1852.5 339.0 1757.5 297.0L1667.5 307.0Q1689.5 778.0 1773.0 1120.0Q1856.5 1462.0 2028.5 1646.0L2020.5 1669.0Q1915.5 1716.0 1871.0 1804.0Q1826.5 1892.0 1815.5 2003.0Q1764.5 1929.0 1731.5 1831.0Q1705.5 1895.0 1651.0 1908.5Q1596.5 1922.0 1540.5 1859.0Q1550.5 1775.0 1546.5 1683.0Q1476.5 1723.0 1380.5 1772.5Q1284.5 1822.0 1159.5 1882.0Q1138.5 1924.0 1098.5 1931.0L981.5 1636.0Q1021.5 1636.0 1084.5 1634.5Q1147.5 1633.0 1225.5 1630.0V333.0H1094.5V862.0Q1094.5 1003.0 1081.0 1157.0Q1067.5 1311.0 1020.0 1463.0Q972.5 1615.0 871.0 1753.0Q769.5 1891.0 592.5 2001.0L572.5 1978.0Q685.5 1825.0 741.5 1651.5Q797.5 1478.0 816.0 1294.5Q834.5 1111.0 836.5 929.0Q781.5 960.0 710.0 998.0Q638.5 1036.0 547.5 1081.0V1687.0Q547.5 1781.0 526.5 1846.5Q505.5 1912.0 437.0 1950.0Q368.5 1988.0 226.5 2001.0Q222.5 1933.0 215.0 1884.5Q207.5 1836.0 189.5 1804.0Q170.5 1773.0 140.5 1751.5Q110.5 1730.0 45.5 1716.0V1689.0Q45.5 1689.0 70.0 1690.5Q94.5 1692.0 128.0 1694.0Q161.5 1696.0 192.5 1697.5Q223.5 1699.0 236.5 1699.0Q271.5 1699.0 271.5 1671.0V1212.0L178.5 1253.0Q156.5 1294.0 113.5 1304.0ZM1528.5 1321.0Q1606.5 1390.0 1657.5 1466.0Q1628.5 1220.0 1625.5 920.5Q1622.5 621.0 1626.5 311.0L1477.5 323.0V1615.0L1542.5 1613.0Q1538.5 1537.0 1527.0 1464.0Q1515.5 1391.0 1501.5 1327.0ZM836.5 905.0V856.0V284.0Q820.5 297.0 772.5 301.0Q712.5 368.0 630.5 453.5Q548.5 539.0 465.5 604.0L619.5 618.0Q613.5 662.0 547.5 673.0V934.0Z" fill="black"></path></svg>