<?xml version="1.0" standalone="no"?>
<!DOCTYPE svg PUBLIC "-//W3C//DTD SVG 1.1//EN" "http://www.w3.org/Graphics/SVG/1.1/DTD/svg11.dtd" >
<svg xmlns="http://www.w3.org/2000/svg" xmlns:svg="http://www.w3.org/2000/svg" xmlns:xlink="http://www.w3.org/1999/xlink" viewBox="0 0 2048 2048" style=""><path d="M1218.0 1365.5H931.0L784.0 1570.5Q939.0 1573.5 1068.0 1582.5Q1162.0 1488.5 1218.0 1365.5ZM349.0 169.5H374.0Q389.0 209.5 397.5 246.0Q406.0 282.5 411.0 316.5H868.0V48.5L1248.0 75.5Q1247.0 96.5 1232.5 111.5Q1218.0 126.5 1175.0 134.5V316.5H1613.0L1752.0 177.5L1994.0 404.5Q1982.0 418.5 1964.0 423.5Q1946.0 428.5 1914.0 431.5Q1863.0 468.5 1791.5 510.0Q1720.0 551.5 1648.0 584.5L1685.0 611.5Q1675.0 622.5 1657.5 634.5Q1640.0 646.5 1611.0 652.5V1119.5Q1610.0 1127.5 1569.5 1143.0Q1529.0 1158.5 1473.0 1171.0Q1417.0 1183.5 1371.0 1183.5H1320.0V1094.5H931.0L1142.0 1139.5Q1136.0 1161.5 1114.5 1175.0Q1093.0 1188.5 1050.0 1187.5L970.0 1307.5H1586.0L1728.0 1129.5Q1728.0 1129.5 1754.0 1149.0Q1780.0 1168.5 1820.5 1199.5Q1861.0 1230.5 1905.5 1266.0Q1950.0 1301.5 1986.0 1332.5Q1977.0 1365.5 1928.0 1365.5H1558.0Q1519.0 1440.5 1476.5 1504.0Q1434.0 1567.5 1382.0 1621.5Q1565.0 1656.5 1667.5 1705.0Q1770.0 1753.5 1808.5 1805.0Q1847.0 1856.5 1837.0 1900.5Q1827.0 1944.5 1784.0 1971.5Q1741.0 1998.5 1680.0 1999.0Q1619.0 1999.5 1558.0 1961.5Q1493.0 1918.5 1403.0 1868.0Q1313.0 1817.5 1193.0 1768.5Q1020.0 1867.5 754.0 1920.0Q488.0 1972.5 79.0 1994.5L71.0 1967.5Q369.0 1916.5 586.5 1848.5Q804.0 1780.5 949.0 1680.5Q856.0 1650.5 743.0 1625.5L655.0 1738.5Q602.0 1748.5 528.5 1736.5Q455.0 1724.5 390.0 1682.5Q440.0 1624.5 502.0 1539.5Q564.0 1454.5 624.0 1365.5H95.0L79.0 1307.5H663.0Q703.0 1246.5 736.5 1191.5Q770.0 1136.5 792.0 1094.5H726.0V1107.5Q726.0 1119.5 689.0 1140.0Q652.0 1160.5 595.5 1177.0Q539.0 1193.5 480.0 1193.5H440.0V439.5L741.0 554.5H1300.0L1427.0 419.5L1586.0 537.5Q1597.0 499.5 1607.5 456.0Q1618.0 412.5 1625.0 374.5H415.0Q415.0 469.5 379.0 535.0Q343.0 600.5 288.0 630.5Q250.0 649.5 205.0 646.0Q160.0 642.5 122.5 617.0Q85.0 591.5 71.0 544.5Q54.0 479.5 88.0 432.0Q122.0 384.5 177.0 359.5Q214.0 345.5 253.0 317.0Q292.0 288.5 319.0 250.5Q346.0 212.5 349.0 169.5ZM726.0 1037.5H1320.0V849.5H726.0ZM726.0 791.5H1320.0V611.5H726.0Z" fill="black"></path></svg>