<?xml version="1.0" standalone="no"?>
<!DOCTYPE svg PUBLIC "-//W3C//DTD SVG 1.1//EN" "http://www.w3.org/Graphics/SVG/1.1/DTD/svg11.dtd" >
<svg xmlns="http://www.w3.org/2000/svg" xmlns:svg="http://www.w3.org/2000/svg" xmlns:xlink="http://www.w3.org/1999/xlink" viewBox="0 0 2048 2048" style=""><path d="M571.0 1626.0Q852.0 1616.0 1029.0 1640.0Q1206.0 1664.0 1299.0 1708.0Q1392.0 1752.0 1418.5 1803.5Q1445.0 1855.0 1423.5 1900.5Q1402.0 1946.0 1349.5 1973.5Q1297.0 2001.0 1232.0 1997.5Q1167.0 1994.0 1108.0 1945.0Q1066.0 1896.0 997.0 1840.0Q928.0 1784.0 823.0 1733.0Q718.0 1682.0 567.0 1648.0ZM332.0 182.0H358.0Q372.0 214.0 382.5 245.0Q393.0 276.0 399.0 305.0H866.0V47.0L1247.0 73.0Q1246.0 95.0 1231.5 110.0Q1217.0 125.0 1174.0 133.0V305.0H1618.0L1757.0 166.0L1999.0 393.0Q1987.0 407.0 1969.0 411.5Q1951.0 416.0 1919.0 420.0Q1870.0 455.0 1801.5 492.5Q1733.0 530.0 1665.0 561.0L1784.0 657.0Q1775.0 690.0 1729.0 690.0H1417.0V862.0H1452.0L1575.0 700.0Q1575.0 700.0 1613.5 731.0Q1652.0 762.0 1704.5 805.5Q1757.0 849.0 1798.0 886.0Q1792.0 919.0 1743.0 919.0H1417.0V1110.0H1577.0L1718.0 925.0Q1718.0 925.0 1743.5 945.5Q1769.0 966.0 1809.0 998.0Q1849.0 1030.0 1892.5 1066.0Q1936.0 1102.0 1972.0 1134.0Q1963.0 1167.0 1913.0 1167.0H1286.0Q1365.0 1251.0 1487.5 1307.0Q1610.0 1363.0 1749.0 1396.5Q1888.0 1430.0 2017.0 1448.0L2015.0 1470.0Q1929.0 1495.0 1873.5 1569.5Q1818.0 1644.0 1792.0 1759.0Q1598.0 1659.0 1462.5 1519.0Q1327.0 1379.0 1251.0 1167.0H936.0Q916.0 1199.0 892.0 1229.5Q868.0 1260.0 842.0 1288.0Q1012.0 1293.0 1111.0 1319.5Q1210.0 1346.0 1252.5 1384.5Q1295.0 1423.0 1294.0 1463.0Q1293.0 1503.0 1262.5 1536.0Q1232.0 1569.0 1185.0 1585.0Q1138.0 1601.0 1088.5 1591.0Q1039.0 1581.0 1001.0 1534.0Q983.0 1481.0 939.5 1423.0Q896.0 1365.0 813.0 1321.0Q667.0 1470.0 462.5 1579.0Q258.0 1688.0 41.0 1751.0L31.0 1730.0Q145.0 1660.0 249.0 1567.0Q353.0 1474.0 432.5 1371.0Q512.0 1268.0 553.0 1167.0H104.0L88.0 1110.0H600.0V919.0H334.0L317.0 862.0H600.0V690.0H336.0L319.0 637.0Q310.0 644.0 299.5 651.5Q289.0 659.0 279.0 663.0Q220.0 691.0 159.0 672.0Q98.0 653.0 78.0 590.0Q62.0 528.0 94.0 484.5Q126.0 441.0 178.0 420.0Q235.0 393.0 285.0 329.0Q335.0 265.0 332.0 182.0ZM881.0 1110.0H1130.0V919.0H881.0ZM881.0 690.0V862.0H1130.0V690.0ZM1130.0 411.0 1483.0 440.0Q1481.0 460.0 1467.5 473.5Q1454.0 487.0 1417.0 493.0V633.0H1425.0L1552.0 475.0L1604.0 514.0Q1611.0 477.0 1618.5 437.5Q1626.0 398.0 1632.0 362.0H408.0Q418.0 456.0 393.0 525.0Q368.0 594.0 324.0 633.0H600.0V411.0L948.0 440.0Q945.0 460.0 932.0 473.5Q919.0 487.0 881.0 493.0V633.0H1130.0Z" fill="black"></path></svg>