<?xml version="1.0" standalone="no"?>
<!DOCTYPE svg PUBLIC "-//W3C//DTD SVG 1.1//EN" "http://www.w3.org/Graphics/SVG/1.1/DTD/svg11.dtd" >
<svg xmlns="http://www.w3.org/2000/svg" xmlns:svg="http://www.w3.org/2000/svg" xmlns:xlink="http://www.w3.org/1999/xlink" viewBox="0 0 2048 2048" style=""><path d="M1676.5 165.0Q1796.5 193.0 1860.5 236.5Q1924.5 280.0 1945.0 328.0Q1965.5 376.0 1953.0 417.5Q1940.5 459.0 1906.0 483.5Q1871.5 508.0 1825.5 505.0Q1779.5 502.0 1733.5 460.0Q1735.5 386.0 1711.5 308.0Q1687.5 230.0 1658.5 175.0ZM1350.5 48.0 1690.5 83.0Q1689.5 104.0 1673.5 121.0Q1657.5 138.0 1617.5 144.0Q1612.5 275.0 1612.0 421.5Q1611.5 568.0 1617.5 716.0H1623.5L1750.5 537.0Q1750.5 537.0 1789.5 571.0Q1828.5 605.0 1882.0 652.0Q1935.5 699.0 1977.5 740.0Q1968.5 773.0 1920.5 773.0H1619.5Q1623.5 861.0 1631.0 946.0Q1638.5 1031.0 1647.5 1109.0Q1666.5 1041.0 1680.0 975.5Q1693.5 910.0 1701.5 847.0L1985.5 957.0Q1974.5 988.0 1910.5 982.0Q1880.5 1092.0 1832.5 1208.0Q1784.5 1324.0 1715.5 1437.0Q1730.5 1484.0 1749.0 1524.5Q1767.5 1565.0 1789.5 1594.0Q1815.5 1638.0 1836.5 1598.0Q1857.5 1561.0 1886.5 1488.5Q1915.5 1416.0 1936.5 1355.0L1957.5 1359.0L1912.5 1723.0Q1952.5 1808.0 1964.0 1873.5Q1975.5 1939.0 1932.5 1967.0Q1885.5 2000.0 1832.0 1993.5Q1778.5 1987.0 1728.0 1954.0Q1677.5 1921.0 1639.5 1873.0Q1607.5 1834.0 1579.5 1785.5Q1551.5 1737.0 1527.5 1678.0Q1462.5 1746.0 1388.0 1806.5Q1313.5 1867.0 1226.5 1918.0L1207.5 1893.0Q1288.5 1816.0 1356.5 1725.5Q1424.5 1635.0 1477.5 1535.0Q1447.5 1421.0 1425.5 1289.5Q1403.5 1158.0 1387.5 1015.0L1228.5 1150.0V1705.0Q1228.5 1786.0 1207.0 1847.0Q1185.5 1908.0 1119.0 1945.0Q1052.5 1982.0 916.5 1992.0Q913.5 1936.0 906.5 1895.0Q899.5 1854.0 877.5 1828.0Q857.5 1802.0 824.0 1782.0Q790.5 1762.0 718.5 1750.0V1725.0Q718.5 1725.0 745.5 1726.5Q772.5 1728.0 810.5 1730.0Q848.5 1732.0 883.0 1734.0Q917.5 1736.0 933.5 1736.0Q956.5 1736.0 964.5 1725.5Q972.5 1715.0 972.5 1697.0V1348.0L937.5 1373.0Q923.5 1420.0 886.5 1432.0L789.5 1230.0V1633.0Q789.5 1643.0 763.5 1658.0Q737.5 1673.0 699.5 1685.0Q661.5 1697.0 625.5 1697.0H584.5V1555.0H263.5V1744.0Q263.5 1754.0 238.0 1769.5Q212.5 1785.0 175.5 1797.0Q138.5 1809.0 103.5 1809.0H62.5V421.0L304.5 445.0Q301.5 472.0 263.5 480.0V1498.0H320.5V114.0L591.5 140.0Q588.5 160.0 573.5 173.5Q558.5 187.0 523.5 193.0V1498.0H584.5V413.0L836.5 437.0Q835.5 452.0 825.5 462.5Q815.5 473.0 789.5 478.0V716.0H972.5V372.0Q915.5 382.0 857.5 391.0Q799.5 400.0 742.5 406.0L736.5 386.0Q808.5 343.0 884.0 283.5Q959.5 224.0 1025.0 162.5Q1090.5 101.0 1131.5 52.0L1350.5 212.0ZM789.5 730.0V1144.0L972.5 1099.0V773.0H802.5ZM1369.5 773.0H1228.5V1029.0L1385.5 984.0ZM1367.5 716.0Q1361.5 611.0 1358.0 505.5Q1354.5 400.0 1352.5 296.0L1301.5 288.0L1228.5 312.0V716.0Z" fill="black"></path></svg>