<?xml version="1.0" standalone="no"?>
<!DOCTYPE svg PUBLIC "-//W3C//DTD SVG 1.1//EN" "http://www.w3.org/Graphics/SVG/1.1/DTD/svg11.dtd" >
<svg xmlns="http://www.w3.org/2000/svg" xmlns:svg="http://www.w3.org/2000/svg" xmlns:xlink="http://www.w3.org/1999/xlink" viewBox="0 0 2048 2048" style=""><path d="M885.5 1186.0Q1032.5 1208.0 1115.5 1254.5Q1198.5 1301.0 1230.0 1357.0Q1261.5 1413.0 1253.5 1465.0Q1245.5 1517.0 1209.0 1551.0Q1172.5 1585.0 1119.0 1587.0Q1065.5 1589.0 1008.5 1544.0Q1002.5 1452.0 962.0 1357.5Q921.5 1263.0 869.5 1196.0ZM1415.5 815.0 1768.5 846.0Q1762.5 890.0 1698.5 899.0V1091.0H1706.5L1821.5 889.0Q1821.5 889.0 1842.5 911.5Q1863.5 934.0 1895.5 969.5Q1927.5 1005.0 1961.0 1044.0Q1994.5 1083.0 2020.5 1116.0Q2011.5 1149.0 1964.5 1149.0H1698.5V1677.0Q1698.5 1770.0 1674.0 1835.0Q1649.5 1900.0 1573.0 1938.5Q1496.5 1977.0 1340.5 1990.0Q1334.5 1924.0 1322.5 1877.5Q1310.5 1831.0 1282.5 1800.0Q1255.5 1769.0 1213.5 1746.0Q1171.5 1723.0 1082.5 1708.0V1683.0Q1082.5 1683.0 1120.5 1685.5Q1158.5 1688.0 1211.0 1690.5Q1263.5 1693.0 1310.5 1695.5Q1357.5 1698.0 1374.5 1698.0Q1415.5 1698.0 1415.5 1663.0V1149.0H779.5L762.5 1091.0H1415.5ZM1159.5 51.0 1530.5 160.0Q1524.5 175.0 1508.0 182.0Q1491.5 189.0 1446.5 186.0Q1423.5 209.0 1398.5 233.0Q1373.5 257.0 1346.5 280.0H1594.5L1731.5 143.0L1995.5 356.0Q1974.5 383.0 1895.5 389.0Q1724.5 616.0 1447.5 783.0Q1170.5 950.0 746.5 1022.0L738.5 1009.0V1900.0Q738.5 1915.0 704.0 1937.5Q669.5 1960.0 618.5 1978.5Q567.5 1997.0 514.5 1997.0H461.5V1149.0H398.5Q392.5 1324.0 366.5 1478.5Q340.5 1633.0 268.5 1762.0Q196.5 1891.0 54.5 1990.0L29.5 1964.0Q87.5 1848.0 111.0 1718.5Q134.5 1589.0 138.0 1446.0Q141.5 1303.0 140.5 1149.0H45.5L27.5 1091.0H461.5V784.0H363.5V876.0Q363.5 887.0 330.0 903.5Q296.5 920.0 247.0 933.0Q197.5 946.0 148.5 946.0H107.5V180.0L430.5 207.0Q427.5 227.0 414.5 240.5Q401.5 254.0 363.5 260.0V727.0H461.5V53.0L813.5 88.0Q810.5 109.0 796.0 124.0Q781.5 139.0 738.5 145.0V997.0Q1019.5 879.0 1233.0 713.0Q1446.5 547.0 1579.5 338.0H1274.5L1207.5 387.0Q1301.5 383.0 1349.5 410.5Q1397.5 438.0 1407.5 478.5Q1417.5 519.0 1397.0 555.5Q1376.5 592.0 1334.0 607.5Q1291.5 623.0 1235.5 600.0Q1220.5 558.0 1188.0 515.5Q1155.5 473.0 1118.5 444.0Q1071.5 472.0 1021.5 498.5Q971.5 525.0 920.5 547.0Q1049.5 554.0 1109.5 592.0Q1169.5 630.0 1177.5 677.0Q1185.5 724.0 1156.5 761.5Q1127.5 799.0 1077.0 807.5Q1026.5 816.0 971.5 774.0Q973.5 717.0 948.0 657.5Q922.5 598.0 885.5 563.0Q854.5 575.0 823.5 587.0Q792.5 599.0 760.5 608.0L746.5 594.0Q826.5 531.0 906.5 440.5Q986.5 350.0 1053.5 248.5Q1120.5 147.0 1159.5 51.0Z" fill="black"></path></svg>