<?xml version="1.0" standalone="no"?>
<!DOCTYPE svg PUBLIC "-//W3C//DTD SVG 1.1//EN" "http://www.w3.org/Graphics/SVG/1.1/DTD/svg11.dtd" >
<svg xmlns="http://www.w3.org/2000/svg" xmlns:svg="http://www.w3.org/2000/svg" xmlns:xlink="http://www.w3.org/1999/xlink" viewBox="0 0 2048 2048" style=""><path d="M1126.5 828.0Q1273.5 883.0 1352.5 954.0Q1431.5 1025.0 1456.5 1096.0Q1481.5 1167.0 1466.0 1226.0Q1450.5 1285.0 1407.5 1318.5Q1364.5 1352.0 1307.0 1346.5Q1249.5 1341.0 1192.5 1283.0Q1198.5 1169.0 1173.5 1051.0Q1148.5 933.0 1108.5 836.0ZM1493.5 72.0 1849.5 105.0Q1846.5 128.0 1829.5 143.5Q1812.5 159.0 1773.5 165.0V617.0L1859.5 466.0Q1859.5 466.0 1890.5 499.5Q1921.5 533.0 1962.5 579.5Q2003.5 626.0 2031.5 664.0Q2025.5 697.0 1978.5 697.0H1773.5V1676.0Q1773.5 1771.0 1750.5 1837.5Q1727.5 1904.0 1653.5 1943.0Q1579.5 1982.0 1425.5 1996.0Q1421.5 1928.0 1411.0 1878.5Q1400.5 1829.0 1374.5 1797.0Q1349.5 1765.0 1311.0 1742.0Q1272.5 1719.0 1192.5 1705.0V1678.0Q1192.5 1678.0 1225.5 1680.0Q1258.5 1682.0 1304.5 1684.5Q1350.5 1687.0 1392.0 1688.5Q1433.5 1690.0 1450.5 1690.0Q1493.5 1690.0 1493.5 1656.0V697.0H1083.5L1067.5 640.0H1493.5ZM905.5 107.0 1222.5 234.0Q1215.5 253.0 1195.0 263.5Q1174.5 274.0 1141.5 271.0Q1064.5 337.0 979.5 403.0Q894.5 469.0 817.5 515.0L813.5 513.0V572.0H882.5L1003.5 415.0Q1003.5 415.0 1041.5 444.5Q1079.5 474.0 1130.5 516.5Q1181.5 559.0 1222.5 597.0Q1213.5 630.0 1167.5 630.0H753.5L1009.5 685.0Q999.5 727.0 934.5 730.0Q886.5 785.0 814.5 856.5Q742.5 928.0 669.5 988.0H790.5L905.5 843.0Q905.5 843.0 941.0 871.0Q976.5 899.0 1025.5 938.5Q1074.5 978.0 1114.5 1013.0Q1105.5 1045.0 1059.5 1045.0H708.5V1293.0H733.5L856.5 1131.0Q856.5 1131.0 894.5 1162.0Q932.5 1193.0 985.0 1236.5Q1037.5 1280.0 1079.5 1318.0Q1070.5 1350.0 1024.5 1350.0H708.5V1588.0L1120.5 1549.0L1122.5 1574.0Q984.5 1638.0 764.5 1723.5Q544.5 1809.0 215.5 1920.0Q192.5 1959.0 151.5 1969.0L22.5 1641.0Q87.5 1638.0 190.5 1631.0Q293.5 1624.0 422.5 1615.0V1350.0H141.5L125.5 1293.0H422.5V1045.0H94.5L78.5 988.0H622.5Q639.5 910.0 654.0 809.5Q668.5 709.0 676.5 630.0H270.5Q382.5 666.0 439.5 714.5Q496.5 763.0 510.5 813.0Q524.5 863.0 506.0 904.0Q487.5 945.0 448.5 967.0Q409.5 989.0 361.0 983.0Q312.5 977.0 266.5 931.0Q274.5 852.0 257.0 771.5Q239.5 691.0 213.5 630.0H33.5L16.5 572.0H317.5V464.0Q288.5 513.0 228.0 522.5Q167.5 532.0 108.5 474.0Q113.5 385.0 90.0 290.5Q66.5 196.0 30.5 126.0L51.5 115.0Q165.5 154.0 228.5 204.5Q291.5 255.0 317.5 306.0V52.0L581.5 77.0Q578.5 92.0 568.5 102.5Q558.5 113.0 532.5 118.0V572.0H596.5V52.0L868.5 77.0Q867.5 93.0 855.0 105.5Q842.5 118.0 813.5 124.0V435.0Q834.5 366.0 859.0 278.0Q883.5 190.0 905.5 107.0Z" fill="black"></path></svg>