<?xml version="1.0" standalone="no"?>
<!DOCTYPE svg PUBLIC "-//W3C//DTD SVG 1.1//EN" "http://www.w3.org/Graphics/SVG/1.1/DTD/svg11.dtd" >
<svg xmlns="http://www.w3.org/2000/svg" xmlns:svg="http://www.w3.org/2000/svg" xmlns:xlink="http://www.w3.org/1999/xlink" viewBox="0 0 2048 2048" style=""><path d="M1510.5 517.0 1901.5 552.0Q1898.5 574.0 1884.0 589.5Q1869.5 605.0 1826.5 611.0V1855.0Q1826.5 1868.0 1787.0 1889.0Q1747.5 1910.0 1688.0 1926.5Q1628.5 1943.0 1568.5 1943.0H1510.5V1703.0H456.5V1881.0Q456.5 1894.0 418.0 1915.0Q379.5 1936.0 321.0 1952.5Q262.5 1969.0 202.5 1969.0H146.5V523.0L531.5 558.0Q528.5 580.0 514.5 595.0Q500.5 610.0 456.5 618.0V1646.0H820.5V79.0L1211.5 114.0Q1208.5 137.0 1193.5 152.0Q1178.5 167.0 1135.5 173.0V1646.0H1510.5Z" fill="black"></path></svg>