<?xml version="1.0" standalone="no"?>
<!DOCTYPE svg PUBLIC "-//W3C//DTD SVG 1.1//EN" "http://www.w3.org/Graphics/SVG/1.1/DTD/svg11.dtd" >
<svg xmlns="http://www.w3.org/2000/svg" xmlns:svg="http://www.w3.org/2000/svg" xmlns:xlink="http://www.w3.org/1999/xlink" viewBox="0 0 2048 2048" style=""><path d="M1536.0 250.0H596.0V543.0H1536.0ZM1323.0 624.0 1669.0 694.0Q1665.0 714.0 1647.0 726.5Q1629.0 739.0 1593.0 739.0Q1549.0 784.0 1483.5 843.0Q1418.0 902.0 1352.0 954.0H1575.0L1702.0 786.0Q1702.0 786.0 1742.0 817.5Q1782.0 849.0 1836.0 894.0Q1890.0 939.0 1933.0 979.0Q1924.0 1012.0 1876.0 1012.0H1593.0V1370.0H1643.0L1772.0 1194.0Q1772.0 1194.0 1811.0 1227.5Q1850.0 1261.0 1903.5 1308.0Q1957.0 1355.0 1999.0 1395.0Q1993.0 1427.0 1944.0 1427.0H1593.0V1927.0Q1593.0 1936.0 1532.0 1962.0Q1471.0 1988.0 1362.0 1988.0H1309.0V1427.0H1053.0Q1031.0 1530.0 974.0 1634.5Q917.0 1739.0 804.0 1833.0Q691.0 1927.0 502.0 1997.0L487.0 1978.0Q636.0 1855.0 700.0 1712.0Q764.0 1569.0 782.0 1427.0H510.0Q456.0 1584.0 351.5 1728.5Q247.0 1873.0 66.0 1988.0L49.0 1976.0Q163.0 1797.0 215.0 1591.5Q267.0 1386.0 281.0 1172.5Q295.0 959.0 295.0 756.0V78.0L639.0 192.0H1516.0L1645.0 51.0L1917.0 254.0Q1908.0 266.0 1888.5 278.5Q1869.0 291.0 1837.0 297.0V592.0Q1835.0 599.0 1792.5 612.5Q1750.0 626.0 1692.5 637.5Q1635.0 649.0 1589.0 649.0H1536.0V600.0H596.0V756.0Q596.0 803.0 595.5 853.5Q595.0 904.0 592.0 954.0H924.0Q910.0 950.0 896.0 941.0Q882.0 932.0 868.0 921.0Q870.0 846.0 841.5 770.0Q813.0 694.0 770.0 643.0L786.0 633.0Q939.0 644.0 1016.5 687.5Q1094.0 731.0 1112.5 785.0Q1131.0 839.0 1107.0 886.5Q1083.0 934.0 1034.0 954.0H1282.0Q1294.0 879.0 1305.5 787.0Q1317.0 695.0 1323.0 624.0ZM588.0 1012.0Q582.0 1099.0 568.5 1190.0Q555.0 1281.0 528.0 1370.0H789.0Q795.0 1290.0 795.0 1216.0V1012.0ZM1309.0 1012.0H1073.0V1216.0Q1073.0 1252.0 1071.0 1290.0Q1069.0 1328.0 1063.0 1370.0H1309.0Z" fill="black"></path></svg>