<?xml version="1.0" standalone="no"?>
<!DOCTYPE svg PUBLIC "-//W3C//DTD SVG 1.1//EN" "http://www.w3.org/Graphics/SVG/1.1/DTD/svg11.dtd" >
<svg xmlns="http://www.w3.org/2000/svg" xmlns:svg="http://www.w3.org/2000/svg" xmlns:xlink="http://www.w3.org/1999/xlink" viewBox="0 0 2048 2048" style=""><path d="M1367.0 570.5Q1594.0 663.5 1730.5 777.0Q1867.0 890.5 1929.5 1005.5Q1992.0 1120.5 1995.0 1217.5Q1998.0 1314.5 1957.5 1376.0Q1917.0 1437.5 1846.5 1444.0Q1776.0 1450.5 1692.0 1381.5Q1670.0 1244.5 1617.5 1104.0Q1565.0 963.5 1494.5 830.5Q1424.0 697.5 1346.0 583.5ZM431.0 538.5 828.0 695.5Q822.0 711.5 805.5 723.0Q789.0 734.5 750.0 734.5Q685.0 868.5 589.0 1012.5Q493.0 1156.5 363.0 1288.0Q233.0 1419.5 64.0 1517.5L50.0 1500.5Q127.0 1399.5 189.5 1277.0Q252.0 1154.5 299.5 1024.5Q347.0 894.5 380.0 769.5Q413.0 644.5 431.0 538.5ZM906.0 67.5 1291.0 101.5Q1288.0 125.5 1271.0 140.5Q1254.0 155.5 1215.0 161.5V1629.5Q1215.0 1732.5 1187.5 1804.5Q1160.0 1876.5 1072.0 1920.0Q984.0 1963.5 804.0 1980.5Q796.0 1903.5 780.5 1850.5Q765.0 1797.5 728.0 1760.5Q691.0 1725.5 639.0 1700.0Q587.0 1674.5 478.0 1654.5V1629.5Q478.0 1629.5 510.5 1631.5Q543.0 1633.5 593.0 1635.5Q643.0 1637.5 696.5 1640.0Q750.0 1642.5 794.0 1644.5Q838.0 1646.5 857.0 1646.5Q906.0 1646.5 906.0 1607.5Z" fill="black"></path></svg>