<?xml version="1.0" standalone="no"?>
<!DOCTYPE svg PUBLIC "-//W3C//DTD SVG 1.1//EN" "http://www.w3.org/Graphics/SVG/1.1/DTD/svg11.dtd" >
<svg xmlns="http://www.w3.org/2000/svg" xmlns:svg="http://www.w3.org/2000/svg" xmlns:xlink="http://www.w3.org/1999/xlink" viewBox="0 0 2048 2048" style=""><path d="M380.0 1487.0Q545.0 1478.0 645.0 1509.0Q745.0 1540.0 790.5 1592.0Q836.0 1644.0 837.5 1700.0Q839.0 1756.0 806.5 1799.0Q774.0 1842.0 718.0 1854.5Q662.0 1867.0 593.0 1831.0Q567.0 1737.0 501.5 1646.5Q436.0 1556.0 366.0 1499.0ZM163.0 1106.0Q275.0 1109.0 459.5 1109.5Q644.0 1110.0 876.0 1110.0V973.0H612.0Q612.0 984.0 577.0 1003.0Q542.0 1022.0 488.5 1037.0Q435.0 1052.0 380.0 1052.0H343.0V354.0L628.0 463.0H876.0V319.0H95.0L79.0 262.0H876.0V51.0L1228.0 82.0Q1225.0 103.0 1209.5 118.0Q1194.0 133.0 1152.0 139.0V262.0H1578.0L1711.0 84.0Q1711.0 84.0 1736.0 103.5Q1761.0 123.0 1799.5 154.5Q1838.0 186.0 1879.5 221.0Q1921.0 256.0 1955.0 286.0Q1946.0 319.0 1898.0 319.0H1152.0V463.0H1408.0L1529.0 329.0L1783.0 520.0Q1774.0 532.0 1753.0 544.5Q1732.0 557.0 1701.0 565.0V960.0Q1700.0 968.0 1670.5 983.0Q1641.0 998.0 1597.5 1011.5Q1554.0 1025.0 1511.0 1030.0Q1650.0 1046.0 1731.5 1077.5Q1813.0 1109.0 1847.5 1147.0Q1882.0 1185.0 1881.0 1223.0Q1880.0 1261.0 1855.0 1290.0Q1890.0 1319.0 1931.0 1355.5Q1972.0 1392.0 2004.0 1423.0Q1995.0 1456.0 1949.0 1456.0H1511.0V1685.0Q1511.0 1778.0 1488.0 1842.5Q1465.0 1907.0 1392.0 1945.0Q1319.0 1983.0 1169.0 1997.0Q1164.0 1932.0 1154.0 1884.5Q1144.0 1837.0 1119.0 1806.0Q1095.0 1775.0 1056.5 1752.5Q1018.0 1730.0 939.0 1716.0V1689.0Q939.0 1689.0 972.5 1691.5Q1006.0 1694.0 1052.5 1696.5Q1099.0 1699.0 1140.5 1701.5Q1182.0 1704.0 1197.0 1704.0Q1234.0 1704.0 1234.0 1673.0V1456.0H61.0L44.0 1399.0H1234.0V1241.0L1578.0 1267.0Q1572.0 1312.0 1511.0 1321.0V1399.0H1648.0L1691.0 1339.0Q1671.0 1333.0 1650.5 1321.5Q1630.0 1310.0 1613.0 1292.0Q1596.0 1261.0 1570.5 1228.0Q1545.0 1195.0 1509.0 1163.0Q1313.0 1201.0 1035.0 1244.0Q757.0 1287.0 364.0 1341.0Q340.0 1377.0 302.0 1384.0ZM1429.0 520.0H1152.0V690.0H1429.0ZM1429.0 747.0H1152.0V915.0H1429.0ZM1312.0 1018.0 1429.0 1022.0V973.0H1152.0V1110.0L1433.0 1108.0Q1374.0 1069.0 1304.0 1042.0ZM612.0 747.0V915.0H876.0V747.0ZM612.0 690.0H876.0V520.0H612.0Z" fill="black"></path></svg>