<?xml version="1.0" standalone="no"?>
<!DOCTYPE svg PUBLIC "-//W3C//DTD SVG 1.1//EN" "http://www.w3.org/Graphics/SVG/1.1/DTD/svg11.dtd" >
<svg xmlns="http://www.w3.org/2000/svg" xmlns:svg="http://www.w3.org/2000/svg" xmlns:xlink="http://www.w3.org/1999/xlink" viewBox="0 0 2048 2048" style=""><path d="M428.0 1855.5H1059.0V1569.5H588.0L571.0 1511.5H1059.0V1263.5L1413.0 1292.5Q1410.0 1312.5 1397.0 1326.0Q1384.0 1339.5 1345.0 1345.5V1511.5H1515.0L1648.0 1345.5Q1648.0 1345.5 1690.0 1376.5Q1732.0 1407.5 1789.0 1452.0Q1846.0 1496.5 1892.0 1536.5Q1883.0 1569.5 1835.0 1569.5H1345.0V1855.5H1610.0L1747.0 1667.5Q1747.0 1667.5 1771.5 1688.0Q1796.0 1708.5 1834.5 1741.5Q1873.0 1774.5 1915.0 1811.5Q1957.0 1848.5 1991.0 1880.5Q1982.0 1913.5 1933.0 1913.5H444.0ZM848.0 1069.5Q863.0 1010.5 877.0 945.5Q891.0 880.5 903.0 823.5H604.0Q602.0 881.5 600.0 943.0Q598.0 1004.5 592.0 1067.5ZM1376.0 891.5Q1555.0 884.5 1667.5 918.5Q1780.0 952.5 1836.5 1008.0Q1893.0 1063.5 1903.0 1123.5Q1913.0 1183.5 1886.5 1230.0Q1860.0 1276.5 1806.0 1294.0Q1752.0 1311.5 1681.0 1280.5Q1663.0 1237.5 1635.0 1194.5Q1607.0 1151.5 1573.0 1110.5Q1438.0 1151.5 1243.5 1202.0Q1049.0 1252.5 774.0 1317.5Q754.0 1355.5 715.0 1362.5L588.0 1108.5Q570.0 1267.5 518.5 1427.5Q467.0 1587.5 361.0 1732.5Q255.0 1877.5 74.0 1992.5L57.0 1980.5Q171.0 1801.5 223.0 1596.0Q275.0 1390.5 289.0 1177.0Q303.0 963.5 303.0 760.5V82.5L647.0 196.5H1524.0L1653.0 55.5L1925.0 258.5Q1916.0 270.5 1896.5 283.0Q1877.0 295.5 1845.0 301.5V596.5Q1844.0 600.5 1818.0 610.5Q1792.0 620.5 1755.0 631.5Q1795.0 660.5 1853.5 705.5Q1912.0 750.5 1960.0 790.5Q1951.0 823.5 1902.0 823.5H1263.0Q1200.0 884.5 1130.0 948.0Q1060.0 1011.5 991.0 1067.5L1528.0 1059.5Q1446.0 967.5 1362.0 905.5ZM913.0 766.5H1569.0L1663.0 647.5Q1629.0 653.5 1597.0 653.5H1544.0V594.5H604.0V760.5V766.5ZM1544.0 254.5H604.0V536.5H1544.0Z" fill="black"></path></svg>