<?xml version="1.0" standalone="no"?>
<!DOCTYPE svg PUBLIC "-//W3C//DTD SVG 1.1//EN" "http://www.w3.org/Graphics/SVG/1.1/DTD/svg11.dtd" >
<svg xmlns="http://www.w3.org/2000/svg" xmlns:svg="http://www.w3.org/2000/svg" xmlns:xlink="http://www.w3.org/1999/xlink" viewBox="0 0 2048 2048" style=""><path d="M1216.0 70.5 1613.0 160.5Q1607.0 180.5 1589.5 192.0Q1572.0 203.5 1537.0 203.5Q1476.0 258.5 1383.0 324.5Q1290.0 390.5 1195.0 443.5H1543.0L1689.0 262.5Q1689.0 262.5 1715.5 282.5Q1742.0 302.5 1784.0 334.0Q1826.0 365.5 1872.0 401.0Q1918.0 436.5 1957.0 467.5Q1948.0 500.5 1897.0 500.5H1166.0V717.5H1457.0L1598.0 545.5Q1598.0 545.5 1624.0 564.5Q1650.0 583.5 1689.5 613.0Q1729.0 642.5 1772.5 677.0Q1816.0 711.5 1852.0 742.5Q1844.0 774.5 1795.0 774.5H1166.0V1026.5H1553.0L1705.0 828.5Q1705.0 828.5 1732.5 850.0Q1760.0 871.5 1802.5 906.0Q1845.0 940.5 1892.0 979.0Q1939.0 1017.5 1977.0 1051.5Q1968.0 1084.5 1918.0 1084.5H878.0Q856.0 1153.5 829.5 1218.0Q803.0 1282.5 771.0 1342.5H1437.0L1586.0 1149.5Q1586.0 1149.5 1613.5 1170.5Q1641.0 1191.5 1684.0 1225.0Q1727.0 1258.5 1773.5 1296.0Q1820.0 1333.5 1859.0 1366.5Q1856.0 1383.5 1839.5 1391.5Q1823.0 1399.5 1801.0 1399.5H1306.0V1905.5H1590.0L1740.0 1698.5Q1740.0 1698.5 1767.5 1721.0Q1795.0 1743.5 1837.0 1779.5Q1879.0 1815.5 1925.0 1855.5Q1971.0 1895.5 2008.0 1929.5Q2005.0 1946.5 1988.5 1954.5Q1972.0 1962.5 1951.0 1962.5H454.0L437.0 1905.5H998.0V1399.5H740.0Q630.0 1582.5 460.5 1727.5Q291.0 1872.5 56.0 1977.5L40.0 1956.5Q235.0 1798.5 355.5 1568.0Q476.0 1337.5 531.0 1084.5H99.0L83.0 1026.5H859.0V774.5H263.0L247.0 717.5H859.0V500.5H185.0L169.0 443.5H677.0Q663.0 438.5 648.0 432.0Q633.0 425.5 617.0 414.5Q604.0 325.5 556.5 238.0Q509.0 150.5 456.0 90.5L470.0 80.5Q619.0 83.5 709.0 115.5Q799.0 147.5 840.5 195.5Q882.0 243.5 884.0 294.0Q886.0 344.5 858.5 385.5Q831.0 426.5 783.0 443.5H1129.0Q1159.0 360.5 1182.0 256.0Q1205.0 151.5 1216.0 70.5Z" fill="black"></path></svg>