<?xml version="1.0" standalone="no"?>
<!DOCTYPE svg PUBLIC "-//W3C//DTD SVG 1.1//EN" "http://www.w3.org/Graphics/SVG/1.1/DTD/svg11.dtd" >
<svg xmlns="http://www.w3.org/2000/svg" xmlns:svg="http://www.w3.org/2000/svg" xmlns:xlink="http://www.w3.org/1999/xlink" viewBox="0 0 2048 2048" style=""><path d="M1241.5 609.5V238.5H1063.5V609.5ZM1472.5 609.5H1652.5V238.5H1472.5ZM825.5 181.5V82.5L1099.5 181.5H1634.5L1734.5 52.5L1980.5 226.5Q1971.5 238.5 1953.5 248.5Q1935.5 258.5 1902.5 262.5V711.5Q1902.5 719.5 1868.5 736.5Q1834.5 753.5 1771.5 762.5L1974.5 920.5Q1963.5 934.5 1944.5 945.0Q1925.5 955.5 1890.5 961.5V1889.5Q1890.5 1899.5 1835.0 1925.0Q1779.5 1950.5 1685.5 1950.5H1640.5V1809.5H1321.5V1911.5Q1321.5 1923.5 1269.5 1947.5Q1217.5 1971.5 1126.5 1971.5H1083.5V785.5L1343.5 883.5H1632.5L1734.5 764.5L1697.5 766.5H1652.5V666.5H1063.5V932.5Q1063.5 1077.5 1051.5 1222.5Q1039.5 1367.5 996.5 1506.0Q953.5 1644.5 861.0 1769.0Q768.5 1893.5 606.5 1995.5L585.5 1979.5Q696.5 1836.5 747.0 1669.0Q797.5 1501.5 811.5 1316.0Q825.5 1130.5 825.5 934.5ZM1321.5 1221.5V1454.5H1640.5V1221.5ZM1321.5 1164.5H1640.5V940.5H1321.5ZM1321.5 1512.5V1751.5H1640.5V1512.5ZM307.5 451.5Q289.5 462.5 258.5 467.5V1448.5H307.5ZM307.5 99.5 585.5 125.5Q581.5 148.5 566.0 164.0Q550.5 179.5 510.5 185.5V1448.5H559.5V375.5L792.5 398.5Q789.5 431.5 743.5 439.5V1573.5Q743.5 1582.5 720.5 1597.0Q697.5 1611.5 663.0 1622.5Q628.5 1633.5 596.5 1633.5H559.5V1506.5H258.5V1684.5Q258.5 1699.5 208.0 1721.5Q157.5 1743.5 102.5 1743.5H67.5V383.5L307.5 408.5Z" fill="black"></path></svg>