<?xml version="1.0" standalone="no"?>
<!DOCTYPE svg PUBLIC "-//W3C//DTD SVG 1.1//EN" "http://www.w3.org/Graphics/SVG/1.1/DTD/svg11.dtd" >
<svg xmlns="http://www.w3.org/2000/svg" xmlns:svg="http://www.w3.org/2000/svg" xmlns:xlink="http://www.w3.org/1999/xlink" viewBox="0 0 2048 2048" style=""><path d="M1391.0 1312.0 1438.0 1322.0V1269.0H1282.0V1686.0Q1282.0 1708.0 1295.0 1715.5Q1308.0 1723.0 1354.0 1723.0H1556.0Q1603.0 1723.0 1645.5 1723.0Q1688.0 1723.0 1712.0 1721.0Q1751.0 1719.0 1769.0 1692.0Q1789.0 1666.0 1816.0 1603.5Q1843.0 1541.0 1878.0 1449.0H1898.0L1905.0 1701.0Q1961.0 1722.0 1979.0 1747.0Q1997.0 1772.0 1997.0 1809.0Q1997.0 1860.0 1958.5 1892.5Q1920.0 1925.0 1817.5 1940.0Q1715.0 1955.0 1524.0 1955.0H1298.0Q1181.0 1955.0 1118.5 1937.0Q1056.0 1919.0 1033.0 1872.0Q1010.0 1825.0 1010.0 1738.0V1269.0H924.0Q901.0 1474.0 804.5 1620.5Q708.0 1767.0 524.5 1860.5Q341.0 1954.0 57.0 2000.0L51.0 1977.0Q255.0 1900.0 375.0 1799.0Q495.0 1698.0 550.5 1566.5Q606.0 1435.0 616.0 1269.0H600.0V1322.0Q600.0 1335.0 563.5 1356.5Q527.0 1378.0 470.5 1395.0Q414.0 1412.0 354.0 1412.0H313.0V574.0H272.0V118.0L633.0 146.0Q630.0 168.0 615.0 182.5Q600.0 197.0 557.0 204.0V398.0H879.0V48.0L1245.0 75.0Q1242.0 96.0 1227.0 111.0Q1212.0 126.0 1169.0 134.0V398.0H1499.0V118.0L1868.0 146.0Q1865.0 168.0 1850.5 182.5Q1836.0 197.0 1794.0 204.0V486.0Q1794.0 493.0 1757.0 505.0Q1720.0 517.0 1663.5 526.0Q1607.0 535.0 1548.0 535.0H1499.0V455.0H557.0V523.0Q557.0 531.0 525.0 542.5Q493.0 554.0 443.0 563.0Q393.0 572.0 340.0 574.0L618.0 681.0H813.0Q819.0 627.0 823.5 566.5Q828.0 506.0 829.0 460.0L1225.0 517.0Q1220.0 537.0 1202.5 551.0Q1185.0 565.0 1151.0 566.0Q1111.0 592.0 1054.5 622.5Q998.0 653.0 940.0 681.0H1417.0L1544.0 541.0L1808.0 740.0Q1799.0 752.0 1780.0 765.0Q1761.0 778.0 1729.0 785.0V1275.0Q1727.0 1282.0 1689.0 1296.5Q1651.0 1311.0 1597.5 1323.0Q1544.0 1335.0 1497.0 1336.0L1640.0 1369.0Q1627.0 1412.0 1569.0 1418.0L1485.0 1514.0L1616.0 1508.0Q1608.0 1488.0 1600.0 1469.0Q1592.0 1450.0 1583.0 1434.0L1606.0 1424.0Q1701.0 1457.0 1743.0 1499.5Q1785.0 1542.0 1788.0 1582.5Q1791.0 1623.0 1768.5 1650.0Q1746.0 1677.0 1709.5 1679.5Q1673.0 1682.0 1638.0 1647.0Q1638.0 1627.0 1636.5 1606.0Q1635.0 1585.0 1630.0 1563.0Q1593.0 1585.0 1544.0 1612.5Q1495.0 1640.0 1432.0 1672.0Q1415.0 1708.0 1378.0 1715.0L1292.0 1516.0H1378.0ZM600.0 1004.0V1211.0H879.0V1004.0ZM600.0 947.0H879.0V738.0H600.0ZM1438.0 1004.0H1151.0V1211.0H1438.0ZM1438.0 947.0V738.0H1151.0V947.0Z" fill="black"></path></svg>