<?xml version="1.0" standalone="no"?>
<!DOCTYPE svg PUBLIC "-//W3C//DTD SVG 1.1//EN" "http://www.w3.org/Graphics/SVG/1.1/DTD/svg11.dtd" >
<svg xmlns="http://www.w3.org/2000/svg" xmlns:svg="http://www.w3.org/2000/svg" xmlns:xlink="http://www.w3.org/1999/xlink" viewBox="0 0 2048 2048" style=""><path d="M535.0 39.5 940.0 189.5Q923.0 234.5 852.0 228.5Q824.0 274.5 796.5 317.5Q769.0 360.5 739.0 400.5H1511.0L1673.0 199.5Q1673.0 199.5 1702.0 221.0Q1731.0 242.5 1776.5 276.5Q1822.0 310.5 1872.5 349.5Q1923.0 388.5 1966.0 424.5Q1963.0 441.5 1946.5 449.5Q1930.0 457.5 1907.0 457.5H1350.0V871.5H1466.0L1618.0 682.5Q1618.0 682.5 1646.0 703.5Q1674.0 724.5 1717.0 757.0Q1760.0 789.5 1807.5 826.5Q1855.0 863.5 1894.0 895.5Q1886.0 928.5 1835.0 928.5H1350.0V1438.5H1540.0L1702.0 1235.5Q1702.0 1235.5 1731.5 1258.0Q1761.0 1280.5 1807.0 1315.0Q1853.0 1349.5 1904.0 1389.0Q1955.0 1428.5 1997.0 1463.5Q1988.0 1496.5 1935.0 1496.5H1350.0V1926.5Q1348.0 1939.5 1279.5 1974.0Q1211.0 2008.5 1085.0 2008.5H1024.0V1496.5H68.0L51.0 1438.5H395.0V762.5Q319.0 825.5 237.5 877.5Q156.0 929.5 70.0 973.5L51.0 957.5Q139.0 850.5 230.0 703.0Q321.0 555.5 400.5 385.0Q480.0 214.5 535.0 39.5ZM1024.0 1438.5V928.5H711.0V1438.5ZM1024.0 871.5V457.5H696.0Q629.0 542.5 557.5 616.0Q486.0 689.5 410.0 750.5L739.0 871.5Z" fill="black"></path></svg>