<?xml version="1.0" standalone="no"?>
<!DOCTYPE svg PUBLIC "-//W3C//DTD SVG 1.1//EN" "http://www.w3.org/Graphics/SVG/1.1/DTD/svg11.dtd" >
<svg xmlns="http://www.w3.org/2000/svg" xmlns:svg="http://www.w3.org/2000/svg" xmlns:xlink="http://www.w3.org/1999/xlink" viewBox="0 0 2048 2048" style=""><path d="M527.0 1247.0H1351.0L1515.0 1124.0L1758.0 1329.0Q1748.0 1346.0 1729.0 1352.5Q1710.0 1359.0 1670.0 1362.0Q1564.0 1514.0 1410.0 1630.0Q1550.0 1661.0 1702.5 1673.5Q1855.0 1686.0 2010.0 1689.0V1714.0Q1918.0 1743.0 1863.5 1816.5Q1809.0 1890.0 1789.0 1999.0Q1603.0 1966.0 1445.0 1915.5Q1287.0 1865.0 1156.0 1784.0Q980.0 1870.0 765.0 1921.5Q550.0 1973.0 304.0 1995.0L296.0 1968.0Q500.0 1917.0 680.5 1841.0Q861.0 1765.0 1007.0 1665.0Q933.0 1594.0 874.5 1505.5Q816.0 1417.0 771.0 1304.0H546.0ZM1148.0 1552.0Q1209.0 1495.0 1259.5 1433.5Q1310.0 1372.0 1349.0 1304.0H814.0Q876.0 1387.0 960.5 1448.0Q1045.0 1509.0 1148.0 1552.0ZM237.0 334.0V203.0L566.0 334.0H935.0V49.0L1295.0 76.0Q1294.0 97.0 1279.5 112.0Q1265.0 127.0 1222.0 133.0V334.0H1599.0L1740.0 139.0Q1740.0 139.0 1766.0 160.5Q1792.0 182.0 1831.5 215.5Q1871.0 249.0 1914.0 287.0Q1957.0 325.0 1992.0 358.0Q1983.0 391.0 1934.0 391.0H523.0V680.0H751.0V446.0L1089.0 475.0Q1086.0 492.0 1073.0 505.0Q1060.0 518.0 1023.0 524.0V680.0H1259.0V446.0L1607.0 475.0Q1605.0 492.0 1593.0 504.5Q1581.0 517.0 1545.0 522.0V680.0H1646.0L1773.0 506.0Q1773.0 506.0 1811.5 539.0Q1850.0 572.0 1903.0 618.0Q1956.0 664.0 1998.0 704.0Q1989.0 737.0 1941.0 737.0H1545.0V1085.0Q1545.0 1095.0 1508.0 1112.5Q1471.0 1130.0 1415.5 1143.5Q1360.0 1157.0 1306.0 1157.0H1259.0V1030.0H1023.0V1104.0Q1023.0 1114.0 987.5 1131.0Q952.0 1148.0 899.5 1161.5Q847.0 1175.0 796.0 1175.0H751.0V737.0H523.0V868.0Q523.0 1003.0 511.5 1153.5Q500.0 1304.0 456.0 1454.5Q412.0 1605.0 317.0 1743.0Q222.0 1881.0 56.0 1993.0L38.0 1978.0Q132.0 1816.0 174.0 1629.5Q216.0 1443.0 226.5 1249.0Q237.0 1055.0 237.0 870.0ZM1023.0 973.0H1259.0V737.0H1023.0Z" fill="black"></path></svg>