<?xml version="1.0" standalone="no"?>
<!DOCTYPE svg PUBLIC "-//W3C//DTD SVG 1.1//EN" "http://www.w3.org/Graphics/SVG/1.1/DTD/svg11.dtd" >
<svg xmlns="http://www.w3.org/2000/svg" xmlns:svg="http://www.w3.org/2000/svg" xmlns:xlink="http://www.w3.org/1999/xlink" viewBox="0 0 2048 2048" style=""><path d="M61.5 432.5V335.5L291.5 432.5H303.5V69.5L653.5 102.5Q650.5 124.5 636.0 138.0Q621.5 151.5 581.5 157.5V432.5H586.5L684.5 317.5L905.5 485.5Q894.5 497.5 873.0 510.0Q851.5 522.5 819.5 528.5V1024.5H936.5V102.5L1247.5 217.5H1528.5L1663.5 49.5Q1663.5 49.5 1705.0 81.0Q1746.5 112.5 1804.0 157.0Q1861.5 201.5 1909.5 241.5Q1900.5 274.5 1851.5 274.5H1223.5V479.5H1507.5L1622.5 331.5Q1622.5 331.5 1658.0 360.0Q1693.5 388.5 1742.5 428.5Q1791.5 468.5 1831.5 503.5Q1822.5 536.5 1775.5 536.5H1223.5V741.5H1524.5L1636.5 594.5Q1636.5 594.5 1672.0 622.5Q1707.5 650.5 1756.0 690.5Q1804.5 730.5 1843.5 766.5Q1837.5 798.5 1788.5 798.5H1223.5V1024.5H1595.5L1726.5 858.5Q1726.5 858.5 1767.0 890.0Q1807.5 921.5 1863.0 965.5Q1918.5 1009.5 1962.5 1048.5Q1953.5 1081.5 1905.5 1081.5H1370.5Q1395.5 1169.5 1434.5 1245.0Q1473.5 1320.5 1524.5 1386.5Q1567.5 1322.5 1610.5 1248.0Q1653.5 1173.5 1677.5 1122.5L1964.5 1302.5Q1953.5 1323.5 1902.5 1310.5Q1844.5 1338.5 1750.0 1373.0Q1655.5 1407.5 1569.5 1439.5Q1740.5 1620.5 1986.5 1679.5L1984.5 1704.5Q1906.5 1728.5 1849.5 1801.5Q1792.5 1874.5 1769.5 1986.5Q1570.5 1856.5 1474.5 1644.5Q1387.5 1701.5 1259.0 1776.0Q1130.5 1850.5 944.5 1947.5Q928.5 1988.5 887.5 1998.5L719.5 1681.5L936.5 1661.5V1081.5H819.5V1312.5Q819.5 1390.5 805.0 1445.0Q790.5 1499.5 743.0 1530.5Q695.5 1561.5 596.5 1570.5Q596.5 1518.5 593.0 1477.0Q589.5 1435.5 579.5 1411.5Q570.5 1382.5 553.5 1368.5V1931.5Q552.5 1938.5 525.5 1955.0Q498.5 1971.5 457.0 1985.0Q415.5 1998.5 369.5 1998.5H330.5V489.5H280.5V1527.5Q280.5 1539.5 254.5 1557.5Q228.5 1575.5 186.0 1589.5Q143.5 1603.5 96.5 1603.5H61.5ZM1223.5 1081.5V1628.5L1454.5 1597.5Q1414.5 1494.5 1387.5 1367.0Q1360.5 1239.5 1343.5 1081.5ZM606.5 489.5H553.5V1316.5L581.5 1319.5Q606.5 1319.5 606.5 1288.5Z" fill="black"></path></svg>