<?xml version="1.0" standalone="no"?>
<!DOCTYPE svg PUBLIC "-//W3C//DTD SVG 1.1//EN" "http://www.w3.org/Graphics/SVG/1.1/DTD/svg11.dtd" >
<svg xmlns="http://www.w3.org/2000/svg" xmlns:svg="http://www.w3.org/2000/svg" xmlns:xlink="http://www.w3.org/1999/xlink" viewBox="0 0 2048 2048" style=""><path d="M947.0 855.0V1010.0Q1062.0 1046.0 1123.0 1096.0Q1184.0 1146.0 1205.0 1195.0V828.0Q1196.0 855.0 1156.0 855.0ZM196.0 316.0V191.0L513.0 316.0H927.0V52.0L1277.0 79.0Q1275.0 100.0 1260.5 114.0Q1246.0 128.0 1203.0 136.0V316.0H1629.0L1762.0 132.0Q1762.0 132.0 1787.0 152.5Q1812.0 173.0 1850.0 205.0Q1888.0 237.0 1929.5 273.0Q1971.0 309.0 2004.0 341.0Q1995.0 373.0 1947.0 373.0H472.0V797.0H669.0V462.0L1023.0 494.0Q1020.0 516.0 1005.0 531.0Q990.0 546.0 947.0 552.0V773.0L1033.0 625.0Q1033.0 625.0 1063.5 657.0Q1094.0 689.0 1134.5 734.0Q1175.0 779.0 1205.0 818.0V486.0L1484.0 601.0H1617.0L1744.0 460.0L2000.0 660.0Q1989.0 673.0 1969.0 685.0Q1949.0 697.0 1918.0 703.0V1893.0Q1916.0 1902.0 1877.5 1921.0Q1839.0 1940.0 1785.5 1955.5Q1732.0 1971.0 1682.0 1971.0H1637.0V1776.0H1476.0V1899.0Q1476.0 1915.0 1443.5 1937.5Q1411.0 1960.0 1359.5 1978.0Q1308.0 1996.0 1248.0 1996.0H1205.0V1314.0Q1181.0 1367.0 1118.5 1381.5Q1056.0 1396.0 996.0 1336.0Q1002.0 1267.0 987.5 1194.5Q973.0 1122.0 947.0 1064.0V1912.0Q947.0 1924.0 912.5 1944.0Q878.0 1964.0 825.5 1980.0Q773.0 1996.0 720.0 1996.0H669.0V1486.0Q612.0 1564.0 545.5 1634.5Q479.0 1705.0 400.0 1768.0L378.0 1748.0Q490.0 1570.0 552.5 1333.5Q615.0 1097.0 644.0 855.0H472.0V869.0Q472.0 1002.0 462.5 1150.5Q453.0 1299.0 415.0 1449.5Q377.0 1600.0 293.5 1739.0Q210.0 1878.0 62.0 1991.0L44.0 1979.0Q119.0 1816.0 150.5 1628.5Q182.0 1441.0 189.0 1247.0Q196.0 1053.0 196.0 871.0ZM1476.0 1025.0V1340.0H1637.0V1025.0ZM1476.0 967.0H1637.0V658.0H1476.0ZM1476.0 1397.0V1719.0H1637.0V1397.0Z" fill="black"></path></svg>