<?xml version="1.0" standalone="no"?>
<!DOCTYPE svg PUBLIC "-//W3C//DTD SVG 1.1//EN" "http://www.w3.org/Graphics/SVG/1.1/DTD/svg11.dtd" >
<svg xmlns="http://www.w3.org/2000/svg" xmlns:svg="http://www.w3.org/2000/svg" xmlns:xlink="http://www.w3.org/1999/xlink" viewBox="0 0 2048 2048" style=""><path d="M177.0 269.0H1416.0L1580.0 60.0Q1580.0 60.0 1610.0 83.0Q1640.0 106.0 1687.0 142.0Q1734.0 178.0 1785.0 218.5Q1836.0 259.0 1877.0 294.0Q1868.0 327.0 1818.0 327.0H1173.0V914.0H1523.0L1691.0 701.0Q1691.0 701.0 1721.5 724.5Q1752.0 748.0 1799.5 784.5Q1847.0 821.0 1899.0 862.0Q1951.0 903.0 1994.0 939.0Q1985.0 972.0 1932.0 972.0H1173.0V1904.0Q1173.0 1913.0 1142.5 1933.0Q1112.0 1953.0 1054.0 1970.5Q996.0 1988.0 915.0 1988.0H855.0V972.0H71.0L54.0 914.0H855.0V327.0H194.0Z" fill="black"></path></svg>