<?xml version="1.0" standalone="no"?>
<!DOCTYPE svg PUBLIC "-//W3C//DTD SVG 1.1//EN" "http://www.w3.org/Graphics/SVG/1.1/DTD/svg11.dtd" >
<svg xmlns="http://www.w3.org/2000/svg" xmlns:svg="http://www.w3.org/2000/svg" xmlns:xlink="http://www.w3.org/1999/xlink" viewBox="0 0 2048 2048" style=""><path d="M865.0 950.5 1223.0 981.5Q1220.0 1000.5 1207.0 1014.5Q1194.0 1028.5 1155.0 1034.5V1188.5H1348.0L1483.0 1034.5L1592.0 1116.5L1614.0 918.5H389.0Q406.0 1014.5 375.0 1088.0Q344.0 1161.5 258.0 1192.5Q191.0 1216.5 141.0 1192.5Q91.0 1168.5 71.0 1119.5Q51.0 1070.5 72.5 1017.5Q94.0 964.5 168.0 930.5Q208.0 916.5 242.0 885.5Q276.0 854.5 291.0 805.5Q213.0 836.5 117.0 860.5L105.0 842.5Q248.0 756.5 298.0 646.0Q348.0 535.5 355.0 418.5H103.0L86.0 361.5H357.0V66.5L688.0 96.5Q685.0 116.5 671.5 130.5Q658.0 144.5 623.0 150.5V361.5H701.0V66.5L1018.0 94.5Q1015.0 113.5 1001.0 126.5Q987.0 139.5 951.0 146.5V361.5H1035.0V66.5L1352.0 94.5Q1349.0 113.5 1335.0 126.5Q1321.0 139.5 1284.0 146.5V361.5H1383.0V66.5L1702.0 90.5Q1696.0 135.5 1639.0 144.5V361.5H1700.0L1809.0 174.5Q1809.0 174.5 1842.0 210.5Q1875.0 246.5 1919.0 295.5Q1963.0 344.5 1995.0 385.5Q1986.0 418.5 1942.0 418.5H1639.0V531.5Q1639.0 546.5 1643.5 553.0Q1648.0 559.5 1665.0 559.5H1702.0Q1711.0 559.5 1721.0 559.5Q1731.0 559.5 1739.0 559.5Q1748.0 559.5 1760.0 557.5Q1772.0 555.5 1780.0 547.5Q1811.0 520.5 1848.0 440.5H1868.0L1876.0 549.5Q1918.0 571.5 1932.0 593.5Q1946.0 615.5 1946.0 647.5Q1946.0 747.5 1809.0 774.5L1997.0 955.5Q1985.0 967.5 1968.5 973.0Q1952.0 978.5 1919.0 979.5Q1861.0 1014.5 1776.0 1061.0Q1691.0 1107.5 1620.0 1139.5L1770.0 1251.5Q1759.0 1267.5 1734.0 1283.5Q1709.0 1299.5 1669.0 1307.5V1591.5Q1669.0 1673.5 1647.0 1731.0Q1625.0 1788.5 1553.5 1822.0Q1482.0 1855.5 1336.0 1866.5Q1334.0 1806.5 1328.0 1762.5Q1322.0 1718.5 1305.0 1692.5Q1288.0 1667.5 1261.5 1646.5Q1235.0 1625.5 1172.0 1614.5V1589.5Q1172.0 1589.5 1206.0 1591.0Q1240.0 1592.5 1280.5 1594.5Q1321.0 1596.5 1340.0 1596.5Q1360.0 1596.5 1366.0 1587.5Q1372.0 1578.5 1372.0 1563.5V1245.5H1155.0V1909.5Q1155.0 1919.5 1118.5 1936.5Q1082.0 1953.5 1027.0 1967.5Q972.0 1981.5 918.0 1981.5H865.0V1245.5H684.0V1780.5Q684.0 1793.5 647.5 1815.0Q611.0 1836.5 554.5 1853.5Q498.0 1870.5 439.0 1870.5H398.0V1071.5L703.0 1188.5H865.0ZM375.0 860.5H1598.0L1676.0 785.5H1667.0H1573.0Q1487.0 785.5 1446.5 766.0Q1406.0 746.5 1394.5 702.5Q1383.0 658.5 1383.0 584.5V418.5H1284.0V729.5Q1284.0 737.5 1252.5 751.0Q1221.0 764.5 1174.0 775.0Q1127.0 785.5 1080.0 785.5H1035.0V699.5H951.0V748.5Q951.0 756.5 919.0 770.0Q887.0 783.5 840.0 794.5Q793.0 805.5 746.0 805.5H701.0V418.5H619.0Q610.0 519.5 550.0 615.0Q490.0 710.5 344.0 782.5Q354.0 802.5 361.5 821.5Q369.0 840.5 375.0 860.5ZM951.0 418.5V641.5H1035.0V418.5Z" fill="black"></path></svg>