<?xml version="1.0" standalone="no"?>
<!DOCTYPE svg PUBLIC "-//W3C//DTD SVG 1.1//EN" "http://www.w3.org/Graphics/SVG/1.1/DTD/svg11.dtd" >
<svg xmlns="http://www.w3.org/2000/svg" xmlns:svg="http://www.w3.org/2000/svg" xmlns:xlink="http://www.w3.org/1999/xlink" viewBox="0 0 2048 2048" style=""><path d="M696.0 261.0V251.0Q679.0 262.0 641.0 259.0Q575.0 331.0 485.0 408.5Q395.0 486.0 289.0 558.5Q183.0 631.0 69.0 685.0L53.0 664.0Q124.0 578.0 189.5 468.0Q255.0 358.0 307.0 248.5Q359.0 139.0 389.0 54.0L696.0 216.0V146.0L979.0 261.0H1630.0L1759.0 118.0L2007.0 318.0Q1986.0 350.0 1925.0 361.0V1875.0Q1924.0 1884.0 1887.5 1903.5Q1851.0 1923.0 1798.0 1940.0Q1745.0 1957.0 1694.0 1957.0H1650.0V1758.0H964.0V1871.0Q964.0 1887.0 932.5 1910.0Q901.0 1933.0 850.5 1951.0Q800.0 1969.0 741.0 1969.0H696.0V677.0L680.0 675.0Q641.0 725.0 594.0 781.0Q547.0 837.0 491.0 894.0L600.0 935.0Q594.0 950.0 580.0 960.0Q566.0 970.0 536.0 976.0V1899.0Q535.0 1912.0 504.0 1934.5Q473.0 1957.0 422.5 1975.5Q372.0 1994.0 313.0 1994.0H262.0V1111.0Q213.0 1151.0 162.0 1189.0Q111.0 1227.0 57.0 1260.0L41.0 1244.0Q121.0 1130.0 195.0 988.5Q269.0 847.0 328.0 708.0Q387.0 569.0 420.0 464.0L696.0 611.0ZM1050.0 634.0V544.0L1270.0 634.0H1337.0L1438.0 523.0L1650.0 685.0V318.0H964.0V1701.0H1650.0V689.0Q1625.0 718.0 1562.0 730.0V1400.0Q1561.0 1407.0 1533.0 1419.5Q1505.0 1432.0 1465.5 1442.5Q1426.0 1453.0 1392.0 1453.0H1360.0V1293.0H1263.0V1437.0Q1263.0 1447.0 1237.0 1463.5Q1211.0 1480.0 1169.5 1493.0Q1128.0 1506.0 1083.0 1506.0H1050.0ZM1263.0 1236.0H1360.0V691.0H1263.0Z" fill="black"></path></svg>