<?xml version="1.0" standalone="no"?>
<!DOCTYPE svg PUBLIC "-//W3C//DTD SVG 1.1//EN" "http://www.w3.org/Graphics/SVG/1.1/DTD/svg11.dtd" >
<svg xmlns="http://www.w3.org/2000/svg" xmlns:svg="http://www.w3.org/2000/svg" xmlns:xlink="http://www.w3.org/1999/xlink" viewBox="0 0 2048 2048" style=""><path d="M862.0 1359.0Q1012.0 1365.0 1097.0 1401.0Q1182.0 1437.0 1215.0 1487.0Q1248.0 1537.0 1240.5 1586.5Q1233.0 1636.0 1195.5 1670.0Q1158.0 1704.0 1103.0 1708.0Q1048.0 1712.0 987.0 1670.0Q973.0 1589.0 932.0 1507.5Q891.0 1426.0 848.0 1369.0ZM760.0 230.0Q754.0 246.0 737.0 254.0Q720.0 262.0 682.0 259.0Q608.0 324.0 506.5 397.0Q405.0 470.0 289.0 538.5Q173.0 607.0 57.0 658.0L39.0 640.0Q114.0 555.0 188.5 447.0Q263.0 339.0 325.0 233.0Q387.0 127.0 424.0 48.0ZM1792.0 1099.0Q1792.0 1099.0 1831.0 1132.0Q1870.0 1165.0 1923.0 1211.5Q1976.0 1258.0 2017.0 1299.0Q2008.0 1332.0 1960.0 1332.0H1671.0V1686.0Q1671.0 1777.0 1647.5 1843.5Q1624.0 1910.0 1549.5 1949.5Q1475.0 1989.0 1323.0 2000.0Q1320.0 1935.0 1313.0 1888.5Q1306.0 1842.0 1286.0 1813.0Q1268.0 1786.0 1236.5 1763.5Q1205.0 1741.0 1132.0 1727.0V1705.0Q1132.0 1705.0 1157.5 1706.5Q1183.0 1708.0 1218.5 1710.0Q1254.0 1712.0 1286.5 1713.5Q1319.0 1715.0 1333.0 1715.0Q1370.0 1715.0 1370.0 1680.0V1332.0H672.0L655.0 1275.0H1370.0V1056.0H770.0L754.0 998.0H1552.0L1648.0 867.0Q1625.0 870.0 1599.0 872.5Q1573.0 875.0 1542.0 875.0H1491.0V806.0H1114.0V857.0Q1114.0 869.0 1054.0 893.5Q994.0 918.0 887.0 918.0H835.0V91.0L1134.0 202.0H1483.0L1616.0 52.0L1861.0 238.0Q1852.0 252.0 1835.5 261.5Q1819.0 271.0 1784.0 277.0V818.0Q1784.0 829.0 1735.0 845.0Q1774.0 877.0 1835.0 928.5Q1896.0 980.0 1943.0 1023.0Q1934.0 1056.0 1884.0 1056.0H1671.0V1266.0ZM1114.0 748.0H1491.0V531.0H1114.0ZM1114.0 474.0H1491.0V259.0H1114.0ZM653.0 892.0Q643.0 921.0 590.0 933.0V1907.0Q589.0 1919.0 555.5 1940.5Q522.0 1962.0 469.0 1980.0Q416.0 1998.0 356.0 1998.0H303.0V1092.0Q243.0 1140.0 179.0 1184.0Q115.0 1228.0 47.0 1266.0L31.0 1248.0Q122.0 1135.0 204.0 992.5Q286.0 850.0 350.0 708.0Q414.0 566.0 448.0 455.0L794.0 638.0Q787.0 653.0 770.0 662.5Q753.0 672.0 715.0 668.0Q681.0 713.0 641.0 760.0Q601.0 807.0 557.0 855.0Z" fill="black"></path></svg>