<?xml version="1.0" standalone="no"?>
<!DOCTYPE svg PUBLIC "-//W3C//DTD SVG 1.1//EN" "http://www.w3.org/Graphics/SVG/1.1/DTD/svg11.dtd" >
<svg xmlns="http://www.w3.org/2000/svg" xmlns:svg="http://www.w3.org/2000/svg" xmlns:xlink="http://www.w3.org/1999/xlink" viewBox="0 0 2048 2048" style=""><path d="M433.0 49.0 769.0 233.0Q761.0 247.0 744.5 256.0Q728.0 265.0 689.0 262.0Q617.0 331.0 516.5 407.0Q416.0 483.0 300.0 553.5Q184.0 624.0 65.0 678.0L48.0 659.0Q125.0 572.0 200.0 461.5Q275.0 351.0 336.0 241.5Q397.0 132.0 433.0 49.0ZM1451.0 53.0 1838.0 170.0Q1834.0 187.0 1818.5 199.5Q1803.0 212.0 1767.0 215.0Q1743.0 267.0 1714.0 321.5Q1685.0 376.0 1650.0 430.0Q1781.0 449.0 1856.0 492.0Q1931.0 535.0 1959.5 588.0Q1988.0 641.0 1979.0 691.0Q1970.0 741.0 1934.0 774.5Q1898.0 808.0 1844.0 812.5Q1790.0 817.0 1728.0 778.0Q1711.0 707.0 1675.0 636.5Q1639.0 566.0 1599.0 506.0Q1534.0 593.0 1454.0 675.5Q1374.0 758.0 1279.0 821.0L1578.0 852.0Q1573.0 872.0 1557.5 887.5Q1542.0 903.0 1502.0 909.0V1200.0H1572.0L1705.0 1026.0Q1705.0 1026.0 1746.5 1058.5Q1788.0 1091.0 1845.0 1137.5Q1902.0 1184.0 1947.0 1224.0Q1938.0 1257.0 1889.0 1257.0H1502.0V1655.0Q1555.0 1661.0 1611.0 1663.0Q1667.0 1665.0 1730.0 1665.0Q1761.0 1665.0 1813.5 1665.0Q1866.0 1665.0 1921.0 1665.0Q1976.0 1665.0 2016.0 1665.0V1687.0Q1955.0 1703.0 1925.5 1776.5Q1896.0 1850.0 1898.0 1945.0Q1864.0 1945.0 1803.5 1945.0Q1743.0 1945.0 1711.0 1945.0Q1520.0 1945.0 1378.5 1905.0Q1237.0 1865.0 1140.5 1764.0Q1044.0 1663.0 986.0 1480.0Q931.0 1626.0 840.0 1759.0Q749.0 1892.0 607.0 1995.0L591.0 1978.0Q674.0 1828.0 718.5 1646.0Q763.0 1464.0 778.0 1282.0Q793.0 1100.0 788.0 948.0L1169.0 1007.0Q1164.0 1030.0 1145.5 1044.5Q1127.0 1059.0 1089.0 1061.0Q1076.0 1144.0 1058.5 1229.0Q1041.0 1314.0 1015.0 1396.0Q1090.0 1516.0 1212.0 1579.0V815.0L1232.0 817.0Q1244.0 794.0 1256.5 769.5Q1269.0 745.0 1281.0 721.0Q1244.0 736.0 1198.0 729.5Q1152.0 723.0 1107.0 686.0Q1104.0 644.0 1094.0 602.0Q1084.0 560.0 1070.0 522.0Q1000.0 628.0 908.5 724.0Q817.0 820.0 704.0 891.0L687.0 874.0Q718.0 820.0 745.0 760.5Q772.0 701.0 794.0 637.0Q788.0 649.0 771.0 657.0Q754.0 665.0 720.0 663.0Q637.0 775.0 527.0 891.0L644.0 934.0Q635.0 961.0 581.0 973.0V1908.0Q580.0 1921.0 546.5 1942.5Q513.0 1964.0 460.0 1981.5Q407.0 1999.0 347.0 1999.0H294.0V1102.0Q236.0 1148.0 174.5 1190.0Q113.0 1232.0 48.0 1267.0L32.0 1249.0Q123.0 1136.0 205.5 993.5Q288.0 851.0 351.5 709.0Q415.0 567.0 450.0 456.0L798.0 628.0Q849.0 481.0 878.0 327.5Q907.0 174.0 917.0 51.0L1308.0 170.0Q1303.0 187.0 1287.5 199.5Q1272.0 212.0 1234.0 215.0Q1214.0 262.0 1189.5 313.5Q1165.0 365.0 1136.0 416.0Q1225.0 435.0 1276.0 468.5Q1327.0 502.0 1349.0 538.0Q1390.0 411.0 1415.0 283.5Q1440.0 156.0 1451.0 53.0Z" fill="black"></path></svg>