<?xml version="1.0" standalone="no"?>
<!DOCTYPE svg PUBLIC "-//W3C//DTD SVG 1.1//EN" "http://www.w3.org/Graphics/SVG/1.1/DTD/svg11.dtd" >
<svg xmlns="http://www.w3.org/2000/svg" xmlns:svg="http://www.w3.org/2000/svg" xmlns:xlink="http://www.w3.org/1999/xlink" viewBox="0 0 2048 2048" style=""><path d="M386.5 50.0 712.5 232.0Q706.5 248.0 689.0 256.0Q671.5 264.0 634.5 261.0Q565.5 325.0 473.0 397.0Q380.5 469.0 274.5 536.0Q168.5 603.0 58.5 654.0L40.5 636.0Q110.5 552.0 178.0 445.5Q245.5 339.0 300.0 234.0Q354.5 129.0 386.5 50.0ZM1322.5 52.0 1683.5 87.0Q1679.5 108.0 1665.0 124.0Q1650.5 140.0 1607.5 146.0V464.0H1658.5L1781.5 296.0Q1781.5 296.0 1819.5 328.0Q1857.5 360.0 1909.0 404.5Q1960.5 449.0 2000.5 488.0Q1994.5 521.0 1945.5 521.0H1607.5V885.0H1642.5L1762.5 720.0Q1762.5 720.0 1800.5 751.0Q1838.5 782.0 1889.5 826.5Q1940.5 871.0 1980.5 910.0Q1971.5 943.0 1922.5 943.0H1607.5V1320.0H1662.5L1791.5 1141.0Q1791.5 1141.0 1815.5 1161.0Q1839.5 1181.0 1876.0 1212.0Q1912.5 1243.0 1952.0 1278.5Q1991.5 1314.0 2023.5 1344.0Q2017.5 1377.0 1967.5 1377.0H1607.5V1897.0Q1607.5 1912.0 1572.0 1935.0Q1536.5 1958.0 1483.5 1977.0Q1430.5 1996.0 1375.5 1996.0H1322.5ZM407.5 490.0 759.5 675.0Q751.5 691.0 734.5 700.5Q717.5 710.0 679.5 707.0Q647.5 749.0 610.5 794.5Q573.5 840.0 530.5 888.0L630.5 924.0Q624.5 938.0 610.5 948.5Q596.5 959.0 566.5 963.0V1250.0Q622.5 1245.0 712.5 1234.0Q802.5 1223.0 915.5 1209.0Q921.5 1114.0 921.5 1012.0V945.0H654.5L636.5 888.0H921.5V521.0H622.5L603.5 464.0H921.5V54.0L1277.5 87.0Q1274.5 108.0 1259.0 124.0Q1243.5 140.0 1201.5 146.0V1012.0Q1201.5 1054.0 1200.0 1094.0Q1198.5 1134.0 1193.5 1172.0L1293.5 1158.0L1295.5 1178.0L1183.5 1252.0Q1146.5 1496.0 1016.5 1687.0Q886.5 1878.0 618.5 1998.0L601.5 1981.0Q718.5 1863.0 786.5 1723.5Q854.5 1584.0 886.5 1424.0L751.5 1496.0Q732.5 1537.0 691.5 1547.0L566.5 1268.0V1901.0Q565.5 1915.0 533.0 1938.0Q500.5 1961.0 447.5 1979.5Q394.5 1998.0 333.5 1998.0H280.5V1135.0Q223.5 1183.0 163.5 1227.5Q103.5 1272.0 40.5 1311.0L24.5 1293.0Q85.5 1205.0 143.5 1100.0Q201.5 995.0 252.5 885.5Q303.5 776.0 343.0 674.0Q382.5 572.0 407.5 490.0Z" fill="black"></path></svg>