<?xml version="1.0" standalone="no"?>
<!DOCTYPE svg PUBLIC "-//W3C//DTD SVG 1.1//EN" "http://www.w3.org/Graphics/SVG/1.1/DTD/svg11.dtd" >
<svg xmlns="http://www.w3.org/2000/svg" xmlns:svg="http://www.w3.org/2000/svg" xmlns:xlink="http://www.w3.org/1999/xlink" viewBox="0 0 2048 2048" style=""><path d="M333.0 50.0 654.0 208.0Q648.0 223.0 631.5 232.5Q615.0 242.0 578.0 240.0Q519.0 309.0 437.5 387.0Q356.0 465.0 260.5 539.0Q165.0 613.0 64.0 670.0L46.0 652.0Q106.0 565.0 162.5 455.5Q219.0 346.0 263.5 238.5Q308.0 131.0 333.0 50.0ZM1674.0 308.0H1568.0V1432.0L1643.0 1436.0Q1674.0 1436.0 1674.0 1402.0ZM380.0 462.0 601.0 572.0Q646.0 468.0 683.5 329.0Q721.0 190.0 742.0 50.0L1082.0 161.0Q1076.0 179.0 1056.0 191.0Q1036.0 203.0 1000.0 201.0Q974.0 248.0 945.0 291.5Q916.0 335.0 886.0 373.0H1093.0L1195.0 234.0L1322.0 343.0V142.0L1574.0 251.0H1654.0L1766.0 122.0L2008.0 306.0Q1997.0 318.0 1976.5 330.5Q1956.0 343.0 1924.0 349.0V1432.0Q1924.0 1521.0 1906.5 1583.5Q1889.0 1646.0 1830.5 1682.5Q1772.0 1719.0 1652.0 1729.0Q1652.0 1666.0 1646.5 1617.0Q1641.0 1568.0 1629.0 1539.0Q1613.0 1494.0 1568.0 1471.0V1901.0Q1568.0 1917.0 1540.0 1938.5Q1512.0 1960.0 1465.5 1976.5Q1419.0 1993.0 1363.0 1993.0H1322.0V1524.0Q1221.0 1581.0 1071.0 1656.5Q921.0 1732.0 712.0 1828.0Q693.0 1869.0 652.0 1879.0L527.0 1578.0L615.0 1570.0V941.0L853.0 963.0Q851.0 976.0 843.0 985.0Q835.0 994.0 812.0 998.0V1547.0L886.0 1539.0V826.0H617.0L601.0 769.0H886.0V431.0H839.0Q755.0 526.0 654.0 599.0L712.0 627.0Q704.0 643.0 687.0 652.0Q670.0 661.0 632.0 658.0Q598.0 710.0 556.5 767.0Q515.0 824.0 466.0 883.0L574.0 922.0Q568.0 936.0 553.0 946.5Q538.0 957.0 509.0 961.0V1928.0Q507.0 1937.0 474.5 1953.5Q442.0 1970.0 393.0 1984.0Q344.0 1998.0 292.0 1998.0H243.0V1125.0Q200.0 1165.0 153.5 1203.0Q107.0 1241.0 58.0 1277.0L40.0 1258.0Q96.0 1171.0 148.0 1067.0Q200.0 963.0 245.0 854.0Q290.0 745.0 324.5 643.5Q359.0 542.0 380.0 462.0ZM1119.0 826.0V1141.0H1127.0L1215.0 1010.0L1322.0 1111.0V826.0ZM1119.0 769.0H1131.0L1232.0 621.0L1322.0 705.0V431.0H1119.0ZM1119.0 1199.0V1508.0L1322.0 1481.0V1199.0Z" fill="black"></path></svg>