<?xml version="1.0" standalone="no"?>
<!DOCTYPE svg PUBLIC "-//W3C//DTD SVG 1.1//EN" "http://www.w3.org/Graphics/SVG/1.1/DTD/svg11.dtd" >
<svg xmlns="http://www.w3.org/2000/svg" xmlns:svg="http://www.w3.org/2000/svg" xmlns:xlink="http://www.w3.org/1999/xlink" viewBox="0 0 2048 2048" style=""><path d="M381.5 52.0 719.5 208.0Q713.5 223.0 697.0 233.5Q680.5 244.0 643.5 242.0Q579.5 316.0 487.5 395.5Q395.5 475.0 286.5 547.5Q177.5 620.0 62.5 672.0L45.5 654.0Q117.5 569.0 183.5 461.0Q249.5 353.0 301.5 245.0Q353.5 137.0 381.5 52.0ZM963.5 48.0 1348.5 154.0Q1334.5 198.0 1266.5 201.0Q1235.5 260.0 1205.5 312.0H1575.5L1725.5 109.0Q1725.5 109.0 1753.0 131.0Q1780.5 153.0 1822.5 188.0Q1864.5 223.0 1910.5 262.5Q1956.5 302.0 1993.5 337.0Q1984.5 369.0 1934.5 369.0H1166.5Q1144.5 402.0 1121.5 433.5Q1098.5 465.0 1073.5 494.0L1162.5 527.0H1532.5L1659.5 390.0L1921.5 586.0Q1912.5 599.0 1892.5 611.5Q1872.5 624.0 1839.5 631.0V1049.0Q1838.5 1057.0 1809.5 1071.5Q1780.5 1086.0 1737.0 1099.5Q1693.5 1113.0 1649.5 1119.0L1886.5 1332.0Q1876.5 1347.0 1858.0 1354.5Q1839.5 1362.0 1803.5 1365.0Q1712.5 1513.0 1575.5 1631.0Q1680.5 1659.0 1793.5 1673.5Q1906.5 1688.0 2022.5 1694.0V1719.0Q1934.5 1747.0 1880.5 1819.0Q1826.5 1891.0 1805.5 2000.0Q1672.5 1960.0 1561.0 1907.0Q1449.5 1854.0 1360.5 1778.0Q1054.5 1947.0 615.5 2000.0L604.5 1975.0Q985.5 1860.0 1229.5 1643.0Q1163.5 1552.0 1114.5 1436.0Q1013.5 1527.0 892.5 1600.0Q771.5 1673.0 637.5 1721.0L623.5 1703.0Q712.5 1640.0 793.5 1550.0Q874.5 1460.0 941.0 1355.0Q1007.5 1250.0 1051.5 1141.0Q1020.5 1152.0 982.5 1159.0Q944.5 1166.0 908.5 1166.0H869.5V695.0Q824.5 730.0 777.0 761.0Q729.5 792.0 680.5 820.0L660.5 804.0Q683.5 770.0 706.5 730.5Q729.5 691.0 752.5 648.0Q735.5 659.0 695.5 656.0Q656.5 710.0 611.5 768.0Q566.5 826.0 512.5 885.0L625.5 926.0Q619.5 940.0 605.5 950.5Q591.5 961.0 561.5 965.0V1903.0Q560.5 1917.0 528.0 1940.0Q495.5 1963.0 442.5 1981.5Q389.5 2000.0 328.5 2000.0H275.5V1109.0Q221.5 1153.0 162.5 1193.0Q103.5 1233.0 41.5 1268.0L25.5 1250.0Q116.5 1136.0 195.5 993.0Q274.5 850.0 333.5 706.5Q392.5 563.0 424.5 449.0L766.5 619.0Q828.5 495.0 880.5 347.5Q932.5 200.0 963.5 48.0ZM1553.5 820.0H1149.5V1002.0H1553.5ZM1553.5 763.0V584.0H1149.5V763.0ZM1553.5 1060.0H1149.5V1062.0L1438.5 1129.0Q1432.5 1145.0 1416.5 1153.0Q1400.5 1161.0 1358.5 1158.0Q1341.5 1182.0 1324.0 1207.0Q1306.5 1232.0 1286.5 1256.0H1479.5L1626.5 1121.0L1602.5 1123.0H1553.5ZM1481.5 1313.0H1239.5Q1219.5 1335.0 1199.5 1356.0Q1179.5 1377.0 1157.5 1397.0Q1193.5 1440.0 1237.5 1475.0Q1281.5 1510.0 1334.5 1539.0Q1421.5 1436.0 1481.5 1313.0Z" fill="black"></path></svg>