<?xml version="1.0" standalone="no"?>
<!DOCTYPE svg PUBLIC "-//W3C//DTD SVG 1.1//EN" "http://www.w3.org/Graphics/SVG/1.1/DTD/svg11.dtd" >
<svg xmlns="http://www.w3.org/2000/svg" xmlns:svg="http://www.w3.org/2000/svg" xmlns:xlink="http://www.w3.org/1999/xlink" viewBox="0 0 2048 2048" style=""><path d="M1508.0 504.0H1190.0V821.0H1508.0ZM1217.0 47.0 1608.0 137.0Q1603.0 157.0 1585.5 169.0Q1568.0 181.0 1532.0 180.0Q1469.0 237.0 1374.5 311.5Q1280.0 386.0 1186.0 446.0H1487.0L1614.0 311.0L1872.0 506.0Q1865.0 516.0 1846.5 527.0Q1828.0 538.0 1798.0 544.0V907.0Q1797.0 916.0 1757.5 934.0Q1718.0 952.0 1662.5 966.5Q1607.0 981.0 1559.0 981.0H1508.0V878.0H1190.0V1157.0H1565.0L1710.0 1024.0L1958.0 1226.0Q1947.0 1239.0 1928.0 1249.0Q1909.0 1259.0 1878.0 1263.0Q1863.0 1491.0 1829.0 1606.5Q1795.0 1722.0 1719.0 1769.0Q1669.0 1800.0 1607.0 1815.5Q1545.0 1831.0 1452.0 1831.0Q1452.0 1771.0 1445.5 1721.0Q1439.0 1671.0 1415.0 1642.0Q1391.0 1613.0 1352.5 1590.5Q1314.0 1568.0 1254.0 1554.0V1532.0Q1285.0 1535.0 1326.5 1537.0Q1368.0 1539.0 1405.0 1540.5Q1442.0 1542.0 1461.0 1542.0Q1503.0 1542.0 1518.0 1530.0Q1563.0 1494.0 1581.0 1214.0H1190.0V1925.0Q1189.0 1937.0 1125.5 1969.0Q1062.0 2001.0 949.0 2001.0H893.0V1439.0Q750.0 1590.0 550.5 1706.0Q351.0 1822.0 105.0 1902.0L90.0 1878.0Q298.0 1756.0 456.0 1578.0Q614.0 1400.0 705.0 1214.0H549.0L527.0 1310.0Q471.0 1337.0 405.5 1339.5Q340.0 1342.0 228.0 1312.0Q254.0 1215.0 281.0 1099.5Q308.0 984.0 331.0 875.0Q354.0 766.0 367.0 688.0L678.0 821.0H893.0V504.0H289.0L271.0 446.0H738.0Q716.0 442.0 695.5 430.0Q675.0 418.0 654.0 401.0Q652.0 310.0 620.0 220.0Q588.0 130.0 545.0 65.0L559.0 55.0Q702.0 73.0 785.5 113.5Q869.0 154.0 905.0 204.5Q941.0 255.0 939.0 305.5Q937.0 356.0 906.5 394.0Q876.0 432.0 828.0 446.0H1137.0Q1162.0 357.0 1183.5 244.0Q1205.0 131.0 1217.0 47.0ZM621.0 878.0Q610.0 934.0 595.0 1008.5Q580.0 1083.0 564.0 1157.0H893.0V878.0Z" fill="black"></path></svg>