<?xml version="1.0" standalone="no"?>
<!DOCTYPE svg PUBLIC "-//W3C//DTD SVG 1.1//EN" "http://www.w3.org/Graphics/SVG/1.1/DTD/svg11.dtd" >
<svg xmlns="http://www.w3.org/2000/svg" xmlns:svg="http://www.w3.org/2000/svg" xmlns:xlink="http://www.w3.org/1999/xlink" viewBox="0 0 2048 2048" style=""><path d="M113.5 448.0Q241.5 484.0 310.0 535.0Q378.5 586.0 400.0 640.5Q421.5 695.0 408.0 742.0Q394.5 789.0 357.5 816.0Q320.5 843.0 271.0 840.0Q221.5 837.0 172.5 790.0Q178.5 703.0 154.5 613.5Q130.5 524.0 94.5 458.0ZM424.5 407.0Q551.5 438.0 619.0 486.5Q686.5 535.0 708.5 587.5Q730.5 640.0 717.5 685.5Q704.5 731.0 668.0 758.0Q631.5 785.0 583.0 782.5Q534.5 780.0 486.5 735.0Q493.5 652.0 469.0 565.5Q444.5 479.0 406.5 417.0ZM928.5 43.0 1207.5 309.0Q1187.5 324.0 1150.5 325.0Q1113.5 326.0 1059.5 305.0Q934.5 330.0 770.5 349.5Q606.5 369.0 428.5 379.5Q250.5 390.0 82.5 389.0L78.5 364.0Q189.5 337.0 310.0 299.0Q430.5 261.0 546.0 217.0Q661.5 173.0 760.5 128.0Q859.5 83.0 928.5 43.0ZM875.5 379.0 1205.5 514.0Q1187.5 557.0 1121.5 551.0Q1044.5 637.0 952.5 707.0Q860.5 777.0 766.5 823.0L744.5 807.0Q779.5 728.0 815.0 611.5Q850.5 495.0 875.5 379.0ZM1624.5 77.0 1956.5 290.0Q1944.5 306.0 1926.0 310.5Q1907.5 315.0 1870.5 309.0Q1701.5 444.0 1507.0 546.0Q1312.5 648.0 1110.5 714.0L1098.5 688.0Q1253.5 574.0 1383.0 418.0Q1512.5 262.0 1624.5 77.0ZM1630.5 559.0 1981.5 764.0Q1961.5 794.0 1897.5 786.0Q1728.5 949.0 1528.5 1061.0Q1328.5 1173.0 1108.5 1241.0L1098.5 1216.0Q1264.5 1098.0 1395.0 933.0Q1525.5 768.0 1630.5 559.0ZM1651.5 1136.0 2022.5 1321.0Q2011.5 1339.0 1992.0 1345.5Q1972.5 1352.0 1934.5 1347.0Q1740.5 1613.0 1503.0 1767.5Q1265.5 1922.0 963.5 2005.0L955.5 1978.0Q1185.5 1841.0 1356.5 1638.5Q1527.5 1436.0 1651.5 1136.0ZM502.5 817.0 856.5 850.0Q853.5 868.0 840.0 881.5Q826.5 895.0 789.5 901.0V1063.0H852.5L983.5 891.0Q983.5 891.0 1024.5 923.5Q1065.5 956.0 1121.0 1001.5Q1176.5 1047.0 1221.5 1087.0Q1212.5 1120.0 1164.5 1120.0H789.5V1233.0Q947.5 1253.0 1037.5 1301.0Q1127.5 1349.0 1163.0 1408.0Q1198.5 1467.0 1191.0 1522.5Q1183.5 1578.0 1145.0 1615.0Q1106.5 1652.0 1050.0 1655.0Q993.5 1658.0 930.5 1611.0Q919.5 1521.0 879.0 1429.5Q838.5 1338.0 789.5 1265.0V1927.0Q789.5 1938.0 753.0 1956.0Q716.5 1974.0 663.0 1988.5Q609.5 2003.0 555.5 2003.0H502.5V1480.0Q320.5 1683.0 43.5 1826.0L25.5 1804.0Q160.5 1673.0 255.5 1489.5Q350.5 1306.0 404.5 1120.0H88.5L72.5 1063.0H502.5Z" fill="black"></path></svg>