<?xml version="1.0" standalone="no"?>
<!DOCTYPE svg PUBLIC "-//W3C//DTD SVG 1.1//EN" "http://www.w3.org/Graphics/SVG/1.1/DTD/svg11.dtd" >
<svg xmlns="http://www.w3.org/2000/svg" xmlns:svg="http://www.w3.org/2000/svg" xmlns:xlink="http://www.w3.org/1999/xlink" viewBox="0 0 2048 2048" style=""><path d="M416.0 50.0 735.0 244.0Q728.0 258.0 710.0 266.5Q692.0 275.0 655.0 269.0Q549.0 364.0 395.0 462.5Q241.0 561.0 68.0 627.0L53.0 609.0Q127.0 530.0 198.0 429.5Q269.0 329.0 326.0 229.0Q383.0 129.0 416.0 50.0ZM455.0 437.0 803.0 627.0Q795.0 643.0 777.5 652.0Q760.0 661.0 723.0 658.0Q680.0 710.0 629.5 766.5Q579.0 823.0 520.0 879.0L639.0 924.0Q633.0 938.0 619.0 948.5Q605.0 959.0 576.0 963.0V1901.0Q575.0 1915.0 542.0 1938.0Q509.0 1961.0 456.5 1979.5Q404.0 1998.0 342.0 1998.0H289.0V1084.0Q230.0 1129.0 169.0 1171.0Q108.0 1213.0 43.0 1250.0L27.0 1234.0Q94.0 1148.0 158.0 1044.0Q222.0 940.0 279.0 831.0Q336.0 722.0 381.0 620.0Q426.0 518.0 455.0 437.0ZM1505.0 627.0Q1441.0 675.0 1370.5 720.5Q1300.0 766.0 1225.0 808.0L1608.0 802.0Q1557.0 704.0 1505.0 627.0ZM680.0 810.0Q813.0 813.0 1075.0 810.0Q1158.0 721.0 1235.5 619.0Q1313.0 517.0 1376.0 418.0Q1439.0 319.0 1479.0 240.0L1790.0 435.0Q1782.0 450.0 1764.5 458.0Q1747.0 466.0 1710.0 460.0Q1670.0 496.0 1623.0 535.5Q1576.0 575.0 1522.0 615.0Q1680.0 648.0 1773.0 704.5Q1866.0 761.0 1905.0 824.5Q1944.0 888.0 1940.5 946.0Q1937.0 1004.0 1903.0 1042.0Q1869.0 1080.0 1815.0 1084.5Q1761.0 1089.0 1700.0 1045.0Q1691.0 1004.0 1676.0 960.0Q1661.0 916.0 1643.0 873.0Q1555.0 899.0 1447.0 927.0Q1339.0 955.0 1210.0 986.0L1391.0 1033.0Q1386.0 1053.0 1367.0 1066.5Q1348.0 1080.0 1311.0 1080.0Q1294.0 1109.0 1277.0 1135.5Q1260.0 1162.0 1243.0 1189.0H1407.0L1573.0 1033.0L1839.0 1264.0Q1828.0 1283.0 1811.0 1289.5Q1794.0 1296.0 1755.0 1299.0Q1708.0 1385.0 1645.5 1461.0Q1583.0 1537.0 1509.0 1604.0Q1626.0 1641.0 1757.0 1661.5Q1888.0 1682.0 2021.0 1692.0V1717.0Q1934.0 1743.0 1878.0 1814.5Q1822.0 1886.0 1800.0 1996.0Q1653.0 1951.0 1531.5 1892.0Q1410.0 1833.0 1315.0 1746.0Q1025.0 1921.0 604.0 1989.0L594.0 1967.0Q951.0 1830.0 1182.0 1590.0Q1153.0 1544.0 1127.0 1493.0Q1101.0 1442.0 1079.0 1383.0Q976.0 1485.0 861.5 1554.5Q747.0 1624.0 627.0 1672.0L606.0 1653.0Q720.0 1549.0 824.0 1389.5Q928.0 1230.0 995.0 1039.0L842.0 1074.0Q831.0 1094.0 813.0 1105.0Q795.0 1116.0 776.0 1119.0ZM1411.0 1246.0H1202.0Q1181.0 1272.0 1160.0 1297.5Q1139.0 1323.0 1116.0 1346.0Q1183.0 1432.0 1268.0 1490.0Q1312.0 1433.0 1348.0 1371.5Q1384.0 1310.0 1411.0 1246.0ZM1118.0 50.0 1473.0 199.0Q1465.0 218.0 1443.5 228.5Q1422.0 239.0 1387.0 236.0Q1322.0 296.0 1246.5 346.5Q1171.0 397.0 1096.0 435.0Q1161.0 489.0 1173.0 548.0Q1185.0 607.0 1157.0 652.5Q1129.0 698.0 1074.5 712.0Q1020.0 726.0 952.0 689.0Q914.0 598.0 848.0 502.0Q782.0 406.0 731.0 333.0L748.0 322.0Q911.0 337.0 1010.0 384.0Q1039.0 312.0 1067.0 224.5Q1095.0 137.0 1118.0 50.0Z" fill="black"></path></svg>