<?xml version="1.0" standalone="no"?>
<!DOCTYPE svg PUBLIC "-//W3C//DTD SVG 1.1//EN" "http://www.w3.org/Graphics/SVG/1.1/DTD/svg11.dtd" >
<svg xmlns="http://www.w3.org/2000/svg" xmlns:svg="http://www.w3.org/2000/svg" xmlns:xlink="http://www.w3.org/1999/xlink" viewBox="0 0 2048 2048" style=""><path d="M870.5 1201.5Q1033.5 1205.5 1130.0 1243.5Q1226.5 1281.5 1269.5 1336.5Q1312.5 1391.5 1312.0 1447.0Q1311.5 1502.5 1278.0 1543.0Q1244.5 1583.5 1189.5 1593.0Q1134.5 1602.5 1068.5 1563.5Q1044.5 1468.5 983.0 1372.5Q921.5 1276.5 855.5 1213.5ZM1457.5 1336.5Q1650.5 1357.5 1766.0 1413.5Q1881.5 1469.5 1933.0 1541.5Q1984.5 1613.5 1985.5 1682.5Q1986.5 1751.5 1949.5 1800.0Q1912.5 1848.5 1850.5 1858.0Q1788.5 1867.5 1716.5 1817.5Q1691.5 1689.5 1615.0 1562.0Q1538.5 1434.5 1443.5 1348.5ZM562.5 1297.5 915.5 1323.5Q908.5 1366.5 849.5 1375.5V1678.5Q849.5 1698.5 861.5 1706.0Q873.5 1713.5 919.5 1713.5H1130.5Q1177.5 1713.5 1221.0 1713.0Q1264.5 1712.5 1287.5 1710.5Q1330.5 1708.5 1351.5 1684.5Q1371.5 1661.5 1398.0 1608.0Q1424.5 1554.5 1460.5 1473.5H1480.5L1486.5 1690.5Q1546.5 1711.5 1565.5 1738.5Q1584.5 1765.5 1584.5 1807.5Q1584.5 1866.5 1541.5 1906.5Q1498.5 1946.5 1392.0 1967.0Q1285.5 1987.5 1095.5 1987.5H861.5Q740.5 1987.5 675.5 1968.5Q610.5 1949.5 586.5 1899.0Q562.5 1848.5 562.5 1751.5ZM386.5 1344.5H409.5Q466.5 1484.5 463.0 1593.5Q459.5 1702.5 416.0 1775.5Q372.5 1848.5 309.5 1878.5Q242.5 1912.5 172.0 1889.0Q101.5 1865.5 79.5 1792.5Q61.5 1723.5 95.5 1674.0Q129.5 1624.5 188.5 1600.5Q234.5 1582.5 279.5 1546.0Q324.5 1509.5 354.5 1457.5Q384.5 1405.5 386.5 1344.5ZM526.5 60.5 929.5 136.5Q924.5 152.5 909.5 161.5Q894.5 170.5 851.5 170.5Q822.5 218.5 790.0 264.5Q757.5 310.5 720.5 355.5H1533.5L1681.5 215.5L1929.5 424.5Q1916.5 438.5 1895.5 449.0Q1874.5 459.5 1840.5 463.5Q1821.5 694.5 1791.0 848.5Q1760.5 1002.5 1715.5 1094.5Q1670.5 1186.5 1607.5 1231.5Q1497.5 1309.5 1312.5 1309.5Q1312.5 1248.5 1305.0 1198.5Q1297.5 1148.5 1275.5 1121.5Q1251.5 1088.5 1208.5 1064.5Q1165.5 1040.5 1099.5 1024.5L1101.5 1002.5Q1139.5 1005.5 1186.5 1008.5Q1233.5 1011.5 1275.0 1013.0Q1316.5 1014.5 1339.5 1014.5Q1384.5 1014.5 1410.5 996.5Q1502.5 923.5 1552.5 412.5H1486.5Q1377.5 748.5 1093.5 977.0Q809.5 1205.5 343.5 1309.5L335.5 1287.5Q679.5 1139.5 880.5 913.5Q1081.5 687.5 1142.5 412.5H1081.5Q959.5 647.5 730.0 825.5Q500.5 1003.5 212.5 1104.5L202.5 1082.5Q329.5 997.5 437.0 888.0Q544.5 778.5 623.5 657.0Q702.5 535.5 743.5 412.5H671.5Q556.5 540.5 411.5 645.0Q266.5 749.5 102.5 815.5L87.5 799.5Q185.5 716.5 272.0 595.0Q358.5 473.5 424.5 334.5Q490.5 195.5 526.5 60.5Z" fill="black"></path></svg>