<?xml version="1.0" standalone="no"?>
<!DOCTYPE svg PUBLIC "-//W3C//DTD SVG 1.1//EN" "http://www.w3.org/Graphics/SVG/1.1/DTD/svg11.dtd" >
<svg xmlns="http://www.w3.org/2000/svg" xmlns:svg="http://www.w3.org/2000/svg" xmlns:xlink="http://www.w3.org/1999/xlink" viewBox="0 0 2048 2048" style=""><path d="M335.5 683.5 355.5 681.5Q448.5 867.5 465.0 1012.5Q481.5 1157.5 447.5 1261.5Q413.5 1365.5 351.5 1427.5Q309.5 1473.5 257.0 1485.5Q204.5 1497.5 156.0 1479.0Q107.5 1460.5 77.5 1414.5Q40.5 1353.5 59.5 1294.5Q78.5 1235.5 130.5 1193.5Q183.5 1156.5 232.0 1081.5Q280.5 1006.5 310.0 904.0Q339.5 801.5 335.5 683.5ZM626.5 104.5Q846.5 106.5 991.0 144.0Q1135.5 181.5 1216.5 240.5Q1297.5 299.5 1326.5 366.0Q1355.5 432.5 1343.0 493.0Q1330.5 553.5 1289.0 595.0Q1247.5 636.5 1187.0 645.0Q1126.5 653.5 1060.5 614.5Q1037.5 548.5 982.0 463.0Q926.5 377.5 836.5 288.5Q746.5 199.5 620.5 124.5ZM1488.5 665.5Q1680.5 743.5 1793.5 834.5Q1906.5 925.5 1956.0 1018.5Q2005.5 1111.5 2006.5 1194.0Q2007.5 1276.5 1974.0 1338.0Q1940.5 1399.5 1886.5 1429.0Q1832.5 1458.5 1772.0 1444.0Q1711.5 1429.5 1660.5 1359.5Q1666.5 1264.5 1654.0 1145.0Q1641.5 1025.5 1599.5 904.0Q1557.5 782.5 1474.5 679.5ZM589.5 530.5 958.5 565.5Q954.5 585.5 939.0 600.0Q923.5 614.5 886.5 620.5V1582.5Q886.5 1616.5 906.5 1629.5Q926.5 1642.5 980.5 1642.5H1191.5Q1239.5 1642.5 1281.5 1642.0Q1323.5 1641.5 1349.5 1638.5Q1373.5 1636.5 1390.5 1630.0Q1407.5 1623.5 1420.5 1605.5Q1443.5 1573.5 1475.5 1496.0Q1507.5 1418.5 1545.5 1310.5H1566.5L1574.5 1617.5Q1637.5 1643.5 1659.5 1672.5Q1681.5 1701.5 1681.5 1744.5Q1681.5 1811.5 1636.0 1855.5Q1590.5 1899.5 1477.0 1921.5Q1363.5 1943.5 1158.5 1943.5H927.5Q799.5 1943.5 725.5 1922.5Q651.5 1901.5 620.5 1843.5Q589.5 1785.5 589.5 1675.5Z" fill="black"></path></svg>