<?xml version="1.0" standalone="no"?>
<!DOCTYPE svg PUBLIC "-//W3C//DTD SVG 1.1//EN" "http://www.w3.org/Graphics/SVG/1.1/DTD/svg11.dtd" >
<svg xmlns="http://www.w3.org/2000/svg" xmlns:svg="http://www.w3.org/2000/svg" xmlns:xlink="http://www.w3.org/1999/xlink" viewBox="0 0 2048 2048" style=""><path d="M309.5 51.0 660.5 86.0Q657.5 107.0 641.5 122.0Q625.5 137.0 584.5 143.0V1919.0Q584.5 1930.0 551.5 1948.0Q518.5 1966.0 468.0 1980.5Q417.5 1995.0 365.5 1995.0H309.5ZM191.5 418.0H221.5Q297.5 597.0 293.5 731.0Q289.5 865.0 240.5 934.0Q216.5 965.0 179.5 976.5Q142.5 988.0 106.5 978.5Q70.5 969.0 49.5 936.0Q23.5 891.0 39.0 846.5Q54.5 802.0 94.5 770.0Q120.5 739.0 145.5 682.0Q170.5 625.0 184.5 555.5Q198.5 486.0 191.5 418.0ZM817.5 213.0V92.0L1118.5 213.0H1516.5L1645.5 71.0L1907.5 272.0Q1898.5 284.0 1878.5 296.5Q1858.5 309.0 1827.5 315.0V1012.0Q1825.5 1019.0 1798.5 1034.0Q1771.5 1049.0 1731.5 1063.0L1995.5 1280.0Q1971.5 1306.0 1913.5 1288.0Q1874.5 1303.0 1810.0 1322.5Q1745.5 1342.0 1668.5 1359.5Q1591.5 1377.0 1516.5 1388.0Q1619.5 1490.0 1749.0 1557.0Q1878.5 1624.0 2024.5 1657.0L2022.5 1679.0Q1940.5 1705.0 1879.0 1781.0Q1817.5 1857.0 1794.5 1972.0Q1667.5 1904.0 1575.0 1814.5Q1482.5 1725.0 1417.5 1603.0Q1331.5 1665.0 1195.0 1748.0Q1058.5 1831.0 854.5 1943.0Q836.5 1986.0 795.5 1997.0L637.5 1671.0L817.5 1653.0V708.0Q785.5 744.0 732.5 745.0Q679.5 746.0 631.5 694.0Q640.5 617.0 627.0 535.5Q613.5 454.0 588.5 393.0L610.5 385.0Q690.5 416.0 741.0 452.5Q791.5 489.0 817.5 526.0ZM1106.5 1620.0 1405.5 1581.0Q1348.5 1469.0 1311.5 1327.5Q1274.5 1186.0 1249.5 1007.0H1106.5ZM1536.5 1007.0H1282.5Q1316.5 1112.0 1369.5 1200.0Q1422.5 1288.0 1489.5 1362.0Q1544.5 1299.0 1602.5 1216.0Q1660.5 1133.0 1694.5 1075.0Q1638.5 1091.0 1585.5 1091.0H1536.5ZM1536.5 950.0V633.0H1106.5V950.0ZM1536.5 575.0V268.0H1106.5V575.0Z" fill="black"></path></svg>