<?xml version="1.0" standalone="no"?>
<!DOCTYPE svg PUBLIC "-//W3C//DTD SVG 1.1//EN" "http://www.w3.org/Graphics/SVG/1.1/DTD/svg11.dtd" >
<svg xmlns="http://www.w3.org/2000/svg" xmlns:svg="http://www.w3.org/2000/svg" xmlns:xlink="http://www.w3.org/1999/xlink" viewBox="0 0 2048 2048" style=""><path d="M182.0 419.0H213.0Q285.0 597.0 281.5 730.0Q278.0 863.0 233.0 931.0Q201.0 978.0 142.5 985.0Q84.0 992.0 53.0 947.0Q29.0 907.0 42.0 864.5Q55.0 822.0 92.0 789.0Q118.0 758.0 141.5 697.5Q165.0 637.0 177.0 563.5Q189.0 490.0 182.0 419.0ZM1554.0 1035.0H1143.0V1203.0H1554.0ZM1186.0 66.0 1538.0 95.0Q1537.0 115.0 1523.0 128.5Q1509.0 142.0 1473.0 148.0V306.0H1616.0L1751.0 130.0Q1751.0 130.0 1776.0 149.5Q1801.0 169.0 1839.5 199.5Q1878.0 230.0 1920.0 265.0Q1962.0 300.0 1997.0 331.0Q1988.0 363.0 1939.0 363.0H1473.0V535.0H1585.0L1710.0 371.0Q1710.0 371.0 1749.5 402.0Q1789.0 433.0 1842.5 477.0Q1896.0 521.0 1939.0 560.0Q1931.0 593.0 1882.0 593.0H1473.0V783.0H1640.0L1776.0 607.0Q1776.0 607.0 1800.5 626.5Q1825.0 646.0 1863.0 676.5Q1901.0 707.0 1943.0 742.0Q1985.0 777.0 2019.0 808.0Q2010.0 840.0 1962.0 840.0H1665.0L1925.0 1037.0Q1914.0 1049.0 1894.5 1061.5Q1875.0 1074.0 1843.0 1082.0V1680.0Q1843.0 1772.0 1820.5 1838.0Q1798.0 1904.0 1726.0 1943.0Q1654.0 1982.0 1505.0 1996.0Q1502.0 1925.0 1494.0 1874.5Q1486.0 1824.0 1466.0 1793.0Q1445.0 1761.0 1413.5 1737.5Q1382.0 1714.0 1313.0 1701.0V1676.0Q1313.0 1676.0 1338.5 1677.5Q1364.0 1679.0 1400.5 1680.5Q1437.0 1682.0 1470.0 1683.0Q1503.0 1684.0 1518.0 1684.0Q1554.0 1684.0 1554.0 1647.0V1498.0H1143.0V1897.0Q1143.0 1912.0 1107.5 1934.0Q1072.0 1956.0 1017.0 1973.5Q962.0 1991.0 901.0 1991.0H858.0V861.0L1155.0 978.0H1534.0L1655.0 840.0H713.0L696.0 783.0H1186.0V593.0H850.0L834.0 535.0H1186.0V363.0H766.0L750.0 306.0H1186.0ZM1143.0 1260.0V1441.0H1554.0V1260.0ZM594.0 392.0Q717.0 442.0 772.0 504.0Q827.0 566.0 831.5 622.5Q836.0 679.0 807.5 716.5Q779.0 754.0 732.5 758.0Q686.0 762.0 641.0 716.0Q644.0 646.0 627.5 572.5Q611.0 499.0 588.0 439.0V1920.0Q588.0 1931.0 555.0 1949.0Q522.0 1967.0 471.5 1981.5Q421.0 1996.0 369.0 1996.0H313.0V52.0L664.0 87.0Q660.0 108.0 644.5 123.0Q629.0 138.0 588.0 144.0V394.0Z" fill="black"></path></svg>