<?xml version="1.0" standalone="no"?>
<!DOCTYPE svg PUBLIC "-//W3C//DTD SVG 1.1//EN" "http://www.w3.org/Graphics/SVG/1.1/DTD/svg11.dtd" >
<svg xmlns="http://www.w3.org/2000/svg" xmlns:svg="http://www.w3.org/2000/svg" xmlns:xlink="http://www.w3.org/1999/xlink" viewBox="0 0 2048 2048" style=""><path d="M800.0 1194.0Q977.0 1182.0 1087.5 1213.0Q1198.0 1244.0 1253.0 1297.5Q1308.0 1351.0 1316.5 1410.5Q1325.0 1470.0 1297.0 1517.0Q1269.0 1564.0 1214.0 1581.5Q1159.0 1599.0 1087.0 1567.0Q1059.0 1500.0 1010.0 1433.0Q961.0 1366.0 902.5 1307.5Q844.0 1249.0 788.0 1209.0ZM386.0 1333.0H409.0Q471.0 1477.0 468.5 1589.0Q466.0 1701.0 420.5 1775.5Q375.0 1850.0 308.0 1878.0Q239.0 1910.0 170.0 1884.0Q101.0 1858.0 79.0 1784.0Q62.0 1712.0 98.5 1663.0Q135.0 1614.0 194.0 1589.0Q240.0 1573.0 284.0 1536.5Q328.0 1500.0 357.0 1448.0Q386.0 1396.0 386.0 1333.0ZM1447.0 1309.0Q1647.0 1344.0 1765.5 1412.0Q1884.0 1480.0 1936.0 1560.5Q1988.0 1641.0 1987.0 1715.5Q1986.0 1790.0 1946.5 1840.5Q1907.0 1891.0 1841.5 1898.0Q1776.0 1905.0 1701.0 1850.0Q1681.0 1707.0 1606.0 1565.0Q1531.0 1423.0 1431.0 1321.0ZM564.0 1307.0 915.0 1333.0Q908.0 1376.0 849.0 1385.0V1680.0Q849.0 1700.0 862.0 1707.0Q875.0 1714.0 921.0 1714.0H1132.0Q1178.0 1714.0 1222.0 1714.0Q1266.0 1714.0 1289.0 1712.0Q1330.0 1710.0 1353.0 1684.0Q1371.0 1661.0 1398.0 1606.0Q1425.0 1551.0 1461.0 1465.0H1482.0L1488.0 1690.0Q1546.0 1713.0 1565.0 1739.0Q1584.0 1765.0 1584.0 1804.0Q1584.0 1864.0 1541.5 1901.5Q1499.0 1939.0 1393.0 1956.5Q1287.0 1974.0 1097.0 1974.0H863.0Q742.0 1974.0 677.0 1955.5Q612.0 1937.0 588.0 1887.5Q564.0 1838.0 564.0 1745.0ZM1070.0 793.0Q1017.0 886.0 903.5 958.5Q790.0 1031.0 583.0 1084.0L575.0 1069.0V1100.0H1474.0V606.0Q1461.0 613.0 1441.0 613.0H1132.0Q1126.0 642.0 1119.0 670.5Q1112.0 699.0 1101.0 725.0Q1248.0 733.0 1326.5 777.0Q1405.0 821.0 1427.5 878.5Q1450.0 936.0 1430.0 985.0Q1410.0 1034.0 1359.5 1053.5Q1309.0 1073.0 1242.0 1041.0Q1218.0 978.0 1170.5 911.5Q1123.0 845.0 1070.0 793.0ZM288.0 217.0V98.0L593.0 217.0H1453.0L1582.0 74.0L1846.0 277.0Q1837.0 289.0 1817.0 301.5Q1797.0 314.0 1765.0 322.0V1215.0Q1764.0 1223.0 1724.0 1240.0Q1684.0 1257.0 1628.0 1271.5Q1572.0 1286.0 1523.0 1286.0H1474.0V1157.0H575.0V1217.0Q575.0 1232.0 539.0 1255.0Q503.0 1278.0 447.0 1295.5Q391.0 1313.0 331.0 1313.0H288.0ZM872.0 299.0 1220.0 328.0Q1213.0 372.0 1152.0 381.0Q1149.0 472.0 1140.0 555.0H1179.0L1291.0 412.0Q1291.0 412.0 1320.5 435.0Q1350.0 458.0 1392.5 492.5Q1435.0 527.0 1474.0 559.0V275.0H575.0V555.0H868.0Q871.0 497.0 871.5 433.5Q872.0 370.0 872.0 299.0ZM575.0 570.0V1053.0Q730.0 965.0 790.0 857.0Q850.0 749.0 863.0 613.0H587.0Z" fill="black"></path></svg>