<?xml version="1.0" standalone="no"?>
<!DOCTYPE svg PUBLIC "-//W3C//DTD SVG 1.1//EN" "http://www.w3.org/Graphics/SVG/1.1/DTD/svg11.dtd" >
<svg xmlns="http://www.w3.org/2000/svg" xmlns:svg="http://www.w3.org/2000/svg" xmlns:xlink="http://www.w3.org/1999/xlink" viewBox="0 0 2048 2048" style=""><path d="M171.5 419.0H202.5Q274.5 597.0 271.0 730.0Q267.5 863.0 222.5 931.0Q190.5 978.0 132.0 985.0Q73.5 992.0 42.5 947.0Q18.5 907.0 31.5 864.5Q44.5 822.0 81.5 789.0Q107.5 758.0 131.0 697.5Q154.5 637.0 166.5 563.5Q178.5 490.0 171.5 419.0ZM1298.5 566.0H1111.5V920.0H1298.5ZM583.5 351.0Q724.5 403.0 771.5 472.0Q818.5 541.0 806.5 595.0Q900.5 332.0 954.5 54.0L1330.5 169.0Q1323.5 187.0 1303.5 199.5Q1283.5 212.0 1246.5 212.0Q1216.5 289.0 1183.0 360.5Q1149.5 432.0 1113.5 498.0L1140.5 509.0H1324.5Q1337.5 451.0 1351.5 376.0Q1365.5 301.0 1378.5 223.5Q1391.5 146.0 1400.5 83.0L1797.5 177.0Q1783.5 225.0 1709.5 228.0L1425.5 509.0H1625.5L1765.5 326.0Q1765.5 326.0 1791.0 346.5Q1816.5 367.0 1855.5 398.5Q1894.5 430.0 1937.5 466.0Q1980.5 502.0 2014.5 533.0Q2009.5 566.0 1957.5 566.0H1580.5V920.0H1617.5L1748.5 748.0Q1748.5 748.0 1789.5 780.5Q1830.5 813.0 1886.5 859.0Q1942.5 905.0 1986.5 945.0Q1980.5 978.0 1931.5 978.0H1580.5V1352.0H1617.5L1748.5 1180.0Q1748.5 1180.0 1789.5 1212.5Q1830.5 1245.0 1886.5 1291.0Q1942.5 1337.0 1986.5 1377.0Q1980.5 1410.0 1931.5 1410.0H1580.5V1807.0H1631.5L1773.5 1621.0Q1773.5 1621.0 1799.5 1641.5Q1825.5 1662.0 1866.0 1694.0Q1906.5 1726.0 1950.0 1762.5Q1993.5 1799.0 2029.5 1832.0Q2026.5 1849.0 2010.0 1856.5Q1993.5 1864.0 1971.5 1864.0H1111.5V1903.0Q1111.5 1913.0 1084.0 1932.5Q1056.5 1952.0 1005.0 1968.5Q953.5 1985.0 880.5 1985.0H827.5V906.0Q776.5 960.0 723.5 1009.0Q670.5 1058.0 614.5 1101.0L591.5 1086.0Q643.5 993.0 696.0 875.5Q748.5 758.0 796.5 625.0Q773.5 668.0 721.5 679.0Q669.5 690.0 620.5 640.0Q624.5 580.0 611.0 515.5Q597.5 451.0 577.5 400.0V1920.0Q577.5 1931.0 544.5 1949.0Q511.5 1967.0 461.0 1981.5Q410.5 1996.0 358.5 1996.0H302.5V52.0L653.5 87.0Q649.5 108.0 634.0 123.0Q618.5 138.0 577.5 144.0V353.0ZM1298.5 978.0H1111.5V1352.0H1298.5ZM1298.5 1410.0H1111.5V1807.0H1298.5Z" fill="black"></path></svg>