<?xml version="1.0" standalone="no"?>
<!DOCTYPE svg PUBLIC "-//W3C//DTD SVG 1.1//EN" "http://www.w3.org/Graphics/SVG/1.1/DTD/svg11.dtd" >
<svg xmlns="http://www.w3.org/2000/svg" xmlns:svg="http://www.w3.org/2000/svg" xmlns:xlink="http://www.w3.org/1999/xlink" viewBox="0 0 2048 2048" style=""><path d="M891.0 1238.5Q1046.0 1247.5 1135.5 1287.5Q1225.0 1327.5 1261.5 1381.5Q1298.0 1435.5 1293.0 1488.5Q1288.0 1541.5 1252.0 1578.5Q1216.0 1615.5 1161.5 1621.0Q1107.0 1626.5 1045.0 1584.5Q1029.0 1494.5 980.5 1403.0Q932.0 1311.5 877.0 1249.5ZM1442.0 1386.5Q1632.0 1405.5 1745.0 1460.0Q1858.0 1514.5 1909.0 1584.5Q1960.0 1654.5 1960.5 1722.5Q1961.0 1790.5 1924.0 1838.5Q1887.0 1886.5 1825.5 1895.5Q1764.0 1904.5 1692.0 1855.5Q1669.0 1729.5 1594.5 1605.5Q1520.0 1481.5 1428.0 1398.5ZM557.0 1337.5 909.0 1361.5Q903.0 1406.5 844.0 1414.5V1685.5Q844.0 1703.5 855.5 1711.0Q867.0 1718.5 914.0 1718.5H1120.0Q1168.0 1718.5 1211.5 1718.0Q1255.0 1717.5 1276.0 1715.5Q1320.0 1713.5 1342.0 1689.5Q1377.0 1644.5 1448.0 1484.5H1469.0L1475.0 1695.5Q1533.0 1716.5 1553.0 1743.5Q1573.0 1770.5 1573.0 1810.5Q1573.0 1868.5 1530.0 1906.0Q1487.0 1943.5 1381.0 1962.0Q1275.0 1980.5 1086.0 1980.5H854.0Q732.0 1980.5 668.0 1962.0Q604.0 1943.5 580.5 1893.5Q557.0 1843.5 557.0 1750.5ZM381.0 1365.5H404.0Q459.0 1502.5 454.5 1610.5Q450.0 1718.5 406.0 1790.0Q362.0 1861.5 297.0 1890.5Q231.0 1922.5 161.0 1898.0Q91.0 1873.5 70.0 1799.5Q53.0 1730.5 88.5 1681.0Q124.0 1631.5 182.0 1607.5Q227.0 1591.5 272.5 1556.5Q318.0 1521.5 348.5 1473.0Q379.0 1424.5 381.0 1365.5ZM402.0 67.5 760.0 204.5Q752.0 222.5 731.5 233.5Q711.0 244.5 676.0 241.5Q648.0 293.5 617.5 341.5Q587.0 389.5 555.0 433.5L612.0 456.5Q602.0 486.5 549.0 495.5V1261.5Q547.0 1270.5 513.5 1287.0Q480.0 1303.5 429.5 1317.0Q379.0 1330.5 326.0 1330.5H275.0V730.5Q165.0 818.5 51.0 878.5L31.0 861.5Q103.0 768.5 173.5 641.5Q244.0 514.5 303.5 367.0Q363.0 219.5 402.0 67.5ZM1124.0 71.5 1495.0 186.5Q1488.0 206.5 1467.5 218.5Q1447.0 230.5 1411.0 229.5Q1394.0 269.5 1375.5 306.0Q1357.0 342.5 1335.0 376.5H1606.0L1747.0 202.5Q1747.0 202.5 1790.0 234.0Q1833.0 265.5 1893.5 312.0Q1954.0 358.5 2005.0 401.5Q1996.0 433.5 1946.0 433.5H1819.0Q1780.0 570.5 1713.0 686.0Q1646.0 801.5 1546.0 894.5Q1643.0 950.5 1760.5 989.5Q1878.0 1028.5 2017.0 1054.5L2013.0 1076.5Q1923.0 1110.5 1877.5 1177.0Q1832.0 1243.5 1817.0 1349.5Q1669.0 1294.5 1562.0 1213.0Q1455.0 1131.5 1378.0 1025.5Q1240.0 1111.5 1062.5 1174.0Q885.0 1236.5 664.0 1273.5L656.0 1251.5Q866.0 1178.5 1022.0 1082.0Q1178.0 985.5 1282.0 866.5Q1220.0 735.5 1178.0 587.5Q1118.0 650.5 1051.5 700.5Q985.0 750.5 912.0 790.5V1044.5Q912.0 1053.5 880.0 1067.5Q848.0 1081.5 801.0 1092.5Q754.0 1103.5 707.0 1103.5H662.0V298.5L979.0 327.5Q976.0 345.5 962.0 359.0Q948.0 372.5 912.0 378.5V679.5Q985.0 555.5 1042.5 398.5Q1100.0 241.5 1124.0 71.5ZM1493.0 433.5H1301.0Q1281.0 464.5 1259.5 492.5Q1238.0 520.5 1215.0 546.5Q1274.0 668.5 1364.0 755.5Q1412.0 683.5 1443.5 602.5Q1475.0 521.5 1493.0 433.5Z" fill="black"></path></svg>