<?xml version="1.0" standalone="no"?>
<!DOCTYPE svg PUBLIC "-//W3C//DTD SVG 1.1//EN" "http://www.w3.org/Graphics/SVG/1.1/DTD/svg11.dtd" >
<svg xmlns="http://www.w3.org/2000/svg" xmlns:svg="http://www.w3.org/2000/svg" xmlns:xlink="http://www.w3.org/1999/xlink" viewBox="0 0 2048 2048" style=""><path d="M180.5 419.0H211.5Q283.5 595.0 280.0 728.0Q276.5 861.0 230.5 929.0Q196.5 976.0 137.5 980.5Q78.5 985.0 47.5 939.0Q23.5 897.0 37.0 854.5Q50.5 812.0 88.5 781.0Q114.5 749.0 138.5 690.5Q162.5 632.0 175.5 560.5Q188.5 489.0 180.5 419.0ZM932.5 163.0 1213.5 294.0V54.0L1569.5 83.0Q1566.5 103.0 1553.5 116.5Q1540.5 130.0 1503.5 136.0V701.0H1571.5L1698.5 556.0L1759.5 603.0Q1727.5 494.0 1665.5 387.5Q1603.5 281.0 1540.5 199.0L1557.5 187.0Q1734.5 222.0 1837.5 283.5Q1940.5 345.0 1982.5 416.0Q2024.5 487.0 2019.0 550.5Q2013.5 614.0 1974.0 653.5Q1934.5 693.0 1874.5 691.0L1966.5 761.0Q1956.5 773.0 1937.0 785.5Q1917.5 798.0 1884.5 806.0V1664.0Q1884.5 1759.0 1860.5 1826.5Q1836.5 1894.0 1760.0 1934.5Q1683.5 1975.0 1524.5 1989.0Q1519.5 1917.0 1508.5 1865.0Q1497.5 1813.0 1473.5 1781.0Q1447.5 1747.0 1408.0 1723.5Q1368.5 1700.0 1286.5 1684.0V1658.0Q1286.5 1658.0 1320.5 1659.5Q1354.5 1661.0 1402.0 1663.5Q1449.5 1666.0 1492.0 1668.0Q1534.5 1670.0 1551.5 1670.0Q1575.5 1670.0 1584.0 1659.5Q1592.5 1649.0 1592.5 1629.0V1393.0H1141.5V1887.0Q1141.5 1903.0 1106.5 1927.0Q1071.5 1951.0 1016.0 1969.0Q960.5 1987.0 897.5 1987.0H852.5V711.0Q812.5 744.0 769.5 773.0Q726.5 802.0 680.5 826.0L664.5 806.0Q687.5 773.0 709.0 738.0Q730.5 703.0 752.5 666.0Q724.5 669.0 695.0 660.5Q665.5 652.0 637.5 625.0Q639.5 569.0 623.5 509.5Q607.5 450.0 586.5 402.0V1920.0Q586.5 1931.0 553.5 1949.0Q520.5 1967.0 470.0 1981.5Q419.5 1996.0 367.5 1996.0H312.5V52.0L662.5 87.0Q659.5 108.0 643.5 123.0Q627.5 138.0 586.5 144.0V363.0L590.5 361.0Q693.5 384.0 751.5 419.0Q809.5 454.0 832.5 494.0Q867.5 407.0 893.0 321.0Q918.5 235.0 932.5 163.0ZM1141.5 1072.0V1336.0H1592.5V1072.0ZM1141.5 1015.0H1592.5V759.0H1141.5ZM1213.5 701.0V345.0H1178.5Q1135.5 412.0 1079.0 483.5Q1022.5 555.0 953.5 621.0L1153.5 701.0Z" fill="black"></path></svg>