<?xml version="1.0" standalone="no"?>
<!DOCTYPE svg PUBLIC "-//W3C//DTD SVG 1.1//EN" "http://www.w3.org/Graphics/SVG/1.1/DTD/svg11.dtd" >
<svg xmlns="http://www.w3.org/2000/svg" xmlns:svg="http://www.w3.org/2000/svg" xmlns:xlink="http://www.w3.org/1999/xlink" viewBox="0 0 2048 2048" style=""><path d="M817.0 1128.5Q996.0 1127.5 1105.5 1165.0Q1215.0 1202.5 1268.5 1260.0Q1322.0 1317.5 1328.0 1378.0Q1334.0 1438.5 1304.0 1484.5Q1274.0 1530.5 1218.5 1545.0Q1163.0 1559.5 1092.0 1523.5Q1066.0 1454.5 1019.5 1383.5Q973.0 1312.5 916.0 1249.5Q859.0 1186.5 803.0 1140.5ZM563.0 1263.5 914.0 1290.5Q907.0 1332.5 848.0 1341.5V1669.5Q848.0 1690.5 861.0 1698.0Q874.0 1705.5 920.0 1705.5H1131.0Q1177.0 1705.5 1220.0 1705.5Q1263.0 1705.5 1286.0 1703.5Q1329.0 1701.5 1350.0 1675.5Q1370.0 1650.5 1397.0 1594.0Q1424.0 1537.5 1461.0 1449.5H1481.0L1487.0 1681.5Q1546.0 1704.5 1564.5 1730.5Q1583.0 1756.5 1583.0 1796.5Q1583.0 1855.5 1540.5 1893.5Q1498.0 1931.5 1392.0 1950.0Q1286.0 1968.5 1096.0 1968.5H862.0Q741.0 1968.5 676.0 1949.5Q611.0 1930.5 587.0 1880.0Q563.0 1829.5 563.0 1736.5ZM375.0 1265.5H398.0Q464.0 1418.5 462.5 1536.5Q461.0 1654.5 415.0 1733.0Q369.0 1811.5 301.0 1845.5Q232.0 1880.5 161.0 1858.0Q90.0 1835.5 66.0 1763.5Q46.0 1694.5 80.0 1644.5Q114.0 1594.5 172.0 1566.5Q222.0 1547.5 269.0 1504.5Q316.0 1461.5 346.0 1400.5Q376.0 1339.5 375.0 1265.5ZM1463.0 1253.5Q1662.0 1287.5 1779.5 1355.0Q1897.0 1422.5 1948.5 1502.5Q2000.0 1582.5 1999.0 1657.0Q1998.0 1731.5 1958.5 1781.5Q1919.0 1831.5 1854.0 1838.5Q1789.0 1845.5 1714.0 1789.5Q1694.0 1647.5 1620.0 1506.5Q1546.0 1365.5 1446.0 1265.5ZM590.0 657.5V995.5H883.0V657.5ZM590.0 600.5H883.0V282.5H590.0ZM299.0 225.5V106.5L609.0 225.5H1454.0L1585.0 79.5L1852.0 284.5Q1842.0 296.5 1823.0 310.0Q1804.0 323.5 1772.0 329.5V1103.5Q1770.0 1112.5 1729.0 1129.0Q1688.0 1145.5 1631.0 1159.5Q1574.0 1173.5 1524.0 1173.5H1475.0V1052.5H590.0V1118.5Q590.0 1133.5 553.5 1156.0Q517.0 1178.5 460.0 1195.5Q403.0 1212.5 342.0 1212.5H299.0ZM1164.0 282.5V600.5H1475.0V282.5ZM1164.0 657.5V995.5H1475.0V657.5Z" fill="black"></path></svg>