<?xml version="1.0" standalone="no"?>
<!DOCTYPE svg PUBLIC "-//W3C//DTD SVG 1.1//EN" "http://www.w3.org/Graphics/SVG/1.1/DTD/svg11.dtd" >
<svg xmlns="http://www.w3.org/2000/svg" xmlns:svg="http://www.w3.org/2000/svg" xmlns:xlink="http://www.w3.org/1999/xlink" viewBox="0 0 2048 2048" style=""><path d="M876.0 1287.5Q1034.0 1279.5 1130.0 1309.5Q1226.0 1339.5 1271.0 1389.0Q1316.0 1438.5 1319.0 1492.0Q1322.0 1545.5 1292.5 1586.0Q1263.0 1626.5 1210.0 1639.5Q1157.0 1652.5 1092.0 1618.5Q1062.0 1531.5 996.0 1444.0Q930.0 1356.5 862.0 1299.5ZM1479.0 1391.5Q1665.0 1417.5 1775.5 1475.0Q1886.0 1532.5 1934.0 1603.5Q1982.0 1674.5 1981.0 1741.5Q1980.0 1808.5 1942.5 1854.5Q1905.0 1900.5 1843.5 1908.0Q1782.0 1915.5 1710.0 1866.5Q1685.0 1742.5 1615.0 1617.5Q1545.0 1492.5 1462.0 1403.5ZM586.0 1368.5 934.0 1393.5Q928.0 1436.5 870.0 1444.5V1690.5Q870.0 1708.5 880.5 1716.0Q891.0 1723.5 936.0 1723.5H1135.0Q1179.0 1723.5 1220.0 1723.0Q1261.0 1722.5 1284.0 1721.5Q1322.0 1721.5 1343.0 1694.5Q1363.0 1671.5 1389.0 1617.5Q1415.0 1563.5 1452.0 1477.5H1472.0L1479.0 1700.5Q1535.0 1722.5 1554.0 1748.5Q1573.0 1774.5 1573.0 1813.5Q1573.0 1871.5 1531.0 1908.5Q1489.0 1945.5 1386.0 1963.5Q1283.0 1981.5 1100.0 1981.5H874.0Q756.0 1981.5 693.5 1963.0Q631.0 1944.5 608.5 1895.5Q586.0 1846.5 586.0 1753.5ZM416.0 1385.5H438.0Q494.0 1522.5 491.0 1630.5Q488.0 1738.5 445.0 1810.5Q402.0 1882.5 338.0 1913.5Q294.0 1935.5 245.0 1931.0Q196.0 1926.5 157.5 1897.5Q119.0 1868.5 104.0 1817.5Q86.0 1745.5 123.0 1694.5Q160.0 1643.5 221.0 1618.5Q264.0 1602.5 308.0 1568.5Q352.0 1534.5 382.5 1487.5Q413.0 1440.5 416.0 1385.5ZM1440.0 119.5Q1422.0 144.5 1382.0 150.5Q1384.0 197.5 1386.0 246.5Q1388.0 295.5 1393.0 342.5H1575.0Q1549.0 342.5 1520.5 331.5Q1492.0 320.5 1466.0 295.5Q1469.0 249.5 1460.5 204.0Q1452.0 158.5 1440.0 119.5ZM217.0 342.5V236.5L528.0 342.5H1116.0Q1108.0 275.5 1104.5 206.5Q1101.0 137.5 1100.0 66.5L1427.0 90.5L1421.0 78.5L1438.0 70.5Q1553.0 85.5 1615.0 117.5Q1677.0 149.5 1696.5 187.5Q1716.0 225.5 1704.0 261.0Q1692.0 296.5 1658.5 319.5Q1625.0 342.5 1581.0 342.5H1700.0L1808.0 160.5Q1808.0 160.5 1841.5 195.5Q1875.0 230.5 1919.0 279.0Q1963.0 327.5 1995.0 367.5Q1986.0 400.5 1941.0 400.5H1401.0Q1413.0 501.5 1438.5 597.5Q1464.0 693.5 1507.0 779.5Q1543.0 702.5 1571.0 619.0Q1599.0 535.5 1618.0 445.5L1962.0 570.5Q1954.0 588.5 1933.5 599.5Q1913.0 610.5 1878.0 607.5Q1829.0 720.5 1769.5 812.5Q1710.0 904.5 1640.0 977.5Q1696.0 1036.5 1763.0 1082.5Q1785.0 1097.5 1799.0 1097.0Q1813.0 1096.5 1827.0 1076.5Q1850.0 1042.5 1884.0 980.0Q1918.0 917.5 1946.0 858.5L1964.0 865.5L1925.0 1149.5Q1985.0 1232.5 1995.0 1281.0Q2005.0 1329.5 1980.0 1362.5Q1937.0 1417.5 1870.0 1420.0Q1803.0 1422.5 1734.0 1395.5Q1665.0 1368.5 1618.0 1336.5Q1563.0 1294.5 1514.0 1250.0Q1465.0 1205.5 1425.0 1155.5Q1359.0 1198.5 1288.0 1232.0Q1217.0 1265.5 1141.0 1293.5L1122.0 1272.5Q1181.0 1226.5 1237.0 1171.0Q1293.0 1115.5 1343.0 1049.5Q1284.0 958.5 1241.5 860.5Q1199.0 762.5 1171.0 658.5H520.0L504.0 600.5H862.0L1003.0 420.5L1143.0 529.5L1122.0 400.5H489.0V645.5Q489.0 742.5 476.5 859.5Q464.0 976.5 422.0 1097.5Q380.0 1218.5 293.0 1331.0Q206.0 1443.5 57.0 1530.5L43.0 1514.5Q125.0 1383.5 161.5 1233.5Q198.0 1083.5 207.5 932.5Q217.0 781.5 217.0 645.5ZM518.0 799.5V699.5L778.0 799.5H883.0L993.0 682.5L1223.0 852.5Q1216.0 862.5 1200.0 873.0Q1184.0 883.5 1159.0 887.5V1164.5Q1158.0 1172.5 1122.0 1186.5Q1086.0 1200.5 1036.5 1212.0Q987.0 1223.5 946.0 1223.5H901.0V1139.5H770.0V1190.5Q770.0 1201.5 737.5 1219.5Q705.0 1237.5 655.0 1252.0Q605.0 1266.5 553.0 1266.5H518.0ZM770.0 1082.5H901.0V856.5H770.0Z" fill="black"></path></svg>