<?xml version="1.0" standalone="no"?>
<!DOCTYPE svg PUBLIC "-//W3C//DTD SVG 1.1//EN" "http://www.w3.org/Graphics/SVG/1.1/DTD/svg11.dtd" >
<svg xmlns="http://www.w3.org/2000/svg" xmlns:svg="http://www.w3.org/2000/svg" xmlns:xlink="http://www.w3.org/1999/xlink" viewBox="0 0 2048 2048" style=""><path d="M746.0 140.0Q878.0 156.0 952.5 194.5Q1027.0 233.0 1055.0 280.5Q1083.0 328.0 1075.0 372.0Q1067.0 416.0 1033.0 445.5Q999.0 475.0 950.0 477.5Q901.0 480.0 848.0 441.0Q839.0 364.0 802.5 285.0Q766.0 206.0 729.0 150.0ZM1567.0 97.0 1872.0 251.0Q1863.0 268.0 1841.5 278.0Q1820.0 288.0 1786.0 281.0Q1706.0 329.0 1617.5 372.5Q1529.0 416.0 1452.0 443.0L1430.0 427.0Q1461.0 368.0 1497.0 278.5Q1533.0 189.0 1567.0 97.0ZM142.0 427.0H172.0Q233.0 583.0 246.0 705.0V52.0L580.0 85.0Q577.0 106.0 562.0 122.0Q547.0 138.0 504.0 144.0V361.0Q578.0 389.0 627.0 422.0Q676.0 455.0 705.0 490.0H1116.0V62.0L1461.0 93.0Q1457.0 111.0 1443.5 124.5Q1430.0 138.0 1393.0 144.0V490.0H1624.0L1749.0 335.0Q1749.0 335.0 1788.5 364.0Q1828.0 393.0 1882.5 435.0Q1937.0 477.0 1981.0 515.0Q1972.0 548.0 1923.0 548.0H1479.0Q1582.0 609.0 1730.5 645.5Q1879.0 682.0 2024.0 693.0L2022.0 716.0Q1884.0 757.0 1850.0 943.0Q1542.0 824.0 1399.0 548.0H1393.0V908.0Q1393.0 916.0 1359.0 929.0Q1325.0 942.0 1273.5 951.5Q1222.0 961.0 1170.0 961.0H1116.0V738.0Q1043.0 784.0 960.0 821.5Q877.0 859.0 785.0 892.0L1032.0 970.0Q1015.0 1010.0 953.0 1010.0Q940.0 1040.0 926.5 1067.5Q913.0 1095.0 899.0 1121.0H942.0L1061.0 1002.0L1205.0 1121.0V1062.0L1450.0 1156.0H1497.0V908.0L1813.0 937.0Q1810.0 954.0 1798.0 966.0Q1786.0 978.0 1753.0 984.0V1131.0L1835.0 1017.0Q1835.0 1017.0 1867.0 1043.5Q1899.0 1070.0 1942.5 1108.5Q1986.0 1147.0 2020.0 1180.0Q2011.0 1213.0 1966.0 1213.0H1753.0V1490.0L1839.0 1359.0Q1839.0 1359.0 1874.5 1392.0Q1910.0 1425.0 1957.0 1471.0Q2004.0 1517.0 2040.0 1557.0Q2034.0 1590.0 1987.0 1590.0H1753.0V1940.0Q1753.0 1948.0 1721.5 1961.5Q1690.0 1975.0 1643.5 1985.5Q1597.0 1996.0 1551.0 1996.0H1497.0V1590.0H1086.0L1071.0 1541.0Q990.0 1685.0 855.0 1800.5Q720.0 1916.0 514.0 1989.0L502.0 1963.0Q622.0 1889.0 705.0 1792.0Q788.0 1695.0 842.0 1580.0Q821.0 1580.0 797.0 1571.5Q773.0 1563.0 750.0 1543.0Q751.0 1503.0 740.0 1459.5Q729.0 1416.0 711.0 1381.0Q631.0 1467.0 539.0 1529.0L512.0 1510.0Q583.0 1400.0 644.0 1240.0Q705.0 1080.0 738.0 906.0Q695.0 921.0 650.0 933.5Q605.0 946.0 559.0 957.0L545.0 931.0Q694.0 860.0 814.0 759.0Q934.0 658.0 1012.0 548.0H738.0Q758.0 598.0 745.5 640.0Q733.0 682.0 700.0 706.0Q667.0 730.0 624.5 726.5Q582.0 723.0 541.0 681.0Q549.0 618.0 537.5 551.0Q526.0 484.0 504.0 427.0V1924.0Q504.0 1934.0 473.5 1951.0Q443.0 1968.0 395.5 1982.0Q348.0 1996.0 299.0 1996.0H246.0V834.0Q240.0 888.0 221.0 924.0Q205.0 960.0 170.0 976.0Q135.0 992.0 98.5 986.0Q62.0 980.0 39.0 949.0Q10.0 909.0 21.0 864.5Q32.0 820.0 70.0 783.0Q88.0 751.0 108.0 692.5Q128.0 634.0 139.0 563.5Q150.0 493.0 142.0 427.0ZM756.0 1332.0Q865.0 1347.0 916.0 1385.0Q930.0 1336.0 939.5 1284.0Q949.0 1232.0 957.0 1178.0H865.0Q840.0 1220.0 812.5 1258.5Q785.0 1297.0 756.0 1332.0ZM1424.0 1213.0V1533.0H1497.0V1213.0ZM1205.0 1533.0V1207.0L1194.0 1209.0Q1174.0 1295.0 1145.5 1376.0Q1117.0 1457.0 1075.0 1533.0Z" fill="black"></path></svg>