<?xml version="1.0" standalone="no"?>
<!DOCTYPE svg PUBLIC "-//W3C//DTD SVG 1.1//EN" "http://www.w3.org/Graphics/SVG/1.1/DTD/svg11.dtd" >
<svg xmlns="http://www.w3.org/2000/svg" xmlns:svg="http://www.w3.org/2000/svg" xmlns:xlink="http://www.w3.org/1999/xlink" viewBox="0 0 2048 2048" style=""><path d="M530.0 732.0H556.0Q596.0 842.0 589.5 928.5Q583.0 1015.0 545.0 1072.0Q507.0 1129.0 454.0 1152.0Q397.0 1176.0 336.0 1154.5Q275.0 1133.0 259.0 1070.0Q246.0 1008.0 278.0 966.5Q310.0 925.0 362.0 904.0Q417.0 887.0 471.0 840.0Q525.0 793.0 530.0 732.0ZM1347.0 738.0Q1415.0 744.0 1470.5 756.0Q1526.0 768.0 1570.0 785.0Q1584.0 751.0 1596.5 714.5Q1609.0 678.0 1619.0 644.0H413.0Q416.0 745.0 377.0 812.5Q338.0 880.0 280.0 908.0Q223.0 936.0 160.5 915.5Q98.0 895.0 79.0 830.0Q64.0 769.0 96.0 726.0Q128.0 683.0 182.0 660.0Q237.0 639.0 290.0 582.0Q343.0 525.0 343.0 451.0H370.0Q397.0 520.0 407.0 586.0H585.0Q547.0 576.0 515.0 547.0Q519.0 485.0 499.5 421.5Q480.0 358.0 454.0 316.0L456.0 314.0L216.0 308.0L212.0 275.0Q381.0 260.0 567.0 234.5Q753.0 209.0 935.0 177.0Q1117.0 145.0 1275.5 110.0Q1434.0 75.0 1548.0 42.0L1771.0 279.0Q1752.0 293.0 1717.5 291.5Q1683.0 290.0 1634.0 269.0L1410.0 287.0L1689.0 392.0Q1681.0 409.0 1662.0 418.0Q1643.0 427.0 1609.0 423.0Q1558.0 461.0 1484.5 504.5Q1411.0 548.0 1335.0 586.0H1613.0L1748.0 451.0L1982.0 672.0Q1960.0 694.0 1902.0 697.0Q1853.0 729.0 1781.0 761.0Q1709.0 793.0 1640.0 818.0Q1717.0 862.0 1746.5 917.0Q1776.0 972.0 1768.5 1023.5Q1761.0 1075.0 1726.5 1109.5Q1692.0 1144.0 1639.5 1148.5Q1587.0 1153.0 1527.0 1113.0Q1509.0 1014.0 1452.0 916.0Q1395.0 818.0 1331.0 750.0ZM667.0 586.0H982.0Q938.0 577.0 896.0 541.0Q901.0 481.0 885.5 419.0Q870.0 357.0 845.0 314.0L540.0 316.0Q651.0 337.0 702.0 376.0Q753.0 415.0 759.5 459.0Q766.0 503.0 739.0 538.0Q712.0 573.0 667.0 586.0ZM1040.0 586.0H1240.0Q1273.0 519.0 1302.0 440.0Q1331.0 361.0 1351.0 291.0Q1259.0 298.0 1159.0 303.0Q1059.0 308.0 956.0 310.0Q1056.0 337.0 1100.0 379.5Q1144.0 422.0 1144.5 466.0Q1145.0 510.0 1115.5 543.5Q1086.0 577.0 1040.0 586.0ZM1232.0 1379.0H866.0L798.0 1434.0Q846.0 1480.0 907.5 1517.5Q969.0 1555.0 1040.0 1584.0Q1097.0 1538.0 1145.5 1487.0Q1194.0 1436.0 1232.0 1379.0ZM874.0 666.0Q1003.0 652.0 1079.0 672.0Q1155.0 692.0 1187.0 730.5Q1219.0 769.0 1216.0 811.5Q1213.0 854.0 1183.0 886.5Q1153.0 919.0 1105.0 928.0Q1057.0 937.0 1001.0 906.0Q993.0 871.0 975.5 835.0Q958.0 799.0 935.0 767.0Q924.0 780.0 890.0 787.0V945.0Q890.0 960.0 898.0 965.5Q906.0 971.0 941.0 971.0H1077.0Q1112.0 971.0 1143.0 971.0Q1174.0 971.0 1189.0 971.0Q1205.0 970.0 1217.0 967.0Q1229.0 964.0 1238.0 955.0Q1268.0 922.0 1314.0 818.0H1335.0L1343.0 955.0Q1389.0 973.0 1404.0 994.5Q1419.0 1016.0 1419.0 1047.0Q1419.0 1118.0 1339.5 1149.0Q1260.0 1180.0 1048.0 1180.0H929.0L1054.0 1240.0Q1041.0 1268.0 984.0 1262.0L929.0 1322.0H1238.0L1402.0 1182.0L1638.0 1406.0Q1620.0 1433.0 1548.0 1438.0Q1448.0 1563.0 1310.0 1660.0Q1465.0 1690.0 1637.5 1699.0Q1810.0 1708.0 1984.0 1705.0L1986.0 1731.0Q1900.0 1760.0 1851.0 1830.5Q1802.0 1901.0 1785.0 2006.0Q1578.0 1978.0 1401.0 1928.5Q1224.0 1879.0 1083.0 1793.0Q875.0 1889.0 623.0 1940.0Q371.0 1991.0 85.0 2004.0L77.0 1977.0Q321.0 1929.0 536.5 1853.0Q752.0 1777.0 921.0 1670.0Q875.0 1625.0 835.0 1573.5Q795.0 1522.0 761.0 1461.0Q625.0 1559.0 456.5 1638.5Q288.0 1718.0 114.0 1760.0L100.0 1735.0Q221.0 1667.0 336.5 1568.5Q452.0 1470.0 548.5 1360.0Q645.0 1250.0 706.0 1148.0Q675.0 1128.0 665.0 1090.0Q655.0 1052.0 655.0 992.0V713.0L911.0 734.0Q898.0 717.0 885.0 703.0Q872.0 689.0 860.0 679.0Z" fill="black"></path></svg>