<?xml version="1.0" standalone="no"?>
<!DOCTYPE svg PUBLIC "-//W3C//DTD SVG 1.1//EN" "http://www.w3.org/Graphics/SVG/1.1/DTD/svg11.dtd" >
<svg xmlns="http://www.w3.org/2000/svg" xmlns:svg="http://www.w3.org/2000/svg" xmlns:xlink="http://www.w3.org/1999/xlink" viewBox="0 0 2048 2048" style=""><path d="M1521.5 34.5 1836.5 346.5Q1815.5 361.5 1775.0 363.0Q1734.5 364.5 1675.5 339.5Q1548.5 363.5 1387.0 378.5Q1225.5 393.5 1049.0 399.5Q872.5 405.5 700.5 401.5V657.5H1523.5L1658.5 507.5L1937.5 718.5Q1927.5 731.5 1908.5 744.0Q1889.5 756.5 1857.5 763.5V1327.5Q1855.5 1334.5 1811.5 1349.5Q1767.5 1364.5 1707.5 1377.5Q1647.5 1390.5 1597.5 1390.5H1543.5V1218.5H685.5Q668.5 1365.5 614.0 1510.5Q559.5 1655.5 444.0 1784.0Q328.5 1912.5 126.5 2013.5L110.5 1992.5Q239.5 1839.5 299.5 1662.5Q359.5 1485.5 376.0 1297.0Q392.5 1108.5 392.5 921.5V223.5L735.5 329.5Q883.5 290.5 1031.5 241.0Q1179.5 191.5 1307.0 138.0Q1434.5 84.5 1521.5 34.5ZM1543.5 1161.5V714.5H700.5V929.5Q700.5 986.5 698.5 1044.5Q696.5 1102.5 691.5 1161.5Z" fill="black"></path></svg>