<?xml version="1.0" standalone="no"?>
<!DOCTYPE svg PUBLIC "-//W3C//DTD SVG 1.1//EN" "http://www.w3.org/Graphics/SVG/1.1/DTD/svg11.dtd" >
<svg xmlns="http://www.w3.org/2000/svg" xmlns:svg="http://www.w3.org/2000/svg" xmlns:xlink="http://www.w3.org/1999/xlink" viewBox="0 0 2048 2048" style=""><path d="M75.0 708.0H396.0L546.0 557.0L806.0 801.0Q789.0 822.0 742.0 831.0H875.0V465.0L1101.0 485.0Q1158.0 433.0 1212.0 371.5Q1266.0 310.0 1306.0 258.0H380.0L361.0 200.0H1324.0L1480.0 49.0L1740.0 272.0Q1719.0 295.0 1656.0 301.0Q1561.0 352.0 1446.5 403.0Q1332.0 454.0 1215.0 495.0L1244.0 497.0Q1238.0 544.0 1172.0 553.0V794.0L1250.0 690.0L1369.0 794.0Q1351.0 659.0 1338.0 506.0L1363.0 499.0Q1409.0 715.0 1486.0 899.0Q1526.0 843.0 1566.5 778.0Q1607.0 713.0 1641.5 652.5Q1676.0 592.0 1697.0 547.0L2000.0 780.0Q1991.0 794.0 1973.0 800.0Q1955.0 806.0 1918.0 798.0Q1832.0 834.0 1725.5 874.0Q1619.0 914.0 1508.0 948.0Q1604.0 1154.0 1734.5 1309.5Q1865.0 1465.0 2018.0 1554.0L2010.0 1575.0Q1935.0 1593.0 1873.0 1657.5Q1811.0 1722.0 1779.0 1825.0Q1628.0 1671.0 1533.0 1450.0Q1519.0 1458.0 1496.0 1458.0H1172.0V1677.0Q1172.0 1773.0 1147.0 1839.5Q1122.0 1906.0 1042.0 1945.0Q962.0 1984.0 798.0 1999.0Q792.0 1931.0 781.0 1883.0Q770.0 1835.0 740.0 1804.0Q711.0 1773.0 668.5 1750.0Q626.0 1727.0 536.0 1710.0V1685.0Q536.0 1685.0 574.0 1687.5Q612.0 1690.0 665.5 1692.5Q719.0 1695.0 766.5 1697.5Q814.0 1700.0 832.0 1700.0Q875.0 1700.0 875.0 1667.0V1458.0H523.0L507.0 1401.0H875.0V1165.0H665.0L648.0 1108.0H875.0V889.0H718.0L710.0 862.0Q672.0 1051.0 592.0 1236.0Q512.0 1421.0 378.5 1580.0Q245.0 1739.0 46.0 1851.0L30.0 1835.0Q226.0 1574.0 317.0 1304.5Q408.0 1035.0 423.0 766.0H93.0ZM1172.0 1401.0H1211.0L1332.0 1233.0Q1332.0 1233.0 1359.0 1255.0Q1386.0 1277.0 1425.5 1311.0Q1465.0 1345.0 1504.0 1380.0Q1467.0 1279.0 1437.0 1159.0Q1427.0 1165.0 1408.0 1165.0H1172.0ZM1172.0 1091.0 1269.0 960.0Q1269.0 960.0 1292.5 980.5Q1316.0 1001.0 1351.5 1032.5Q1387.0 1064.0 1422.0 1095.0Q1412.0 1046.0 1402.5 994.0Q1393.0 942.0 1383.0 889.0H1381.0H1172.0Z" fill="black"></path></svg>