<?xml version="1.0" standalone="no"?>
<!DOCTYPE svg PUBLIC "-//W3C//DTD SVG 1.1//EN" "http://www.w3.org/Graphics/SVG/1.1/DTD/svg11.dtd" >
<svg xmlns="http://www.w3.org/2000/svg" xmlns:svg="http://www.w3.org/2000/svg" xmlns:xlink="http://www.w3.org/1999/xlink" viewBox="0 0 2048 2048" style=""><path d="M743.5 905.0H541.5V909.0Q541.5 1020.0 532.5 1147.0Q523.5 1274.0 489.5 1403.0Q520.5 1406.0 565.5 1407.5Q610.5 1409.0 635.5 1409.0Q671.5 1409.0 688.5 1395.0Q713.5 1372.0 725.5 1258.5Q737.5 1145.0 743.5 905.0ZM244.5 471.0V356.0L584.5 471.0H1061.5Q1048.5 262.0 1048.5 47.0L1415.5 82.0Q1413.5 102.0 1397.5 118.5Q1381.5 135.0 1341.5 141.0Q1340.5 223.0 1341.0 305.5Q1341.5 388.0 1345.5 471.0H1571.5L1640.5 383.0Q1630.5 380.0 1619.5 376.5Q1608.5 373.0 1597.5 366.0Q1576.5 296.0 1524.0 226.0Q1471.5 156.0 1419.5 113.0L1433.5 100.0Q1570.5 84.0 1653.5 104.0Q1736.5 124.0 1775.0 163.5Q1813.5 203.0 1815.0 248.5Q1816.5 294.0 1790.5 330.0Q1834.5 363.0 1893.0 409.5Q1951.5 456.0 1997.5 496.0Q1988.5 528.0 1937.5 528.0H1347.5Q1357.5 670.0 1379.0 806.0Q1400.5 942.0 1442.5 1067.0Q1482.5 970.0 1512.0 874.0Q1541.5 778.0 1562.5 684.0L1937.5 811.0Q1931.5 829.0 1914.5 840.0Q1897.5 851.0 1857.5 850.0Q1807.5 979.0 1738.5 1108.0Q1669.5 1237.0 1579.5 1360.0Q1649.5 1467.0 1747.5 1552.0Q1768.5 1575.0 1783.5 1574.5Q1798.5 1574.0 1816.5 1548.0Q1844.5 1508.0 1888.5 1431.5Q1932.5 1355.0 1966.5 1286.0L1984.5 1292.0L1929.5 1659.0Q1989.5 1768.0 2000.0 1830.5Q2010.5 1893.0 1978.5 1921.0Q1934.5 1960.0 1878.0 1964.0Q1821.5 1968.0 1763.5 1948.5Q1705.5 1929.0 1654.0 1896.0Q1602.5 1863.0 1567.5 1829.0Q1510.5 1773.0 1462.0 1713.5Q1413.5 1654.0 1372.5 1589.0Q1248.5 1706.0 1089.0 1803.0Q929.5 1900.0 729.5 1968.0L715.5 1946.0Q891.5 1838.0 1029.0 1697.5Q1166.5 1557.0 1268.5 1401.0Q1175.5 1204.0 1129.5 984.5Q1083.5 765.0 1065.5 528.0H541.5V848.0H725.5L862.5 717.0L1098.5 913.0Q1087.5 926.0 1068.0 936.0Q1048.5 946.0 1018.5 950.0Q1012.5 1178.0 999.5 1311.0Q986.5 1444.0 959.5 1513.5Q932.5 1583.0 883.5 1620.0Q836.5 1654.0 777.5 1670.5Q718.5 1687.0 637.5 1687.0Q637.5 1628.0 632.5 1581.5Q627.5 1535.0 608.5 1507.0Q590.5 1480.0 562.0 1460.5Q533.5 1441.0 485.5 1427.0V1417.0Q441.5 1578.0 341.0 1731.0Q240.5 1884.0 51.5 2001.0L37.5 1986.0Q133.5 1827.0 177.0 1643.5Q220.5 1460.0 232.5 1271.5Q244.5 1083.0 244.5 909.0Z" fill="black"></path></svg>