<?xml version="1.0" standalone="no"?>
<!DOCTYPE svg PUBLIC "-//W3C//DTD SVG 1.1//EN" "http://www.w3.org/Graphics/SVG/1.1/DTD/svg11.dtd" >
<svg xmlns="http://www.w3.org/2000/svg" xmlns:svg="http://www.w3.org/2000/svg" xmlns:xlink="http://www.w3.org/1999/xlink" viewBox="0 0 2048 2048" style=""><path d="M141.0 206.5H1591.0L1726.0 34.5Q1726.0 34.5 1751.0 54.0Q1776.0 73.5 1814.5 103.5Q1853.0 133.5 1895.5 167.5Q1938.0 201.5 1972.0 231.5Q1963.0 264.5 1915.0 264.5H158.0ZM1513.0 509.5H604.0V790.5H1513.0ZM987.0 870.5 1331.0 897.5Q1328.0 915.5 1317.0 927.5Q1306.0 939.5 1274.0 944.5V1105.5H1622.0L1753.0 938.5Q1753.0 938.5 1793.5 969.5Q1834.0 1000.5 1889.5 1045.5Q1945.0 1090.5 1989.0 1130.5Q1980.0 1163.5 1931.0 1163.5H1223.0Q1216.0 1212.5 1206.5 1261.5Q1197.0 1310.5 1182.0 1359.5H1460.0L1604.0 1226.5L1851.0 1429.5Q1839.0 1443.5 1820.5 1452.5Q1802.0 1461.5 1771.0 1466.5Q1753.0 1682.5 1716.5 1795.5Q1680.0 1908.5 1604.0 1955.5Q1553.0 1988.5 1487.0 2001.0Q1421.0 2013.5 1323.0 2013.5Q1324.0 1956.5 1316.5 1914.5Q1309.0 1872.5 1284.0 1843.5Q1229.0 1782.5 1100.0 1755.5L1102.0 1732.5Q1140.0 1735.5 1188.5 1738.5Q1237.0 1741.5 1279.5 1743.0Q1322.0 1744.5 1341.0 1744.5Q1386.0 1744.5 1403.0 1732.5Q1451.0 1693.5 1477.0 1417.5H1163.0Q1118.0 1531.5 1026.5 1638.5Q935.0 1745.5 771.5 1839.5Q608.0 1933.5 348.0 2009.5L332.0 1984.5Q520.0 1885.5 630.0 1782.5Q740.0 1679.5 793.5 1575.5Q847.0 1471.5 865.0 1367.5Q883.0 1263.5 887.0 1163.5H584.0Q563.0 1306.5 509.5 1453.5Q456.0 1600.5 351.5 1734.5Q247.0 1868.5 74.0 1974.5L59.0 1959.5Q175.0 1787.5 229.0 1592.0Q283.0 1396.5 298.0 1199.0Q313.0 1001.5 313.0 823.5V339.5L647.0 452.5H1493.0L1620.0 311.5L1890.0 512.5Q1881.0 524.5 1862.0 537.5Q1843.0 550.5 1810.0 557.5V903.5Q1809.0 910.5 1767.5 924.5Q1726.0 938.5 1669.0 950.5Q1612.0 962.5 1565.0 962.5H1513.0V847.5H604.0Q604.0 907.5 600.5 972.0Q597.0 1036.5 590.0 1105.5H987.0Z" fill="black"></path></svg>