<?xml version="1.0" standalone="no"?>
<!DOCTYPE svg PUBLIC "-//W3C//DTD SVG 1.1//EN" "http://www.w3.org/Graphics/SVG/1.1/DTD/svg11.dtd" >
<svg xmlns="http://www.w3.org/2000/svg" xmlns:svg="http://www.w3.org/2000/svg" xmlns:xlink="http://www.w3.org/1999/xlink" viewBox="0 0 2048 2048" style=""><path d="M127.5 198.5H1577.5L1716.5 32.5Q1716.5 32.5 1759.5 63.5Q1802.5 94.5 1862.0 139.0Q1921.5 183.5 1970.5 223.5Q1961.5 255.5 1910.5 255.5H143.5ZM645.5 1120.5Q762.5 1149.5 823.0 1193.0Q883.5 1236.5 900.0 1282.5Q916.5 1328.5 900.5 1368.0Q884.5 1407.5 847.5 1429.0Q810.5 1450.5 764.0 1445.0Q717.5 1439.5 674.5 1394.5Q681.5 1325.5 666.5 1253.5Q651.5 1181.5 626.5 1130.5ZM1296.5 1111.5Q1420.5 1130.5 1487.5 1170.0Q1554.5 1209.5 1576.5 1256.0Q1598.5 1302.5 1586.5 1344.5Q1574.5 1386.5 1539.5 1412.5Q1504.5 1438.5 1457.0 1437.0Q1409.5 1435.5 1362.5 1392.5Q1366.5 1321.5 1341.5 1247.0Q1316.5 1172.5 1278.5 1122.5ZM1525.5 507.5H608.5V757.5H1525.5ZM1243.5 1003.5H1605.5L1726.5 866.5L1984.5 1062.5Q1975.5 1075.5 1955.5 1087.5Q1935.5 1099.5 1902.5 1105.5V1746.5Q1902.5 1826.5 1881.0 1882.5Q1859.5 1938.5 1791.0 1971.0Q1722.5 2003.5 1581.5 2015.5Q1578.5 1959.5 1571.5 1918.5Q1564.5 1877.5 1544.5 1853.5Q1525.5 1828.5 1497.0 1809.0Q1468.5 1789.5 1401.5 1777.5V1752.5Q1401.5 1752.5 1440.5 1755.5Q1479.5 1758.5 1525.0 1761.0Q1570.5 1763.5 1589.5 1763.5Q1626.5 1763.5 1626.5 1726.5V1484.5Q1586.5 1535.5 1523.5 1607.0Q1460.5 1678.5 1376.5 1769.5Q1367.5 1812.5 1331.5 1826.5L1188.5 1601.5V1748.5Q1188.5 1826.5 1168.0 1881.5Q1147.5 1936.5 1083.0 1968.5Q1018.5 2000.5 884.5 2011.5Q881.5 1957.5 875.0 1917.5Q868.5 1877.5 850.5 1853.5Q833.5 1828.5 805.5 1809.5Q777.5 1790.5 714.5 1779.5V1752.5Q714.5 1752.5 750.5 1755.5Q786.5 1758.5 829.0 1761.0Q871.5 1763.5 891.5 1763.5Q912.5 1763.5 919.0 1753.5Q925.5 1743.5 925.5 1726.5V1517.5Q881.5 1569.5 815.5 1640.0Q749.5 1710.5 661.5 1798.5Q652.5 1842.5 616.5 1855.5L452.5 1611.5Q495.5 1600.5 570.0 1579.5Q644.5 1558.5 737.0 1530.5Q829.5 1502.5 925.5 1470.5V1060.5H600.5Q590.5 1180.5 562.5 1307.5Q534.5 1434.5 477.0 1559.0Q419.5 1683.5 322.5 1796.0Q225.5 1908.5 78.5 1998.5L63.5 1984.5Q179.5 1809.5 233.5 1610.0Q287.5 1410.5 302.5 1209.5Q317.5 1008.5 317.5 827.5V337.5L651.5 450.5H1505.5L1634.5 311.5L1902.5 511.5Q1893.5 522.5 1874.5 535.5Q1855.5 548.5 1822.5 554.5V821.5Q1821.5 829.5 1781.0 846.0Q1740.5 862.5 1684.0 876.5Q1627.5 890.5 1579.5 890.5H1525.5V814.5H608.5V827.5Q608.5 868.5 608.0 913.0Q607.5 957.5 604.5 1003.5H905.5L1022.5 872.5L1259.5 1052.5ZM1269.5 1060.5Q1260.5 1073.5 1240.5 1085.5Q1220.5 1097.5 1188.5 1103.5V1570.5Q1254.5 1553.5 1375.0 1520.5Q1495.5 1487.5 1626.5 1447.5V1060.5Z" fill="black"></path></svg>