<?xml version="1.0" standalone="no"?>
<!DOCTYPE svg PUBLIC "-//W3C//DTD SVG 1.1//EN" "http://www.w3.org/Graphics/SVG/1.1/DTD/svg11.dtd" >
<svg xmlns="http://www.w3.org/2000/svg" xmlns:svg="http://www.w3.org/2000/svg" xmlns:xlink="http://www.w3.org/1999/xlink" viewBox="0 0 2048 2048" style=""><path d="M1556.5 49.0 1812.5 321.0Q1791.5 337.0 1753.5 335.5Q1715.5 334.0 1663.5 311.0Q1527.5 324.0 1353.0 332.0Q1178.5 340.0 988.5 341.5Q798.5 343.0 618.5 336.0V504.0H1544.5L1673.5 368.0L1935.5 563.0Q1927.5 574.0 1910.5 585.0Q1893.5 596.0 1865.5 602.0V870.0Q1864.5 879.0 1823.5 897.0Q1782.5 915.0 1725.0 929.5Q1667.5 944.0 1618.5 944.0H1564.5V856.0H614.5L604.5 987.0L825.5 1073.0H1591.5L1714.5 936.0L1974.5 1132.0Q1965.5 1145.0 1945.0 1157.0Q1924.5 1169.0 1892.5 1175.0V1716.0Q1892.5 1800.0 1873.0 1859.5Q1853.5 1919.0 1791.0 1953.5Q1728.5 1988.0 1599.5 1999.0Q1598.5 1937.0 1595.0 1892.5Q1591.5 1848.0 1581.5 1820.0Q1572.5 1794.0 1554.5 1773.0Q1536.5 1752.0 1493.5 1743.0V1716.0Q1493.5 1716.0 1527.5 1718.0Q1561.5 1720.0 1583.5 1720.0Q1611.5 1720.0 1611.5 1689.0V1130.0H809.5V1898.0Q809.5 1912.0 775.0 1932.5Q740.5 1953.0 686.5 1969.5Q632.5 1986.0 575.5 1986.0H534.5V1349.0Q480.5 1523.0 376.0 1685.5Q271.5 1848.0 90.5 1974.0L73.5 1962.0Q160.5 1813.0 211.5 1648.0Q262.5 1483.0 287.5 1313.5Q312.5 1144.0 320.0 979.0Q327.5 814.0 327.5 665.0V184.0L626.5 284.0Q791.5 255.0 966.5 214.5Q1141.5 174.0 1296.5 131.0Q1451.5 88.0 1556.5 49.0ZM909.5 1296.0V1200.0L1155.5 1296.0H1251.5L1353.5 1190.0L1566.5 1347.0Q1560.5 1355.0 1545.5 1364.0Q1530.5 1373.0 1507.5 1378.0V1693.0Q1507.5 1703.0 1475.0 1719.5Q1442.5 1736.0 1396.5 1749.5Q1350.5 1763.0 1310.5 1763.0H1267.5V1655.0H1149.5V1741.0Q1149.5 1751.0 1118.5 1768.0Q1087.5 1785.0 1040.0 1798.5Q992.5 1812.0 942.5 1812.0H909.5ZM1149.5 1597.0H1267.5V1353.0H1149.5ZM1564.5 561.0H618.5V663.0L616.5 798.0H1564.5Z" fill="black"></path></svg>