<?xml version="1.0" standalone="no"?>
<!DOCTYPE svg PUBLIC "-//W3C//DTD SVG 1.1//EN" "http://www.w3.org/Graphics/SVG/1.1/DTD/svg11.dtd" >
<svg xmlns="http://www.w3.org/2000/svg" xmlns:svg="http://www.w3.org/2000/svg" xmlns:xlink="http://www.w3.org/1999/xlink" viewBox="0 0 2048 2048" style=""><path d="M1160.5 74.0 1521.5 109.0Q1518.5 131.0 1503.0 146.0Q1487.5 161.0 1447.5 167.0V505.0H1574.5L1711.5 314.0Q1711.5 314.0 1737.0 335.0Q1762.5 356.0 1802.0 389.5Q1841.5 423.0 1884.5 460.0Q1927.5 497.0 1961.5 529.0Q1952.5 562.0 1902.5 562.0H1447.5V898.0L1443.5 1000.0H1594.5L1740.5 799.0Q1740.5 799.0 1767.0 821.5Q1793.5 844.0 1834.5 878.5Q1875.5 913.0 1920.0 952.0Q1964.5 991.0 2000.5 1025.0Q1991.5 1058.0 1941.5 1058.0H1451.5Q1485.5 1248.0 1624.5 1409.5Q1763.5 1571.0 2023.5 1660.0V1686.0Q1917.5 1712.0 1859.0 1783.0Q1800.5 1854.0 1789.5 1987.0Q1701.5 1921.0 1639.0 1822.0Q1576.5 1723.0 1535.0 1605.5Q1493.5 1488.0 1468.5 1365.5Q1443.5 1243.0 1431.5 1129.0Q1402.5 1328.0 1311.0 1496.5Q1219.5 1665.0 1041.0 1792.5Q862.5 1920.0 573.5 1996.0L560.5 1977.0Q770.5 1865.0 895.5 1724.0Q1020.5 1583.0 1080.5 1415.5Q1140.5 1248.0 1154.5 1058.0H763.5L747.5 1000.0H1158.5L1160.5 896.0V562.0H915.5L898.5 505.0H1160.5ZM24.5 1027.0Q127.5 1010.0 327.5 963.0V601.0H69.5L52.5 543.0H327.5V52.0L677.5 85.0Q674.5 108.0 657.5 122.5Q640.5 137.0 601.5 142.0V513.0L704.5 343.0Q704.5 343.0 726.5 365.0Q748.5 387.0 782.5 422.0Q816.5 457.0 852.5 496.0Q888.5 535.0 915.5 568.0Q906.5 601.0 859.5 601.0H601.5V898.0L908.5 820.0L913.5 840.0Q856.5 883.0 779.0 937.0Q701.5 991.0 601.5 1055.0V1676.0Q601.5 1769.0 580.0 1834.0Q558.5 1899.0 488.0 1937.5Q417.5 1976.0 271.5 1989.0Q268.5 1922.0 259.5 1873.5Q250.5 1825.0 228.5 1793.0Q207.5 1762.0 173.5 1740.5Q139.5 1719.0 69.5 1705.0V1678.0Q69.5 1678.0 97.0 1679.5Q124.5 1681.0 163.5 1683.0Q202.5 1685.0 238.0 1686.5Q273.5 1688.0 288.5 1688.0Q327.5 1688.0 327.5 1658.0V1223.0L190.5 1301.0Q172.5 1348.0 130.5 1361.0Z" fill="black"></path></svg>