<?xml version="1.0" standalone="no"?>
<!DOCTYPE svg PUBLIC "-//W3C//DTD SVG 1.1//EN" "http://www.w3.org/Graphics/SVG/1.1/DTD/svg11.dtd" >
<svg xmlns="http://www.w3.org/2000/svg" xmlns:svg="http://www.w3.org/2000/svg" xmlns:xlink="http://www.w3.org/1999/xlink" viewBox="0 0 2048 2048" style=""><path d="M1078.5 46.0 1437.5 171.0Q1431.5 188.0 1415.0 198.5Q1398.5 209.0 1361.5 208.0Q1346.5 244.0 1329.0 282.0Q1311.5 320.0 1291.5 357.0H1593.5L1738.5 156.0Q1738.5 156.0 1765.0 178.0Q1791.5 200.0 1832.5 235.0Q1873.5 270.0 1918.0 309.0Q1962.5 348.0 1998.5 382.0Q1989.5 414.0 1939.5 414.0H1461.5Q1527.5 495.0 1620.5 560.5Q1713.5 626.0 1819.0 673.0Q1924.5 720.0 2029.5 746.0L2025.5 769.0Q1875.5 807.0 1828.5 1010.0L1781.5 980.0V1483.0Q1781.5 1495.0 1746.5 1517.0Q1711.5 1539.0 1660.5 1557.5Q1609.5 1576.0 1560.5 1576.0H1513.5V1512.0H1384.5V1668.0Q1384.5 1697.0 1398.0 1708.0Q1411.5 1719.0 1451.5 1719.0H1595.5Q1630.5 1719.0 1661.0 1718.0Q1691.5 1717.0 1709.5 1717.0Q1726.5 1715.0 1741.5 1710.5Q1756.5 1706.0 1769.5 1692.0Q1786.5 1669.0 1812.0 1607.5Q1837.5 1546.0 1863.5 1471.0H1883.5L1892.5 1701.0Q1944.5 1724.0 1963.5 1749.0Q1982.5 1774.0 1982.5 1809.0Q1982.5 1864.0 1944.5 1898.0Q1906.5 1932.0 1816.0 1947.5Q1725.5 1963.0 1566.5 1963.0H1386.5Q1279.5 1963.0 1221.5 1943.0Q1163.5 1923.0 1140.5 1873.5Q1117.5 1824.0 1117.5 1735.0V1512.0H990.5V1580.0Q990.5 1594.0 931.0 1627.0Q871.5 1660.0 765.5 1660.0H714.5V959.0Q683.5 976.0 650.5 991.5Q617.5 1007.0 583.5 1021.0L569.5 1000.0Q710.5 885.0 810.5 732.0Q910.5 579.0 974.5 414.0H696.5L679.5 357.0H997.5Q1024.5 277.0 1045.0 198.0Q1065.5 119.0 1078.5 46.0ZM1261.5 414.0Q1230.5 467.0 1196.5 517.0Q1162.5 567.0 1124.5 615.0L1453.5 646.0Q1450.5 692.0 1384.5 701.0V877.0H1496.5L1588.5 785.0Q1479.5 630.0 1414.5 414.0ZM902.5 834.0 1019.5 877.0H1117.5V623.0Q1071.5 680.0 1018.0 733.5Q964.5 787.0 902.5 834.0ZM990.5 1221.0V1455.0H1117.5V1221.0ZM990.5 1164.0H1117.5V935.0H990.5ZM1384.5 1221.0V1455.0H1513.5V1221.0ZM1384.5 1164.0H1513.5V935.0H1384.5ZM18.5 988.0Q54.5 977.0 116.0 957.5Q177.5 938.0 255.5 912.0V605.0H61.5L44.5 548.0H255.5V52.0L597.5 85.0Q594.5 108.0 577.5 122.5Q560.5 137.0 521.5 142.0V539.0L624.5 349.0Q624.5 349.0 643.5 371.5Q662.5 394.0 691.5 429.0Q720.5 464.0 751.0 502.5Q781.5 541.0 802.5 572.0Q796.5 605.0 749.5 605.0H521.5V820.0L706.5 752.0L710.5 769.0Q675.5 806.0 628.0 853.0Q580.5 900.0 521.5 955.0V1694.0Q521.5 1787.0 501.0 1851.0Q480.5 1915.0 413.5 1952.0Q346.5 1989.0 208.5 2002.0Q205.5 1937.0 198.0 1889.5Q190.5 1842.0 171.5 1811.0Q153.5 1780.0 122.5 1758.5Q91.5 1737.0 28.5 1725.0V1699.0Q28.5 1699.0 52.5 1700.5Q76.5 1702.0 110.0 1704.0Q143.5 1706.0 174.5 1707.5Q205.5 1709.0 218.5 1709.0Q255.5 1709.0 255.5 1678.0V1189.0L194.5 1238.0Q183.5 1287.0 141.5 1303.0Z" fill="black"></path></svg>