<?xml version="1.0" standalone="no"?>
<!DOCTYPE svg PUBLIC "-//W3C//DTD SVG 1.1//EN" "http://www.w3.org/Graphics/SVG/1.1/DTD/svg11.dtd" >
<svg xmlns="http://www.w3.org/2000/svg" xmlns:svg="http://www.w3.org/2000/svg" xmlns:xlink="http://www.w3.org/1999/xlink" viewBox="0 0 2048 2048" style=""><path d="M1338.0 87.0Q1335.0 108.0 1320.0 124.0Q1305.0 140.0 1265.0 146.0V1109.0Q1263.0 1333.0 1192.5 1504.5Q1122.0 1676.0 964.0 1798.5Q806.0 1921.0 542.0 1998.0L527.0 1975.0Q787.0 1831.0 899.5 1630.5Q1012.0 1430.0 1017.0 1135.0Q981.0 1191.0 938.0 1256.5Q895.0 1322.0 845.0 1395.0Q842.0 1417.0 830.0 1436.5Q818.0 1456.0 800.0 1465.0L642.0 1176.0Q691.0 1156.0 794.5 1109.5Q898.0 1063.0 1017.0 1006.0V791.0Q991.0 845.0 935.5 855.5Q880.0 866.0 826.0 808.0Q829.0 751.0 823.5 691.0Q818.0 631.0 806.0 572.0Q797.0 599.0 759.0 599.0H574.0V892.0L789.0 832.0L794.0 853.0Q752.0 887.0 697.0 929.5Q642.0 972.0 574.0 1021.0V1664.0Q574.0 1761.0 553.0 1830.0Q532.0 1899.0 464.0 1939.5Q396.0 1980.0 255.0 1994.0Q252.0 1921.0 244.0 1868.5Q236.0 1816.0 216.0 1781.0Q198.0 1745.0 166.0 1722.5Q134.0 1700.0 71.0 1686.0V1658.0Q71.0 1658.0 95.5 1659.5Q120.0 1661.0 154.5 1663.0Q189.0 1665.0 221.0 1666.5Q253.0 1668.0 267.0 1668.0Q304.0 1668.0 304.0 1637.0V1209.0L187.0 1285.0Q181.0 1305.0 165.5 1322.5Q150.0 1340.0 130.0 1346.0L34.0 1025.0Q75.0 1017.0 145.0 1000.0Q215.0 983.0 304.0 961.0V599.0H73.0L56.0 541.0H304.0V50.0L650.0 83.0Q647.0 106.0 630.0 120.5Q613.0 135.0 574.0 140.0V515.0L650.0 388.0Q650.0 388.0 676.5 416.0Q703.0 444.0 738.5 483.5Q774.0 523.0 802.0 558.0Q793.0 509.0 779.5 464.5Q766.0 420.0 751.0 380.0L775.0 371.0Q878.0 430.0 936.0 493.5Q994.0 557.0 1017.0 617.0V56.0ZM1674.0 93.0Q1673.0 114.0 1657.0 130.0Q1641.0 146.0 1602.0 152.0V673.0Q1635.0 580.0 1663.5 491.0Q1692.0 402.0 1707.0 347.0L1985.0 533.0Q1978.0 546.0 1957.0 553.5Q1936.0 561.0 1906.0 552.0Q1858.0 604.0 1774.0 682.0Q1690.0 760.0 1602.0 830.0V896.0Q1735.0 945.0 1808.5 1008.5Q1882.0 1072.0 1908.5 1136.0Q1935.0 1200.0 1925.0 1254.0Q1915.0 1308.0 1879.5 1340.0Q1844.0 1372.0 1793.5 1371.0Q1743.0 1370.0 1689.0 1324.0Q1681.0 1250.0 1657.0 1172.5Q1633.0 1095.0 1602.0 1023.0V1625.0Q1602.0 1653.0 1611.0 1663.5Q1620.0 1674.0 1648.0 1674.0H1713.0Q1730.0 1674.0 1747.0 1674.0Q1764.0 1674.0 1775.0 1674.0Q1787.0 1672.0 1799.0 1669.0Q1811.0 1666.0 1822.0 1654.0Q1839.0 1631.0 1861.0 1564.5Q1883.0 1498.0 1901.0 1432.0H1922.0L1932.0 1664.0Q1977.0 1687.0 1995.5 1712.0Q2014.0 1737.0 2014.0 1772.0Q2014.0 1848.0 1940.0 1885.0Q1866.0 1922.0 1686.0 1922.0H1568.0Q1434.0 1922.0 1390.0 1874.0Q1346.0 1826.0 1346.0 1703.0V58.0Z" fill="black"></path></svg>