<?xml version="1.0" standalone="no"?>
<!DOCTYPE svg PUBLIC "-//W3C//DTD SVG 1.1//EN" "http://www.w3.org/Graphics/SVG/1.1/DTD/svg11.dtd" >
<svg xmlns="http://www.w3.org/2000/svg" xmlns:svg="http://www.w3.org/2000/svg" xmlns:xlink="http://www.w3.org/1999/xlink" viewBox="0 0 2048 2048" style=""><path d="M25.0 998.0Q61.0 992.0 122.5 978.5Q184.0 965.0 262.0 947.0V582.0H68.0L51.0 525.0H262.0V52.0L604.0 85.0Q601.0 108.0 584.0 122.5Q567.0 137.0 528.0 142.0V502.0L621.0 326.0Q621.0 326.0 640.5 348.5Q660.0 371.0 689.5 406.0Q719.0 441.0 749.0 479.5Q779.0 518.0 801.0 550.0Q792.0 582.0 748.0 582.0H528.0V885.0L721.0 836.0L725.0 855.0Q651.0 919.0 528.0 1014.0V1694.0Q528.0 1787.0 507.5 1851.0Q487.0 1915.0 420.0 1952.0Q353.0 1989.0 215.0 2002.0Q212.0 1937.0 204.5 1889.5Q197.0 1842.0 178.0 1811.0Q160.0 1780.0 129.0 1758.5Q98.0 1737.0 35.0 1725.0V1699.0Q35.0 1699.0 59.0 1700.5Q83.0 1702.0 116.5 1704.0Q150.0 1706.0 181.0 1707.5Q212.0 1709.0 225.0 1709.0Q262.0 1709.0 262.0 1678.0V1207.0L188.0 1258.0Q172.0 1304.0 129.0 1318.0ZM836.0 746.0 860.0 744.0Q895.0 805.0 913.0 865.0H1651.0L1786.0 732.0Q1755.0 749.0 1691.5 769.0Q1628.0 789.0 1573.0 789.0H1524.0V705.0H862.0L844.0 648.0H1524.0V468.0H926.0L907.0 410.0H1524.0V234.0H901.0L883.0 177.0H1503.0L1628.0 46.0L1878.0 234.0Q1870.0 245.0 1853.0 256.0Q1836.0 267.0 1806.0 273.0V715.0Q1806.0 721.0 1788.0 730.0L2023.0 953.0Q2011.0 967.0 1993.5 972.0Q1976.0 977.0 1944.0 980.0Q1899.0 1007.0 1836.0 1045.0Q1773.0 1083.0 1714.0 1115.0L1911.0 1258.0Q1902.0 1269.0 1885.5 1279.0Q1869.0 1289.0 1841.0 1295.0V1584.0Q1841.0 1668.0 1822.5 1725.5Q1804.0 1783.0 1743.0 1816.5Q1682.0 1850.0 1557.0 1860.0Q1557.0 1802.0 1553.0 1758.0Q1549.0 1714.0 1538.0 1688.0Q1527.0 1664.0 1507.5 1644.5Q1488.0 1625.0 1444.0 1615.0V1588.0Q1444.0 1588.0 1464.0 1589.5Q1484.0 1591.0 1508.5 1592.5Q1533.0 1594.0 1546.0 1594.0Q1565.0 1594.0 1570.0 1585.5Q1575.0 1577.0 1575.0 1561.0V1260.0H1442.0V1932.0Q1442.0 1942.0 1408.5 1958.0Q1375.0 1974.0 1325.0 1987.0Q1275.0 2000.0 1225.0 2000.0H1178.0V1260.0H1067.0V1770.0Q1067.0 1782.0 1033.0 1801.5Q999.0 1821.0 947.0 1836.5Q895.0 1852.0 840.0 1852.0H803.0V1168.0Q749.0 1191.0 704.5 1174.0Q660.0 1157.0 637.5 1116.5Q615.0 1076.0 628.0 1026.0Q641.0 976.0 703.0 933.0Q742.0 908.0 785.0 857.0Q828.0 806.0 836.0 746.0ZM1178.0 959.0 1507.0 988.0Q1506.0 1008.0 1492.5 1021.5Q1479.0 1035.0 1442.0 1041.0V1203.0H1557.0L1630.0 1121.0L1665.0 922.0H926.0Q933.0 981.0 920.0 1033.0Q907.0 1085.0 870.0 1123.0L1079.0 1203.0H1178.0Z" fill="black"></path></svg>