<?xml version="1.0" standalone="no"?>
<!DOCTYPE svg PUBLIC "-//W3C//DTD SVG 1.1//EN" "http://www.w3.org/Graphics/SVG/1.1/DTD/svg11.dtd" >
<svg xmlns="http://www.w3.org/2000/svg" xmlns:svg="http://www.w3.org/2000/svg" xmlns:xlink="http://www.w3.org/1999/xlink" viewBox="0 0 2048 2048" style=""><path d="M22.5 1025.0Q58.5 1017.0 120.0 1001.0Q181.5 985.0 259.5 965.0V601.0H65.5L48.5 544.0H259.5V48.0L601.5 81.0Q598.5 104.0 581.5 118.5Q564.5 133.0 525.5 138.0V535.0L628.5 345.0Q628.5 345.0 666.0 388.5Q703.5 432.0 745.5 486.0L740.5 474.0H960.5V70.0L1310.5 103.0Q1307.5 125.0 1292.0 140.5Q1276.5 156.0 1236.5 163.0V1045.0Q1234.5 1272.0 1168.5 1455.5Q1102.5 1639.0 950.0 1776.5Q797.5 1914.0 534.5 2000.0L521.5 1981.0Q707.5 1854.0 805.5 1693.0Q903.5 1532.0 937.5 1332.0Q900.5 1369.0 858.5 1410.5Q816.5 1452.0 767.5 1498.0Q750.5 1545.0 706.5 1555.0L599.5 1226.0Q647.5 1219.0 744.0 1204.5Q840.5 1190.0 956.5 1170.0L960.5 1045.0V931.0H749.5L730.5 873.0H960.5V531.0H779.5L806.5 568.0Q800.5 601.0 753.5 601.0H525.5V890.0L734.5 828.0L740.5 847.0Q701.5 883.0 647.5 929.0Q593.5 975.0 525.5 1029.0V1690.0Q525.5 1783.0 505.0 1847.0Q484.5 1911.0 417.5 1948.0Q350.5 1985.0 212.5 1998.0Q209.5 1933.0 202.0 1885.5Q194.5 1838.0 175.5 1807.0Q157.5 1776.0 126.5 1754.5Q95.5 1733.0 32.5 1721.0V1695.0Q32.5 1695.0 56.5 1696.5Q80.5 1698.0 114.0 1700.0Q147.5 1702.0 178.5 1703.5Q209.5 1705.0 222.5 1705.0Q259.5 1705.0 259.5 1674.0V1234.0L188.5 1285.0Q174.5 1331.0 132.5 1348.0ZM1355.5 70.0 1715.5 105.0Q1712.5 127.0 1697.0 143.0Q1681.5 159.0 1640.5 165.0V474.0H1662.5L1787.5 288.0Q1787.5 288.0 1810.0 308.5Q1832.5 329.0 1867.0 361.5Q1901.5 394.0 1938.5 430.5Q1975.5 467.0 2004.5 498.0Q1998.5 531.0 1949.5 531.0H1640.5V886.0H1654.5L1773.5 703.0Q1773.5 703.0 1811.0 738.0Q1848.5 773.0 1898.5 821.0Q1948.5 869.0 1986.5 910.0Q1977.5 943.0 1930.5 943.0H1640.5V1352.0H1672.5L1799.5 1160.0Q1799.5 1160.0 1823.0 1181.5Q1846.5 1203.0 1882.5 1236.5Q1918.5 1270.0 1957.0 1307.5Q1995.5 1345.0 2025.5 1377.0Q2016.5 1410.0 1967.5 1410.0H1640.5V1897.0Q1640.5 1912.0 1605.0 1935.0Q1569.5 1958.0 1516.0 1977.0Q1462.5 1996.0 1408.5 1996.0H1355.5Z" fill="black"></path></svg>