<?xml version="1.0" standalone="no"?>
<!DOCTYPE svg PUBLIC "-//W3C//DTD SVG 1.1//EN" "http://www.w3.org/Graphics/SVG/1.1/DTD/svg11.dtd" >
<svg xmlns="http://www.w3.org/2000/svg" xmlns:svg="http://www.w3.org/2000/svg" xmlns:xlink="http://www.w3.org/1999/xlink" viewBox="0 0 2048 2048" style=""><path d="M21.5 1006.0Q59.5 997.0 124.5 978.0Q189.5 959.0 271.5 935.0V601.0H60.5L43.5 543.0H271.5V50.0L623.5 83.0Q620.5 106.0 603.0 121.0Q585.5 136.0 547.5 142.0V527.0L649.5 357.0Q649.5 357.0 683.5 390.5Q717.5 424.0 762.5 471.5Q807.5 519.0 842.5 560.0Q882.5 439.0 911.5 310.0Q940.5 181.0 959.5 52.0L1333.5 150.0Q1327.5 170.0 1308.0 183.0Q1288.5 196.0 1252.5 197.0Q1227.5 273.0 1199.5 343.0Q1171.5 413.0 1139.5 478.0L1161.5 486.0H1329.5Q1348.5 400.0 1370.5 288.5Q1392.5 177.0 1407.5 91.0L1776.5 179.0Q1762.5 228.0 1690.5 228.0Q1633.5 282.0 1551.0 354.0Q1468.5 426.0 1397.5 486.0H1604.5L1741.5 298.0Q1741.5 298.0 1766.5 318.5Q1791.5 339.0 1829.5 372.0Q1867.5 405.0 1909.5 441.5Q1951.5 478.0 1985.5 511.0Q1979.5 543.0 1927.5 543.0H1587.5V894.0H1616.5L1737.5 713.0Q1737.5 713.0 1774.5 747.5Q1811.5 782.0 1861.0 829.5Q1910.5 877.0 1948.5 918.0Q1942.5 951.0 1893.5 951.0H1587.5V1318.0H1616.5L1739.5 1135.0Q1739.5 1135.0 1777.0 1170.0Q1814.5 1205.0 1865.0 1253.0Q1915.5 1301.0 1954.5 1342.0Q1945.5 1375.0 1899.5 1375.0H1587.5V1766.0H1637.5L1778.5 1553.0Q1778.5 1553.0 1804.0 1576.5Q1829.5 1600.0 1869.0 1636.5Q1908.5 1673.0 1951.0 1714.0Q1993.5 1755.0 2026.5 1791.0Q2017.5 1823.0 1966.5 1823.0H1133.5V1916.0Q1133.5 1925.0 1105.5 1944.5Q1077.5 1964.0 1025.0 1981.0Q972.5 1998.0 899.5 1998.0H846.5V916.0Q797.5 970.0 744.0 1016.5Q690.5 1063.0 633.5 1105.0L611.5 1090.0Q672.5 989.0 728.5 861.0Q784.5 733.0 832.5 591.0Q821.5 601.0 795.5 601.0H547.5V849.0L731.5 787.0L738.5 806.0Q701.5 841.0 654.5 885.5Q607.5 930.0 547.5 982.0V1684.0Q547.5 1778.0 526.0 1843.5Q504.5 1909.0 435.0 1947.0Q365.5 1985.0 221.5 1998.0Q218.5 1932.0 210.5 1882.5Q202.5 1833.0 183.5 1801.0Q164.5 1770.0 133.0 1748.5Q101.5 1727.0 35.5 1713.0V1686.0Q35.5 1686.0 60.5 1687.5Q85.5 1689.0 120.5 1691.0Q155.5 1693.0 187.5 1695.0Q219.5 1697.0 234.5 1697.0Q271.5 1697.0 271.5 1666.0V1211.0L191.5 1273.0Q185.5 1294.0 170.5 1312.0Q155.5 1330.0 135.5 1336.0ZM1133.5 543.0V894.0H1305.5V543.0ZM1133.5 951.0V1318.0H1305.5V951.0ZM1133.5 1375.0V1766.0H1305.5V1375.0Z" fill="black"></path></svg>