<?xml version="1.0" standalone="no"?>
<!DOCTYPE svg PUBLIC "-//W3C//DTD SVG 1.1//EN" "http://www.w3.org/Graphics/SVG/1.1/DTD/svg11.dtd" >
<svg xmlns="http://www.w3.org/2000/svg" xmlns:svg="http://www.w3.org/2000/svg" xmlns:xlink="http://www.w3.org/1999/xlink" viewBox="0 0 2048 2048" style=""><path d="M1166.5 251.0Q1255.5 238.0 1324.0 248.0Q1392.5 258.0 1420.5 306.0Q1439.5 341.0 1424.5 376.5Q1409.5 412.0 1374.5 433.5Q1339.5 455.0 1299.5 448.0Q1259.5 441.0 1229.5 390.0Q1221.5 362.0 1201.5 325.0Q1181.5 288.0 1153.5 265.0ZM1544.5 1508.0Q1707.5 1539.0 1802.0 1595.0Q1896.5 1651.0 1936.0 1716.0Q1975.5 1781.0 1971.5 1840.5Q1967.5 1900.0 1932.5 1939.5Q1897.5 1979.0 1842.5 1983.5Q1787.5 1988.0 1725.5 1942.0Q1717.5 1892.0 1700.0 1839.0Q1682.5 1786.0 1659.5 1733.0Q1522.5 1779.0 1329.5 1832.0Q1136.5 1885.0 862.5 1955.0Q852.5 1975.0 835.5 1986.0Q818.5 1997.0 801.5 2000.0L641.5 1680.0Q726.5 1682.0 862.0 1681.0Q997.5 1680.0 1168.5 1678.0V1393.0H1045.5V1461.0Q1045.5 1472.0 1011.5 1490.5Q977.5 1509.0 926.5 1524.0Q875.5 1539.0 821.5 1539.0H785.5V927.0L1057.5 1031.0H1168.5V818.0L1501.5 847.0Q1500.5 864.0 1488.5 875.5Q1476.5 887.0 1444.5 892.0V1031.0H1553.5L1676.5 902.0L1923.5 1088.0Q1914.5 1099.0 1897.0 1110.0Q1879.5 1121.0 1850.5 1127.0V1400.0Q1849.5 1409.0 1812.5 1428.0Q1775.5 1447.0 1723.0 1463.0Q1670.5 1479.0 1622.5 1479.0H1573.5V1393.0H1444.5V1672.0L1626.5 1668.0Q1580.5 1585.0 1528.5 1520.0ZM1577.5 242.0H1020.5Q1080.5 338.0 1166.5 403.0Q1252.5 468.0 1358.5 513.0Q1498.5 391.0 1577.5 242.0ZM776.5 185.0H1577.5L1725.5 52.0L1952.5 257.0Q1934.5 282.0 1868.5 288.0Q1758.5 459.0 1583.5 580.0Q1686.5 602.0 1798.0 613.5Q1909.5 625.0 2026.5 632.0V654.0Q1944.5 680.0 1895.0 746.0Q1845.5 812.0 1825.5 912.0Q1676.5 880.0 1551.5 834.5Q1426.5 789.0 1323.5 720.0Q1047.5 832.0 690.5 865.0L680.5 838.0Q831.5 800.0 964.0 746.5Q1096.5 693.0 1207.5 623.0Q1133.5 553.0 1076.5 459.0Q1019.5 365.0 979.5 242.0H795.5ZM1573.5 1088.0H1444.5V1336.0H1573.5ZM1045.5 1336.0H1168.5V1088.0H1045.5ZM21.5 1025.0Q105.5 1015.0 271.5 984.0V599.0H60.5L43.5 541.0H271.5V48.0L623.5 81.0Q620.5 104.0 603.0 119.0Q585.5 134.0 547.5 140.0V525.0L649.5 355.0Q649.5 355.0 672.0 377.0Q694.5 399.0 728.0 433.5Q761.5 468.0 795.5 505.0Q812.5 484.0 838.5 470.0Q872.5 454.0 894.5 421.0Q916.5 388.0 916.5 345.0L942.5 343.0Q988.5 410.0 1005.5 478.0Q1022.5 546.0 1003.0 600.0Q983.5 654.0 922.5 681.0Q860.5 707.0 815.5 677.5Q770.5 648.0 762.5 599.0H547.5V933.0L793.5 883.0L797.5 902.0Q751.5 937.0 689.5 982.5Q627.5 1028.0 547.5 1080.0V1682.0Q547.5 1776.0 526.0 1841.5Q504.5 1907.0 435.0 1945.0Q365.5 1983.0 221.5 1996.0Q218.5 1930.0 210.5 1880.5Q202.5 1831.0 183.5 1799.0Q164.5 1768.0 133.0 1746.5Q101.5 1725.0 35.5 1711.0V1684.0Q35.5 1684.0 60.5 1685.5Q85.5 1687.0 120.5 1689.0Q155.5 1691.0 187.5 1693.0Q219.5 1695.0 234.5 1695.0Q271.5 1695.0 271.5 1664.0V1256.0L176.5 1312.0Q169.5 1331.0 152.5 1347.5Q135.5 1364.0 115.5 1369.0Z" fill="black"></path></svg>