<?xml version="1.0" standalone="no"?>
<!DOCTYPE svg PUBLIC "-//W3C//DTD SVG 1.1//EN" "http://www.w3.org/Graphics/SVG/1.1/DTD/svg11.dtd" >
<svg xmlns="http://www.w3.org/2000/svg" xmlns:svg="http://www.w3.org/2000/svg" xmlns:xlink="http://www.w3.org/1999/xlink" viewBox="0 0 2048 2048" style=""><path d="M196.0 1362.0H890.0V1237.0Q732.0 1241.0 570.5 1240.5Q409.0 1240.0 255.0 1233.0L251.0 1202.0Q430.0 1184.0 624.0 1150.5Q818.0 1117.0 998.5 1075.0Q1179.0 1033.0 1318.0 989.0V817.0H1023.0L1007.0 760.0H1318.0V614.0H966.0L949.0 557.0H1256.0Q1212.0 550.0 1175.0 510.0Q1182.0 456.0 1174.0 401.0Q1166.0 346.0 1152.0 309.0L1162.0 305.0H1019.0L1005.0 252.0Q986.0 274.0 935.0 286.0V477.0Q934.0 483.0 898.0 496.0Q862.0 509.0 814.0 519.5Q766.0 530.0 728.0 530.0H683.0V483.0H409.0Q406.0 511.0 400.0 540.0Q394.0 569.0 388.0 598.0L527.0 651.0H695.0L804.0 536.0L1031.0 704.0Q1024.0 713.0 1007.0 723.0Q990.0 733.0 966.0 739.0V997.0Q965.0 1006.0 930.5 1022.5Q896.0 1039.0 848.0 1052.0Q800.0 1065.0 759.0 1065.0H714.0V966.0H499.0V1050.0Q499.0 1063.0 446.5 1090.5Q394.0 1118.0 302.0 1118.0H259.0V868.0Q183.0 966.0 60.0 1038.0L44.0 1020.0Q102.0 915.0 127.0 797.5Q152.0 680.0 157.5 564.5Q163.0 449.0 163.0 352.0V92.0L454.0 192.0H663.0L773.0 73.0L1009.0 248.0H1318.0V51.0L1648.0 78.0Q1645.0 94.0 1633.0 106.5Q1621.0 119.0 1590.0 125.0V248.0H1629.0L1746.0 100.0Q1746.0 100.0 1782.0 128.0Q1818.0 156.0 1867.5 196.0Q1917.0 236.0 1957.0 272.0Q1951.0 305.0 1902.0 305.0H1189.0Q1296.0 333.0 1344.5 372.0Q1393.0 411.0 1397.5 450.5Q1402.0 490.0 1375.5 519.5Q1349.0 549.0 1308.0 557.0H1502.0Q1508.0 500.0 1512.5 430.0Q1517.0 360.0 1517.0 305.0L1820.0 354.0Q1815.0 374.0 1797.5 388.0Q1780.0 402.0 1746.0 403.0Q1709.0 439.0 1658.5 479.5Q1608.0 520.0 1555.0 557.0H1672.0L1789.0 409.0Q1789.0 409.0 1825.5 437.5Q1862.0 466.0 1912.5 506.0Q1963.0 546.0 2004.0 581.0Q1998.0 614.0 1949.0 614.0H1762.0Q1768.0 619.0 1804.0 647.0Q1840.0 675.0 1886.5 712.5Q1933.0 750.0 1971.0 784.0Q1962.0 817.0 1916.0 817.0H1590.0V971.0Q1589.0 975.0 1561.5 986.5Q1534.0 998.0 1484.0 1007.0L1664.0 1192.0Q1646.0 1206.0 1610.5 1205.5Q1575.0 1205.0 1525.0 1184.0Q1449.0 1194.0 1362.5 1203.5Q1276.0 1213.0 1181.0 1220.0V1362.0H1474.0L1605.0 1210.0Q1605.0 1210.0 1646.0 1238.5Q1687.0 1267.0 1743.5 1308.0Q1800.0 1349.0 1846.0 1386.0Q1840.0 1419.0 1789.0 1419.0H1754.0Q1789.0 1444.0 1855.0 1493.0Q1921.0 1542.0 1973.0 1585.0Q1964.0 1618.0 1916.0 1618.0H1181.0V1708.0Q1181.0 1793.0 1155.0 1854.0Q1129.0 1915.0 1049.5 1951.0Q970.0 1987.0 808.0 1997.0Q802.0 1940.0 790.5 1897.0Q779.0 1854.0 747.0 1827.0Q719.0 1802.0 674.5 1781.0Q630.0 1760.0 534.0 1745.0V1720.0Q534.0 1720.0 574.5 1722.5Q615.0 1725.0 671.0 1728.5Q727.0 1732.0 777.5 1734.0Q828.0 1736.0 847.0 1736.0Q890.0 1736.0 890.0 1702.0V1618.0H91.0L75.0 1560.0H890.0V1419.0H212.0ZM1758.0 614.0H1590.0V760.0H1644.0ZM714.0 708.0H499.0V909.0H714.0ZM683.0 250.0H415.0V352.0L413.0 426.0H683.0ZM1711.0 1419.0H1181.0V1560.0H1592.0Z" fill="black"></path></svg>