<?xml version="1.0" standalone="no"?>
<!DOCTYPE svg PUBLIC "-//W3C//DTD SVG 1.1//EN" "http://www.w3.org/Graphics/SVG/1.1/DTD/svg11.dtd" >
<svg xmlns="http://www.w3.org/2000/svg" xmlns:svg="http://www.w3.org/2000/svg" xmlns:xlink="http://www.w3.org/1999/xlink" viewBox="0 0 2048 2048" style=""><path d="M23.5 1389.0Q75.5 1366.0 186.5 1310.5Q297.5 1255.0 418.5 1191.0V1019.0Q401.5 1069.0 361.0 1096.5Q320.5 1124.0 269.5 1117.5Q218.5 1111.0 170.5 1058.0Q189.5 950.0 173.0 836.5Q156.5 723.0 121.5 634.0L142.5 625.0Q267.5 684.0 333.0 752.5Q398.5 821.0 418.5 888.0V548.0H74.5L58.5 490.0H418.5V50.0L770.5 83.0Q767.5 106.0 750.5 121.0Q733.5 136.0 694.5 142.0V490.0H742.5L842.5 363.0Q840.5 302.0 815.5 239.5Q790.5 177.0 756.5 136.0L772.5 126.0Q906.5 137.0 975.0 175.0Q1043.5 213.0 1061.5 260.5Q1079.5 308.0 1060.5 350.0Q1041.5 392.0 1000.5 412.0Q1030.5 437.0 1064.0 463.5Q1097.5 490.0 1125.5 515.0Q1116.5 548.0 1067.5 548.0H694.5V1127.0L703.5 1123.0Q851.5 1166.0 934.5 1226.5Q1017.5 1287.0 1048.0 1352.0Q1078.5 1417.0 1068.5 1473.0Q1058.5 1529.0 1020.0 1563.0Q981.5 1597.0 927.5 1596.0Q873.5 1595.0 815.5 1545.0Q808.5 1445.0 772.5 1341.5Q736.5 1238.0 694.5 1154.0V1684.0Q694.5 1778.0 673.5 1843.5Q652.5 1909.0 584.5 1947.0Q516.5 1985.0 375.5 1998.0Q372.5 1932.0 365.0 1882.5Q357.5 1833.0 338.5 1801.0Q320.5 1770.0 290.5 1748.5Q260.5 1727.0 197.5 1713.0V1686.0Q197.5 1686.0 220.5 1687.5Q243.5 1689.0 276.5 1691.0Q309.5 1693.0 339.0 1695.0Q368.5 1697.0 381.5 1697.0Q418.5 1697.0 418.5 1668.0V1246.0Q389.5 1309.0 347.0 1397.5Q304.5 1486.0 246.5 1592.0Q244.5 1614.0 234.0 1633.0Q223.5 1652.0 205.5 1662.0ZM789.5 599.0 1084.5 730.0Q1127.5 572.0 1157.0 398.0Q1186.5 224.0 1198.5 52.0L1598.5 138.0Q1588.5 181.0 1518.5 187.0Q1466.5 375.0 1395.5 533.0H1626.5L1768.5 339.0Q1768.5 339.0 1794.5 360.0Q1820.5 381.0 1861.0 415.0Q1901.5 449.0 1945.0 487.0Q1988.5 525.0 2024.5 558.0Q2018.5 591.0 1966.5 591.0H1866.5Q1835.5 813.0 1770.0 1021.5Q1704.5 1230.0 1587.5 1410.0Q1760.5 1607.0 2022.5 1727.0L2013.5 1748.0Q1907.5 1772.0 1846.5 1833.0Q1785.5 1894.0 1757.5 1996.0Q1654.5 1917.0 1575.5 1817.5Q1496.5 1718.0 1438.5 1598.0Q1323.5 1721.0 1170.5 1821.5Q1017.5 1922.0 817.5 1996.0L805.5 1977.0Q994.5 1851.0 1127.5 1695.5Q1260.5 1540.0 1346.5 1365.0Q1307.5 1242.0 1281.0 1104.0Q1254.5 966.0 1235.5 816.0Q1132.5 965.0 993.5 1078.0L969.5 1064.0Q1026.5 932.0 1071.5 773.0Q1058.5 778.0 1034.5 775.0Q1003.5 810.0 954.0 858.0Q904.5 906.0 847.5 956.5Q790.5 1007.0 735.5 1049.0L717.5 1041.0Q732.5 974.0 747.5 889.0Q762.5 804.0 774.0 725.5Q785.5 647.0 789.5 599.0ZM1426.5 1176.0Q1475.5 1037.0 1502.5 889.0Q1529.5 741.0 1538.5 591.0H1368.5Q1347.5 637.0 1323.0 680.0Q1298.5 723.0 1272.5 763.0Q1300.5 878.0 1338.0 982.0Q1375.5 1086.0 1426.5 1176.0Z" fill="black"></path></svg>