<?xml version="1.0" standalone="no"?>
<!DOCTYPE svg PUBLIC "-//W3C//DTD SVG 1.1//EN" "http://www.w3.org/Graphics/SVG/1.1/DTD/svg11.dtd" >
<svg xmlns="http://www.w3.org/2000/svg" xmlns:svg="http://www.w3.org/2000/svg" xmlns:xlink="http://www.w3.org/1999/xlink" viewBox="0 0 2048 2048" style=""><path d="M1216.5 56.0 1605.5 144.0Q1592.5 190.0 1525.5 193.0Q1504.5 281.0 1478.5 363.5Q1452.5 446.0 1421.5 521.0H1603.5L1746.5 330.0Q1746.5 330.0 1773.0 351.5Q1799.5 373.0 1839.5 406.0Q1879.5 439.0 1923.5 476.0Q1967.5 513.0 2002.5 546.0Q1993.5 578.0 1945.5 578.0H1857.5Q1836.5 815.0 1782.0 1034.0Q1727.5 1253.0 1613.5 1441.0Q1775.5 1621.0 2017.5 1735.0L2009.5 1756.0Q1904.5 1779.0 1844.0 1839.0Q1783.5 1899.0 1757.5 1998.0Q1665.5 1927.0 1593.0 1837.0Q1520.5 1747.0 1466.5 1639.0Q1368.5 1747.0 1236.5 1835.5Q1104.5 1924.0 933.5 1991.0L919.5 1975.0Q1079.5 1857.0 1189.5 1714.5Q1299.5 1572.0 1372.5 1414.0Q1329.5 1288.0 1300.5 1145.5Q1271.5 1003.0 1253.5 847.0Q1208.5 911.0 1160.5 969.0Q1112.5 1027.0 1056.5 1078.0L1032.5 1064.0Q1082.5 921.0 1122.5 748.0L1109.5 750.0H47.5L30.5 693.0H243.5V400.0H75.5L59.5 343.0H243.5V50.0L557.5 77.0Q555.5 95.0 543.5 107.0Q531.5 119.0 499.5 124.0V343.0H626.5V50.0L946.5 77.0Q943.5 95.0 931.5 107.0Q919.5 119.0 888.5 124.0V328.0L976.5 195.0Q976.5 195.0 1007.0 223.5Q1037.5 252.0 1078.5 292.5Q1119.5 333.0 1150.5 367.0Q1144.5 400.0 1097.5 400.0H888.5V677.0L980.5 539.0Q980.5 539.0 1005.5 562.0Q1030.5 585.0 1066.0 619.0Q1101.5 653.0 1134.5 687.0Q1200.5 381.0 1216.5 56.0ZM499.5 400.0V693.0H626.5V400.0ZM434.5 967.0V1148.0H727.5V967.0ZM167.5 910.0V802.0L462.5 910.0H708.5L819.5 785.0L1058.5 963.0Q1051.5 974.0 1035.5 984.0Q1019.5 994.0 995.5 998.0V1672.0Q995.5 1759.0 975.5 1820.5Q955.5 1882.0 890.0 1918.0Q824.5 1954.0 688.5 1965.0Q685.5 1902.0 678.0 1855.0Q670.5 1808.0 653.5 1780.0Q636.5 1751.0 608.5 1731.0Q580.5 1711.0 520.5 1699.0V1672.0Q520.5 1672.0 556.0 1674.0Q591.5 1676.0 633.0 1678.0Q674.5 1680.0 692.5 1680.0Q713.5 1680.0 720.5 1671.0Q727.5 1662.0 727.5 1645.0V1449.0H434.5V1916.0Q434.5 1929.0 376.5 1961.0Q318.5 1993.0 217.5 1993.0H167.5ZM434.5 1205.0V1391.0H727.5V1205.0ZM1447.5 1205.0Q1492.5 1056.0 1513.0 898.0Q1533.5 740.0 1538.5 578.0H1396.5Q1351.5 686.0 1292.5 783.0Q1319.5 901.0 1358.5 1007.0Q1397.5 1113.0 1447.5 1205.0Z" fill="black"></path></svg>