<?xml version="1.0" standalone="no"?>
<!DOCTYPE svg PUBLIC "-//W3C//DTD SVG 1.1//EN" "http://www.w3.org/Graphics/SVG/1.1/DTD/svg11.dtd" >
<svg xmlns="http://www.w3.org/2000/svg" xmlns:svg="http://www.w3.org/2000/svg" xmlns:xlink="http://www.w3.org/1999/xlink" viewBox="0 0 2048 2048" style=""><path d="M22.5 1380.0 159.5 1358.0V287.0L476.5 313.0Q473.5 332.0 462.5 344.0Q451.5 356.0 417.5 360.0V1311.0L534.5 1286.0V82.0L888.5 117.0Q884.5 138.0 869.5 153.0Q854.5 168.0 812.5 174.0V1892.0Q812.5 1906.0 778.0 1929.0Q743.5 1952.0 691.5 1970.0Q639.5 1988.0 587.5 1988.0H534.5V1384.0Q474.5 1438.0 396.0 1504.0Q317.5 1570.0 218.5 1646.0Q202.5 1694.0 161.5 1704.0ZM1072.5 53.0 1478.5 147.0Q1465.5 194.0 1396.5 196.0Q1367.5 289.0 1334.5 373.0Q1301.5 457.0 1263.5 532.0H1599.5L1742.5 342.0Q1742.5 342.0 1768.5 363.0Q1794.5 384.0 1834.5 417.0Q1874.5 450.0 1918.5 487.5Q1962.5 525.0 1998.5 557.0Q1989.5 590.0 1939.5 590.0H1830.5Q1799.5 820.0 1729.5 1035.5Q1659.5 1251.0 1531.5 1435.0Q1725.5 1614.0 2025.5 1708.0L2019.5 1730.0Q1913.5 1756.0 1851.5 1821.5Q1789.5 1887.0 1765.5 1993.0Q1637.5 1926.0 1542.0 1834.5Q1446.5 1743.0 1376.5 1626.0Q1265.5 1738.0 1122.5 1831.0Q979.5 1924.0 798.5 1995.0L784.5 1976.0Q951.5 1861.0 1073.5 1721.5Q1195.5 1582.0 1281.5 1427.0Q1226.5 1283.0 1192.5 1111.0Q1158.5 939.0 1138.5 741.0Q1075.5 829.0 1002.0 903.0Q928.5 977.0 845.5 1038.0L823.5 1024.0Q882.5 901.0 933.5 742.5Q984.5 584.0 1021.0 407.0Q1057.5 230.0 1072.5 53.0ZM1367.5 1243.0Q1430.5 1088.0 1464.5 922.5Q1498.5 757.0 1509.5 590.0H1232.5Q1217.5 617.0 1201.0 644.5Q1184.5 672.0 1167.5 698.0Q1225.5 1021.0 1367.5 1243.0Z" fill="black"></path></svg>