<?xml version="1.0" standalone="no"?>
<!DOCTYPE svg PUBLIC "-//W3C//DTD SVG 1.1//EN" "http://www.w3.org/Graphics/SVG/1.1/DTD/svg11.dtd" >
<svg xmlns="http://www.w3.org/2000/svg" xmlns:svg="http://www.w3.org/2000/svg" xmlns:xlink="http://www.w3.org/1999/xlink" viewBox="0 0 2048 2048" style=""><path d="M307.5 211.5V88.5L629.5 211.5H1395.5L1530.5 62.5L1803.5 272.5Q1793.5 285.5 1774.5 298.0Q1755.5 310.5 1723.5 318.5V1088.5Q1722.5 1096.5 1679.5 1113.5Q1636.5 1130.5 1577.5 1145.0Q1518.5 1159.5 1467.5 1159.5H1415.5V1034.5H1164.5V1354.5H1532.5L1696.5 1145.5Q1696.5 1145.5 1726.5 1168.0Q1756.5 1190.5 1803.5 1226.5Q1850.5 1262.5 1901.5 1303.0Q1952.5 1343.5 1993.5 1378.5Q1988.5 1395.5 1972.0 1403.5Q1955.5 1411.5 1934.5 1411.5H1164.5V1919.5Q1162.5 1930.5 1096.0 1958.0Q1029.5 1985.5 910.5 1985.5H850.5V1411.5H70.5L54.5 1354.5H850.5V1034.5H611.5V1116.5Q611.5 1132.5 573.0 1155.5Q534.5 1178.5 475.5 1197.0Q416.5 1215.5 353.5 1215.5H307.5ZM1415.5 268.5H611.5V588.5H1415.5ZM611.5 977.5H1415.5V645.5H611.5Z" fill="black"></path></svg>