<?xml version="1.0" standalone="no"?>
<!DOCTYPE svg PUBLIC "-//W3C//DTD SVG 1.1//EN" "http://www.w3.org/Graphics/SVG/1.1/DTD/svg11.dtd" >
<svg xmlns="http://www.w3.org/2000/svg" xmlns:svg="http://www.w3.org/2000/svg" xmlns:xlink="http://www.w3.org/1999/xlink" viewBox="0 0 2048 2048" style=""><path d="M1683.0 50.0 1980.0 285.0Q1961.0 302.0 1928.0 305.5Q1895.0 309.0 1842.0 294.0Q1756.0 321.0 1633.5 345.5Q1511.0 370.0 1381.0 386.0V787.0H1599.0L1746.0 580.0Q1746.0 580.0 1773.0 603.0Q1800.0 626.0 1842.0 661.5Q1884.0 697.0 1929.0 737.0Q1974.0 777.0 2010.0 812.0Q2007.0 829.0 1990.5 837.0Q1974.0 845.0 1953.0 845.0H1810.0V1918.0Q1808.0 1930.0 1746.0 1963.0Q1684.0 1996.0 1572.0 1996.0H1519.0V845.0H1381.0V924.0Q1381.0 1063.0 1366.5 1210.0Q1352.0 1357.0 1299.0 1499.0Q1246.0 1641.0 1135.5 1768.5Q1025.0 1896.0 833.0 1996.0L814.0 1975.0Q943.0 1825.0 1003.0 1650.5Q1063.0 1476.0 1080.0 1290.0Q1097.0 1104.0 1097.0 916.0V849.0Q1085.0 855.0 1068.0 855.0H61.0L44.0 797.0H587.0Q611.0 708.0 632.5 597.5Q654.0 487.0 667.0 396.0H261.0Q373.0 442.0 431.0 496.5Q489.0 551.0 504.5 605.0Q520.0 659.0 504.5 702.5Q489.0 746.0 452.5 769.0Q416.0 792.0 370.0 786.0Q324.0 780.0 280.0 734.0Q284.0 648.0 264.5 557.5Q245.0 467.0 220.0 396.0H93.0L77.0 339.0H415.0V60.0L775.0 87.0Q774.0 108.0 759.5 123.0Q745.0 138.0 702.0 144.0V339.0H724.0L841.0 177.0Q841.0 177.0 877.5 207.5Q914.0 238.0 963.5 281.5Q1013.0 325.0 1052.0 363.0Q1043.0 396.0 996.0 396.0H722.0L990.0 478.0Q984.0 496.0 966.0 507.0Q948.0 518.0 915.0 515.0Q864.0 578.0 789.0 654.5Q714.0 731.0 634.0 797.0H786.0L906.0 627.0Q906.0 627.0 937.0 654.0Q968.0 681.0 1012.5 720.5Q1057.0 760.0 1097.0 797.0V220.0L1373.0 306.0Q1464.0 246.0 1548.0 175.5Q1632.0 105.0 1683.0 50.0ZM407.0 888.0 751.0 918.0Q749.0 935.0 736.0 949.0Q723.0 963.0 687.0 967.0V1121.0H749.0L863.0 959.0Q863.0 959.0 898.5 990.0Q934.0 1021.0 982.0 1064.5Q1030.0 1108.0 1068.0 1146.0Q1059.0 1178.0 1013.0 1178.0H687.0V1232.0L700.0 1225.0Q833.0 1249.0 907.0 1293.0Q981.0 1337.0 1007.0 1388.5Q1033.0 1440.0 1022.5 1486.5Q1012.0 1533.0 976.5 1562.0Q941.0 1591.0 891.0 1591.5Q841.0 1592.0 790.0 1549.0Q788.0 1469.0 757.5 1387.5Q727.0 1306.0 687.0 1246.0V1924.0Q687.0 1935.0 651.5 1952.5Q616.0 1970.0 563.0 1984.0Q510.0 1998.0 458.0 1998.0H407.0V1555.0Q254.0 1707.0 58.0 1819.0L38.0 1797.0Q147.0 1674.0 227.5 1507.5Q308.0 1341.0 355.0 1178.0H81.0L65.0 1121.0H407.0Z" fill="black"></path></svg>