<?xml version="1.0" standalone="no"?>
<!DOCTYPE svg PUBLIC "-//W3C//DTD SVG 1.1//EN" "http://www.w3.org/Graphics/SVG/1.1/DTD/svg11.dtd" >
<svg xmlns="http://www.w3.org/2000/svg" xmlns:svg="http://www.w3.org/2000/svg" xmlns:xlink="http://www.w3.org/1999/xlink" viewBox="0 0 2048 2048" style=""><path d="M853.5 273.0 1064.5 357.0Q1059.5 371.0 1041.5 384.0Q1023.5 397.0 992.5 392.0Q958.5 443.0 903.0 515.0Q847.5 587.0 787.5 656.0L900.5 650.0Q894.5 627.0 886.0 606.0Q877.5 585.0 869.5 568.0L892.5 558.0Q998.5 595.0 1038.5 643.5Q1078.5 692.0 1072.0 735.0Q1065.5 778.0 1031.5 800.0Q997.5 822.0 955.5 806.0Q984.5 829.0 1022.5 859.5Q1060.5 890.0 1090.5 916.0V212.0L1369.5 300.0Q1460.5 240.0 1549.0 170.0Q1637.5 100.0 1690.5 48.0L1975.5 290.0Q1931.5 327.0 1836.5 294.0Q1745.5 315.0 1616.5 335.0Q1487.5 355.0 1357.5 367.0V812.0H1606.5L1740.5 627.0Q1740.5 627.0 1765.0 647.5Q1789.5 668.0 1827.0 700.5Q1864.5 733.0 1905.5 769.0Q1946.5 805.0 1979.5 836.0Q1970.5 869.0 1922.5 869.0H1807.5V1918.0Q1806.5 1930.0 1747.0 1960.5Q1687.5 1991.0 1580.5 1991.0H1529.5V869.0H1357.5V953.0Q1357.5 1088.0 1345.5 1230.0Q1333.5 1372.0 1290.0 1510.0Q1246.5 1648.0 1152.5 1773.0Q1058.5 1898.0 894.5 2000.0L873.5 1977.0Q899.5 1939.0 922.5 1899.0Q945.5 1859.0 963.5 1817.0H320.5V1867.0Q320.5 1879.0 289.5 1899.5Q258.5 1920.0 212.0 1936.5Q165.5 1953.0 120.5 1953.0H68.5V103.0L380.5 134.0Q377.5 151.0 365.5 163.0Q353.5 175.0 320.5 181.0V300.0L329.5 296.0L384.5 314.0Q398.5 251.0 410.5 181.0Q422.5 111.0 427.5 68.0L644.5 140.0Q641.5 154.0 624.5 167.0Q607.5 180.0 574.5 177.0Q550.5 209.0 512.5 252.0Q474.5 295.0 433.5 337.0Q471.5 360.0 490.5 386.0L523.5 273.0L644.5 320.0L628.5 300.0L650.5 288.0Q683.5 296.0 714.5 306.0Q726.5 245.0 737.5 177.5Q748.5 110.0 752.5 68.0L980.5 142.0Q977.5 156.0 960.0 169.5Q942.5 183.0 910.5 181.0Q886.5 210.0 848.5 250.5Q810.5 291.0 767.5 333.0Q787.5 343.0 800.5 355.5Q813.5 368.0 822.5 382.0ZM320.5 331.0V664.0L394.5 662.0L443.5 527.0Q406.5 534.0 370.5 501.0Q368.5 459.0 354.0 413.0Q339.5 367.0 320.5 331.0ZM320.5 1760.0H773.5L884.5 1623.0L1004.5 1715.0L1029.5 1631.0Q1004.5 1645.0 974.0 1642.5Q943.5 1640.0 914.5 1611.0L916.5 1565.0Q886.5 1584.0 848.0 1606.5Q809.5 1629.0 763.5 1654.0Q749.5 1689.0 714.5 1697.0L695.5 1654.0Q672.5 1672.0 640.0 1671.0Q607.5 1670.0 576.5 1639.0Q580.5 1606.0 574.5 1576.0L433.5 1658.0Q419.5 1695.0 382.5 1699.0L320.5 1543.0ZM320.5 951.0V1127.0Q339.5 1132.0 355.5 1137.5Q371.5 1143.0 386.5 1148.0Q395.5 1097.0 404.5 1043.0Q413.5 989.0 419.5 951.0ZM320.5 894.0H798.5L902.5 765.0L914.5 775.0Q916.5 761.0 915.5 747.0Q914.5 733.0 914.5 720.0L761.5 802.0Q744.5 838.0 709.5 845.0L695.5 810.0Q672.5 821.0 646.0 816.0Q619.5 811.0 593.5 785.0Q594.5 768.0 593.5 750.0Q592.5 732.0 591.5 716.0L433.5 806.0Q419.5 843.0 382.5 847.0L320.5 691.0ZM320.5 1180.0V1516.0L396.5 1514.0Q410.5 1476.0 426.5 1433.5Q442.5 1391.0 456.5 1348.0Q434.5 1358.0 409.5 1353.5Q384.5 1349.0 359.5 1328.0Q358.5 1291.0 347.5 1252.5Q336.5 1214.0 320.5 1180.0ZM570.5 566.0Q626.5 588.0 661.0 612.0Q695.5 636.0 714.5 660.0H726.5L775.5 527.0Q739.5 534.0 699.5 501.0Q702.5 444.0 677.5 386.0Q665.5 389.0 648.5 386.0Q616.5 438.0 563.5 513.0Q510.5 588.0 451.5 660.0L576.5 652.0Q563.5 605.0 546.5 576.0ZM851.5 1121.0 1056.5 1203.0Q1053.5 1217.0 1035.0 1229.5Q1016.5 1242.0 984.5 1238.0Q964.5 1270.0 935.0 1312.0Q905.5 1354.0 869.5 1400.0L892.5 1389.0Q961.5 1414.0 1001.0 1444.5Q1040.5 1475.0 1056.5 1504.0Q1079.5 1370.0 1085.0 1229.0Q1090.5 1088.0 1090.5 947.0V920.0Q1085.5 951.0 1039.5 951.0H812.5L980.5 1006.0Q977.5 1020.0 961.0 1033.5Q944.5 1047.0 912.5 1045.0Q889.5 1073.0 852.5 1109.5Q815.5 1146.0 775.5 1183.0Q803.5 1202.0 820.5 1230.0ZM523.5 1125.0 646.5 1174.0 626.5 1137.0 648.5 1127.0Q682.5 1136.0 714.5 1150.0Q724.5 1098.0 733.5 1043.5Q742.5 989.0 746.5 951.0H484.5L642.5 1002.0Q640.5 1016.0 624.0 1029.5Q607.5 1043.0 574.5 1041.0Q551.5 1069.0 518.0 1106.5Q484.5 1144.0 447.5 1183.0Q479.5 1205.0 492.5 1232.0ZM554.5 1418.0Q611.5 1438.0 647.5 1463.0Q683.5 1488.0 703.5 1514.0L722.5 1512.0Q737.5 1475.0 752.5 1433.5Q767.5 1392.0 781.5 1350.0Q761.5 1358.0 737.0 1353.5Q712.5 1349.0 687.5 1328.0Q687.5 1288.0 671.5 1242.0H654.5Q622.5 1293.0 568.0 1367.5Q513.5 1442.0 453.5 1512.0L560.5 1506.0Q547.5 1461.0 529.5 1428.0ZM906.5 1500.0Q894.5 1445.0 867.5 1402.0L779.5 1510.0Z" fill="black"></path></svg>