<?xml version="1.0" standalone="no"?>
<!DOCTYPE svg PUBLIC "-//W3C//DTD SVG 1.1//EN" "http://www.w3.org/Graphics/SVG/1.1/DTD/svg11.dtd" >
<svg xmlns="http://www.w3.org/2000/svg" xmlns:svg="http://www.w3.org/2000/svg" xmlns:xlink="http://www.w3.org/1999/xlink" viewBox="0 0 2048 2048" style=""><path d="M1057.0 50.0 1438.0 177.0Q1424.0 221.0 1354.0 218.0Q1324.0 276.0 1290.5 327.5Q1257.0 379.0 1221.0 427.0H1604.0L1749.0 224.0Q1749.0 224.0 1775.5 246.5Q1802.0 269.0 1843.0 304.0Q1884.0 339.0 1928.5 378.5Q1973.0 418.0 2009.0 451.0Q2000.0 484.0 1950.0 484.0H1173.0Q1138.0 526.0 1101.0 562.0Q1064.0 598.0 1024.0 632.0L1286.0 703.0V572.0L1634.0 603.0Q1631.0 623.0 1618.0 636.5Q1605.0 650.0 1567.0 656.0V935.0H1642.0L1769.0 752.0Q1769.0 752.0 1792.5 772.5Q1816.0 793.0 1851.5 825.0Q1887.0 857.0 1925.5 893.0Q1964.0 929.0 1995.0 959.0Q1986.0 992.0 1937.0 992.0H1567.0V1340.0H1620.0L1745.0 1154.0Q1745.0 1154.0 1768.0 1174.5Q1791.0 1195.0 1826.5 1227.5Q1862.0 1260.0 1900.0 1296.5Q1938.0 1333.0 1968.0 1365.0Q1959.0 1397.0 1911.0 1397.0H1567.0V1877.0H1644.0L1780.0 1690.0Q1780.0 1690.0 1804.5 1711.0Q1829.0 1732.0 1867.5 1764.5Q1906.0 1797.0 1948.0 1833.5Q1990.0 1870.0 2023.0 1901.0Q2014.0 1934.0 1966.0 1934.0H833.0L817.0 1877.0H1286.0V1397.0H981.0L965.0 1340.0H1286.0V992.0H1128.0Q1027.0 1146.0 891.0 1242.0L864.0 1228.0Q907.0 1117.0 939.0 965.5Q971.0 814.0 985.0 660.0Q907.0 720.0 817.0 767.0L797.0 750.0Q856.0 660.0 909.0 537.0H901.0H526.0Q525.0 606.0 520.5 675.5Q516.0 745.0 510.0 816.0H567.0L704.0 681.0L938.0 879.0Q926.0 893.0 905.0 903.5Q884.0 914.0 852.0 918.0Q844.0 1167.0 832.5 1334.5Q821.0 1502.0 802.5 1608.0Q784.0 1714.0 756.0 1775.5Q728.0 1837.0 686.0 1873.0Q634.0 1917.0 569.0 1937.0Q504.0 1957.0 424.0 1957.0Q424.0 1895.0 419.0 1850.0Q414.0 1805.0 395.0 1778.0Q377.0 1749.0 349.5 1729.5Q322.0 1710.0 274.0 1697.0Q228.0 1779.0 171.0 1854.5Q114.0 1930.0 43.0 1998.0L25.0 1981.0Q124.0 1771.0 173.0 1526.5Q222.0 1282.0 235.0 1028.5Q248.0 775.0 240.0 537.0H74.0L57.0 480.0H324.0V52.0L661.0 79.0Q658.0 99.0 645.5 112.5Q633.0 126.0 596.0 132.0V468.0L723.0 287.0Q723.0 287.0 757.5 318.0Q792.0 349.0 841.0 393.5Q890.0 438.0 934.0 480.0Q972.0 380.0 1004.5 270.5Q1037.0 161.0 1057.0 50.0ZM1286.0 754.0Q1271.0 761.0 1249.0 761.0Q1231.0 807.0 1209.5 851.0Q1188.0 895.0 1163.0 935.0H1286.0ZM588.0 873.0H506.0Q483.0 1082.0 433.0 1286.5Q383.0 1491.0 287.0 1672.0L428.0 1676.0Q466.0 1676.0 489.0 1656.0Q517.0 1631.0 536.0 1545.0Q555.0 1459.0 567.5 1295.0Q580.0 1131.0 588.0 873.0Z" fill="black"></path></svg>