<?xml version="1.0" standalone="no"?>
<!DOCTYPE svg PUBLIC "-//W3C//DTD SVG 1.1//EN" "http://www.w3.org/Graphics/SVG/1.1/DTD/svg11.dtd" >
<svg xmlns="http://www.w3.org/2000/svg" xmlns:svg="http://www.w3.org/2000/svg" xmlns:xlink="http://www.w3.org/1999/xlink" viewBox="0 0 2048 2048" style=""><path d="M1350.0 537.5V470.5L1511.0 537.5H1765.0L1845.0 457.5L2011.0 580.5Q1997.0 601.5 1952.0 611.5V818.5Q1951.0 825.5 1926.5 836.5Q1902.0 847.5 1869.5 856.5Q1837.0 865.5 1810.0 865.5H1782.0V808.5H1503.0V832.5Q1503.0 841.5 1460.5 860.5Q1418.0 879.5 1372.0 879.5H1350.0V810.5Q1337.0 822.5 1313.0 822.5H917.0V853.5L913.0 859.5L1141.0 943.5H1536.0L1653.0 820.5L1888.0 996.5Q1882.0 1005.5 1869.0 1014.0Q1856.0 1022.5 1835.0 1027.5V1549.5Q1834.0 1557.5 1797.5 1572.5Q1761.0 1587.5 1710.0 1600.0Q1659.0 1612.5 1614.0 1614.5V1733.5Q1614.0 1750.5 1620.0 1756.5Q1626.0 1762.5 1649.0 1762.5H1722.0Q1741.0 1762.5 1758.0 1762.5Q1775.0 1762.5 1786.0 1762.5Q1800.0 1760.5 1810.0 1757.5Q1820.0 1754.5 1829.0 1743.5Q1843.0 1730.5 1863.0 1691.5Q1883.0 1652.5 1909.0 1594.5H1929.0L1935.0 1748.5Q1980.0 1768.5 1993.5 1791.5Q2007.0 1814.5 2007.0 1848.5Q2007.0 1915.5 1938.0 1948.5Q1869.0 1981.5 1690.0 1981.5H1565.0Q1472.0 1981.5 1428.0 1963.0Q1384.0 1944.5 1371.0 1901.0Q1358.0 1857.5 1358.0 1782.5V1543.5H1288.0Q1273.0 1626.5 1237.0 1697.5Q1201.0 1768.5 1126.5 1827.5Q1052.0 1886.5 924.5 1932.0Q797.0 1977.5 598.0 2010.5L582.0 1983.5Q718.0 1932.5 799.0 1876.0Q880.0 1819.5 922.5 1758.5Q965.0 1697.5 983.0 1633.5Q968.0 1634.5 951.0 1636.0Q934.0 1637.5 915.0 1637.5H864.0V891.5Q846.0 899.5 819.0 905.0Q792.0 910.5 762.0 910.5H729.0V584.5L715.0 586.5H512.0V959.5L778.0 916.5L780.0 937.5Q730.0 970.5 663.0 1013.0Q596.0 1055.5 512.0 1104.5V1700.5Q512.0 1792.5 492.0 1856.0Q472.0 1919.5 407.0 1956.5Q342.0 1993.5 207.0 2006.5Q204.0 1941.5 196.5 1894.0Q189.0 1846.5 172.0 1815.5Q155.0 1784.5 127.0 1764.0Q99.0 1743.5 41.0 1731.5V1703.5Q41.0 1703.5 76.0 1706.0Q111.0 1708.5 152.0 1711.0Q193.0 1713.5 211.0 1713.5Q246.0 1713.5 246.0 1682.5V1252.5L188.0 1283.5Q172.0 1327.5 127.0 1338.5L31.0 1023.5L246.0 996.5V586.5H51.0L37.0 529.5H246.0V56.5L588.0 89.5Q585.0 112.5 567.5 127.0Q550.0 141.5 512.0 146.5V511.5L600.0 345.5Q600.0 345.5 620.5 369.5Q641.0 393.5 671.0 430.0Q701.0 466.5 729.0 502.5V83.5L952.0 171.5H1071.0L1167.0 46.5Q1167.0 46.5 1197.0 71.0Q1227.0 95.5 1267.5 130.0Q1308.0 164.5 1339.0 195.5Q1333.0 228.5 1286.0 228.5H1124.0V349.5L1182.0 293.5L1288.0 371.5Q1316.0 298.5 1337.0 212.0Q1358.0 125.5 1370.0 37.5L1659.0 123.5Q1646.0 167.5 1581.0 167.5Q1556.0 210.5 1532.0 246.5H1690.0L1806.0 89.5Q1806.0 89.5 1842.5 119.5Q1879.0 149.5 1928.5 192.0Q1978.0 234.5 2017.0 271.5Q2008.0 304.5 1962.0 304.5H1782.0Q1808.0 325.5 1848.5 357.5Q1889.0 389.5 1921.0 418.5Q1915.0 451.5 1868.0 451.5H1438.0L1421.0 394.5H1655.0L1728.0 304.5H1487.0Q1442.0 357.5 1392.0 403.0Q1342.0 448.5 1288.0 480.5V592.5Q1287.0 600.5 1263.5 611.5Q1240.0 622.5 1208.0 631.5Q1176.0 640.5 1151.0 640.5H1124.0V744.5L1200.0 635.5Q1200.0 635.5 1225.0 658.0Q1250.0 680.5 1285.0 712.5Q1320.0 744.5 1350.0 775.5ZM917.0 228.5V363.5H977.0V228.5ZM917.0 765.5H977.0V613.5H917.0ZM917.0 420.5V556.5H1124.0L1122.0 420.5ZM1141.0 1000.5V1123.5H1552.0V1000.5ZM1141.0 1180.5V1303.5H1552.0V1180.5ZM1141.0 1360.5V1485.5H1552.0V1360.5ZM1544.0 750.5V595.5H1503.0V750.5ZM1622.0 750.5H1663.0V595.5H1622.0ZM1741.0 750.5H1782.0V595.5H1741.0Z" fill="black"></path></svg>