<?xml version="1.0" standalone="no"?>
<!DOCTYPE svg PUBLIC "-//W3C//DTD SVG 1.1//EN" "http://www.w3.org/Graphics/SVG/1.1/DTD/svg11.dtd" >
<svg xmlns="http://www.w3.org/2000/svg" xmlns:svg="http://www.w3.org/2000/svg" xmlns:xlink="http://www.w3.org/1999/xlink" viewBox="0 0 2048 2048" style=""><path d="M47.5 478.0H350.5V60.0L713.5 89.0Q711.5 107.0 698.0 120.5Q684.5 134.0 647.5 140.0V478.0H666.5L807.5 273.0Q807.5 273.0 842.5 304.0Q877.5 335.0 928.0 380.5Q978.5 426.0 1024.5 470.0Q1059.5 371.0 1088.0 264.0Q1116.5 157.0 1135.5 50.0L1516.5 173.0Q1502.5 217.0 1432.5 214.0Q1402.5 272.0 1370.5 325.0Q1338.5 378.0 1305.5 427.0H1602.5L1747.5 224.0Q1747.5 224.0 1774.0 246.5Q1800.5 269.0 1841.0 304.0Q1881.5 339.0 1926.0 378.5Q1970.5 418.0 2005.5 451.0Q1996.5 484.0 1948.5 484.0H1260.5Q1210.5 547.0 1155.5 601.0Q1100.5 655.0 1040.5 701.0H1645.5L1774.5 572.0L1995.5 785.0Q1983.5 799.0 1966.0 803.5Q1948.5 808.0 1917.5 810.0Q1880.5 839.0 1831.0 877.0Q1781.5 915.0 1730.5 951.5Q1679.5 988.0 1638.5 1015.0L1620.5 1002.0L1659.5 759.0H1567.5V1199.0H1606.5L1737.5 1017.0Q1737.5 1017.0 1761.5 1037.0Q1785.5 1057.0 1822.5 1088.5Q1859.5 1120.0 1900.0 1156.0Q1940.5 1192.0 1972.5 1223.0Q1963.5 1256.0 1915.5 1256.0H1567.5V1678.0L1661.5 1680.0Q1701.5 1680.0 1769.5 1680.0Q1837.5 1680.0 1908.0 1680.0Q1978.5 1680.0 2026.5 1680.0V1703.0Q1970.5 1717.0 1945.5 1785.0Q1920.5 1853.0 1921.5 1940.0Q1889.5 1940.0 1837.5 1940.0Q1785.5 1940.0 1733.0 1940.0Q1680.5 1940.0 1649.5 1940.0Q1516.5 1940.0 1415.0 1908.5Q1313.5 1877.0 1243.0 1797.5Q1172.5 1718.0 1128.5 1576.0Q1012.5 1851.0 762.5 1998.0L739.5 1977.0Q870.5 1787.0 931.5 1542.0Q992.5 1297.0 975.5 996.0L1311.5 1045.0V759.0H1026.5L1014.5 722.0Q988.5 740.0 962.0 758.0Q935.5 776.0 907.5 791.0L885.5 775.0Q914.5 724.0 944.0 663.5Q973.5 603.0 999.5 535.0H547.5Q545.5 606.0 544.0 676.5Q542.5 747.0 539.5 816.0H614.5L750.5 683.0L979.5 879.0Q955.5 907.0 891.5 918.0Q883.5 1154.0 871.5 1316.5Q859.5 1479.0 840.0 1584.5Q820.5 1690.0 791.5 1752.5Q762.5 1815.0 721.5 1850.0Q620.5 1936.0 455.5 1936.0Q456.5 1875.0 450.5 1830.5Q444.5 1786.0 424.5 1760.0Q389.5 1709.0 317.5 1686.0Q265.5 1768.0 198.5 1843.0Q131.5 1918.0 45.5 1987.0L21.5 1961.0Q117.5 1799.0 168.5 1627.0Q219.5 1455.0 240.0 1275.0Q260.5 1095.0 263.5 909.0Q266.5 723.0 266.5 535.0H64.5ZM1311.5 1056.0Q1298.5 1093.0 1241.5 1099.0Q1217.5 1314.0 1165.5 1473.0Q1222.5 1569.0 1311.5 1617.0ZM635.5 873.0H535.5Q521.5 1085.0 479.5 1282.5Q437.5 1480.0 336.5 1656.0L467.5 1660.0Q510.5 1660.0 530.5 1639.0Q573.5 1602.0 598.5 1422.0Q623.5 1242.0 635.5 873.0Z" fill="black"></path></svg>