<?xml version="1.0" standalone="no"?>
<!DOCTYPE svg PUBLIC "-//W3C//DTD SVG 1.1//EN" "http://www.w3.org/Graphics/SVG/1.1/DTD/svg11.dtd" >
<svg xmlns="http://www.w3.org/2000/svg" xmlns:svg="http://www.w3.org/2000/svg" xmlns:xlink="http://www.w3.org/1999/xlink" viewBox="0 0 2048 2048" style=""><path d="M400.0 1461.0 749.0 1488.0Q745.0 1508.0 732.0 1521.5Q719.0 1535.0 681.0 1541.0V1908.0H878.0V1355.0H204.0L187.0 1297.0H1447.0L1578.0 1133.0Q1578.0 1133.0 1618.5 1164.0Q1659.0 1195.0 1715.0 1239.0Q1771.0 1283.0 1816.0 1322.0Q1807.0 1355.0 1758.0 1355.0H1164.0V1586.0H1390.0L1525.0 1414.0Q1525.0 1414.0 1550.0 1433.0Q1575.0 1452.0 1613.5 1482.5Q1652.0 1513.0 1694.0 1547.0Q1736.0 1581.0 1771.0 1611.0Q1762.0 1643.0 1713.0 1643.0H1164.0V1908.0H1584.0L1725.0 1727.0Q1725.0 1727.0 1751.0 1747.0Q1777.0 1767.0 1817.5 1798.5Q1858.0 1830.0 1902.5 1865.5Q1947.0 1901.0 1984.0 1932.0Q1975.0 1965.0 1924.0 1965.0H83.0L67.0 1908.0H400.0ZM128.0 460.0V368.0L364.0 460.0H441.0V341.0H95.0L79.0 284.0H441.0V83.0L757.0 112.0Q754.0 130.0 741.5 143.0Q729.0 156.0 693.0 161.0V284.0H792.0L910.0 136.0Q910.0 136.0 947.0 164.0Q984.0 192.0 1034.0 232.0Q1084.0 272.0 1125.0 308.0Q1116.0 341.0 1070.0 341.0H693.0V460.0H777.0L876.0 359.0L1078.0 509.0Q1072.0 517.0 1057.0 525.5Q1042.0 534.0 1021.0 538.0V740.0Q1021.0 748.0 990.0 764.0Q959.0 780.0 915.5 793.0Q872.0 806.0 835.0 806.0H794.0V769.0H693.0V843.0L706.0 834.0Q837.0 829.0 915.0 854.5Q993.0 880.0 1026.5 921.0Q1060.0 962.0 1058.0 1005.5Q1056.0 1049.0 1027.0 1081.5Q998.0 1114.0 951.0 1122.5Q904.0 1131.0 849.0 1101.0Q829.0 1033.0 783.5 964.0Q738.0 895.0 693.0 851.0V1172.0Q693.0 1183.0 661.0 1199.0Q629.0 1215.0 582.0 1227.5Q535.0 1240.0 488.0 1240.0H441.0V1017.0Q357.0 1080.0 258.0 1132.0Q159.0 1184.0 48.0 1226.0L32.0 1197.0Q152.0 1114.0 244.0 1002.0Q336.0 890.0 394.0 769.0H353.0Q353.0 778.0 323.5 793.5Q294.0 809.0 249.5 821.5Q205.0 834.0 159.0 834.0H128.0ZM419.0 712.0H441.0V517.0H353.0V712.0ZM693.0 712.0H794.0V517.0H693.0ZM1224.0 93.0 1566.0 187.0Q1553.0 229.0 1486.0 232.0Q1464.0 283.0 1438.5 329.0Q1413.0 375.0 1385.0 417.0H1615.0L1746.0 239.0Q1746.0 239.0 1786.5 272.5Q1827.0 306.0 1882.0 353.0Q1937.0 400.0 1981.0 441.0Q1973.0 474.0 1924.0 474.0H1842.0Q1781.0 683.0 1639.0 837.0Q1719.0 872.0 1814.0 897.0Q1909.0 922.0 2016.0 937.0L2014.0 959.0Q1933.0 993.0 1894.5 1057.5Q1856.0 1122.0 1846.0 1224.0Q1725.0 1182.0 1635.0 1121.0Q1545.0 1060.0 1476.0 982.0Q1266.0 1130.0 951.0 1209.0L943.0 1187.0Q1229.0 1050.0 1377.0 843.0Q1342.0 781.0 1314.0 712.5Q1286.0 644.0 1263.0 568.0Q1178.0 656.0 1074.0 716.0L1050.0 699.0Q1113.0 586.0 1160.0 425.0Q1207.0 264.0 1224.0 93.0ZM1451.0 726.0Q1511.0 610.0 1539.0 474.0H1345.0L1291.0 538.0Q1354.0 647.0 1451.0 726.0Z" fill="black"></path></svg>