<?xml version="1.0" standalone="no"?>
<!DOCTYPE svg PUBLIC "-//W3C//DTD SVG 1.1//EN" "http://www.w3.org/Graphics/SVG/1.1/DTD/svg11.dtd" >
<svg xmlns="http://www.w3.org/2000/svg" xmlns:svg="http://www.w3.org/2000/svg" xmlns:xlink="http://www.w3.org/1999/xlink" viewBox="0 0 2048 2048" style=""><path d="M865.0 49.0 1242.0 75.0Q1239.0 97.0 1225.0 112.0Q1211.0 127.0 1168.0 135.0V471.0H1545.0L1703.0 266.0Q1703.0 266.0 1732.0 288.5Q1761.0 311.0 1806.5 346.0Q1852.0 381.0 1901.5 421.0Q1951.0 461.0 1992.0 495.0Q1987.0 512.0 1970.5 520.0Q1954.0 528.0 1932.0 528.0H1002.0Q996.0 619.0 986.5 706.5Q977.0 794.0 964.0 880.0H1363.0L1516.0 733.0L1770.0 950.0Q1744.0 979.0 1680.0 991.0Q1654.0 1393.0 1603.5 1611.0Q1553.0 1829.0 1455.0 1904.0Q1394.0 1952.0 1319.0 1973.0Q1244.0 1994.0 1125.0 1994.0Q1125.0 1928.0 1115.0 1877.0Q1105.0 1826.0 1074.0 1796.0Q1042.0 1760.0 981.0 1733.0Q920.0 1706.0 839.0 1689.0V1667.0Q894.0 1671.0 960.0 1675.0Q1026.0 1679.0 1083.0 1682.0Q1140.0 1685.0 1166.0 1685.0Q1211.0 1685.0 1242.0 1663.0Q1293.0 1623.0 1327.0 1434.5Q1361.0 1246.0 1381.0 938.0H953.0Q908.0 1168.0 810.5 1370.5Q713.0 1573.0 536.0 1733.5Q359.0 1894.0 77.0 1999.0L64.0 1980.0Q250.0 1844.0 368.0 1678.5Q486.0 1513.0 551.5 1326.0Q617.0 1139.0 643.5 937.5Q670.0 736.0 673.0 528.0H73.0L56.0 471.0H865.0Z" fill="black"></path></svg>