<?xml version="1.0" standalone="no"?>
<!DOCTYPE svg PUBLIC "-//W3C//DTD SVG 1.1//EN" "http://www.w3.org/Graphics/SVG/1.1/DTD/svg11.dtd" >
<svg xmlns="http://www.w3.org/2000/svg" xmlns:svg="http://www.w3.org/2000/svg" xmlns:xlink="http://www.w3.org/1999/xlink" viewBox="0 0 2048 2048" style=""><path d="M1243.5 57.0 1630.5 151.0Q1620.5 196.0 1550.5 198.0Q1527.5 284.0 1502.5 364.0Q1477.5 444.0 1448.5 518.0H1618.5L1761.5 327.0Q1761.5 327.0 1788.0 348.5Q1814.5 370.0 1854.5 403.0Q1894.5 436.0 1938.5 473.0Q1982.5 510.0 2017.5 543.0Q2008.5 575.0 1960.5 575.0H1872.5Q1846.5 809.0 1784.0 1019.0Q1721.5 1229.0 1602.5 1407.0Q1774.5 1598.0 2028.5 1714.0L2022.5 1734.0Q1917.5 1758.0 1857.0 1818.0Q1796.5 1878.0 1770.5 1978.0Q1667.5 1903.0 1589.5 1805.5Q1511.5 1708.0 1452.5 1591.0Q1325.5 1719.0 1146.5 1820.0Q967.5 1921.0 727.5 1988.0L715.5 1970.0Q947.5 1847.0 1103.5 1691.0Q1259.5 1535.0 1356.5 1354.0Q1322.5 1246.0 1297.5 1127.5Q1272.5 1009.0 1256.5 880.0Q1149.5 1035.0 1006.5 1157.0L981.5 1143.0Q995.5 1110.0 1010.0 1076.5Q1024.5 1043.0 1036.5 1007.0Q1019.5 1019.0 977.5 1022.0Q926.5 1051.0 868.0 1081.0Q809.5 1111.0 748.5 1138.0L823.5 1145.0Q818.5 1187.0 756.5 1196.0V1263.0L1135.5 1214.0L1139.5 1241.0Q1064.5 1275.0 969.5 1313.5Q874.5 1352.0 756.5 1397.0V1683.0Q756.5 1776.0 733.5 1840.5Q710.5 1905.0 637.5 1943.0Q564.5 1981.0 414.5 1995.0Q409.5 1929.0 399.5 1882.0Q389.5 1835.0 365.5 1804.0Q340.5 1773.0 304.0 1751.5Q267.5 1730.0 189.5 1716.0V1689.0Q189.5 1689.0 222.0 1691.0Q254.5 1693.0 300.5 1695.5Q346.5 1698.0 387.0 1700.0Q427.5 1702.0 443.5 1702.0Q479.5 1702.0 479.5 1671.0V1499.0L232.5 1585.0Q213.5 1626.0 172.5 1636.0L57.5 1343.0Q124.5 1339.0 234.0 1327.0Q343.5 1315.0 479.5 1298.0V1116.0L612.5 1126.0Q634.5 1092.0 655.0 1055.5Q675.5 1019.0 692.5 987.0H514.5Q410.5 1073.0 291.0 1150.0Q171.5 1227.0 37.5 1288.0L19.5 1268.0Q103.5 1206.0 182.0 1135.0Q260.5 1064.0 332.5 987.0H152.5L133.5 930.0H383.5Q428.5 879.0 470.0 825.5Q511.5 772.0 551.5 719.0H53.5L37.5 661.0H342.5V393.0H129.5L113.5 336.0H342.5V53.0L694.5 80.0Q691.5 103.0 677.0 117.0Q662.5 131.0 619.5 139.0V319.0L711.5 192.0L811.5 278.0Q837.5 225.0 859.5 173.0Q881.5 121.0 899.5 71.0L1208.5 223.0Q1199.5 240.0 1181.5 248.0Q1163.5 256.0 1124.5 250.0Q1069.5 350.0 999.0 454.0Q928.5 558.0 842.5 661.0H903.5L1006.5 522.0Q1006.5 522.0 1028.5 540.5Q1050.5 559.0 1083.5 587.5Q1116.5 616.0 1149.5 647.0Q1183.5 506.0 1208.5 356.0Q1233.5 206.0 1243.5 57.0ZM582.5 930.0H699.5L828.5 799.0L1045.5 985.0Q1092.5 858.0 1129.5 719.0H793.5Q697.5 827.0 582.5 930.0ZM619.5 618.0Q656.5 563.0 690.0 506.5Q723.5 450.0 754.5 393.0H619.5ZM1438.5 1171.0Q1489.5 1033.0 1516.5 883.5Q1543.5 734.0 1553.5 575.0H1424.5Q1396.5 640.0 1365.5 700.0Q1334.5 760.0 1299.5 815.0Q1325.5 913.0 1359.5 1002.0Q1393.5 1091.0 1438.5 1171.0Z" fill="black"></path></svg>