<?xml version="1.0" standalone="no"?>
<!DOCTYPE svg PUBLIC "-//W3C//DTD SVG 1.1//EN" "http://www.w3.org/Graphics/SVG/1.1/DTD/svg11.dtd" >
<svg xmlns="http://www.w3.org/2000/svg" xmlns:svg="http://www.w3.org/2000/svg" xmlns:xlink="http://www.w3.org/1999/xlink" viewBox="0 0 2048 2048" style=""><path d="M765.0 1916.0Q765.0 1925.0 737.5 1944.5Q710.0 1964.0 658.5 1981.0Q607.0 1998.0 536.0 1998.0H484.0V1479.0Q391.0 1526.0 286.0 1563.0Q181.0 1600.0 62.0 1625.0L50.0 1604.0Q207.0 1525.0 332.0 1421.0Q457.0 1317.0 548.0 1205.0H105.0L89.0 1148.0H591.0Q614.0 1114.0 635.0 1080.5Q656.0 1047.0 673.0 1015.0H663.0Q650.0 1029.0 612.5 1046.5Q575.0 1064.0 524.0 1077.0Q473.0 1090.0 421.0 1090.0H382.0V410.0L685.0 525.0H1338.0L1410.0 449.0Q1378.0 459.0 1329.0 465.5Q1280.0 472.0 1222.0 472.0H1175.0V326.0H859.0V429.0Q859.0 444.0 790.5 463.0Q722.0 482.0 626.0 482.0H579.0V326.0H83.0L69.0 269.0H579.0V50.0L931.0 81.0Q929.0 101.0 914.0 114.5Q899.0 128.0 859.0 134.0V269.0H1175.0V50.0L1535.0 81.0Q1533.0 101.0 1518.0 115.0Q1503.0 129.0 1463.0 134.0V269.0H1627.0L1758.0 101.0Q1758.0 101.0 1797.5 132.5Q1837.0 164.0 1890.5 209.0Q1944.0 254.0 1986.0 294.0Q1977.0 326.0 1928.0 326.0H1463.0V398.0L1711.0 582.0Q1703.0 592.0 1688.5 601.5Q1674.0 611.0 1648.0 615.0V998.0Q1648.0 1007.0 1608.5 1026.5Q1569.0 1046.0 1513.0 1062.0Q1457.0 1078.0 1408.0 1078.0H1357.0V1015.0H900.0L1070.0 1053.0Q1062.0 1073.0 1040.0 1084.0Q1018.0 1095.0 966.0 1096.0L923.0 1148.0H1588.0L1719.0 988.0Q1719.0 988.0 1760.5 1018.5Q1802.0 1049.0 1858.5 1091.5Q1915.0 1134.0 1961.0 1172.0Q1952.0 1205.0 1904.0 1205.0H1392.0Q1470.0 1249.0 1573.0 1278.5Q1676.0 1308.0 1786.0 1325.5Q1896.0 1343.0 1998.0 1350.0L1996.0 1373.0Q1924.0 1396.0 1880.0 1461.5Q1836.0 1527.0 1816.0 1625.0Q1751.0 1597.0 1692.5 1566.0Q1634.0 1535.0 1580.0 1498.0V1912.0Q1579.0 1921.0 1540.0 1939.0Q1501.0 1957.0 1447.0 1972.0Q1393.0 1987.0 1347.0 1987.0H1293.0V1875.0H765.0ZM867.0 1205.0Q827.0 1243.0 783.0 1281.0Q739.0 1319.0 691.0 1355.0L794.0 1391.0H1279.0L1371.0 1299.0Q1341.0 1257.0 1312.0 1205.0ZM1357.0 582.0H669.0V742.0H1357.0ZM669.0 957.0H1357.0V800.0H669.0ZM1293.0 1817.0V1662.0H765.0V1817.0ZM1293.0 1604.0V1449.0H765.0V1604.0Z" fill="black"></path></svg>