<?xml version="1.0" standalone="no"?>
<!DOCTYPE svg PUBLIC "-//W3C//DTD SVG 1.1//EN" "http://www.w3.org/Graphics/SVG/1.1/DTD/svg11.dtd" >
<svg xmlns="http://www.w3.org/2000/svg" xmlns:svg="http://www.w3.org/2000/svg" xmlns:xlink="http://www.w3.org/1999/xlink" viewBox="0 0 2048 2048" style=""><path d="M324.5 314.5V787.5H438.5V314.5ZM877.5 1281.5V1172.5L1083.5 1248.5Q1119.5 1217.5 1154.5 1185.5Q1189.5 1153.5 1223.5 1119.5H705.5V1475.5Q703.5 1485.5 667.0 1503.0Q630.5 1520.5 579.0 1535.0Q527.5 1549.5 481.5 1549.5H438.5V1391.5H324.5V1613.5Q324.5 1626.5 267.5 1659.5Q210.5 1692.5 109.5 1692.5H62.5V150.5L350.5 257.5H418.5L539.5 124.5L772.5 306.5V85.5L1036.5 185.5H1620.5L1737.5 54.5L1960.5 220.5Q1951.5 234.5 1935.0 243.5Q1918.5 252.5 1884.5 257.5V574.5Q1884.5 580.5 1836.0 599.5Q1787.5 618.5 1698.5 621.5L1921.5 759.5Q1909.5 777.5 1888.5 782.0Q1867.5 786.5 1829.5 777.5Q1764.5 855.5 1697.5 926.5Q1630.5 997.5 1561.5 1062.5H1653.5L1770.5 908.5Q1770.5 908.5 1807.5 937.5Q1844.5 966.5 1895.0 1008.0Q1945.5 1049.5 1985.5 1086.5Q1976.5 1119.5 1929.5 1119.5H1497.5Q1448.5 1162.5 1397.0 1202.5Q1345.5 1242.5 1292.5 1281.5H1503.5L1626.5 1146.5L1882.5 1340.5Q1873.5 1351.5 1853.5 1364.5Q1833.5 1377.5 1800.5 1383.5V1918.5Q1799.5 1925.5 1761.0 1940.0Q1722.5 1954.5 1669.5 1967.0Q1616.5 1979.5 1571.5 1979.5H1524.5V1854.5H1145.5V1918.5Q1145.5 1932.5 1087.5 1963.0Q1029.5 1993.5 926.5 1993.5H877.5V1531.5Q780.5 1578.5 679.0 1620.5Q577.5 1662.5 471.5 1699.5L457.5 1670.5Q676.5 1556.5 877.5 1410.5ZM324.5 845.5V1334.5H438.5V845.5ZM1049.5 578.5 1360.5 605.5Q1357.5 622.5 1345.5 634.5Q1333.5 646.5 1303.5 652.5V789.5H1317.5L1426.5 640.5L1544.5 742.5L1628.5 615.5V568.5H1018.5V601.5Q1018.5 613.5 964.5 635.0Q910.5 656.5 815.5 656.5H772.5V318.5Q763.5 329.5 746.5 339.0Q729.5 348.5 705.5 353.5V1062.5H1049.5V847.5H793.5L776.5 789.5H1049.5ZM1018.5 511.5H1083.5V242.5H1018.5ZM1628.5 511.5V242.5H1557.5V511.5ZM1284.5 242.5V511.5H1354.5V242.5ZM1210.5 1338.5 1145.5 1381.5V1533.5H1524.5V1338.5ZM1524.5 1590.5H1145.5V1797.5H1524.5ZM1303.5 847.5V1037.5Q1344.5 991.5 1385.5 944.5Q1426.5 897.5 1464.5 847.5Z" fill="black"></path></svg>