<?xml version="1.0" standalone="no"?>
<!DOCTYPE svg PUBLIC "-//W3C//DTD SVG 1.1//EN" "http://www.w3.org/Graphics/SVG/1.1/DTD/svg11.dtd" >
<svg xmlns="http://www.w3.org/2000/svg" xmlns:svg="http://www.w3.org/2000/svg" xmlns:xlink="http://www.w3.org/1999/xlink" viewBox="0 0 2048 2048" style=""><path d="M609.0 596.5H419.0V1108.5H609.0ZM124.0 539.5V416.5L441.0 539.5H609.0V65.5L966.0 98.5Q962.0 121.5 947.5 136.5Q933.0 151.5 890.0 158.5V539.5H1066.0V65.5L1428.0 98.5Q1425.0 121.5 1409.5 136.5Q1394.0 151.5 1353.0 158.5V539.5H1527.0L1660.0 391.5L1924.0 598.5Q1904.0 628.5 1844.0 643.5V1878.5Q1842.0 1888.5 1802.0 1908.0Q1762.0 1927.5 1705.5 1944.0Q1649.0 1960.5 1596.0 1960.5H1547.0V1802.5H419.0V1878.5Q419.0 1895.5 383.0 1920.5Q347.0 1945.5 290.0 1964.0Q233.0 1982.5 171.0 1982.5H124.0ZM890.0 596.5V1108.5H1066.0V596.5ZM609.0 1745.5V1165.5H419.0V1745.5ZM890.0 1745.5H1066.0V1165.5H890.0ZM1353.0 596.5V1108.5H1547.0V596.5ZM1353.0 1745.5H1547.0V1165.5H1353.0Z" fill="black"></path></svg>