<?xml version="1.0" standalone="no"?>
<!DOCTYPE svg PUBLIC "-//W3C//DTD SVG 1.1//EN" "http://www.w3.org/Graphics/SVG/1.1/DTD/svg11.dtd" >
<svg xmlns="http://www.w3.org/2000/svg" xmlns:svg="http://www.w3.org/2000/svg" xmlns:xlink="http://www.w3.org/1999/xlink" viewBox="0 0 2048 2048" style=""><path d="M1370.0 534.5H710.0V751.5H1370.0ZM1370.0 477.5V264.5H710.0V477.5ZM397.0 207.5V82.5L727.0 207.5H1349.0L1485.0 57.5L1765.0 268.5Q1756.0 280.5 1736.5 294.0Q1717.0 307.5 1685.0 313.5V856.5Q1684.0 863.5 1640.0 879.5Q1596.0 895.5 1535.5 908.5Q1475.0 921.5 1425.0 921.5H1370.0V809.5H710.0V866.5Q710.0 880.5 670.0 903.5Q630.0 926.5 568.5 944.5Q507.0 962.5 442.0 962.5H397.0ZM432.0 1157.5 829.0 1225.5Q825.0 1248.5 807.0 1262.5Q789.0 1276.5 749.0 1276.5Q735.0 1333.5 714.5 1390.0Q694.0 1446.5 665.0 1501.5Q711.0 1567.5 769.5 1607.5Q828.0 1647.5 903.0 1669.5V1069.5H84.0L67.0 1012.5H1603.0L1749.0 811.5Q1749.0 811.5 1775.5 833.5Q1802.0 855.5 1843.0 890.0Q1884.0 924.5 1928.5 963.5Q1973.0 1002.5 2009.0 1036.5Q2000.0 1069.5 1949.0 1069.5H1218.0V1349.5H1388.0L1546.0 1134.5Q1546.0 1134.5 1575.0 1158.0Q1604.0 1181.5 1649.0 1218.5Q1694.0 1255.5 1743.5 1297.0Q1793.0 1338.5 1833.0 1374.5Q1824.0 1407.5 1771.0 1407.5H1218.0V1708.5H1302.0Q1361.0 1708.5 1454.0 1708.5Q1547.0 1708.5 1651.5 1708.0Q1756.0 1707.5 1851.5 1706.5Q1947.0 1705.5 2009.0 1704.5V1726.5Q1941.0 1743.5 1909.5 1810.5Q1878.0 1877.5 1878.0 1960.5Q1830.0 1960.5 1752.5 1960.5Q1675.0 1960.5 1588.5 1960.5Q1502.0 1960.5 1424.5 1960.5Q1347.0 1960.5 1298.0 1960.5Q1119.0 1960.5 990.0 1926.0Q861.0 1891.5 774.5 1804.0Q688.0 1716.5 635.0 1556.5Q555.0 1687.5 414.5 1800.0Q274.0 1912.5 51.0 1990.5L39.0 1972.5Q187.0 1858.5 270.5 1718.5Q354.0 1578.5 390.0 1433.0Q426.0 1287.5 432.0 1157.5Z" fill="black"></path></svg>