<?xml version="1.0" standalone="no"?>
<!DOCTYPE svg PUBLIC "-//W3C//DTD SVG 1.1//EN" "http://www.w3.org/Graphics/SVG/1.1/DTD/svg11.dtd" >
<svg xmlns="http://www.w3.org/2000/svg" xmlns:svg="http://www.w3.org/2000/svg" xmlns:xlink="http://www.w3.org/1999/xlink" viewBox="0 0 2048 2048" style=""><path d="M867.5 1163.0Q1022.5 1193.0 1107.0 1246.5Q1191.5 1300.0 1220.5 1361.0Q1249.5 1422.0 1236.0 1476.5Q1222.5 1531.0 1179.5 1564.0Q1136.5 1597.0 1077.5 1595.0Q1018.5 1593.0 957.5 1540.0Q957.5 1442.0 925.5 1344.5Q893.5 1247.0 850.5 1174.0ZM1147.5 59.0 1508.5 88.0Q1506.5 110.0 1492.0 124.5Q1477.5 139.0 1434.5 145.0V381.0H1532.5L1667.5 199.0Q1667.5 199.0 1692.0 219.0Q1716.5 239.0 1754.5 270.5Q1792.5 302.0 1834.0 338.0Q1875.5 374.0 1909.5 406.0Q1900.5 438.0 1852.5 438.0H1434.5V737.0H1575.5L1719.5 543.0Q1719.5 543.0 1745.5 564.5Q1771.5 586.0 1812.0 619.5Q1852.5 653.0 1896.0 691.0Q1939.5 729.0 1975.5 762.0Q1966.5 795.0 1917.5 795.0H764.5L748.5 737.0H1147.5V438.0H807.5L791.5 381.0H1147.5ZM1385.5 821.0 1731.5 850.0Q1728.5 888.0 1671.5 897.0V1038.0L1776.5 889.0Q1776.5 889.0 1813.0 920.5Q1849.5 952.0 1898.5 995.5Q1947.5 1039.0 1985.5 1077.0Q1979.5 1110.0 1929.5 1110.0H1671.5V1673.0Q1671.5 1767.0 1647.0 1832.5Q1622.5 1898.0 1545.5 1936.5Q1468.5 1975.0 1309.5 1989.0Q1304.5 1923.0 1293.0 1875.5Q1281.5 1828.0 1254.5 1796.0Q1226.5 1765.0 1185.0 1743.0Q1143.5 1721.0 1057.5 1706.0V1681.0Q1057.5 1681.0 1094.5 1683.0Q1131.5 1685.0 1182.5 1687.5Q1233.5 1690.0 1279.5 1692.0Q1325.5 1694.0 1344.5 1694.0Q1385.5 1694.0 1385.5 1661.0V1110.0H762.5L746.5 1053.0H1385.5ZM334.5 313.0V846.0H465.5V313.0ZM62.5 256.0V145.0L361.5 256.0H445.5L572.5 115.0L824.5 313.0Q800.5 344.0 742.5 358.0V1591.0Q741.5 1601.0 704.0 1619.5Q666.5 1638.0 613.0 1653.5Q559.5 1669.0 510.5 1669.0H465.5V1524.0H334.5V1688.0Q334.5 1697.0 307.5 1716.5Q280.5 1736.0 230.5 1753.0Q180.5 1770.0 111.5 1770.0H62.5ZM334.5 903.0V1466.0H465.5V903.0Z" fill="black"></path></svg>