<?xml version="1.0" standalone="no"?>
<!DOCTYPE svg PUBLIC "-//W3C//DTD SVG 1.1//EN" "http://www.w3.org/Graphics/SVG/1.1/DTD/svg11.dtd" >
<svg xmlns="http://www.w3.org/2000/svg" xmlns:svg="http://www.w3.org/2000/svg" xmlns:xlink="http://www.w3.org/1999/xlink" viewBox="0 0 2048 2048" style=""><path d="M1165.0 1225.0V1726.0H1542.0V1225.0ZM885.0 1167.0V1055.0L1194.0 1167.0H1522.0L1649.0 1028.0L1911.0 1227.0Q1900.0 1239.0 1880.5 1251.5Q1861.0 1264.0 1829.0 1270.0V1905.0Q1828.0 1912.0 1788.0 1927.0Q1748.0 1942.0 1692.5 1955.0Q1637.0 1968.0 1591.0 1968.0H1542.0V1784.0H1165.0V1907.0Q1165.0 1921.0 1105.0 1954.0Q1045.0 1987.0 936.0 1987.0H885.0ZM90.0 258.0V147.0L389.0 258.0H479.0L606.0 117.0L858.0 315.0Q834.0 346.0 776.0 360.0V1032.0Q902.0 907.0 959.0 777.0Q1016.0 647.0 1032.0 514.5Q1048.0 382.0 1051.0 250.0H823.0L805.0 193.0H1581.0L1720.0 61.0L1958.0 258.0Q1933.0 285.0 1876.0 297.0Q1867.0 506.0 1850.0 638.0Q1833.0 770.0 1802.0 845.0Q1771.0 920.0 1720.0 956.0Q1671.0 992.0 1608.0 1010.0Q1545.0 1028.0 1454.0 1026.0Q1456.0 968.0 1448.5 920.5Q1441.0 873.0 1419.0 846.0Q1373.0 787.0 1257.0 760.0V737.0Q1290.0 739.0 1332.0 741.5Q1374.0 744.0 1411.0 746.0Q1448.0 748.0 1466.0 748.0Q1507.0 748.0 1526.0 731.0Q1555.0 707.0 1572.5 590.0Q1590.0 473.0 1599.0 250.0H1356.0Q1347.0 369.0 1319.5 484.0Q1292.0 599.0 1230.5 705.5Q1169.0 812.0 1059.5 906.0Q950.0 1000.0 776.0 1077.0V1593.0Q775.0 1603.0 738.0 1621.5Q701.0 1640.0 647.5 1655.5Q594.0 1671.0 545.0 1671.0H500.0V1526.0H362.0V1690.0Q362.0 1699.0 335.5 1718.5Q309.0 1738.0 259.0 1755.0Q209.0 1772.0 139.0 1772.0H90.0ZM362.0 315.0V848.0H500.0V315.0ZM362.0 905.0V1468.0H500.0V905.0Z" fill="black"></path></svg>