<?xml version="1.0" standalone="no"?>
<!DOCTYPE svg PUBLIC "-//W3C//DTD SVG 1.1//EN" "http://www.w3.org/Graphics/SVG/1.1/DTD/svg11.dtd" >
<svg xmlns="http://www.w3.org/2000/svg" xmlns:svg="http://www.w3.org/2000/svg" xmlns:xlink="http://www.w3.org/1999/xlink" viewBox="0 0 2048 2048" style=""><path d="M1394.5 585.0H679.5V823.0H1394.5ZM1394.5 528.0V299.0H679.5V528.0ZM896.5 925.0 1285.5 956.0Q1284.5 979.0 1270.0 994.0Q1255.5 1009.0 1212.5 1016.0V1233.0H1453.5L1597.5 1036.0Q1597.5 1036.0 1623.5 1057.5Q1649.5 1079.0 1690.0 1113.5Q1730.5 1148.0 1774.0 1186.0Q1817.5 1224.0 1853.5 1257.0Q1844.5 1290.0 1793.5 1290.0H1212.5V1544.0H1459.5L1599.5 1351.0Q1599.5 1351.0 1625.0 1372.5Q1650.5 1394.0 1690.5 1427.0Q1730.5 1460.0 1773.5 1497.5Q1816.5 1535.0 1851.5 1569.0Q1842.5 1601.0 1791.5 1601.0H1212.5V1898.0H1580.5L1726.5 1698.0Q1726.5 1698.0 1753.0 1720.0Q1779.5 1742.0 1820.0 1776.5Q1860.5 1811.0 1904.5 1850.0Q1948.5 1889.0 1984.5 1923.0Q1975.5 1956.0 1926.5 1956.0H79.5L63.5 1898.0H896.5V1601.0H380.5L364.5 1544.0H896.5V1290.0H595.5Q495.5 1410.0 377.0 1494.5Q258.5 1579.0 124.5 1636.0L104.5 1620.0Q203.5 1511.0 294.5 1347.5Q385.5 1184.0 444.5 995.0L411.5 997.0H366.5V116.0L695.5 241.0H1373.5L1509.5 92.0L1789.5 303.0Q1780.5 315.0 1761.0 328.5Q1741.5 342.0 1709.5 348.0V899.0Q1708.5 907.0 1664.5 923.0Q1620.5 939.0 1560.0 952.5Q1499.5 966.0 1449.5 966.0H1394.5V880.0H679.5V901.0Q679.5 912.0 654.5 928.5Q629.5 945.0 589.5 962.0L820.5 1052.0Q804.5 1095.0 734.5 1089.0Q713.5 1128.0 689.5 1163.5Q665.5 1199.0 640.5 1233.0H896.5Z" fill="black"></path></svg>