<?xml version="1.0" standalone="no"?>
<!DOCTYPE svg PUBLIC "-//W3C//DTD SVG 1.1//EN" "http://www.w3.org/Graphics/SVG/1.1/DTD/svg11.dtd" >
<svg xmlns="http://www.w3.org/2000/svg" xmlns:svg="http://www.w3.org/2000/svg" xmlns:xlink="http://www.w3.org/1999/xlink" viewBox="0 0 2048 2048" style=""><path d="M969.5 253.0V650.0H1075.5V253.0ZM1372.5 196.0H1561.5L1682.5 60.0L1940.5 255.0Q1930.5 266.0 1910.5 279.0Q1890.5 292.0 1858.5 298.0V765.0Q1857.5 772.0 1818.5 786.5Q1779.5 801.0 1726.0 812.5Q1672.5 824.0 1628.5 824.0H1581.5V728.0H1374.5L1356.5 671.0H1581.5V253.0H1409.5Q1388.5 278.0 1338.5 290.0V740.0Q1337.5 748.0 1300.5 762.0Q1263.5 776.0 1213.0 788.0Q1162.5 800.0 1121.5 800.0H1075.5V708.0H969.5V1029.0H1012.5L1121.5 880.0Q1121.5 880.0 1166.5 918.0Q1211.5 956.0 1262.5 1003.0L1256.5 986.0H1579.5L1710.5 851.0L1944.5 1048.0Q1935.5 1065.0 1918.0 1071.5Q1900.5 1078.0 1868.5 1082.0Q1840.5 1216.0 1794.0 1338.0Q1747.5 1460.0 1671.5 1566.0Q1741.5 1618.0 1819.5 1657.5Q1897.5 1697.0 1983.5 1730.0L1981.5 1752.0Q1898.5 1769.0 1838.5 1830.0Q1778.5 1891.0 1747.5 1988.0Q1675.5 1932.0 1617.0 1872.5Q1558.5 1813.0 1514.5 1742.0Q1426.5 1817.0 1312.0 1878.0Q1197.5 1939.0 1051.5 1984.0L1039.5 1959.0Q1174.5 1885.0 1271.0 1789.0Q1367.5 1693.0 1432.5 1578.0Q1392.5 1475.0 1367.0 1343.5Q1341.5 1212.0 1325.5 1044.0H1305.5L1315.5 1054.0Q1309.5 1087.0 1262.5 1087.0H969.5V1427.0H1022.5L1141.5 1263.0Q1141.5 1263.0 1178.5 1294.0Q1215.5 1325.0 1265.5 1369.0Q1315.5 1413.0 1354.5 1451.0Q1345.5 1484.0 1299.5 1484.0H969.5V1900.0Q969.5 1915.0 912.5 1949.5Q855.5 1984.0 754.5 1984.0H707.5V89.0L996.5 196.0H1055.5L1172.5 73.0L1383.5 230.0ZM1596.5 1044.0H1358.5Q1383.5 1156.0 1422.5 1244.5Q1461.5 1333.0 1512.5 1404.0Q1542.5 1319.0 1563.0 1229.0Q1583.5 1139.0 1596.5 1044.0ZM293.5 310.0V847.0H385.5V310.0ZM64.5 253.0V155.0L322.5 253.0H365.5L475.5 128.0L703.5 306.0Q679.5 337.0 619.5 349.0V1613.0Q617.5 1622.0 585.5 1638.5Q553.5 1655.0 508.5 1669.0Q463.5 1683.0 422.5 1683.0H385.5V1523.0H293.5V1703.0Q293.5 1717.0 244.0 1747.0Q194.5 1777.0 105.5 1777.0H64.5ZM293.5 904.0V1465.0H385.5V904.0Z" fill="black"></path></svg>