<?xml version="1.0" standalone="no"?>
<!DOCTYPE svg PUBLIC "-//W3C//DTD SVG 1.1//EN" "http://www.w3.org/Graphics/SVG/1.1/DTD/svg11.dtd" >
<svg xmlns="http://www.w3.org/2000/svg" xmlns:svg="http://www.w3.org/2000/svg" xmlns:xlink="http://www.w3.org/1999/xlink" viewBox="0 0 2048 2048" style=""><path d="M611.0 656.0Q743.0 692.0 800.5 745.5Q858.0 799.0 860.5 851.0Q863.0 903.0 829.5 938.5Q796.0 974.0 744.5 976.0Q693.0 978.0 644.0 928.0Q650.0 861.0 633.5 789.0Q617.0 717.0 591.0 666.0ZM898.0 1043.0V601.0H566.0V1043.0ZM1250.0 650.0 1476.0 746.0V601.0H1144.0V1043.0H1476.0V789.0Q1463.0 792.0 1441.0 789.0Q1414.0 814.0 1371.5 847.5Q1329.0 881.0 1284.5 915.5Q1240.0 950.0 1207.0 978.0L1187.0 959.0Q1198.0 915.0 1210.5 856.5Q1223.0 798.0 1233.5 742.5Q1244.0 687.0 1250.0 650.0ZM785.0 164.0H1218.0L1291.0 40.0L1496.0 171.0Q1481.0 189.0 1440.0 201.5Q1399.0 214.0 1349.0 220.0V222.0H1320.0Q1378.0 280.0 1485.5 327.0Q1593.0 374.0 1731.5 405.0Q1870.0 436.0 2020.0 445.0L2022.0 470.0Q1943.0 500.0 1882.5 574.5Q1822.0 649.0 1805.0 732.0L1748.0 705.0V1127.0Q1747.0 1135.0 1711.0 1150.0Q1675.0 1165.0 1625.0 1177.0Q1575.0 1189.0 1531.0 1191.0L1713.0 1328.0Q1704.0 1340.0 1685.0 1353.5Q1666.0 1367.0 1633.0 1373.0V1936.0Q1632.0 1944.0 1591.0 1960.0Q1550.0 1976.0 1493.0 1989.0Q1436.0 2002.0 1387.0 2002.0H1336.0V1862.0H706.0V1918.0Q706.0 1931.0 668.5 1952.5Q631.0 1974.0 573.5 1991.0Q516.0 2008.0 456.0 2008.0H415.0V1211.0Q399.0 1213.0 383.5 1214.0Q368.0 1215.0 349.0 1215.0H300.0V676.0Q239.0 703.0 174.0 724.0Q109.0 745.0 40.0 760.0L26.0 740.0Q145.0 665.0 248.5 563.5Q352.0 462.0 430.5 352.5Q509.0 243.0 554.0 144.0L869.0 318.0Q862.0 333.0 844.5 341.0Q827.0 349.0 792.0 343.0Q745.0 392.0 688.5 440.5Q632.0 489.0 566.0 533.0L595.0 543.0H1457.0L1480.0 519.0Q1411.0 454.0 1357.0 379.5Q1303.0 305.0 1271.0 222.0H804.0ZM1336.0 1805.0V1588.0H706.0V1805.0ZM1336.0 1530.0V1326.0H706.0V1530.0ZM1476.0 1100.0H566.0V1137.0Q566.0 1159.0 503.0 1184.0L722.0 1268.0H1316.0L1445.0 1125.0L1476.0 1147.0Z" fill="black"></path></svg>