<?xml version="1.0" standalone="no"?>
<!DOCTYPE svg PUBLIC "-//W3C//DTD SVG 1.1//EN" "http://www.w3.org/Graphics/SVG/1.1/DTD/svg11.dtd" >
<svg xmlns="http://www.w3.org/2000/svg" xmlns:svg="http://www.w3.org/2000/svg" xmlns:xlink="http://www.w3.org/1999/xlink" viewBox="0 0 2048 2048" style=""><path d="M1383.5 530.0H635.5V760.0H1383.5ZM1383.5 473.0V254.0H635.5V473.0ZM344.5 196.0V80.0L651.5 196.0H1362.5L1491.5 53.0L1759.5 256.0Q1750.5 268.0 1731.5 281.5Q1712.5 295.0 1680.5 301.0V848.0Q1679.5 855.0 1637.5 870.0Q1595.5 885.0 1538.5 898.0Q1481.5 911.0 1434.5 911.0H1383.5V817.0H635.5V895.0Q635.5 908.0 598.0 929.5Q560.5 951.0 503.5 968.0Q446.5 985.0 385.5 985.0H344.5ZM883.5 844.0 1176.5 1100.0Q1136.5 1136.0 1032.5 1104.0Q996.5 1114.0 955.0 1123.5Q913.5 1133.0 869.5 1143.0V1360.0V1372.0H1196.5V917.0L1575.5 950.0Q1572.5 972.0 1557.5 986.5Q1542.5 1001.0 1499.5 1007.0V1372.0H1585.5L1729.5 1171.0Q1729.5 1171.0 1756.0 1193.0Q1782.5 1215.0 1823.5 1250.0Q1864.5 1285.0 1909.0 1324.0Q1953.5 1363.0 1989.5 1396.0Q1980.5 1429.0 1929.5 1429.0H1499.5V1921.0Q1499.5 1932.0 1461.5 1949.5Q1423.5 1967.0 1366.0 1981.0Q1308.5 1995.0 1249.5 1995.0H1196.5V1429.0H866.5Q860.5 1508.0 826.5 1589.0Q792.5 1670.0 711.5 1745.5Q630.5 1821.0 484.0 1885.0Q337.5 1949.0 105.5 1992.0L96.5 1976.0Q281.5 1900.0 381.5 1811.0Q481.5 1722.0 522.0 1625.5Q562.5 1529.0 570.5 1429.0H74.5L58.5 1372.0H572.5V1360.0V1192.0Q459.5 1206.0 343.5 1214.5Q227.5 1223.0 115.5 1224.0L111.5 1202.0Q251.5 1161.0 399.0 1100.0Q546.5 1039.0 674.5 971.5Q802.5 904.0 883.5 844.0Z" fill="black"></path></svg>