<?xml version="1.0" standalone="no"?>
<!DOCTYPE svg PUBLIC "-//W3C//DTD SVG 1.1//EN" "http://www.w3.org/Graphics/SVG/1.1/DTD/svg11.dtd" >
<svg xmlns="http://www.w3.org/2000/svg" xmlns:svg="http://www.w3.org/2000/svg" xmlns:xlink="http://www.w3.org/1999/xlink" viewBox="0 0 2048 2048" style=""><path d="M752.0 47.0 1167.0 112.0Q1163.0 137.0 1144.5 151.5Q1126.0 166.0 1088.0 166.0L1061.0 307.0H1497.0L1647.0 121.0Q1647.0 121.0 1673.5 141.0Q1700.0 161.0 1742.0 193.5Q1784.0 226.0 1829.5 262.5Q1875.0 299.0 1913.0 332.0Q1910.0 348.0 1893.5 356.0Q1877.0 364.0 1856.0 364.0H1049.0Q1036.0 418.0 1021.0 471.5Q1006.0 525.0 989.0 577.0H1450.0L1587.0 405.0Q1587.0 405.0 1612.5 424.0Q1638.0 443.0 1677.0 473.5Q1716.0 504.0 1759.0 538.0Q1802.0 572.0 1837.0 602.0Q1828.0 635.0 1780.0 635.0H1184.0Q1257.0 759.0 1368.0 858.0H1548.0L1702.0 665.0Q1702.0 665.0 1730.5 686.5Q1759.0 708.0 1803.0 741.0Q1847.0 774.0 1895.0 811.5Q1943.0 849.0 1983.0 882.0Q1979.0 899.0 1962.5 907.0Q1946.0 915.0 1923.0 915.0H1440.0Q1569.0 1012.0 1719.5 1076.0Q1870.0 1140.0 2019.0 1175.0L2015.0 1208.0Q1800.0 1313.0 1778.0 1505.0Q1655.0 1434.0 1550.0 1333.0V1904.0Q1549.0 1914.0 1506.0 1933.0Q1463.0 1952.0 1402.5 1968.0Q1342.0 1984.0 1288.0 1984.0H1231.0V1845.0H791.0V1915.0Q791.0 1925.0 761.0 1945.5Q731.0 1966.0 675.5 1983.5Q620.0 2001.0 541.0 2001.0H483.0V1315.0Q393.0 1385.0 283.5 1446.5Q174.0 1508.0 45.0 1558.0L29.0 1540.0Q212.0 1406.0 337.5 1246.5Q463.0 1087.0 545.0 915.0H86.0L70.0 858.0H571.0Q596.0 803.0 616.5 747.0Q637.0 691.0 653.0 635.0H246.0L229.0 577.0H668.0Q683.0 524.0 694.5 470.5Q706.0 417.0 715.0 364.0H189.0L172.0 307.0H725.0Q734.0 241.0 740.5 175.5Q747.0 110.0 752.0 47.0ZM969.0 635.0Q947.0 691.0 922.5 747.5Q898.0 804.0 868.0 858.0H1221.0Q1196.0 804.0 1174.5 748.5Q1153.0 693.0 1133.0 635.0ZM838.0 915.0Q810.0 961.0 779.0 1005.5Q748.0 1050.0 713.0 1091.0L819.0 1130.0H1215.0L1311.0 1030.0Q1294.0 1002.0 1278.5 973.0Q1263.0 944.0 1247.0 915.0ZM1231.0 1509.0H791.0V1788.0H1231.0ZM1231.0 1452.0V1188.0H791.0V1452.0Z" fill="black"></path></svg>