<?xml version="1.0" standalone="no"?>
<!DOCTYPE svg PUBLIC "-//W3C//DTD SVG 1.1//EN" "http://www.w3.org/Graphics/SVG/1.1/DTD/svg11.dtd" >
<svg xmlns="http://www.w3.org/2000/svg" xmlns:svg="http://www.w3.org/2000/svg" xmlns:xlink="http://www.w3.org/1999/xlink" viewBox="0 0 2048 2048" style=""><path d="M793.0 362.0Q917.0 392.0 985.5 438.5Q1054.0 485.0 1078.0 536.0Q1102.0 587.0 1092.0 631.0Q1082.0 675.0 1049.0 702.5Q1016.0 730.0 970.5 729.0Q925.0 728.0 877.0 688.0Q874.0 606.0 843.0 520.0Q812.0 434.0 775.0 372.0ZM1099.0 337.0Q1218.0 373.0 1281.0 422.0Q1344.0 471.0 1363.0 521.5Q1382.0 572.0 1368.0 614.5Q1354.0 657.0 1318.5 681.0Q1283.0 705.0 1236.5 700.5Q1190.0 696.0 1146.0 653.0Q1147.0 573.0 1125.5 491.0Q1104.0 409.0 1078.0 346.0ZM433.0 1423.0V901.0H322.0V1423.0ZM73.0 172.0 349.0 286.0H413.0L529.0 155.0L767.0 342.0Q758.0 354.0 737.0 366.0Q716.0 378.0 685.0 385.0V1585.0Q683.0 1593.0 648.5 1610.0Q614.0 1627.0 566.0 1641.5Q518.0 1656.0 474.0 1656.0H433.0V1480.0H322.0V1679.0Q322.0 1693.0 267.5 1725.0Q213.0 1757.0 118.0 1757.0H73.0ZM433.0 843.0V344.0H322.0V843.0ZM1635.0 579.0Q1635.0 579.0 1675.5 610.5Q1716.0 642.0 1772.0 686.5Q1828.0 731.0 1873.0 770.0Q1864.0 802.0 1815.0 802.0H1244.0Q1239.0 853.0 1232.0 902.0Q1225.0 951.0 1215.0 999.0H1594.0L1727.0 821.0Q1727.0 821.0 1751.5 840.5Q1776.0 860.0 1814.0 891.5Q1852.0 923.0 1893.0 958.0Q1934.0 993.0 1967.0 1024.0Q1958.0 1056.0 1910.0 1056.0H1205.0Q1196.0 1098.0 1185.0 1138.0Q1174.0 1178.0 1160.0 1218.0H1457.0L1600.0 1083.0L1834.0 1286.0Q1817.0 1313.0 1752.0 1318.0Q1709.0 1403.0 1654.5 1478.0Q1600.0 1553.0 1531.0 1620.0Q1632.0 1659.0 1744.5 1684.0Q1857.0 1709.0 1975.0 1724.0V1749.0Q1897.0 1770.0 1846.5 1831.0Q1796.0 1892.0 1774.0 1986.0Q1650.0 1943.0 1544.5 1888.5Q1439.0 1834.0 1355.0 1759.0Q1085.0 1936.0 681.0 2003.0L671.0 1976.0Q846.0 1916.0 988.0 1828.0Q1130.0 1740.0 1238.0 1630.0Q1154.0 1517.0 1103.0 1368.0Q1012.0 1560.0 854.5 1712.5Q697.0 1865.0 443.0 1968.0L431.0 1947.0Q671.0 1772.0 786.0 1544.5Q901.0 1317.0 941.0 1056.0H716.0L699.0 999.0H949.0Q954.0 951.0 958.0 902.0Q962.0 853.0 963.0 802.0H769.0L753.0 745.0H1381.0Q1401.0 661.0 1428.0 542.5Q1455.0 424.0 1480.0 313.0Q1314.0 324.0 1126.5 326.5Q939.0 329.0 767.0 323.0L763.0 294.0Q871.0 275.0 989.5 245.5Q1108.0 216.0 1223.5 182.0Q1339.0 148.0 1438.5 112.5Q1538.0 77.0 1609.0 45.0L1852.0 299.0Q1832.0 312.0 1796.0 312.0Q1760.0 312.0 1711.0 290.0L1539.0 307.0L1795.0 395.0Q1787.0 413.0 1767.0 425.0Q1747.0 437.0 1713.0 436.0Q1649.0 516.0 1577.5 597.5Q1506.0 679.0 1439.0 745.0H1504.0ZM1140.0 1275.0 1129.0 1304.0Q1168.0 1369.0 1219.5 1421.5Q1271.0 1474.0 1332.0 1517.0Q1413.0 1402.0 1461.0 1275.0Z" fill="black"></path></svg>