<?xml version="1.0" standalone="no"?>
<!DOCTYPE svg PUBLIC "-//W3C//DTD SVG 1.1//EN" "http://www.w3.org/Graphics/SVG/1.1/DTD/svg11.dtd" >
<svg xmlns="http://www.w3.org/2000/svg" xmlns:svg="http://www.w3.org/2000/svg" xmlns:xlink="http://www.w3.org/1999/xlink" viewBox="0 0 2048 2048" style=""><path d="M865.0 1158.0V929.0H638.0V1158.0ZM1170.0 1158.0H1398.0V929.0H1170.0ZM335.0 584.0V464.0L656.0 584.0H865.0V400.0H116.0L99.0 343.0H865.0V52.0L1246.0 89.0Q1243.0 110.0 1228.0 126.0Q1213.0 142.0 1170.0 148.0V343.0H1502.0L1664.0 130.0Q1664.0 130.0 1693.5 153.0Q1723.0 176.0 1768.5 212.5Q1814.0 249.0 1864.0 290.0Q1914.0 331.0 1955.0 367.0Q1946.0 400.0 1895.0 400.0H1170.0V584.0H1377.0L1512.0 437.0L1789.0 646.0Q1780.0 658.0 1761.0 670.5Q1742.0 683.0 1711.0 689.0V1225.0Q1710.0 1235.0 1668.0 1255.0Q1626.0 1275.0 1566.0 1292.0Q1506.0 1309.0 1453.0 1309.0H1398.0V1215.0H1207.0Q1295.0 1322.0 1424.5 1404.5Q1554.0 1487.0 1702.5 1543.5Q1851.0 1600.0 1998.0 1629.0L1994.0 1651.0Q1909.0 1674.0 1847.5 1745.5Q1786.0 1817.0 1760.0 1926.0Q1541.0 1821.0 1399.5 1651.0Q1258.0 1481.0 1170.0 1240.0V1912.0Q1170.0 1924.0 1133.5 1944.0Q1097.0 1964.0 1041.0 1980.0Q985.0 1996.0 927.0 1996.0H865.0V1527.0Q710.0 1660.0 507.0 1763.0Q304.0 1866.0 62.0 1938.0L50.0 1916.0Q204.0 1831.0 335.5 1716.0Q467.0 1601.0 570.0 1472.0Q673.0 1343.0 740.0 1215.0H638.0V1254.0Q638.0 1268.0 599.0 1290.5Q560.0 1313.0 500.0 1330.5Q440.0 1348.0 378.0 1348.0H335.0ZM865.0 871.0V642.0H638.0V871.0ZM1170.0 871.0H1398.0V642.0H1170.0Z" fill="black"></path></svg>