<?xml version="1.0" standalone="no"?>
<!DOCTYPE svg PUBLIC "-//W3C//DTD SVG 1.1//EN" "http://www.w3.org/Graphics/SVG/1.1/DTD/svg11.dtd" >
<svg xmlns="http://www.w3.org/2000/svg" xmlns:svg="http://www.w3.org/2000/svg" xmlns:xlink="http://www.w3.org/1999/xlink" viewBox="0 0 2048 2048" style=""><path d="M1584.0 336.0V1362.0L1639.0 1366.0Q1658.0 1366.0 1663.0 1357.0Q1668.0 1348.0 1668.0 1333.0V336.0ZM1093.0 76.0 1353.0 244.0V190.0L1584.0 278.0H1648.0L1762.0 147.0L2008.0 336.0Q1997.0 348.0 1976.5 359.5Q1956.0 371.0 1924.0 379.0V1362.0Q1924.0 1451.0 1906.5 1513.0Q1889.0 1575.0 1831.5 1610.5Q1774.0 1646.0 1654.0 1657.0Q1654.0 1594.0 1650.5 1545.0Q1647.0 1496.0 1637.0 1468.0Q1630.0 1445.0 1618.0 1428.0Q1606.0 1411.0 1584.0 1401.0V1921.0Q1584.0 1935.0 1533.5 1965.0Q1483.0 1995.0 1394.0 1995.0H1353.0V477.0Q1340.0 503.0 1289.0 512.0V1175.0Q1287.0 1360.0 1231.5 1515.5Q1176.0 1671.0 1039.0 1791.5Q902.0 1912.0 656.0 1990.0L642.0 1970.0Q833.0 1853.0 923.0 1703.0Q1013.0 1553.0 1037.0 1370.0Q985.0 1424.0 915.5 1488.0Q846.0 1552.0 759.0 1626.0Q745.0 1674.0 704.0 1683.0L572.0 1382.0Q602.0 1379.0 639.5 1373.0Q677.0 1367.0 722.0 1360.0V1085.0Q691.0 1113.0 648.5 1111.5Q606.0 1110.0 564.0 1067.0Q572.0 999.0 559.5 926.5Q547.0 854.0 525.0 794.0V1902.0Q525.0 1916.0 493.5 1937.5Q462.0 1959.0 414.5 1976.0Q367.0 1993.0 318.0 1993.0H269.0V1247.0Q182.0 1385.0 67.0 1507.0L40.0 1485.0Q96.0 1367.0 136.0 1225.0Q176.0 1083.0 202.0 930.5Q228.0 778.0 245.0 629.0H56.0L40.0 571.0H269.0V53.0L601.0 86.0Q598.0 107.0 582.5 122.0Q567.0 137.0 525.0 143.0V538.0L607.0 403.0L722.0 520.0V239.0L914.0 303.0Q967.0 245.0 1014.5 182.5Q1062.0 120.0 1093.0 76.0ZM1050.0 426.0 1353.0 457.0V278.0L1324.0 274.0Q1269.0 296.0 1186.5 322.0Q1104.0 348.0 1017.0 373.0Q1009.0 377.0 999.5 379.5Q990.0 382.0 978.0 385.0H974.0V1304.0L1046.0 1286.0L1050.0 1173.0ZM722.0 629.0H525.0V729.0Q599.0 760.0 646.5 795.5Q694.0 831.0 722.0 868.0Z" fill="black"></path></svg>