<?xml version="1.0" standalone="no"?>
<!DOCTYPE svg PUBLIC "-//W3C//DTD SVG 1.1//EN" "http://www.w3.org/Graphics/SVG/1.1/DTD/svg11.dtd" >
<svg xmlns="http://www.w3.org/2000/svg" xmlns:svg="http://www.w3.org/2000/svg" xmlns:xlink="http://www.w3.org/1999/xlink" viewBox="0 0 2048 2048" style=""><path d="M861.0 52.0 1240.0 89.0Q1237.0 110.0 1222.0 125.0Q1207.0 140.0 1164.0 146.0V449.0H1392.0L1547.0 255.0Q1547.0 255.0 1575.5 276.0Q1604.0 297.0 1648.5 330.5Q1693.0 364.0 1741.5 402.0Q1790.0 440.0 1830.0 474.0Q1825.0 491.0 1808.5 499.0Q1792.0 507.0 1771.0 507.0H1164.0V883.0H1525.0L1687.0 681.0Q1687.0 681.0 1716.5 703.0Q1746.0 725.0 1792.0 760.0Q1838.0 795.0 1888.5 834.5Q1939.0 874.0 1981.0 908.0Q1973.0 941.0 1920.0 941.0H1203.0Q1285.0 1086.0 1413.5 1200.0Q1542.0 1314.0 1695.5 1392.5Q1849.0 1471.0 2008.0 1512.0L2004.0 1537.0Q1918.0 1558.0 1854.0 1629.0Q1790.0 1700.0 1762.0 1809.0Q1527.0 1680.0 1385.5 1468.0Q1244.0 1256.0 1164.0 941.0V1893.0Q1164.0 1907.0 1126.5 1931.5Q1089.0 1956.0 1032.5 1976.0Q976.0 1996.0 919.0 1996.0H861.0V1279.0Q567.0 1641.0 56.0 1848.0L40.0 1828.0Q195.0 1718.0 323.5 1572.5Q452.0 1427.0 549.5 1264.5Q647.0 1102.0 708.0 941.0H81.0L65.0 883.0H861.0V507.0H255.0L239.0 449.0H861.0Z" fill="black"></path></svg>