<?xml version="1.0" standalone="no"?>
<!DOCTYPE svg PUBLIC "-//W3C//DTD SVG 1.1//EN" "http://www.w3.org/Graphics/SVG/1.1/DTD/svg11.dtd" >
<svg xmlns="http://www.w3.org/2000/svg" xmlns:svg="http://www.w3.org/2000/svg" xmlns:xlink="http://www.w3.org/1999/xlink" viewBox="0 0 2048 2048" style=""><path d="M413.0 1004.5H1287.0L1424.0 869.5L1660.0 1090.5Q1638.0 1112.5 1578.0 1115.5Q1512.0 1147.5 1416.0 1179.0Q1320.0 1210.5 1230.0 1232.5Q1222.0 1263.5 1166.0 1273.5V1391.5H1607.0L1748.0 1205.5Q1748.0 1205.5 1774.0 1226.0Q1800.0 1246.5 1840.5 1278.5Q1881.0 1310.5 1925.5 1347.5Q1970.0 1384.5 2006.0 1416.5Q1997.0 1449.5 1947.0 1449.5H1166.0V1680.5Q1166.0 1775.5 1142.0 1841.5Q1118.0 1907.5 1041.0 1945.5Q964.0 1983.5 806.0 1995.5Q801.0 1929.5 791.0 1882.5Q781.0 1835.5 755.0 1803.5Q730.0 1774.5 693.0 1752.0Q656.0 1729.5 574.0 1715.5V1688.5Q574.0 1688.5 608.0 1691.0Q642.0 1693.5 689.0 1696.0Q736.0 1698.5 777.5 1701.0Q819.0 1703.5 835.0 1703.5Q869.0 1703.5 869.0 1672.5V1449.5H67.0L50.0 1391.5H869.0V1193.5L1148.0 1215.5Q1180.0 1181.5 1213.5 1141.0Q1247.0 1100.5 1273.0 1062.5H431.0ZM869.0 52.5 1240.0 83.5Q1239.0 104.5 1224.0 119.5Q1209.0 134.5 1166.0 142.5V361.5H1574.0L1717.0 175.5Q1717.0 175.5 1743.5 196.0Q1770.0 216.5 1810.5 248.5Q1851.0 280.5 1896.0 317.0Q1941.0 353.5 1977.0 386.5Q1968.0 419.5 1918.0 419.5H1248.0Q1335.0 502.5 1461.5 562.5Q1588.0 622.5 1729.0 662.0Q1870.0 701.5 2000.0 724.5L1996.0 746.5Q1914.0 769.5 1860.5 838.0Q1807.0 906.5 1783.0 1012.5Q1583.0 913.5 1433.0 770.5Q1283.0 627.5 1195.0 419.5H1166.0V867.5Q1166.0 876.5 1129.0 892.0Q1092.0 907.5 1035.5 920.5Q979.0 933.5 921.0 933.5H869.0V634.5Q716.0 767.5 508.5 868.5Q301.0 969.5 56.0 1037.5L42.0 1014.5Q256.0 905.5 425.0 745.0Q594.0 584.5 697.0 419.5H91.0L75.0 361.5H869.0Z" fill="black"></path></svg>