<?xml version="1.0" standalone="no"?>
<!DOCTYPE svg PUBLIC "-//W3C//DTD SVG 1.1//EN" "http://www.w3.org/Graphics/SVG/1.1/DTD/svg11.dtd" >
<svg xmlns="http://www.w3.org/2000/svg" xmlns:svg="http://www.w3.org/2000/svg" xmlns:xlink="http://www.w3.org/1999/xlink" viewBox="0 0 2048 2048" style=""><path d="M775.5 51.5 1166.5 170.5Q1161.5 186.5 1145.0 199.0Q1128.5 211.5 1088.5 213.5Q1068.5 260.5 1044.5 310.5Q1020.5 360.5 994.5 409.5H1533.5L1696.5 204.5Q1696.5 204.5 1727.0 227.0Q1757.5 249.5 1804.0 284.5Q1850.5 319.5 1901.5 359.0Q1952.5 398.5 1993.5 434.5Q1990.5 451.5 1974.0 459.5Q1957.5 467.5 1934.5 467.5H961.5Q881.5 605.5 777.5 737.5L830.5 757.5H1377.5L1512.5 604.5L1791.5 819.5Q1780.5 834.5 1758.5 848.5Q1736.5 862.5 1701.5 868.5V1667.5Q1701.5 1763.5 1676.5 1832.0Q1651.5 1900.5 1573.0 1941.5Q1494.5 1982.5 1332.5 1996.5Q1326.5 1923.5 1316.0 1870.5Q1305.5 1817.5 1279.5 1783.5Q1253.5 1750.5 1213.5 1725.5Q1173.5 1700.5 1090.5 1685.5V1661.5Q1090.5 1661.5 1125.0 1663.0Q1159.5 1664.5 1207.5 1667.0Q1255.5 1669.5 1298.5 1671.5Q1341.5 1673.5 1359.5 1673.5Q1383.5 1673.5 1391.5 1663.0Q1399.5 1652.5 1399.5 1632.5V1452.5H801.5V1912.5Q801.5 1922.5 773.0 1942.5Q744.5 1962.5 690.5 1979.5Q636.5 1996.5 560.5 1996.5H505.5V1015.5Q411.5 1094.5 303.5 1161.5Q195.5 1228.5 70.5 1282.5L54.5 1263.5Q252.5 1107.5 396.5 896.5Q540.5 685.5 636.5 467.5H109.5L93.5 409.5H660.5Q735.5 218.5 775.5 51.5ZM801.5 1132.5V1394.5H1399.5V1132.5ZM801.5 1075.5H1399.5V815.5H801.5Z" fill="black"></path></svg>