<?xml version="1.0" standalone="no"?>
<!DOCTYPE svg PUBLIC "-//W3C//DTD SVG 1.1//EN" "http://www.w3.org/Graphics/SVG/1.1/DTD/svg11.dtd" >
<svg xmlns="http://www.w3.org/2000/svg" xmlns:svg="http://www.w3.org/2000/svg" xmlns:xlink="http://www.w3.org/1999/xlink" viewBox="0 0 2048 2048" style=""><path d="M1222.5 65.0 1584.5 94.0Q1581.5 116.0 1567.0 130.5Q1552.5 145.0 1511.5 151.0V432.0H1605.5L1746.5 235.0Q1746.5 235.0 1772.5 257.0Q1798.5 279.0 1839.0 313.0Q1879.5 347.0 1922.5 385.0Q1965.5 423.0 2000.5 457.0Q1997.5 473.0 1981.0 481.0Q1964.5 489.0 1943.5 489.0H1511.5V850.0H1535.5L1697.5 692.0L1959.5 928.0Q1948.5 946.0 1930.0 954.0Q1911.5 962.0 1873.5 966.0Q1824.5 1117.0 1751.0 1251.5Q1677.5 1386.0 1576.5 1501.0Q1679.5 1555.0 1792.5 1591.0Q1905.5 1627.0 2027.5 1648.0L2025.5 1679.0Q1923.5 1728.0 1868.0 1810.0Q1812.5 1892.0 1799.5 1995.0Q1546.5 1888.0 1377.5 1685.0Q1235.5 1791.0 1049.0 1869.5Q862.5 1948.0 624.5 1995.0L614.5 1972.0Q819.5 1891.0 980.0 1775.5Q1140.5 1660.0 1257.5 1515.0Q1113.5 1268.0 1040.5 907.0H884.5L865.5 850.0H1222.5V489.0H876.5L964.5 575.0Q955.5 608.0 908.5 608.0H632.5V844.0Q767.5 883.0 839.0 938.5Q910.5 994.0 932.5 1052.5Q954.5 1111.0 939.0 1160.5Q923.5 1210.0 883.0 1238.0Q842.5 1266.0 789.5 1261.0Q736.5 1256.0 685.5 1204.0Q690.5 1126.0 674.5 1045.0Q658.5 964.0 632.5 897.0V1915.0Q632.5 1926.0 598.0 1945.0Q563.5 1964.0 510.5 1979.5Q457.5 1995.0 403.5 1995.0H345.5V1200.0Q281.5 1281.0 205.5 1355.0Q129.5 1429.0 40.5 1495.0L20.5 1472.0Q99.5 1359.0 159.5 1217.0Q219.5 1075.0 261.5 919.5Q303.5 764.0 329.5 608.0H83.5L67.5 551.0H345.5V53.0L708.5 88.0Q705.5 111.0 690.5 126.0Q675.5 141.0 632.5 147.0V543.0L749.5 375.0L853.5 469.0L843.5 432.0H1222.5ZM1552.5 907.0H1083.5Q1133.5 1051.0 1206.5 1162.0Q1279.5 1273.0 1369.5 1356.0Q1432.5 1253.0 1477.5 1140.5Q1522.5 1028.0 1552.5 907.0Z" fill="black"></path></svg>