<?xml version="1.0" standalone="no"?>
<!DOCTYPE svg PUBLIC "-//W3C//DTD SVG 1.1//EN" "http://www.w3.org/Graphics/SVG/1.1/DTD/svg11.dtd" >
<svg xmlns="http://www.w3.org/2000/svg" xmlns:svg="http://www.w3.org/2000/svg" xmlns:xlink="http://www.w3.org/1999/xlink" viewBox="0 0 2048 2048" style=""><path d="M990.0 386.0H1017.0Q1041.0 437.0 1054.0 488.0H1216.0V60.0L1592.0 95.0Q1589.0 118.0 1572.0 132.0Q1555.0 146.0 1517.0 152.0L1511.0 488.0H1648.0L1781.0 355.0L2010.0 574.0Q1998.0 588.0 1981.5 593.0Q1965.0 598.0 1932.0 601.0Q1880.0 653.0 1802.5 721.5Q1725.0 790.0 1660.0 836.0L1644.0 824.0Q1650.0 769.0 1656.5 690.5Q1663.0 612.0 1666.0 546.0H1508.0Q1502.0 704.0 1484.0 855.0L1648.0 869.0Q1645.0 913.0 1582.0 925.0V1637.0Q1582.0 1657.0 1589.5 1665.5Q1597.0 1674.0 1623.0 1674.0H1705.0Q1725.0 1674.0 1743.5 1674.0Q1762.0 1674.0 1773.0 1672.0Q1786.0 1672.0 1796.5 1667.5Q1807.0 1663.0 1818.0 1647.0Q1833.0 1621.0 1857.5 1549.0Q1882.0 1477.0 1910.0 1391.0H1930.0L1939.0 1660.0Q1985.0 1683.0 1999.5 1709.0Q2014.0 1735.0 2014.0 1770.0Q2014.0 1849.0 1936.0 1889.5Q1858.0 1930.0 1672.0 1930.0H1541.0Q1445.0 1930.0 1396.0 1910.0Q1347.0 1890.0 1330.5 1842.0Q1314.0 1794.0 1314.0 1709.0V1426.0Q1225.0 1588.0 1076.5 1729.5Q928.0 1871.0 697.0 1987.0L677.0 1961.0Q845.0 1809.0 949.5 1644.5Q1054.0 1480.0 1110.0 1303.0Q1166.0 1126.0 1188.0 937.0Q1210.0 748.0 1214.0 546.0H1066.0Q1085.0 655.0 1057.5 732.0Q1030.0 809.0 978.0 843.0Q945.0 864.0 903.0 863.5Q861.0 863.0 825.5 841.0Q790.0 819.0 775.0 775.0Q758.0 720.0 780.0 677.5Q802.0 635.0 847.0 607.0H620.0V843.0Q753.0 877.0 824.0 929.0Q895.0 981.0 918.0 1036.5Q941.0 1092.0 927.0 1140.0Q913.0 1188.0 874.5 1216.0Q836.0 1244.0 785.0 1240.5Q734.0 1237.0 683.0 1189.0Q688.0 1113.0 668.5 1034.5Q649.0 956.0 620.0 892.0V1914.0Q620.0 1925.0 585.0 1944.0Q550.0 1963.0 497.5 1978.5Q445.0 1994.0 390.0 1994.0H333.0V1213.0Q218.0 1367.0 56.0 1498.0L34.0 1477.0Q108.0 1362.0 161.0 1219.0Q214.0 1076.0 249.5 919.5Q285.0 763.0 306.0 607.0H91.0L75.0 550.0H333.0V54.0L695.0 89.0Q692.0 110.0 677.5 125.0Q663.0 140.0 620.0 146.0V529.0L724.0 378.0Q724.0 378.0 756.5 407.0Q789.0 436.0 833.5 478.0Q878.0 520.0 915.0 558.0Q947.0 526.0 971.0 479.5Q995.0 433.0 990.0 386.0Z" fill="black"></path></svg>