<?xml version="1.0" standalone="no"?>
<!DOCTYPE svg PUBLIC "-//W3C//DTD SVG 1.1//EN" "http://www.w3.org/Graphics/SVG/1.1/DTD/svg11.dtd" >
<svg xmlns="http://www.w3.org/2000/svg" xmlns:svg="http://www.w3.org/2000/svg" xmlns:xlink="http://www.w3.org/1999/xlink" viewBox="0 0 2048 2048" style=""><path d="M1459.5 281.5H874.5V678.5H1459.5ZM573.5 224.5V109.5L919.5 224.5H1439.5L1574.5 70.5L1847.5 285.5Q1837.5 297.5 1818.5 310.0Q1799.5 322.5 1767.5 328.5V1635.5Q1767.5 1734.5 1741.5 1805.0Q1715.5 1875.5 1632.5 1917.5Q1549.5 1959.5 1378.5 1975.5Q1371.5 1899.5 1358.5 1845.5Q1345.5 1791.5 1316.5 1758.5Q1285.5 1724.5 1240.5 1699.5Q1195.5 1674.5 1101.5 1655.5V1631.5Q1101.5 1631.5 1142.0 1633.5Q1182.5 1635.5 1238.5 1638.5Q1294.5 1641.5 1344.5 1643.5Q1394.5 1645.5 1414.5 1645.5Q1441.5 1645.5 1450.5 1633.5Q1459.5 1621.5 1459.5 1600.5V1207.5H851.5Q828.5 1354.5 763.0 1495.5Q697.5 1636.5 566.5 1759.5Q435.5 1882.5 214.5 1977.5L200.5 1962.5Q325.5 1848.5 400.0 1720.0Q474.5 1591.5 512.0 1452.5Q549.5 1313.5 561.5 1166.5Q573.5 1019.5 573.5 867.5ZM1459.5 736.5H874.5V865.5Q874.5 935.5 872.0 1006.5Q869.5 1077.5 859.5 1149.5H1459.5Z" fill="black"></path></svg>