<?xml version="1.0" standalone="no"?>
<!DOCTYPE svg PUBLIC "-//W3C//DTD SVG 1.1//EN" "http://www.w3.org/Graphics/SVG/1.1/DTD/svg11.dtd" >
<svg xmlns="http://www.w3.org/2000/svg" xmlns:svg="http://www.w3.org/2000/svg" xmlns:xlink="http://www.w3.org/1999/xlink" viewBox="0 0 2048 2048" style=""><path d="M719.0 571.0H1038.0L1151.0 424.0Q1151.0 424.0 1186.0 452.0Q1221.0 480.0 1268.5 520.0Q1316.0 560.0 1354.0 596.0Q1345.0 628.0 1299.0 628.0H735.0ZM623.0 811.0Q746.0 849.0 798.5 902.0Q851.0 955.0 852.5 1005.0Q854.0 1055.0 821.0 1087.5Q788.0 1120.0 739.5 1121.0Q691.0 1122.0 645.0 1075.0Q653.0 1009.0 638.5 938.5Q624.0 868.0 602.0 819.0ZM887.0 1143.0V792.0H578.0V1143.0ZM1229.0 811.0 1448.0 880.0V792.0H1131.0V1143.0H1165.0Q1184.0 1069.0 1202.0 976.0Q1220.0 883.0 1229.0 811.0ZM1106.0 223.0Q1011.0 347.0 841.0 469.0Q671.0 591.0 471.0 686.0L604.0 735.0H1434.0L1518.0 651.0Q1384.0 571.0 1276.5 464.0Q1169.0 357.0 1106.0 223.0ZM467.0 1329.0V1282.0Q421.0 1298.0 365.0 1298.0H318.0V753.0Q255.0 778.0 192.0 800.5Q129.0 823.0 66.0 839.0L55.0 817.0Q186.0 747.0 312.0 651.0Q438.0 555.0 545.0 448.5Q652.0 342.0 726.5 237.0Q801.0 132.0 830.0 45.0L1243.0 151.0Q1237.0 171.0 1214.5 182.5Q1192.0 194.0 1135.0 200.0Q1207.0 263.0 1311.0 308.5Q1415.0 354.0 1534.5 385.0Q1654.0 416.0 1772.5 434.0Q1891.0 452.0 1993.0 459.0V491.0Q1933.0 512.0 1889.5 558.5Q1846.0 605.0 1819.5 663.5Q1793.0 722.0 1786.0 778.0L1702.0 745.0L1757.0 786.0Q1746.0 802.0 1712.0 811.0V1188.0Q1711.0 1196.0 1674.5 1211.5Q1638.0 1227.0 1587.5 1240.0Q1537.0 1253.0 1495.0 1253.0H1448.0V1200.0H578.0V1204.0Q578.0 1218.0 547.0 1243.0L772.0 1329.0H1251.0L1372.0 1206.0L1612.0 1382.0Q1606.0 1390.0 1594.5 1397.0Q1583.0 1404.0 1565.0 1409.0V1906.0Q1564.0 1917.0 1524.5 1937.5Q1485.0 1958.0 1428.5 1975.0Q1372.0 1992.0 1321.0 1992.0H1268.0V1880.0H758.0V1913.0Q758.0 1926.0 720.5 1947.5Q683.0 1969.0 625.5 1986.0Q568.0 2003.0 508.0 2003.0H467.0ZM1268.0 1822.0V1634.0H758.0V1822.0ZM1268.0 1577.0V1386.0H758.0V1577.0ZM1448.0 1143.0V936.0H1434.0Q1394.0 982.0 1338.5 1037.0Q1283.0 1092.0 1223.0 1143.0Z" fill="black"></path></svg>