<?xml version="1.0" standalone="no"?>
<!DOCTYPE svg PUBLIC "-//W3C//DTD SVG 1.1//EN" "http://www.w3.org/Graphics/SVG/1.1/DTD/svg11.dtd" >
<svg xmlns="http://www.w3.org/2000/svg" xmlns:svg="http://www.w3.org/2000/svg" xmlns:xlink="http://www.w3.org/1999/xlink" viewBox="0 0 2048 2048" style=""><path d="M326.0 1362.5 671.0 1499.5Q663.0 1518.5 641.5 1529.0Q620.0 1539.5 584.0 1536.5Q482.0 1697.5 347.5 1807.5Q213.0 1917.5 64.0 1985.5L42.0 1968.5Q126.0 1862.5 204.0 1701.0Q282.0 1539.5 326.0 1362.5ZM658.0 1383.5Q806.0 1406.5 889.0 1454.0Q972.0 1501.5 1003.0 1558.5Q1034.0 1615.5 1025.0 1667.0Q1016.0 1718.5 978.5 1752.5Q941.0 1786.5 887.0 1788.0Q833.0 1789.5 775.0 1743.5Q769.0 1649.5 729.0 1555.0Q689.0 1460.5 642.0 1393.5ZM1160.0 207.5V100.5L1467.0 207.5H1625.0L1750.0 66.5L2006.0 264.5Q1982.0 295.5 1924.0 309.5V1663.5Q1924.0 1756.5 1901.5 1821.5Q1879.0 1886.5 1807.5 1925.0Q1736.0 1963.5 1590.0 1976.5Q1585.0 1909.5 1576.0 1859.5Q1567.0 1809.5 1547.0 1780.5Q1524.0 1748.5 1489.5 1726.5Q1455.0 1704.5 1383.0 1690.5V1663.5Q1383.0 1663.5 1411.5 1665.0Q1440.0 1666.5 1479.5 1668.5Q1519.0 1670.5 1554.5 1672.0Q1590.0 1673.5 1604.0 1673.5Q1629.0 1673.5 1637.0 1663.0Q1645.0 1652.5 1645.0 1632.5V1178.5H1410.0Q1391.0 1326.5 1337.5 1470.0Q1284.0 1613.5 1172.0 1741.5Q1060.0 1869.5 867.0 1970.5L849.0 1954.5Q972.0 1820.5 1036.0 1667.5Q1100.0 1514.5 1127.0 1350.5H66.0L50.0 1292.5H218.0V440.5H95.0L79.0 383.5H218.0V62.5L554.0 92.5Q551.0 111.5 537.5 124.5Q524.0 137.5 488.0 144.5V383.5H683.0V64.5L1025.0 94.5Q1022.0 114.5 1009.0 128.0Q996.0 141.5 957.0 148.5V348.5L1027.0 225.5Q1027.0 225.5 1048.5 249.0Q1070.0 272.5 1101.0 307.5Q1132.0 342.5 1160.0 377.5ZM488.0 440.5V664.5H683.0V440.5ZM957.0 440.5V1241.5L1031.0 1116.5L1144.0 1235.5Q1153.0 1144.5 1156.5 1051.5Q1160.0 958.5 1160.0 862.5V436.5Q1154.0 438.5 1147.5 439.5Q1141.0 440.5 1133.0 440.5ZM488.0 1292.5H683.0V1022.5H488.0ZM488.0 721.5V965.5H683.0V721.5ZM1645.0 264.5H1426.0V656.5H1645.0ZM1645.0 713.5H1426.0V860.5Q1426.0 925.5 1424.0 990.0Q1422.0 1054.5 1416.0 1120.5H1645.0Z" fill="black"></path></svg>