<?xml version="1.0" standalone="no"?>
<!DOCTYPE svg PUBLIC "-//W3C//DTD SVG 1.1//EN" "http://www.w3.org/Graphics/SVG/1.1/DTD/svg11.dtd" >
<svg xmlns="http://www.w3.org/2000/svg" xmlns:svg="http://www.w3.org/2000/svg" xmlns:xlink="http://www.w3.org/1999/xlink" viewBox="0 0 2048 2048" style=""><path d="M1117.5 227.0V121.0L1428.5 227.0H1602.5L1744.5 94.0L1981.5 293.0Q1957.5 320.0 1897.5 332.0Q1893.5 522.0 1885.5 652.0Q1877.5 782.0 1863.0 865.0Q1848.5 948.0 1824.5 997.5Q1800.5 1047.0 1764.5 1077.0Q1727.5 1105.0 1684.5 1120.0Q1724.5 1149.0 1785.5 1196.0Q1846.5 1243.0 1895.5 1284.0Q1892.5 1301.0 1876.0 1309.0Q1859.5 1317.0 1838.5 1317.0H1186.5V1563.0H1442.5L1578.5 1393.0Q1578.5 1393.0 1620.5 1425.0Q1662.5 1457.0 1720.0 1502.0Q1777.5 1547.0 1823.5 1587.0Q1814.5 1620.0 1766.5 1620.0H1186.5V1896.0H1584.5L1725.5 1714.0Q1725.5 1714.0 1751.5 1734.0Q1777.5 1754.0 1818.5 1786.0Q1859.5 1818.0 1903.5 1854.0Q1947.5 1890.0 1983.5 1921.0Q1974.5 1954.0 1924.5 1954.0H111.5L95.5 1896.0H885.5V1620.0H306.5L289.5 1563.0H885.5V1317.0H230.5L214.5 1260.0H1502.5L1602.5 1137.0Q1553.5 1143.0 1492.5 1143.0Q1492.5 1089.0 1486.0 1052.0Q1479.5 1015.0 1459.5 989.0Q1417.5 936.0 1311.5 909.0V885.0Q1353.5 889.0 1412.0 892.0Q1470.5 895.0 1498.5 895.0Q1519.5 895.0 1532.0 890.5Q1544.5 886.0 1555.5 877.0Q1583.5 848.0 1598.5 725.0H1330.5Q1282.5 856.0 1175.5 982.5Q1068.5 1109.0 867.5 1200.0L853.5 1184.0Q971.5 1055.0 1028.0 910.0Q1084.5 765.0 1101.0 623.5Q1117.5 482.0 1117.5 365.0ZM1389.5 285.0V365.0L1387.5 446.0H1619.5L1623.5 285.0ZM1381.5 504.0Q1375.5 582.0 1350.5 668.0H1604.5L1614.5 504.0ZM431.5 94.0 781.5 121.0Q779.5 142.0 765.0 157.0Q750.5 172.0 707.5 178.0V399.0H730.5L855.5 240.0Q855.5 240.0 894.5 270.0Q933.5 300.0 986.5 343.0Q1039.5 386.0 1082.5 424.0Q1073.5 457.0 1025.5 457.0H502.5V748.0Q502.5 766.0 510.5 773.0Q518.5 780.0 545.5 780.0H650.5Q674.5 780.0 700.0 780.0Q725.5 780.0 740.5 778.0Q771.5 778.0 799.5 774.0Q810.5 773.0 828.0 769.5Q845.5 766.0 859.5 762.0H877.5L889.5 766.0Q940.5 787.0 957.0 815.5Q973.5 844.0 973.5 881.0Q973.5 964.0 897.5 998.0Q821.5 1032.0 615.5 1032.0H466.5Q366.5 1032.0 317.5 1013.5Q268.5 995.0 252.5 948.0Q236.5 901.0 236.5 817.0V457.0H81.5L64.5 399.0H431.5Z" fill="black"></path></svg>