<?xml version="1.0" standalone="no"?>
<!DOCTYPE svg PUBLIC "-//W3C//DTD SVG 1.1//EN" "http://www.w3.org/Graphics/SVG/1.1/DTD/svg11.dtd" >
<svg xmlns="http://www.w3.org/2000/svg" xmlns:svg="http://www.w3.org/2000/svg" xmlns:xlink="http://www.w3.org/1999/xlink" viewBox="0 0 2048 2048" style=""><path d="M1629.0 278.0H1396.0V669.0H1629.0ZM138.0 598.0V491.0L413.0 598.0H417.0V399.0H69.0L52.0 342.0H417.0V47.0L777.0 73.0Q776.0 97.0 761.0 111.0Q746.0 125.0 703.0 133.0V342.0H708.0L843.0 155.0Q843.0 155.0 867.5 176.0Q892.0 197.0 930.5 229.5Q969.0 262.0 1011.0 298.5Q1053.0 335.0 1086.0 366.0Q1077.0 399.0 1029.0 399.0H703.0V590.0L820.0 467.0L1070.0 655.0Q1062.0 666.0 1044.0 677.0Q1026.0 688.0 998.0 694.0V1235.0Q997.0 1245.0 959.0 1263.5Q921.0 1282.0 867.0 1297.5Q813.0 1313.0 765.0 1313.0H716.0V1249.0H703.0V1470.0H761.0L888.0 1302.0Q888.0 1302.0 917.0 1325.5Q946.0 1349.0 989.0 1385.0Q1032.0 1421.0 1074.0 1458.0Q1103.0 1320.0 1112.0 1175.5Q1121.0 1031.0 1121.0 882.0V112.0L1439.0 221.0H1609.0L1738.0 76.0L2000.0 280.0Q1989.0 293.0 1970.0 304.5Q1951.0 316.0 1920.0 323.0V1673.0Q1920.0 1768.0 1896.0 1834.5Q1872.0 1901.0 1796.0 1940.0Q1720.0 1979.0 1564.0 1992.0Q1559.0 1923.0 1548.0 1873.0Q1537.0 1823.0 1512.0 1794.0Q1488.0 1762.0 1450.0 1738.5Q1412.0 1715.0 1330.0 1702.0V1675.0Q1330.0 1675.0 1362.5 1677.0Q1395.0 1679.0 1441.0 1681.5Q1487.0 1684.0 1528.0 1685.5Q1569.0 1687.0 1586.0 1687.0Q1612.0 1687.0 1620.5 1675.5Q1629.0 1664.0 1629.0 1644.0V1175.0H1383.0Q1366.0 1330.0 1312.0 1480.0Q1258.0 1630.0 1142.0 1763.0Q1026.0 1896.0 822.0 2001.0L806.0 1986.0Q901.0 1882.0 961.5 1767.0Q1022.0 1652.0 1056.0 1528.0H703.0V1913.0Q702.0 1920.0 674.5 1938.5Q647.0 1957.0 595.5 1973.5Q544.0 1990.0 470.0 1990.0H417.0V1528.0H64.0L48.0 1470.0H417.0V1249.0H404.0V1270.0Q404.0 1283.0 370.5 1303.0Q337.0 1323.0 284.5 1338.0Q232.0 1353.0 177.0 1353.0H138.0ZM1629.0 727.0H1396.0V882.0Q1396.0 941.0 1394.0 999.5Q1392.0 1058.0 1387.0 1118.0H1629.0ZM716.0 1192.0V948.0H404.0V1192.0ZM716.0 891.0V655.0H404.0V891.0Z" fill="black"></path></svg>