<?xml version="1.0" standalone="no"?>
<!DOCTYPE svg PUBLIC "-//W3C//DTD SVG 1.1//EN" "http://www.w3.org/Graphics/SVG/1.1/DTD/svg11.dtd" >
<svg xmlns="http://www.w3.org/2000/svg" xmlns:svg="http://www.w3.org/2000/svg" xmlns:xlink="http://www.w3.org/1999/xlink" viewBox="0 0 2048 2048" style=""><path d="M844.0 51.5 1096.0 303.5Q1074.0 318.5 1039.0 318.5Q1004.0 318.5 954.0 297.5Q910.0 303.5 858.5 310.0Q807.0 316.5 752.0 321.5V501.5H819.0L950.0 325.5Q950.0 325.5 985.5 354.5Q1021.0 383.5 1071.0 426.0Q1121.0 468.5 1165.0 507.5V124.5L1518.0 153.5Q1515.0 173.5 1501.5 187.0Q1488.0 200.5 1448.0 206.5V782.5Q1448.0 792.5 1411.0 809.5Q1374.0 826.5 1319.5 840.5Q1265.0 854.5 1210.0 854.5H1165.0V550.5Q1152.0 559.5 1128.0 559.5H752.0V630.5Q899.0 648.5 981.5 692.0Q1064.0 735.5 1095.0 789.5Q1126.0 843.5 1117.0 894.5Q1108.0 945.5 1070.0 979.0Q1032.0 1012.5 977.5 1014.0Q923.0 1015.5 864.0 970.5Q857.0 894.5 824.5 815.5Q792.0 736.5 752.0 673.5V1128.5Q752.0 1139.5 691.0 1171.0Q630.0 1202.5 522.0 1202.5H471.0V870.5Q385.0 944.5 280.0 1006.0Q175.0 1067.5 55.0 1116.5L39.0 1091.5Q163.0 990.5 253.0 850.0Q343.0 709.5 393.0 559.5H84.0L68.0 501.5H471.0V342.5Q370.0 346.5 267.5 349.0Q165.0 351.5 70.0 350.5L66.0 323.5Q165.0 299.5 274.0 267.0Q383.0 234.5 489.5 197.0Q596.0 159.5 687.5 122.0Q779.0 84.5 844.0 51.5ZM860.0 1079.5 1251.0 1112.5Q1248.0 1133.5 1233.5 1148.5Q1219.0 1163.5 1176.0 1169.5V1318.5H1563.0L1686.0 1163.5Q1623.0 1180.5 1522.0 1189.5Q1516.0 1128.5 1506.5 1084.5Q1497.0 1040.5 1471.0 1011.5Q1444.0 984.5 1406.0 963.0Q1368.0 941.5 1286.0 927.5V901.5Q1286.0 901.5 1320.5 903.5Q1355.0 905.5 1402.5 908.5Q1450.0 911.5 1492.0 913.5Q1534.0 915.5 1550.0 915.5Q1589.0 915.5 1589.0 882.5V100.5L1940.0 129.5Q1934.0 172.5 1870.0 184.5V890.5Q1870.0 983.5 1846.0 1046.5Q1822.0 1109.5 1739.0 1144.5Q1763.0 1164.5 1807.5 1198.5Q1852.0 1232.5 1901.5 1271.0Q1951.0 1309.5 1991.0 1343.5Q1982.0 1376.5 1931.0 1376.5H1231.0Q1321.0 1450.5 1449.0 1505.0Q1577.0 1559.5 1722.5 1594.5Q1868.0 1629.5 2009.0 1642.5L2005.0 1665.5Q1922.0 1689.5 1862.5 1762.5Q1803.0 1835.5 1782.0 1945.5Q1558.0 1864.5 1413.0 1726.0Q1268.0 1587.5 1176.0 1386.5V1927.5Q1176.0 1937.5 1136.5 1954.0Q1097.0 1970.5 1036.5 1983.5Q976.0 1996.5 913.0 1996.5H860.0V1605.5Q707.0 1720.5 503.0 1806.5Q299.0 1892.5 59.0 1947.5L47.0 1927.5Q256.0 1828.5 419.0 1680.0Q582.0 1531.5 680.0 1376.5H72.0L55.0 1318.5H860.0Z" fill="black"></path></svg>