<?xml version="1.0" standalone="no"?>
<!DOCTYPE svg PUBLIC "-//W3C//DTD SVG 1.1//EN" "http://www.w3.org/Graphics/SVG/1.1/DTD/svg11.dtd" >
<svg xmlns="http://www.w3.org/2000/svg" xmlns:svg="http://www.w3.org/2000/svg" xmlns:xlink="http://www.w3.org/1999/xlink" viewBox="0 0 2048 2048" style=""><path d="M884.5 569.0H1068.5L1120.5 280.0H825.5L808.5 223.0H1589.5L1724.5 43.0Q1724.5 43.0 1749.0 62.5Q1773.5 82.0 1811.5 113.5Q1849.5 145.0 1891.0 180.5Q1932.5 216.0 1966.5 247.0Q1960.5 280.0 1908.5 280.0H1398.5L1345.5 569.0H1488.5L1615.5 440.0L1859.5 622.0Q1841.5 647.0 1787.5 659.0V1011.0L1875.5 864.0Q1875.5 864.0 1902.5 893.0Q1929.5 922.0 1964.5 962.0Q1999.5 1002.0 2025.5 1036.0Q2016.5 1069.0 1972.5 1069.0H911.5Q910.5 1121.0 875.5 1156.5Q840.5 1192.0 788.0 1194.5Q735.5 1197.0 681.5 1149.0Q678.5 1075.0 655.0 999.0Q631.5 923.0 602.5 860.0V1925.0Q602.5 1936.0 567.5 1955.0Q532.5 1974.0 479.5 1989.5Q426.5 2005.0 372.5 2005.0H315.5V1218.0Q256.5 1300.0 189.0 1372.5Q121.5 1445.0 44.5 1511.0L22.5 1491.0Q91.5 1376.0 144.0 1234.5Q196.5 1093.0 233.5 939.5Q270.5 786.0 292.5 637.0H44.5L28.5 579.0H315.5V63.0L677.5 98.0Q674.5 121.0 660.0 136.0Q645.5 151.0 602.5 157.0V579.0H608.5L718.5 397.0Q718.5 397.0 746.5 425.5Q774.5 454.0 813.5 495.0Q852.5 536.0 886.5 575.0ZM602.5 637.0V813.0Q740.5 848.0 810.0 902.0Q879.5 956.0 901.5 1011.0H978.5Q997.5 933.0 1018.0 832.5Q1038.5 732.0 1058.5 626.0H903.5L901.5 618.0Q893.5 637.0 858.5 637.0ZM1509.5 1011.0V626.0H1333.5Q1311.5 732.0 1290.5 833.5Q1269.5 935.0 1249.5 1011.0ZM933.5 1253.0V1142.0L1234.5 1253.0H1546.5L1671.5 1114.0L1935.5 1312.0Q1924.5 1325.0 1905.0 1337.0Q1885.5 1349.0 1853.5 1355.0V1923.0Q1852.5 1930.0 1812.5 1945.0Q1772.5 1960.0 1717.0 1973.0Q1661.5 1986.0 1615.5 1986.0H1566.5V1843.0H1208.5V1925.0Q1208.5 1939.0 1149.0 1970.0Q1089.5 2001.0 985.5 2001.0H933.5ZM1208.5 1785.0H1566.5V1310.0H1208.5Z" fill="black"></path></svg>