<?xml version="1.0" standalone="no"?>
<!DOCTYPE svg PUBLIC "-//W3C//DTD SVG 1.1//EN" "http://www.w3.org/Graphics/SVG/1.1/DTD/svg11.dtd" >
<svg xmlns="http://www.w3.org/2000/svg" xmlns:svg="http://www.w3.org/2000/svg" xmlns:xlink="http://www.w3.org/1999/xlink" viewBox="0 0 2048 2048" style=""><path d="M1147.5 793.0V711.0L1341.5 793.0H1382.5L1472.5 695.0L1663.5 838.0V595.0Q1657.5 596.0 1651.0 597.5Q1644.5 599.0 1636.5 599.0H1132.5L1116.5 541.0H1349.5L1472.5 374.0Q1472.5 374.0 1503.5 399.5Q1534.5 425.0 1579.0 463.5Q1623.5 502.0 1663.5 539.0V277.0H1085.5V1895.0Q1085.5 1913.0 1054.5 1936.5Q1023.5 1960.0 973.0 1978.0Q922.5 1996.0 864.5 1996.0H819.5V1185.0Q785.5 1200.0 743.5 1193.0Q701.5 1186.0 661.5 1146.0Q666.5 1070.0 650.5 990.5Q634.5 911.0 606.5 847.0V1914.0Q606.5 1925.0 572.0 1944.0Q537.5 1963.0 484.5 1978.5Q431.5 1994.0 377.5 1994.0H319.5V1230.0Q204.5 1385.0 53.5 1512.0L28.5 1492.0Q138.5 1318.0 204.0 1089.5Q269.5 861.0 301.5 630.0H96.5L80.5 572.0H319.5V52.0L682.5 87.0Q679.5 110.0 664.5 125.0Q649.5 140.0 606.5 146.0V550.0L704.5 396.0L819.5 509.0V105.0L1098.5 220.0H1642.5L1765.5 79.0L2019.5 277.0Q1999.5 308.0 1937.5 322.0V1676.0Q1937.5 1769.0 1916.5 1833.5Q1895.5 1898.0 1827.0 1935.5Q1758.5 1973.0 1616.5 1985.0Q1613.5 1919.0 1604.5 1869.5Q1595.5 1820.0 1577.5 1791.0Q1558.5 1760.0 1527.0 1738.5Q1495.5 1717.0 1429.5 1703.0V1676.0Q1429.5 1676.0 1454.0 1677.5Q1478.5 1679.0 1513.0 1681.0Q1547.5 1683.0 1579.0 1684.5Q1610.5 1686.0 1624.5 1686.0Q1648.5 1686.0 1656.0 1676.0Q1663.5 1666.0 1663.5 1647.0V843.0Q1641.5 868.0 1593.5 877.0V1473.0Q1592.5 1480.0 1565.5 1493.0Q1538.5 1506.0 1501.5 1516.5Q1464.5 1527.0 1433.5 1527.0H1401.5V1408.0H1335.5V1522.0Q1335.5 1536.0 1285.5 1559.0Q1235.5 1582.0 1175.5 1582.0H1147.5ZM819.5 908.0V630.0H606.5V797.0Q680.5 819.0 733.0 848.0Q785.5 877.0 819.5 908.0ZM1335.5 1350.0H1401.5V851.0H1335.5Z" fill="black"></path></svg>