<?xml version="1.0" standalone="no"?>
<!DOCTYPE svg PUBLIC "-//W3C//DTD SVG 1.1//EN" "http://www.w3.org/Graphics/SVG/1.1/DTD/svg11.dtd" >
<svg xmlns="http://www.w3.org/2000/svg" xmlns:svg="http://www.w3.org/2000/svg" xmlns:xlink="http://www.w3.org/1999/xlink" viewBox="0 0 2048 2048" style=""><path d="M1348.0 96.0Q1344.0 117.0 1329.0 132.0Q1314.0 147.0 1274.0 153.0V1112.0Q1272.0 1327.0 1212.5 1495.0Q1153.0 1663.0 1019.5 1787.5Q886.0 1912.0 659.0 1997.0L643.0 1976.0Q849.0 1826.0 937.5 1631.0Q1026.0 1436.0 1032.0 1163.0Q1003.0 1212.0 967.5 1266.0Q932.0 1320.0 891.0 1380.0Q891.0 1428.0 852.0 1450.0L692.0 1188.0Q738.0 1168.0 831.5 1121.0Q925.0 1074.0 1032.0 1016.0V827.0Q1001.0 862.0 953.5 863.0Q906.0 864.0 858.0 817.0Q858.0 715.0 829.0 604.0Q821.0 626.0 784.0 626.0H580.0V731.0Q696.0 773.0 758.5 826.5Q821.0 880.0 840.5 934.0Q860.0 988.0 847.5 1033.0Q835.0 1078.0 801.0 1103.5Q767.0 1129.0 722.0 1126.0Q677.0 1123.0 633.0 1079.0Q637.0 1008.0 621.5 931.5Q606.0 855.0 580.0 792.0V1913.0Q580.0 1925.0 547.5 1945.5Q515.0 1966.0 466.0 1982.5Q417.0 1999.0 367.0 1999.0H313.0V1226.0Q210.0 1384.0 63.0 1515.0L39.0 1495.0Q105.0 1377.0 153.5 1233.5Q202.0 1090.0 235.0 935.0Q268.0 780.0 289.0 626.0H90.0L74.0 569.0H313.0V49.0L655.0 82.0Q652.0 105.0 636.5 120.0Q621.0 135.0 580.0 141.0V534.0L657.0 411.0Q657.0 411.0 685.0 438.0Q713.0 465.0 751.5 503.5Q790.0 542.0 823.0 577.0Q811.0 531.0 795.0 488.5Q779.0 446.0 764.0 409.0L786.0 399.0Q883.0 445.0 942.0 497.0Q1001.0 549.0 1032.0 600.0V65.0ZM1683.0 106.0Q1682.0 126.0 1666.0 141.5Q1650.0 157.0 1612.0 164.0V635.0Q1644.0 552.0 1672.5 473.0Q1701.0 394.0 1716.0 344.0L1993.0 542.0Q1985.0 555.0 1964.5 562.5Q1944.0 570.0 1913.0 559.0Q1865.0 602.0 1782.0 669.5Q1699.0 737.0 1612.0 798.0V889.0Q1742.0 940.0 1814.0 1004.0Q1886.0 1068.0 1911.5 1132.5Q1937.0 1197.0 1926.0 1251.0Q1915.0 1305.0 1879.0 1337.0Q1843.0 1369.0 1792.0 1367.5Q1741.0 1366.0 1688.0 1319.0Q1683.0 1243.0 1661.0 1165.5Q1639.0 1088.0 1612.0 1016.0V1648.0Q1612.0 1674.0 1620.5 1686.0Q1629.0 1698.0 1655.0 1698.0H1716.0Q1733.0 1698.0 1748.0 1697.5Q1763.0 1697.0 1776.0 1695.0Q1786.0 1695.0 1797.5 1691.0Q1809.0 1687.0 1819.0 1675.0Q1835.0 1653.0 1857.5 1586.5Q1880.0 1520.0 1896.0 1454.0H1919.0L1927.0 1685.0Q1972.0 1710.0 1990.5 1734.0Q2009.0 1758.0 2009.0 1792.0Q2009.0 1865.0 1937.0 1901.0Q1865.0 1937.0 1692.0 1937.0H1577.0Q1446.0 1937.0 1404.0 1890.5Q1362.0 1844.0 1362.0 1724.0V71.0Z" fill="black"></path></svg>