<?xml version="1.0" standalone="no"?>
<!DOCTYPE svg PUBLIC "-//W3C//DTD SVG 1.1//EN" "http://www.w3.org/Graphics/SVG/1.1/DTD/svg11.dtd" >
<svg xmlns="http://www.w3.org/2000/svg" xmlns:svg="http://www.w3.org/2000/svg" xmlns:xlink="http://www.w3.org/1999/xlink" viewBox="0 0 2048 2048" style=""><path d="M1183.0 365.0Q1371.0 357.0 1495.5 382.0Q1620.0 407.0 1691.0 451.5Q1762.0 496.0 1788.5 548.0Q1815.0 600.0 1806.0 647.0Q1797.0 694.0 1762.5 723.5Q1728.0 753.0 1676.0 752.0Q1673.0 777.0 1629.0 783.0V902.0H1656.0L1779.0 734.0Q1779.0 734.0 1817.5 766.0Q1856.0 798.0 1909.0 842.5Q1962.0 887.0 2004.0 926.0Q1995.0 959.0 1949.0 959.0H1629.0V1258.0Q1629.0 1268.0 1591.0 1285.5Q1553.0 1303.0 1497.0 1316.5Q1441.0 1330.0 1388.0 1330.0H1338.0V1221.0H695.0V1279.0Q695.0 1291.0 658.5 1310.0Q622.0 1329.0 567.5 1343.5Q513.0 1358.0 460.0 1358.0H421.0V959.0H77.0L61.0 902.0H421.0V750.0L392.0 754.0Q368.0 791.0 331.0 797.0L169.0 502.0L591.0 504.0Q629.0 418.0 659.0 330.0H99.0L83.0 273.0H855.0V48.0L1255.0 74.0Q1251.0 96.0 1237.5 111.0Q1224.0 126.0 1181.0 134.0V273.0H1543.0L1691.0 89.0Q1691.0 89.0 1718.0 109.0Q1745.0 129.0 1787.5 161.0Q1830.0 193.0 1876.5 229.0Q1923.0 265.0 1961.0 298.0Q1952.0 330.0 1902.0 330.0H1058.0Q917.0 426.0 767.0 504.0L1357.0 500.0Q1315.0 471.0 1269.5 442.5Q1224.0 414.0 1175.0 388.0ZM872.0 1164.0V959.0H695.0V1164.0ZM1164.0 1164.0H1338.0V959.0H1164.0ZM1338.0 713.0 1613.0 736.0Q1590.0 704.0 1548.0 661.0Q1506.0 618.0 1449.0 570.0Q1289.0 604.0 1075.5 642.0Q862.0 680.0 575.0 726.0L763.0 740.0Q760.0 758.0 747.0 771.5Q734.0 785.0 695.0 791.0V902.0H872.0V685.0L1236.0 713.0Q1233.0 733.0 1219.5 748.0Q1206.0 763.0 1164.0 769.0V902.0H1338.0ZM869.0 1234.0 1230.0 1264.0Q1227.0 1284.0 1213.5 1298.5Q1200.0 1313.0 1160.0 1320.0V1424.0H1597.0L1734.0 1246.0Q1734.0 1246.0 1759.0 1265.5Q1784.0 1285.0 1822.5 1316.5Q1861.0 1348.0 1903.5 1383.0Q1946.0 1418.0 1982.0 1449.0Q1973.0 1481.0 1922.0 1481.0H1238.0Q1332.0 1533.0 1460.0 1567.5Q1588.0 1602.0 1730.5 1621.0Q1873.0 1640.0 2010.0 1643.0L2008.0 1666.0Q1925.0 1692.0 1867.0 1766.0Q1809.0 1840.0 1789.0 1952.0Q1559.0 1888.0 1408.0 1773.0Q1257.0 1658.0 1160.0 1481.0V1938.0Q1160.0 1947.0 1123.5 1961.5Q1087.0 1976.0 1031.5 1988.0Q976.0 2000.0 921.0 2000.0H869.0V1612.0Q719.0 1734.0 508.0 1820.5Q297.0 1907.0 48.0 1961.0L38.0 1938.0Q222.0 1857.0 369.0 1733.5Q516.0 1610.0 609.0 1481.0H85.0L69.0 1424.0H869.0Z" fill="black"></path></svg>