<?xml version="1.0" standalone="no"?>
<!DOCTYPE svg PUBLIC "-//W3C//DTD SVG 1.1//EN" "http://www.w3.org/Graphics/SVG/1.1/DTD/svg11.dtd" >
<svg xmlns="http://www.w3.org/2000/svg" xmlns:svg="http://www.w3.org/2000/svg" xmlns:xlink="http://www.w3.org/1999/xlink" viewBox="0 0 2048 2048" style=""><path d="M1386.0 97.0Q1506.0 78.0 1575.0 92.0Q1644.0 106.0 1672.5 139.0Q1701.0 172.0 1697.0 209.5Q1693.0 247.0 1663.5 277.0Q1634.0 307.0 1588.0 315.0Q1542.0 323.0 1489.0 296.0Q1475.0 244.0 1439.5 191.5Q1404.0 139.0 1372.0 109.0ZM1372.0 959.0Q1491.0 959.0 1559.0 985.0Q1627.0 1011.0 1654.0 1049.5Q1681.0 1088.0 1675.0 1126.5Q1669.0 1165.0 1639.0 1193.0Q1609.0 1221.0 1564.5 1225.0Q1520.0 1229.0 1470.0 1197.0Q1461.0 1135.0 1426.5 1072.5Q1392.0 1010.0 1356.0 972.0ZM663.0 1226.0Q668.0 1150.0 652.0 1070.5Q636.0 991.0 608.0 927.0V1912.0Q608.0 1923.0 573.5 1942.0Q539.0 1961.0 486.0 1976.5Q433.0 1992.0 379.0 1992.0H321.0V1228.0Q206.0 1383.0 55.0 1510.0L30.0 1490.0Q140.0 1316.0 205.5 1087.5Q271.0 859.0 303.0 628.0H86.0L69.0 570.0H321.0V50.0L684.0 85.0Q681.0 108.0 666.0 123.0Q651.0 138.0 608.0 144.0V558.0L712.0 394.0Q712.0 394.0 747.5 427.5Q783.0 461.0 829.5 508.0Q876.0 555.0 911.0 595.0Q905.0 628.0 858.0 628.0H608.0V877.0Q733.0 917.0 799.5 970.5Q866.0 1024.0 886.5 1079.0Q907.0 1134.0 893.5 1180.5Q880.0 1227.0 843.5 1253.5Q807.0 1280.0 758.5 1276.0Q710.0 1272.0 663.0 1226.0ZM792.0 431.0 1104.0 400.0Q1078.0 322.0 1058.5 236.5Q1039.0 151.0 1024.0 60.0L1378.0 83.0Q1375.0 103.0 1360.0 117.5Q1345.0 132.0 1313.0 138.0Q1325.0 201.0 1340.0 259.5Q1355.0 318.0 1376.0 374.0L1646.0 347.0L1763.0 169.0Q1763.0 169.0 1803.5 196.0Q1844.0 223.0 1899.5 261.5Q1955.0 300.0 1999.0 335.0Q1997.0 352.0 1982.0 362.0Q1967.0 372.0 1947.0 374.0L1677.0 400.0L1890.0 533.0Q1873.0 560.0 1820.0 546.0Q1782.0 582.0 1735.5 617.5Q1689.0 653.0 1634.0 685.0Q1662.0 700.0 1692.5 712.5Q1723.0 725.0 1757.0 736.0Q1785.0 744.0 1800.5 742.5Q1816.0 741.0 1829.0 724.0Q1849.0 695.0 1877.0 637.0Q1905.0 579.0 1927.0 525.0L1945.0 529.0L1925.0 765.0Q1989.0 823.0 2002.5 856.0Q2016.0 889.0 1999.0 925.0Q1972.0 982.0 1914.0 997.0Q1856.0 1012.0 1787.0 1000.5Q1718.0 989.0 1659.0 968.0Q1573.0 937.0 1503.0 897.5Q1433.0 858.0 1376.0 812.0Q1247.0 863.0 1104.5 897.5Q962.0 932.0 819.0 943.0L809.0 916.0Q924.0 879.0 1039.5 820.5Q1155.0 762.0 1259.0 693.0Q1216.0 639.0 1183.0 579.5Q1150.0 520.0 1124.0 456.0L813.0 486.0ZM1460.0 531.0Q1525.0 472.0 1575.0 410.0L1399.0 429.0Q1428.0 487.0 1460.0 531.0ZM727.0 1336.0 1067.0 1301.0Q1050.0 1225.0 1037.5 1140.5Q1025.0 1056.0 1016.0 965.0L1368.0 990.0Q1364.0 1036.0 1302.0 1047.0Q1315.0 1170.0 1339.0 1275.0L1644.0 1244.0L1763.0 1066.0Q1763.0 1066.0 1803.0 1093.5Q1843.0 1121.0 1898.5 1160.0Q1954.0 1199.0 1999.0 1234.0Q1997.0 1251.0 1982.0 1261.0Q1967.0 1271.0 1947.0 1273.0L1630.0 1303.0L1882.0 1445.0Q1868.0 1470.0 1810.0 1461.0Q1767.0 1515.0 1712.0 1566.5Q1657.0 1618.0 1591.0 1664.0Q1660.0 1705.0 1749.0 1725.0Q1779.0 1731.0 1795.5 1729.5Q1812.0 1728.0 1825.0 1711.0Q1844.0 1679.0 1873.5 1616.5Q1903.0 1554.0 1923.0 1500.0L1941.0 1502.0L1925.0 1748.0Q1991.0 1800.0 2004.5 1831.5Q2018.0 1863.0 2003.0 1901.0Q1980.0 1961.0 1925.5 1979.5Q1871.0 1998.0 1802.0 1990.5Q1733.0 1983.0 1669.0 1965.0Q1569.0 1937.0 1489.0 1897.5Q1409.0 1858.0 1347.0 1809.0Q1206.0 1877.0 1044.5 1922.0Q883.0 1967.0 712.0 1981.0L702.0 1955.0Q844.0 1910.0 976.0 1837.5Q1108.0 1765.0 1220.0 1676.0Q1173.0 1609.0 1138.5 1528.5Q1104.0 1448.0 1081.0 1359.0L747.0 1391.0ZM1419.0 1492.0Q1501.0 1401.0 1554.0 1312.0L1353.0 1332.0Q1366.0 1377.0 1382.0 1416.5Q1398.0 1456.0 1419.0 1492.0Z" fill="black"></path></svg>