<?xml version="1.0" standalone="no"?>
<!DOCTYPE svg PUBLIC "-//W3C//DTD SVG 1.1//EN" "http://www.w3.org/Graphics/SVG/1.1/DTD/svg11.dtd" >
<svg xmlns="http://www.w3.org/2000/svg" xmlns:svg="http://www.w3.org/2000/svg" xmlns:xlink="http://www.w3.org/1999/xlink" viewBox="0 0 2048 2048" style=""><path d="M1160.0 1074.0Q1287.0 1156.0 1341.5 1241.5Q1396.0 1327.0 1398.0 1399.5Q1400.0 1472.0 1367.0 1517.5Q1334.0 1563.0 1283.0 1565.5Q1232.0 1568.0 1183.0 1512.0Q1192.0 1405.0 1176.0 1289.5Q1160.0 1174.0 1136.0 1082.0ZM646.0 394.0Q646.0 394.0 679.5 426.5Q713.0 459.0 757.5 504.5Q802.0 550.0 835.0 589.0Q826.0 621.0 779.0 621.0H548.0V736.0Q596.0 756.0 633.0 778.5Q670.0 801.0 697.0 824.0H841.0V60.0L1166.0 87.0Q1163.0 110.0 1147.5 124.5Q1132.0 139.0 1091.0 146.0V437.0H1109.0L1201.0 298.0Q1201.0 298.0 1230.0 325.0Q1259.0 352.0 1298.0 390.5Q1337.0 429.0 1367.0 462.0Q1361.0 494.0 1316.0 494.0H1091.0V824.0H1117.0L1222.0 669.0Q1222.0 669.0 1249.0 694.0Q1276.0 719.0 1314.5 756.0Q1353.0 793.0 1386.0 828.0Q1378.0 716.0 1373.0 592.5Q1368.0 469.0 1365.0 333.0H1271.0L1252.0 275.0H1627.0L1758.0 130.0L1998.0 343.0Q1987.0 361.0 1970.0 369.5Q1953.0 378.0 1916.0 384.0Q1893.0 643.0 1842.5 901.0Q1792.0 1159.0 1672.0 1389.0Q1741.0 1509.0 1827.0 1606.0Q1913.0 1703.0 2014.0 1785.0L2006.0 1805.0Q1923.0 1808.0 1851.5 1853.5Q1780.0 1899.0 1736.0 1983.0Q1671.0 1897.0 1620.0 1806.0Q1569.0 1715.0 1531.0 1611.0Q1442.0 1724.0 1324.5 1824.0Q1207.0 1924.0 1054.0 2006.0L1031.0 1987.0Q1177.0 1857.0 1281.0 1695.0Q1385.0 1533.0 1455.0 1351.0Q1432.0 1246.0 1416.0 1127.5Q1400.0 1009.0 1390.0 873.0Q1376.0 882.0 1353.0 882.0H751.0Q788.0 935.0 785.5 985.5Q783.0 1036.0 759.0 1068.0L880.0 1101.0V896.0L1199.0 925.0Q1194.0 966.0 1130.0 978.0V1699.0Q1130.0 1781.0 1110.5 1836.0Q1091.0 1891.0 1029.5 1922.5Q968.0 1954.0 841.0 1965.0Q838.0 1913.0 831.5 1873.5Q825.0 1834.0 808.0 1809.0Q793.0 1786.0 765.5 1767.5Q738.0 1749.0 681.0 1740.0V1711.0Q681.0 1711.0 716.5 1713.5Q752.0 1716.0 793.0 1718.5Q834.0 1721.0 849.0 1721.0Q880.0 1721.0 880.0 1695.0V1197.0Q853.0 1275.0 815.0 1363.0Q777.0 1451.0 726.0 1534.5Q675.0 1618.0 609.0 1682.0L587.0 1662.0Q617.0 1582.0 636.0 1485.0Q655.0 1388.0 665.5 1289.5Q676.0 1191.0 679.0 1107.0Q634.0 1107.0 591.0 1064.0Q596.0 1001.0 583.5 931.5Q571.0 862.0 548.0 802.0V1903.0Q548.0 1917.0 515.5 1938.5Q483.0 1960.0 434.5 1977.0Q386.0 1994.0 337.0 1994.0H286.0V1232.0Q188.0 1382.0 58.0 1508.0L34.0 1488.0Q125.0 1310.0 179.5 1080.0Q234.0 850.0 261.0 621.0H73.0L56.0 564.0H286.0V42.0L624.0 75.0Q621.0 98.0 605.0 113.0Q589.0 128.0 548.0 134.0V552.0ZM1537.0 1090.0Q1585.0 908.0 1610.0 716.5Q1635.0 525.0 1648.0 333.0H1404.0Q1418.0 560.0 1451.5 747.5Q1485.0 935.0 1537.0 1090.0Z" fill="black"></path></svg>