<?xml version="1.0" standalone="no"?>
<!DOCTYPE svg PUBLIC "-//W3C//DTD SVG 1.1//EN" "http://www.w3.org/Graphics/SVG/1.1/DTD/svg11.dtd" >
<svg xmlns="http://www.w3.org/2000/svg" xmlns:svg="http://www.w3.org/2000/svg" xmlns:xlink="http://www.w3.org/1999/xlink" viewBox="0 0 2048 2048" style=""><path d="M337.0 55.0 699.0 90.0Q696.0 113.0 681.5 128.0Q667.0 143.0 624.0 149.0V553.0L722.0 391.0Q722.0 391.0 756.5 426.0Q791.0 461.0 837.0 509.5Q883.0 558.0 916.0 598.0Q907.0 631.0 861.0 631.0H624.0V796.0Q756.0 830.0 825.5 881.5Q895.0 933.0 918.0 987.0H1660.0L1748.0 870.0Q1722.0 875.0 1688.5 878.5Q1655.0 882.0 1617.0 882.0H1564.0V803.0H1209.0V846.0Q1209.0 859.0 1148.0 883.0Q1087.0 907.0 980.0 907.0H929.0V88.0L1230.0 200.0H1555.0L1691.0 49.0L1938.0 237.0Q1929.0 251.0 1911.5 260.5Q1894.0 270.0 1858.0 276.0V825.0Q1858.0 832.0 1822.0 848.0Q1857.0 877.0 1914.5 924.5Q1972.0 972.0 2016.0 1011.0Q2007.0 1044.0 1959.0 1044.0H1326.0Q1277.0 1127.0 1205.0 1202.0H1643.0L1783.0 1071.0L2020.0 1267.0Q1996.0 1295.0 1938.0 1306.0Q1928.0 1507.0 1909.5 1630.5Q1891.0 1754.0 1858.5 1823.0Q1826.0 1892.0 1772.0 1929.0Q1677.0 1995.0 1521.0 1995.0Q1522.0 1935.0 1516.0 1887.5Q1510.0 1840.0 1492.0 1814.0Q1473.0 1787.0 1444.5 1766.5Q1416.0 1746.0 1367.0 1732.0Q1203.0 1887.0 955.0 1999.0L937.0 1972.0Q1114.0 1841.0 1224.0 1657.0Q1334.0 1473.0 1387.0 1259.0Q1295.0 1437.0 1132.0 1577.5Q969.0 1718.0 759.0 1816.0L738.0 1788.0Q866.0 1689.0 964.0 1555.0Q1062.0 1421.0 1125.0 1278.0Q1039.0 1350.0 934.5 1410.0Q830.0 1470.0 714.0 1517.0L697.0 1491.0Q809.0 1405.0 893.0 1287.0Q977.0 1169.0 1031.0 1044.0H933.0Q935.0 1099.0 900.0 1136.5Q865.0 1174.0 811.5 1177.5Q758.0 1181.0 703.0 1132.0Q700.0 1059.0 676.5 983.0Q653.0 907.0 624.0 844.0V1917.0Q624.0 1928.0 589.0 1947.0Q554.0 1966.0 501.0 1981.5Q448.0 1997.0 394.0 1997.0H337.0V1204.0Q275.0 1288.0 203.5 1364.0Q132.0 1440.0 50.0 1507.0L28.0 1487.0Q99.0 1372.0 154.0 1230.0Q209.0 1088.0 249.0 934.5Q289.0 781.0 314.0 631.0H97.0L81.0 573.0H337.0ZM1660.0 1284.0Q1615.0 1407.0 1548.5 1514.0Q1482.0 1621.0 1389.0 1712.0L1525.0 1716.0Q1562.0 1716.0 1582.0 1702.0Q1610.0 1679.0 1629.5 1579.0Q1649.0 1479.0 1660.0 1284.0ZM1209.0 528.0V745.0H1564.0V528.0ZM1209.0 471.0H1564.0V258.0H1209.0Z" fill="black"></path></svg>