<?xml version="1.0" standalone="no"?>
<!DOCTYPE svg PUBLIC "-//W3C//DTD SVG 1.1//EN" "http://www.w3.org/Graphics/SVG/1.1/DTD/svg11.dtd" >
<svg xmlns="http://www.w3.org/2000/svg" xmlns:svg="http://www.w3.org/2000/svg" xmlns:xlink="http://www.w3.org/1999/xlink" viewBox="0 0 2048 2048" style=""><path d="M851.5 258.5V162.5L1097.5 258.5H1202.5V57.5L1515.5 86.5Q1513.5 106.5 1500.0 120.0Q1486.5 133.5 1449.5 137.5V258.5H1560.5L1668.5 141.5L1896.5 311.5Q1887.5 322.5 1867.5 334.5Q1847.5 346.5 1818.5 352.5V461.5L1888.5 352.5Q1888.5 352.5 1913.0 376.5Q1937.5 400.5 1970.0 434.5Q2002.5 468.5 2027.5 498.5Q2021.5 530.5 1976.5 530.5H1818.5V743.5Q1816.5 751.5 1792.0 765.0Q1767.5 778.5 1732.5 790.5L1920.5 930.5Q1914.5 939.5 1898.0 949.0Q1881.5 958.5 1857.5 962.5V1163.5Q1857.5 1172.5 1823.5 1189.0Q1789.5 1205.5 1741.5 1218.5Q1693.5 1231.5 1652.5 1231.5H1607.5V1147.5H1052.5V1196.5Q1052.5 1206.5 1020.0 1223.5Q987.5 1240.5 939.0 1254.5Q890.5 1268.5 841.5 1268.5H808.5V1124.5Q782.5 1176.5 723.5 1189.0Q664.5 1201.5 606.5 1143.5Q610.5 1067.5 593.5 987.5Q576.5 907.5 550.5 840.5V1915.5Q550.5 1926.5 517.5 1944.5Q484.5 1962.5 433.5 1977.0Q382.5 1991.5 329.5 1991.5H274.5V1253.5Q175.5 1386.5 42.5 1497.5L20.5 1474.5Q115.5 1304.5 167.0 1080.0Q218.5 855.5 241.5 625.5H65.5L48.5 567.5H274.5V51.5L626.5 84.5Q623.5 107.5 608.5 122.5Q593.5 137.5 550.5 143.5V536.5L640.5 387.5L749.5 500.5L741.5 473.5H851.5ZM808.5 876.5V778.5L851.5 795.5V530.5H778.5L831.5 592.5Q828.5 609.5 813.5 617.5Q798.5 625.5 778.5 625.5H550.5V780.5Q662.5 823.5 724.0 877.5Q785.5 931.5 808.5 985.5ZM1202.5 530.5H1087.5V682.5H1202.5ZM1449.5 530.5V682.5H1580.5V530.5ZM1202.5 473.5V315.5H1087.5V473.5ZM1449.5 473.5H1580.5V315.5H1449.5ZM1122.5 1149.5 1451.5 1212.5Q1445.5 1235.5 1425.0 1249.0Q1404.5 1262.5 1359.5 1264.5L1294.5 1372.5H1646.5L1773.5 1208.5Q1773.5 1208.5 1813.5 1239.5Q1853.5 1270.5 1908.0 1314.5Q1962.5 1358.5 2006.5 1397.5Q1997.5 1429.5 1949.5 1429.5H1761.5Q1735.5 1494.5 1701.5 1550.0Q1667.5 1605.5 1627.5 1653.5Q1769.5 1686.5 1840.0 1732.0Q1910.5 1777.5 1926.0 1825.0Q1941.5 1872.5 1917.0 1912.0Q1892.5 1951.5 1843.0 1974.0Q1793.5 1996.5 1733.0 1992.0Q1672.5 1987.5 1617.5 1946.5Q1585.5 1915.5 1539.5 1879.5Q1493.5 1843.5 1435.5 1806.5Q1306.5 1878.5 1118.0 1922.0Q929.5 1965.5 657.5 1989.5L649.5 1962.5Q851.5 1914.5 998.5 1854.0Q1145.5 1793.5 1247.5 1710.5Q1214.5 1696.5 1179.5 1683.0Q1144.5 1669.5 1105.5 1657.5L1054.5 1728.5Q1006.5 1742.5 934.0 1732.5Q861.5 1722.5 796.5 1683.5Q833.5 1636.5 878.5 1569.5Q923.5 1502.5 968.5 1429.5H718.5L702.5 1372.5H1003.5Q1041.5 1306.5 1073.5 1248.0Q1105.5 1189.5 1122.5 1149.5ZM1259.5 1429.5 1144.5 1601.5Q1198.5 1603.5 1247.5 1606.5Q1296.5 1609.5 1341.5 1612.5Q1375.5 1572.5 1400.5 1526.5Q1425.5 1480.5 1443.5 1429.5ZM1202.5 739.5H1087.5V760.5Q1087.5 772.5 1041.5 795.5Q995.5 818.5 935.5 827.5L1064.5 876.5H1202.5ZM1449.5 739.5V876.5H1589.5L1654.5 809.5L1621.5 811.5H1580.5V739.5ZM1202.5 1089.5V934.5H1052.5V1089.5ZM1449.5 1089.5H1607.5V934.5H1449.5Z" fill="black"></path></svg>