<?xml version="1.0" standalone="no"?>
<!DOCTYPE svg PUBLIC "-//W3C//DTD SVG 1.1//EN" "http://www.w3.org/Graphics/SVG/1.1/DTD/svg11.dtd" >
<svg xmlns="http://www.w3.org/2000/svg" xmlns:svg="http://www.w3.org/2000/svg" xmlns:xlink="http://www.w3.org/1999/xlink" viewBox="0 0 2048 2048" style=""><path d="M939.0 680.0V950.0H1103.0V680.0ZM939.0 622.0H1103.0V364.0H939.0ZM1717.0 346.0 1996.0 483.0Q1990.0 498.0 1971.0 506.0Q1952.0 514.0 1914.0 510.0Q1875.0 554.0 1819.5 611.5Q1764.0 669.0 1701.0 731.0Q1827.0 767.0 1894.0 818.0Q1961.0 869.0 1982.5 923.5Q2004.0 978.0 1990.5 1024.0Q1977.0 1070.0 1940.0 1097.0Q1903.0 1124.0 1854.0 1120.5Q1805.0 1117.0 1756.0 1071.0Q1759.0 999.0 1744.0 928.0Q1667.0 998.0 1529.0 1112.0Q1510.0 1152.0 1474.0 1159.0L1342.0 907.0V1020.0Q1341.0 1028.0 1308.5 1043.0Q1276.0 1058.0 1230.0 1070.5Q1184.0 1083.0 1144.0 1083.0H1103.0V1007.0H939.0V1048.0Q939.0 1058.0 919.5 1071.5Q900.0 1085.0 867.0 1097.0L1254.0 1130.0Q1251.0 1150.0 1236.5 1165.5Q1222.0 1181.0 1179.0 1188.0V1302.0H1566.0L1717.0 1110.0Q1717.0 1110.0 1745.0 1131.0Q1773.0 1152.0 1816.5 1185.5Q1860.0 1219.0 1907.5 1256.5Q1955.0 1294.0 1994.0 1327.0Q1985.0 1360.0 1934.0 1360.0H1238.0Q1328.0 1427.0 1455.5 1476.5Q1583.0 1526.0 1726.5 1557.0Q1870.0 1588.0 2008.0 1599.0L2006.0 1624.0Q1923.0 1648.0 1864.5 1721.0Q1806.0 1794.0 1783.0 1904.0Q1560.0 1826.0 1415.5 1694.5Q1271.0 1563.0 1179.0 1368.0V1927.0Q1179.0 1937.0 1139.5 1953.5Q1100.0 1970.0 1039.5 1983.5Q979.0 1997.0 916.0 1997.0H863.0V1573.0Q707.0 1691.0 502.0 1781.0Q297.0 1871.0 60.0 1931.0L48.0 1908.0Q246.0 1807.0 407.5 1658.0Q569.0 1509.0 669.0 1360.0H75.0L58.0 1302.0H863.0V1100.0Q837.0 1109.0 807.0 1115.5Q777.0 1122.0 744.0 1122.0H712.0V1036.0Q701.0 1086.0 664.5 1115.5Q628.0 1145.0 579.5 1141.5Q531.0 1138.0 486.0 1089.0Q493.0 1024.0 486.0 956.0Q442.0 993.0 379.0 1041.0Q316.0 1089.0 234.0 1149.0Q227.0 1170.0 211.5 1181.5Q196.0 1193.0 179.0 1198.0L40.0 919.0L251.0 907.0Q292.0 822.0 338.0 716.5Q384.0 611.0 425.5 511.0Q467.0 411.0 493.0 344.0L712.0 442.0V213.0L916.0 295.0Q918.0 241.0 919.0 173.0Q920.0 105.0 919.0 51.0L1224.0 88.0Q1215.0 139.0 1148.0 145.0Q1119.0 180.0 1073.0 225.0Q1027.0 270.0 988.0 307.0H1086.0L1191.0 196.0L1375.0 338.0Q1441.0 347.0 1488.0 362.0Q1508.0 284.0 1526.5 195.5Q1545.0 107.0 1555.0 53.0L1854.0 192.0Q1848.0 208.0 1831.5 216.0Q1815.0 224.0 1775.0 219.0Q1739.0 253.0 1675.5 299.5Q1612.0 346.0 1555.0 389.0Q1600.0 413.0 1621.0 444.0Q1642.0 475.0 1646.0 506.0ZM712.0 968.0V504.0H706.0Q667.0 550.0 608.0 611.5Q549.0 673.0 484.0 737.0Q595.0 789.0 648.0 850.5Q701.0 912.0 712.0 968.0ZM1357.0 385.0 1342.0 391.0V899.0L1461.0 891.0Q1493.0 829.0 1528.0 757.5Q1563.0 686.0 1596.0 614.0Q1561.0 639.0 1512.0 639.0Q1463.0 639.0 1414.0 598.0Q1416.0 544.0 1399.5 487.5Q1383.0 431.0 1357.0 385.0ZM337.0 51.0 642.0 170.0Q637.0 185.0 619.5 194.5Q602.0 204.0 562.0 200.0Q530.0 237.0 474.5 291.0Q419.0 345.0 366.0 397.0Q419.0 445.0 419.0 497.5Q419.0 550.0 383.5 587.5Q348.0 625.0 292.5 630.0Q237.0 635.0 179.0 588.0Q182.0 514.0 154.5 440.0Q127.0 366.0 89.0 315.0L105.0 305.0Q213.0 317.0 282.0 348.0Q298.0 268.0 313.0 185.5Q328.0 103.0 337.0 51.0ZM476.0 889.0Q472.0 858.0 463.5 830.0Q455.0 802.0 445.0 774.0L314.0 901.0ZM1730.0 866.0Q1711.0 801.0 1682.0 747.0L1537.0 884.0Z" fill="black"></path></svg>