<?xml version="1.0" standalone="no"?>
<!DOCTYPE svg PUBLIC "-//W3C//DTD SVG 1.1//EN" "http://www.w3.org/Graphics/SVG/1.1/DTD/svg11.dtd" >
<svg xmlns="http://www.w3.org/2000/svg" xmlns:svg="http://www.w3.org/2000/svg" xmlns:xlink="http://www.w3.org/1999/xlink" viewBox="0 0 2048 2048" style=""><path d="M1134.0 364.5 1502.0 399.5Q1499.0 421.5 1483.5 436.0Q1468.0 450.5 1431.0 457.5V885.5Q1495.0 812.5 1560.0 726.5Q1625.0 640.5 1679.0 553.5L1994.0 803.5Q1979.0 821.5 1957.0 825.5Q1935.0 829.5 1891.0 817.5Q1779.0 883.5 1660.0 930.0Q1541.0 976.5 1431.0 1003.5V1581.5Q1431.0 1610.5 1444.0 1621.5Q1457.0 1632.5 1494.0 1632.5H1619.0Q1648.0 1632.5 1674.5 1632.5Q1701.0 1632.5 1717.0 1632.5Q1734.0 1631.5 1748.5 1625.5Q1763.0 1619.5 1777.0 1603.5Q1797.0 1573.5 1825.5 1495.5Q1854.0 1417.5 1883.0 1325.5H1904.0L1912.0 1616.5Q1967.0 1643.5 1987.5 1672.5Q2008.0 1701.5 2008.0 1741.5Q2008.0 1831.5 1915.5 1876.5Q1823.0 1921.5 1586.0 1921.5H1418.0Q1307.0 1921.5 1245.0 1900.0Q1183.0 1878.5 1158.5 1823.0Q1134.0 1767.5 1134.0 1667.5V743.5Q1116.0 766.5 1060.0 772.5Q1020.0 963.5 950.5 1143.0Q881.0 1322.5 768.5 1481.0Q656.0 1639.5 487.5 1768.5Q319.0 1897.5 81.0 1986.5L65.0 1964.5Q258.0 1835.5 393.0 1659.0Q528.0 1482.5 614.0 1276.5Q575.0 1293.5 526.5 1287.0Q478.0 1280.5 429.0 1243.5Q428.0 1186.5 410.5 1129.0Q393.0 1071.5 364.0 1022.5Q225.0 1180.5 54.0 1292.5L40.0 1276.5Q134.0 1145.5 209.0 983.5Q284.0 821.5 333.0 652.0Q382.0 482.5 399.0 330.5H65.0L48.0 272.5H1517.0L1683.0 61.5Q1683.0 61.5 1713.5 84.5Q1744.0 107.5 1791.0 144.0Q1838.0 180.5 1889.5 221.5Q1941.0 262.5 1984.0 297.5Q1975.0 330.5 1922.0 330.5H745.0Q698.0 496.5 611.0 663.5H743.0L890.0 512.5L1134.0 725.5ZM687.0 1065.5Q712.0 982.5 730.5 895.5Q749.0 808.5 761.0 721.5H579.0Q515.0 833.5 433.0 940.5Q539.0 954.5 600.0 989.0Q661.0 1023.5 687.0 1065.5Z" fill="black"></path></svg>