<?xml version="1.0" standalone="no"?>
<!DOCTYPE svg PUBLIC "-//W3C//DTD SVG 1.1//EN" "http://www.w3.org/Graphics/SVG/1.1/DTD/svg11.dtd" >
<svg xmlns="http://www.w3.org/2000/svg" xmlns:svg="http://www.w3.org/2000/svg" xmlns:xlink="http://www.w3.org/1999/xlink" viewBox="0 0 2048 2048" style=""><path d="M722.5 1469.5Q863.5 1485.5 943.5 1527.0Q1023.5 1568.5 1055.0 1620.5Q1086.5 1672.5 1080.0 1722.0Q1073.5 1771.5 1039.5 1804.5Q1005.5 1837.5 955.5 1840.5Q905.5 1843.5 849.5 1802.5Q843.5 1716.5 801.0 1628.0Q758.5 1539.5 706.5 1481.5ZM440.5 1454.5 728.5 1600.5Q721.5 1615.5 705.0 1623.5Q688.5 1631.5 651.5 1628.5Q578.5 1722.5 468.0 1818.0Q357.5 1913.5 221.5 1974.5L202.5 1952.5Q259.5 1884.5 307.0 1796.5Q354.5 1708.5 388.5 1618.5Q422.5 1528.5 440.5 1454.5ZM397.5 254.5V514.5H778.5V254.5ZM1157.5 193.5V96.5L1425.5 193.5H1476.5L1593.5 68.5L1800.5 238.5Q1780.5 260.5 1734.5 268.5V547.5Q1734.5 574.5 1757.5 574.5H1777.5Q1783.5 574.5 1789.5 574.5Q1795.5 574.5 1800.5 574.5Q1807.5 574.5 1816.5 571.5Q1825.5 568.5 1832.5 557.5Q1843.5 540.5 1862.0 495.0Q1880.5 449.5 1902.5 387.5H1925.5L1931.5 561.5Q1969.5 581.5 1981.0 605.0Q1992.5 628.5 1992.5 662.5Q1992.5 728.5 1931.0 769.0Q1869.5 809.5 1744.5 809.5H1669.5Q1591.5 809.5 1555.5 791.0Q1519.5 772.5 1509.5 729.5Q1499.5 686.5 1499.5 612.5V250.5H1388.5V361.5Q1388.5 419.5 1378.5 492.0Q1368.5 564.5 1337.5 640.5Q1306.5 716.5 1244.0 787.5Q1181.5 858.5 1077.5 914.5L1122.5 965.5Q1118.5 975.5 1113.5 977.5H1552.5L1691.5 838.5L1929.5 1043.5Q1912.5 1069.5 1849.5 1077.5Q1813.5 1203.5 1760.0 1317.0Q1706.5 1430.5 1630.5 1530.5Q1720.5 1591.5 1823.5 1637.5Q1926.5 1683.5 2033.5 1716.5L2029.5 1739.5Q1856.5 1774.5 1795.5 1976.5Q1699.5 1917.5 1619.0 1849.0Q1538.5 1780.5 1474.5 1694.5Q1368.5 1786.5 1228.5 1858.0Q1088.5 1929.5 909.5 1979.5L894.5 1956.5Q1054.5 1878.5 1174.0 1771.0Q1293.5 1663.5 1376.5 1532.5Q1277.5 1338.5 1228.5 1034.5H1107.5L1095.5 993.5Q1089.5 995.5 1083.5 997.0Q1077.5 998.5 1070.5 998.5H903.5V1364.5H907.5L997.5 1221.5Q997.5 1221.5 1025.5 1249.5Q1053.5 1277.5 1090.5 1316.5Q1127.5 1355.5 1154.5 1389.5Q1146.5 1421.5 1101.5 1421.5H315.5Q276.5 1552.5 209.5 1674.5Q142.5 1796.5 34.5 1899.5L14.5 1886.5Q77.5 1704.5 104.0 1497.5Q130.5 1290.5 136.0 1081.5Q141.5 872.5 141.5 682.5V94.5L436.5 197.5H757.5L874.5 74.5L1113.5 252.5Q1104.5 263.5 1086.0 274.5Q1067.5 285.5 1040.5 291.5V578.5Q1039.5 586.5 1003.5 602.5Q967.5 618.5 917.5 632.0Q867.5 645.5 823.5 645.5H778.5V572.5H397.5V682.5Q397.5 742.5 397.0 807.0Q396.5 871.5 393.5 940.5H440.5V664.5L671.5 686.5Q668.5 718.5 630.5 723.5V940.5H710.5V664.5L944.5 686.5Q940.5 718.5 903.5 723.5V924.5L976.5 809.5L1052.5 887.5Q1102.5 805.5 1124.5 714.5Q1146.5 623.5 1152.0 532.5Q1157.5 441.5 1157.5 361.5ZM389.5 998.5Q382.5 1087.5 369.5 1180.0Q356.5 1272.5 331.5 1364.5H440.5V998.5ZM630.5 998.5V1364.5H710.5V998.5ZM1566.5 1034.5H1265.5Q1297.5 1140.5 1346.5 1226.0Q1395.5 1311.5 1458.5 1380.5Q1494.5 1299.5 1521.5 1213.5Q1548.5 1127.5 1566.5 1034.5Z" fill="black"></path></svg>