<?xml version="1.0" standalone="no"?>
<!DOCTYPE svg PUBLIC "-//W3C//DTD SVG 1.1//EN" "http://www.w3.org/Graphics/SVG/1.1/DTD/svg11.dtd" >
<svg xmlns="http://www.w3.org/2000/svg" xmlns:svg="http://www.w3.org/2000/svg" xmlns:xlink="http://www.w3.org/1999/xlink" viewBox="0 0 2048 2048" style=""><path d="M768.5 394.0Q923.5 388.0 1015.0 418.0Q1106.5 448.0 1146.5 497.5Q1186.5 547.0 1184.5 599.0Q1182.5 651.0 1149.5 690.0Q1116.5 729.0 1062.0 738.0Q1007.5 747.0 942.5 710.0Q925.5 625.0 871.5 542.0Q817.5 459.0 754.5 406.0ZM717.5 1033.0Q881.5 1029.0 979.5 1062.5Q1077.5 1096.0 1121.5 1149.0Q1165.5 1202.0 1166.0 1258.0Q1166.5 1314.0 1133.5 1356.0Q1100.5 1398.0 1045.0 1409.0Q989.5 1420.0 922.5 1381.0Q900.5 1288.0 838.0 1196.0Q775.5 1104.0 703.5 1045.0ZM1391.5 284.0H650.5Q640.5 396.0 624.5 548.0Q608.5 700.0 588.5 869.0H1370.5Q1377.5 742.0 1382.0 595.5Q1386.5 449.0 1391.5 284.0ZM31.5 869.0H303.5Q331.5 653.0 352.5 455.0Q373.5 257.0 385.5 105.0L701.5 226.0H1366.5L1528.5 58.0L1784.5 294.0Q1770.5 309.0 1747.5 321.0Q1724.5 333.0 1684.5 339.0Q1679.5 488.0 1675.5 619.0Q1671.5 750.0 1665.5 865.0L1790.5 677.0Q1790.5 677.0 1814.0 698.5Q1837.5 720.0 1873.5 753.5Q1909.5 787.0 1948.0 824.5Q1986.5 862.0 2016.5 894.0Q2007.5 927.0 1958.5 927.0H1663.5Q1654.5 1117.0 1642.0 1264.5Q1629.5 1412.0 1612.5 1521.0H1633.5L1755.5 1338.0Q1755.5 1338.0 1794.0 1373.0Q1832.5 1408.0 1884.0 1456.0Q1935.5 1504.0 1975.5 1545.0Q1966.5 1578.0 1917.5 1578.0H1602.5Q1580.5 1693.0 1550.5 1766.5Q1520.5 1840.0 1479.5 1881.0Q1413.5 1950.0 1327.0 1970.0Q1240.5 1990.0 1114.5 1990.0Q1114.5 1930.0 1103.5 1887.5Q1092.5 1845.0 1061.5 1815.0Q999.5 1750.0 826.5 1713.0L828.5 1689.0Q882.5 1693.0 944.5 1697.0Q1006.5 1701.0 1061.0 1704.0Q1115.5 1707.0 1147.5 1707.0Q1176.5 1707.0 1196.0 1699.0Q1215.5 1691.0 1235.5 1674.0Q1265.5 1647.0 1286.5 1578.0H496.5L473.5 1727.0Q427.5 1757.0 364.0 1763.5Q300.5 1770.0 172.5 1746.0Q206.5 1558.0 238.0 1347.0Q269.5 1136.0 295.5 927.0H47.5ZM1366.5 927.0H580.5Q563.5 1079.0 543.5 1231.5Q523.5 1384.0 504.5 1521.0H1301.5Q1324.5 1425.0 1340.5 1276.5Q1356.5 1128.0 1366.5 927.0Z" fill="black"></path></svg>