<?xml version="1.0" standalone="no"?>
<!DOCTYPE svg PUBLIC "-//W3C//DTD SVG 1.1//EN" "http://www.w3.org/Graphics/SVG/1.1/DTD/svg11.dtd" >
<svg xmlns="http://www.w3.org/2000/svg" xmlns:svg="http://www.w3.org/2000/svg" xmlns:xlink="http://www.w3.org/1999/xlink" viewBox="0 0 2048 2048" style=""><path d="M49.0 1870.0H344.0V588.0L739.0 620.0Q736.0 643.0 721.5 658.5Q707.0 674.0 664.0 680.0V1870.0H924.0V121.0L1321.0 158.0Q1318.0 181.0 1304.0 196.0Q1290.0 211.0 1247.0 217.0V911.0H1423.0L1589.0 696.0Q1589.0 696.0 1619.5 719.5Q1650.0 743.0 1697.5 780.0Q1745.0 817.0 1796.5 858.5Q1848.0 900.0 1890.0 936.0Q1881.0 969.0 1829.0 969.0H1247.0V1870.0H1518.0L1690.0 1651.0Q1690.0 1651.0 1721.0 1674.5Q1752.0 1698.0 1800.5 1735.5Q1849.0 1773.0 1902.0 1815.0Q1955.0 1857.0 1999.0 1894.0Q1990.0 1927.0 1937.0 1927.0H66.0Z" fill="black"></path></svg>