<?xml version="1.0" standalone="no"?>
<!DOCTYPE svg PUBLIC "-//W3C//DTD SVG 1.1//EN" "http://www.w3.org/Graphics/SVG/1.1/DTD/svg11.dtd" >
<svg xmlns="http://www.w3.org/2000/svg" xmlns:svg="http://www.w3.org/2000/svg" xmlns:xlink="http://www.w3.org/1999/xlink" viewBox="0 0 2048 2048" style=""><path d="M40.5 257.5H249.5V54.5L550.5 81.5Q547.5 99.5 536.0 113.0Q524.5 126.5 493.5 134.5V257.5H638.5V54.5L941.5 81.5Q940.5 98.5 928.0 113.5Q915.5 128.5 884.5 134.5V257.5H915.5L1001.5 134.5Q1001.5 134.5 1030.5 158.0Q1059.5 181.5 1099.5 216.0Q1139.5 250.5 1171.5 281.5Q1162.5 314.5 1120.5 314.5H884.5V398.5Q884.5 409.5 843.0 428.5Q801.5 447.5 685.5 447.5H638.5V314.5H493.5V406.5Q493.5 415.5 453.0 435.5Q412.5 455.5 300.5 455.5H249.5V314.5H55.5ZM294.5 589.5V773.5H360.5V589.5ZM1232.5 54.5 1589.5 150.5Q1581.5 170.5 1562.0 183.0Q1542.5 195.5 1507.5 195.5Q1484.5 274.5 1456.5 347.5Q1428.5 420.5 1396.5 486.5H1670.5L1797.5 359.5L2017.5 568.5Q2004.5 582.5 1986.0 587.5Q1967.5 592.5 1935.5 595.5Q1899.5 645.5 1849.0 706.5Q1798.5 767.5 1744.0 826.0Q1689.5 884.5 1640.5 929.5L1619.5 916.5Q1639.5 839.5 1658.5 734.0Q1677.5 628.5 1689.5 543.5H1552.5Q1566.5 826.5 1614.0 1040.5Q1661.5 1254.5 1756.5 1405.5Q1851.5 1556.5 2008.5 1651.5L2006.5 1676.5Q1908.5 1702.5 1848.5 1785.5Q1788.5 1868.5 1771.5 1993.5Q1692.5 1899.5 1644.5 1744.5Q1596.5 1589.5 1571.0 1389.0Q1545.5 1188.5 1533.5 955.5Q1516.5 1174.5 1461.0 1363.5Q1405.5 1552.5 1279.0 1709.5Q1152.5 1866.5 923.5 1991.5L900.5 1963.5Q931.5 1934.5 958.0 1905.0Q984.5 1875.5 1009.5 1846.5H427.5V1920.5Q427.5 1932.5 374.0 1962.0Q320.5 1991.5 227.5 1991.5H182.5V1352.5Q151.5 1382.5 119.5 1407.0Q87.5 1431.5 55.5 1453.5L30.5 1434.5Q87.5 1339.5 142.0 1200.0Q196.5 1060.5 233.5 912.5Q214.5 918.5 192.0 922.5Q169.5 926.5 143.5 926.5H110.5V447.5L321.5 531.5H345.5L427.5 447.5L601.5 576.5Q595.5 584.5 581.0 592.5Q566.5 600.5 546.5 603.5V853.5Q545.5 860.5 519.0 872.0Q492.5 883.5 457.0 893.0Q421.5 902.5 393.5 902.5H360.5V830.5H294.5V871.5Q294.5 881.5 270.5 894.5L522.5 984.5Q508.5 1026.5 442.5 1023.5L397.5 1098.5L454.5 1121.5H544.5Q546.5 1072.5 547.5 1015.0Q548.5 957.5 546.5 912.5L861.5 963.5Q857.5 983.5 841.0 996.5Q824.5 1009.5 790.5 1010.5Q761.5 1037.5 722.0 1065.5Q682.5 1093.5 640.5 1121.5H812.5L921.5 986.5Q921.5 986.5 956.0 1012.5Q990.5 1038.5 1037.5 1075.5Q1084.5 1112.5 1122.5 1146.5Q1113.5 1178.5 1066.5 1178.5H780.5V1338.5H804.5L909.5 1209.5Q909.5 1209.5 941.5 1234.5Q973.5 1259.5 1018.0 1295.5Q1062.5 1331.5 1099.5 1363.5Q1090.5 1395.5 1046.5 1395.5H780.5V1561.5H804.5L909.5 1432.5Q909.5 1432.5 941.5 1458.0Q973.5 1483.5 1018.0 1519.0Q1062.5 1554.5 1099.5 1586.5Q1090.5 1619.5 1046.5 1619.5H780.5V1789.5H831.5L943.5 1647.5L1077.5 1752.5Q1174.5 1601.5 1218.0 1433.5Q1261.5 1265.5 1273.0 1079.0Q1284.5 892.5 1285.5 685.5Q1183.5 839.5 1044.5 953.5L1019.5 937.5L1058.5 845.5Q1121.5 679.5 1168.5 472.0Q1215.5 264.5 1232.5 54.5ZM427.5 1178.5V1338.5H538.5V1178.5ZM427.5 1395.5V1561.5H538.5V1395.5ZM427.5 1619.5V1789.5H538.5V1619.5ZM798.5 589.5V773.5H868.5V589.5ZM610.5 531.5V447.5L825.5 531.5H853.5L937.5 445.5L1113.5 576.5Q1098.5 596.5 1058.5 605.5V845.5Q1056.5 852.5 1029.5 864.0Q1002.5 875.5 966.5 885.0Q930.5 894.5 900.5 894.5H868.5V830.5H798.5V855.5Q798.5 864.5 757.0 887.5Q715.5 910.5 642.5 910.5H610.5Z" fill="black"></path></svg>