<?xml version="1.0" standalone="no"?>
<!DOCTYPE svg PUBLIC "-//W3C//DTD SVG 1.1//EN" "http://www.w3.org/Graphics/SVG/1.1/DTD/svg11.dtd" >
<svg xmlns="http://www.w3.org/2000/svg" xmlns:svg="http://www.w3.org/2000/svg" xmlns:xlink="http://www.w3.org/1999/xlink" viewBox="0 0 2048 2048" style=""><path d="M1707.0 456.0 1988.0 716.0Q1972.0 733.0 1949.5 735.5Q1927.0 738.0 1887.0 724.0Q1765.0 790.0 1634.0 835.0Q1503.0 880.0 1388.0 904.0V1574.0Q1388.0 1609.0 1405.0 1623.0Q1422.0 1637.0 1464.0 1637.0H1599.0Q1629.0 1637.0 1657.0 1636.0Q1685.0 1635.0 1703.0 1635.0Q1722.0 1634.0 1737.0 1628.0Q1752.0 1622.0 1765.0 1605.0Q1788.0 1572.0 1817.0 1489.0Q1846.0 1406.0 1875.0 1310.0H1896.0L1906.0 1619.0Q1961.0 1647.0 1982.5 1675.0Q2004.0 1703.0 2004.0 1742.0Q2004.0 1804.0 1963.5 1845.0Q1923.0 1886.0 1828.0 1906.0Q1733.0 1926.0 1568.0 1926.0H1394.0Q1281.0 1926.0 1216.5 1904.5Q1152.0 1883.0 1124.5 1827.0Q1097.0 1771.0 1097.0 1666.0V81.0L1461.0 120.0Q1460.0 140.0 1444.0 155.5Q1428.0 171.0 1388.0 177.0V822.0Q1466.0 747.0 1550.5 649.5Q1635.0 552.0 1707.0 456.0ZM298.0 81.0 661.0 114.0Q658.0 135.0 643.0 151.0Q628.0 167.0 585.0 173.0V794.0H673.0L825.0 552.0Q825.0 552.0 852.5 578.5Q880.0 605.0 922.0 646.5Q964.0 688.0 1009.0 734.0Q1054.0 780.0 1089.0 818.0Q1080.0 851.0 1029.0 851.0H585.0V1549.0L1081.0 1469.0L1083.0 1490.0Q964.0 1568.0 768.5 1671.5Q573.0 1775.0 272.0 1912.0Q262.0 1933.0 245.5 1947.0Q229.0 1961.0 210.0 1967.0L44.0 1625.0L298.0 1592.0Z" fill="black"></path></svg>