<?xml version="1.0" standalone="no"?>
<!DOCTYPE svg PUBLIC "-//W3C//DTD SVG 1.1//EN" "http://www.w3.org/Graphics/SVG/1.1/DTD/svg11.dtd" >
<svg xmlns="http://www.w3.org/2000/svg" xmlns:svg="http://www.w3.org/2000/svg" xmlns:xlink="http://www.w3.org/1999/xlink" viewBox="0 0 2048 2048" style=""><path d="M41.0 1650.5 215.0 1623.5V466.5L547.0 495.5Q544.0 513.5 531.5 527.0Q519.0 540.5 483.0 546.5V1580.5L612.0 1558.5V59.5L973.0 91.5Q970.0 113.5 955.0 129.5Q940.0 145.5 897.0 151.5V736.5L1022.0 511.5Q1022.0 511.5 1049.5 541.5Q1077.0 571.5 1118.0 617.5Q1159.0 663.5 1198.0 710.5V59.5L1565.0 97.5Q1563.0 117.5 1547.0 133.5Q1531.0 149.5 1491.0 155.5V771.5Q1548.0 705.5 1605.5 627.5Q1663.0 549.5 1714.0 472.5L2007.0 716.5Q1992.0 734.5 1969.0 738.5Q1946.0 742.5 1904.0 728.5Q1803.0 780.5 1695.5 818.0Q1588.0 855.5 1491.0 878.5V1576.5Q1491.0 1607.5 1503.5 1619.5Q1516.0 1631.5 1550.0 1631.5H1646.0Q1669.0 1631.5 1689.0 1631.5Q1709.0 1631.5 1724.0 1629.5Q1738.0 1629.5 1752.5 1624.0Q1767.0 1618.5 1780.0 1603.5Q1800.0 1570.5 1828.0 1487.0Q1856.0 1403.5 1882.0 1312.5H1902.0L1913.0 1619.5Q1965.0 1645.5 1985.0 1675.0Q2005.0 1704.5 2005.0 1742.5Q2005.0 1831.5 1917.5 1877.0Q1830.0 1922.5 1614.0 1922.5H1466.0Q1362.0 1922.5 1303.5 1900.5Q1245.0 1878.5 1221.5 1823.5Q1198.0 1768.5 1198.0 1668.5V1472.5Q1063.0 1558.5 842.5 1672.5Q622.0 1786.5 282.0 1935.5Q262.0 1978.5 223.0 1988.5ZM1198.0 812.5H897.0V1504.5L1198.0 1447.5Z" fill="black"></path></svg>