<?xml version="1.0" standalone="no"?>
<!DOCTYPE svg PUBLIC "-//W3C//DTD SVG 1.1//EN" "http://www.w3.org/Graphics/SVG/1.1/DTD/svg11.dtd" >
<svg xmlns="http://www.w3.org/2000/svg" xmlns:svg="http://www.w3.org/2000/svg" xmlns:xlink="http://www.w3.org/1999/xlink" viewBox="0 0 2048 2048" style=""><path d="M479.0 805.0 823.0 995.0Q816.0 1010.0 799.0 1018.5Q782.0 1027.0 745.0 1024.0Q630.0 1148.0 452.0 1268.5Q274.0 1389.0 59.0 1458.0L45.0 1440.0Q142.0 1355.0 227.5 1243.0Q313.0 1131.0 378.0 1016.0Q443.0 901.0 479.0 805.0ZM1509.0 915.0 1870.0 1102.0Q1846.0 1137.0 1772.0 1128.0Q1619.0 1364.0 1448.5 1521.0Q1278.0 1678.0 1085.0 1774.0Q892.0 1870.0 672.5 1921.0Q453.0 1972.0 201.0 1997.0L195.0 1970.0Q405.0 1908.0 597.0 1825.5Q789.0 1743.0 957.0 1623.0Q1125.0 1503.0 1264.5 1330.0Q1404.0 1157.0 1509.0 915.0ZM383.0 203.0 731.0 231.0Q728.0 250.0 715.0 263.0Q702.0 276.0 664.0 282.0V729.0H879.0V51.0L1253.0 80.0Q1250.0 101.0 1236.5 116.0Q1223.0 131.0 1180.0 139.0V395.0H1366.0L1528.0 196.0Q1528.0 196.0 1557.5 217.5Q1587.0 239.0 1633.0 273.5Q1679.0 308.0 1729.0 346.5Q1779.0 385.0 1821.0 420.0Q1812.0 452.0 1759.0 452.0H1180.0V729.0H1556.0L1716.0 530.0Q1716.0 530.0 1745.0 552.0Q1774.0 574.0 1819.0 608.0Q1864.0 642.0 1913.0 681.0Q1962.0 720.0 2003.0 753.0Q1994.0 786.0 1944.0 786.0H905.0L1241.0 813.0Q1235.0 855.0 1176.0 864.0V1212.0Q1176.0 1305.0 1151.5 1368.5Q1127.0 1432.0 1051.5 1468.5Q976.0 1505.0 821.0 1517.0Q817.0 1454.0 808.0 1408.0Q799.0 1362.0 774.0 1333.0Q751.0 1307.0 716.5 1285.0Q682.0 1263.0 604.0 1249.0V1224.0Q604.0 1224.0 635.5 1226.0Q667.0 1228.0 710.5 1230.5Q754.0 1233.0 792.5 1235.0Q831.0 1237.0 846.0 1237.0Q879.0 1237.0 879.0 1208.0V786.0H66.0L49.0 729.0H383.0Z" fill="black"></path></svg>