<?xml version="1.0" standalone="no"?>
<!DOCTYPE svg PUBLIC "-//W3C//DTD SVG 1.1//EN" "http://www.w3.org/Graphics/SVG/1.1/DTD/svg11.dtd" >
<svg xmlns="http://www.w3.org/2000/svg" xmlns:svg="http://www.w3.org/2000/svg" xmlns:xlink="http://www.w3.org/1999/xlink" viewBox="0 0 2048 2048" style=""><path d="M873.5 426.0H1520.5V260.0H1012.5L994.5 203.0H1500.5L1614.5 80.0L1850.5 258.0Q1842.5 269.0 1824.0 280.0Q1805.5 291.0 1776.5 297.0V426.0L1868.5 282.0Q1868.5 282.0 1896.5 310.0Q1924.5 338.0 1961.5 377.5Q1998.5 417.0 2026.5 450.0Q2017.5 483.0 1973.5 483.0H1776.5V731.0Q1775.5 738.0 1740.0 752.0Q1704.5 766.0 1655.5 777.0Q1606.5 788.0 1565.5 788.0H1520.5V710.0H998.5L979.5 653.0H1520.5V483.0H889.5ZM338.5 51.0 664.5 108.0Q655.5 158.0 584.5 162.0Q555.5 194.0 514.0 233.5Q472.5 273.0 435.5 307.0H596.5L701.5 198.0L916.5 358.0Q908.5 367.0 892.0 377.5Q875.5 388.0 850.5 393.0V588.0Q849.5 598.0 805.5 618.0Q761.5 638.0 709.5 647.0L922.5 805.0Q914.5 814.0 898.0 823.5Q881.5 833.0 857.5 839.0V979.0Q876.5 962.0 908.5 948.0Q948.5 928.0 984.0 881.5Q1019.5 835.0 1014.5 784.0H1043.5Q1054.5 807.0 1061.0 829.0Q1067.5 851.0 1074.5 872.0H1698.5L1817.5 751.0L2026.5 952.0Q2006.5 972.0 1948.5 975.0Q1911.5 1011.0 1858.0 1055.0Q1804.5 1099.0 1754.5 1132.0L1928.5 1261.0Q1920.5 1271.0 1904.0 1280.5Q1887.5 1290.0 1862.5 1296.0V1575.0Q1862.5 1660.0 1846.0 1718.5Q1829.5 1777.0 1774.5 1811.0Q1719.5 1845.0 1604.5 1855.0Q1604.5 1795.0 1602.0 1750.5Q1599.5 1706.0 1590.5 1677.0Q1582.5 1654.0 1569.5 1637.5Q1556.5 1621.0 1528.5 1612.0V1931.0Q1528.5 1941.0 1495.0 1956.5Q1461.5 1972.0 1411.0 1984.5Q1360.5 1997.0 1309.5 1997.0H1262.5V1265.0H1178.5V1790.0Q1178.5 1802.0 1125.5 1830.5Q1072.5 1859.0 979.5 1859.0H934.5V1184.0Q896.5 1185.0 862.5 1164.0Q828.5 1143.0 816.5 1102.0L811.5 1081.0Q782.5 1093.0 740.0 1104.5Q697.5 1116.0 662.5 1116.0H621.5V1073.0H613.5V1351.0L701.5 1210.0Q701.5 1210.0 731.5 1240.5Q761.5 1271.0 801.5 1314.0Q841.5 1357.0 871.5 1392.0Q865.5 1425.0 818.5 1425.0H613.5V1622.0L891.5 1581.0L895.5 1603.0Q788.5 1665.0 619.0 1748.5Q449.5 1832.0 203.5 1941.0Q188.5 1982.0 146.5 1992.0L21.5 1698.0L103.5 1689.0V1237.0L359.5 1259.0Q356.5 1275.0 346.0 1285.5Q335.5 1296.0 308.5 1300.0V1663.0L377.5 1655.0V1073.0H369.5V1091.0Q369.5 1104.0 318.0 1132.5Q266.5 1161.0 177.5 1161.0H134.5V209.0L330.5 282.0ZM705.5 649.0Q691.5 651.0 679.5 652.0Q667.5 653.0 656.5 653.0H615.5V616.0H369.5V753.0H603.5ZM615.5 364.0H369.5V559.0H615.5ZM621.5 811.0H369.5V1016.0H621.5ZM1262.5 966.0 1604.5 997.0Q1601.5 1019.0 1586.5 1033.5Q1571.5 1048.0 1528.5 1054.0V1208.0H1596.5L1700.5 1093.0L1717.5 930.0H1084.5Q1093.5 1002.0 1077.5 1056.0Q1061.5 1110.0 1029.5 1143.0L1205.5 1208.0H1262.5ZM1528.5 1265.0V1579.0L1588.5 1581.0Q1605.5 1581.0 1610.0 1572.5Q1614.5 1564.0 1614.5 1550.0V1265.0Z" fill="black"></path></svg>