<?xml version="1.0" standalone="no"?>
<!DOCTYPE svg PUBLIC "-//W3C//DTD SVG 1.1//EN" "http://www.w3.org/Graphics/SVG/1.1/DTD/svg11.dtd" >
<svg xmlns="http://www.w3.org/2000/svg" xmlns:svg="http://www.w3.org/2000/svg" xmlns:xlink="http://www.w3.org/1999/xlink" viewBox="0 0 2048 2048" style=""><path d="M642.5 520.0H427.5V710.0H642.5ZM693.5 47.0 954.5 291.0Q909.5 325.0 816.5 288.0Q744.5 304.0 645.5 315.5Q546.5 327.0 442.5 334.0L427.5 336.0V463.0H622.5L741.5 338.0L982.5 518.0Q973.5 529.0 956.0 540.0Q938.5 551.0 909.5 557.0V1020.0Q907.5 1029.0 872.0 1046.0Q836.5 1063.0 785.5 1077.0Q734.5 1091.0 689.5 1091.0H642.5V1026.0H427.5Q426.5 1075.0 424.5 1124.5Q422.5 1174.0 417.5 1224.0H622.5L755.5 1099.0L986.5 1288.0Q964.5 1316.0 906.5 1325.0Q900.5 1515.0 887.0 1632.0Q873.5 1749.0 845.5 1813.5Q817.5 1878.0 769.5 1910.0Q725.5 1943.0 666.5 1959.5Q607.5 1976.0 528.5 1974.0Q528.5 1917.0 522.0 1872.5Q515.5 1828.0 497.5 1802.0Q458.5 1748.0 366.5 1722.0V1700.0Q401.5 1703.0 453.5 1704.5Q505.5 1706.0 530.5 1706.0Q566.5 1706.0 583.5 1691.0Q606.5 1671.0 620.0 1574.5Q633.5 1478.0 640.5 1282.0H411.5Q395.5 1410.0 357.5 1536.5Q319.5 1663.0 246.0 1779.5Q172.5 1896.0 50.5 1994.0L28.5 1974.0Q95.5 1817.0 123.5 1637.0Q151.5 1457.0 156.5 1270.0Q161.5 1083.0 161.5 905.0V207.0L374.5 274.0Q465.5 222.0 553.5 159.0Q641.5 96.0 693.5 47.0ZM642.5 768.0H427.5V911.0V968.0H642.5ZM1527.5 1067.0H1158.5Q1198.5 1182.0 1260.5 1272.0Q1322.5 1362.0 1400.5 1431.0Q1487.5 1260.0 1527.5 1067.0ZM986.5 1009.0H1513.5L1660.5 862.0L1910.5 1077.0Q1901.5 1095.0 1883.5 1102.0Q1865.5 1109.0 1830.5 1114.0Q1792.5 1240.0 1734.0 1353.5Q1675.5 1467.0 1593.5 1566.0Q1691.5 1619.0 1799.0 1656.5Q1906.5 1694.0 2019.5 1722.0L2014.5 1745.0Q1832.5 1786.0 1769.5 2001.0Q1663.5 1947.0 1575.0 1882.5Q1486.5 1818.0 1412.5 1738.0Q1303.5 1823.0 1161.5 1888.5Q1019.5 1954.0 841.5 1997.0L831.5 1972.0Q983.5 1901.0 1101.0 1804.0Q1218.5 1707.0 1304.5 1589.0Q1242.5 1488.0 1198.0 1359.5Q1153.5 1231.0 1124.5 1067.0H1005.5ZM1054.5 225.0V121.0L1353.5 225.0H1425.5L1550.5 90.0L1773.5 270.0Q1754.5 292.0 1707.5 301.0V579.0Q1707.5 606.0 1730.5 606.0H1756.5Q1764.5 606.0 1772.0 606.0Q1779.5 606.0 1785.5 606.0Q1803.5 606.0 1820.5 590.0Q1832.5 573.0 1853.0 527.0Q1873.5 481.0 1898.5 420.0H1918.5L1924.5 596.0Q1966.5 617.0 1978.5 641.0Q1990.5 665.0 1990.5 700.0Q1990.5 772.0 1923.0 813.0Q1855.5 854.0 1720.5 854.0H1633.5Q1549.5 854.0 1509.5 834.0Q1469.5 814.0 1458.5 768.0Q1447.5 722.0 1447.5 643.0V282.0H1314.5V420.0Q1314.5 479.0 1302.0 551.5Q1289.5 624.0 1252.0 698.0Q1214.5 772.0 1139.5 839.5Q1064.5 907.0 939.5 958.0L927.5 940.0Q987.5 862.0 1014.5 772.5Q1041.5 683.0 1048.0 592.0Q1054.5 501.0 1054.5 420.0Z" fill="black"></path></svg>