<?xml version="1.0" standalone="no"?>
<!DOCTYPE svg PUBLIC "-//W3C//DTD SVG 1.1//EN" "http://www.w3.org/Graphics/SVG/1.1/DTD/svg11.dtd" >
<svg xmlns="http://www.w3.org/2000/svg" xmlns:svg="http://www.w3.org/2000/svg" xmlns:xlink="http://www.w3.org/1999/xlink" viewBox="0 0 2048 2048" style=""><path d="M595.5 108.0Q761.5 130.0 860.0 180.0Q958.5 230.0 1002.5 291.5Q1046.5 353.0 1047.5 411.5Q1048.5 470.0 1016.0 511.0Q983.5 552.0 930.0 560.0Q876.5 568.0 812.5 526.0Q786.5 419.0 719.0 308.0Q651.5 197.0 579.5 121.0ZM335.5 104.0 671.5 262.0Q653.5 302.0 585.5 293.0Q484.5 434.0 355.0 531.0Q225.5 628.0 81.5 686.0L63.5 670.0Q143.5 571.0 217.5 420.5Q291.5 270.0 335.5 104.0ZM698.5 1194.0H526.5V1616.0H698.5ZM677.5 1136.0 802.5 1003.0 847.5 1036.0Q829.5 967.0 785.0 869.0Q740.5 771.0 675.5 682.0Q618.5 777.0 537.0 875.5Q455.5 974.0 356.5 1065.0L554.5 1136.0ZM1189.5 49.0 1568.5 145.0Q1562.5 165.0 1543.0 177.5Q1523.5 190.0 1486.5 190.0Q1425.5 362.0 1339.5 498.0H1654.5L1789.5 362.0L2021.5 584.0Q1999.5 607.0 1939.5 610.0Q1901.5 660.0 1847.5 720.5Q1793.5 781.0 1734.0 839.0Q1674.5 897.0 1621.5 940.0L1603.5 928.0Q1623.5 851.0 1642.0 746.0Q1660.5 641.0 1672.5 555.0H1541.5V584.0Q1566.5 963.0 1666.5 1232.5Q1766.5 1502.0 1990.5 1651.0L1988.5 1675.0Q1889.5 1701.0 1828.5 1785.5Q1767.5 1870.0 1750.5 1999.0Q1678.5 1900.0 1632.5 1744.0Q1586.5 1588.0 1561.0 1392.5Q1535.5 1197.0 1523.5 981.0Q1508.5 1141.0 1470.0 1284.5Q1431.5 1428.0 1357.0 1554.5Q1282.5 1681.0 1157.5 1790.5Q1032.5 1900.0 843.5 1993.0L820.5 1964.0Q985.5 1826.0 1076.5 1673.0Q1167.5 1520.0 1207.5 1350.5Q1247.5 1181.0 1256.5 994.5Q1265.5 808.0 1265.5 602.0Q1167.5 728.0 1044.5 817.0Q1103.5 875.0 1110.0 930.5Q1116.5 986.0 1088.0 1027.5Q1059.5 1069.0 1010.5 1085.5Q961.5 1102.0 909.5 1083.0L1056.5 1194.0Q1048.5 1205.0 1030.5 1216.0Q1012.5 1227.0 984.5 1233.0V1732.0Q983.5 1742.0 945.0 1760.0Q906.5 1778.0 851.5 1793.0Q796.5 1808.0 747.5 1808.0H698.5V1673.0H526.5V1829.0Q526.5 1843.0 467.0 1876.0Q407.5 1909.0 302.5 1909.0H253.5V1151.0Q151.5 1231.0 42.5 1288.0L26.5 1274.0Q95.5 1196.0 158.0 1096.5Q220.5 997.0 273.0 889.0Q325.5 781.0 363.5 678.5Q401.5 576.0 421.5 493.0L784.5 606.0Q777.5 626.0 758.5 638.0Q739.5 650.0 696.5 653.0Q805.5 681.0 881.0 714.0Q956.5 747.0 1005.5 784.0Q1072.5 638.0 1122.0 444.0Q1171.5 250.0 1189.5 49.0Z" fill="black"></path></svg>