<?xml version="1.0" standalone="no"?>
<!DOCTYPE svg PUBLIC "-//W3C//DTD SVG 1.1//EN" "http://www.w3.org/Graphics/SVG/1.1/DTD/svg11.dtd" >
<svg xmlns="http://www.w3.org/2000/svg" xmlns:svg="http://www.w3.org/2000/svg" xmlns:xlink="http://www.w3.org/1999/xlink" viewBox="0 0 2048 2048" style=""><path d="M1649.0 386.5 1981.0 601.5Q1974.0 616.5 1956.0 624.5Q1938.0 632.5 1899.0 627.5Q1801.0 704.5 1665.0 797.0Q1529.0 889.5 1383.0 965.5Q1509.0 1174.5 1674.0 1300.0Q1839.0 1425.5 2008.0 1502.5L1998.0 1524.5Q1905.0 1543.5 1839.5 1617.0Q1774.0 1690.5 1744.0 1793.5Q1629.0 1691.5 1538.0 1574.0Q1447.0 1456.5 1378.0 1308.0Q1309.0 1159.5 1260.0 967.0Q1211.0 774.5 1181.0 521.5V1653.5Q1181.0 1755.5 1155.0 1826.0Q1129.0 1896.5 1046.5 1938.0Q964.0 1979.5 795.0 1993.5Q789.0 1920.5 776.0 1868.5Q763.0 1816.5 732.0 1780.5Q701.0 1747.5 657.0 1722.5Q613.0 1697.5 519.0 1680.5V1653.5Q519.0 1653.5 559.0 1656.0Q599.0 1658.5 654.5 1662.0Q710.0 1665.5 760.0 1668.0Q810.0 1670.5 830.0 1670.5Q877.0 1670.5 877.0 1633.5V761.5Q859.0 764.5 836.0 767.5Q789.0 970.5 696.5 1164.0Q604.0 1357.5 448.5 1520.5Q293.0 1683.5 56.0 1797.5L40.0 1776.5Q184.0 1647.5 284.0 1476.5Q384.0 1305.5 445.5 1112.0Q507.0 918.5 535.0 724.5H111.0L93.0 666.5H519.0L662.0 517.5L877.0 699.5V54.5L1252.0 91.5Q1249.0 112.5 1234.5 126.5Q1220.0 140.5 1181.0 146.5V386.5Q1207.0 542.5 1251.5 672.5Q1296.0 802.5 1353.0 908.5Q1411.0 823.5 1468.0 728.0Q1525.0 632.5 1572.5 542.5Q1620.0 452.5 1649.0 386.5Z" fill="black"></path></svg>