<?xml version="1.0" standalone="no"?>
<!DOCTYPE svg PUBLIC "-//W3C//DTD SVG 1.1//EN" "http://www.w3.org/Graphics/SVG/1.1/DTD/svg11.dtd" >
<svg xmlns="http://www.w3.org/2000/svg" xmlns:svg="http://www.w3.org/2000/svg" xmlns:xlink="http://www.w3.org/1999/xlink" viewBox="0 0 2048 2048" style=""><path d="M211.0 87.0Q367.0 85.0 459.5 117.5Q552.0 150.0 592.0 200.0Q632.0 250.0 631.0 302.0Q630.0 354.0 596.5 393.0Q563.0 432.0 508.5 441.5Q454.0 451.0 389.0 415.0Q365.0 329.0 308.5 242.5Q252.0 156.0 197.0 99.0ZM49.0 527.0Q199.0 534.0 284.5 571.0Q370.0 608.0 403.5 659.0Q437.0 710.0 430.0 760.0Q423.0 810.0 387.0 845.0Q351.0 880.0 296.0 884.5Q241.0 889.0 180.0 847.0Q169.0 762.0 126.5 678.0Q84.0 594.0 35.0 538.0ZM180.0 1361.0Q205.0 1361.0 217.0 1355.5Q229.0 1350.0 246.0 1318.0Q260.0 1294.0 272.5 1270.5Q285.0 1247.0 307.0 1199.5Q329.0 1152.0 370.5 1057.5Q412.0 963.0 483.0 798.5Q554.0 634.0 666.0 376.0L696.0 384.0Q675.0 460.0 649.0 557.0Q623.0 654.0 596.5 756.5Q570.0 859.0 546.5 953.5Q523.0 1048.0 506.0 1121.0Q489.0 1194.0 481.0 1230.0Q469.0 1285.0 460.0 1340.0Q451.0 1395.0 453.0 1437.0Q454.0 1481.0 469.5 1518.0Q485.0 1555.0 504.5 1593.5Q524.0 1632.0 537.5 1681.5Q551.0 1731.0 549.0 1801.0Q546.0 1883.0 490.0 1934.5Q434.0 1986.0 346.0 1986.0Q306.0 1986.0 266.0 1963.0Q226.0 1940.0 209.0 1879.0Q230.0 1774.0 235.5 1677.5Q241.0 1581.0 230.5 1514.5Q220.0 1448.0 195.0 1431.0Q173.0 1417.0 146.5 1408.0Q120.0 1399.0 88.0 1398.0V1361.0Q88.0 1361.0 106.5 1361.0Q125.0 1361.0 147.0 1361.0Q169.0 1361.0 180.0 1361.0ZM1571.0 546.0 1595.0 538.0 1735.0 407.0 1972.0 603.0Q1960.0 615.0 1941.5 625.0Q1923.0 635.0 1892.0 640.0Q1890.0 827.0 1884.5 950.0Q1879.0 1073.0 1867.0 1148.0Q1855.0 1223.0 1833.0 1266.0Q1811.0 1309.0 1776.0 1336.0Q1731.0 1370.0 1673.0 1388.0Q1615.0 1406.0 1538.0 1406.0Q1538.0 1341.0 1534.5 1294.5Q1531.0 1248.0 1516.0 1222.0Q1503.0 1200.0 1489.0 1185.0Q1475.0 1170.0 1452.0 1158.0V1455.0Q1452.0 1467.0 1418.5 1486.0Q1385.0 1505.0 1334.0 1520.0Q1283.0 1535.0 1231.0 1535.0H1182.0V751.0L1044.0 800.0V1560.0Q1044.0 1604.0 1072.5 1619.5Q1101.0 1635.0 1174.0 1635.0H1450.0Q1518.0 1635.0 1573.5 1634.5Q1629.0 1634.0 1663.0 1631.0Q1689.0 1630.0 1709.5 1622.5Q1730.0 1615.0 1745.0 1598.0Q1769.0 1568.0 1800.0 1497.0Q1831.0 1426.0 1870.0 1322.0H1890.0L1898.0 1605.0Q1963.0 1629.0 1988.0 1657.0Q2013.0 1685.0 2013.0 1725.0Q2013.0 1791.0 1964.5 1834.0Q1916.0 1877.0 1788.5 1898.5Q1661.0 1920.0 1425.0 1920.0H1147.0Q1012.0 1920.0 930.0 1899.5Q848.0 1879.0 811.0 1820.5Q774.0 1762.0 774.0 1648.0V900.0L616.0 957.0L580.0 908.0L774.0 837.0V263.0L1116.0 298.0Q1115.0 318.0 1099.0 333.5Q1083.0 349.0 1044.0 355.0V738.0L1182.0 687.0V62.0L1528.0 95.0Q1525.0 117.0 1509.5 131.5Q1494.0 146.0 1452.0 153.0V589.0ZM1452.0 650.0V1121.0L1526.0 1123.0Q1561.0 1123.0 1573.0 1109.0Q1588.0 1094.0 1596.5 1040.0Q1605.0 986.0 1609.5 877.5Q1614.0 769.0 1616.0 591.0Z" fill="black"></path></svg>