<?xml version="1.0" standalone="no"?>
<!DOCTYPE svg PUBLIC "-//W3C//DTD SVG 1.1//EN" "http://www.w3.org/Graphics/SVG/1.1/DTD/svg11.dtd" >
<svg xmlns="http://www.w3.org/2000/svg" xmlns:svg="http://www.w3.org/2000/svg" xmlns:xlink="http://www.w3.org/1999/xlink" viewBox="0 0 2048 2048" style=""><path d="M216.5 81.0Q378.5 89.0 472.0 129.0Q565.5 169.0 604.0 224.0Q642.5 279.0 637.5 333.0Q632.5 387.0 595.5 425.0Q558.5 463.0 500.5 469.5Q442.5 476.0 376.5 433.0Q355.5 341.0 304.5 249.0Q253.5 157.0 202.5 91.0ZM42.5 544.0Q197.5 546.0 289.0 581.5Q380.5 617.0 419.0 668.0Q457.5 719.0 454.5 771.0Q451.5 823.0 417.5 860.5Q383.5 898.0 329.0 906.0Q274.5 914.0 210.5 875.0Q189.5 789.0 136.0 701.5Q82.5 614.0 28.5 554.0ZM192.5 1330.0Q218.5 1330.0 231.5 1325.0Q244.5 1320.0 264.5 1289.0Q281.5 1265.0 296.5 1241.5Q311.5 1218.0 337.0 1172.0Q362.5 1126.0 410.5 1036.0Q458.5 946.0 540.5 790.0Q622.5 634.0 751.5 388.0L780.5 396.0Q753.5 471.0 721.0 564.5Q688.5 658.0 655.0 756.5Q621.5 855.0 592.0 945.5Q562.5 1036.0 541.0 1105.5Q519.5 1175.0 509.5 1209.0Q494.5 1263.0 483.0 1318.5Q471.5 1374.0 472.5 1414.0Q474.5 1459.0 490.0 1497.0Q505.5 1535.0 524.5 1574.0Q543.5 1613.0 557.0 1663.0Q570.5 1713.0 569.5 1783.0Q566.5 1867.0 508.0 1919.0Q449.5 1971.0 362.5 1971.0Q320.5 1971.0 281.5 1947.5Q242.5 1924.0 225.5 1863.0Q246.5 1752.0 251.5 1653.5Q256.5 1555.0 245.0 1487.0Q233.5 1419.0 206.5 1402.0Q162.5 1373.0 94.5 1367.0V1330.0Q94.5 1330.0 114.0 1330.0Q133.5 1330.0 157.5 1330.0Q181.5 1330.0 192.5 1330.0ZM585.5 1777.0H1115.5V343.0H681.5L665.5 286.0H1541.5L1693.5 77.0Q1693.5 77.0 1721.5 99.5Q1749.5 122.0 1792.0 158.0Q1834.5 194.0 1881.0 234.5Q1927.5 275.0 1963.5 310.0Q1954.5 343.0 1904.5 343.0H1423.5V1777.0H1576.5L1734.5 1557.0Q1734.5 1557.0 1763.5 1581.5Q1792.5 1606.0 1837.5 1643.5Q1882.5 1681.0 1931.0 1723.0Q1979.5 1765.0 2019.5 1801.0Q2010.5 1834.0 1957.5 1834.0H601.5Z" fill="black"></path></svg>