<?xml version="1.0" standalone="no"?>
<!DOCTYPE svg PUBLIC "-//W3C//DTD SVG 1.1//EN" "http://www.w3.org/Graphics/SVG/1.1/DTD/svg11.dtd" >
<svg xmlns="http://www.w3.org/2000/svg" xmlns:svg="http://www.w3.org/2000/svg" xmlns:xlink="http://www.w3.org/1999/xlink" viewBox="0 0 2048 2048" style=""><path d="M1218.5 134.0Q1365.5 119.0 1453.5 142.5Q1541.5 166.0 1580.0 210.0Q1618.5 254.0 1616.5 303.0Q1614.5 352.0 1582.5 389.5Q1550.5 427.0 1497.5 437.5Q1444.5 448.0 1380.5 415.0Q1360.5 339.0 1309.0 265.5Q1257.5 192.0 1204.5 146.0ZM282.5 648.0Q455.5 677.0 555.0 735.0Q654.5 793.0 694.5 861.5Q734.5 930.0 727.5 993.0Q720.5 1056.0 680.5 1097.5Q640.5 1139.0 579.5 1142.0Q518.5 1145.0 450.5 1092.0Q438.5 977.0 385.5 860.5Q332.5 744.0 266.5 658.0ZM1152.5 1654.0Q1152.5 1755.0 1127.0 1825.5Q1101.5 1896.0 1020.0 1937.5Q938.5 1979.0 771.5 1994.0Q765.5 1920.0 753.5 1868.0Q741.5 1816.0 712.5 1781.0Q683.5 1747.0 640.0 1722.0Q596.5 1697.0 505.5 1680.0V1656.0Q505.5 1656.0 543.5 1658.0Q581.5 1660.0 635.0 1663.0Q688.5 1666.0 736.5 1668.0Q784.5 1670.0 804.5 1670.0Q830.5 1670.0 840.0 1661.0Q849.5 1652.0 849.5 1633.0V1256.0Q763.5 1348.0 640.5 1463.5Q517.5 1579.0 350.5 1719.0Q340.5 1766.0 302.5 1785.0L85.5 1473.0Q152.5 1450.0 271.5 1404.0Q390.5 1358.0 540.5 1297.0Q690.5 1236.0 849.5 1166.0V556.0H87.5L71.5 499.0H849.5V54.0L1224.5 91.0Q1221.5 112.0 1207.0 126.0Q1192.5 140.0 1152.5 146.0V499.0H1542.5L1693.5 304.0Q1693.5 304.0 1721.5 325.0Q1749.5 346.0 1792.5 379.5Q1835.5 413.0 1882.5 451.0Q1929.5 489.0 1968.5 523.0Q1959.5 556.0 1908.5 556.0H1152.5V709.0Q1182.5 814.0 1223.5 900.5Q1264.5 987.0 1314.5 1060.0Q1357.5 988.0 1400.5 907.5Q1443.5 827.0 1478.5 751.5Q1513.5 676.0 1533.5 619.0L1871.5 841.0Q1864.5 856.0 1846.5 864.0Q1828.5 872.0 1791.5 867.0Q1704.5 924.0 1589.5 991.0Q1474.5 1058.0 1353.5 1113.0Q1482.5 1276.0 1647.0 1367.0Q1811.5 1458.0 1976.5 1510.0L1970.5 1531.0Q1876.5 1554.0 1811.5 1633.0Q1746.5 1712.0 1720.5 1819.0Q1573.5 1716.0 1464.5 1587.5Q1355.5 1459.0 1279.0 1279.0Q1202.5 1099.0 1152.5 841.0Z" fill="black"></path></svg>