<?xml version="1.0" standalone="no"?>
<!DOCTYPE svg PUBLIC "-//W3C//DTD SVG 1.1//EN" "http://www.w3.org/Graphics/SVG/1.1/DTD/svg11.dtd" >
<svg xmlns="http://www.w3.org/2000/svg" xmlns:svg="http://www.w3.org/2000/svg" xmlns:xlink="http://www.w3.org/1999/xlink" viewBox="0 0 2048 2048" style=""><path d="M168.5 93.0Q324.5 91.0 417.0 123.5Q509.5 156.0 550.0 206.0Q590.5 256.0 589.0 308.5Q587.5 361.0 554.5 399.5Q521.5 438.0 466.5 447.5Q411.5 457.0 346.5 421.0Q322.5 335.0 266.0 248.5Q209.5 162.0 154.5 105.0ZM45.5 542.0Q195.5 548.0 281.0 585.0Q366.5 622.0 400.0 673.0Q433.5 724.0 427.0 774.5Q420.5 825.0 384.0 859.5Q347.5 894.0 292.5 898.5Q237.5 903.0 176.5 861.0Q166.5 777.0 123.5 693.0Q80.5 609.0 31.5 552.0ZM150.5 1361.0Q174.5 1361.0 187.0 1356.0Q199.5 1351.0 217.5 1320.0Q232.5 1297.0 244.5 1275.5Q256.5 1254.0 277.5 1211.0Q298.5 1168.0 338.5 1083.0Q378.5 998.0 446.5 851.5Q514.5 705.0 621.5 474.0L650.5 482.0Q625.5 568.0 594.5 680.5Q563.5 793.0 533.5 906.5Q503.5 1020.0 480.5 1110.5Q457.5 1201.0 449.5 1242.0Q437.5 1293.0 428.5 1346.0Q419.5 1399.0 420.5 1439.0Q422.5 1482.0 438.5 1518.5Q454.5 1555.0 473.5 1593.5Q492.5 1632.0 506.0 1681.5Q519.5 1731.0 516.5 1801.0Q515.5 1884.0 458.0 1934.5Q400.5 1985.0 314.5 1985.0Q274.5 1985.0 234.5 1962.5Q194.5 1940.0 178.5 1879.0Q199.5 1773.0 204.5 1676.5Q209.5 1580.0 199.5 1513.5Q189.5 1447.0 164.5 1430.0Q143.5 1417.0 117.0 1408.0Q90.5 1399.0 58.5 1398.0V1361.0Q58.5 1361.0 76.5 1361.0Q94.5 1361.0 117.0 1361.0Q139.5 1361.0 150.5 1361.0ZM621.5 273.0H1583.5L1739.5 58.0Q1739.5 58.0 1767.5 81.5Q1795.5 105.0 1839.0 142.0Q1882.5 179.0 1930.0 220.5Q1977.5 262.0 2016.5 298.0Q2007.5 331.0 1956.5 331.0H1809.5V1643.0Q1809.5 1739.0 1782.0 1813.0Q1754.5 1887.0 1672.0 1933.0Q1589.5 1979.0 1422.5 1990.0Q1417.5 1919.0 1402.0 1866.0Q1386.5 1813.0 1354.5 1781.0Q1320.5 1748.0 1271.5 1723.5Q1222.5 1699.0 1116.5 1682.0V1658.0Q1116.5 1658.0 1162.0 1660.5Q1207.5 1663.0 1270.5 1666.0Q1333.5 1669.0 1390.0 1671.5Q1446.5 1674.0 1469.5 1674.0Q1516.5 1674.0 1516.5 1631.0V331.0H637.5ZM969.5 701.0V1164.0H1114.5V701.0ZM715.5 644.0V540.0L996.5 644.0H1096.5L1211.5 521.0L1444.5 699.0Q1436.5 709.0 1420.0 719.5Q1403.5 730.0 1377.5 734.0V1340.0Q1376.5 1348.0 1340.0 1362.5Q1303.5 1377.0 1253.0 1389.5Q1202.5 1402.0 1159.5 1402.0H1114.5V1222.0H969.5V1416.0Q969.5 1428.0 914.5 1458.0Q859.5 1488.0 762.5 1488.0H715.5Z" fill="black"></path></svg>