<?xml version="1.0" standalone="no"?>
<!DOCTYPE svg PUBLIC "-//W3C//DTD SVG 1.1//EN" "http://www.w3.org/Graphics/SVG/1.1/DTD/svg11.dtd" >
<svg xmlns="http://www.w3.org/2000/svg" xmlns:svg="http://www.w3.org/2000/svg" xmlns:xlink="http://www.w3.org/1999/xlink" viewBox="0 0 2048 2048" style=""><path d="M217.0 68.5Q380.0 68.5 476.5 104.5Q573.0 140.5 615.0 193.5Q657.0 246.5 654.5 301.5Q652.0 356.5 617.0 396.5Q582.0 436.5 524.5 446.0Q467.0 455.5 399.0 416.5Q373.0 324.5 315.5 234.0Q258.0 143.5 203.0 78.5ZM57.0 524.5Q212.0 527.5 303.5 562.5Q395.0 597.5 433.5 649.0Q472.0 700.5 469.0 752.5Q466.0 804.5 432.0 842.0Q398.0 879.5 343.5 887.5Q289.0 895.5 225.0 856.5Q204.0 770.5 150.5 683.0Q97.0 595.5 43.0 535.5ZM207.0 1340.5Q233.0 1340.5 246.0 1335.0Q259.0 1329.5 279.0 1297.5Q294.0 1275.5 307.5 1255.0Q321.0 1234.5 340.5 1200.5Q360.0 1166.5 394.0 1104.0Q428.0 1041.5 483.5 937.5Q539.0 833.5 624.5 673.5Q710.0 513.5 834.0 281.5L864.0 289.5Q831.0 373.5 791.5 479.5Q752.0 585.5 711.5 697.0Q671.0 808.5 634.5 910.5Q598.0 1012.5 572.0 1090.5Q546.0 1168.5 535.0 1206.5Q518.0 1265.5 504.0 1324.0Q490.0 1382.5 492.0 1424.5Q492.0 1469.5 507.5 1507.0Q523.0 1544.5 542.0 1584.0Q561.0 1623.5 574.5 1673.0Q588.0 1722.5 586.0 1792.5Q583.0 1877.5 526.5 1929.5Q470.0 1981.5 381.0 1981.5Q339.0 1981.5 299.0 1958.5Q259.0 1935.5 242.0 1872.5Q263.0 1760.5 268.0 1662.5Q273.0 1564.5 261.5 1498.0Q250.0 1431.5 223.0 1413.5Q178.0 1383.5 106.0 1376.5V1340.5Q106.0 1340.5 126.5 1340.5Q147.0 1340.5 171.5 1340.5Q196.0 1340.5 207.0 1340.5ZM762.0 1067.5V950.5L1079.0 1067.5H1147.0V66.5L1522.0 96.5Q1519.0 118.5 1504.0 133.5Q1489.0 148.5 1448.0 156.5V561.5H1567.0L1724.0 344.5Q1724.0 344.5 1752.5 368.5Q1781.0 392.5 1825.5 429.5Q1870.0 466.5 1918.0 508.5Q1966.0 550.5 2005.0 586.5Q1996.0 619.5 1944.0 619.5H1448.0V1067.5H1546.0L1690.0 905.5L1950.0 1104.5Q1939.0 1118.5 1922.0 1129.0Q1905.0 1139.5 1868.0 1147.5V1866.5Q1868.0 1875.5 1800.5 1902.5Q1733.0 1929.5 1612.0 1929.5H1556.0V1778.5H1059.0V1880.5Q1059.0 1896.5 995.0 1922.5Q931.0 1948.5 817.0 1948.5H762.0ZM1059.0 1721.5H1556.0V1125.5H1059.0Z" fill="black"></path></svg>