<?xml version="1.0" standalone="no"?>
<!DOCTYPE svg PUBLIC "-//W3C//DTD SVG 1.1//EN" "http://www.w3.org/Graphics/SVG/1.1/DTD/svg11.dtd" >
<svg xmlns="http://www.w3.org/2000/svg" xmlns:svg="http://www.w3.org/2000/svg" xmlns:xlink="http://www.w3.org/1999/xlink" viewBox="0 0 2048 2048" style=""><path d="M216.0 80.5Q376.0 81.5 471.5 116.0Q567.0 150.5 609.5 202.5Q652.0 254.5 651.5 308.5Q651.0 362.5 618.0 402.0Q585.0 441.5 530.0 451.5Q475.0 461.5 409.0 424.5Q381.0 335.5 320.5 245.0Q260.0 154.5 202.0 92.5ZM48.0 545.5Q202.0 547.5 292.5 583.0Q383.0 618.5 421.0 670.5Q459.0 722.5 455.5 774.5Q452.0 826.5 418.0 864.0Q384.0 901.5 329.5 909.0Q275.0 916.5 212.0 877.5Q194.0 789.5 141.5 703.0Q89.0 616.5 34.0 557.5ZM188.0 1331.5Q214.0 1331.5 225.5 1326.5Q237.0 1321.5 257.0 1290.5Q273.0 1266.5 286.0 1244.0Q299.0 1221.5 323.0 1175.5Q347.0 1129.5 391.5 1039.0Q436.0 948.5 512.0 792.5Q588.0 636.5 708.0 389.5L736.0 397.5Q713.0 471.5 684.5 564.0Q656.0 656.5 626.5 754.5Q597.0 852.5 570.5 943.0Q544.0 1033.5 524.5 1103.0Q505.0 1172.5 497.0 1206.5Q483.0 1259.5 472.5 1314.5Q462.0 1369.5 464.0 1409.5Q466.0 1453.5 482.0 1489.5Q498.0 1525.5 517.0 1563.5Q536.0 1601.5 550.0 1650.0Q564.0 1698.5 562.0 1768.5Q559.0 1849.5 502.0 1901.0Q445.0 1952.5 355.0 1952.5Q316.0 1952.5 274.5 1929.0Q233.0 1905.5 216.0 1845.5Q238.0 1740.5 242.5 1645.5Q247.0 1550.5 236.5 1484.5Q226.0 1418.5 202.0 1401.5Q179.0 1387.5 152.0 1378.5Q125.0 1369.5 91.0 1366.5V1331.5Q91.0 1331.5 110.5 1331.5Q130.0 1331.5 153.0 1331.5Q176.0 1331.5 188.0 1331.5ZM1601.0 258.5H1033.0V617.5H1601.0ZM761.0 201.5V94.5L1074.0 201.5H1580.0L1703.0 66.5L1963.0 260.5Q1954.0 273.5 1933.5 285.5Q1913.0 297.5 1881.0 303.5V711.5Q1880.0 718.5 1840.5 732.5Q1801.0 746.5 1747.5 758.5Q1694.0 770.5 1650.0 770.5H1601.0V674.5H1033.0V785.5Q1033.0 930.5 1021.0 1090.5Q1009.0 1250.5 964.0 1410.0Q919.0 1569.5 822.0 1716.0Q725.0 1862.5 554.0 1981.5L534.0 1966.5Q639.0 1794.5 687.0 1597.0Q735.0 1399.5 748.0 1193.0Q761.0 986.5 761.0 787.5ZM1721.0 875.5 1967.0 1116.5Q1939.0 1145.5 1871.0 1122.5Q1751.0 1193.5 1618.5 1244.0Q1486.0 1294.5 1365.0 1323.5V1602.5Q1365.0 1628.5 1378.5 1638.0Q1392.0 1647.5 1435.0 1647.5H1603.0Q1646.0 1647.5 1682.0 1647.0Q1718.0 1646.5 1738.0 1645.5Q1758.0 1643.5 1771.0 1638.5Q1784.0 1633.5 1795.0 1618.5Q1814.0 1590.5 1840.5 1522.0Q1867.0 1453.5 1898.0 1362.5H1918.0L1926.0 1628.5Q1978.0 1650.5 1996.0 1677.0Q2014.0 1703.5 2014.0 1741.5Q2014.0 1797.5 1975.5 1837.0Q1937.0 1876.5 1841.0 1897.0Q1745.0 1917.5 1574.0 1917.5H1375.0Q1265.0 1917.5 1205.0 1898.0Q1145.0 1878.5 1122.0 1828.0Q1099.0 1777.5 1099.0 1684.5V797.5L1431.0 825.5Q1428.0 869.5 1365.0 881.5V1227.5Q1456.0 1153.5 1549.5 1062.0Q1643.0 970.5 1721.0 875.5Z" fill="black"></path></svg>