<?xml version="1.0" standalone="no"?>
<!DOCTYPE svg PUBLIC "-//W3C//DTD SVG 1.1//EN" "http://www.w3.org/Graphics/SVG/1.1/DTD/svg11.dtd" >
<svg xmlns="http://www.w3.org/2000/svg" xmlns:svg="http://www.w3.org/2000/svg" xmlns:xlink="http://www.w3.org/1999/xlink" viewBox="0 0 2048 2048" style=""><path d="M75.0 1232.0H476.0L620.0 1091.0L863.0 1292.0Q854.0 1307.0 838.5 1313.5Q823.0 1320.0 790.0 1323.0Q696.0 1521.0 508.5 1675.5Q321.0 1830.0 52.0 1914.0L40.0 1892.0Q201.0 1784.0 315.5 1623.5Q430.0 1463.0 482.0 1290.0H93.0ZM869.0 45.0 1293.0 110.0Q1287.0 139.0 1265.0 152.5Q1243.0 166.0 1209.0 170.0Q1159.0 202.0 1086.5 248.0Q1014.0 294.0 955.0 329.0H1365.0L1498.0 184.0L1768.0 391.0Q1758.0 403.0 1738.5 415.5Q1719.0 428.0 1687.0 434.0V1009.0Q1686.0 1018.0 1645.0 1037.0Q1604.0 1056.0 1546.5 1071.5Q1489.0 1087.0 1437.0 1087.0H1385.0V985.0H1162.0V1028.0Q1204.0 1135.0 1268.0 1218.0Q1332.0 1301.0 1410.0 1364.0Q1485.0 1284.0 1554.5 1192.0Q1624.0 1100.0 1662.0 1034.0L1961.0 1245.0Q1952.0 1259.0 1934.0 1265.0Q1916.0 1271.0 1881.0 1265.0Q1803.0 1305.0 1700.0 1345.0Q1597.0 1385.0 1488.0 1419.0Q1608.0 1496.0 1744.5 1539.0Q1881.0 1582.0 2008.0 1603.0L2004.0 1626.0Q1916.0 1650.0 1860.0 1727.0Q1804.0 1804.0 1781.0 1910.0Q1628.0 1827.0 1509.5 1719.0Q1391.0 1611.0 1305.0 1454.0Q1219.0 1297.0 1162.0 1067.0V1677.0Q1162.0 1768.0 1138.0 1837.0Q1114.0 1906.0 1040.0 1948.5Q966.0 1991.0 814.0 2003.0Q809.0 1935.0 800.5 1886.0Q792.0 1837.0 767.0 1806.0Q745.0 1777.0 707.5 1754.5Q670.0 1732.0 589.0 1718.0V1691.0Q589.0 1691.0 620.5 1693.0Q652.0 1695.0 696.0 1697.5Q740.0 1700.0 780.0 1702.0Q820.0 1704.0 837.0 1704.0Q860.0 1704.0 868.0 1695.0Q876.0 1686.0 876.0 1669.0V985.0H646.0V1009.0Q646.0 1024.0 608.0 1045.5Q570.0 1067.0 512.0 1084.0Q454.0 1101.0 392.0 1101.0H349.0V211.0L663.0 329.0H841.0Q848.0 271.0 856.5 189.5Q865.0 108.0 869.0 45.0ZM646.0 927.0H1385.0V688.0H646.0ZM646.0 630.0H1385.0V387.0H646.0Z" fill="black"></path></svg>