<?xml version="1.0" standalone="no"?>
<!DOCTYPE svg PUBLIC "-//W3C//DTD SVG 1.1//EN" "http://www.w3.org/Graphics/SVG/1.1/DTD/svg11.dtd" >
<svg xmlns="http://www.w3.org/2000/svg" xmlns:svg="http://www.w3.org/2000/svg" xmlns:xlink="http://www.w3.org/1999/xlink" viewBox="0 0 2048 2048" style=""><path d="M253.5 899.5Q389.5 925.5 463.0 971.5Q536.5 1017.5 561.5 1069.5Q586.5 1121.5 573.5 1167.5Q560.5 1213.5 522.5 1242.0Q484.5 1270.5 433.0 1268.5Q381.5 1266.5 328.5 1220.5Q325.5 1137.5 297.0 1054.0Q268.5 970.5 234.5 909.5ZM1008.5 878.5 1303.5 997.5 1295.5 827.5H277.5L259.5 770.5H1270.5L1412.5 612.5L1688.5 823.5Q1666.5 848.5 1606.5 858.5Q1602.5 959.5 1610.0 1074.5Q1617.5 1189.5 1639.5 1297.0Q1661.5 1404.5 1701.0 1487.5Q1740.5 1570.5 1801.5 1607.5Q1834.5 1630.5 1852.5 1597.5Q1892.5 1512.5 1926.5 1396.5L1944.5 1401.5L1930.5 1698.5Q2026.5 1865.5 1963.5 1941.5Q1920.5 1990.5 1863.0 1995.5Q1805.5 2000.5 1747.5 1976.0Q1689.5 1951.5 1643.5 1913.5Q1522.5 1827.5 1451.0 1682.5Q1379.5 1537.5 1344.5 1358.5H883.5V1433.5Q1053.5 1442.5 1155.5 1485.0Q1257.5 1527.5 1304.0 1585.5Q1350.5 1643.5 1351.5 1702.0Q1352.5 1760.5 1319.5 1802.5Q1286.5 1844.5 1230.0 1855.0Q1173.5 1865.5 1104.5 1827.5Q1071.5 1734.5 1009.0 1639.5Q946.5 1544.5 883.5 1472.5V1923.5Q883.5 1934.5 848.5 1952.0Q813.5 1969.5 761.5 1983.5Q709.5 1997.5 658.5 1997.5H607.5V1626.5Q498.5 1724.5 359.5 1804.0Q220.5 1883.5 60.5 1943.5L46.5 1921.5Q189.5 1813.5 298.5 1663.5Q407.5 1513.5 472.5 1358.5H107.5L91.5 1300.5H607.5V858.5L951.5 889.5Q948.5 907.5 934.5 921.0Q920.5 934.5 883.5 940.5V1300.5H1043.5L1170.5 1145.5L1330.5 1267.5Q1311.5 1155.5 1305.5 1032.5Q1287.5 1047.5 1244.5 1044.5Q1168.5 1103.5 1086.0 1162.0Q1003.5 1220.5 930.5 1261.5L904.5 1247.5Q925.5 1181.5 954.0 1079.5Q982.5 977.5 1008.5 878.5ZM494.5 47.5 877.5 221.5Q868.5 239.5 846.5 250.0Q824.5 260.5 789.5 254.5L738.5 327.5H1498.5L1645.5 143.5Q1645.5 143.5 1672.5 163.0Q1699.5 182.5 1741.0 214.0Q1782.5 245.5 1829.5 282.0Q1876.5 318.5 1916.5 352.5Q1907.5 385.5 1856.5 385.5H1524.5Q1543.5 399.5 1585.0 431.0Q1626.5 462.5 1675.5 500.0Q1724.5 537.5 1764.5 571.5Q1755.5 604.5 1707.5 604.5H558.5L541.5 551.5Q429.5 654.5 303.0 729.5Q176.5 804.5 37.5 858.5L21.5 841.5Q112.5 752.5 202.5 628.0Q292.5 503.5 368.5 355.5Q444.5 207.5 494.5 47.5ZM545.5 547.5H1369.5L1502.5 385.5H695.5Q624.5 474.5 545.5 547.5Z" fill="black"></path></svg>