<?xml version="1.0" standalone="no"?>
<!DOCTYPE svg PUBLIC "-//W3C//DTD SVG 1.1//EN" "http://www.w3.org/Graphics/SVG/1.1/DTD/svg11.dtd" >
<svg xmlns="http://www.w3.org/2000/svg" xmlns:svg="http://www.w3.org/2000/svg" xmlns:xlink="http://www.w3.org/1999/xlink" viewBox="0 0 2048 2048" style=""><path d="M177.5 1361.0Q202.5 1361.0 213.5 1355.5Q224.5 1350.0 241.5 1318.0Q252.5 1297.0 262.5 1278.0Q272.5 1259.0 287.0 1226.5Q301.5 1194.0 326.5 1134.0Q351.5 1074.0 392.0 973.5Q432.5 873.0 495.5 718.0Q558.5 563.0 648.5 339.0L679.5 345.0Q658.5 425.0 633.5 526.0Q608.5 627.0 583.0 734.0Q557.5 841.0 534.5 939.5Q511.5 1038.0 495.0 1114.0Q478.5 1190.0 470.5 1228.0Q460.5 1284.0 452.5 1340.5Q444.5 1397.0 444.5 1438.0Q445.5 1484.0 461.0 1522.0Q476.5 1560.0 495.5 1600.0Q514.5 1640.0 528.0 1691.5Q541.5 1743.0 540.5 1815.0Q537.5 1898.0 482.5 1950.0Q427.5 2002.0 341.5 2002.0Q303.5 2002.0 263.5 1979.5Q223.5 1957.0 208.5 1895.0Q230.5 1787.0 235.0 1687.5Q239.5 1588.0 229.0 1519.0Q218.5 1450.0 194.5 1432.0Q172.5 1417.0 145.5 1409.0Q118.5 1401.0 85.5 1397.0V1361.0Q85.5 1361.0 104.0 1361.0Q122.5 1361.0 144.5 1361.0Q166.5 1361.0 177.5 1361.0ZM130.5 81.0Q284.5 88.0 374.0 126.5Q463.5 165.0 500.5 217.0Q537.5 269.0 533.0 321.0Q528.5 373.0 493.5 409.5Q458.5 446.0 403.5 452.0Q348.5 458.0 286.5 419.0Q266.5 331.0 216.0 242.5Q165.5 154.0 116.5 91.0ZM44.5 595.0Q188.5 613.0 269.0 655.5Q349.5 698.0 378.5 751.0Q407.5 804.0 398.0 853.0Q388.5 902.0 351.0 934.5Q313.5 967.0 260.0 968.0Q206.5 969.0 149.5 924.0Q144.5 838.0 108.5 752.0Q72.5 666.0 28.5 605.0ZM1607.5 597.0H999.5V873.0H1607.5ZM1603.5 1029.0Q1704.5 1018.0 1782.0 1029.5Q1859.5 1041.0 1890.5 1096.0Q1908.5 1129.0 1897.0 1162.5Q1885.5 1196.0 1859.5 1219.0L2008.5 1338.0Q1999.5 1371.0 1953.5 1371.0H1482.5Q1556.5 1506.0 1701.0 1591.0Q1845.5 1676.0 2019.5 1701.0V1723.0Q1859.5 1771.0 1818.5 2000.0Q1657.5 1909.0 1573.5 1769.0Q1489.5 1629.0 1449.5 1404.0Q1419.5 1531.0 1349.0 1640.0Q1278.5 1749.0 1141.0 1839.5Q1003.5 1930.0 771.5 2000.0L755.5 1971.0Q896.5 1885.0 982.5 1790.5Q1068.5 1696.0 1113.5 1591.5Q1158.5 1487.0 1177.5 1371.0H970.5Q947.5 1487.0 900.0 1599.0Q852.5 1711.0 766.0 1812.5Q679.5 1914.0 542.5 1998.0L521.5 1977.0Q616.5 1832.0 658.0 1664.0Q699.5 1496.0 710.0 1317.0Q720.5 1138.0 720.5 961.0V251.0L997.5 337.0Q1103.5 294.0 1211.0 243.0Q1318.5 192.0 1411.0 141.0Q1503.5 90.0 1566.5 46.0L1857.5 312.0Q1814.5 348.0 1709.5 312.0Q1619.5 333.0 1503.0 350.0Q1386.5 367.0 1257.0 380.0Q1127.5 393.0 999.5 400.0V539.0H1584.5L1709.5 400.0L1980.5 601.0Q1970.5 613.0 1948.0 627.5Q1925.5 642.0 1890.5 650.0V926.0Q1889.5 933.0 1849.0 945.5Q1808.5 958.0 1754.0 969.0Q1699.5 980.0 1656.5 980.0H1607.5V931.0H999.5V967.0Q999.5 1050.0 996.5 1138.0Q993.5 1226.0 980.5 1314.0H1185.5Q1194.5 1240.0 1198.5 1161.5Q1202.5 1083.0 1203.5 1000.0L1562.5 1025.0Q1559.5 1046.0 1543.0 1061.5Q1526.5 1077.0 1490.5 1082.0Q1486.5 1142.0 1481.0 1200.0Q1475.5 1258.0 1466.5 1314.0H1685.5L1738.5 1248.0Q1695.5 1235.0 1668.5 1185.0Q1661.5 1152.0 1640.0 1110.5Q1618.5 1069.0 1591.5 1041.0Z" fill="black"></path></svg>