<?xml version="1.0" standalone="no"?>
<!DOCTYPE svg PUBLIC "-//W3C//DTD SVG 1.1//EN" "http://www.w3.org/Graphics/SVG/1.1/DTD/svg11.dtd" >
<svg xmlns="http://www.w3.org/2000/svg" xmlns:svg="http://www.w3.org/2000/svg" xmlns:xlink="http://www.w3.org/1999/xlink" viewBox="0 0 2048 2048" style=""><path d="M181.5 69.0Q330.5 90.0 414.5 135.5Q498.5 181.0 530.5 236.5Q562.5 292.0 554.5 343.0Q546.5 394.0 509.0 427.5Q471.5 461.0 417.0 463.5Q362.5 466.0 303.5 422.0Q291.5 331.0 249.5 239.0Q207.5 147.0 164.5 80.0ZM39.5 544.0Q182.5 565.0 261.5 609.0Q340.5 653.0 369.5 706.5Q398.5 760.0 388.5 809.0Q378.5 858.0 341.0 889.5Q303.5 921.0 251.0 922.0Q198.5 923.0 142.5 878.0Q137.5 792.0 102.5 704.0Q67.5 616.0 23.5 555.0ZM127.5 1353.0Q152.5 1353.0 163.5 1348.0Q174.5 1343.0 191.5 1310.0Q204.5 1287.0 216.5 1264.5Q228.5 1242.0 250.0 1195.0Q271.5 1148.0 311.5 1055.5Q351.5 963.0 420.0 802.0Q488.5 641.0 596.5 387.0L629.5 395.0Q608.5 471.0 582.5 567.0Q556.5 663.0 529.5 764.0Q502.5 865.0 479.0 958.5Q455.5 1052.0 438.5 1124.0Q421.5 1196.0 414.5 1231.0Q402.5 1284.0 393.5 1338.0Q384.5 1392.0 385.5 1433.0Q387.5 1493.0 412.0 1542.5Q436.5 1592.0 459.0 1653.5Q481.5 1715.0 478.5 1810.0Q474.5 1893.0 421.5 1943.5Q368.5 1994.0 285.5 1994.0Q248.5 1994.0 211.0 1970.5Q173.5 1947.0 158.5 1886.0Q180.5 1776.0 185.0 1677.5Q189.5 1579.0 179.0 1511.0Q168.5 1443.0 144.5 1425.0Q122.5 1410.0 95.0 1401.5Q67.5 1393.0 35.5 1390.0V1353.0Q35.5 1353.0 54.0 1353.0Q72.5 1353.0 94.5 1353.0Q116.5 1353.0 127.5 1353.0ZM1143.5 700.0H1016.5L965.5 1077.0H1104.5Q1115.5 977.0 1125.5 879.5Q1135.5 782.0 1143.5 700.0ZM1391.5 700.0 1358.5 1077.0H1504.5L1516.5 700.0ZM850.5 51.0 1233.5 182.0Q1216.5 226.0 1147.5 223.0Q1126.5 266.0 1103.0 307.0Q1079.5 348.0 1053.5 387.0H1563.5L1698.5 198.0Q1698.5 198.0 1723.5 219.0Q1748.5 240.0 1787.5 272.5Q1826.5 305.0 1868.5 342.0Q1910.5 379.0 1944.5 411.0Q1935.5 444.0 1885.5 444.0H1014.5Q965.5 515.0 910.5 573.0L1067.5 643.0H1493.5L1635.5 501.0L1866.5 706.0Q1854.5 720.0 1833.0 730.5Q1811.5 741.0 1776.5 747.0L1768.5 1034.0L1844.5 911.0Q1844.5 911.0 1876.0 943.0Q1907.5 975.0 1949.5 1019.5Q1991.5 1064.0 2022.5 1102.0Q2016.5 1134.0 1969.5 1134.0H1764.5Q1754.5 1337.0 1739.5 1478.0L1819.5 1351.0Q1819.5 1351.0 1841.0 1372.0Q1862.5 1393.0 1895.0 1426.0Q1927.5 1459.0 1962.5 1495.5Q1997.5 1532.0 2024.5 1562.0Q2018.5 1595.0 1969.5 1595.0H1725.5Q1705.5 1720.0 1676.5 1793.0Q1647.5 1866.0 1606.5 1906.0Q1551.5 1960.0 1479.0 1978.5Q1406.5 1997.0 1305.5 1997.0Q1305.5 1941.0 1296.5 1902.0Q1287.5 1863.0 1264.5 1837.0Q1211.5 1778.0 1069.5 1747.0V1722.0Q1112.5 1725.0 1164.0 1728.5Q1215.5 1732.0 1260.0 1734.0Q1304.5 1736.0 1327.5 1736.0Q1374.5 1736.0 1401.5 1712.0Q1432.5 1684.0 1450.5 1595.0H885.5L858.5 1749.0Q811.5 1776.0 751.0 1781.0Q690.5 1786.0 576.5 1761.0Q605.5 1618.0 634.0 1457.0Q662.5 1296.0 689.5 1134.0H508.5L492.5 1077.0H697.5L746.5 725.0Q653.5 797.0 545.5 854.0L527.5 839.0Q593.5 745.0 656.0 618.5Q718.5 492.0 769.5 346.5Q820.5 201.0 850.5 51.0ZM1096.5 1134.0H957.5L895.5 1538.0H1041.5Q1055.5 1455.0 1070.0 1350.0Q1084.5 1245.0 1096.5 1134.0ZM1352.5 1134.0Q1341.5 1245.0 1330.0 1350.0Q1318.5 1455.0 1307.5 1538.0H1463.5Q1487.5 1393.0 1500.5 1134.0Z" fill="black"></path></svg>