<?xml version="1.0" standalone="no"?>
<!DOCTYPE svg PUBLIC "-//W3C//DTD SVG 1.1//EN" "http://www.w3.org/Graphics/SVG/1.1/DTD/svg11.dtd" >
<svg xmlns="http://www.w3.org/2000/svg" xmlns:svg="http://www.w3.org/2000/svg" xmlns:xlink="http://www.w3.org/1999/xlink" viewBox="0 0 2048 2048" style=""><path d="M167.5 88.0Q316.5 95.0 402.5 132.0Q488.5 169.0 523.0 219.0Q557.5 269.0 551.5 319.0Q545.5 369.0 510.0 403.5Q474.5 438.0 420.0 443.0Q365.5 448.0 304.5 407.0Q288.5 325.0 243.0 241.0Q197.5 157.0 153.5 98.0ZM42.5 526.0Q186.5 544.0 267.0 587.0Q347.5 630.0 376.5 683.0Q405.5 736.0 396.0 785.0Q386.5 834.0 349.0 866.0Q311.5 898.0 258.0 899.5Q204.5 901.0 147.5 856.0Q142.5 770.0 106.5 684.0Q70.5 598.0 26.5 536.0ZM157.5 1356.0Q182.5 1356.0 194.5 1350.5Q206.5 1345.0 223.5 1315.0Q237.5 1293.0 249.5 1272.0Q261.5 1251.0 281.5 1209.5Q301.5 1168.0 339.0 1087.5Q376.5 1007.0 440.0 867.5Q503.5 728.0 603.5 508.0L634.5 514.0Q611.5 596.0 582.5 704.5Q553.5 813.0 525.5 921.5Q497.5 1030.0 476.0 1117.0Q454.5 1204.0 446.5 1243.0Q435.5 1292.0 428.0 1344.0Q420.5 1396.0 421.5 1436.0Q423.5 1480.0 438.5 1517.5Q453.5 1555.0 472.5 1595.0Q491.5 1635.0 505.0 1686.0Q518.5 1737.0 515.5 1808.0Q512.5 1891.0 456.5 1942.0Q400.5 1993.0 317.5 1993.0Q278.5 1993.0 240.0 1969.5Q201.5 1946.0 186.5 1884.0Q207.5 1776.0 212.5 1677.5Q217.5 1579.0 207.0 1511.5Q196.5 1444.0 171.5 1427.0Q131.5 1399.0 65.5 1393.0V1356.0Q65.5 1356.0 84.0 1356.0Q102.5 1356.0 124.5 1356.0Q146.5 1356.0 157.5 1356.0ZM1089.5 55.0 1437.5 82.0Q1434.5 102.0 1421.5 115.5Q1408.5 129.0 1369.5 135.0V338.0H1601.5L1740.5 149.0Q1740.5 149.0 1766.5 170.0Q1792.5 191.0 1832.0 223.5Q1871.5 256.0 1914.5 293.0Q1957.5 330.0 1992.5 362.0Q1983.5 395.0 1935.5 395.0H597.5L581.5 338.0H1089.5ZM1548.5 1137.0Q1518.5 1170.0 1467.0 1175.5Q1415.5 1181.0 1363.5 1137.0Q1365.5 1083.0 1351.0 1028.5Q1336.5 974.0 1314.5 928.0L1234.5 1036.0Q1296.5 1268.0 1443.5 1409.0Q1506.5 1283.0 1548.5 1137.0ZM1574.5 1040.0Q1590.5 980.0 1602.5 919.0Q1614.5 858.0 1621.5 795.0H1398.5L1347.5 876.0Q1461.5 904.0 1514.5 950.0Q1567.5 996.0 1574.5 1040.0ZM1255.5 414.0 1595.5 518.0Q1590.5 535.0 1574.0 546.5Q1557.5 558.0 1519.5 561.0Q1500.5 603.0 1479.0 647.0Q1457.5 691.0 1431.5 737.0H1605.5L1744.5 594.0L1988.5 805.0Q1977.5 823.0 1960.5 830.0Q1943.5 837.0 1906.5 842.0Q1868.5 1032.0 1799.5 1207.5Q1730.5 1383.0 1615.5 1532.0Q1700.5 1578.0 1801.0 1609.5Q1901.5 1641.0 2021.5 1663.0L2019.5 1685.0Q1917.5 1722.0 1866.5 1797.0Q1815.5 1872.0 1799.5 1989.0Q1680.5 1944.0 1591.0 1876.5Q1501.5 1809.0 1437.5 1720.0Q1339.5 1802.0 1216.0 1870.0Q1092.5 1938.0 937.5 1991.0L921.5 1968.0Q1058.5 1888.0 1164.0 1787.5Q1269.5 1687.0 1349.5 1569.0Q1298.5 1463.0 1266.0 1337.0Q1233.5 1211.0 1212.5 1065.0Q1158.5 1129.0 1099.0 1189.5Q1039.5 1250.0 974.5 1300.0L954.5 1282.0Q1010.5 1188.0 1059.0 1075.5Q1107.5 963.0 1146.0 845.0Q1184.5 727.0 1212.0 615.5Q1239.5 504.0 1255.5 414.0ZM814.5 407.0 1154.5 528.0Q1148.5 545.0 1132.0 555.5Q1115.5 566.0 1077.5 567.0Q1044.5 638.0 1002.0 715.0Q959.5 792.0 907.5 870.0L1007.5 907.0Q1001.5 921.0 986.5 931.0Q971.5 941.0 941.5 946.0V1921.0Q939.5 1929.0 909.0 1945.5Q878.5 1962.0 832.5 1975.5Q786.5 1989.0 737.5 1989.0H689.5V1141.0Q639.5 1193.0 584.0 1240.0Q528.5 1287.0 466.5 1327.0L448.5 1307.0Q541.5 1181.0 615.0 1021.0Q688.5 861.0 739.5 700.0Q790.5 539.0 814.5 407.0Z" fill="black"></path></svg>