<?xml version="1.0" standalone="no"?>
<!DOCTYPE svg PUBLIC "-//W3C//DTD SVG 1.1//EN" "http://www.w3.org/Graphics/SVG/1.1/DTD/svg11.dtd" >
<svg xmlns="http://www.w3.org/2000/svg" xmlns:svg="http://www.w3.org/2000/svg" xmlns:xlink="http://www.w3.org/1999/xlink" viewBox="0 0 2048 2048" style=""><path d="M139.5 1350.0Q163.5 1350.0 176.0 1345.0Q188.5 1340.0 208.5 1311.0Q224.5 1289.0 237.5 1268.5Q250.5 1248.0 271.5 1209.0Q292.5 1170.0 332.0 1095.0Q371.5 1020.0 438.5 890.5Q505.5 761.0 610.5 557.0L638.5 565.0Q614.5 642.0 583.0 743.0Q551.5 844.0 521.0 945.5Q490.5 1047.0 467.0 1127.5Q443.5 1208.0 434.5 1245.0Q421.5 1291.0 412.5 1343.0Q403.5 1395.0 405.5 1432.0Q406.5 1476.0 421.5 1513.5Q436.5 1551.0 455.0 1591.0Q473.5 1631.0 486.5 1681.5Q499.5 1732.0 497.5 1802.0Q494.5 1885.0 438.0 1936.0Q381.5 1987.0 298.5 1987.0Q260.5 1987.0 222.0 1962.5Q183.5 1938.0 167.5 1878.0Q189.5 1767.0 194.5 1669.0Q199.5 1571.0 189.0 1504.5Q178.5 1438.0 153.5 1421.0Q110.5 1392.0 44.5 1387.0V1350.0Q44.5 1350.0 63.5 1350.0Q82.5 1350.0 105.0 1350.0Q127.5 1350.0 139.5 1350.0ZM163.5 68.0Q317.5 75.0 407.0 113.5Q496.5 152.0 533.5 204.0Q570.5 256.0 566.0 308.0Q561.5 360.0 526.5 396.5Q491.5 433.0 436.5 439.0Q381.5 445.0 319.5 406.0Q299.5 318.0 249.0 229.5Q198.5 141.0 149.5 78.0ZM51.5 520.0Q195.5 538.0 275.5 581.0Q355.5 624.0 385.0 677.0Q414.5 730.0 404.5 779.0Q394.5 828.0 357.0 860.0Q319.5 892.0 266.0 893.5Q212.5 895.0 155.5 850.0Q150.5 764.0 115.0 678.0Q79.5 592.0 34.5 530.0ZM794.5 61.0 821.5 64.0Q844.5 133.0 853.5 197.0H1615.5L1753.5 61.0L1986.5 285.0Q1965.5 309.0 1908.5 311.0Q1869.5 342.0 1817.5 381.5Q1765.5 421.0 1712.0 460.0Q1658.5 499.0 1615.5 526.0L1599.5 516.0L1632.5 254.0H1540.5V582.0Q1540.5 599.0 1547.5 605.5Q1554.5 612.0 1578.5 612.0H1662.5Q1684.5 612.0 1703.5 612.0Q1722.5 612.0 1736.5 612.0Q1748.5 611.0 1760.0 608.0Q1771.5 605.0 1779.5 594.0Q1793.5 580.0 1814.0 540.0Q1834.5 500.0 1857.5 444.0H1877.5L1886.5 598.0Q1930.5 618.0 1944.0 642.5Q1957.5 667.0 1957.5 700.0Q1957.5 771.0 1888.0 805.5Q1818.5 840.0 1632.5 840.0H1501.5Q1408.5 840.0 1363.5 821.5Q1318.5 803.0 1304.5 759.5Q1290.5 716.0 1290.5 639.0V254.0H1212.5Q1181.5 518.0 1044.5 698.5Q907.5 879.0 612.5 977.0L604.5 952.0Q733.5 864.0 805.0 757.0Q876.5 650.0 906.0 524.0Q935.5 398.0 939.5 254.0H862.5Q869.5 358.0 841.5 420.0Q813.5 482.0 768.0 508.5Q722.5 535.0 675.0 531.5Q627.5 528.0 595.5 500.5Q563.5 473.0 561.5 427.0Q559.5 381.0 606.5 324.0Q672.5 296.0 726.0 231.5Q779.5 167.0 794.5 61.0ZM1097.5 868.0 1451.5 899.0Q1448.5 918.0 1435.5 932.0Q1422.5 946.0 1384.5 952.0V1122.0H1578.5L1720.5 926.0Q1720.5 926.0 1746.5 947.5Q1772.5 969.0 1813.0 1003.0Q1853.5 1037.0 1897.0 1075.5Q1940.5 1114.0 1976.5 1147.0Q1973.5 1164.0 1957.0 1172.0Q1940.5 1180.0 1918.5 1180.0H1421.5Q1487.5 1274.0 1583.5 1350.0Q1679.5 1426.0 1790.5 1481.5Q1901.5 1537.0 2013.5 1569.0L2009.5 1591.0Q1929.5 1613.0 1871.5 1681.0Q1813.5 1749.0 1787.5 1858.0Q1632.5 1749.0 1537.0 1585.5Q1441.5 1422.0 1384.5 1198.0V1911.0Q1384.5 1921.0 1348.5 1938.5Q1312.5 1956.0 1258.5 1970.5Q1204.5 1985.0 1150.5 1985.0H1097.5V1505.0Q990.5 1619.0 849.0 1710.0Q707.5 1801.0 538.5 1872.0L522.5 1849.0Q684.5 1723.0 800.0 1545.0Q915.5 1367.0 976.5 1180.0H593.5L577.5 1122.0H1097.5Z" fill="black"></path></svg>