<?xml version="1.0" standalone="no"?>
<!DOCTYPE svg PUBLIC "-//W3C//DTD SVG 1.1//EN" "http://www.w3.org/Graphics/SVG/1.1/DTD/svg11.dtd" >
<svg xmlns="http://www.w3.org/2000/svg" xmlns:svg="http://www.w3.org/2000/svg" xmlns:xlink="http://www.w3.org/1999/xlink" viewBox="0 0 2048 2048" style=""><path d="M170.5 68.5Q319.5 89.5 404.0 135.0Q488.5 180.5 520.5 236.0Q552.5 291.5 544.0 342.5Q535.5 393.5 498.5 427.0Q461.5 460.5 407.0 463.0Q352.5 465.5 293.5 421.5Q281.5 330.5 239.5 238.5Q197.5 146.5 154.5 79.5ZM39.5 515.5Q182.5 535.5 261.5 580.0Q340.5 624.5 369.5 677.5Q398.5 730.5 388.5 779.5Q378.5 828.5 341.0 860.0Q303.5 891.5 251.0 892.5Q198.5 893.5 142.5 849.5Q137.5 763.5 102.5 675.0Q67.5 586.5 23.5 525.5ZM138.5 1354.5Q162.5 1354.5 173.5 1349.5Q184.5 1344.5 201.5 1311.5Q212.5 1291.5 222.5 1273.0Q232.5 1254.5 247.0 1223.0Q261.5 1191.5 286.5 1133.0Q311.5 1074.5 353.0 976.5Q394.5 878.5 458.0 727.5Q521.5 576.5 613.5 357.5L643.5 365.5Q622.5 444.5 596.0 543.5Q569.5 642.5 543.0 747.0Q516.5 851.5 492.0 948.0Q467.5 1044.5 450.0 1118.0Q432.5 1191.5 424.5 1227.5Q412.5 1283.5 404.5 1338.0Q396.5 1392.5 396.5 1432.5Q399.5 1493.5 423.5 1543.5Q447.5 1593.5 469.5 1655.0Q491.5 1716.5 488.5 1811.5Q485.5 1894.5 433.0 1945.0Q380.5 1995.5 297.5 1995.5Q259.5 1995.5 222.0 1972.0Q184.5 1948.5 170.5 1887.5Q191.5 1778.5 196.0 1680.0Q200.5 1581.5 190.0 1513.0Q179.5 1444.5 154.5 1426.5Q132.5 1411.5 105.5 1403.0Q78.5 1394.5 45.5 1391.5V1354.5Q45.5 1354.5 64.0 1354.5Q82.5 1354.5 104.5 1354.5Q126.5 1354.5 138.5 1354.5ZM1332.5 85.5Q1532.5 113.5 1657.0 173.0Q1781.5 232.5 1843.0 305.0Q1904.5 377.5 1914.5 446.5Q1924.5 515.5 1895.0 564.5Q1865.5 613.5 1807.5 627.5Q1749.5 641.5 1676.5 601.5Q1639.5 514.5 1579.0 423.5Q1518.5 332.5 1449.5 248.5Q1380.5 164.5 1315.5 97.5ZM885.5 52.5 1233.5 216.5Q1227.5 231.5 1211.0 242.0Q1194.5 252.5 1158.5 249.5Q1065.5 371.5 920.0 499.5Q774.5 627.5 598.5 711.5L582.5 693.5Q652.5 603.5 712.5 488.5Q772.5 373.5 817.5 258.5Q862.5 143.5 885.5 52.5ZM744.5 1215.5V1207.5Q678.5 1252.5 609.0 1289.5Q539.5 1326.5 471.5 1356.5L459.5 1338.5Q560.5 1255.5 657.0 1144.5Q753.5 1033.5 834.5 911.0Q915.5 788.5 971.5 669.0Q1027.5 549.5 1047.5 449.5L1440.5 541.5Q1434.5 561.5 1414.0 573.0Q1393.5 584.5 1344.5 588.5Q1414.5 701.5 1530.0 789.0Q1645.5 876.5 1776.5 937.5Q1907.5 998.5 2024.5 1031.5L2022.5 1060.5Q1934.5 1087.5 1881.0 1166.5Q1827.5 1245.5 1815.5 1330.5L1758.5 1289.5L1741.5 1293.5V1916.5Q1741.5 1923.5 1678.5 1949.5Q1615.5 1975.5 1502.5 1975.5H1448.5V1813.5H1022.5V1932.5Q1022.5 1946.5 963.0 1971.0Q903.5 1995.5 795.5 1995.5H744.5ZM1022.5 1756.5H1448.5V1273.5H1022.5ZM1317.5 611.5Q1247.5 757.5 1121.0 893.5Q994.5 1029.5 842.5 1141.5L1043.5 1215.5H1440.5L1555.5 1088.5Q1389.5 881.5 1317.5 611.5Z" fill="black"></path></svg>