<?xml version="1.0" standalone="no"?>
<!DOCTYPE svg PUBLIC "-//W3C//DTD SVG 1.1//EN" "http://www.w3.org/Graphics/SVG/1.1/DTD/svg11.dtd" >
<svg xmlns="http://www.w3.org/2000/svg" xmlns:svg="http://www.w3.org/2000/svg" xmlns:xlink="http://www.w3.org/1999/xlink" viewBox="0 0 2048 2048" style=""><path d="M203.5 96.0Q359.5 94.0 452.0 126.5Q544.5 159.0 584.5 209.0Q624.5 259.0 623.5 311.0Q622.5 363.0 589.0 402.0Q555.5 441.0 501.0 450.5Q446.5 460.0 381.5 424.0Q357.5 338.0 301.0 251.5Q244.5 165.0 189.5 108.0ZM39.5 512.0Q187.5 527.0 270.0 569.0Q352.5 611.0 383.0 665.0Q413.5 719.0 403.5 770.0Q393.5 821.0 355.0 854.0Q316.5 887.0 261.5 888.5Q206.5 890.0 148.5 844.0Q146.5 758.0 110.0 670.0Q73.5 582.0 23.5 522.0ZM164.5 1370.0Q190.5 1370.0 202.0 1364.5Q213.5 1359.0 232.5 1327.0Q244.5 1306.0 255.0 1287.0Q265.5 1268.0 281.5 1236.0Q297.5 1204.0 324.0 1145.5Q350.5 1087.0 395.0 988.5Q439.5 890.0 507.0 738.0Q574.5 586.0 672.5 366.0L703.5 375.0Q679.5 453.0 651.5 552.0Q623.5 651.0 594.5 755.5Q565.5 860.0 539.5 956.5Q513.5 1053.0 494.5 1127.5Q475.5 1202.0 467.5 1239.0Q455.5 1294.0 446.5 1350.0Q437.5 1406.0 438.5 1446.0Q440.5 1490.0 456.0 1527.0Q471.5 1564.0 490.0 1602.5Q508.5 1641.0 522.0 1690.5Q535.5 1740.0 533.5 1810.0Q531.5 1892.0 475.5 1943.5Q419.5 1995.0 330.5 1995.0Q290.5 1995.0 251.5 1972.0Q212.5 1949.0 195.5 1888.0Q216.5 1783.0 221.5 1687.0Q226.5 1591.0 215.5 1524.5Q204.5 1458.0 178.5 1442.0Q134.5 1410.0 70.5 1407.0V1370.0Q70.5 1370.0 89.5 1370.0Q108.5 1370.0 131.0 1370.0Q153.5 1370.0 164.5 1370.0ZM776.5 116.0 1131.5 188.0V53.0L1497.5 82.0Q1494.5 105.0 1480.0 120.0Q1465.5 135.0 1422.5 141.0V497.0H1551.5L1694.5 301.0Q1694.5 301.0 1720.5 322.5Q1746.5 344.0 1786.0 378.5Q1825.5 413.0 1869.5 451.0Q1913.5 489.0 1948.5 522.0Q1939.5 555.0 1890.5 555.0H1422.5V952.0H1585.5L1731.5 751.0Q1731.5 751.0 1758.0 773.0Q1784.5 795.0 1825.0 830.0Q1865.5 865.0 1909.5 904.0Q1953.5 943.0 1989.5 977.0Q1986.5 994.0 1970.0 1001.5Q1953.5 1009.0 1931.5 1009.0H1563.5V1626.0Q1563.5 1647.0 1571.0 1655.0Q1578.5 1663.0 1606.5 1663.0H1698.5Q1721.5 1663.0 1741.0 1663.0Q1760.5 1663.0 1774.5 1663.0Q1789.5 1661.0 1799.0 1656.0Q1808.5 1651.0 1817.5 1634.0Q1835.5 1605.0 1861.5 1527.5Q1887.5 1450.0 1919.5 1351.0H1940.5L1948.5 1648.0Q1995.5 1673.0 2010.0 1700.0Q2024.5 1727.0 2024.5 1767.0Q2024.5 1849.0 1947.0 1892.0Q1869.5 1935.0 1663.5 1935.0H1522.5Q1420.5 1935.0 1369.5 1915.0Q1318.5 1895.0 1300.5 1844.5Q1282.5 1794.0 1282.5 1704.0V1009.0H1172.5Q1158.5 1233.0 1097.0 1422.5Q1035.5 1612.0 894.5 1757.0Q753.5 1902.0 502.5 1992.0L492.5 1972.0Q649.5 1847.0 728.5 1695.0Q807.5 1543.0 833.5 1370.0Q859.5 1197.0 858.5 1009.0H592.5L576.5 952.0H1131.5V555.0H950.5Q836.5 778.0 668.5 915.0L641.5 901.0Q698.5 744.0 734.5 534.5Q770.5 325.0 776.5 116.0ZM1131.5 223.0Q1110.5 241.0 1071.5 243.0Q1031.5 385.0 977.5 497.0H1131.5Z" fill="black"></path></svg>