<?xml version="1.0" standalone="no"?>
<!DOCTYPE svg PUBLIC "-//W3C//DTD SVG 1.1//EN" "http://www.w3.org/Graphics/SVG/1.1/DTD/svg11.dtd" >
<svg xmlns="http://www.w3.org/2000/svg" xmlns:svg="http://www.w3.org/2000/svg" xmlns:xlink="http://www.w3.org/1999/xlink" viewBox="0 0 2048 2048" style=""><path d="M187.5 89.0Q342.5 87.0 435.0 119.5Q527.5 152.0 568.0 202.0Q608.5 252.0 607.0 304.0Q605.5 356.0 572.5 395.0Q539.5 434.0 485.0 443.5Q430.5 453.0 365.5 417.0Q340.5 331.0 284.5 244.5Q228.5 158.0 172.5 101.0ZM41.5 542.0Q191.5 548.0 277.0 585.0Q362.5 622.0 396.0 673.0Q429.5 724.0 423.0 774.5Q416.5 825.0 380.0 859.5Q343.5 894.0 288.5 898.5Q233.5 903.0 172.5 861.0Q162.5 777.0 119.5 693.0Q76.5 609.0 27.5 552.0ZM162.5 1363.0Q187.5 1363.0 199.5 1358.0Q211.5 1353.0 230.5 1322.0Q244.5 1299.0 257.5 1277.5Q270.5 1256.0 292.0 1213.5Q313.5 1171.0 354.0 1088.0Q394.5 1005.0 463.0 861.0Q531.5 717.0 639.5 490.0L668.5 497.0Q643.5 581.0 611.5 692.0Q579.5 803.0 549.0 915.0Q518.5 1027.0 495.5 1116.0Q472.5 1205.0 463.5 1246.0Q451.5 1297.0 442.5 1349.5Q433.5 1402.0 435.5 1441.0Q436.5 1486.0 452.0 1523.0Q467.5 1560.0 487.0 1599.0Q506.5 1638.0 520.0 1687.5Q533.5 1737.0 531.5 1807.0Q528.5 1890.0 470.5 1941.0Q412.5 1992.0 326.5 1992.0Q286.5 1992.0 246.5 1969.5Q206.5 1947.0 191.5 1885.0Q212.5 1778.0 217.5 1681.0Q222.5 1584.0 212.0 1517.5Q201.5 1451.0 176.5 1435.0Q132.5 1403.0 68.5 1400.0V1363.0Q68.5 1363.0 87.5 1363.0Q106.5 1363.0 129.0 1363.0Q151.5 1363.0 162.5 1363.0ZM1098.5 978.0 1413.5 1007.0Q1412.5 1023.0 1400.5 1035.0Q1388.5 1047.0 1356.5 1052.0V1840.0Q1356.5 1849.0 1323.5 1865.0Q1290.5 1881.0 1241.5 1893.5Q1192.5 1906.0 1145.5 1906.0H1098.5ZM1475.5 939.0 1813.5 968.0Q1809.5 1012.0 1749.5 1021.0V1637.0Q1749.5 1668.0 1770.5 1668.0H1784.5Q1790.5 1668.0 1794.5 1668.0Q1798.5 1668.0 1803.5 1668.0Q1813.5 1668.0 1820.0 1663.0Q1826.5 1658.0 1835.5 1641.0Q1849.5 1614.0 1875.0 1532.0Q1900.5 1450.0 1928.5 1357.0H1948.5L1954.5 1660.0Q1996.5 1683.0 2008.5 1709.5Q2020.5 1736.0 2020.5 1775.0Q2020.5 1851.0 1952.5 1900.0Q1884.5 1949.0 1749.5 1949.0H1665.5Q1579.5 1949.0 1539.0 1928.0Q1498.5 1907.0 1487.0 1857.0Q1475.5 1807.0 1475.5 1721.0ZM627.5 671.0 932.5 673.0Q957.5 602.0 980.0 527.5Q1002.5 453.0 1020.5 388.0H635.5L619.5 331.0H1082.5V54.0L1442.5 81.0Q1439.5 102.0 1424.5 117.0Q1409.5 132.0 1366.5 138.0V331.0H1581.5L1721.5 138.0Q1721.5 138.0 1747.0 159.0Q1772.5 180.0 1811.5 213.5Q1850.5 247.0 1893.5 284.5Q1936.5 322.0 1971.5 355.0Q1962.5 388.0 1913.5 388.0H1348.5Q1291.5 457.0 1226.5 530.5Q1161.5 604.0 1096.5 673.0L1540.5 667.0Q1502.5 611.0 1461.0 560.0Q1419.5 509.0 1381.5 468.0L1397.5 456.0Q1579.5 481.0 1691.0 535.0Q1802.5 589.0 1855.5 655.5Q1908.5 722.0 1914.5 785.5Q1920.5 849.0 1890.5 894.0Q1860.5 939.0 1805.5 950.5Q1750.5 962.0 1682.5 923.0Q1665.5 876.0 1641.5 829.0Q1617.5 782.0 1588.5 736.0Q1448.5 779.0 1256.0 831.5Q1063.5 884.0 803.5 947.0Q791.5 971.0 766.5 982.0L1090.5 1013.0Q1087.5 1033.0 1073.5 1047.0Q1059.5 1061.0 1022.5 1066.0V1205.0Q1020.5 1303.0 1000.5 1413.5Q980.5 1524.0 927.0 1633.0Q873.5 1742.0 773.0 1836.0Q672.5 1930.0 508.5 1994.0L492.5 1977.0Q613.5 1868.0 670.5 1733.0Q727.5 1598.0 744.0 1459.5Q760.5 1321.0 760.5 1201.0V986.0L738.5 992.0Z" fill="black"></path></svg>