<?xml version="1.0" standalone="no"?>
<!DOCTYPE svg PUBLIC "-//W3C//DTD SVG 1.1//EN" "http://www.w3.org/Graphics/SVG/1.1/DTD/svg11.dtd" >
<svg xmlns="http://www.w3.org/2000/svg" xmlns:svg="http://www.w3.org/2000/svg" xmlns:xlink="http://www.w3.org/1999/xlink" viewBox="0 0 2048 2048" style=""><path d="M195.5 94.0Q351.5 92.0 443.5 124.5Q535.5 157.0 576.0 207.0Q616.5 257.0 615.5 309.0Q614.5 361.0 581.0 400.0Q547.5 439.0 493.0 448.5Q438.5 458.0 373.5 422.0Q348.5 336.0 292.5 249.5Q236.5 163.0 181.5 106.0ZM45.5 538.0Q195.5 545.0 281.0 582.0Q366.5 619.0 400.0 670.0Q433.5 721.0 427.0 771.0Q420.5 821.0 384.0 856.0Q347.5 891.0 292.5 895.5Q237.5 900.0 176.5 858.0Q166.5 773.0 123.5 689.5Q80.5 606.0 31.5 549.0ZM164.5 1368.0Q189.5 1368.0 201.5 1363.0Q213.5 1358.0 232.5 1327.0Q247.5 1303.0 260.0 1280.0Q272.5 1257.0 295.0 1212.5Q317.5 1168.0 359.0 1079.5Q400.5 991.0 471.5 838.0Q542.5 685.0 654.5 444.0L684.5 452.0L561.5 880.0Q566.5 871.0 572.5 861.0Q578.5 851.0 586.5 842.0Q641.5 814.0 684.5 754.5Q727.5 695.0 740.5 604.0L766.5 606.0Q790.5 673.0 799.5 733.0H828.5V84.0L1092.5 184.0H1428.5L1534.5 47.0L1796.5 225.0Q1778.5 252.0 1704.5 266.0V733.0L1817.5 618.0L2016.5 811.0Q1996.5 830.0 1938.5 833.0Q1904.5 861.0 1854.0 899.5Q1803.5 938.0 1760.5 971.0L1833.5 1026.0Q1824.5 1037.0 1807.0 1048.0Q1789.5 1059.0 1760.5 1065.0V1696.0Q1760.5 1785.0 1738.5 1848.0Q1716.5 1911.0 1647.5 1949.0Q1578.5 1987.0 1436.5 2001.0Q1433.5 1935.0 1425.5 1886.0Q1417.5 1837.0 1397.5 1806.0Q1376.5 1775.0 1344.0 1753.5Q1311.5 1732.0 1243.5 1720.0V1694.0Q1243.5 1694.0 1270.0 1695.0Q1296.5 1696.0 1333.0 1697.5Q1369.5 1699.0 1403.0 1700.5Q1436.5 1702.0 1450.5 1702.0Q1487.5 1702.0 1487.5 1665.0V1528.0H1061.5V1906.0Q1061.5 1921.0 1027.0 1943.0Q992.5 1965.0 938.0 1982.0Q883.5 1999.0 824.5 1999.0H783.5V946.0Q758.5 997.0 719.0 1017.5Q679.5 1038.0 639.5 1033.0Q599.5 1028.0 573.0 1002.0Q546.5 976.0 547.5 936.0Q518.5 1039.0 496.0 1123.0Q473.5 1207.0 465.5 1245.0Q453.5 1297.0 444.5 1351.5Q435.5 1406.0 437.5 1446.0Q438.5 1490.0 454.0 1526.5Q469.5 1563.0 489.0 1601.5Q508.5 1640.0 522.0 1689.0Q535.5 1738.0 533.5 1808.0Q530.5 1890.0 473.5 1941.5Q416.5 1993.0 328.5 1993.0Q290.5 1993.0 250.5 1970.0Q210.5 1947.0 193.5 1886.0Q214.5 1780.0 219.5 1684.0Q224.5 1588.0 214.0 1521.5Q203.5 1455.0 179.5 1438.0Q132.5 1408.0 70.5 1405.0V1368.0Q70.5 1368.0 89.5 1368.0Q108.5 1368.0 131.0 1368.0Q153.5 1368.0 164.5 1368.0ZM1166.5 428.0V346.0L1370.5 428.0H1448.5V241.0H1073.5V733.0H1166.5ZM1448.5 733.0V485.0H1344.5V733.0ZM805.5 790.0Q808.5 831.0 805.5 862.0L1071.5 969.0H1467.5L1583.5 837.0L1706.5 930.0L1719.5 790.0ZM1487.5 1268.0H1061.5V1470.0H1487.5ZM1487.5 1210.0V1026.0H1061.5V1210.0Z" fill="black"></path></svg>