<?xml version="1.0" standalone="no"?>
<!DOCTYPE svg PUBLIC "-//W3C//DTD SVG 1.1//EN" "http://www.w3.org/Graphics/SVG/1.1/DTD/svg11.dtd" >
<svg xmlns="http://www.w3.org/2000/svg" xmlns:svg="http://www.w3.org/2000/svg" xmlns:xlink="http://www.w3.org/1999/xlink" viewBox="0 0 2048 2048" style=""><path d="M141.5 1344.0Q163.5 1344.0 174.5 1339.0Q185.5 1334.0 201.5 1303.0Q213.5 1282.0 223.0 1261.5Q232.5 1241.0 249.5 1200.5Q266.5 1160.0 297.0 1080.5Q327.5 1001.0 380.0 863.5Q432.5 726.0 514.5 509.0L547.5 515.0Q529.5 596.0 508.0 703.0Q486.5 810.0 465.5 917.5Q444.5 1025.0 428.5 1110.0Q412.5 1195.0 406.5 1234.0Q398.5 1281.0 392.5 1332.5Q386.5 1384.0 387.5 1422.0Q390.5 1481.0 414.0 1531.5Q437.5 1582.0 459.0 1645.5Q480.5 1709.0 477.5 1805.0Q474.5 1887.0 422.0 1936.0Q369.5 1985.0 291.5 1985.0Q256.5 1985.0 219.5 1961.5Q182.5 1938.0 170.5 1877.0Q191.5 1768.0 196.0 1668.5Q200.5 1569.0 190.5 1500.0Q180.5 1431.0 158.5 1416.0Q117.5 1387.0 53.5 1381.0V1344.0Q53.5 1344.0 89.5 1344.0Q125.5 1344.0 141.5 1344.0ZM160.5 60.0Q305.5 88.0 386.5 137.0Q467.5 186.0 497.5 242.5Q527.5 299.0 518.0 349.5Q508.5 400.0 471.5 432.5Q434.5 465.0 381.0 465.5Q327.5 466.0 270.5 421.0Q261.5 329.0 222.5 235.0Q183.5 141.0 144.5 71.0ZM45.5 490.0Q182.5 517.0 258.0 564.0Q333.5 611.0 360.5 665.0Q387.5 719.0 377.5 767.5Q367.5 816.0 331.5 846.0Q295.5 876.0 244.5 876.0Q193.5 876.0 139.5 832.0Q136.5 745.0 103.5 655.0Q70.5 565.0 27.5 501.0ZM932.5 710.0H813.5V1111.0H932.5ZM932.5 652.0V261.0H813.5V652.0ZM932.5 1168.0H813.5V1582.0H932.5ZM578.5 204.0V99.0L819.5 204.0H912.5L1024.5 77.0L1251.5 257.0Q1227.5 288.0 1168.5 300.0V925.0Q1195.5 800.0 1215.0 653.5Q1234.5 507.0 1241.5 365.0L1430.5 441.0V75.0L1747.5 103.0Q1741.5 147.0 1675.5 159.0V388.0L1696.5 382.0Q1824.5 460.0 1896.5 544.5Q1968.5 629.0 1994.5 707.5Q2020.5 786.0 2011.5 849.0Q2002.5 912.0 1969.0 948.0Q1935.5 984.0 1887.5 982.5Q1839.5 981.0 1788.5 931.0Q1788.5 800.0 1753.0 659.5Q1717.5 519.0 1675.5 402.0V1084.0L1673.5 1148.0Q1683.5 1123.0 1692.0 1097.5Q1700.5 1072.0 1708.5 1047.0L2005.5 1166.0Q1993.5 1197.0 1931.5 1191.0Q1844.5 1385.0 1688.0 1551.0Q1531.5 1717.0 1305.5 1832.0Q1079.5 1947.0 787.5 1988.0L778.5 1961.0Q1061.5 1867.0 1268.0 1692.5Q1474.5 1518.0 1596.5 1308.0Q1563.5 1331.0 1513.0 1346.0Q1462.5 1361.0 1387.5 1367.0Q1384.5 1310.0 1378.0 1267.0Q1371.5 1224.0 1354.5 1195.0Q1335.5 1169.0 1307.5 1149.5Q1279.5 1130.0 1221.5 1119.0V1090.0Q1221.5 1090.0 1258.5 1093.0Q1295.5 1096.0 1338.0 1098.5Q1380.5 1101.0 1397.5 1101.0Q1430.5 1101.0 1430.5 1072.0V531.0Q1387.5 679.0 1324.0 815.0Q1260.5 951.0 1168.5 1054.0V1719.0Q1165.5 1728.0 1133.5 1745.0Q1101.5 1762.0 1056.5 1775.5Q1011.5 1789.0 969.5 1789.0H932.5V1639.0H813.5V1768.0Q813.5 1790.0 756.0 1822.0Q698.5 1854.0 617.5 1854.0H578.5Z" fill="black"></path></svg>