<?xml version="1.0" standalone="no"?>
<!DOCTYPE svg PUBLIC "-//W3C//DTD SVG 1.1//EN" "http://www.w3.org/Graphics/SVG/1.1/DTD/svg11.dtd" >
<svg xmlns="http://www.w3.org/2000/svg" xmlns:svg="http://www.w3.org/2000/svg" xmlns:xlink="http://www.w3.org/1999/xlink" viewBox="0 0 2048 2048" style=""><path d="M180.5 66.5Q329.5 87.5 413.5 133.0Q497.5 178.5 529.5 234.0Q561.5 289.5 553.5 340.5Q545.5 391.5 508.0 425.0Q470.5 458.5 416.0 461.0Q361.5 463.5 303.5 419.5Q290.5 328.5 248.5 236.5Q206.5 144.5 163.5 77.5ZM36.5 521.5Q179.5 541.5 258.5 586.0Q337.5 630.5 366.5 683.5Q395.5 736.5 385.5 786.0Q375.5 835.5 338.0 867.0Q300.5 898.5 248.0 899.0Q195.5 899.5 139.5 855.5Q134.5 769.5 99.5 681.5Q64.5 593.5 20.5 531.5ZM131.5 1348.5Q155.5 1348.5 167.0 1343.5Q178.5 1338.5 196.5 1305.5Q210.5 1282.5 223.0 1259.5Q235.5 1236.5 258.0 1190.0Q280.5 1143.5 323.0 1051.0Q365.5 958.5 438.0 797.0Q510.5 635.5 624.5 382.5L655.5 390.5Q631.5 466.5 603.5 563.0Q575.5 659.5 546.5 761.0Q517.5 862.5 492.0 956.0Q466.5 1049.5 448.0 1121.5Q429.5 1193.5 421.5 1228.5Q407.5 1280.5 398.5 1334.5Q389.5 1388.5 391.5 1428.5Q393.5 1488.5 417.0 1538.5Q440.5 1588.5 462.5 1650.5Q484.5 1712.5 481.5 1807.5Q479.5 1830.5 474.5 1852.0Q469.5 1873.5 458.5 1891.5H628.5V1039.5L905.5 1144.5H1515.5L1617.5 1015.5Q1577.5 1021.5 1527.5 1021.5H1476.5V902.5H962.5V988.5Q962.5 1002.5 903.0 1027.0Q843.5 1051.5 739.5 1051.5H690.5V99.5L982.5 208.5H1468.5L1599.5 58.5L1843.5 245.5Q1832.5 258.5 1814.5 269.0Q1796.5 279.5 1761.5 285.5V961.5Q1761.5 967.5 1730.5 983.0Q1699.5 998.5 1642.5 1010.5L1898.5 1185.5Q1887.5 1200.5 1867.0 1210.5Q1846.5 1220.5 1806.5 1228.5V1852.5L1873.5 1727.5Q1873.5 1727.5 1901.5 1759.5Q1929.5 1791.5 1965.5 1835.5Q2001.5 1879.5 2027.5 1916.5Q2018.5 1948.5 1974.5 1948.5H464.5L452.5 1903.5Q399.5 1989.5 290.5 1989.5Q252.5 1989.5 215.0 1966.0Q177.5 1942.5 163.5 1881.5Q184.5 1771.5 189.0 1673.0Q193.5 1574.5 182.5 1506.0Q171.5 1437.5 147.5 1420.5Q104.5 1391.5 36.5 1385.5V1348.5Q36.5 1348.5 55.5 1348.5Q74.5 1348.5 97.0 1348.5Q119.5 1348.5 131.5 1348.5ZM1124.5 275.5 1398.5 357.5Q1392.5 373.5 1378.0 383.0Q1363.5 392.5 1327.5 394.5Q1314.5 429.5 1298.0 464.5Q1281.5 499.5 1263.5 531.5Q1362.5 552.5 1410.0 590.5Q1457.5 628.5 1465.5 670.0Q1473.5 711.5 1452.5 743.0Q1431.5 774.5 1392.0 783.5Q1352.5 792.5 1306.5 763.5Q1295.5 721.5 1273.0 676.5Q1250.5 631.5 1222.5 593.5Q1176.5 656.5 1113.0 708.5Q1049.5 760.5 966.5 793.5L962.5 785.5V845.5H1476.5V265.5H962.5V757.5Q1048.5 664.5 1083.5 532.5Q1118.5 400.5 1124.5 275.5ZM958.5 1891.5V1201.5H886.5V1891.5ZM1169.5 1891.5H1245.5V1201.5H1169.5ZM1456.5 1891.5H1535.5V1201.5H1456.5Z" fill="black"></path></svg>