<?xml version="1.0" standalone="no"?>
<!DOCTYPE svg PUBLIC "-//W3C//DTD SVG 1.1//EN" "http://www.w3.org/Graphics/SVG/1.1/DTD/svg11.dtd" >
<svg xmlns="http://www.w3.org/2000/svg" xmlns:svg="http://www.w3.org/2000/svg" xmlns:xlink="http://www.w3.org/1999/xlink" viewBox="0 0 2048 2048" style=""><path d="M211.0 89.0Q367.0 87.0 459.0 119.5Q551.0 152.0 591.5 202.0Q632.0 252.0 631.0 304.0Q630.0 356.0 596.5 395.0Q563.0 434.0 508.5 443.5Q454.0 453.0 389.0 417.0Q364.0 331.0 308.0 244.5Q252.0 158.0 197.0 101.0ZM61.0 533.0Q211.0 540.0 296.5 577.0Q382.0 614.0 415.5 665.0Q449.0 716.0 442.5 766.0Q436.0 816.0 399.5 851.0Q363.0 886.0 308.0 890.5Q253.0 895.0 192.0 853.0Q182.0 768.0 139.0 684.5Q96.0 601.0 47.0 544.0ZM180.0 1363.0Q205.0 1363.0 217.0 1358.0Q229.0 1353.0 248.0 1322.0Q263.0 1298.0 275.5 1275.0Q288.0 1252.0 310.5 1207.5Q333.0 1163.0 374.5 1074.5Q416.0 986.0 487.0 833.0Q558.0 680.0 670.0 439.0L700.0 447.0Q673.0 537.0 639.5 655.0Q606.0 773.0 573.0 891.5Q540.0 1010.0 515.0 1104.0Q490.0 1198.0 481.0 1240.0Q469.0 1292.0 460.0 1346.5Q451.0 1401.0 453.0 1441.0Q454.0 1485.0 469.5 1521.5Q485.0 1558.0 504.5 1596.5Q524.0 1635.0 537.5 1684.0Q551.0 1733.0 549.0 1803.0Q546.0 1885.0 489.0 1936.5Q432.0 1988.0 344.0 1988.0Q306.0 1988.0 266.0 1965.0Q226.0 1942.0 209.0 1881.0Q230.0 1775.0 235.0 1679.0Q240.0 1583.0 229.5 1516.5Q219.0 1450.0 195.0 1433.0Q148.0 1403.0 86.0 1400.0V1363.0Q86.0 1363.0 105.0 1363.0Q124.0 1363.0 146.5 1363.0Q169.0 1363.0 180.0 1363.0ZM1694.0 337.0H1413.0V505.0H1565.0ZM1122.0 56.0 1487.0 85.0Q1484.0 106.0 1469.5 121.5Q1455.0 137.0 1413.0 144.0V279.0H1573.0L1708.0 114.0Q1708.0 114.0 1750.0 145.0Q1792.0 176.0 1849.5 220.0Q1907.0 264.0 1954.0 304.0Q1945.0 337.0 1896.0 337.0H1694.0Q1694.0 337.0 1734.5 369.0Q1775.0 401.0 1830.0 445.5Q1885.0 490.0 1929.0 529.0Q1923.0 562.0 1874.0 562.0H1413.0V753.0H1601.0L1743.0 578.0Q1743.0 578.0 1769.0 597.5Q1795.0 617.0 1835.0 647.0Q1875.0 677.0 1919.5 711.5Q1964.0 746.0 2001.0 777.0Q1992.0 810.0 1941.0 810.0H655.0L639.0 753.0H1122.0V562.0H762.0L745.0 505.0H1122.0V337.0H704.0L688.0 279.0H1122.0ZM1509.0 1260.0H1071.0V1453.0H1509.0ZM1509.0 1203.0V1017.0H1071.0V1203.0ZM790.0 961.0V847.0L1083.0 961.0H1487.0L1612.0 820.0L1876.0 1021.0Q1867.0 1033.0 1846.5 1046.5Q1826.0 1060.0 1794.0 1066.0V1701.0Q1794.0 1786.0 1770.0 1846.5Q1746.0 1907.0 1669.5 1943.0Q1593.0 1979.0 1438.0 1992.0Q1432.0 1930.0 1421.0 1884.5Q1410.0 1839.0 1382.0 1811.0Q1356.0 1784.0 1316.0 1762.5Q1276.0 1741.0 1190.0 1725.0V1701.0Q1190.0 1701.0 1225.5 1703.0Q1261.0 1705.0 1310.5 1707.0Q1360.0 1709.0 1405.0 1711.0Q1450.0 1713.0 1468.0 1713.0Q1493.0 1713.0 1501.0 1702.5Q1509.0 1692.0 1509.0 1672.0V1510.0H1071.0V1889.0Q1071.0 1904.0 1036.5 1926.0Q1002.0 1948.0 947.0 1965.5Q892.0 1983.0 831.0 1983.0H790.0Z" fill="black"></path></svg>