<?xml version="1.0" standalone="no"?>
<!DOCTYPE svg PUBLIC "-//W3C//DTD SVG 1.1//EN" "http://www.w3.org/Graphics/SVG/1.1/DTD/svg11.dtd" >
<svg xmlns="http://www.w3.org/2000/svg" xmlns:svg="http://www.w3.org/2000/svg" xmlns:xlink="http://www.w3.org/1999/xlink" viewBox="0 0 2048 2048" style=""><path d="M202.0 71.0Q351.0 92.0 435.0 138.0Q519.0 184.0 551.0 239.0Q583.0 294.0 575.0 345.0Q567.0 396.0 529.5 429.5Q492.0 463.0 438.0 465.5Q384.0 468.0 325.0 424.0Q312.0 333.0 270.0 241.0Q228.0 149.0 185.0 82.0ZM63.0 522.0Q205.0 542.0 284.0 586.5Q363.0 631.0 392.0 684.0Q421.0 737.0 411.0 786.5Q401.0 836.0 364.0 867.5Q327.0 899.0 274.0 899.5Q221.0 900.0 165.0 856.0Q160.0 770.0 125.5 682.0Q91.0 594.0 46.0 532.0ZM167.0 1356.0Q192.0 1356.0 203.0 1350.5Q214.0 1345.0 233.0 1315.0Q246.0 1292.0 258.0 1270.5Q270.0 1249.0 289.5 1206.5Q309.0 1164.0 346.5 1081.0Q384.0 998.0 447.5 854.0Q511.0 710.0 611.0 483.0L642.0 489.0Q618.0 574.0 588.5 686.0Q559.0 798.0 530.5 910.5Q502.0 1023.0 480.0 1112.0Q458.0 1201.0 450.0 1241.0Q439.0 1292.0 430.0 1343.5Q421.0 1395.0 423.0 1435.0Q426.0 1494.0 450.0 1543.0Q474.0 1592.0 496.0 1653.5Q518.0 1715.0 515.0 1810.0Q512.0 1892.0 458.0 1942.0Q404.0 1992.0 323.0 1992.0Q286.0 1992.0 248.5 1968.0Q211.0 1944.0 196.0 1884.0Q217.0 1775.0 222.0 1677.0Q227.0 1579.0 216.5 1511.5Q206.0 1444.0 181.0 1427.0Q141.0 1398.0 75.0 1392.0V1356.0Q75.0 1356.0 93.5 1356.0Q112.0 1356.0 134.0 1356.0Q156.0 1356.0 167.0 1356.0ZM607.0 813.0V706.0L876.0 813.0H1123.0V590.0H1089.0V657.0Q1089.0 665.0 1056.5 678.5Q1024.0 692.0 974.5 702.0Q925.0 712.0 874.0 712.0H829.0V348.0H601.0L585.0 291.0H829.0V49.0L1164.0 78.0Q1161.0 99.0 1145.5 114.0Q1130.0 129.0 1089.0 135.0V291.0H1412.0V47.0L1750.0 76.0Q1747.0 97.0 1732.0 112.0Q1717.0 127.0 1674.0 133.0V291.0H1681.0L1795.0 121.0Q1795.0 121.0 1830.5 153.0Q1866.0 185.0 1913.0 230.5Q1960.0 276.0 1996.0 315.0Q1987.0 348.0 1941.0 348.0H1674.0V637.0Q1674.0 645.0 1641.0 658.0Q1608.0 671.0 1558.0 681.5Q1508.0 692.0 1457.0 692.0H1412.0V590.0H1375.0V813.0H1650.0L1762.0 686.0L2002.0 868.0Q1984.0 893.0 1934.0 905.0V1693.0Q1934.0 1783.0 1913.5 1845.5Q1893.0 1908.0 1826.0 1945.0Q1759.0 1982.0 1621.0 1995.0Q1618.0 1930.0 1610.5 1881.5Q1603.0 1833.0 1584.0 1804.0Q1566.0 1773.0 1535.0 1752.5Q1504.0 1732.0 1441.0 1718.0V1691.0Q1441.0 1691.0 1465.0 1692.5Q1489.0 1694.0 1523.0 1695.5Q1557.0 1697.0 1587.5 1698.5Q1618.0 1700.0 1631.0 1700.0Q1668.0 1700.0 1668.0 1663.0V1462.0Q1644.0 1519.0 1637.0 1585.0Q1598.0 1542.0 1567.5 1466.0Q1537.0 1390.0 1523.0 1323.0Q1501.0 1378.0 1463.0 1436.0Q1425.0 1494.0 1375.0 1542.0V1921.0Q1375.0 1932.0 1321.0 1959.0Q1267.0 1986.0 1171.0 1986.0H1123.0V1483.0Q1114.0 1507.0 1108.0 1533.5Q1102.0 1560.0 1099.0 1585.0Q1065.0 1543.0 1040.0 1471.0Q1015.0 1399.0 1005.0 1331.0Q986.0 1392.0 947.0 1454.0Q908.0 1516.0 859.0 1562.0V1913.0Q859.0 1927.0 828.5 1948.0Q798.0 1969.0 749.5 1985.0Q701.0 2001.0 646.0 2001.0H607.0ZM1455.0 1028.0 1502.0 954.0 1629.0 1046.0Q1601.0 1078.0 1531.0 1087.0V1106.0Q1546.0 1176.0 1581.0 1228.0Q1616.0 1280.0 1668.0 1323.0V870.0H1375.0V1028.0ZM1089.0 532.0H1412.0V348.0H1089.0ZM941.0 1028.0 988.0 956.0 1109.0 1046.0Q1084.0 1078.0 1015.0 1087.0V1110.0Q1026.0 1179.0 1053.0 1231.0Q1080.0 1283.0 1123.0 1325.0V870.0H859.0V1503.0Q898.0 1422.0 928.5 1313.0Q959.0 1204.0 968.0 1108.0V1085.0H874.0L863.0 1028.0ZM1375.0 1085.0V1456.0Q1411.0 1376.0 1440.5 1281.5Q1470.0 1187.0 1482.0 1104.0V1085.0Z" fill="black"></path></svg>