<?xml version="1.0" standalone="no"?>
<!DOCTYPE svg PUBLIC "-//W3C//DTD SVG 1.1//EN" "http://www.w3.org/Graphics/SVG/1.1/DTD/svg11.dtd" >
<svg xmlns="http://www.w3.org/2000/svg" xmlns:svg="http://www.w3.org/2000/svg" xmlns:xlink="http://www.w3.org/1999/xlink" viewBox="0 0 2048 2048" style=""><path d="M180.0 95.0Q332.0 103.0 420.0 141.5Q508.0 180.0 545.0 232.0Q582.0 284.0 577.5 335.0Q573.0 386.0 539.0 422.5Q505.0 459.0 451.0 465.5Q397.0 472.0 336.0 433.0Q314.0 345.0 264.5 256.5Q215.0 168.0 164.0 105.0ZM49.0 543.0Q192.0 564.0 271.0 608.0Q350.0 652.0 379.0 705.5Q408.0 759.0 398.0 808.0Q388.0 857.0 350.5 888.5Q313.0 920.0 260.0 921.0Q207.0 922.0 152.0 877.0Q147.0 791.0 112.0 703.0Q77.0 615.0 33.0 554.0ZM158.0 1365.0Q181.0 1365.0 192.5 1359.5Q204.0 1354.0 221.0 1322.0Q234.0 1299.0 245.5 1277.0Q257.0 1255.0 276.5 1210.5Q296.0 1166.0 332.5 1077.5Q369.0 989.0 431.5 835.5Q494.0 682.0 592.0 441.0L623.0 449.0Q600.0 539.0 571.5 657.0Q543.0 775.0 515.5 894.0Q488.0 1013.0 467.0 1108.0Q446.0 1203.0 438.0 1246.0Q428.0 1296.0 420.0 1349.0Q412.0 1402.0 414.0 1442.0Q417.0 1502.0 441.0 1552.0Q465.0 1602.0 487.0 1664.0Q509.0 1726.0 506.0 1821.0Q503.0 1904.0 450.0 1955.0Q397.0 2006.0 315.0 2006.0Q277.0 2006.0 239.5 1982.0Q202.0 1958.0 189.0 1897.0Q209.0 1788.0 213.5 1689.0Q218.0 1590.0 208.0 1521.5Q198.0 1453.0 174.0 1436.0Q134.0 1408.0 68.0 1401.0V1365.0Q68.0 1365.0 85.5 1365.0Q103.0 1365.0 125.0 1365.0Q147.0 1365.0 158.0 1365.0ZM660.0 179.0V74.0L938.0 179.0H1600.0L1722.0 42.0L1954.0 214.0Q1945.0 227.0 1928.5 236.5Q1912.0 246.0 1878.0 252.0V605.0Q1878.0 611.0 1835.0 629.5Q1792.0 648.0 1712.0 654.0Q1746.0 678.0 1804.5 724.0Q1863.0 770.0 1911.0 812.0Q1902.0 844.0 1856.0 844.0H1786.0Q1798.0 854.0 1838.0 884.0Q1878.0 914.0 1926.5 952.5Q1975.0 991.0 2015.0 1025.0Q2009.0 1057.0 1958.0 1057.0H1522.0L1739.0 1119.0Q1725.0 1161.0 1663.0 1158.0Q1619.0 1196.0 1555.0 1243.0Q1491.0 1290.0 1428.0 1330.0H1638.0L1761.0 1174.0Q1761.0 1174.0 1800.0 1203.5Q1839.0 1233.0 1892.5 1275.0Q1946.0 1317.0 1989.0 1354.0Q1983.0 1387.0 1933.0 1387.0H1393.0V1596.0H1577.0L1710.0 1430.0Q1710.0 1430.0 1752.5 1461.0Q1795.0 1492.0 1852.5 1536.5Q1910.0 1581.0 1956.0 1621.0Q1947.0 1653.0 1899.0 1653.0H1393.0V1948.0Q1393.0 1954.0 1332.5 1976.5Q1272.0 1999.0 1163.0 1999.0H1112.0V1653.0H649.0L633.0 1596.0H1112.0V1387.0H596.0L580.0 1330.0H961.0Q921.0 1316.0 889.0 1285.0Q897.0 1225.0 884.5 1163.5Q872.0 1102.0 850.0 1057.0H580.0L563.0 1000.0H1112.0V844.0H676.0L660.0 787.0H1112.0V580.0H918.0V629.0Q918.0 642.0 861.5 664.5Q805.0 687.0 707.0 687.0H660.0ZM1393.0 844.0V1000.0H1651.0L1776.0 844.0ZM1393.0 787.0H1555.0L1661.0 656.0H1655.0H1608.0V580.0H1137.0L1452.0 607.0Q1449.0 624.0 1438.0 636.0Q1427.0 648.0 1393.0 654.0ZM1112.0 1330.0H1374.0Q1391.0 1271.0 1406.0 1195.5Q1421.0 1120.0 1432.0 1057.0H959.0Q1052.0 1086.0 1094.5 1126.5Q1137.0 1167.0 1140.0 1209.0Q1143.0 1251.0 1117.5 1284.0Q1092.0 1317.0 1051.0 1330.0ZM1305.0 523.0V236.0H1206.0V523.0ZM1503.0 523.0H1608.0V236.0H1503.0ZM918.0 523.0H1012.0V236.0H918.0Z" fill="black"></path></svg>