<?xml version="1.0" standalone="no"?>
<!DOCTYPE svg PUBLIC "-//W3C//DTD SVG 1.1//EN" "http://www.w3.org/Graphics/SVG/1.1/DTD/svg11.dtd" >
<svg xmlns="http://www.w3.org/2000/svg" xmlns:svg="http://www.w3.org/2000/svg" xmlns:xlink="http://www.w3.org/1999/xlink" viewBox="0 0 2048 2048" style=""><path d="M193.0 95.0Q348.0 93.0 440.5 125.5Q533.0 158.0 573.5 208.0Q614.0 258.0 612.5 310.0Q611.0 362.0 578.0 401.0Q545.0 440.0 490.5 449.5Q436.0 459.0 371.0 423.0Q346.0 337.0 290.0 250.5Q234.0 164.0 178.0 107.0ZM53.0 566.0Q203.0 573.0 288.5 610.0Q374.0 647.0 407.5 698.0Q441.0 749.0 434.5 799.0Q428.0 849.0 391.5 884.0Q355.0 919.0 300.0 923.5Q245.0 928.0 184.0 886.0Q174.0 801.0 131.0 717.0Q88.0 633.0 39.0 576.0ZM1040.0 1477.0Q1150.0 1545.0 1204.5 1617.0Q1259.0 1689.0 1270.5 1754.5Q1282.0 1820.0 1262.5 1870.5Q1243.0 1921.0 1203.5 1946.5Q1164.0 1972.0 1116.5 1963.5Q1069.0 1955.0 1026.0 1901.0Q1046.0 1797.0 1041.0 1686.0Q1036.0 1575.0 1018.0 1486.0ZM1311.0 1477.0Q1443.0 1531.0 1514.0 1597.0Q1585.0 1663.0 1607.0 1729.0Q1629.0 1795.0 1614.5 1849.5Q1600.0 1904.0 1561.0 1934.5Q1522.0 1965.0 1470.5 1960.5Q1419.0 1956.0 1368.0 1903.0Q1379.0 1797.0 1355.5 1685.5Q1332.0 1574.0 1290.0 1488.0ZM1595.0 1465.0Q1756.0 1511.0 1847.0 1577.5Q1938.0 1644.0 1973.5 1715.5Q2009.0 1787.0 2001.0 1849.5Q1993.0 1912.0 1955.0 1951.0Q1917.0 1990.0 1860.5 1991.0Q1804.0 1992.0 1743.0 1940.0Q1737.0 1819.0 1688.5 1695.0Q1640.0 1571.0 1577.0 1475.0ZM977.0 46.0 1339.0 169.0Q1333.0 187.0 1312.0 199.0Q1291.0 211.0 1255.0 210.0Q1239.0 236.0 1222.5 262.0Q1206.0 288.0 1188.0 312.0H1319.0L1458.0 175.0L1696.0 382.0Q1684.0 396.0 1665.0 400.5Q1646.0 405.0 1614.0 408.0Q1548.0 458.0 1458.0 517.0Q1368.0 576.0 1282.0 617.0H1593.0L1716.0 480.0L1974.0 677.0Q1964.0 689.0 1943.5 701.5Q1923.0 714.0 1892.0 720.0V1389.0Q1890.0 1397.0 1851.5 1412.0Q1813.0 1427.0 1759.5 1440.0Q1706.0 1453.0 1661.0 1453.0H1614.0V1365.0H1016.0V1418.0Q1016.0 1429.0 981.5 1451.5Q947.0 1474.0 883.0 1490.0Q932.0 1639.0 930.0 1740.0Q928.0 1841.0 893.0 1899.5Q858.0 1958.0 806.5 1980.0Q755.0 2002.0 704.5 1993.5Q654.0 1985.0 620.5 1951.0Q587.0 1917.0 588.0 1863.5Q589.0 1810.0 643.0 1744.0Q709.0 1714.0 767.0 1653.5Q825.0 1593.0 848.0 1496.0Q833.0 1497.0 816.0 1498.5Q799.0 1500.0 780.0 1500.0H727.0V736.0Q696.0 754.0 665.5 770.0Q635.0 786.0 604.0 802.0L592.0 791.0Q550.0 937.0 517.5 1060.5Q485.0 1184.0 473.0 1236.0Q461.0 1291.0 451.0 1348.0Q441.0 1405.0 442.0 1445.0Q444.0 1489.0 459.5 1526.0Q475.0 1563.0 494.0 1601.5Q513.0 1640.0 526.5 1689.5Q540.0 1739.0 539.0 1809.0Q536.0 1891.0 479.5 1942.5Q423.0 1994.0 336.0 1994.0Q296.0 1994.0 256.0 1971.0Q216.0 1948.0 199.0 1887.0Q220.0 1782.0 225.0 1686.0Q230.0 1590.0 219.5 1523.5Q209.0 1457.0 184.0 1441.0Q137.0 1409.0 74.0 1406.0V1369.0Q74.0 1369.0 92.5 1369.0Q111.0 1369.0 134.0 1369.0Q157.0 1369.0 168.0 1369.0Q194.0 1369.0 205.5 1363.5Q217.0 1358.0 236.0 1326.0Q248.0 1305.0 258.5 1285.5Q269.0 1266.0 285.0 1233.0Q301.0 1200.0 329.0 1140.0Q357.0 1080.0 402.5 978.5Q448.0 877.0 517.5 721.5Q587.0 566.0 688.0 341.0L719.0 349.0Q693.0 435.0 661.0 546.0Q629.0 657.0 598.0 769.0Q671.0 684.0 742.0 568.5Q813.0 453.0 874.0 319.5Q935.0 186.0 977.0 46.0ZM1614.0 675.0H1440.0V951.0H1614.0ZM1233.0 617.0Q1258.0 565.0 1283.0 495.5Q1308.0 426.0 1325.0 369.0H1145.0Q1099.0 429.0 1048.5 481.5Q998.0 534.0 944.0 580.0L1045.0 617.0ZM1172.0 675.0H1016.0V951.0H1172.0ZM1614.0 1008.0H1440.0V1307.0H1614.0ZM1172.0 1008.0H1016.0V1307.0H1172.0Z" fill="black"></path></svg>