<?xml version="1.0" standalone="no"?>
<!DOCTYPE svg PUBLIC "-//W3C//DTD SVG 1.1//EN" "http://www.w3.org/Graphics/SVG/1.1/DTD/svg11.dtd" >
<svg xmlns="http://www.w3.org/2000/svg" xmlns:svg="http://www.w3.org/2000/svg" xmlns:xlink="http://www.w3.org/1999/xlink" viewBox="0 0 2048 2048" style=""><path d="M176.5 1362.0Q201.5 1362.0 213.0 1356.5Q224.5 1351.0 242.5 1319.0Q254.5 1298.0 264.5 1279.0Q274.5 1260.0 289.5 1227.5Q304.5 1195.0 331.0 1135.0Q357.5 1075.0 400.0 974.5Q442.5 874.0 508.0 719.0Q573.5 564.0 668.5 340.0L699.5 348.0Q677.5 428.0 650.5 529.0Q623.5 630.0 596.0 737.0Q568.5 844.0 543.5 942.5Q518.5 1041.0 500.0 1117.0Q481.5 1193.0 473.5 1231.0Q461.5 1286.0 452.5 1342.0Q443.5 1398.0 445.5 1439.0Q446.5 1485.0 462.0 1523.0Q477.5 1561.0 496.5 1601.0Q515.5 1641.0 528.5 1692.5Q541.5 1744.0 539.5 1816.0Q536.5 1899.0 481.5 1951.0Q426.5 2003.0 340.5 2003.0Q302.5 2003.0 263.5 1980.0Q224.5 1957.0 207.5 1894.0Q229.5 1786.0 234.5 1687.0Q239.5 1588.0 229.0 1519.5Q218.5 1451.0 193.5 1433.0Q153.5 1405.0 82.5 1398.0V1362.0Q82.5 1362.0 101.5 1362.0Q120.5 1362.0 143.0 1362.0Q165.5 1362.0 176.5 1362.0ZM201.5 82.0Q355.5 89.0 444.5 127.5Q533.5 166.0 570.5 218.0Q607.5 270.0 603.0 322.0Q598.5 374.0 564.0 410.5Q529.5 447.0 474.5 453.0Q419.5 459.0 357.5 420.0Q337.5 332.0 287.0 243.5Q236.5 155.0 187.5 92.0ZM43.5 534.0Q187.5 552.0 268.0 595.0Q348.5 638.0 377.5 691.0Q406.5 744.0 397.0 793.0Q387.5 842.0 350.0 874.0Q312.5 906.0 259.0 907.5Q205.5 909.0 148.5 864.0Q143.5 778.0 107.5 692.0Q71.5 606.0 27.5 544.0ZM604.5 1310.0H1489.5L1637.5 1177.0V1171.0H940.5V1198.0Q940.5 1210.0 883.0 1232.5Q825.5 1255.0 723.5 1255.0H676.5V704.0L809.5 753.0V80.0L1094.5 186.0H1493.5L1618.5 45.0L1854.5 221.0Q1845.5 235.0 1829.0 244.5Q1812.5 254.0 1778.5 260.0V678.0L1770.5 684.0L1989.5 846.0Q1980.5 859.0 1964.0 868.5Q1947.5 878.0 1913.5 884.0V1181.0Q1913.5 1189.0 1862.5 1207.5Q1811.5 1226.0 1719.5 1231.0L1893.5 1388.0Q1875.5 1416.0 1807.5 1421.0Q1701.5 1571.0 1555.5 1677.0Q1664.5 1700.0 1782.5 1712.0Q1900.5 1724.0 2020.5 1728.0V1753.0Q1940.5 1777.0 1892.0 1842.0Q1843.5 1907.0 1825.5 2003.0Q1675.5 1972.0 1545.0 1928.5Q1414.5 1885.0 1307.5 1820.0Q1138.5 1896.0 935.5 1939.5Q732.5 1983.0 500.5 1999.0L492.5 1972.0Q685.5 1929.0 854.0 1863.0Q1022.5 1797.0 1155.5 1708.0Q1085.5 1642.0 1028.0 1558.0Q970.5 1474.0 928.5 1368.0H623.5ZM817.5 757.0 959.5 811.0H1628.5L1723.5 706.0Q1693.5 715.0 1650.5 722.0Q1607.5 729.0 1551.5 729.0H1501.5V655.0H1073.5V698.0Q1073.5 712.0 1016.0 734.5Q958.5 757.0 856.5 757.0ZM1073.5 452.0V598.0H1501.5V452.0ZM1073.5 395.0H1501.5V243.0H1073.5ZM940.5 1114.0H1043.5V868.0H940.5ZM1637.5 1114.0V868.0H1528.5V1114.0ZM1233.5 868.0V1114.0H1336.5V868.0ZM1487.5 1368.0H971.5Q1031.5 1446.0 1113.5 1503.5Q1195.5 1561.0 1297.5 1601.0Q1413.5 1497.0 1487.5 1368.0Z" fill="black"></path></svg>