<?xml version="1.0" standalone="no"?>
<!DOCTYPE svg PUBLIC "-//W3C//DTD SVG 1.1//EN" "http://www.w3.org/Graphics/SVG/1.1/DTD/svg11.dtd" >
<svg xmlns="http://www.w3.org/2000/svg" xmlns:svg="http://www.w3.org/2000/svg" xmlns:xlink="http://www.w3.org/1999/xlink" viewBox="0 0 2048 2048" style=""><path d="M140.0 1358.0Q164.0 1358.0 176.5 1352.5Q189.0 1347.0 207.0 1315.0Q222.0 1291.0 235.5 1268.0Q249.0 1245.0 272.5 1198.5Q296.0 1152.0 340.0 1060.5Q384.0 969.0 459.5 811.0Q535.0 653.0 654.0 403.0L684.0 412.0Q660.0 486.0 631.0 581.0Q602.0 676.0 572.0 776.0Q542.0 876.0 515.5 968.0Q489.0 1060.0 469.0 1130.0Q449.0 1200.0 441.0 1235.0Q427.0 1289.0 417.5 1343.5Q408.0 1398.0 408.0 1438.0Q409.0 1483.0 424.5 1521.0Q440.0 1559.0 459.0 1598.5Q478.0 1638.0 491.0 1688.0Q504.0 1738.0 502.0 1808.0Q499.0 1891.0 443.5 1943.0Q388.0 1995.0 303.0 1995.0Q263.0 1995.0 225.0 1971.5Q187.0 1948.0 170.0 1886.0Q192.0 1776.0 196.5 1678.5Q201.0 1581.0 190.0 1514.0Q179.0 1447.0 154.0 1429.0Q114.0 1401.0 43.0 1395.0V1358.0Q43.0 1358.0 62.5 1358.0Q82.0 1358.0 105.0 1358.0Q128.0 1358.0 140.0 1358.0ZM152.0 76.0Q305.0 83.0 394.5 121.5Q484.0 160.0 521.0 212.0Q558.0 264.0 553.5 316.0Q549.0 368.0 514.0 404.5Q479.0 441.0 424.5 447.0Q370.0 453.0 307.0 414.0Q287.0 326.0 237.0 237.5Q187.0 149.0 137.0 86.0ZM51.0 528.0Q195.0 546.0 275.5 589.0Q356.0 632.0 385.5 685.0Q415.0 738.0 405.0 787.0Q395.0 836.0 357.5 868.0Q320.0 900.0 266.5 901.5Q213.0 903.0 156.0 858.0Q151.0 772.0 115.5 686.0Q80.0 600.0 35.0 538.0ZM582.0 301.0H875.0V53.0L1202.0 80.0Q1199.0 100.0 1184.5 113.5Q1170.0 127.0 1135.0 133.0V301.0H1340.0V53.0L1673.0 80.0Q1670.0 124.0 1606.0 135.0V301.0H1661.0L1780.0 143.0Q1780.0 143.0 1815.5 172.5Q1851.0 202.0 1900.0 244.5Q1949.0 287.0 1989.0 325.0Q1980.0 358.0 1934.0 358.0H1606.0V485.0Q1606.0 494.0 1557.5 516.0Q1509.0 538.0 1409.0 538.0H1340.0V358.0H1135.0V495.0Q1135.0 503.0 1086.0 525.0Q1037.0 547.0 940.0 547.0H875.0V358.0H596.0ZM670.0 612.0V508.0L938.0 612.0H1553.0L1671.0 485.0L1921.0 670.0Q1914.0 679.0 1898.0 689.5Q1882.0 700.0 1856.0 704.0V1018.0Q1854.0 1024.0 1818.5 1038.0Q1783.0 1052.0 1735.0 1063.0Q1770.0 1089.0 1830.5 1135.0Q1891.0 1181.0 1940.0 1223.0Q1934.0 1255.0 1884.0 1255.0H1381.0Q1376.0 1303.0 1369.0 1350.0Q1362.0 1397.0 1348.0 1442.0H1589.0L1729.0 1266.0Q1729.0 1266.0 1754.0 1285.0Q1779.0 1304.0 1818.0 1335.0Q1857.0 1366.0 1900.0 1401.0Q1943.0 1436.0 1979.0 1466.0Q1973.0 1499.0 1921.0 1499.0H1401.0Q1466.0 1559.0 1563.0 1601.0Q1660.0 1643.0 1776.5 1666.0Q1893.0 1689.0 2013.0 1694.0L2011.0 1716.0Q1935.0 1741.0 1882.5 1812.5Q1830.0 1884.0 1813.0 1995.0Q1622.0 1925.0 1513.0 1809.0Q1404.0 1693.0 1346.0 1499.0H1327.0Q1283.0 1604.0 1187.5 1697.0Q1092.0 1790.0 922.0 1864.5Q752.0 1939.0 484.0 1991.0L473.0 1970.0Q730.0 1872.0 862.5 1754.5Q995.0 1637.0 1049.0 1499.0H568.0L551.0 1442.0H1067.0Q1092.0 1352.0 1098.0 1255.0H629.0L613.0 1198.0H1100.0V1157.0V1012.0H926.0V1059.0Q926.0 1070.0 892.5 1088.5Q859.0 1107.0 808.0 1121.5Q757.0 1136.0 705.0 1136.0H670.0ZM1676.0 1075.0 1622.0 1079.0H1571.0V1012.0H1383.0V1155.0V1198.0H1575.0ZM1571.0 954.0V670.0H1383.0V954.0ZM1100.0 954.0V670.0H926.0V954.0Z" fill="black"></path></svg>