<?xml version="1.0" standalone="no"?>
<!DOCTYPE svg PUBLIC "-//W3C//DTD SVG 1.1//EN" "http://www.w3.org/Graphics/SVG/1.1/DTD/svg11.dtd" >
<svg xmlns="http://www.w3.org/2000/svg" xmlns:svg="http://www.w3.org/2000/svg" xmlns:xlink="http://www.w3.org/1999/xlink" viewBox="0 0 2048 2048" style=""><path d="M310.5 76.0Q472.5 90.0 563.5 134.5Q654.5 179.0 689.5 236.5Q724.5 294.0 715.5 349.0Q706.5 404.0 666.0 440.5Q625.5 477.0 566.0 480.0Q506.5 483.0 441.5 435.0Q432.5 340.0 390.5 246.5Q348.5 153.0 296.5 87.0ZM415.5 1377.0 439.5 1375.0Q510.5 1518.0 516.0 1632.0Q521.5 1746.0 483.5 1822.5Q445.5 1899.0 384.5 1932.0Q321.5 1967.0 255.0 1946.5Q188.5 1926.0 165.5 1858.0Q145.5 1792.0 178.0 1744.0Q210.5 1696.0 265.5 1670.0Q325.5 1638.0 375.0 1558.0Q424.5 1478.0 415.5 1377.0ZM661.5 1379.0Q776.5 1450.0 830.5 1525.0Q884.5 1600.0 892.0 1667.5Q899.5 1735.0 873.0 1785.5Q846.5 1836.0 800.5 1859.0Q754.5 1882.0 702.0 1868.5Q649.5 1855.0 605.5 1793.0Q638.5 1690.0 645.5 1583.0Q652.5 1476.0 638.5 1385.0ZM913.5 1361.0Q1050.5 1393.0 1125.5 1444.5Q1200.5 1496.0 1226.5 1553.0Q1252.5 1610.0 1241.0 1659.5Q1229.5 1709.0 1192.0 1739.0Q1154.5 1769.0 1103.0 1767.5Q1051.5 1766.0 999.5 1719.0Q999.5 1628.0 968.0 1534.0Q936.5 1440.0 894.5 1371.0ZM1195.5 1324.0Q1330.5 1320.0 1409.5 1347.0Q1488.5 1374.0 1522.5 1417.5Q1556.5 1461.0 1554.0 1506.5Q1551.5 1552.0 1522.0 1586.0Q1492.5 1620.0 1444.5 1627.5Q1396.5 1635.0 1341.5 1602.0Q1327.5 1528.0 1280.5 1454.5Q1233.5 1381.0 1181.5 1336.0ZM884.5 42.0 1250.5 152.0Q1244.5 171.0 1227.5 182.0Q1210.5 193.0 1169.5 193.0Q1139.5 275.0 1105.5 359.0Q1071.5 443.0 1029.5 529.0H1267.5L1367.5 418.0L1605.5 593.0Q1582.5 618.0 1531.5 623.0L1478.5 844.0L1558.5 754.0L1787.5 924.0Q1767.5 947.0 1715.5 955.0L1672.5 1184.0L1785.5 1078.0L2023.5 1275.0Q2010.5 1287.0 1991.0 1297.0Q1971.5 1307.0 1939.5 1311.0Q1923.5 1501.0 1898.5 1626.0Q1873.5 1751.0 1835.0 1825.5Q1796.5 1900.0 1740.5 1938.0Q1640.5 2006.0 1474.5 2006.0Q1474.5 1949.0 1468.0 1902.5Q1461.5 1856.0 1441.5 1830.0Q1396.5 1769.0 1289.5 1744.0V1719.0Q1335.5 1724.0 1398.5 1726.5Q1461.5 1729.0 1490.5 1729.0Q1531.5 1729.0 1556.5 1713.0Q1589.5 1687.0 1618.0 1574.5Q1646.5 1462.0 1664.5 1264.0H517.5Q416.5 1364.0 298.5 1453.5Q180.5 1543.0 42.5 1617.0L24.5 1598.0Q180.5 1464.0 309.0 1298.5Q437.5 1133.0 538.0 951.5Q638.5 770.0 712.5 586.0H204.5L185.5 529.0H736.5Q786.5 402.0 823.0 278.5Q859.5 155.0 884.5 42.0ZM1414.5 1207.0 1470.5 920.0H804.5Q753.5 994.0 696.5 1066.0Q639.5 1138.0 575.5 1207.0ZM1203.5 863.0 1273.5 586.0H1001.5Q967.5 656.0 927.5 725.5Q887.5 795.0 843.5 863.0Z" fill="black"></path></svg>