<?xml version="1.0" standalone="no"?>
<!DOCTYPE svg PUBLIC "-//W3C//DTD SVG 1.1//EN" "http://www.w3.org/Graphics/SVG/1.1/DTD/svg11.dtd" >
<svg xmlns="http://www.w3.org/2000/svg" xmlns:svg="http://www.w3.org/2000/svg" xmlns:xlink="http://www.w3.org/1999/xlink" viewBox="0 0 2048 2048" style=""><path d="M154.0 499.5 178.0 495.5Q221.0 563.5 252.0 631.5Q283.0 699.5 297.0 764.5Q297.0 612.5 295.0 442.0Q293.0 271.5 293.0 82.5L639.0 112.5Q634.0 160.5 563.0 172.5Q562.0 355.5 562.0 519.5Q562.0 683.5 559.0 829.5Q577.0 764.5 594.0 689.5Q611.0 614.5 624.5 547.0Q638.0 479.5 645.0 436.5L762.0 512.5V422.5L1026.0 522.5H1079.0V291.5H711.0L694.0 233.5H1618.0L1751.0 55.5Q1751.0 55.5 1775.5 75.0Q1800.0 94.5 1837.0 126.0Q1874.0 157.5 1915.0 192.5Q1956.0 227.5 1989.0 258.5Q1980.0 291.5 1931.0 291.5H1581.0V522.5H1651.0L1768.0 389.5L1991.0 557.5Q1982.0 571.5 1964.5 582.0Q1947.0 592.5 1913.0 598.5V1155.5Q1913.0 1162.5 1857.0 1185.5Q1801.0 1208.5 1704.0 1208.5H1659.0V1102.5H1004.0V1190.5Q1004.0 1202.5 951.5 1225.0Q899.0 1247.5 805.0 1247.5H762.0V739.5Q716.0 779.5 662.0 820.5Q608.0 861.5 559.0 897.5L557.0 895.5Q553.0 985.5 546.0 1069.0Q539.0 1152.5 527.0 1229.5Q661.0 1278.5 733.0 1342.5Q805.0 1406.5 828.5 1472.5Q852.0 1538.5 838.0 1593.5Q824.0 1648.5 784.5 1680.5Q745.0 1712.5 691.0 1709.5Q637.0 1706.5 582.0 1654.5Q585.0 1570.5 564.5 1482.0Q544.0 1393.5 512.0 1317.5Q469.0 1532.5 366.0 1699.0Q263.0 1865.5 64.0 1992.5L43.0 1964.5Q140.0 1833.5 193.0 1679.5Q246.0 1525.5 268.0 1343.0Q290.0 1160.5 295.0 942.5Q287.0 965.5 276.0 986.5Q265.0 1007.5 248.0 1024.5Q200.0 1071.5 150.0 1069.0Q100.0 1066.5 66.5 1029.5Q33.0 992.5 34.5 935.5Q36.0 878.5 92.0 815.5Q123.0 775.5 143.0 684.0Q163.0 592.5 154.0 499.5ZM1004.0 1044.5H1079.0V579.5H1004.0ZM1659.0 1044.5V579.5H1581.0V1044.5ZM1368.0 579.5H1286.0V1044.5H1368.0ZM1368.0 522.5V291.5H1286.0V522.5ZM1196.0 1134.5 1538.0 1163.5Q1535.0 1181.5 1522.5 1195.0Q1510.0 1208.5 1473.0 1214.5V1431.5H1598.0L1731.0 1261.5Q1731.0 1261.5 1772.5 1293.5Q1814.0 1325.5 1870.5 1371.0Q1927.0 1416.5 1972.0 1456.5Q1963.0 1489.5 1915.0 1489.5H1473.0V1867.5H1620.0L1761.0 1683.5Q1761.0 1683.5 1787.0 1704.0Q1813.0 1724.5 1852.5 1756.5Q1892.0 1788.5 1935.5 1825.0Q1979.0 1861.5 2015.0 1892.5Q2006.0 1925.5 1956.0 1925.5H656.0L639.0 1867.5H1196.0V1489.5H862.0L846.0 1431.5H1196.0Z" fill="black"></path></svg>