<?xml version="1.0" standalone="no"?>
<!DOCTYPE svg PUBLIC "-//W3C//DTD SVG 1.1//EN" "http://www.w3.org/Graphics/SVG/1.1/DTD/svg11.dtd" >
<svg xmlns="http://www.w3.org/2000/svg" xmlns:svg="http://www.w3.org/2000/svg" xmlns:xlink="http://www.w3.org/1999/xlink" viewBox="0 0 2048 2048" style=""><path d="M431.0 1454.0H456.0Q500.0 1592.0 487.0 1698.0Q474.0 1804.0 425.0 1873.5Q376.0 1943.0 310.0 1972.0Q246.0 2003.0 177.5 1981.0Q109.0 1959.0 87.0 1890.0Q70.0 1826.0 103.0 1780.5Q136.0 1735.0 192.0 1710.0Q243.0 1695.0 295.0 1658.5Q347.0 1622.0 385.0 1570.0Q423.0 1518.0 431.0 1454.0ZM679.0 1475.0Q799.0 1541.0 859.5 1613.5Q920.0 1686.0 934.0 1753.5Q948.0 1821.0 927.5 1873.0Q907.0 1925.0 865.5 1951.5Q824.0 1978.0 773.0 1968.5Q722.0 1959.0 675.0 1903.0Q693.0 1797.0 686.5 1686.0Q680.0 1575.0 657.0 1483.0ZM1027.0 1475.0Q1178.0 1519.0 1262.5 1582.5Q1347.0 1646.0 1379.0 1714.0Q1411.0 1782.0 1402.0 1840.5Q1393.0 1899.0 1355.5 1935.5Q1318.0 1972.0 1264.0 1972.0Q1210.0 1972.0 1152.0 1921.0Q1149.0 1809.0 1106.5 1691.5Q1064.0 1574.0 1009.0 1485.0ZM1408.0 1456.0Q1600.0 1483.0 1717.0 1541.5Q1834.0 1600.0 1890.5 1671.0Q1947.0 1742.0 1953.5 1809.5Q1960.0 1877.0 1929.0 1925.0Q1898.0 1973.0 1841.5 1984.5Q1785.0 1996.0 1715.0 1954.0Q1689.0 1868.0 1637.5 1779.5Q1586.0 1691.0 1521.5 1610.5Q1457.0 1530.0 1392.0 1468.0ZM687.0 926.0H593.0V1352.0H687.0ZM935.0 926.0V1352.0H1033.0V926.0ZM687.0 868.0V446.0H593.0V868.0ZM935.0 868.0H1033.0V446.0H935.0ZM1285.0 926.0V1352.0H1386.0V926.0ZM1285.0 868.0H1386.0V446.0H1285.0ZM433.0 45.0 820.0 188.0Q806.0 230.0 734.0 227.0Q674.0 317.0 607.0 389.0H1529.0L1668.0 197.0Q1668.0 197.0 1693.5 218.0Q1719.0 239.0 1758.5 272.0Q1798.0 305.0 1841.0 343.0Q1884.0 381.0 1918.0 414.0Q1909.0 446.0 1861.0 446.0H1648.0V868.0L1777.0 684.0Q1777.0 684.0 1800.5 704.5Q1824.0 725.0 1860.0 757.0Q1896.0 789.0 1934.5 825.0Q1973.0 861.0 2004.0 893.0Q1995.0 926.0 1949.0 926.0H1648.0V1352.0H1652.0L1777.0 1153.0Q1777.0 1153.0 1800.0 1175.0Q1823.0 1197.0 1858.0 1231.5Q1893.0 1266.0 1930.0 1304.5Q1967.0 1343.0 1996.0 1376.0Q1987.0 1409.0 1941.0 1409.0H83.0L67.0 1352.0H343.0V926.0H61.0L44.0 868.0H343.0V633.0Q215.0 727.0 81.0 791.0L63.0 774.0Q129.0 689.0 198.0 571.5Q267.0 454.0 328.0 318.5Q389.0 183.0 433.0 45.0Z" fill="black"></path></svg>