<?xml version="1.0" standalone="no"?>
<!DOCTYPE svg PUBLIC "-//W3C//DTD SVG 1.1//EN" "http://www.w3.org/Graphics/SVG/1.1/DTD/svg11.dtd" >
<svg xmlns="http://www.w3.org/2000/svg" xmlns:svg="http://www.w3.org/2000/svg" xmlns:xlink="http://www.w3.org/1999/xlink" viewBox="0 0 2048 2048" style=""><path d="M1282.5 776.5 1403.5 612.5Q1403.5 612.5 1442.0 643.5Q1480.5 674.5 1532.0 718.0Q1583.5 761.5 1624.5 800.5Q1615.5 833.5 1567.5 833.5H1016.5L1000.5 778.5ZM680.5 317.5Q821.5 315.5 891.0 353.0Q960.5 390.5 977.5 438.5Q991.5 392.5 1003.5 345.0Q1015.5 297.5 1024.5 249.5H709.5L690.5 192.5H1012.5L1141.5 63.5L1364.5 249.5Q1350.5 274.5 1288.5 282.5Q1248.5 419.5 1178.0 545.0Q1107.5 670.5 1000.5 778.5Q967.5 810.5 931.0 841.0Q894.5 871.5 854.5 901.5L1127.5 1003.5H1469.5L1596.5 862.5L1833.5 1038.5Q1824.5 1052.5 1808.0 1062.0Q1791.5 1071.5 1757.5 1077.5V1413.5Q1757.5 1419.5 1696.5 1441.0Q1635.5 1462.5 1526.5 1462.5H1475.5V1367.5H1106.5V1435.5Q1106.5 1444.5 1071.5 1462.0Q1036.5 1479.5 971.5 1486.5Q1098.5 1523.5 1163.5 1575.5Q1228.5 1627.5 1244.5 1681.5Q1260.5 1735.5 1241.5 1780.5Q1222.5 1825.5 1180.0 1850.0Q1137.5 1874.5 1084.5 1867.5Q1031.5 1860.5 981.5 1808.5Q992.5 1725.5 976.0 1640.5Q959.5 1555.5 930.5 1490.5L887.5 1492.5H838.5V911.5Q786.5 948.5 728.0 979.5Q669.5 1010.5 604.5 1038.5L590.5 1013.5Q705.5 926.5 788.5 812.5Q871.5 698.5 928.5 569.5Q900.5 586.5 862.5 586.5Q824.5 586.5 783.5 559.5Q776.5 496.5 742.0 432.5Q707.5 368.5 664.5 329.5ZM1405.5 1466.5 1774.5 1562.5Q1768.5 1580.5 1750.0 1593.0Q1731.5 1605.5 1696.5 1603.5Q1639.5 1664.5 1554.5 1737.5Q1469.5 1810.5 1376.5 1871.5H1637.5L1766.5 1693.5Q1766.5 1693.5 1806.0 1727.0Q1845.5 1760.5 1900.0 1808.0Q1954.5 1855.5 1997.5 1896.5Q1988.5 1929.5 1940.5 1929.5H594.5L578.5 1871.5H1323.5Q1351.5 1781.5 1373.0 1668.5Q1394.5 1555.5 1405.5 1466.5ZM1106.5 1310.5H1475.5V1060.5H1106.5ZM1743.5 282.5 2007.5 434.5Q2000.5 447.5 1980.5 455.5Q1960.5 463.5 1929.5 454.5Q1890.5 471.5 1825.0 491.5Q1759.5 511.5 1692.5 528.5Q1841.5 649.5 2018.5 708.5L2013.5 731.5Q1943.5 749.5 1891.0 809.5Q1838.5 869.5 1815.5 966.5Q1617.5 834.5 1510.0 619.5Q1402.5 404.5 1348.5 81.5L1372.5 73.5Q1394.5 138.5 1425.5 198.0Q1456.5 257.5 1493.5 313.5Q1527.5 256.5 1559.5 192.0Q1591.5 127.5 1606.5 85.5L1874.5 231.5Q1868.5 245.5 1849.0 254.5Q1829.5 263.5 1796.5 255.5Q1752.5 277.5 1676.0 305.0Q1599.5 332.5 1524.5 354.5Q1549.5 388.5 1577.5 419.0Q1605.5 449.5 1635.5 479.5Q1667.5 428.5 1698.0 373.0Q1728.5 317.5 1743.5 282.5ZM150.5 552.5 174.5 548.5Q263.5 684.5 291.5 812.5Q293.5 651.5 291.5 470.0Q289.5 288.5 289.5 83.5L629.5 114.5Q620.5 162.5 553.5 174.5Q552.5 327.5 552.5 468.5Q552.5 609.5 549.5 737.5Q568.5 669.5 584.0 604.5Q599.5 539.5 606.5 497.5L869.5 661.5Q861.5 673.5 841.5 682.5Q821.5 691.5 791.5 681.5Q751.5 717.5 682.5 769.5Q613.5 821.5 545.5 866.5Q542.5 961.5 536.0 1048.5Q529.5 1135.5 516.5 1216.5Q647.5 1266.5 719.0 1329.5Q790.5 1392.5 813.5 1456.0Q836.5 1519.5 823.5 1572.5Q810.5 1625.5 772.5 1656.0Q734.5 1686.5 682.0 1683.0Q629.5 1679.5 576.5 1630.5Q573.5 1550.5 552.5 1466.0Q531.5 1381.5 502.5 1304.5Q459.5 1522.5 357.0 1689.5Q254.5 1856.5 51.5 1984.5L29.5 1955.5Q172.5 1771.5 225.5 1539.0Q278.5 1306.5 289.5 1005.5Q272.5 1048.5 244.5 1077.5Q196.5 1124.5 146.5 1122.0Q96.5 1119.5 63.0 1082.5Q29.5 1045.5 31.0 988.5Q32.5 931.5 88.5 868.5Q119.5 828.5 139.5 737.0Q159.5 645.5 150.5 552.5Z" fill="black"></path></svg>