<?xml version="1.0" standalone="no"?>
<!DOCTYPE svg PUBLIC "-//W3C//DTD SVG 1.1//EN" "http://www.w3.org/Graphics/SVG/1.1/DTD/svg11.dtd" >
<svg xmlns="http://www.w3.org/2000/svg" xmlns:svg="http://www.w3.org/2000/svg" xmlns:xlink="http://www.w3.org/1999/xlink" viewBox="0 0 2048 2048" style=""><path d="M31.5 1152.0Q83.5 1143.0 173.5 1124.5Q263.5 1106.0 375.5 1080.0V627.0H252.5Q215.5 724.0 169.0 809.0Q122.5 894.0 64.5 961.0L35.5 947.0Q57.5 844.0 71.0 719.0Q84.5 594.0 91.0 462.0Q97.5 330.0 95.5 206.0L375.5 257.0V52.0L723.5 87.0Q720.5 108.0 706.0 123.0Q691.5 138.0 648.5 144.0V550.0L746.5 382.0L869.5 513.0Q906.5 405.0 934.0 288.5Q961.5 172.0 975.5 52.0L1342.5 161.0Q1334.5 180.0 1315.0 192.0Q1295.5 204.0 1258.5 204.0Q1212.5 333.0 1149.5 447.0H1612.5L1766.5 292.0L2016.5 515.0Q2003.5 529.0 1980.0 540.5Q1956.5 552.0 1919.5 558.0Q1906.5 967.0 1884.0 1231.0Q1861.5 1495.0 1821.5 1644.0Q1781.5 1793.0 1715.5 1856.0Q1650.5 1916.0 1572.0 1943.5Q1493.5 1971.0 1377.5 1971.0Q1377.5 1900.0 1366.5 1848.5Q1355.5 1797.0 1327.5 1768.0Q1266.5 1697.0 1102.5 1660.0V1637.0Q1154.5 1641.0 1215.0 1645.0Q1275.5 1649.0 1328.5 1651.0Q1381.5 1653.0 1409.5 1653.0Q1457.5 1653.0 1491.5 1625.0Q1545.5 1579.0 1577.0 1352.5Q1608.5 1126.0 1626.5 730.0Q1562.5 960.0 1447.5 1170.0Q1332.5 1380.0 1156.0 1554.0Q979.5 1728.0 731.5 1852.0L715.5 1834.0Q920.5 1664.0 1058.5 1449.0Q1196.5 1234.0 1275.5 995.0Q1354.5 756.0 1381.5 515.0Q1327.5 693.0 1234.0 861.0Q1140.5 1029.0 1009.5 1173.0Q878.5 1317.0 713.5 1422.0L697.5 1402.0Q805.5 1281.0 891.5 1131.0Q977.5 981.0 1035.0 820.5Q1092.5 660.0 1116.5 507.0Q1035.5 639.0 932.5 739.5Q829.5 840.0 705.5 914.0L684.5 898.0Q761.5 781.0 826.5 627.0H648.5V1019.0L897.5 957.0L901.5 978.0Q852.5 1013.0 789.5 1057.0Q726.5 1101.0 648.5 1152.0V1922.0Q648.5 1932.0 615.5 1949.5Q582.5 1967.0 533.0 1981.5Q483.5 1996.0 430.5 1996.0H375.5V1318.0L203.5 1416.0Q186.5 1460.0 146.5 1473.0ZM375.5 310.0 344.5 316.0Q329.5 382.0 312.5 446.0Q295.5 510.0 275.5 570.0H375.5Z" fill="black"></path></svg>