<?xml version="1.0" standalone="no"?>
<!DOCTYPE svg PUBLIC "-//W3C//DTD SVG 1.1//EN" "http://www.w3.org/Graphics/SVG/1.1/DTD/svg11.dtd" >
<svg xmlns="http://www.w3.org/2000/svg" xmlns:svg="http://www.w3.org/2000/svg" xmlns:xlink="http://www.w3.org/1999/xlink" viewBox="0 0 2048 2048" style=""><path d="M630.0 1447.0H656.0Q703.0 1566.0 705.0 1662.0Q707.0 1758.0 676.0 1824.0Q645.0 1890.0 595.0 1922.0Q560.0 1944.0 517.0 1944.5Q474.0 1945.0 437.5 1923.0Q401.0 1901.0 386.0 1858.0Q367.0 1797.0 396.5 1751.0Q426.0 1705.0 478.0 1680.0Q512.0 1662.0 547.0 1626.0Q582.0 1590.0 606.0 1543.5Q630.0 1497.0 630.0 1447.0ZM810.0 1457.0Q928.0 1533.0 973.0 1611.5Q1018.0 1690.0 1011.5 1756.0Q1005.0 1822.0 966.0 1860.5Q927.0 1899.0 874.5 1896.0Q822.0 1893.0 777.0 1834.0Q800.0 1741.0 800.5 1642.0Q801.0 1543.0 785.0 1463.0ZM1017.0 1436.0Q1158.0 1484.0 1223.0 1548.0Q1288.0 1612.0 1297.0 1674.0Q1306.0 1736.0 1275.5 1778.0Q1245.0 1820.0 1193.5 1826.0Q1142.0 1832.0 1088.0 1782.0Q1090.0 1696.0 1061.5 1605.0Q1033.0 1514.0 996.0 1447.0ZM1230.0 1404.0Q1353.0 1399.0 1426.0 1423.5Q1499.0 1448.0 1531.0 1487.5Q1563.0 1527.0 1562.5 1568.5Q1562.0 1610.0 1536.0 1641.5Q1510.0 1673.0 1467.0 1681.0Q1424.0 1689.0 1373.0 1660.0Q1359.0 1593.0 1312.0 1525.5Q1265.0 1458.0 1213.0 1418.0ZM355.0 160.0 642.0 263.0Q800.0 236.0 962.5 199.5Q1125.0 163.0 1267.5 122.5Q1410.0 82.0 1508.0 44.0L1772.0 281.0Q1731.0 319.0 1631.0 285.0Q1571.0 295.0 1500.0 301.0Q1429.0 307.0 1350.0 312.0Q1527.0 320.0 1634.5 363.0Q1742.0 406.0 1793.5 467.0Q1845.0 528.0 1849.5 589.5Q1854.0 651.0 1823.0 696.5Q1792.0 742.0 1735.0 755.0Q1678.0 768.0 1606.0 730.0Q1567.0 619.0 1483.5 508.5Q1400.0 398.0 1314.0 324.0L1326.0 314.0Q1237.0 320.0 1141.0 323.5Q1045.0 327.0 947.0 328.0Q1049.0 362.0 1097.5 406.0Q1146.0 450.0 1153.0 495.0Q1160.0 540.0 1137.0 576.5Q1114.0 613.0 1072.0 630.5Q1030.0 648.0 980.5 638.0Q931.0 628.0 886.0 580.0Q896.0 514.0 886.5 446.5Q877.0 379.0 859.0 328.0L662.0 326.0Q656.0 328.0 647.0 328.0Q638.0 328.0 628.0 328.0Q592.0 396.0 551.0 454.5Q510.0 513.0 466.0 562.0L732.0 652.0H1172.0L1273.0 539.0L1518.0 711.0Q1508.0 725.0 1493.0 732.0Q1478.0 739.0 1449.0 744.0L1430.0 933.0L1510.0 842.0L1760.0 1019.0Q1748.0 1032.0 1733.0 1039.0Q1718.0 1046.0 1688.0 1049.0L1664.0 1246.0L1758.0 1158.0L1996.0 1354.0Q1985.0 1367.0 1965.5 1377.0Q1946.0 1387.0 1916.0 1391.0Q1903.0 1560.0 1882.5 1669.5Q1862.0 1779.0 1828.0 1843.5Q1794.0 1908.0 1742.0 1942.0Q1648.0 2004.0 1490.0 2004.0Q1490.0 1947.0 1483.5 1900.0Q1477.0 1853.0 1457.0 1825.0Q1437.0 1798.0 1405.5 1777.5Q1374.0 1757.0 1320.0 1744.0V1721.0Q1360.0 1724.0 1415.0 1726.5Q1470.0 1729.0 1498.0 1729.0Q1535.0 1729.0 1555.0 1715.0Q1583.0 1693.0 1604.0 1602.5Q1625.0 1512.0 1637.0 1344.0H605.0Q547.0 1507.0 427.0 1664.0Q307.0 1821.0 95.0 1936.0L83.0 1920.0Q190.0 1786.0 253.5 1639.0Q317.0 1492.0 349.0 1343.5Q381.0 1195.0 391.5 1055.5Q402.0 916.0 402.0 797.0V625.0Q329.0 693.0 245.0 743.5Q161.0 794.0 70.0 832.0L52.0 814.0Q152.0 700.0 234.5 528.5Q317.0 357.0 355.0 160.0ZM1187.0 709.0H689.0V795.0Q689.0 868.0 683.0 957.0H1160.0ZM1387.0 1287.0 1422.0 1014.0H679.0Q671.0 1079.0 658.0 1147.5Q645.0 1216.0 623.0 1287.0Z" fill="black"></path></svg>