<?xml version="1.0" standalone="no"?>
<!DOCTYPE svg PUBLIC "-//W3C//DTD SVG 1.1//EN" "http://www.w3.org/Graphics/SVG/1.1/DTD/svg11.dtd" >
<svg xmlns="http://www.w3.org/2000/svg" xmlns:svg="http://www.w3.org/2000/svg" xmlns:xlink="http://www.w3.org/1999/xlink" viewBox="0 0 2048 2048" style=""><path d="M603.0 81.5 960.0 256.5Q954.0 271.5 936.5 281.5Q919.0 291.5 882.0 288.5Q805.0 396.5 696.0 503.0Q587.0 609.5 448.5 701.0Q310.0 792.5 145.0 854.5L130.0 833.5Q245.0 734.5 338.5 604.0Q432.0 473.5 499.5 336.5Q567.0 199.5 603.0 81.5ZM1207.0 106.5Q1438.0 143.5 1581.0 216.5Q1724.0 289.5 1794.0 376.5Q1864.0 463.5 1875.0 545.5Q1886.0 627.5 1852.0 685.5Q1818.0 743.5 1753.0 757.5Q1688.0 771.5 1607.0 720.5Q1574.0 611.5 1510.0 501.5Q1446.0 391.5 1363.0 293.0Q1280.0 194.5 1191.0 120.5ZM657.0 659.5Q710.0 825.5 797.5 960.0Q885.0 1094.5 999.0 1202.5Q1077.0 1070.5 1130.5 927.0Q1184.0 783.5 1218.0 634.5L1601.0 761.5Q1595.0 778.5 1577.0 789.5Q1559.0 800.5 1519.0 800.5Q1463.0 954.5 1387.0 1097.5Q1311.0 1240.5 1205.0 1368.5Q1381.0 1484.5 1582.0 1563.5Q1783.0 1642.5 1992.0 1691.5L1986.0 1716.5Q1883.0 1731.5 1811.5 1796.5Q1740.0 1861.5 1705.0 1966.5Q1513.0 1887.5 1348.0 1782.0Q1183.0 1676.5 1048.0 1531.5Q877.0 1684.5 637.0 1796.0Q397.0 1907.5 67.0 1964.5L56.0 1941.5Q350.0 1837.5 557.0 1684.5Q764.0 1531.5 902.0 1345.5Q812.0 1210.5 743.0 1043.5Q674.0 876.5 630.0 673.5Z" fill="black"></path></svg>