<?xml version="1.0" standalone="no"?>
<!DOCTYPE svg PUBLIC "-//W3C//DTD SVG 1.1//EN" "http://www.w3.org/Graphics/SVG/1.1/DTD/svg11.dtd" >
<svg xmlns="http://www.w3.org/2000/svg" xmlns:svg="http://www.w3.org/2000/svg" xmlns:xlink="http://www.w3.org/1999/xlink" viewBox="0 0 2048 2048" style=""><path d="M66.5 1888.5H844.5V1112.5H234.5L217.5 1054.5H844.5V370.5H162.5L146.5 313.5H1424.5L1589.5 102.5Q1589.5 102.5 1620.0 125.5Q1650.5 148.5 1697.5 185.0Q1744.5 221.5 1795.5 262.0Q1846.5 302.5 1888.5 337.5Q1880.5 370.5 1829.5 370.5H1172.5V1054.5H1370.5L1530.5 853.5Q1530.5 853.5 1559.5 875.5Q1588.5 897.5 1633.5 932.0Q1678.5 966.5 1727.5 1005.5Q1776.5 1044.5 1817.5 1079.5Q1808.5 1112.5 1757.5 1112.5H1172.5V1888.5H1506.5L1676.5 1673.5Q1676.5 1673.5 1707.0 1696.5Q1737.5 1719.5 1785.5 1756.5Q1833.5 1793.5 1886.0 1835.0Q1938.5 1876.5 1981.5 1912.5Q1972.5 1945.5 1919.5 1945.5H82.5Z" fill="black"></path></svg>