<?xml version="1.0" standalone="no"?>
<!DOCTYPE svg PUBLIC "-//W3C//DTD SVG 1.1//EN" "http://www.w3.org/Graphics/SVG/1.1/DTD/svg11.dtd" >
<svg xmlns="http://www.w3.org/2000/svg" xmlns:svg="http://www.w3.org/2000/svg" xmlns:xlink="http://www.w3.org/1999/xlink" viewBox="0 0 2048 2048" style=""><path d="M1270.5 1168.5Q1449.5 1191.5 1552.0 1246.5Q1654.5 1301.5 1695.5 1369.0Q1736.5 1436.5 1729.0 1500.5Q1721.5 1564.5 1679.0 1606.5Q1636.5 1648.5 1572.0 1652.5Q1507.5 1656.5 1436.5 1602.5Q1424.5 1487.5 1373.5 1374.5Q1322.5 1261.5 1256.5 1178.5ZM187.5 322.5H1426.5L1592.5 111.5Q1592.5 111.5 1623.0 134.5Q1653.5 157.5 1700.5 194.0Q1747.5 230.5 1799.0 271.0Q1850.5 311.5 1893.5 347.5Q1884.5 379.5 1831.5 379.5H1161.5V1027.5H1358.5L1518.5 826.5Q1518.5 826.5 1547.5 848.0Q1576.5 869.5 1621.0 904.0Q1665.5 938.5 1715.0 978.0Q1764.5 1017.5 1805.5 1051.5Q1796.5 1084.5 1745.5 1084.5H1161.5V1879.5H1506.5L1676.5 1663.5Q1676.5 1663.5 1707.0 1687.0Q1737.5 1710.5 1785.5 1747.5Q1833.5 1784.5 1886.0 1826.0Q1938.5 1867.5 1981.5 1903.5Q1972.5 1936.5 1919.5 1936.5H82.5L66.5 1879.5H834.5V1084.5H279.5L262.5 1027.5H834.5V379.5H203.5Z" fill="black"></path></svg>