<?xml version="1.0" standalone="no"?>
<!DOCTYPE svg PUBLIC "-//W3C//DTD SVG 1.1//EN" "http://www.w3.org/Graphics/SVG/1.1/DTD/svg11.dtd" >
<svg xmlns="http://www.w3.org/2000/svg" xmlns:svg="http://www.w3.org/2000/svg" xmlns:xlink="http://www.w3.org/1999/xlink" viewBox="0 0 2048 2048" style=""><path d="M951.0 768.0H1291.0L1420.0 585.0Q1420.0 585.0 1444.0 605.5Q1468.0 626.0 1504.5 657.5Q1541.0 689.0 1580.5 725.0Q1620.0 761.0 1652.0 792.0Q1643.0 825.0 1594.0 825.0H968.0ZM732.0 1063.0H1543.0L1672.0 917.0L1947.0 1124.0Q1937.0 1136.0 1916.5 1149.5Q1896.0 1163.0 1861.0 1171.0V1530.0Q1861.0 1617.0 1839.0 1678.0Q1817.0 1739.0 1746.0 1775.0Q1675.0 1811.0 1529.0 1822.0Q1526.0 1758.0 1519.5 1711.5Q1513.0 1665.0 1496.0 1634.0Q1479.0 1606.0 1451.5 1585.0Q1424.0 1564.0 1363.0 1552.0V1528.0Q1363.0 1528.0 1398.0 1529.5Q1433.0 1531.0 1474.0 1532.5Q1515.0 1534.0 1533.0 1534.0Q1553.0 1534.0 1559.5 1525.0Q1566.0 1516.0 1566.0 1499.0V1120.0H1316.0V1937.0Q1314.0 1946.0 1251.0 1971.5Q1188.0 1997.0 1074.0 1997.0H1019.0V1120.0H751.0ZM1379.0 219.0Q1314.0 381.0 1197.5 524.5Q1081.0 668.0 930.5 782.5Q780.0 897.0 613.0 970.0L601.0 952.0Q624.0 934.0 646.0 912.5Q668.0 891.0 689.0 868.0H554.0V1362.0L816.0 1292.0L820.0 1310.0Q731.0 1387.0 581.5 1500.0Q432.0 1613.0 214.0 1753.0Q200.0 1798.0 159.0 1812.0L32.0 1489.0Q114.0 1472.0 267.0 1435.0V868.0H87.0L71.0 811.0H267.0V301.0H71.0L54.0 243.0H491.0L628.0 51.0Q628.0 51.0 653.0 72.5Q678.0 94.0 716.5 127.5Q755.0 161.0 796.5 198.5Q838.0 236.0 871.0 268.0Q865.0 301.0 814.0 301.0H554.0V780.0L644.0 628.0L775.0 770.0Q863.0 661.0 935.5 537.5Q1008.0 414.0 1056.0 293.0Q1104.0 172.0 1119.0 69.0L1494.0 151.0Q1488.0 171.0 1469.5 181.5Q1451.0 192.0 1406.0 196.0Q1464.0 314.0 1565.5 396.0Q1667.0 478.0 1786.0 531.5Q1905.0 585.0 2016.0 618.0L2014.0 645.0Q1930.0 672.0 1881.0 746.5Q1832.0 821.0 1820.0 903.0Q1655.0 792.0 1541.0 623.0Q1427.0 454.0 1379.0 219.0Z" fill="black"></path></svg>