<?xml version="1.0" standalone="no"?>
<!DOCTYPE svg PUBLIC "-//W3C//DTD SVG 1.1//EN" "http://www.w3.org/Graphics/SVG/1.1/DTD/svg11.dtd" >
<svg xmlns="http://www.w3.org/2000/svg" xmlns:svg="http://www.w3.org/2000/svg" xmlns:xlink="http://www.w3.org/1999/xlink" viewBox="0 0 2048 2048" style=""><path d="M858.0 173.0 1186.0 285.0V54.0L1569.0 91.0Q1566.0 112.0 1551.0 128.0Q1536.0 144.0 1493.0 150.0V509.0H1550.0L1688.0 308.0Q1688.0 308.0 1713.0 330.0Q1738.0 352.0 1777.0 386.5Q1816.0 421.0 1858.0 460.0Q1900.0 499.0 1933.0 533.0Q1924.0 566.0 1874.0 566.0H1493.0V947.0H1612.0L1753.0 736.0Q1753.0 736.0 1779.0 759.5Q1805.0 783.0 1844.5 819.5Q1884.0 856.0 1926.5 896.5Q1969.0 937.0 2003.0 971.0Q1994.0 1004.0 1946.0 1004.0H1524.0Q1572.0 1129.0 1650.5 1221.0Q1729.0 1313.0 1823.5 1378.5Q1918.0 1444.0 2013.0 1490.0L2009.0 1522.0Q1905.0 1587.0 1841.0 1669.0Q1777.0 1751.0 1767.0 1848.0Q1655.0 1705.0 1591.0 1507.0Q1527.0 1309.0 1493.0 1086.0V1893.0Q1493.0 1907.0 1455.0 1932.0Q1417.0 1957.0 1359.5 1977.5Q1302.0 1998.0 1243.0 1998.0H1186.0V1404.0Q1058.0 1550.0 886.5 1668.5Q715.0 1787.0 502.0 1875.0L485.0 1854.0Q625.0 1750.0 737.0 1611.5Q849.0 1473.0 932.0 1317.0Q1015.0 1161.0 1065.0 1004.0H723.0L707.0 947.0H1186.0V566.0H1024.0Q936.0 714.0 813.0 810.0L838.0 838.0Q832.0 871.0 784.0 871.0H551.0V1363.0L819.0 1291.0L825.0 1309.0Q736.0 1386.0 586.5 1498.0Q437.0 1610.0 219.0 1752.0Q205.0 1797.0 164.0 1811.0L35.0 1488.0Q72.0 1480.0 131.0 1466.5Q190.0 1453.0 264.0 1436.0V871.0H84.0L68.0 814.0H264.0V300.0H72.0L55.0 242.0H492.0L629.0 50.0Q629.0 50.0 667.0 82.0Q705.0 114.0 757.5 161.0Q810.0 208.0 854.0 251.0ZM1186.0 509.0V326.0Q1169.0 338.0 1133.0 335.0Q1116.0 381.0 1097.0 425.0Q1078.0 469.0 1057.0 509.0ZM551.0 300.0V797.0L649.0 631.0L770.0 761.0Q801.0 661.0 822.0 539.0Q843.0 417.0 852.0 292.0Q838.0 300.0 815.0 300.0Z" fill="black"></path></svg>