<?xml version="1.0" standalone="no"?>
<!DOCTYPE svg PUBLIC "-//W3C//DTD SVG 1.1//EN" "http://www.w3.org/Graphics/SVG/1.1/DTD/svg11.dtd" >
<svg xmlns="http://www.w3.org/2000/svg" xmlns:svg="http://www.w3.org/2000/svg" xmlns:xlink="http://www.w3.org/1999/xlink" viewBox="0 0 2048 2048" style=""><path d="M15.0 1537.0Q52.0 1530.0 111.5 1516.5Q171.0 1503.0 245.0 1486.0V921.0H56.0L40.0 863.0H245.0V349.0H52.0L36.0 292.0H472.0L609.0 99.0L779.0 247.0V130.0L1078.0 247.0H1597.0L1728.0 104.0L1988.0 306.0Q1978.0 319.0 1958.5 331.5Q1939.0 344.0 1908.0 351.0V1146.0Q1907.0 1156.0 1868.0 1176.5Q1829.0 1197.0 1773.0 1213.5Q1717.0 1230.0 1666.0 1230.0H1617.0V1140.0H1482.0V1466.0H1576.0L1711.0 1271.0Q1711.0 1271.0 1736.0 1292.5Q1761.0 1314.0 1799.0 1347.5Q1837.0 1381.0 1878.0 1419.0Q1919.0 1457.0 1951.0 1490.0Q1945.0 1523.0 1893.0 1523.0H1482.0V1891.0H1629.0L1775.0 1678.0Q1775.0 1678.0 1801.5 1701.5Q1828.0 1725.0 1869.0 1762.0Q1910.0 1799.0 1954.0 1840.0Q1998.0 1881.0 2033.0 1916.0Q2030.0 1933.0 2013.5 1941.0Q1997.0 1949.0 1975.0 1949.0H607.0L591.0 1891.0H1193.0V1523.0H783.0L767.0 1466.0H1193.0V1140.0H1064.0V1183.0Q1064.0 1197.0 1029.0 1219.5Q994.0 1242.0 938.5 1259.5Q883.0 1277.0 822.0 1277.0H779.0V919.0L757.0 921.0H532.0V1412.0L800.0 1341.0L806.0 1359.0Q717.0 1436.0 567.5 1548.0Q418.0 1660.0 200.0 1801.0Q186.0 1847.0 145.0 1861.0ZM1193.0 722.0H1064.0V1083.0H1193.0ZM1482.0 722.0V1083.0H1617.0V722.0ZM1193.0 665.0V304.0H1064.0V665.0ZM1482.0 665.0H1617.0V304.0H1482.0ZM779.0 349.0H532.0V833.0L622.0 681.0Q622.0 681.0 647.5 707.5Q673.0 734.0 710.0 773.0Q747.0 812.0 779.0 851.0Z" fill="black"></path></svg>