<?xml version="1.0" standalone="no"?>
<!DOCTYPE svg PUBLIC "-//W3C//DTD SVG 1.1//EN" "http://www.w3.org/Graphics/SVG/1.1/DTD/svg11.dtd" >
<svg xmlns="http://www.w3.org/2000/svg" xmlns:svg="http://www.w3.org/2000/svg" xmlns:xlink="http://www.w3.org/1999/xlink" viewBox="0 0 2048 2048" style=""><path d="M785.0 903.5Q939.0 942.5 1023.5 1003.0Q1108.0 1063.5 1137.0 1129.5Q1166.0 1195.5 1153.0 1252.5Q1140.0 1309.5 1097.5 1344.0Q1055.0 1378.5 997.0 1376.0Q939.0 1373.5 879.0 1319.5Q881.0 1211.5 847.5 1104.0Q814.0 996.5 768.0 913.5ZM41.0 1669.5 320.0 1650.5Q344.0 1538.5 369.0 1400.0Q394.0 1261.5 417.0 1112.5Q440.0 963.5 459.5 819.0Q479.0 674.5 492.5 547.5Q506.0 420.5 512.0 327.5H88.0L72.0 270.5H1493.0L1659.0 59.5Q1659.0 59.5 1689.5 82.5Q1720.0 105.5 1766.5 142.0Q1813.0 178.5 1864.5 219.0Q1916.0 259.5 1958.0 295.5Q1949.0 327.5 1899.0 327.5H813.0L770.0 674.5H1196.0L1338.0 510.5L1598.0 719.5Q1587.0 731.5 1569.0 740.5Q1551.0 749.5 1520.0 755.5V1630.5Q1520.0 1653.5 1530.0 1663.5Q1540.0 1673.5 1569.0 1673.5H1663.0Q1685.0 1673.5 1706.0 1673.0Q1727.0 1672.5 1741.0 1671.5Q1755.0 1671.5 1769.5 1667.0Q1784.0 1662.5 1794.0 1648.5Q1813.0 1627.5 1838.5 1569.5Q1864.0 1511.5 1889.0 1442.5H1909.0L1917.0 1659.5Q1970.0 1685.5 1988.5 1712.0Q2007.0 1738.5 2007.0 1779.5Q2007.0 1869.5 1921.0 1914.0Q1835.0 1958.5 1626.0 1958.5H1479.0Q1374.0 1958.5 1318.5 1937.0Q1263.0 1915.5 1243.0 1862.0Q1223.0 1808.5 1223.0 1712.5V1634.5Q1065.0 1697.5 837.5 1771.0Q610.0 1844.5 283.0 1941.5Q259.0 1982.5 224.0 1988.5ZM764.0 731.5Q744.0 882.5 720.0 1043.0Q696.0 1203.5 672.0 1354.0Q648.0 1504.5 625.0 1626.5L1223.0 1571.5V731.5Z" fill="black"></path></svg>