<?xml version="1.0" standalone="no"?>
<!DOCTYPE svg PUBLIC "-//W3C//DTD SVG 1.1//EN" "http://www.w3.org/Graphics/SVG/1.1/DTD/svg11.dtd" >
<svg xmlns="http://www.w3.org/2000/svg" xmlns:svg="http://www.w3.org/2000/svg" xmlns:xlink="http://www.w3.org/1999/xlink" viewBox="0 0 2048 2048" style=""><path d="M697.0 408.0Q820.0 464.0 871.5 527.5Q923.0 591.0 922.5 647.0Q922.0 703.0 888.0 738.0Q854.0 773.0 804.5 773.0Q755.0 773.0 710.0 722.0Q719.0 643.0 706.0 561.5Q693.0 480.0 675.0 417.0ZM30.0 1576.0 238.0 1508.0V937.0H83.0L66.0 879.0H238.0V324.0H68.0L52.0 267.0H392.0L525.0 85.0Q525.0 85.0 549.5 105.0Q574.0 125.0 611.0 156.5Q648.0 188.0 689.0 224.0Q730.0 260.0 763.0 292.0Q754.0 324.0 705.0 324.0H515.0V840.0L589.0 714.0L652.0 783.0H955.0Q968.0 702.0 979.5 594.5Q991.0 487.0 998.0 404.0H613.0L597.0 347.0H812.0V62.0L1135.0 89.0Q1132.0 107.0 1118.5 120.5Q1105.0 134.0 1068.0 140.0V347.0H1080.0L1164.0 204.0Q1164.0 204.0 1191.0 232.0Q1218.0 260.0 1253.0 299.5Q1288.0 339.0 1314.0 371.0Q1305.0 404.0 1260.0 404.0H1041.0L1291.0 464.0Q1285.0 482.0 1267.0 495.0Q1249.0 508.0 1215.0 507.0Q1174.0 563.0 1114.5 640.0Q1055.0 717.0 996.0 783.0H1076.0L1170.0 648.0Q1170.0 648.0 1196.5 671.0Q1223.0 694.0 1259.0 728.5Q1295.0 763.0 1326.0 795.0V705.0L1621.0 816.0H1654.0V625.0H1590.0Q1583.0 635.0 1549.0 646.5Q1515.0 658.0 1467.0 666.5Q1419.0 675.0 1371.0 675.0H1326.0V50.0L1668.0 79.0Q1665.0 100.0 1650.0 115.0Q1635.0 130.0 1592.0 136.0V318.0H1654.0L1779.0 146.0Q1779.0 146.0 1818.0 178.5Q1857.0 211.0 1910.5 257.0Q1964.0 303.0 2006.0 343.0Q1997.0 376.0 1949.0 376.0H1592.0V568.0H1637.0L1752.0 449.0L1985.0 621.0Q1971.0 643.0 1930.0 652.0V896.0Q1929.0 903.0 1880.0 921.5Q1831.0 940.0 1772.0 949.0Q1800.0 974.0 1837.0 1006.5Q1874.0 1039.0 1903.0 1068.0Q1895.0 1101.0 1850.0 1101.0H1592.0V1256.0H1645.0L1734.0 1135.0Q1734.0 1135.0 1762.0 1159.0Q1790.0 1183.0 1828.0 1216.5Q1866.0 1250.0 1895.0 1281.0Q1889.0 1314.0 1844.0 1314.0H1592.0V1475.0H1645.0L1742.0 1344.0Q1742.0 1344.0 1771.5 1370.0Q1801.0 1396.0 1842.0 1432.0Q1883.0 1468.0 1916.0 1500.0Q1907.0 1533.0 1863.0 1533.0H1592.0V1680.0Q1592.0 1702.0 1600.5 1710.5Q1609.0 1719.0 1635.0 1719.0H1713.0Q1731.0 1719.0 1750.5 1719.0Q1770.0 1719.0 1783.0 1717.0Q1795.0 1717.0 1809.0 1714.5Q1823.0 1712.0 1832.0 1703.0Q1847.0 1689.0 1868.0 1650.5Q1889.0 1612.0 1908.0 1568.0H1928.0L1936.0 1707.0Q1984.0 1730.0 2001.0 1755.0Q2018.0 1780.0 2018.0 1815.0Q2018.0 1891.0 1941.5 1931.0Q1865.0 1971.0 1680.0 1971.0H1551.0Q1456.0 1971.0 1407.5 1951.0Q1359.0 1931.0 1342.5 1883.0Q1326.0 1835.0 1326.0 1750.0V826.0Q1314.0 840.0 1287.0 840.0H703.0L757.0 904.0Q753.0 914.0 748.0 916.0L896.0 972.0H992.0L1088.0 865.0L1299.0 1021.0Q1284.0 1044.0 1244.0 1049.0V1725.0Q1244.0 1808.0 1228.0 1865.0Q1212.0 1922.0 1160.0 1954.5Q1108.0 1987.0 998.0 1998.0Q998.0 1941.0 995.5 1897.5Q993.0 1854.0 984.0 1828.0Q975.0 1802.0 959.0 1784.0Q943.0 1766.0 908.0 1758.0V1729.0Q908.0 1729.0 937.5 1731.0Q967.0 1733.0 982.0 1733.0Q999.0 1733.0 1004.0 1724.5Q1009.0 1716.0 1009.0 1701.0V1465.0H896.0V1924.0Q896.0 1936.0 845.5 1963.5Q795.0 1991.0 705.0 1991.0H662.0V1418.0Q592.0 1495.0 491.0 1596.0Q390.0 1697.0 253.0 1819.0Q242.0 1869.0 204.0 1885.0ZM896.0 1029.0V1185.0H1009.0V1029.0ZM896.0 1242.0V1408.0H1009.0V1242.0ZM662.0 972.0V937.0H515.0V1410.0L662.0 1355.0ZM1592.0 873.0V1043.0H1645.0L1707.0 957.0H1703.0H1654.0V873.0Z" fill="black"></path></svg>