<?xml version="1.0" standalone="no"?>
<!DOCTYPE svg PUBLIC "-//W3C//DTD SVG 1.1//EN" "http://www.w3.org/Graphics/SVG/1.1/DTD/svg11.dtd" >
<svg xmlns="http://www.w3.org/2000/svg" xmlns:svg="http://www.w3.org/2000/svg" xmlns:xlink="http://www.w3.org/1999/xlink" viewBox="0 0 2048 2048" style=""><path d="M383.0 171.5 796.0 289.5Q783.0 334.5 712.0 334.5Q683.0 408.5 652.0 477.5Q621.0 546.5 585.0 609.5H864.0V113.5L1267.0 150.5Q1264.0 173.5 1249.5 188.5Q1235.0 203.5 1192.0 210.5V609.5H1442.0L1603.0 410.5Q1603.0 410.5 1632.0 431.5Q1661.0 452.5 1706.5 486.0Q1752.0 519.5 1802.5 558.5Q1853.0 597.5 1896.0 633.5Q1887.0 666.5 1835.0 666.5H1192.0V1193.5H1380.0L1544.0 988.5Q1544.0 988.5 1574.0 1011.0Q1604.0 1033.5 1651.0 1068.5Q1698.0 1103.5 1749.5 1143.5Q1801.0 1183.5 1843.0 1217.5Q1834.0 1250.5 1784.0 1250.5H1192.0V1877.5H1532.0L1702.0 1662.5Q1702.0 1662.5 1732.5 1685.5Q1763.0 1708.5 1811.0 1745.5Q1859.0 1782.5 1911.5 1824.0Q1964.0 1865.5 2007.0 1901.5Q1998.0 1934.5 1945.0 1934.5H80.0L63.0 1877.5H864.0V1250.5H329.0L313.0 1193.5H864.0V666.5H553.0Q453.0 832.5 330.0 960.0Q207.0 1087.5 61.0 1180.5L41.0 1166.5Q113.0 1044.5 181.0 883.0Q249.0 721.5 302.0 539.0Q355.0 356.5 383.0 171.5Z" fill="black"></path></svg>