<?xml version="1.0" standalone="no"?>
<!DOCTYPE svg PUBLIC "-//W3C//DTD SVG 1.1//EN" "http://www.w3.org/Graphics/SVG/1.1/DTD/svg11.dtd" >
<svg xmlns="http://www.w3.org/2000/svg" xmlns:svg="http://www.w3.org/2000/svg" xmlns:xlink="http://www.w3.org/1999/xlink" viewBox="0 0 2048 2048" style=""><path d="M342.0 206.0V87.0L653.0 206.0H1473.0L1604.0 62.0L1870.0 265.0Q1861.0 277.0 1841.5 290.5Q1822.0 304.0 1790.0 310.0V990.0Q1789.0 998.0 1747.5 1015.0Q1706.0 1032.0 1649.0 1046.0Q1592.0 1060.0 1544.0 1060.0H1493.0V959.0H915.0L1255.0 994.0Q1249.0 1046.0 1180.0 1052.0Q1174.0 1101.0 1166.0 1148.5Q1158.0 1196.0 1147.0 1242.0H1563.0L1708.0 1107.0L1958.0 1312.0Q1946.0 1326.0 1926.0 1336.0Q1906.0 1346.0 1874.0 1351.0Q1849.0 1583.0 1802.0 1723.0Q1755.0 1863.0 1669.0 1918.0Q1614.0 1952.0 1544.5 1967.5Q1475.0 1983.0 1366.0 1983.0Q1366.0 1925.0 1357.0 1876.5Q1348.0 1828.0 1317.0 1797.0Q1285.0 1763.0 1224.5 1737.5Q1164.0 1712.0 1085.0 1697.0L1088.0 1674.0Q1141.0 1679.0 1206.0 1683.5Q1271.0 1688.0 1326.0 1690.5Q1381.0 1693.0 1405.0 1693.0Q1451.0 1693.0 1473.0 1676.0Q1506.0 1653.0 1533.0 1554.0Q1560.0 1455.0 1577.0 1299.0H1131.0Q1079.0 1462.0 964.5 1596.0Q850.0 1730.0 642.0 1829.0Q434.0 1928.0 102.0 1986.0L90.0 1963.0Q325.0 1882.0 473.5 1778.0Q622.0 1674.0 704.0 1553.0Q786.0 1432.0 821.0 1299.0H186.0L168.0 1242.0H834.0Q847.0 1173.0 852.5 1102.5Q858.0 1032.0 856.0 959.0H633.0V1009.0Q633.0 1023.0 596.0 1045.5Q559.0 1068.0 502.0 1085.5Q445.0 1103.0 385.0 1103.0H342.0ZM915.0 607.0H633.0V902.0H915.0ZM915.0 550.0V263.0H633.0V550.0ZM1202.0 607.0V902.0H1493.0V607.0ZM1202.0 550.0H1493.0V263.0H1202.0Z" fill="black"></path></svg>