<?xml version="1.0" standalone="no"?>
<!DOCTYPE svg PUBLIC "-//W3C//DTD SVG 1.1//EN" "http://www.w3.org/Graphics/SVG/1.1/DTD/svg11.dtd" >
<svg xmlns="http://www.w3.org/2000/svg" xmlns:svg="http://www.w3.org/2000/svg" xmlns:xlink="http://www.w3.org/1999/xlink" viewBox="0 0 2048 2048" style=""><path d="M895.0 1491.0H622.0V1781.0H895.0ZM895.0 1433.0V1153.0H622.0V1433.0ZM1181.0 1491.0V1781.0H1464.0V1491.0ZM1181.0 1433.0H1464.0V1153.0H1181.0ZM639.0 397.0Q788.0 431.0 871.0 486.0Q954.0 541.0 984.5 602.5Q1015.0 664.0 1004.5 719.0Q994.0 774.0 956.0 808.0Q918.0 842.0 863.5 841.5Q809.0 841.0 751.0 792.0Q750.0 772.0 748.0 752.0Q746.0 732.0 741.0 710.0Q664.0 767.0 564.0 833.5Q464.0 900.0 338.0 979.0L641.0 1095.0H1444.0L1532.0 999.0H1493.0Q1493.0 941.0 1486.5 894.0Q1480.0 847.0 1462.0 819.0Q1442.0 791.0 1411.5 771.0Q1381.0 751.0 1329.0 737.0V714.0Q1366.0 716.0 1418.5 718.5Q1471.0 721.0 1499.0 721.0Q1536.0 721.0 1556.0 706.0Q1587.0 683.0 1607.5 580.0Q1628.0 477.0 1640.0 280.0H1462.0Q1451.0 399.0 1420.0 509.0Q1389.0 619.0 1317.0 718.0Q1245.0 817.0 1114.0 902.0Q983.0 987.0 772.0 1054.0L753.0 1028.0Q895.0 944.0 977.0 855.0Q1059.0 766.0 1099.0 672.0Q1139.0 578.0 1152.0 480.0Q1165.0 382.0 1167.0 280.0H1020.0L1022.0 282.0Q980.0 314.0 884.0 280.0Q811.0 296.0 706.0 309.0Q601.0 322.0 493.0 329.0V682.0L721.0 628.0Q702.0 567.0 675.5 510.0Q649.0 453.0 620.0 407.0ZM766.0 47.0 1007.0 270.0 993.0 223.0H1624.0L1763.0 94.0L2001.0 291.0Q1988.0 303.0 1968.5 313.0Q1949.0 323.0 1919.0 327.0Q1906.0 519.0 1886.5 639.5Q1867.0 760.0 1833.5 829.0Q1800.0 898.0 1747.0 934.0Q1719.0 952.0 1688.0 965.5Q1657.0 979.0 1620.0 987.0L1841.0 1155.0Q1832.0 1167.0 1812.5 1180.5Q1793.0 1194.0 1761.0 1200.0V1915.0Q1759.0 1923.0 1718.0 1939.0Q1677.0 1955.0 1620.0 1968.5Q1563.0 1982.0 1515.0 1982.0H1464.0V1839.0H622.0V1906.0Q622.0 1921.0 585.5 1943.0Q549.0 1965.0 492.0 1983.0Q435.0 2001.0 374.0 2001.0H331.0V983.0L260.0 1026.0Q246.0 1073.0 207.0 1083.0L47.0 776.0L227.0 739.0V135.0L510.0 237.0Q583.0 188.0 653.0 136.5Q723.0 85.0 766.0 47.0Z" fill="black"></path></svg>