<?xml version="1.0" standalone="no"?>
<!DOCTYPE svg PUBLIC "-//W3C//DTD SVG 1.1//EN" "http://www.w3.org/Graphics/SVG/1.1/DTD/svg11.dtd" >
<svg xmlns="http://www.w3.org/2000/svg" xmlns:svg="http://www.w3.org/2000/svg" xmlns:xlink="http://www.w3.org/1999/xlink" viewBox="0 0 2048 2048" style=""><path d="M1678.0 798.5Q1678.0 798.5 1702.5 819.0Q1727.0 839.5 1765.0 871.0Q1803.0 902.5 1844.0 938.5Q1885.0 974.5 1918.0 1005.5Q1909.0 1038.5 1861.0 1038.5H1183.0L1166.0 981.5H1545.0ZM1818.0 1732.5Q1818.0 1732.5 1849.0 1764.5Q1880.0 1796.5 1921.0 1840.5Q1962.0 1884.5 1992.0 1921.5Q1983.0 1953.5 1938.0 1953.5H73.0L56.0 1896.5H337.0V1237.5L126.0 1146.5Q135.0 1134.5 147.0 1120.5Q159.0 1106.5 171.0 1093.5V127.5L462.0 260.5H794.0L923.0 94.5Q923.0 94.5 962.0 126.0Q1001.0 157.5 1055.0 201.5Q1109.0 245.5 1152.0 284.5Q1143.0 317.5 1095.0 317.5H794.0V540.5H816.0L919.0 434.5L1132.0 591.5Q1124.0 599.5 1109.5 608.5Q1095.0 617.5 1072.0 620.5V880.5Q1072.0 888.5 1038.5 902.5Q1005.0 916.5 959.0 927.5Q913.0 938.5 876.0 938.5H833.0V895.5H794.0V1114.5H843.0L968.0 944.5Q968.0 944.5 1007.0 977.0Q1046.0 1009.5 1099.5 1054.5Q1153.0 1099.5 1195.0 1138.5Q1186.0 1171.5 1138.0 1171.5H443.0L405.0 1224.5L630.0 1310.5H1410.0L1527.0 1161.5L1811.0 1351.5Q1799.0 1367.5 1779.0 1377.5Q1759.0 1387.5 1717.0 1394.5V1896.5ZM433.0 383.5V540.5H550.0V317.5H433.0ZM433.0 1114.5H550.0V895.5H433.0ZM433.0 837.5H833.0V598.5H433.0ZM1578.0 180.5Q1573.0 198.5 1555.5 212.5Q1538.0 226.5 1502.0 229.5Q1488.0 281.5 1470.0 336.5Q1452.0 391.5 1429.0 446.5H1572.0L1713.0 260.5Q1713.0 260.5 1739.0 281.0Q1765.0 301.5 1805.0 333.5Q1845.0 365.5 1888.5 402.0Q1932.0 438.5 1967.0 471.5Q1958.0 503.5 1908.0 503.5H1404.0Q1356.0 614.5 1290.5 716.5Q1225.0 818.5 1144.0 895.5L1115.0 882.5Q1146.0 780.5 1166.5 646.5Q1187.0 512.5 1198.0 371.0Q1209.0 229.5 1211.0 104.5ZM1074.0 1368.5H972.0V1896.5H1074.0ZM1340.0 1368.5V1896.5H1429.0V1368.5ZM706.0 1368.5H611.0V1896.5H706.0Z" fill="black"></path></svg>