<?xml version="1.0" standalone="no"?>
<!DOCTYPE svg PUBLIC "-//W3C//DTD SVG 1.1//EN" "http://www.w3.org/Graphics/SVG/1.1/DTD/svg11.dtd" >
<svg xmlns="http://www.w3.org/2000/svg" xmlns:svg="http://www.w3.org/2000/svg" xmlns:xlink="http://www.w3.org/1999/xlink" viewBox="0 0 2048 2048" style=""><path d="M413.5 1020.0V987.0Q330.5 1030.0 235.5 1066.5Q140.5 1103.0 36.5 1130.0L24.5 1108.0Q159.5 1036.0 271.5 940.5Q383.5 845.0 470.5 733.0Q430.5 744.0 383.5 734.5Q336.5 725.0 290.5 690.0Q293.5 618.0 268.0 548.5Q242.5 479.0 202.5 436.0L214.5 426.0Q392.5 420.0 479.0 459.5Q565.5 499.0 585.5 553.0Q649.5 434.0 689.5 303.0H267.5L249.5 246.0H681.5L835.5 96.0L1091.5 315.0Q1082.5 332.0 1064.5 338.5Q1046.5 345.0 1011.5 350.0Q960.5 470.0 885.5 578.0Q810.5 686.0 710.5 778.0H1007.5L1140.5 604.0Q1140.5 604.0 1165.5 623.0Q1190.5 642.0 1229.0 672.5Q1267.5 703.0 1309.5 737.5Q1351.5 772.0 1386.5 803.0Q1377.5 835.0 1328.5 835.0H702.5L691.5 797.0Q648.5 835.0 601.0 870.0Q553.5 905.0 501.5 936.0L722.5 1020.0H1291.5L1423.5 880.0L1562.5 983.0Q1387.5 831.0 1265.5 617.5Q1143.5 404.0 1078.5 94.0L1103.5 82.0Q1137.5 180.0 1188.5 263.5Q1239.5 347.0 1304.5 420.0Q1353.5 349.0 1399.5 269.5Q1445.5 190.0 1470.5 133.0L1748.5 321.0Q1740.5 335.0 1723.5 341.5Q1706.5 348.0 1670.5 342.0Q1607.5 376.0 1523.5 410.0Q1439.5 444.0 1353.5 473.0Q1437.5 557.0 1541.5 627.0Q1597.5 565.0 1648.0 495.0Q1698.5 425.0 1726.5 375.0L2000.5 567.0Q1991.5 583.0 1975.0 589.0Q1958.5 595.0 1922.5 588.0Q1861.5 612.0 1782.5 635.5Q1703.5 659.0 1621.5 678.0Q1718.5 736.0 1820.0 781.5Q1921.5 827.0 2023.5 862.0L2016.5 887.0Q1926.5 900.0 1861.5 964.0Q1796.5 1028.0 1760.5 1132.0L1687.5 1083.0Q1679.5 1092.0 1663.5 1103.0Q1647.5 1114.0 1619.5 1120.0V1450.0Q1618.5 1457.0 1575.5 1472.0Q1532.5 1487.0 1474.0 1499.0Q1415.5 1511.0 1367.5 1511.0H1312.5V1415.0H710.5V1456.0Q710.5 1467.0 680.0 1484.5Q649.5 1502.0 601.5 1517.0Q738.5 1540.0 811.0 1586.5Q883.5 1633.0 905.5 1688.0Q927.5 1743.0 910.5 1792.0Q893.5 1841.0 850.0 1871.5Q806.5 1902.0 747.5 1899.5Q688.5 1897.0 628.5 1847.0Q628.5 1764.0 601.0 1680.5Q573.5 1597.0 532.5 1536.0Q513.5 1540.0 494.0 1542.0Q474.5 1544.0 454.5 1544.0H413.5ZM1210.5 1499.0 1580.5 1612.0Q1574.5 1630.0 1556.5 1641.0Q1538.5 1652.0 1502.5 1651.0Q1438.5 1703.0 1346.0 1776.0Q1253.5 1849.0 1160.5 1909.0H1527.5L1685.5 1698.0Q1685.5 1698.0 1714.0 1721.0Q1742.5 1744.0 1787.5 1780.0Q1832.5 1816.0 1881.0 1857.0Q1929.5 1898.0 1969.5 1933.0Q1960.5 1966.0 1908.5 1966.0H112.5L95.5 1909.0H1115.5Q1140.5 1818.0 1167.5 1702.5Q1194.5 1587.0 1210.5 1499.0ZM710.5 1358.0H1312.5V1077.0H710.5Z" fill="black"></path></svg>