<?xml version="1.0" standalone="no"?>
<!DOCTYPE svg PUBLIC "-//W3C//DTD SVG 1.1//EN" "http://www.w3.org/Graphics/SVG/1.1/DTD/svg11.dtd" >
<svg xmlns="http://www.w3.org/2000/svg" xmlns:svg="http://www.w3.org/2000/svg" xmlns:xlink="http://www.w3.org/1999/xlink" viewBox="0 0 2048 2048" style=""><path d="M1429.0 562.5H523.0V1115.5H1429.0ZM777.0 50.5 1203.0 150.5Q1190.0 193.5 1126.0 193.5Q1060.0 258.5 971.5 345.5Q883.0 432.5 788.0 504.5H1404.0L1554.0 338.5L1842.0 570.5Q1830.0 584.5 1808.5 599.0Q1787.0 613.5 1748.0 621.5V1881.5Q1747.0 1893.5 1705.0 1918.5Q1663.0 1943.5 1601.5 1964.5Q1540.0 1985.5 1480.0 1985.5H1429.0V1795.5H523.0V1885.5Q523.0 1903.5 485.0 1930.0Q447.0 1956.5 386.0 1977.0Q325.0 1997.5 257.0 1997.5H206.0V373.5L546.0 504.5H716.0Q729.0 438.5 741.0 357.0Q753.0 275.5 762.5 195.0Q772.0 114.5 777.0 50.5ZM523.0 1737.5H1429.0V1172.5H523.0Z" fill="black"></path></svg>