<?xml version="1.0" standalone="no"?>
<!DOCTYPE svg PUBLIC "-//W3C//DTD SVG 1.1//EN" "http://www.w3.org/Graphics/SVG/1.1/DTD/svg11.dtd" >
<svg xmlns="http://www.w3.org/2000/svg" xmlns:svg="http://www.w3.org/2000/svg" xmlns:xlink="http://www.w3.org/1999/xlink" viewBox="0 0 2048 2048" style=""><path d="M1663.0 201.0 1938.0 428.0Q1897.0 462.0 1803.0 432.0Q1715.0 457.0 1593.5 480.0Q1472.0 503.0 1346.0 520.0V682.0Q1346.0 703.0 1357.5 712.0Q1369.0 721.0 1409.0 721.0H1571.0Q1610.0 721.0 1645.0 720.5Q1680.0 720.0 1698.0 719.0Q1736.0 719.0 1760.0 698.0Q1776.0 680.0 1800.0 634.5Q1824.0 589.0 1850.0 526.0H1870.0L1878.0 702.0Q1932.0 724.0 1951.0 749.0Q1970.0 774.0 1970.0 811.0Q1970.0 866.0 1931.5 902.0Q1893.0 938.0 1798.5 955.5Q1704.0 973.0 1538.0 973.0H1346.0Q1235.0 973.0 1176.5 954.0Q1118.0 935.0 1096.5 887.0Q1075.0 839.0 1075.0 749.0V53.0L1411.0 82.0Q1408.0 124.0 1346.0 133.0V428.0Q1438.0 371.0 1524.5 309.5Q1611.0 248.0 1663.0 201.0ZM310.0 53.0 662.0 82.0Q659.0 103.0 644.0 118.0Q629.0 133.0 586.0 139.0V418.0H668.0L801.0 233.0Q801.0 233.0 825.5 253.5Q850.0 274.0 888.0 306.0Q926.0 338.0 967.0 374.5Q1008.0 411.0 1041.0 442.0Q1032.0 475.0 983.0 475.0H586.0V723.0L1041.0 668.0L1043.0 690.0Q928.0 755.0 743.5 842.0Q559.0 929.0 283.0 1044.0Q263.0 1087.0 224.0 1093.0L78.0 774.0L310.0 754.0ZM1372.0 1515.0H680.0V1778.0H1372.0ZM1372.0 1458.0V1212.0H680.0V1458.0ZM817.0 917.0 1229.0 979.0Q1224.0 1006.0 1202.5 1020.0Q1181.0 1034.0 1147.0 1038.0L963.0 1155.0H1352.0L1481.0 1012.0L1749.0 1214.0Q1740.0 1227.0 1721.0 1240.0Q1702.0 1253.0 1669.0 1259.0V1915.0Q1668.0 1923.0 1627.0 1939.0Q1586.0 1955.0 1529.0 1968.5Q1472.0 1982.0 1424.0 1982.0H1372.0V1835.0H680.0V1900.0Q680.0 1915.0 643.5 1937.0Q607.0 1959.0 550.0 1977.0Q493.0 1995.0 432.0 1995.0H389.0V1036.0L699.0 1155.0H797.0Q803.0 1103.0 808.5 1036.5Q814.0 970.0 817.0 917.0Z" fill="black"></path></svg>