<?xml version="1.0" standalone="no"?>
<!DOCTYPE svg PUBLIC "-//W3C//DTD SVG 1.1//EN" "http://www.w3.org/Graphics/SVG/1.1/DTD/svg11.dtd" >
<svg xmlns="http://www.w3.org/2000/svg" xmlns:svg="http://www.w3.org/2000/svg" xmlns:xlink="http://www.w3.org/1999/xlink" viewBox="0 0 2048 2048" style=""><path d="M1255.5 774.0V1198.0H1621.5V774.0ZM1255.5 717.0H1621.5V293.0H1255.5ZM1255.5 1255.0V1700.0H1621.5V1255.0ZM964.5 237.0V115.0L1265.5 237.0H1601.5L1738.5 86.0L2000.5 297.0Q1990.5 311.0 1971.0 322.5Q1951.5 334.0 1918.5 342.0V1880.0Q1917.5 1890.0 1878.5 1911.0Q1839.5 1932.0 1782.0 1950.0Q1724.5 1968.0 1669.5 1968.0H1621.5V1757.0H1255.5V1870.0Q1255.5 1889.0 1222.0 1915.0Q1188.5 1941.0 1133.0 1960.5Q1077.5 1980.0 1011.5 1980.0H964.5ZM364.5 53.0 727.5 88.0Q723.5 111.0 709.0 126.0Q694.5 141.0 651.5 147.0V569.0H657.5L770.5 387.0Q770.5 387.0 804.5 422.0Q838.5 457.0 883.5 505.5Q928.5 554.0 962.5 594.0Q953.5 627.0 907.5 627.0H651.5V803.0Q779.5 840.0 849.5 891.5Q919.5 943.0 943.0 998.0Q966.5 1053.0 955.0 1100.0Q943.5 1147.0 908.0 1174.5Q872.5 1202.0 824.0 1199.5Q775.5 1197.0 727.5 1153.0Q723.5 1078.0 702.0 1000.0Q680.5 922.0 651.5 856.0V1915.0Q651.5 1926.0 616.5 1945.0Q581.5 1964.0 529.0 1979.5Q476.5 1995.0 421.5 1995.0H364.5V1196.0Q303.5 1280.0 230.0 1358.0Q156.5 1436.0 71.5 1503.0L47.5 1483.0Q120.5 1368.0 177.5 1226.0Q234.5 1084.0 275.5 930.5Q316.5 777.0 341.5 627.0H114.5L98.5 569.0H364.5Z" fill="black"></path></svg>