<?xml version="1.0" standalone="no"?>
<!DOCTYPE svg PUBLIC "-//W3C//DTD SVG 1.1//EN" "http://www.w3.org/Graphics/SVG/1.1/DTD/svg11.dtd" >
<svg xmlns="http://www.w3.org/2000/svg" xmlns:svg="http://www.w3.org/2000/svg" xmlns:xlink="http://www.w3.org/1999/xlink" viewBox="0 0 2048 2048" style=""><path d="M221.0 345.0Q393.0 329.0 469.0 369.5Q545.0 410.0 553.0 466.0Q584.0 416.0 608.5 365.5Q633.0 315.0 653.0 263.0H238.0L219.0 206.0H647.0L801.0 56.0L1057.0 271.0Q1042.0 298.0 979.0 306.0Q908.0 446.0 794.5 560.5Q681.0 675.0 528.0 763.0H660.0L762.0 648.0L948.0 834.0Q922.0 860.0 875.0 869.0V1135.0Q873.0 1138.0 840.5 1148.0Q808.0 1158.0 760.0 1167.0Q712.0 1176.0 662.0 1176.0H612.0V1111.0H498.0L465.0 1336.0H596.0L727.0 1213.0L954.0 1402.0Q944.0 1414.0 925.5 1423.0Q907.0 1432.0 875.0 1436.0Q858.0 1651.0 822.0 1772.0Q786.0 1893.0 711.0 1940.0Q665.0 1969.0 602.5 1984.5Q540.0 2000.0 447.0 2000.0Q448.0 1947.0 440.0 1903.5Q432.0 1860.0 406.0 1834.0Q378.0 1804.0 327.5 1782.5Q277.0 1761.0 211.0 1748.0V1723.0Q254.0 1727.0 308.0 1730.5Q362.0 1734.0 408.5 1735.5Q455.0 1737.0 475.0 1737.0Q520.0 1737.0 537.0 1723.0Q590.0 1682.0 612.0 1393.0H455.0L442.0 1463.0Q398.0 1488.0 344.0 1491.5Q290.0 1495.0 195.0 1475.0Q213.0 1392.0 231.0 1293.5Q249.0 1195.0 264.0 1101.5Q279.0 1008.0 287.0 943.0L547.0 1053.0H612.0V820.0H418.0Q251.0 895.0 57.0 941.0L45.0 916.0Q166.0 856.0 268.5 776.5Q371.0 697.0 451.0 603.0Q421.0 611.0 387.0 605.0Q353.0 599.0 318.0 576.0Q314.0 515.0 282.0 453.0Q250.0 391.0 207.0 357.0ZM1004.0 763.0V640.0L1286.0 763.0H1315.0L1401.0 670.0Q1287.0 560.0 1203.5 411.5Q1120.0 263.0 1069.0 60.0L1092.0 48.0Q1127.0 126.0 1177.0 192.0Q1227.0 258.0 1288.0 312.0Q1330.0 251.0 1368.0 183.5Q1406.0 116.0 1426.0 68.0L1688.0 244.0Q1680.0 260.0 1663.5 266.5Q1647.0 273.0 1610.0 265.0Q1559.0 291.0 1491.5 317.5Q1424.0 344.0 1354.0 367.0Q1405.0 404.0 1460.0 435.0Q1515.0 466.0 1573.0 492.0Q1610.0 435.0 1644.5 369.0Q1679.0 303.0 1696.0 259.0L1960.0 437.0Q1951.0 451.0 1934.5 457.5Q1918.0 464.0 1882.0 457.0Q1786.0 499.0 1661.0 531.0Q1744.0 563.0 1830.5 588.0Q1917.0 613.0 2003.0 631.0L2001.0 656.0Q1912.0 676.0 1852.5 743.0Q1793.0 810.0 1763.0 914.0Q1723.0 894.0 1685.0 873.5Q1647.0 853.0 1610.0 830.0L1581.0 836.0V996.0Q1581.0 1011.0 1586.0 1016.0Q1591.0 1021.0 1608.0 1021.0H1657.0Q1668.0 1021.0 1680.0 1021.0Q1692.0 1021.0 1700.0 1021.0Q1709.0 1021.0 1720.0 1019.0Q1731.0 1017.0 1739.0 1010.0Q1766.0 986.0 1806.0 906.0H1827.0L1835.0 1010.0Q1875.0 1030.0 1888.0 1051.0Q1901.0 1072.0 1901.0 1105.0Q1901.0 1174.0 1834.5 1207.0Q1768.0 1240.0 1622.0 1240.0L1808.0 1397.0Q1799.0 1413.0 1782.5 1420.0Q1766.0 1427.0 1731.0 1430.0Q1659.0 1558.0 1552.0 1655.0Q1645.0 1672.0 1747.5 1678.5Q1850.0 1685.0 1958.0 1686.0L1960.0 1711.0Q1872.0 1742.0 1819.5 1815.0Q1767.0 1888.0 1747.0 1998.0Q1616.0 1967.0 1509.5 1925.5Q1403.0 1884.0 1319.0 1819.0Q1202.0 1881.0 1062.5 1925.0Q923.0 1969.0 762.0 1993.0L752.0 1969.0Q1019.0 1871.0 1198.0 1694.0Q1111.0 1580.0 1059.0 1387.0H946.0L928.0 1330.0H1403.0L1499.0 1240.0Q1426.0 1238.0 1391.5 1219.0Q1357.0 1200.0 1347.0 1159.0Q1337.0 1118.0 1337.0 1049.0V820.0H1249.0V890.0Q1249.0 936.0 1236.5 992.5Q1224.0 1049.0 1186.0 1107.5Q1148.0 1166.0 1073.0 1218.0Q998.0 1270.0 875.0 1307.0L862.0 1287.0Q929.0 1227.0 958.5 1159.0Q988.0 1091.0 996.0 1022.0Q1004.0 953.0 1004.0 892.0ZM1303.0 1576.0Q1333.0 1531.0 1360.0 1483.5Q1387.0 1436.0 1407.0 1387.0H1098.0Q1136.0 1450.0 1188.0 1496.5Q1240.0 1543.0 1303.0 1576.0Z" fill="black"></path></svg>