<?xml version="1.0" standalone="no"?>
<!DOCTYPE svg PUBLIC "-//W3C//DTD SVG 1.1//EN" "http://www.w3.org/Graphics/SVG/1.1/DTD/svg11.dtd" >
<svg xmlns="http://www.w3.org/2000/svg" xmlns:svg="http://www.w3.org/2000/svg" xmlns:xlink="http://www.w3.org/1999/xlink" viewBox="0 0 2048 2048" style=""><path d="M869.0 80.0 1310.0 141.0Q1304.0 172.0 1281.5 186.0Q1259.0 200.0 1224.0 203.0Q1178.0 235.0 1108.5 280.0Q1039.0 325.0 982.0 360.0H1369.0L1500.0 217.0L1766.0 420.0Q1757.0 432.0 1738.0 445.5Q1719.0 459.0 1687.0 465.0V1032.0Q1687.0 1038.0 1663.5 1050.5Q1640.0 1063.0 1605.0 1077.0Q1623.0 1090.0 1666.0 1121.5Q1709.0 1153.0 1759.0 1192.0Q1809.0 1231.0 1850.0 1266.0Q1841.0 1298.0 1793.0 1298.0H1170.0V1567.0H1457.0L1594.0 1395.0Q1594.0 1395.0 1636.5 1427.0Q1679.0 1459.0 1737.0 1504.5Q1795.0 1550.0 1842.0 1591.0Q1833.0 1624.0 1785.0 1624.0H1170.0V1911.0H1586.0L1730.0 1726.0Q1730.0 1726.0 1756.0 1746.5Q1782.0 1767.0 1822.5 1798.5Q1863.0 1830.0 1908.0 1866.5Q1953.0 1903.0 1990.0 1935.0Q1981.0 1968.0 1930.0 1968.0H75.0L58.0 1911.0H869.0V1624.0H282.0L265.0 1567.0H869.0V1298.0H218.0L202.0 1241.0H1451.0L1578.0 1085.0Q1544.0 1096.0 1508.5 1103.0Q1473.0 1110.0 1441.0 1110.0H1390.0V1024.0H661.0V1071.0Q661.0 1086.0 598.0 1119.5Q535.0 1153.0 423.0 1153.0H370.0V244.0L689.0 360.0H853.0Q858.0 302.0 863.0 221.5Q868.0 141.0 869.0 80.0ZM661.0 418.0V657.0H1390.0V418.0ZM661.0 715.0V967.0H1390.0V715.0Z" fill="black"></path></svg>