<?xml version="1.0" standalone="no"?>
<!DOCTYPE svg PUBLIC "-//W3C//DTD SVG 1.1//EN" "http://www.w3.org/Graphics/SVG/1.1/DTD/svg11.dtd" >
<svg xmlns="http://www.w3.org/2000/svg" xmlns:svg="http://www.w3.org/2000/svg" xmlns:xlink="http://www.w3.org/1999/xlink" viewBox="0 0 2048 2048" style=""><path d="M362.0 689.5V564.5L682.0 689.5H793.0Q802.0 612.5 808.0 512.0Q814.0 411.5 815.0 320.5H113.0L96.0 263.5H1499.0L1659.0 64.5Q1659.0 64.5 1688.5 86.0Q1718.0 107.5 1764.0 141.5Q1810.0 175.5 1860.0 214.5Q1910.0 253.5 1952.0 287.5Q1943.0 320.5 1892.0 320.5H1182.0Q1117.0 422.5 1040.0 520.0Q963.0 617.5 885.0 689.5H1366.0L1503.0 537.5L1774.0 750.5Q1764.0 763.5 1745.0 775.5Q1726.0 787.5 1694.0 793.5V1893.5Q1693.0 1902.5 1651.0 1922.0Q1609.0 1941.5 1550.0 1957.5Q1491.0 1973.5 1438.0 1973.5H1386.0V1797.5H664.0V1879.5Q664.0 1896.5 627.0 1921.0Q590.0 1945.5 532.0 1964.5Q474.0 1983.5 410.0 1983.5H362.0ZM1386.0 746.5H664.0V1193.5H1386.0ZM1386.0 1739.5V1250.5H664.0V1739.5Z" fill="black"></path></svg>