<?xml version="1.0" standalone="no"?>
<!DOCTYPE svg PUBLIC "-//W3C//DTD SVG 1.1//EN" "http://www.w3.org/Graphics/SVG/1.1/DTD/svg11.dtd" >
<svg xmlns="http://www.w3.org/2000/svg" xmlns:svg="http://www.w3.org/2000/svg" xmlns:xlink="http://www.w3.org/1999/xlink" viewBox="0 0 2048 2048" style=""><path d="M1033.0 1040.0Q1172.0 1061.0 1259.5 1111.5Q1347.0 1162.0 1365.0 1242.0Q1374.0 1288.0 1353.0 1325.0Q1332.0 1362.0 1293.5 1383.0Q1255.0 1404.0 1212.5 1404.0Q1170.0 1404.0 1135.5 1377.0Q1101.0 1350.0 1089.0 1289.0Q1093.0 1242.0 1077.5 1170.5Q1062.0 1099.0 1019.0 1052.0ZM704.0 1033.0Q819.0 1084.0 876.0 1150.0Q933.0 1216.0 919.0 1291.0Q910.0 1336.0 877.0 1362.5Q844.0 1389.0 801.0 1396.0Q758.0 1403.0 718.5 1389.5Q679.0 1376.0 657.0 1340.5Q635.0 1305.0 644.0 1246.0Q667.0 1211.0 681.0 1149.5Q695.0 1088.0 681.0 1042.0ZM1419.0 1025.0Q1583.0 1031.0 1714.0 1068.5Q1845.0 1106.0 1914.0 1199.0Q1950.0 1247.0 1947.5 1296.5Q1945.0 1346.0 1916.5 1385.0Q1888.0 1424.0 1843.5 1441.0Q1799.0 1458.0 1750.0 1441.0Q1701.0 1424.0 1658.0 1361.0Q1638.0 1315.0 1601.5 1256.0Q1565.0 1197.0 1516.0 1139.5Q1467.0 1082.0 1408.0 1040.0ZM689.0 1914.0V1502.0H587.0V1914.0ZM947.0 1914.0H1058.0V1502.0H947.0ZM1324.0 1914.0H1427.0V1502.0H1324.0ZM417.0 1019.0H442.0Q482.0 1127.0 477.5 1220.0Q473.0 1313.0 425.0 1377.0L605.0 1445.0H1408.0L1525.0 1296.0L1808.0 1486.0Q1797.0 1501.0 1777.0 1511.0Q1757.0 1521.0 1715.0 1529.0V1904.0L1808.0 1750.0Q1808.0 1750.0 1839.0 1782.0Q1870.0 1814.0 1911.0 1858.0Q1952.0 1902.0 1982.0 1939.0Q1973.0 1971.0 1928.0 1971.0H63.0L46.0 1914.0H313.0V1459.0L300.0 1463.0Q231.0 1485.0 181.0 1461.5Q131.0 1438.0 112.0 1392.0Q93.0 1346.0 115.5 1297.0Q138.0 1248.0 214.0 1218.0Q253.0 1207.0 297.5 1182.5Q342.0 1158.0 376.0 1117.5Q410.0 1077.0 417.0 1019.0ZM259.0 714.0H841.0V546.0H65.0L48.0 489.0H841.0V323.0H290.0L272.0 265.0H841.0V77.0L1208.0 106.0Q1204.0 129.0 1189.5 144.0Q1175.0 159.0 1132.0 165.0V265.0H1378.0L1507.0 130.0L1765.0 325.0Q1757.0 336.0 1738.5 348.0Q1720.0 360.0 1689.0 366.0V489.0L1801.0 337.0Q1801.0 337.0 1836.0 366.0Q1871.0 395.0 1918.0 436.0Q1965.0 477.0 2002.0 513.0Q1993.0 546.0 1947.0 546.0H1689.0V741.0Q1689.0 751.0 1650.5 771.5Q1612.0 792.0 1556.0 809.5Q1500.0 827.0 1449.0 827.0H1398.0V771.0H1132.0V945.0H1564.0L1707.0 757.0Q1707.0 757.0 1733.5 777.5Q1760.0 798.0 1801.0 831.0Q1842.0 864.0 1886.5 901.0Q1931.0 938.0 1967.0 970.0Q1958.0 1003.0 1910.0 1003.0H91.0L75.0 945.0H841.0V771.0H278.0ZM1132.0 546.0V714.0H1398.0V546.0ZM1132.0 489.0H1398.0V323.0H1132.0Z" fill="black"></path></svg>