<?xml version="1.0" standalone="no"?>
<!DOCTYPE svg PUBLIC "-//W3C//DTD SVG 1.1//EN" "http://www.w3.org/Graphics/SVG/1.1/DTD/svg11.dtd" >
<svg xmlns="http://www.w3.org/2000/svg" xmlns:svg="http://www.w3.org/2000/svg" xmlns:xlink="http://www.w3.org/1999/xlink" viewBox="0 0 2048 2048" style=""><path d="M67.0 295.5V184.5L333.0 295.5H409.0L531.0 159.5L773.0 352.5Q764.0 364.5 744.0 376.0Q724.0 387.5 693.0 393.5V608.5H1134.0V426.5Q1034.0 433.5 933.0 438.0Q832.0 442.5 738.0 440.5L734.0 413.5Q881.0 382.5 1034.0 330.0Q1187.0 277.5 1319.5 217.0Q1452.0 156.5 1537.0 100.5L1834.0 307.5Q1819.0 325.5 1785.0 332.0Q1751.0 338.5 1699.0 327.5Q1581.0 368.5 1414.0 393.5V608.5H1633.0L1742.0 459.5Q1742.0 459.5 1775.5 488.0Q1809.0 516.5 1855.0 557.0Q1901.0 597.5 1936.0 633.5Q1930.0 665.5 1883.0 665.5H1758.0V1044.5H1762.0L1840.0 901.5Q1840.0 901.5 1865.0 930.0Q1890.0 958.5 1922.0 997.5Q1954.0 1036.5 1975.0 1069.5Q1969.0 1102.5 1924.0 1102.5H1758.0V1470.5L1828.0 1366.5Q1828.0 1366.5 1855.0 1391.5Q1882.0 1416.5 1918.0 1452.0Q1954.0 1487.5 1981.0 1517.5Q1973.0 1550.5 1930.0 1550.5H1414.0V1890.5H1588.0L1728.0 1698.5Q1728.0 1698.5 1753.5 1719.5Q1779.0 1740.5 1818.5 1773.5Q1858.0 1806.5 1901.0 1844.5Q1944.0 1882.5 1977.0 1915.5Q1971.0 1947.5 1920.0 1947.5H624.0L607.0 1890.5H1134.0V1550.5H701.0L693.0 1521.5V1751.5Q691.0 1760.5 655.5 1778.5Q620.0 1796.5 569.5 1812.0Q519.0 1827.5 472.0 1827.5H429.0V1652.5H325.0V1827.5Q325.0 1842.5 295.5 1864.5Q266.0 1886.5 217.0 1904.0Q168.0 1921.5 110.0 1921.5H67.0ZM1134.0 665.5H1041.0V1044.5H1134.0ZM1414.0 665.5V1044.5H1517.0V665.5ZM1134.0 1493.5V1102.5H1041.0V1493.5ZM1414.0 1493.5H1517.0V1102.5H1414.0ZM796.0 665.5H693.0V1044.5H796.0ZM796.0 1493.5V1102.5H693.0V1493.5ZM429.0 1206.5H325.0V1595.5H429.0ZM429.0 1149.5V770.5H325.0V1149.5ZM429.0 712.5V352.5H325.0V712.5Z" fill="black"></path></svg>