<?xml version="1.0" standalone="no"?>
<!DOCTYPE svg PUBLIC "-//W3C//DTD SVG 1.1//EN" "http://www.w3.org/Graphics/SVG/1.1/DTD/svg11.dtd" >
<svg xmlns="http://www.w3.org/2000/svg" xmlns:svg="http://www.w3.org/2000/svg" xmlns:xlink="http://www.w3.org/1999/xlink" viewBox="0 0 2048 2048" style=""><path d="M476.5 1173.0H327.5V1579.0H476.5ZM476.5 1116.0V731.0H327.5V1116.0ZM476.5 674.0V309.0H327.5V674.0ZM1205.5 725.0 1549.5 755.0Q1548.5 772.0 1536.5 784.0Q1524.5 796.0 1492.5 803.0V1079.0H1586.5L1713.5 903.0Q1713.5 903.0 1737.0 922.5Q1760.5 942.0 1797.0 973.0Q1833.5 1004.0 1872.5 1039.0Q1911.5 1074.0 1943.5 1104.0Q1934.5 1136.0 1887.5 1136.0H1492.5V1446.0H1629.5L1758.5 1263.0Q1758.5 1263.0 1782.0 1283.5Q1805.5 1304.0 1841.0 1336.0Q1876.5 1368.0 1915.5 1403.5Q1954.5 1439.0 1986.5 1470.0Q1977.5 1503.0 1930.5 1503.0H1492.5V1921.0Q1492.5 1932.0 1456.0 1951.0Q1419.5 1970.0 1365.5 1985.5Q1311.5 2001.0 1259.5 2001.0H1205.5V1503.0H755.5V1720.0Q754.5 1730.0 717.0 1750.0Q679.5 1770.0 626.0 1786.0Q572.5 1802.0 521.5 1802.0H476.5V1636.0H327.5V1796.0Q327.5 1812.0 297.0 1835.5Q266.5 1859.0 215.5 1876.5Q164.5 1894.0 104.5 1894.0H61.5V137.0L335.5 252.0H456.5L585.5 110.0L837.5 309.0Q826.5 323.0 806.5 334.5Q786.5 346.0 755.5 352.0V1446.0H1205.5V1136.0H1035.5Q933.5 1297.0 788.5 1396.0L761.5 1382.0Q806.5 1268.0 838.0 1112.5Q869.5 957.0 880.5 800.0L1205.5 903.0ZM1070.5 1079.0H1205.5V921.0Q1189.5 951.0 1136.5 948.0Q1120.5 982.0 1105.0 1015.0Q1089.5 1048.0 1070.5 1079.0ZM757.5 469.0 1025.5 467.0Q1047.5 361.0 1066.5 248.5Q1085.5 136.0 1097.5 47.0L1484.5 118.0Q1479.5 138.0 1462.5 152.0Q1445.5 166.0 1408.5 168.0Q1364.5 231.0 1300.0 308.5Q1235.5 386.0 1164.5 465.0L1568.5 456.0Q1534.5 400.0 1497.5 348.5Q1460.5 297.0 1425.5 254.0L1441.5 241.0Q1622.5 274.0 1731.5 333.0Q1840.5 392.0 1890.5 461.5Q1940.5 531.0 1943.5 595.5Q1946.5 660.0 1914.0 704.5Q1881.5 749.0 1824.5 757.5Q1767.5 766.0 1699.5 723.0Q1682.5 670.0 1657.0 616.0Q1631.5 562.0 1601.5 510.0Q1496.5 556.0 1343.5 613.5Q1190.5 671.0 972.5 745.0Q950.5 785.0 908.5 792.0Z" fill="black"></path></svg>