<?xml version="1.0" standalone="no"?>
<!DOCTYPE svg PUBLIC "-//W3C//DTD SVG 1.1//EN" "http://www.w3.org/Graphics/SVG/1.1/DTD/svg11.dtd" >
<svg xmlns="http://www.w3.org/2000/svg" xmlns:svg="http://www.w3.org/2000/svg" xmlns:xlink="http://www.w3.org/1999/xlink" viewBox="0 0 2048 2048" style=""><path d="M717.5 850.5V740.5L1018.5 850.5H1500.5L1618.5 715.5H1612.5H1559.5V654.5H642.5V826.5Q642.5 968.5 630.0 1120.5Q617.5 1272.5 570.0 1421.5Q522.5 1570.5 419.5 1705.5Q316.5 1840.5 136.5 1948.5L119.5 1936.5Q227.5 1777.5 276.5 1594.5Q325.5 1411.5 338.5 1216.5Q351.5 1021.5 351.5 828.5V92.5L685.5 205.5H1539.5L1666.5 70.5L1928.5 264.5Q1920.5 275.5 1902.5 286.5Q1884.5 297.5 1856.5 303.5V654.5Q1855.5 660.5 1825.0 672.0Q1794.5 683.5 1749.0 695.0Q1703.5 706.5 1659.5 711.5L1885.5 887.5Q1874.5 901.5 1855.5 913.0Q1836.5 924.5 1801.5 930.5V1884.5Q1801.5 1895.5 1736.5 1924.0Q1671.5 1952.5 1559.5 1952.5H1508.5V1813.5H994.5V1909.5Q994.5 1923.5 935.0 1950.5Q875.5 1977.5 769.5 1977.5H717.5ZM642.5 596.5H953.5V262.5H642.5ZM1233.5 596.5H1559.5V262.5H1233.5ZM994.5 1202.5V1446.5H1508.5V1202.5ZM994.5 1145.5H1508.5V907.5H994.5ZM994.5 1503.5V1755.5H1508.5V1503.5Z" fill="black"></path></svg>