<?xml version="1.0" standalone="no"?>
<!DOCTYPE svg PUBLIC "-//W3C//DTD SVG 1.1//EN" "http://www.w3.org/Graphics/SVG/1.1/DTD/svg11.dtd" >
<svg xmlns="http://www.w3.org/2000/svg" xmlns:svg="http://www.w3.org/2000/svg" xmlns:xlink="http://www.w3.org/1999/xlink" viewBox="0 0 2048 2048" style=""><path d="M1098.0 247.5V605.5H1579.0V247.5ZM64.0 210.5V99.5L330.0 210.5H436.0L557.0 77.5L797.0 265.5Q786.0 279.5 766.0 291.0Q746.0 302.5 715.0 308.5V1640.5L830.0 1623.5V81.5L1124.0 190.5H1559.0L1679.0 61.5L1929.0 247.5Q1920.0 258.5 1902.5 269.5Q1885.0 280.5 1856.0 286.5V689.5Q1855.0 696.5 1816.5 711.5Q1778.0 726.5 1725.0 739.0Q1672.0 751.5 1628.0 751.5H1579.0V663.5H1516.0Q1506.0 849.5 1528.0 1025.5H1595.0L1725.0 847.5Q1725.0 847.5 1748.5 867.5Q1772.0 887.5 1808.5 918.5Q1845.0 949.5 1884.5 984.5Q1924.0 1019.5 1956.0 1050.5Q1950.0 1083.5 1901.0 1083.5H1536.0Q1562.0 1242.5 1619.0 1375.5Q1676.0 1508.5 1772.0 1592.5Q1808.0 1622.5 1831.0 1584.5Q1853.0 1552.5 1880.5 1494.5Q1908.0 1436.5 1931.0 1379.5L1952.0 1386.5L1919.0 1672.5Q1959.0 1749.5 1971.5 1805.0Q1984.0 1860.5 1944.0 1900.5Q1893.0 1947.5 1830.0 1946.0Q1767.0 1944.5 1707.5 1915.5Q1648.0 1886.5 1610.0 1853.5Q1548.0 1791.5 1499.0 1720.5Q1450.0 1649.5 1411.0 1572.5Q1325.0 1638.5 1190.5 1728.5Q1056.0 1818.5 862.0 1930.5Q846.0 1975.5 803.0 1986.5L680.0 1703.5Q648.0 1720.5 596.5 1736.5Q545.0 1752.5 498.0 1752.5H457.0V1597.5H320.0V1767.5Q320.0 1783.5 290.5 1805.5Q261.0 1827.5 212.5 1844.5Q164.0 1861.5 107.0 1861.5H64.0ZM1098.0 663.5V1025.5H1264.0Q1253.0 936.5 1249.0 845.0Q1245.0 753.5 1243.0 663.5ZM1098.0 1083.5V1582.5L1395.0 1535.5Q1347.0 1431.5 1318.0 1317.0Q1289.0 1202.5 1272.0 1083.5ZM457.0 1140.5H320.0V1539.5H457.0ZM457.0 1083.5V689.5H320.0V1083.5ZM457.0 632.5V267.5H320.0V632.5Z" fill="black"></path></svg>