<?xml version="1.0" standalone="no"?>
<!DOCTYPE svg PUBLIC "-//W3C//DTD SVG 1.1//EN" "http://www.w3.org/Graphics/SVG/1.1/DTD/svg11.dtd" >
<svg xmlns="http://www.w3.org/2000/svg" xmlns:svg="http://www.w3.org/2000/svg" xmlns:xlink="http://www.w3.org/1999/xlink" viewBox="0 0 2048 2048" style=""><path d="M450.5 1174.0H329.5V1570.0H450.5ZM450.5 1117.0V728.0H329.5V1117.0ZM450.5 671.0V304.0H329.5V671.0ZM63.5 247.0V132.0L337.5 247.0H429.5L556.5 105.0L806.5 304.0Q785.5 335.0 724.5 347.0V1717.0Q723.5 1726.0 686.5 1745.5Q649.5 1765.0 596.5 1781.0Q543.5 1797.0 493.5 1797.0H450.5V1627.0H329.5V1791.0Q329.5 1807.0 299.0 1830.5Q268.5 1854.0 217.5 1871.5Q166.5 1889.0 106.5 1889.0H63.5ZM775.5 451.0H1064.5Q1029.5 443.0 990.5 410.0Q989.5 321.0 957.5 231.0Q925.5 141.0 882.5 77.0L898.5 66.0Q1062.5 93.0 1144.5 149.0Q1226.5 205.0 1244.5 268.0Q1262.5 331.0 1235.0 382.5Q1207.5 434.0 1152.5 451.0H1355.5Q1375.5 362.0 1392.5 249.0Q1409.5 136.0 1418.5 52.0L1789.5 159.0Q1781.5 178.0 1763.0 189.0Q1744.5 200.0 1709.5 197.0Q1652.5 251.0 1570.5 320.5Q1488.5 390.0 1404.5 451.0H1574.5L1693.5 322.0L1943.5 509.0Q1935.5 518.0 1918.5 528.5Q1901.5 539.0 1873.5 546.0V892.0Q1872.5 899.0 1833.5 913.0Q1794.5 927.0 1741.0 939.0Q1687.5 951.0 1642.5 951.0H1592.5V865.0H1451.5V1115.0H1619.5L1752.5 992.0L1984.5 1178.0Q1973.5 1191.0 1954.5 1201.0Q1935.5 1211.0 1906.5 1215.0Q1902.5 1379.0 1892.0 1478.5Q1881.5 1578.0 1857.5 1632.5Q1833.5 1687.0 1789.5 1717.0Q1746.5 1745.0 1691.0 1759.5Q1635.5 1774.0 1556.5 1774.0Q1557.5 1718.0 1551.5 1672.0Q1545.5 1626.0 1527.5 1600.0Q1515.5 1582.0 1497.5 1567.0Q1479.5 1552.0 1451.5 1541.0V1924.0Q1451.5 1936.0 1391.5 1966.0Q1331.5 1996.0 1222.5 1996.0H1171.5V1545.0Q956.5 1735.0 630.5 1856.0L616.5 1834.0Q794.5 1712.0 920.5 1537.5Q1046.5 1363.0 1115.5 1172.0H1021.5L1003.5 1277.0Q955.5 1303.0 896.5 1308.0Q837.5 1313.0 732.5 1291.0Q753.5 1193.0 773.5 1076.0Q793.5 959.0 809.5 848.5Q825.5 738.0 835.5 658.0L1117.5 808.0H1171.5V509.0H794.5ZM1592.5 509.0H1451.5V808.0H1592.5ZM1451.5 1172.0V1504.0L1553.5 1508.0Q1588.5 1508.0 1601.5 1496.0Q1617.5 1480.0 1625.5 1404.5Q1633.5 1329.0 1637.5 1172.0ZM1171.5 1115.0V865.0H1066.5L1031.5 1115.0Z" fill="black"></path></svg>