<?xml version="1.0" standalone="no"?>
<!DOCTYPE svg PUBLIC "-//W3C//DTD SVG 1.1//EN" "http://www.w3.org/Graphics/SVG/1.1/DTD/svg11.dtd" >
<svg xmlns="http://www.w3.org/2000/svg" xmlns:svg="http://www.w3.org/2000/svg" xmlns:xlink="http://www.w3.org/1999/xlink" viewBox="0 0 2048 2048" style=""><path d="M1575.0 50.0 1825.0 306.0Q1784.0 340.0 1679.0 298.0Q1552.0 315.0 1397.0 329.5Q1242.0 344.0 1071.0 355.0Q1057.0 404.0 1042.5 451.5Q1028.0 499.0 1010.0 546.0H1456.0L1599.0 369.0Q1599.0 369.0 1626.0 388.5Q1653.0 408.0 1694.0 438.5Q1735.0 469.0 1780.5 504.0Q1826.0 539.0 1864.0 570.0Q1855.0 603.0 1806.0 603.0H987.0Q947.0 701.0 895.0 793.0H1573.0L1722.0 609.0Q1722.0 609.0 1749.5 629.0Q1777.0 649.0 1820.0 681.0Q1863.0 713.0 1909.5 749.5Q1956.0 786.0 1995.0 818.0Q1992.0 835.0 1975.0 843.0Q1958.0 851.0 1935.0 851.0H862.0Q844.0 880.0 824.0 909.0Q804.0 938.0 784.0 965.0L874.0 998.0H1409.0L1538.0 859.0L1798.0 1058.0Q1789.0 1068.0 1771.5 1079.0Q1754.0 1090.0 1726.0 1096.0V1918.0Q1725.0 1926.0 1684.5 1943.0Q1644.0 1960.0 1587.0 1974.5Q1530.0 1989.0 1481.0 1989.0H1429.0V1840.0H846.0V1914.0Q846.0 1929.0 783.0 1963.5Q720.0 1998.0 608.0 1998.0H553.0V1217.0Q452.0 1308.0 331.5 1386.0Q211.0 1464.0 72.0 1529.0L53.0 1508.0Q224.0 1381.0 356.0 1212.0Q488.0 1043.0 582.0 851.0H100.0L84.0 793.0H608.0Q628.0 747.0 646.5 699.0Q665.0 651.0 682.0 603.0H242.0L225.0 546.0H700.0Q714.0 503.0 725.5 458.5Q737.0 414.0 747.0 369.0Q603.0 374.0 459.0 375.5Q315.0 377.0 180.0 374.0L176.0 343.0Q353.0 321.0 549.0 288.0Q745.0 255.0 935.5 215.5Q1126.0 176.0 1291.5 133.5Q1457.0 91.0 1575.0 50.0ZM846.0 1303.0V1510.0H1429.0V1303.0ZM846.0 1246.0H1429.0V1056.0H846.0ZM846.0 1568.0V1783.0H1429.0V1568.0Z" fill="black"></path></svg>