<?xml version="1.0" standalone="no"?>
<!DOCTYPE svg PUBLIC "-//W3C//DTD SVG 1.1//EN" "http://www.w3.org/Graphics/SVG/1.1/DTD/svg11.dtd" >
<svg xmlns="http://www.w3.org/2000/svg" xmlns:svg="http://www.w3.org/2000/svg" xmlns:xlink="http://www.w3.org/1999/xlink" viewBox="0 0 2048 2048" style=""><path d="M1132.0 1614.0Q1388.0 1619.0 1547.5 1650.5Q1707.0 1682.0 1789.0 1727.5Q1871.0 1773.0 1892.0 1821.5Q1913.0 1870.0 1890.0 1911.5Q1867.0 1953.0 1817.0 1977.0Q1767.0 2001.0 1707.5 1996.0Q1648.0 1991.0 1597.0 1945.0Q1539.0 1876.0 1424.5 1788.5Q1310.0 1701.0 1124.0 1636.0ZM74.0 1483.0H1563.0L1716.0 1292.0Q1716.0 1292.0 1744.0 1313.0Q1772.0 1334.0 1815.5 1367.0Q1859.0 1400.0 1907.0 1437.0Q1955.0 1474.0 1995.0 1507.0Q1986.0 1540.0 1935.0 1540.0H696.0L1012.0 1753.0Q996.0 1771.0 964.0 1777.5Q932.0 1784.0 876.0 1771.0Q780.0 1822.0 649.0 1865.5Q518.0 1909.0 367.0 1942.0Q216.0 1975.0 61.0 1993.0L53.0 1972.0Q176.0 1919.0 298.0 1845.0Q420.0 1771.0 522.0 1691.5Q624.0 1612.0 686.0 1540.0H90.0ZM422.0 553.0V434.0L733.0 553.0H874.0V373.0H172.0L156.0 315.0H874.0V47.0L1249.0 76.0Q1246.0 97.0 1232.0 112.0Q1218.0 127.0 1175.0 133.0V315.0H1481.0L1636.0 123.0Q1636.0 123.0 1664.5 144.0Q1693.0 165.0 1737.5 198.5Q1782.0 232.0 1830.5 269.5Q1879.0 307.0 1919.0 340.0Q1914.0 357.0 1897.5 365.0Q1881.0 373.0 1859.0 373.0H1175.0V553.0H1313.0L1446.0 407.0L1716.0 614.0Q1705.0 626.0 1685.5 638.5Q1666.0 651.0 1634.0 657.0V1333.0Q1633.0 1342.0 1592.5 1362.0Q1552.0 1382.0 1494.5 1398.5Q1437.0 1415.0 1384.0 1415.0H1333.0V1317.0H719.0V1339.0Q719.0 1354.0 681.5 1376.0Q644.0 1398.0 585.5 1415.5Q527.0 1433.0 465.0 1433.0H422.0ZM1333.0 610.0H719.0V782.0H1333.0ZM719.0 839.0V1020.0H1333.0V839.0ZM719.0 1077.0V1259.0H1333.0V1077.0Z" fill="black"></path></svg>