<?xml version="1.0" standalone="no"?>
<!DOCTYPE svg PUBLIC "-//W3C//DTD SVG 1.1//EN" "http://www.w3.org/Graphics/SVG/1.1/DTD/svg11.dtd" >
<svg xmlns="http://www.w3.org/2000/svg" xmlns:svg="http://www.w3.org/2000/svg" xmlns:xlink="http://www.w3.org/1999/xlink" viewBox="0 0 2048 2048" style=""><path d="M819.0 259.5H1560.0L1703.0 77.5Q1703.0 77.5 1729.0 97.5Q1755.0 117.5 1795.0 149.5Q1835.0 181.5 1879.0 217.5Q1923.0 253.5 1959.0 284.5Q1950.0 317.5 1902.0 317.5H835.0ZM1015.0 1265.5Q1151.0 1329.5 1222.5 1404.0Q1294.0 1478.5 1315.5 1551.0Q1337.0 1623.5 1321.0 1681.5Q1305.0 1739.5 1263.5 1771.5Q1222.0 1803.5 1167.5 1797.5Q1113.0 1791.5 1060.0 1734.5Q1069.0 1617.5 1048.0 1496.5Q1027.0 1375.5 995.0 1273.5ZM1474.0 1247.5 1849.0 1329.5Q1843.0 1348.5 1824.5 1361.5Q1806.0 1374.5 1771.0 1374.5Q1731.0 1448.5 1671.5 1536.5Q1612.0 1624.5 1541.0 1712.5Q1470.0 1800.5 1394.0 1875.5H1627.0L1765.0 1685.5Q1765.0 1685.5 1790.0 1706.5Q1815.0 1727.5 1854.0 1760.5Q1893.0 1793.5 1935.0 1831.0Q1977.0 1868.5 2010.0 1900.5Q2005.0 1933.5 1953.0 1933.5H700.0L683.0 1875.5H1361.0Q1389.0 1782.5 1411.5 1671.5Q1434.0 1560.5 1450.0 1450.0Q1466.0 1339.5 1474.0 1247.5ZM1535.0 647.5H1185.0V1062.5H1535.0ZM233.0 69.5 589.0 151.5Q579.0 197.5 511.0 200.5Q466.0 335.5 407.0 454.5H569.0L694.0 286.5Q694.0 286.5 733.0 318.5Q772.0 350.5 825.5 395.5Q879.0 440.5 921.0 479.5L919.0 483.5L1195.0 589.5H1515.0L1640.0 452.5L1904.0 649.5Q1895.0 661.5 1874.5 674.0Q1854.0 686.5 1822.0 694.5V1159.5Q1821.0 1166.5 1781.0 1180.5Q1741.0 1194.5 1686.0 1206.5Q1631.0 1218.5 1584.0 1218.5H1535.0V1120.5H1185.0V1169.5Q1185.0 1181.5 1149.5 1202.0Q1114.0 1222.5 1059.5 1239.0Q1005.0 1255.5 948.0 1255.5H909.0V1009.5L892.0 1011.5H620.0Q617.0 1063.5 610.5 1116.5Q604.0 1169.5 593.0 1224.5Q740.0 1271.5 819.0 1336.5Q898.0 1401.5 924.0 1470.0Q950.0 1538.5 936.0 1596.5Q922.0 1654.5 879.5 1689.0Q837.0 1723.5 779.5 1720.0Q722.0 1716.5 663.0 1660.5Q667.0 1567.5 643.0 1468.0Q619.0 1368.5 579.0 1286.5Q548.0 1412.5 487.0 1537.5Q426.0 1662.5 321.0 1775.5Q216.0 1888.5 55.0 1978.5L38.0 1961.5Q156.0 1818.5 220.5 1658.0Q285.0 1497.5 312.0 1333.0Q339.0 1168.5 345.0 1011.5H77.0L61.0 954.5H347.0L350.0 831.5V554.5Q236.0 736.5 81.0 853.5L55.0 837.5Q122.0 688.5 170.5 484.0Q219.0 279.5 233.0 69.5ZM909.0 589.5V493.5Q898.0 511.5 864.0 511.5H626.0V831.5L624.0 923.5L726.0 784.5Q726.0 784.5 755.0 808.5Q784.0 832.5 826.5 869.0Q869.0 905.5 909.0 941.5Z" fill="black"></path></svg>