<?xml version="1.0" standalone="no"?>
<!DOCTYPE svg PUBLIC "-//W3C//DTD SVG 1.1//EN" "http://www.w3.org/Graphics/SVG/1.1/DTD/svg11.dtd" >
<svg xmlns="http://www.w3.org/2000/svg" xmlns:svg="http://www.w3.org/2000/svg" xmlns:xlink="http://www.w3.org/1999/xlink" viewBox="0 0 2048 2048" style=""><path d="M1098.0 327.0V204.0L1397.0 327.0H1603.0L1739.0 177.0L2001.0 386.0Q1990.0 400.0 1971.0 411.5Q1952.0 423.0 1921.0 431.0V1801.0Q1919.0 1811.0 1879.0 1831.5Q1839.0 1852.0 1781.5 1868.5Q1724.0 1885.0 1671.0 1885.0H1624.0V1691.0H1388.0V1813.0Q1388.0 1831.0 1354.5 1856.0Q1321.0 1881.0 1265.5 1900.5Q1210.0 1920.0 1145.0 1920.0H1098.0V998.0Q1084.0 1006.0 1061.0 1006.0H700.0Q696.0 1056.0 689.0 1106.5Q682.0 1157.0 672.0 1209.0Q823.0 1259.0 909.0 1326.5Q995.0 1394.0 1028.0 1465.0Q1061.0 1536.0 1052.0 1597.0Q1043.0 1658.0 1004.5 1695.5Q966.0 1733.0 908.5 1734.0Q851.0 1735.0 788.0 1684.0Q775.0 1585.0 737.0 1482.5Q699.0 1380.0 651.0 1289.0Q616.0 1420.0 547.0 1548.5Q478.0 1677.0 361.0 1792.0Q244.0 1907.0 65.0 1998.0L49.0 1981.0Q184.0 1834.0 260.5 1670.0Q337.0 1506.0 371.5 1337.0Q406.0 1168.0 416.0 1006.0H82.0L65.0 949.0H420.0L422.0 796.0V488.0H410.0Q265.0 712.0 70.0 847.0L47.0 830.0Q95.0 732.0 137.5 605.0Q180.0 478.0 211.5 335.5Q243.0 193.0 258.0 50.0L637.0 150.0Q623.0 195.0 555.0 195.0Q505.0 326.0 442.0 431.0H686.0L827.0 257.0Q827.0 257.0 870.0 288.5Q913.0 320.0 973.0 366.5Q1033.0 413.0 1083.0 456.0Q1077.0 488.0 1026.0 488.0H709.0V796.0L704.0 949.0H741.0L876.0 761.0Q876.0 761.0 912.5 791.5Q949.0 822.0 1001.0 866.5Q1053.0 911.0 1098.0 953.0ZM1624.0 1633.0V384.0H1388.0V1633.0Z" fill="black"></path></svg>