<?xml version="1.0" standalone="no"?>
<!DOCTYPE svg PUBLIC "-//W3C//DTD SVG 1.1//EN" "http://www.w3.org/Graphics/SVG/1.1/DTD/svg11.dtd" >
<svg xmlns="http://www.w3.org/2000/svg" xmlns:svg="http://www.w3.org/2000/svg" xmlns:xlink="http://www.w3.org/1999/xlink" viewBox="0 0 2048 2048" style=""><path d="M1015.5 290.5V264.5Q1006.5 282.5 970.5 282.5H692.5V520.5H696.5L806.5 366.5Q806.5 366.5 841.5 396.0Q876.5 425.5 924.0 467.0Q971.5 508.5 1009.5 544.5Q1000.5 577.5 954.5 577.5H692.5V766.5L1013.5 737.5L1015.5 759.5Q908.5 819.5 738.0 898.5Q567.5 977.5 311.5 1081.5Q288.5 1124.5 249.5 1130.5L108.5 807.5Q159.5 805.5 237.5 800.0Q315.5 794.5 413.5 788.5V577.5H190.5L174.5 520.5H413.5V282.5H170.5L153.5 225.5H665.5L794.5 55.5Q794.5 55.5 832.0 85.5Q869.5 115.5 921.0 158.0Q972.5 200.5 1015.5 239.5V180.5L1284.5 284.5Q1287.5 235.5 1290.0 169.0Q1292.5 102.5 1294.5 51.5L1669.5 102.5Q1658.5 152.5 1587.5 161.5Q1547.5 188.5 1490.0 225.0Q1432.5 261.5 1384.5 290.5H1597.5L1722.5 164.5L1949.5 354.5Q1929.5 381.5 1878.5 391.5V958.5Q1876.5 964.5 1849.5 978.0Q1822.5 991.5 1779.5 1003.5Q1822.5 1035.5 1883.0 1082.0Q1943.5 1128.5 1990.5 1169.5Q1981.5 1202.5 1931.5 1202.5H1034.5Q947.5 1320.5 823.5 1419.5L847.5 1427.5H1443.5L1576.5 1280.5L1857.5 1489.5Q1848.5 1501.5 1829.0 1514.5Q1809.5 1527.5 1777.5 1534.5V1925.5Q1776.5 1932.5 1732.5 1948.0Q1688.5 1963.5 1628.5 1976.0Q1568.5 1988.5 1519.5 1988.5H1464.5V1859.5H819.5V1892.5Q819.5 1904.5 790.5 1929.5Q761.5 1954.5 707.0 1975.5Q652.5 1996.5 575.5 1996.5H518.5V1611.5Q410.5 1665.5 296.5 1708.5Q182.5 1751.5 65.5 1783.5L57.5 1763.5Q180.5 1693.5 293.5 1602.0Q406.5 1510.5 496.0 1407.5Q585.5 1304.5 636.5 1202.5H114.5L98.5 1144.5H1576.5L1675.5 1020.5L1646.5 1022.5H1593.5V934.5H1288.5V985.5Q1288.5 998.5 1254.0 1019.0Q1219.5 1039.5 1166.0 1055.5Q1112.5 1071.5 1054.5 1071.5H1015.5ZM1464.5 1484.5H819.5V1802.5H1464.5ZM1288.5 637.5V876.5H1593.5V637.5ZM1288.5 579.5H1593.5V348.5H1288.5Z" fill="black"></path></svg>