<?xml version="1.0" standalone="no"?>
<!DOCTYPE svg PUBLIC "-//W3C//DTD SVG 1.1//EN" "http://www.w3.org/Graphics/SVG/1.1/DTD/svg11.dtd" >
<svg xmlns="http://www.w3.org/2000/svg" xmlns:svg="http://www.w3.org/2000/svg" xmlns:xlink="http://www.w3.org/1999/xlink" viewBox="0 0 2048 2048" style=""><path d="M1285.5 458.5H1165.5V851.5H1285.5ZM909.5 400.5V298.5L1204.5 400.5H1285.5V63.5L1617.5 89.5Q1614.5 112.5 1599.0 127.5Q1583.5 142.5 1541.5 149.5V400.5H1646.5L1775.5 269.5L2002.5 484.5Q1990.5 498.5 1973.0 503.5Q1955.5 508.5 1924.5 511.5Q1872.5 560.5 1794.5 621.5Q1716.5 682.5 1650.5 722.5L1634.5 710.5Q1643.5 659.5 1651.0 589.0Q1658.5 518.5 1664.5 458.5H1541.5V851.5H1589.5L1726.5 714.5L1959.5 919.5Q1941.5 947.5 1875.5 955.5Q1834.5 1109.5 1772.0 1249.0Q1709.5 1388.5 1615.5 1506.5Q1703.5 1575.5 1804.5 1626.5Q1905.5 1677.5 2015.5 1717.5L2010.5 1740.5Q1825.5 1772.5 1752.5 1984.5Q1659.5 1919.5 1583.5 1845.5Q1507.5 1771.5 1447.5 1680.5Q1330.5 1779.5 1176.5 1856.5Q1022.5 1933.5 821.5 1984.5L806.5 1959.5Q989.5 1878.5 1126.0 1766.0Q1262.5 1653.5 1359.5 1517.5Q1260.5 1285.5 1218.5 908.5H1165.5V927.5Q1165.5 1053.5 1153.5 1191.5Q1141.5 1329.5 1099.5 1467.0Q1057.5 1604.5 967.5 1730.5Q877.5 1856.5 720.5 1957.5L702.5 1943.5Q798.5 1795.5 842.0 1626.5Q885.5 1457.5 897.5 1280.0Q909.5 1102.5 909.5 929.5ZM1603.5 908.5H1253.5Q1283.5 1048.5 1336.0 1158.5Q1388.5 1268.5 1457.5 1353.5Q1560.5 1148.5 1603.5 908.5ZM36.5 235.5H567.5L700.5 67.5Q700.5 67.5 741.0 99.0Q781.5 130.5 837.0 175.0Q892.5 219.5 937.5 259.5Q931.5 292.5 880.5 292.5H554.5Q536.5 435.5 505.0 569.0Q473.5 702.5 425.5 824.5L468.5 841.5H542.5L657.5 718.5L888.5 896.5Q879.5 907.5 861.0 918.0Q842.5 928.5 814.5 933.5V1664.5Q813.5 1672.5 779.0 1688.0Q744.5 1703.5 696.0 1716.0Q647.5 1728.5 605.5 1728.5H562.5V1617.5H442.5V1773.5Q442.5 1786.5 389.0 1816.5Q335.5 1846.5 241.5 1846.5H196.5V1244.5Q135.5 1327.5 59.5 1406.5L32.5 1388.5Q103.5 1239.5 150.5 1059.0Q197.5 878.5 226.0 682.5Q254.5 486.5 270.5 292.5H53.5ZM562.5 898.5H442.5V1560.5H562.5Z" fill="black"></path></svg>