<?xml version="1.0" standalone="no"?>
<!DOCTYPE svg PUBLIC "-//W3C//DTD SVG 1.1//EN" "http://www.w3.org/Graphics/SVG/1.1/DTD/svg11.dtd" >
<svg xmlns="http://www.w3.org/2000/svg" xmlns:svg="http://www.w3.org/2000/svg" xmlns:xlink="http://www.w3.org/1999/xlink" viewBox="0 0 2048 2048" style=""><path d="M1473.0 166.0V264.0Q1479.0 456.0 1493.5 616.5Q1508.0 777.0 1534.0 909.0Q1572.0 820.0 1614.0 705.0Q1656.0 590.0 1692.0 479.0L2019.0 657.0Q1996.0 698.0 1929.0 686.0Q1842.0 767.0 1745.0 842.5Q1648.0 918.0 1548.0 975.0Q1605.0 1223.0 1716.0 1376.0Q1827.0 1529.0 2019.0 1620.0L2017.0 1644.0Q1911.0 1673.0 1843.0 1769.5Q1775.0 1866.0 1755.0 1999.0Q1603.0 1870.0 1538.5 1599.0Q1474.0 1328.0 1452.0 915.0Q1436.0 1100.0 1393.0 1258.5Q1350.0 1417.0 1263.5 1550.5Q1177.0 1684.0 1032.0 1794.0Q887.0 1904.0 668.0 1992.0L649.0 1964.0Q830.0 1838.0 937.5 1692.5Q1045.0 1547.0 1099.0 1377.5Q1153.0 1208.0 1171.0 1009.0Q1189.0 810.0 1188.5 577.5Q1188.0 345.0 1188.0 73.0L1548.0 106.0Q1542.0 154.0 1473.0 166.0ZM764.0 522.0Q764.0 522.0 796.5 551.0Q829.0 580.0 874.0 622.0Q919.0 664.0 957.0 702.0Q986.0 662.0 1008.0 613.0Q1030.0 564.0 1028.0 512.0H1053.0Q1130.0 696.0 1116.0 828.5Q1102.0 961.0 1036.0 1024.0Q1005.0 1054.0 957.0 1058.5Q909.0 1063.0 865.5 1041.5Q822.0 1020.0 803.0 973.0Q778.0 910.0 805.0 857.0Q832.0 804.0 887.0 772.0L914.0 749.0H631.0V909.0Q757.0 955.0 824.5 1014.0Q892.0 1073.0 913.0 1133.0Q934.0 1193.0 920.5 1243.0Q907.0 1293.0 870.0 1321.5Q833.0 1350.0 784.0 1346.0Q735.0 1342.0 686.0 1294.0Q691.0 1217.0 675.0 1135.0Q659.0 1053.0 631.0 983.0V1915.0Q630.0 1923.0 601.0 1942.0Q572.0 1961.0 520.0 1977.5Q468.0 1994.0 397.0 1994.0H344.0V1302.0Q220.0 1457.0 51.0 1585.0L29.0 1564.0Q102.0 1456.0 159.5 1320.0Q217.0 1184.0 258.5 1037.5Q300.0 891.0 326.0 749.0H78.0L62.0 692.0H344.0V411.0Q270.0 419.0 196.5 425.0Q123.0 431.0 51.0 434.0L47.0 413.0Q154.0 367.0 269.0 303.5Q384.0 240.0 485.0 172.5Q586.0 105.0 649.0 49.0L971.0 323.0Q949.0 340.0 912.0 343.0Q875.0 346.0 819.0 327.0Q778.0 338.0 730.5 348.5Q683.0 359.0 631.0 368.0V692.0H649.0Z" fill="black"></path></svg>