<?xml version="1.0" standalone="no"?>
<!DOCTYPE svg PUBLIC "-//W3C//DTD SVG 1.1//EN" "http://www.w3.org/Graphics/SVG/1.1/DTD/svg11.dtd" >
<svg xmlns="http://www.w3.org/2000/svg" xmlns:svg="http://www.w3.org/2000/svg" xmlns:xlink="http://www.w3.org/1999/xlink" viewBox="0 0 2048 2048" style=""><path d="M758.5 51.0 1069.5 340.0Q1026.5 376.0 915.5 340.0Q869.5 349.0 815.0 358.0Q760.5 367.0 700.5 377.0V708.0H717.5L840.5 530.0Q840.5 530.0 879.0 563.5Q917.5 597.0 969.0 644.5Q1020.5 692.0 1059.5 733.0Q1053.5 766.0 1003.5 766.0H700.5V895.0Q833.5 937.0 906.0 994.5Q978.5 1052.0 1004.0 1111.5Q1029.5 1171.0 1018.0 1221.5Q1006.5 1272.0 970.0 1302.0Q933.5 1332.0 883.0 1330.0Q832.5 1328.0 780.5 1282.0Q776.5 1205.0 753.0 1124.0Q729.5 1043.0 700.5 973.0V1917.0Q699.5 1925.0 671.0 1944.0Q642.5 1963.0 590.0 1980.0Q537.5 1997.0 467.5 1997.0H414.5V1290.0Q260.5 1474.0 59.5 1612.0L37.5 1589.0Q122.5 1481.0 190.0 1344.5Q257.5 1208.0 308.0 1059.0Q358.5 910.0 391.5 766.0H78.5L61.5 708.0H414.5V405.0Q328.5 411.0 240.5 415.5Q152.5 420.0 69.5 422.0L65.5 401.0Q186.5 358.0 318.5 296.5Q450.5 235.0 567.0 170.0Q683.5 105.0 758.5 51.0ZM778.5 1599.0 1042.5 1585.0Q1080.5 1394.0 1116.0 1185.0Q1151.5 976.0 1181.5 773.5Q1211.5 571.0 1233.0 399.5Q1254.5 228.0 1263.5 112.0L1683.5 205.0Q1679.5 228.0 1660.5 248.0Q1641.5 268.0 1599.5 272.0Q1569.5 397.0 1522.5 556.0Q1475.5 715.0 1413.5 891.5Q1351.5 1068.0 1277.5 1244.5Q1203.5 1421.0 1118.5 1579.0Q1233.5 1571.0 1369.0 1560.5Q1504.5 1550.0 1648.5 1538.0Q1612.5 1409.0 1564.0 1282.5Q1515.5 1156.0 1464.5 1042.0L1489.5 1032.0Q1681.5 1150.0 1796.0 1278.5Q1910.5 1407.0 1960.5 1528.5Q2010.5 1650.0 2009.5 1748.5Q2008.5 1847.0 1968.5 1906.0Q1928.5 1965.0 1862.5 1968.0Q1796.5 1971.0 1718.5 1900.0Q1712.5 1828.0 1699.0 1754.5Q1685.5 1681.0 1667.5 1607.0Q1547.5 1666.0 1378.5 1738.5Q1209.5 1811.0 977.5 1898.0Q954.5 1943.0 911.5 1949.0Z" fill="black"></path></svg>