<?xml version="1.0" standalone="no"?>
<!DOCTYPE svg PUBLIC "-//W3C//DTD SVG 1.1//EN" "http://www.w3.org/Graphics/SVG/1.1/DTD/svg11.dtd" >
<svg xmlns="http://www.w3.org/2000/svg" xmlns:svg="http://www.w3.org/2000/svg" xmlns:xlink="http://www.w3.org/1999/xlink" viewBox="0 0 2048 2048" style=""><path d="M1180.0 49.0 1589.0 172.0Q1576.0 215.0 1505.0 215.0Q1465.0 315.0 1419.0 403.0Q1373.0 491.0 1321.0 569.0H1618.0L1757.0 376.0Q1757.0 376.0 1782.5 397.5Q1808.0 419.0 1847.5 452.0Q1887.0 485.0 1929.5 523.0Q1972.0 561.0 2007.0 594.0Q1998.0 626.0 1950.0 626.0H1690.0V1646.0Q1690.0 1744.0 1664.0 1819.0Q1638.0 1894.0 1559.0 1940.5Q1480.0 1987.0 1319.0 1999.0Q1317.0 1925.0 1306.5 1871.0Q1296.0 1817.0 1272.0 1783.0Q1247.0 1751.0 1207.0 1726.0Q1167.0 1701.0 1081.0 1685.0V1661.0Q1081.0 1661.0 1115.0 1662.5Q1149.0 1664.0 1196.0 1666.5Q1243.0 1669.0 1285.5 1671.0Q1328.0 1673.0 1345.0 1673.0Q1386.0 1673.0 1386.0 1636.0V626.0H1282.0Q1193.0 749.0 1089.0 848.0Q985.0 947.0 866.0 1024.0L846.0 1009.0Q895.0 926.0 942.0 823.5Q989.0 721.0 1032.0 606.0Q1020.0 626.0 985.0 626.0H760.0V1921.0Q758.0 1933.0 693.5 1963.5Q629.0 1994.0 512.0 1994.0H455.0V645.0Q289.0 905.0 63.0 1073.0L41.0 1058.0Q107.0 934.0 169.0 770.0Q231.0 606.0 279.0 422.5Q327.0 239.0 352.0 55.0L747.0 161.0Q735.0 207.0 666.0 207.0Q629.0 306.0 588.0 397.0Q547.0 488.0 500.0 569.0H659.0L797.0 381.0Q797.0 381.0 821.5 401.0Q846.0 421.0 884.0 453.0Q922.0 485.0 963.0 521.0Q1004.0 557.0 1038.0 589.0Q1084.0 462.0 1121.0 324.5Q1158.0 187.0 1180.0 49.0Z" fill="black"></path></svg>