<?xml version="1.0" standalone="no"?>
<!DOCTYPE svg PUBLIC "-//W3C//DTD SVG 1.1//EN" "http://www.w3.org/Graphics/SVG/1.1/DTD/svg11.dtd" >
<svg xmlns="http://www.w3.org/2000/svg" xmlns:svg="http://www.w3.org/2000/svg" xmlns:xlink="http://www.w3.org/1999/xlink" viewBox="0 0 2048 2048" style=""><path d="M368.0 145.0 390.0 143.0Q405.0 177.0 417.0 209.0Q429.0 241.0 435.0 272.0H867.0V51.0L1234.0 78.0Q1231.0 98.0 1218.0 111.5Q1205.0 125.0 1168.0 131.0V272.0H1555.0L1703.0 125.0L1955.0 362.0Q1934.0 386.0 1877.0 389.0Q1806.0 418.0 1702.5 444.5Q1599.0 471.0 1517.0 483.0L1502.0 471.0Q1536.0 406.0 1560.0 330.0H1383.0V485.0Q1383.0 502.0 1391.0 509.0Q1399.0 516.0 1433.0 516.0H1574.0Q1605.0 516.0 1636.5 515.5Q1668.0 515.0 1687.0 514.0Q1703.0 514.0 1720.0 511.0Q1737.0 508.0 1746.0 502.0Q1760.0 492.0 1781.5 470.5Q1803.0 449.0 1826.0 414.0H1844.0L1854.0 497.0Q1907.0 517.0 1925.0 541.0Q1943.0 565.0 1943.0 596.0Q1943.0 651.0 1899.5 679.5Q1856.0 708.0 1734.0 719.0L1951.0 878.0Q1943.0 888.0 1927.0 897.5Q1911.0 907.0 1885.0 913.0V1161.0Q1885.0 1168.0 1846.5 1182.5Q1808.0 1197.0 1755.5 1208.5Q1703.0 1220.0 1660.0 1220.0H1611.0V1163.0H1435.0L1387.0 1370.0H1625.0L1762.0 1243.0L1998.0 1435.0Q1976.0 1463.0 1920.0 1472.0Q1898.0 1664.0 1861.0 1779.5Q1824.0 1895.0 1750.0 1941.0Q1705.0 1970.0 1643.0 1982.5Q1581.0 1995.0 1486.0 1997.0Q1487.0 1949.0 1478.5 1910.5Q1470.0 1872.0 1441.0 1843.0Q1412.0 1814.0 1351.0 1786.5Q1290.0 1759.0 1218.0 1745.0V1722.0Q1271.0 1726.0 1333.5 1730.0Q1396.0 1734.0 1447.0 1736.5Q1498.0 1739.0 1517.0 1739.0Q1553.0 1739.0 1568.0 1726.0Q1591.0 1706.0 1609.0 1627.5Q1627.0 1549.0 1639.0 1427.0H1373.0L1355.0 1501.0Q1304.0 1524.0 1243.0 1526.5Q1182.0 1529.0 1080.0 1501.0Q1104.0 1422.0 1127.5 1328.0Q1151.0 1234.0 1171.0 1145.5Q1191.0 1057.0 1203.0 995.0L1490.0 1106.0H1611.0V880.0H1099.0L1080.0 823.0H1592.0L1689.0 721.0L1537.0 725.0H1359.0Q1250.0 725.0 1196.0 706.5Q1142.0 688.0 1124.5 644.0Q1107.0 600.0 1107.0 522.0V330.0H986.0Q945.0 465.0 841.5 556.0Q738.0 647.0 583.0 702.0L822.0 729.0Q813.0 779.0 744.0 788.0Q720.0 810.0 685.0 836.0Q650.0 862.0 617.0 885.0H810.0L898.0 766.0L1107.0 960.0Q1095.0 973.0 1074.5 984.0Q1054.0 995.0 1029.0 999.0V1151.0L1154.0 1210.0Q1146.0 1226.0 1129.0 1233.5Q1112.0 1241.0 1076.0 1237.0L1029.0 1304.0V1745.0Q1029.0 1823.0 1004.5 1876.5Q980.0 1930.0 915.5 1959.5Q851.0 1989.0 730.0 1995.0Q730.0 1938.0 722.5 1905.5Q715.0 1873.0 701.0 1841.0Q685.0 1810.0 653.0 1788.0Q621.0 1766.0 564.0 1755.0V1730.0Q564.0 1730.0 593.5 1731.5Q623.0 1733.0 663.0 1735.0Q703.0 1737.0 736.0 1737.0Q769.0 1737.0 769.0 1712.0V1567.0Q631.0 1673.0 453.5 1754.0Q276.0 1835.0 62.0 1878.0L50.0 1853.0Q211.0 1786.0 348.0 1692.5Q485.0 1599.0 591.0 1489.0Q434.0 1550.0 210.0 1630.0Q201.0 1650.0 184.0 1662.0Q167.0 1674.0 151.0 1677.0L52.0 1403.0L249.0 1394.0V780.0L142.0 794.0L136.0 770.0Q371.0 702.0 500.0 596.5Q629.0 491.0 665.0 330.0H445.0Q458.0 445.0 414.5 520.0Q371.0 595.0 302.0 618.0Q236.0 640.0 172.5 609.5Q109.0 579.0 93.0 504.0Q81.0 430.0 121.0 384.5Q161.0 339.0 222.0 317.0Q276.0 300.0 323.5 254.0Q371.0 208.0 368.0 145.0ZM769.0 1112.0H511.0V1218.0H769.0ZM769.0 1055.0V942.0H511.0V1055.0ZM765.0 1276.0H511.0V1380.0L697.0 1370.0Q714.0 1347.0 731.0 1323.0Q748.0 1299.0 765.0 1276.0ZM497.0 870.0V729.0Q441.0 744.0 380.0 757.5Q319.0 771.0 255.0 780.0Z" fill="black"></path></svg>