<?xml version="1.0" standalone="no"?>
<!DOCTYPE svg PUBLIC "-//W3C//DTD SVG 1.1//EN" "http://www.w3.org/Graphics/SVG/1.1/DTD/svg11.dtd" >
<svg xmlns="http://www.w3.org/2000/svg" xmlns:svg="http://www.w3.org/2000/svg" xmlns:xlink="http://www.w3.org/1999/xlink" viewBox="0 0 2048 2048" style=""><path d="M246.0 1293.5H1448.0L1592.0 1090.5Q1592.0 1090.5 1618.5 1113.0Q1645.0 1135.5 1685.5 1170.5Q1726.0 1205.5 1770.0 1245.0Q1814.0 1284.5 1850.0 1318.5Q1841.0 1350.5 1790.0 1350.5H1178.0V1893.5H1579.0L1723.0 1694.5Q1723.0 1694.5 1749.0 1716.5Q1775.0 1738.5 1815.5 1773.0Q1856.0 1807.5 1899.5 1846.0Q1943.0 1884.5 1979.0 1918.5Q1970.0 1950.5 1921.0 1950.5H88.0L72.0 1893.5H871.0V1350.5H263.0ZM312.0 222.5 336.0 220.5Q381.0 310.5 400.0 390.5H871.0V97.5L1244.0 126.5Q1242.0 144.5 1229.0 158.0Q1216.0 171.5 1178.0 177.5V390.5H1579.0L1737.0 236.5L2001.0 484.5Q1981.0 510.5 1919.0 513.5Q1868.0 551.5 1797.5 592.0Q1727.0 632.5 1651.5 669.0Q1576.0 705.5 1510.0 730.5L1497.0 720.5Q1522.0 663.5 1547.5 588.0Q1573.0 512.5 1590.0 447.5H1405.0V793.5Q1405.0 812.5 1414.0 819.5Q1423.0 826.5 1457.0 826.5H1594.0Q1623.0 826.5 1651.5 826.5Q1680.0 826.5 1698.0 826.5Q1718.0 825.5 1730.5 820.5Q1743.0 815.5 1756.0 802.5Q1772.0 782.5 1798.0 732.5Q1824.0 682.5 1858.0 607.5H1876.0L1885.0 808.5Q1940.0 831.5 1957.5 859.5Q1975.0 887.5 1975.0 929.5Q1975.0 985.5 1937.5 1021.0Q1900.0 1056.5 1809.0 1073.5Q1718.0 1090.5 1555.0 1090.5H1375.0Q1261.0 1090.5 1203.0 1070.5Q1145.0 1050.5 1124.5 1000.0Q1104.0 949.5 1104.0 857.5V447.5H961.0Q937.0 657.5 838.5 815.0Q740.0 972.5 552.0 1077.0Q364.0 1181.5 72.0 1234.5L66.0 1213.5Q265.0 1127.5 380.5 1013.5Q496.0 899.5 548.5 758.0Q601.0 616.5 611.0 447.5H412.0Q430.0 573.5 393.0 660.0Q356.0 746.5 293.0 783.5Q230.0 822.5 162.5 802.0Q95.0 781.5 70.0 711.5Q49.0 645.5 81.0 596.5Q113.0 547.5 168.0 519.5Q227.0 485.5 274.5 404.5Q322.0 323.5 312.0 222.5Z" fill="black"></path></svg>