<?xml version="1.0" standalone="no"?>
<!DOCTYPE svg PUBLIC "-//W3C//DTD SVG 1.1//EN" "http://www.w3.org/Graphics/SVG/1.1/DTD/svg11.dtd" >
<svg xmlns="http://www.w3.org/2000/svg" xmlns:svg="http://www.w3.org/2000/svg" xmlns:xlink="http://www.w3.org/1999/xlink" viewBox="0 0 2048 2048" style=""><path d="M219.0 1504.5Q248.0 1504.5 261.0 1500.0Q274.0 1495.5 297.0 1469.5Q314.0 1451.5 328.5 1435.0Q343.0 1418.5 367.0 1389.5Q391.0 1360.5 434.0 1306.0Q477.0 1251.5 551.0 1158.0Q625.0 1064.5 741.0 916.5L770.0 926.5Q742.0 980.5 703.0 1054.5Q664.0 1128.5 624.5 1204.0Q585.0 1279.5 555.0 1339.5Q525.0 1399.5 514.0 1424.5Q499.0 1461.5 486.5 1503.5Q474.0 1545.5 475.0 1576.5Q476.0 1619.5 498.0 1655.0Q520.0 1690.5 540.0 1735.0Q560.0 1779.5 557.0 1850.5Q554.0 1915.5 502.5 1955.5Q451.0 1995.5 360.0 1995.5Q322.0 1995.5 288.5 1973.0Q255.0 1950.5 242.0 1905.5Q265.0 1776.5 258.5 1683.0Q252.0 1589.5 217.0 1569.5Q173.0 1544.5 117.0 1539.5V1504.5Q117.0 1504.5 137.5 1504.5Q158.0 1504.5 182.5 1504.5Q207.0 1504.5 219.0 1504.5ZM287.0 656.5Q426.0 657.5 506.0 688.0Q586.0 718.5 617.5 764.0Q649.0 809.5 642.5 855.5Q636.0 901.5 601.5 934.0Q567.0 966.5 515.0 972.0Q463.0 977.5 406.0 939.5Q395.0 865.5 355.0 790.5Q315.0 715.5 272.0 666.5ZM98.0 947.5Q233.0 963.5 307.5 1003.0Q382.0 1042.5 408.5 1091.5Q435.0 1140.5 424.5 1186.0Q414.0 1231.5 378.0 1261.0Q342.0 1290.5 291.5 1290.5Q241.0 1290.5 188.0 1248.5Q185.0 1170.5 153.5 1091.0Q122.0 1011.5 82.0 957.5ZM1108.0 1373.5V1778.5H1587.0V1373.5ZM1108.0 1315.5H1587.0V943.5H1108.0ZM1184.0 607.5 1587.0 691.5Q1572.0 741.5 1501.0 744.5Q1457.0 773.5 1395.5 813.5Q1334.0 853.5 1282.0 885.5H1567.0L1696.0 748.5L1950.0 943.5Q1940.0 953.5 1923.0 965.0Q1906.0 976.5 1878.0 982.5V1905.5Q1877.0 1915.5 1837.0 1933.0Q1797.0 1950.5 1741.5 1965.0Q1686.0 1979.5 1636.0 1979.5H1587.0V1836.5H1108.0V1905.5Q1108.0 1920.5 1074.0 1942.0Q1040.0 1963.5 986.0 1980.5Q932.0 1997.5 872.0 1997.5H829.0V771.5L1118.0 885.5H1167.0Q1172.0 827.5 1177.0 748.0Q1182.0 668.5 1184.0 607.5ZM1102.0 50.5 1466.0 179.5Q1452.0 221.5 1382.0 218.5Q1367.0 242.5 1350.0 266.5Q1333.0 290.5 1315.0 312.5H1630.0L1763.0 142.5Q1763.0 142.5 1805.0 174.5Q1847.0 206.5 1903.5 252.0Q1960.0 297.5 2005.0 337.5Q1999.0 369.5 1948.0 369.5H1499.0Q1586.0 409.5 1618.0 461.0Q1650.0 512.5 1640.0 560.0Q1630.0 607.5 1592.0 638.0Q1554.0 668.5 1500.5 668.0Q1447.0 667.5 1393.0 621.5Q1390.0 557.5 1369.5 490.5Q1349.0 423.5 1323.0 369.5H1266.0Q1190.0 451.5 1104.0 512.0Q1018.0 572.5 926.0 613.5L905.0 597.5Q967.0 497.5 1016.0 361.5Q1005.0 369.5 981.0 369.5H606.0Q706.0 410.5 743.5 463.5Q781.0 516.5 773.5 566.0Q766.0 615.5 728.0 646.5Q690.0 677.5 637.0 676.0Q584.0 674.5 532.0 625.5Q537.0 562.5 522.5 496.5Q508.0 430.5 485.0 377.5Q396.0 488.5 288.5 565.5Q181.0 642.5 61.0 693.5L43.0 674.5Q134.0 565.5 211.5 402.0Q289.0 238.5 328.0 52.5L676.0 181.5Q668.0 199.5 647.5 210.5Q627.0 221.5 592.0 218.5Q563.0 270.5 532.0 312.5H705.0L823.0 148.5Q823.0 148.5 858.0 178.5Q893.0 208.5 941.0 250.0Q989.0 291.5 1028.0 328.5Q1051.0 262.5 1070.5 192.5Q1090.0 122.5 1102.0 50.5Z" fill="black"></path></svg>