<?xml version="1.0" standalone="no"?>
<!DOCTYPE svg PUBLIC "-//W3C//DTD SVG 1.1//EN" "http://www.w3.org/Graphics/SVG/1.1/DTD/svg11.dtd" >
<svg xmlns="http://www.w3.org/2000/svg" xmlns:svg="http://www.w3.org/2000/svg" xmlns:xlink="http://www.w3.org/1999/xlink" viewBox="0 0 2048 2048" style=""><path d="M1134.0 52.0 1501.0 175.0Q1488.0 219.0 1419.0 216.0Q1399.0 251.0 1378.5 284.5Q1358.0 318.0 1335.0 349.0H1632.0L1765.0 179.0Q1765.0 179.0 1807.0 211.0Q1849.0 243.0 1905.5 288.5Q1962.0 334.0 2007.0 373.0Q2001.0 406.0 1950.0 406.0H1483.0Q1578.0 432.0 1624.0 475.0Q1670.0 518.0 1677.5 564.5Q1685.0 611.0 1663.0 650.0Q1641.0 689.0 1599.0 707.0L1771.0 875.0Q1751.0 891.0 1714.0 891.0Q1677.0 891.0 1622.0 869.0Q1522.0 887.0 1404.0 903.5Q1286.0 920.0 1155.0 933.0Q1150.0 1003.0 1143.5 1068.5Q1137.0 1134.0 1126.0 1197.0H1581.0L1726.0 996.0Q1726.0 996.0 1753.0 1018.0Q1780.0 1040.0 1821.5 1075.0Q1863.0 1110.0 1907.5 1149.0Q1952.0 1188.0 1989.0 1221.0Q1980.0 1254.0 1929.0 1254.0H1143.0Q1219.0 1407.0 1353.5 1496.0Q1488.0 1585.0 1657.0 1631.0Q1826.0 1677.0 2007.0 1701.0V1725.0Q1918.0 1750.0 1860.0 1820.0Q1802.0 1890.0 1778.0 1998.0Q1608.0 1933.0 1477.5 1845.0Q1347.0 1757.0 1255.5 1620.5Q1164.0 1484.0 1110.0 1277.0Q1078.0 1407.0 1012.5 1519.0Q947.0 1631.0 828.0 1722.5Q709.0 1814.0 521.0 1883.0Q333.0 1952.0 57.0 1998.0L45.0 1971.0Q309.0 1874.0 465.5 1763.0Q622.0 1652.0 700.5 1525.0Q779.0 1398.0 809.0 1254.0H90.0L74.0 1197.0H819.0Q828.0 1140.0 833.5 1080.5Q839.0 1021.0 842.0 959.0Q677.0 968.0 512.0 972.0Q347.0 976.0 190.0 971.0L186.0 943.0Q345.0 921.0 516.0 887.5Q687.0 854.0 853.5 813.5Q1020.0 773.0 1168.0 728.5Q1316.0 684.0 1429.0 640.0Q1417.0 577.0 1387.5 514.5Q1358.0 452.0 1323.0 406.0H1292.0Q1212.0 508.0 1118.0 585.0Q1024.0 662.0 919.0 718.0L899.0 703.0Q979.0 576.0 1040.0 400.0Q1028.0 406.0 1010.0 406.0H645.0Q756.0 444.0 800.5 499.5Q845.0 555.0 841.0 609.0Q837.0 663.0 799.0 699.0Q761.0 735.0 704.5 737.0Q648.0 739.0 590.0 689.0Q588.0 615.0 564.0 539.0Q540.0 463.0 506.0 406.0H500.0Q407.0 544.0 297.5 652.0Q188.0 760.0 63.0 838.0L41.0 822.0Q101.0 729.0 159.5 604.0Q218.0 479.0 267.0 336.5Q316.0 194.0 348.0 50.0L696.0 171.0Q683.0 215.0 614.0 212.0Q576.0 285.0 536.0 349.0H733.0L852.0 185.0Q852.0 185.0 886.0 214.0Q920.0 243.0 967.0 284.0Q1014.0 325.0 1053.0 363.0Q1079.0 288.0 1100.0 210.0Q1121.0 132.0 1134.0 52.0Z" fill="black"></path></svg>