<?xml version="1.0" standalone="no"?>
<!DOCTYPE svg PUBLIC "-//W3C//DTD SVG 1.1//EN" "http://www.w3.org/Graphics/SVG/1.1/DTD/svg11.dtd" >
<svg xmlns="http://www.w3.org/2000/svg" xmlns:svg="http://www.w3.org/2000/svg" xmlns:xlink="http://www.w3.org/1999/xlink" viewBox="0 0 2048 2048" style=""><path d="M990.0 286.0Q973.0 327.0 908.0 324.0Q844.0 418.0 771.0 516.0Q698.0 614.0 628.0 691.0L599.0 679.0Q611.0 616.0 627.0 531.0Q643.0 446.0 659.5 353.0Q676.0 260.0 691.0 175.0ZM75.0 204.0Q198.0 290.0 250.5 378.5Q303.0 467.0 305.0 541.5Q307.0 616.0 274.0 662.5Q241.0 709.0 190.5 712.0Q140.0 715.0 91.0 658.0Q103.0 548.0 89.0 428.5Q75.0 309.0 50.0 212.0ZM1429.0 218.0Q1415.0 263.0 1349.0 263.0Q1280.0 472.0 1180.0 631.5Q1080.0 791.0 949.0 906.0H1512.0L1646.0 775.0L1728.0 843.0Q1638.0 707.0 1585.0 518.5Q1532.0 330.0 1506.0 64.0L1529.0 56.0L1682.0 128.0Q1655.0 171.0 1594.0 228.0Q1640.0 337.0 1713.0 427.5Q1786.0 518.0 1870.0 588.0Q1954.0 658.0 2035.0 705.0L2033.0 728.0Q1980.0 754.0 1927.0 814.0Q1874.0 874.0 1846.0 943.0L1875.0 968.0Q1863.0 981.0 1843.0 991.5Q1823.0 1002.0 1789.0 1006.0Q1784.0 1239.0 1776.0 1397.0Q1768.0 1555.0 1753.0 1655.5Q1738.0 1756.0 1713.0 1814.5Q1688.0 1873.0 1650.0 1906.0Q1556.0 1987.0 1392.0 1987.0Q1393.0 1928.0 1387.0 1885.0Q1381.0 1842.0 1361.0 1815.0Q1341.0 1788.0 1307.5 1768.0Q1274.0 1748.0 1222.0 1736.0V1709.0Q1263.0 1714.0 1317.5 1715.5Q1372.0 1717.0 1400.0 1717.0Q1441.0 1717.0 1459.0 1699.0Q1483.0 1676.0 1497.0 1594.5Q1511.0 1513.0 1519.5 1358.5Q1528.0 1204.0 1533.0 963.0H1361.0Q1352.0 1106.0 1325.5 1248.0Q1299.0 1390.0 1235.0 1524.5Q1171.0 1659.0 1052.0 1780.0Q933.0 1901.0 740.0 2002.0L718.0 1977.0Q845.0 1857.0 917.5 1730.0Q990.0 1603.0 1024.5 1474.0Q1059.0 1345.0 1070.0 1216.5Q1081.0 1088.0 1084.0 963.0H966.0L947.0 908.0Q924.0 928.0 900.0 947.5Q876.0 967.0 851.0 984.0L826.0 968.0L873.0 877.0H865.0H589.0V974.0Q713.0 1023.0 779.5 1083.5Q846.0 1144.0 867.5 1204.0Q889.0 1264.0 876.5 1313.5Q864.0 1363.0 828.5 1391.0Q793.0 1419.0 745.5 1415.5Q698.0 1412.0 650.0 1365.0Q652.0 1287.0 633.5 1202.0Q615.0 1117.0 589.0 1043.0V1914.0Q589.0 1925.0 556.0 1943.0Q523.0 1961.0 472.5 1975.5Q422.0 1990.0 370.0 1990.0H314.0V1365.0Q254.0 1452.0 184.0 1531.0Q114.0 1610.0 36.0 1680.0L13.0 1660.0Q70.0 1554.0 114.0 1423.5Q158.0 1293.0 190.5 1152.5Q223.0 1012.0 245.0 877.0H69.0L52.0 820.0H314.0V46.0L665.0 81.0Q662.0 102.0 647.0 117.0Q632.0 132.0 589.0 138.0V820.0H593.0L710.0 654.0Q710.0 654.0 740.5 680.5Q771.0 707.0 815.0 746.0Q859.0 785.0 898.0 822.0Q963.0 673.0 1009.5 492.0Q1056.0 311.0 1076.0 122.0Z" fill="black"></path></svg>