<?xml version="1.0" standalone="no"?>
<!DOCTYPE svg PUBLIC "-//W3C//DTD SVG 1.1//EN" "http://www.w3.org/Graphics/SVG/1.1/DTD/svg11.dtd" >
<svg xmlns="http://www.w3.org/2000/svg" xmlns:svg="http://www.w3.org/2000/svg" xmlns:xlink="http://www.w3.org/1999/xlink" viewBox="0 0 2048 2048" style=""><path d="M105.5 202.0Q224.5 287.0 273.5 374.0Q322.5 461.0 321.0 533.5Q319.5 606.0 285.0 650.0Q250.5 694.0 200.0 695.5Q149.5 697.0 101.5 640.0Q117.5 532.0 108.5 416.5Q99.5 301.0 81.5 208.0ZM687.5 185.0 974.5 290.0H1246.5V66.0L1598.5 95.0Q1595.5 117.0 1581.0 131.5Q1566.5 146.0 1523.5 152.0V290.0H1648.5L1770.5 120.0Q1770.5 120.0 1809.0 152.0Q1847.5 184.0 1899.5 229.5Q1951.5 275.0 1992.5 314.0Q1983.5 347.0 1936.5 347.0H1523.5V507.0H1641.5L1756.5 357.0Q1756.5 357.0 1792.5 385.5Q1828.5 414.0 1877.5 454.5Q1926.5 495.0 1965.5 531.0Q1956.5 564.0 1910.5 564.0H1523.5V750.0H1684.5L1807.5 587.0Q1807.5 587.0 1845.5 617.5Q1883.5 648.0 1934.5 692.0Q1985.5 736.0 2026.5 775.0Q2017.5 808.0 1971.5 808.0H921.5L951.5 838.0Q945.5 871.0 896.5 871.0H609.5V941.0Q735.5 991.0 802.5 1052.5Q869.5 1114.0 890.5 1174.5Q911.5 1235.0 898.5 1285.0Q885.5 1335.0 848.5 1363.0Q811.5 1391.0 762.5 1386.5Q713.5 1382.0 665.5 1334.0Q666.5 1256.0 649.5 1173.0Q632.5 1090.0 609.5 1017.0V1920.0Q609.5 1931.0 576.5 1949.0Q543.5 1967.0 492.5 1981.5Q441.5 1996.0 388.5 1996.0H333.5V1367.0Q205.5 1532.0 42.5 1656.0L21.5 1635.0Q87.5 1533.0 139.0 1406.0Q190.5 1279.0 228.0 1141.5Q265.5 1004.0 290.5 871.0H66.5L50.5 814.0H333.5V52.0L685.5 87.0Q682.5 108.0 667.5 124.0Q652.5 140.0 609.5 144.0V814.0H619.5L738.5 648.0L857.5 750.0H1246.5V564.0H916.5L900.5 507.0H1246.5V347.0H912.5L908.5 331.0H898.5Q843.5 429.0 777.5 526.0Q711.5 623.0 640.5 697.0L609.5 685.0Q629.5 590.0 651.0 451.5Q672.5 313.0 687.5 185.0ZM941.5 972.0V863.0L1211.5 972.0H1574.5L1697.5 834.0L1955.5 1031.0Q1946.5 1043.0 1926.0 1055.5Q1905.5 1068.0 1873.5 1074.0V1705.0Q1873.5 1790.0 1852.5 1850.0Q1831.5 1910.0 1763.5 1945.0Q1695.5 1980.0 1553.5 1991.0Q1550.5 1930.0 1544.0 1885.0Q1537.5 1840.0 1521.5 1811.0Q1502.5 1785.0 1474.5 1763.5Q1446.5 1742.0 1383.5 1731.0V1705.0Q1383.5 1705.0 1419.0 1707.0Q1454.5 1709.0 1497.0 1711.0Q1539.5 1713.0 1559.5 1713.0Q1594.5 1713.0 1594.5 1678.0V1510.0H1199.5V1907.0Q1199.5 1921.0 1168.0 1941.5Q1136.5 1962.0 1086.0 1978.0Q1035.5 1994.0 980.5 1994.0H941.5ZM1199.5 1453.0H1594.5V1269.0H1199.5ZM1199.5 1211.0H1594.5V1029.0H1199.5Z" fill="black"></path></svg>