<?xml version="1.0" standalone="no"?>
<!DOCTYPE svg PUBLIC "-//W3C//DTD SVG 1.1//EN" "http://www.w3.org/Graphics/SVG/1.1/DTD/svg11.dtd" >
<svg xmlns="http://www.w3.org/2000/svg" xmlns:svg="http://www.w3.org/2000/svg" xmlns:xlink="http://www.w3.org/1999/xlink" viewBox="0 0 2048 2048" style=""><path d="M834.0 174.0H1589.0L1718.0 57.0L1944.0 237.0Q1924.0 263.0 1866.0 272.0Q1853.0 429.0 1827.0 511.0Q1801.0 593.0 1741.0 633.0L1972.0 807.0Q1965.0 816.0 1949.0 825.5Q1933.0 835.0 1907.0 841.0V1327.0Q1906.0 1335.0 1869.0 1350.0Q1832.0 1365.0 1781.5 1377.5Q1731.0 1390.0 1688.0 1390.0H1640.0V1302.0H1204.0V1636.0Q1204.0 1667.0 1223.0 1678.0Q1242.0 1689.0 1298.0 1689.0H1524.0Q1579.0 1689.0 1627.5 1688.0Q1676.0 1687.0 1702.0 1685.0Q1750.0 1682.0 1772.0 1661.0Q1792.0 1636.0 1819.0 1579.5Q1846.0 1523.0 1878.0 1444.0H1899.0L1907.0 1665.0Q1965.0 1688.0 1986.0 1713.5Q2007.0 1739.0 2007.0 1775.0Q2007.0 1834.0 1963.5 1872.0Q1920.0 1910.0 1809.5 1928.5Q1699.0 1947.0 1497.0 1947.0H1253.0Q1132.0 1947.0 1063.0 1928.5Q994.0 1910.0 966.0 1858.0Q938.0 1806.0 938.0 1708.0V692.0Q898.0 710.0 855.5 726.0Q813.0 742.0 768.0 755.0L758.0 733.0Q896.0 638.0 984.0 506.0Q1072.0 374.0 1104.0 231.0H852.0ZM1204.0 1245.0H1301.0V809.0H1204.0ZM1233.0 751.0H1622.0L1722.0 645.0Q1679.0 668.0 1625.0 677.0Q1571.0 686.0 1499.0 686.0Q1499.0 635.0 1493.0 597.0Q1487.0 559.0 1468.0 534.0Q1448.0 510.0 1418.5 492.5Q1389.0 475.0 1339.0 463.0V440.0Q1375.0 442.0 1427.0 444.0Q1479.0 446.0 1505.0 446.0Q1541.0 446.0 1557.0 436.0Q1591.0 409.0 1606.0 231.0H1446.0Q1383.0 369.0 1267.5 478.0Q1152.0 587.0 999.0 663.0ZM1540.0 1245.0H1640.0V809.0H1540.0ZM131.0 1253.0 348.0 1296.0V1112.0L191.0 1167.0Q171.0 1209.0 131.0 1212.0L43.0 952.0L295.0 948.0Q343.0 846.0 390.5 732.5Q438.0 619.0 480.0 509.5Q522.0 400.0 553.0 309.0L875.0 448.0Q857.0 491.0 791.0 479.0Q718.0 574.0 611.5 701.0Q505.0 828.0 387.0 946.0L635.0 936.0Q624.0 890.0 608.5 847.5Q593.0 805.0 578.0 768.0L598.0 760.0Q727.0 802.0 796.0 858.0Q865.0 914.0 887.0 971.5Q909.0 1029.0 895.5 1077.0Q882.0 1125.0 844.5 1152.5Q807.0 1180.0 757.5 1176.0Q708.0 1172.0 660.0 1124.0Q660.0 1093.0 657.0 1061.0Q654.0 1029.0 649.0 997.0L614.0 1011.0V1231.0L627.0 1227.0Q747.0 1279.0 810.5 1341.0Q874.0 1403.0 893.5 1463.0Q913.0 1523.0 899.5 1571.0Q886.0 1619.0 850.5 1645.5Q815.0 1672.0 768.0 1667.5Q721.0 1663.0 676.0 1616.0Q679.0 1528.0 660.0 1435.0Q641.0 1342.0 614.0 1265.0V1927.0Q614.0 1938.0 556.5 1968.5Q499.0 1999.0 397.0 1999.0H348.0V1388.0Q301.0 1533.0 231.5 1650.0Q162.0 1767.0 70.0 1847.0L41.0 1831.0Q81.0 1714.0 104.5 1560.5Q128.0 1407.0 131.0 1253.0ZM61.0 403.0Q169.0 419.0 240.0 446.0Q261.0 362.0 282.0 256.0Q303.0 150.0 320.0 49.0L668.0 162.0Q653.0 205.0 586.0 205.0Q524.0 281.0 453.0 353.5Q382.0 426.0 311.0 483.0Q374.0 524.0 394.5 572.5Q415.0 621.0 404.0 664.5Q393.0 708.0 358.5 735.5Q324.0 763.0 276.5 763.0Q229.0 763.0 178.0 725.0Q167.0 643.0 127.5 558.0Q88.0 473.0 45.0 413.0Z" fill="black"></path></svg>