<?xml version="1.0" standalone="no"?>
<!DOCTYPE svg PUBLIC "-//W3C//DTD SVG 1.1//EN" "http://www.w3.org/Graphics/SVG/1.1/DTD/svg11.dtd" >
<svg xmlns="http://www.w3.org/2000/svg" xmlns:svg="http://www.w3.org/2000/svg" xmlns:xlink="http://www.w3.org/1999/xlink" viewBox="0 0 2048 2048" style=""><path d="M123.0 1253.0 340.0 1296.0V1106.0L187.0 1163.0Q165.0 1203.0 127.0 1210.0L35.0 952.0L289.0 944.0Q337.0 841.0 384.5 728.5Q432.0 616.0 473.0 507.5Q514.0 399.0 545.0 309.0L879.0 424.0Q871.0 442.0 851.5 453.0Q832.0 464.0 797.0 461.0Q725.0 559.0 614.5 688.5Q504.0 818.0 385.0 938.0L627.0 925.0Q602.0 843.0 574.0 778.0L594.0 770.0Q719.0 811.0 786.5 865.0Q854.0 919.0 879.0 975.0V471.0L1182.0 583.0H1235.0V69.0L1598.0 98.0Q1595.0 118.0 1582.0 131.0Q1569.0 144.0 1532.0 151.0V334.0H1622.0L1755.0 141.0Q1755.0 141.0 1779.5 162.5Q1804.0 184.0 1842.0 217.5Q1880.0 251.0 1920.5 288.5Q1961.0 326.0 1993.0 358.0Q1984.0 391.0 1936.0 391.0H1532.0V583.0H1608.0L1743.0 430.0L1993.0 620.0Q1984.0 634.0 1966.0 644.5Q1948.0 655.0 1913.0 661.0V1267.0Q1913.0 1275.0 1849.0 1301.0Q1785.0 1327.0 1669.0 1327.0H1616.0V1237.0H1532.0V1511.0H1637.0L1772.0 1335.0Q1772.0 1335.0 1796.5 1354.5Q1821.0 1374.0 1859.5 1404.5Q1898.0 1435.0 1940.0 1470.0Q1982.0 1505.0 2015.0 1536.0Q2007.0 1569.0 1958.0 1569.0H1532.0V1941.0Q1531.0 1949.0 1467.5 1973.0Q1404.0 1997.0 1290.0 1997.0H1235.0V1569.0H891.0Q879.0 1616.0 843.5 1643.0Q808.0 1670.0 761.0 1665.5Q714.0 1661.0 668.0 1614.0Q671.0 1526.0 652.0 1433.0Q633.0 1340.0 606.0 1263.0V1927.0Q606.0 1938.0 548.5 1968.5Q491.0 1999.0 389.0 1999.0H340.0V1388.0Q293.0 1533.0 223.5 1650.0Q154.0 1767.0 62.0 1847.0L33.0 1831.0Q73.0 1714.0 96.5 1560.5Q120.0 1407.0 123.0 1253.0ZM1161.0 934.0V1179.0H1616.0V934.0ZM1161.0 876.0H1616.0V641.0H1161.0ZM619.0 1224.0Q765.0 1289.0 828.0 1366.5Q891.0 1444.0 895.0 1511.0H1235.0V1237.0H1161.0V1308.0Q1161.0 1322.0 1100.0 1348.0Q1039.0 1374.0 930.0 1374.0H879.0V1118.0Q850.0 1172.0 785.0 1184.5Q720.0 1197.0 656.0 1134.0Q656.0 1063.0 639.0 985.0L606.0 999.0V1229.0ZM53.0 403.0Q107.0 411.0 151.5 424.0Q196.0 437.0 232.0 452.0Q252.0 366.0 273.5 258.0Q295.0 150.0 312.0 49.0L660.0 162.0Q645.0 205.0 578.0 205.0Q515.0 283.0 442.0 356.5Q369.0 430.0 297.0 487.0Q371.0 539.0 384.0 599.0Q397.0 659.0 368.0 704.0Q339.0 749.0 285.0 759.5Q231.0 770.0 170.0 725.0Q159.0 643.0 119.5 558.0Q80.0 473.0 35.0 413.0Z" fill="black"></path></svg>