<?xml version="1.0" standalone="no"?>
<!DOCTYPE svg PUBLIC "-//W3C//DTD SVG 1.1//EN" "http://www.w3.org/Graphics/SVG/1.1/DTD/svg11.dtd" >
<svg xmlns="http://www.w3.org/2000/svg" xmlns:svg="http://www.w3.org/2000/svg" xmlns:xlink="http://www.w3.org/1999/xlink" viewBox="0 0 2048 2048" style=""><path d="M1726.5 49.0 1957.5 282.0Q1918.5 312.0 1822.5 276.0Q1691.5 297.0 1520.0 313.0Q1348.5 329.0 1163.0 338.0Q977.5 347.0 804.5 346.0L800.5 315.0Q919.5 294.0 1049.5 262.5Q1179.5 231.0 1305.0 194.5Q1430.5 158.0 1539.5 120.5Q1648.5 83.0 1726.5 49.0ZM894.5 360.0Q1022.5 386.0 1091.5 430.0Q1160.5 474.0 1183.0 523.5Q1205.5 573.0 1193.0 617.0Q1180.5 661.0 1144.0 687.5Q1107.5 714.0 1058.5 711.5Q1009.5 709.0 960.5 665.0Q961.5 587.0 936.5 507.0Q911.5 427.0 876.5 370.0ZM1220.5 342.0Q1340.5 379.0 1403.0 429.0Q1465.5 479.0 1483.0 530.5Q1500.5 582.0 1484.5 625.0Q1468.5 668.0 1431.0 691.5Q1393.5 715.0 1346.0 709.5Q1298.5 704.0 1253.5 657.0Q1262.5 577.0 1246.0 494.0Q1229.5 411.0 1199.5 350.0ZM120.5 1253.0 337.5 1296.0V1106.0L184.5 1163.0Q162.5 1203.0 124.5 1210.0L32.5 952.0L276.5 944.0Q329.5 846.0 382.5 735.0Q435.5 624.0 482.5 515.5Q529.5 407.0 562.5 317.0L892.5 438.0Q886.5 455.0 866.5 465.5Q846.5 476.0 810.5 473.0Q758.5 538.0 685.5 617.5Q612.5 697.0 529.0 780.0Q445.5 863.0 360.5 940.0L626.5 925.0Q601.5 836.0 571.5 768.0L591.5 760.0Q731.5 806.0 800.5 868.5Q869.5 931.0 886.5 991.0H1056.5Q1065.5 894.0 1068.5 792.0H829.5L812.5 735.0H1498.5Q1521.5 675.0 1545.0 600.0Q1568.5 525.0 1589.0 450.5Q1609.5 376.0 1623.5 315.0L1945.5 405.0Q1931.5 447.0 1865.5 444.0Q1807.5 507.0 1715.5 588.0Q1623.5 669.0 1537.5 735.0H1660.5L1781.5 581.0Q1781.5 581.0 1819.5 610.5Q1857.5 640.0 1909.0 681.5Q1960.5 723.0 2002.5 760.0Q1993.5 792.0 1945.5 792.0H1371.5Q1365.5 843.0 1359.0 892.5Q1352.5 942.0 1343.5 991.0H1650.5L1777.5 825.0Q1777.5 825.0 1817.0 856.5Q1856.5 888.0 1910.0 932.5Q1963.5 977.0 2006.5 1016.0Q2000.5 1048.0 1951.5 1048.0H1330.5Q1321.5 1093.0 1309.5 1136.0Q1297.5 1179.0 1283.5 1222.0H1537.5L1681.5 1083.0L1920.5 1288.0Q1903.5 1313.0 1840.5 1321.0Q1769.5 1482.0 1650.5 1607.0Q1733.5 1644.0 1826.0 1667.0Q1918.5 1690.0 2017.5 1706.0V1728.0Q1932.5 1753.0 1876.0 1823.0Q1819.5 1893.0 1793.5 1999.0Q1692.5 1951.0 1613.0 1894.5Q1533.5 1838.0 1470.5 1761.0Q1359.5 1838.0 1221.5 1896.0Q1083.5 1954.0 917.5 1990.0L907.5 1966.0Q1054.5 1900.0 1171.0 1809.0Q1287.5 1718.0 1373.5 1607.0Q1341.5 1540.0 1318.0 1459.0Q1294.5 1378.0 1275.5 1280.0H1265.5Q1188.5 1498.0 1048.5 1683.0Q908.5 1868.0 679.5 1999.0L665.5 1980.0Q842.5 1788.0 931.0 1545.5Q1019.5 1303.0 1050.5 1048.0H892.5Q889.5 1104.0 852.0 1140.0Q814.5 1176.0 760.5 1176.0Q706.5 1176.0 653.5 1124.0Q653.5 1090.0 650.0 1054.5Q646.5 1019.0 638.5 985.0L603.5 999.0V1218.0L616.5 1214.0Q736.5 1267.0 800.0 1328.5Q863.5 1390.0 883.0 1450.0Q902.5 1510.0 889.0 1558.5Q875.5 1607.0 840.0 1633.5Q804.5 1660.0 757.5 1655.0Q710.5 1650.0 665.5 1603.0Q668.5 1516.0 649.5 1423.0Q630.5 1330.0 603.5 1253.0V1927.0Q603.5 1938.0 546.0 1968.5Q488.5 1999.0 386.5 1999.0H337.5V1388.0Q290.5 1533.0 221.0 1650.0Q151.5 1767.0 59.5 1847.0L30.5 1831.0Q70.5 1714.0 94.0 1560.5Q117.5 1407.0 120.5 1253.0ZM1546.5 1280.0H1310.5Q1364.5 1403.0 1455.5 1485.0Q1483.5 1435.0 1506.5 1384.5Q1529.5 1334.0 1546.5 1280.0ZM57.5 403.0Q110.5 411.0 154.0 423.0Q197.5 435.0 233.5 450.0Q257.5 366.0 283.5 259.0Q309.5 152.0 329.5 49.0L675.5 168.0Q659.5 211.0 591.5 211.0Q525.5 288.0 450.5 359.0Q375.5 430.0 298.5 487.0Q359.5 528.0 379.0 575.5Q398.5 623.0 388.0 665.0Q377.5 707.0 345.5 733.5Q313.5 760.0 268.0 760.5Q222.5 761.0 173.5 725.0Q163.5 643.0 123.5 558.0Q83.5 473.0 38.5 413.0Z" fill="black"></path></svg>