<?xml version="1.0" standalone="no"?>
<!DOCTYPE svg PUBLIC "-//W3C//DTD SVG 1.1//EN" "http://www.w3.org/Graphics/SVG/1.1/DTD/svg11.dtd" >
<svg xmlns="http://www.w3.org/2000/svg" xmlns:svg="http://www.w3.org/2000/svg" xmlns:xlink="http://www.w3.org/1999/xlink" viewBox="0 0 2048 2048" style=""><path d="M779.5 225.0H1588.5L1727.5 47.0Q1727.5 47.0 1752.5 66.5Q1777.5 86.0 1817.0 117.5Q1856.5 149.0 1899.0 184.0Q1941.5 219.0 1977.5 250.0Q1968.5 282.0 1919.5 282.0H795.5ZM1620.5 319.0 1942.5 428.0Q1936.5 443.0 1919.5 452.0Q1902.5 461.0 1874.5 456.0Q1840.5 483.0 1774.5 530.0Q1708.5 577.0 1634.5 628.5Q1560.5 680.0 1502.5 719.0Q1669.5 753.0 1764.0 807.5Q1858.5 862.0 1894.5 922.0Q1930.5 982.0 1922.5 1035.5Q1914.5 1089.0 1875.5 1122.0Q1836.5 1155.0 1782.5 1155.0L1921.5 1269.0Q1912.5 1302.0 1866.5 1302.0H1514.5V1859.0H1635.5L1772.5 1677.0Q1772.5 1677.0 1797.5 1697.0Q1822.5 1717.0 1861.0 1749.0Q1899.5 1781.0 1941.5 1816.5Q1983.5 1852.0 2018.5 1884.0Q2009.5 1917.0 1960.5 1917.0H766.5L750.5 1859.0H1217.5V1302.0H912.5L895.5 1245.0H1571.5L1686.5 1095.0Q1672.5 1035.0 1639.0 965.5Q1605.5 896.0 1558.0 832.5Q1510.5 769.0 1452.5 727.0Q1480.5 668.0 1515.5 588.5Q1550.5 509.0 1577.5 438.0Q1563.5 459.0 1524.5 452.0Q1491.5 479.0 1429.5 527.0Q1367.5 575.0 1297.5 628.0Q1227.5 681.0 1172.5 721.0Q1327.5 757.0 1416.0 810.0Q1504.5 863.0 1540.5 921.0Q1576.5 979.0 1571.0 1031.0Q1565.5 1083.0 1532.0 1117.0Q1498.5 1151.0 1448.0 1157.0Q1397.5 1163.0 1344.5 1128.0Q1336.5 1069.0 1306.5 993.5Q1276.5 918.0 1229.5 847.0Q1182.5 776.0 1123.5 729.0Q1149.5 670.0 1180.5 591.5Q1211.5 513.0 1235.5 444.0Q1220.5 454.0 1190.5 450.0Q1158.5 478.0 1099.0 526.5Q1039.5 575.0 972.5 628.0Q905.5 681.0 850.5 721.0Q1001.5 758.0 1085.5 812.0Q1169.5 866.0 1201.5 924.0Q1233.5 982.0 1225.5 1033.5Q1217.5 1085.0 1181.5 1119.0Q1145.5 1153.0 1095.0 1157.5Q1044.5 1162.0 992.5 1126.0Q987.5 1068.0 963.5 993.5Q939.5 919.0 898.5 847.5Q857.5 776.0 803.5 727.0Q827.5 667.0 854.0 588.0Q880.5 509.0 902.5 435.5Q924.5 362.0 932.5 321.0L1246.5 415.0L1274.5 321.0L1585.5 420.0ZM119.5 1255.0 336.5 1298.0V1108.0L183.5 1165.0Q161.5 1205.0 123.5 1212.0L31.5 954.0L285.5 946.0Q333.5 843.0 381.0 730.5Q428.5 618.0 469.5 509.5Q510.5 401.0 541.5 311.0L869.5 436.0Q863.5 453.0 843.0 463.5Q822.5 474.0 787.5 471.0Q715.5 568.0 608.0 694.5Q500.5 821.0 381.5 940.0L623.5 927.0Q598.5 845.0 570.5 780.0L590.5 772.0Q719.5 814.0 788.5 870.0Q857.5 926.0 879.5 983.5Q901.5 1041.0 888.0 1089.0Q874.5 1137.0 837.0 1164.5Q799.5 1192.0 750.0 1188.0Q700.5 1184.0 652.5 1136.0Q652.5 1065.0 635.5 987.0L602.5 1001.0V1231.0L615.5 1226.0Q735.5 1279.0 799.0 1341.0Q862.5 1403.0 882.0 1463.0Q901.5 1523.0 888.0 1571.0Q874.5 1619.0 839.0 1645.5Q803.5 1672.0 756.5 1667.5Q709.5 1663.0 664.5 1616.0Q667.5 1528.0 648.5 1435.0Q629.5 1342.0 602.5 1265.0V1929.0Q602.5 1940.0 545.0 1970.5Q487.5 2001.0 385.5 2001.0H336.5V1390.0Q289.5 1535.0 220.0 1652.0Q150.5 1769.0 58.5 1849.0L29.5 1833.0Q69.5 1716.0 93.0 1562.5Q116.5 1409.0 119.5 1255.0ZM49.5 405.0Q103.5 413.0 148.0 426.0Q192.5 439.0 228.5 454.0Q248.5 368.0 270.0 260.0Q291.5 152.0 308.5 51.0L656.5 164.0Q641.5 207.0 574.5 207.0Q511.5 285.0 438.5 358.5Q365.5 432.0 293.5 489.0Q367.5 541.0 380.5 601.0Q393.5 661.0 364.5 706.0Q335.5 751.0 281.5 761.5Q227.5 772.0 166.5 727.0Q155.5 645.0 116.0 560.0Q76.5 475.0 31.5 415.0Z" fill="black"></path></svg>