<?xml version="1.0" standalone="no"?>
<!DOCTYPE svg PUBLIC "-//W3C//DTD SVG 1.1//EN" "http://www.w3.org/Graphics/SVG/1.1/DTD/svg11.dtd" >
<svg xmlns="http://www.w3.org/2000/svg" xmlns:svg="http://www.w3.org/2000/svg" xmlns:xlink="http://www.w3.org/1999/xlink" viewBox="0 0 2048 2048" style=""><path d="M138.5 1247.0 367.5 1300.0V1126.0L174.5 1186.0Q152.5 1227.0 111.5 1231.0L33.5 956.0Q125.5 959.0 303.5 956.0Q360.5 854.0 416.0 738.0Q471.5 622.0 520.5 509.0Q569.5 396.0 605.5 303.0L942.5 442.0Q925.5 484.0 858.5 475.0Q803.5 541.0 728.0 623.0Q652.5 705.0 566.0 791.0Q479.5 877.0 390.5 956.0L701.5 950.0Q669.5 864.0 629.5 796.0L648.5 786.0Q730.5 806.0 791.0 834.0Q851.5 862.0 891.5 895.0L879.5 852.0H1274.5V301.0H936.5L920.5 243.0H1567.5L1706.5 59.0Q1706.5 59.0 1732.5 79.5Q1758.5 100.0 1798.5 132.0Q1838.5 164.0 1882.0 200.5Q1925.5 237.0 1960.5 268.0Q1951.5 301.0 1903.5 301.0H1581.5V852.0H1620.5L1764.5 659.0Q1764.5 659.0 1790.5 680.0Q1816.5 701.0 1857.0 734.5Q1897.5 768.0 1941.0 805.5Q1984.5 843.0 2020.5 876.0Q2011.5 909.0 1962.5 909.0H1581.5V1644.0Q1581.5 1742.0 1556.0 1817.0Q1530.5 1892.0 1451.5 1938.5Q1372.5 1985.0 1211.5 1997.0Q1209.5 1923.0 1200.0 1869.5Q1190.5 1816.0 1166.5 1784.0Q1143.5 1751.0 1105.0 1726.0Q1066.5 1701.0 983.5 1685.0V1661.0Q983.5 1661.0 1015.0 1662.5Q1046.5 1664.0 1091.0 1666.5Q1135.5 1669.0 1176.0 1671.0Q1216.5 1673.0 1233.5 1673.0Q1274.5 1673.0 1274.5 1634.0V909.0H910.5Q967.5 961.0 983.0 1016.0Q998.5 1071.0 982.5 1117.0Q966.5 1163.0 928.5 1189.5Q890.5 1216.0 841.0 1212.0Q791.5 1208.0 740.5 1163.0Q740.5 1088.0 717.5 1007.0L633.5 1036.0V1261.0L643.5 1257.0Q778.5 1305.0 851.0 1367.0Q923.5 1429.0 947.0 1492.0Q970.5 1555.0 957.0 1607.5Q943.5 1660.0 905.0 1690.0Q866.5 1720.0 815.0 1716.5Q763.5 1713.0 711.5 1663.0Q714.5 1568.0 691.0 1469.0Q667.5 1370.0 633.5 1290.0V1925.0Q633.5 1937.0 576.0 1967.0Q518.5 1997.0 416.5 1997.0H367.5V1388.0Q310.5 1530.0 234.0 1643.0Q157.5 1756.0 62.5 1833.0L33.5 1818.0Q73.5 1705.0 101.0 1552.0Q128.5 1399.0 138.5 1247.0ZM43.5 407.0Q108.5 417.0 159.5 431.5Q210.5 446.0 250.5 465.0Q273.5 377.0 298.0 266.0Q322.5 155.0 340.5 51.0L699.5 172.0Q686.5 215.0 617.5 215.0Q549.5 295.0 471.5 370.5Q393.5 446.0 316.5 506.0Q386.5 559.0 398.0 620.0Q409.5 681.0 379.5 726.5Q349.5 772.0 293.5 782.5Q237.5 793.0 174.5 747.0Q162.5 660.0 118.0 570.5Q73.5 481.0 27.5 418.0Z" fill="black"></path></svg>