<?xml version="1.0" standalone="no"?>
<!DOCTYPE svg PUBLIC "-//W3C//DTD SVG 1.1//EN" "http://www.w3.org/Graphics/SVG/1.1/DTD/svg11.dtd" >
<svg xmlns="http://www.w3.org/2000/svg" xmlns:svg="http://www.w3.org/2000/svg" xmlns:xlink="http://www.w3.org/1999/xlink" viewBox="0 0 2048 2048" style=""><path d="M1204.0 657.0V870.0H1610.0V657.0ZM1204.0 600.0H1610.0V393.0H1204.0ZM1233.0 51.0 1651.0 110.0Q1646.0 140.0 1624.5 153.5Q1603.0 167.0 1569.0 170.0Q1520.0 205.0 1448.5 252.5Q1377.0 300.0 1319.0 336.0H1602.0L1731.0 190.0L1972.0 370.0Q1963.0 384.0 1946.5 394.5Q1930.0 405.0 1894.0 411.0V950.0Q1894.0 958.0 1832.0 981.5Q1770.0 1005.0 1661.0 1005.0H1610.0V928.0H1548.0V1134.0H1651.0L1761.0 1009.0L2005.0 1190.0Q1997.0 1199.0 1981.5 1209.5Q1966.0 1220.0 1939.0 1224.0V1556.0Q1939.0 1645.0 1921.0 1706.5Q1903.0 1768.0 1843.5 1803.5Q1784.0 1839.0 1661.0 1849.0Q1659.0 1786.0 1656.5 1739.0Q1654.0 1692.0 1645.0 1663.0Q1637.0 1634.0 1620.5 1614.0Q1604.0 1594.0 1567.0 1585.0V1558.0Q1567.0 1558.0 1595.5 1559.0Q1624.0 1560.0 1642.0 1560.0Q1659.0 1560.0 1664.0 1551.5Q1669.0 1543.0 1669.0 1530.0V1192.0H1548.0V1935.0Q1547.0 1944.0 1488.5 1969.5Q1430.0 1995.0 1325.0 1995.0H1274.0V1192.0H1178.0V1767.0Q1178.0 1779.0 1144.0 1798.5Q1110.0 1818.0 1058.0 1833.5Q1006.0 1849.0 950.0 1849.0H913.0V1028.0L1190.0 1134.0H1274.0V928.0H1204.0V964.0Q1204.0 977.0 1145.5 1000.5Q1087.0 1024.0 983.0 1024.0H934.0V227.0L1217.0 332.0Q1221.0 273.0 1226.0 193.5Q1231.0 114.0 1233.0 51.0ZM133.0 1253.0 350.0 1296.0V1106.0L197.0 1163.0Q175.0 1203.0 137.0 1210.0L45.0 952.0L299.0 944.0Q347.0 841.0 394.5 728.5Q442.0 616.0 483.0 507.5Q524.0 399.0 555.0 309.0L889.0 422.0Q875.0 464.0 807.0 459.0Q735.0 558.0 624.5 688.0Q514.0 818.0 395.0 938.0L637.0 925.0Q612.0 843.0 584.0 778.0L604.0 770.0Q733.0 812.0 802.0 868.0Q871.0 924.0 893.0 981.5Q915.0 1039.0 901.5 1087.0Q888.0 1135.0 850.5 1162.5Q813.0 1190.0 763.5 1186.0Q714.0 1182.0 666.0 1134.0Q666.0 1063.0 649.0 985.0L616.0 999.0V1229.0L629.0 1224.0Q749.0 1277.0 812.5 1339.0Q876.0 1401.0 895.5 1461.0Q915.0 1521.0 901.5 1569.0Q888.0 1617.0 852.5 1643.5Q817.0 1670.0 770.0 1665.5Q723.0 1661.0 678.0 1614.0Q681.0 1526.0 662.0 1433.0Q643.0 1340.0 616.0 1263.0V1927.0Q616.0 1938.0 558.5 1968.5Q501.0 1999.0 399.0 1999.0H350.0V1388.0Q303.0 1533.0 233.5 1650.0Q164.0 1767.0 72.0 1847.0L43.0 1831.0Q83.0 1714.0 106.5 1560.5Q130.0 1407.0 133.0 1253.0ZM63.0 403.0Q117.0 411.0 161.5 424.0Q206.0 437.0 242.0 452.0Q262.0 366.0 283.5 258.0Q305.0 150.0 322.0 49.0L670.0 162.0Q655.0 205.0 588.0 205.0Q525.0 283.0 452.0 356.5Q379.0 430.0 307.0 487.0Q381.0 539.0 394.0 599.0Q407.0 659.0 378.0 704.0Q349.0 749.0 295.0 759.5Q241.0 770.0 180.0 725.0Q169.0 643.0 129.5 558.0Q90.0 473.0 45.0 413.0Z" fill="black"></path></svg>