<?xml version="1.0" standalone="no"?>
<!DOCTYPE svg PUBLIC "-//W3C//DTD SVG 1.1//EN" "http://www.w3.org/Graphics/SVG/1.1/DTD/svg11.dtd" >
<svg xmlns="http://www.w3.org/2000/svg" xmlns:svg="http://www.w3.org/2000/svg" xmlns:xlink="http://www.w3.org/1999/xlink" viewBox="0 0 2048 2048" style=""><path d="M746.5 1857.0H1207.5V348.0H858.5L842.5 291.0H1565.5L1710.5 100.0Q1710.5 100.0 1737.0 121.0Q1763.5 142.0 1804.5 175.5Q1845.5 209.0 1890.0 246.0Q1934.5 283.0 1970.5 315.0Q1962.5 348.0 1913.5 348.0H1514.5V1857.0H1602.5L1751.5 1657.0Q1751.5 1657.0 1779.0 1679.0Q1806.5 1701.0 1849.0 1735.5Q1891.5 1770.0 1938.0 1809.0Q1984.5 1848.0 2022.5 1882.0Q2017.5 1899.0 2001.0 1907.0Q1984.5 1915.0 1962.5 1915.0H762.5ZM43.5 368.0Q106.5 379.0 157.5 394.0Q208.5 409.0 248.5 428.0Q277.5 348.0 307.0 248.0Q336.5 148.0 359.5 51.0L713.5 188.0Q696.5 230.0 627.5 227.0Q558.5 299.0 479.5 361.0Q400.5 423.0 322.5 471.0Q383.5 517.0 403.5 568.0Q423.5 619.0 412.5 664.0Q401.5 709.0 368.5 737.0Q335.5 765.0 288.0 766.0Q240.5 767.0 189.5 729.0Q173.5 638.0 125.5 543.0Q77.5 448.0 25.5 379.0ZM154.5 1231.0 365.5 1280.0V1095.0L181.5 1163.0Q162.5 1203.0 121.5 1210.0L37.5 940.0L307.5 930.0Q394.5 782.0 468.0 614.5Q541.5 447.0 584.5 309.0L924.5 448.0Q916.5 465.0 897.0 475.5Q877.5 486.0 842.5 481.0Q770.5 581.0 662.5 697.5Q554.5 814.0 426.5 923.0L690.5 905.0Q677.5 864.0 662.0 824.5Q646.5 785.0 629.5 751.0L647.5 741.0Q787.5 783.0 864.0 841.5Q940.5 900.0 967.5 961.0Q994.5 1022.0 982.5 1074.5Q970.5 1127.0 933.0 1158.0Q895.5 1189.0 843.5 1187.0Q791.5 1185.0 738.5 1136.0Q736.5 1093.0 728.5 1049.0Q720.5 1005.0 709.5 962.0L631.5 993.0V1200.0L645.5 1194.0Q783.5 1244.0 858.0 1308.0Q932.5 1372.0 958.0 1437.0Q983.5 1502.0 971.0 1556.0Q958.5 1610.0 920.5 1641.5Q882.5 1673.0 830.5 1669.5Q778.5 1666.0 725.5 1616.0Q725.5 1514.0 697.0 1408.0Q668.5 1302.0 631.5 1216.0V1925.0Q631.5 1937.0 573.5 1967.0Q515.5 1997.0 414.5 1997.0H365.5V1419.0Q308.5 1554.0 233.0 1665.0Q157.5 1776.0 64.5 1853.0L35.5 1837.0Q80.5 1719.0 112.0 1556.0Q143.5 1393.0 154.5 1231.0Z" fill="black"></path></svg>