<?xml version="1.0" standalone="no"?>
<!DOCTYPE svg PUBLIC "-//W3C//DTD SVG 1.1//EN" "http://www.w3.org/Graphics/SVG/1.1/DTD/svg11.dtd" >
<svg xmlns="http://www.w3.org/2000/svg" xmlns:svg="http://www.w3.org/2000/svg" xmlns:xlink="http://www.w3.org/1999/xlink" viewBox="0 0 2048 2048" style=""><path d="M1073.0 792.0Q1223.0 845.0 1306.0 913.0Q1389.0 981.0 1419.5 1051.0Q1450.0 1121.0 1439.5 1180.5Q1429.0 1240.0 1390.5 1275.0Q1352.0 1310.0 1297.0 1308.5Q1242.0 1307.0 1184.0 1255.0Q1178.0 1138.0 1138.5 1018.5Q1099.0 899.0 1055.0 803.0ZM148.0 1216.0 371.0 1267.0V1091.0L178.0 1161.0Q157.0 1201.0 117.0 1208.0L41.0 938.0Q86.0 938.0 156.0 936.0Q226.0 934.0 314.0 930.0Q341.0 882.0 368.0 830.5Q395.0 779.0 420.0 725.0Q389.0 757.0 339.0 763.0Q289.0 769.0 234.0 731.0Q218.0 642.0 168.0 550.0Q118.0 458.0 68.0 395.0L84.0 383.0Q199.0 398.0 273.0 428.0Q294.0 346.0 314.5 247.0Q335.0 148.0 350.0 51.0L711.0 168.0Q697.0 214.0 629.0 211.0Q504.0 361.0 354.0 469.0Q414.0 509.0 438.0 556.0Q462.0 603.0 459.0 645.0Q539.0 470.0 586.0 321.0L932.0 448.0Q924.0 465.0 904.5 475.5Q885.0 486.0 850.0 483.0Q807.0 537.0 751.0 598.5Q695.0 660.0 629.0 723.0Q701.0 744.0 756.5 771.0Q812.0 798.0 852.0 829.0Q914.0 674.0 963.5 468.5Q1013.0 263.0 1034.0 57.0L1405.0 172.0Q1389.0 215.0 1323.0 215.0Q1294.0 292.0 1261.5 362.5Q1229.0 433.0 1192.0 497.0H1596.0L1753.0 338.0L2009.0 565.0Q1995.0 580.0 1972.5 591.5Q1950.0 603.0 1913.0 608.0Q1901.0 1007.0 1880.0 1266.5Q1859.0 1526.0 1820.0 1672.5Q1781.0 1819.0 1714.0 1882.0Q1650.0 1943.0 1571.5 1970.0Q1493.0 1997.0 1368.0 1997.0Q1370.0 1924.0 1358.0 1871.0Q1346.0 1818.0 1317.0 1788.0Q1250.0 1714.0 1079.0 1677.0V1655.0Q1135.0 1659.0 1199.0 1662.5Q1263.0 1666.0 1318.0 1668.5Q1373.0 1671.0 1403.0 1671.0Q1431.0 1671.0 1448.5 1664.5Q1466.0 1658.0 1483.0 1644.0Q1543.0 1594.0 1573.0 1316.5Q1603.0 1039.0 1618.0 555.0H1157.0Q1042.0 738.0 893.0 866.0Q961.0 934.0 969.0 1001.5Q977.0 1069.0 943.5 1115.5Q910.0 1162.0 853.0 1169.0Q796.0 1176.0 733.0 1124.0Q730.0 1084.0 721.5 1044.0Q713.0 1004.0 701.0 964.0L637.0 989.0V1192.0Q772.0 1237.0 845.5 1296.5Q919.0 1356.0 944.0 1418.0Q969.0 1480.0 956.5 1532.0Q944.0 1584.0 906.0 1614.0Q868.0 1644.0 816.5 1641.0Q765.0 1638.0 713.0 1589.0Q713.0 1505.0 691.0 1416.5Q669.0 1328.0 637.0 1253.0V1923.0Q637.0 1934.0 579.0 1964.5Q521.0 1995.0 420.0 1995.0H371.0V1374.0Q314.0 1514.0 237.5 1628.0Q161.0 1742.0 68.0 1820.0L39.0 1804.0Q81.0 1689.0 109.5 1531.0Q138.0 1373.0 148.0 1216.0ZM400.0 928.0 684.0 913.0Q667.0 867.0 647.5 824.5Q628.0 782.0 608.0 743.0Q507.0 842.0 400.0 928.0Z" fill="black"></path></svg>