<?xml version="1.0" standalone="no"?>
<!DOCTYPE svg PUBLIC "-//W3C//DTD SVG 1.1//EN" "http://www.w3.org/Graphics/SVG/1.1/DTD/svg11.dtd" >
<svg xmlns="http://www.w3.org/2000/svg" xmlns:svg="http://www.w3.org/2000/svg" xmlns:xlink="http://www.w3.org/1999/xlink" viewBox="0 0 2048 2048" style=""><path d="M1654.5 1253.0Q1795.5 1314.0 1871.5 1387.5Q1947.5 1461.0 1972.0 1533.5Q1996.5 1606.0 1982.0 1665.5Q1967.5 1725.0 1926.5 1758.5Q1885.5 1792.0 1830.5 1787.5Q1775.5 1783.0 1719.5 1726.0Q1724.5 1608.0 1697.5 1485.5Q1670.5 1363.0 1633.5 1261.0ZM998.5 405.0Q1123.5 417.0 1203.5 452.0Q1231.5 369.0 1259.5 261.5Q1287.5 154.0 1310.5 51.0L1674.5 186.0Q1657.5 230.0 1590.5 227.0Q1518.5 301.0 1436.5 368.0Q1354.5 435.0 1273.5 489.0Q1333.5 530.0 1353.5 577.5Q1373.5 625.0 1363.0 668.5Q1352.5 712.0 1319.5 740.0Q1286.5 768.0 1239.5 769.5Q1192.5 771.0 1140.5 735.0Q1124.5 651.0 1078.0 564.0Q1031.5 477.0 982.5 416.0ZM157.5 1247.0 386.5 1300.0V1126.0L193.5 1186.0Q171.5 1227.0 130.5 1231.0L52.5 956.0Q144.5 959.0 322.5 956.0Q379.5 854.0 435.0 738.0Q490.5 622.0 539.5 509.0Q588.5 396.0 624.5 303.0L968.5 432.0Q960.5 450.0 941.0 460.5Q921.5 471.0 884.5 467.0Q828.5 534.0 752.0 617.0Q675.5 700.0 587.0 787.5Q498.5 875.0 406.5 956.0L720.5 950.0Q688.5 864.0 648.5 796.0L667.5 786.0Q820.5 825.0 898.0 885.5Q975.5 946.0 998.5 1007.0L980.5 948.0H1252.5Q1317.5 845.0 1382.0 730.0Q1446.5 615.0 1503.0 504.0Q1559.5 393.0 1600.5 301.0L1947.5 448.0Q1939.5 465.0 1918.5 475.0Q1897.5 485.0 1861.5 479.0Q1800.5 545.0 1717.5 624.0Q1634.5 703.0 1539.5 786.0Q1444.5 869.0 1346.5 946.0L1699.5 940.0Q1682.5 895.0 1661.5 855.5Q1640.5 816.0 1619.5 782.0L1637.5 772.0Q1782.5 803.0 1863.0 854.5Q1943.5 906.0 1972.5 965.0Q2001.5 1024.0 1991.0 1076.0Q1980.5 1128.0 1942.5 1160.5Q1904.5 1193.0 1851.5 1192.5Q1798.5 1192.0 1742.5 1145.0Q1740.5 1109.0 1734.5 1073.5Q1728.5 1038.0 1719.5 1001.0L1617.5 1036.0V1925.0Q1617.5 1936.0 1558.5 1966.5Q1499.5 1997.0 1396.5 1997.0H1344.5V1372.0L1336.5 1374.0Q1273.5 1524.0 1185.5 1640.5Q1097.5 1757.0 988.5 1831.0L961.5 1814.0Q1009.5 1705.0 1044.0 1553.5Q1078.5 1402.0 1090.5 1247.0L1344.5 1310.0V1120.0L1127.5 1184.0Q1117.5 1203.0 1100.0 1214.0Q1082.5 1225.0 1064.5 1229.0L1004.5 1030.0Q1017.5 1081.0 999.5 1124.5Q981.5 1168.0 943.5 1192.0Q905.5 1216.0 857.0 1211.5Q808.5 1207.0 759.5 1163.0Q759.5 1088.0 736.5 1007.0L652.5 1036.0V1261.0L662.5 1257.0Q797.5 1305.0 870.0 1367.0Q942.5 1429.0 966.0 1492.0Q989.5 1555.0 976.0 1607.5Q962.5 1660.0 924.0 1690.0Q885.5 1720.0 834.0 1716.5Q782.5 1713.0 730.5 1663.0Q733.5 1568.0 710.0 1469.0Q686.5 1370.0 652.5 1290.0V1925.0Q652.5 1937.0 595.0 1967.0Q537.5 1997.0 435.5 1997.0H386.5V1388.0Q329.5 1530.0 253.0 1643.0Q176.5 1756.0 81.5 1833.0L52.5 1818.0Q92.5 1705.0 120.0 1552.0Q147.5 1399.0 157.5 1247.0ZM62.5 407.0Q127.5 417.0 178.5 431.5Q229.5 446.0 269.5 465.0Q292.5 377.0 317.0 266.0Q341.5 155.0 359.5 51.0L718.5 172.0Q705.5 215.0 636.5 215.0Q568.5 295.0 490.5 370.5Q412.5 446.0 335.5 506.0Q405.5 559.0 417.0 620.0Q428.5 681.0 398.5 726.5Q368.5 772.0 312.5 782.5Q256.5 793.0 193.5 747.0Q181.5 660.0 137.0 570.5Q92.5 481.0 46.5 418.0Z" fill="black"></path></svg>