<?xml version="1.0" standalone="no"?>
<!DOCTYPE svg PUBLIC "-//W3C//DTD SVG 1.1//EN" "http://www.w3.org/Graphics/SVG/1.1/DTD/svg11.dtd" >
<svg xmlns="http://www.w3.org/2000/svg" xmlns:svg="http://www.w3.org/2000/svg" xmlns:xlink="http://www.w3.org/1999/xlink" viewBox="0 0 2048 2048" style=""><path d="M1550.0 1437.0Q1712.0 1463.0 1806.5 1514.5Q1901.0 1566.0 1941.0 1628.5Q1981.0 1691.0 1978.0 1749.0Q1975.0 1807.0 1941.0 1846.5Q1907.0 1886.0 1852.0 1891.5Q1797.0 1897.0 1735.0 1853.0Q1716.0 1746.0 1658.0 1637.0Q1600.0 1528.0 1534.0 1450.0ZM797.0 1300.0H1624.0L1755.0 1138.0Q1755.0 1138.0 1796.0 1168.5Q1837.0 1199.0 1893.5 1242.5Q1950.0 1286.0 1995.0 1325.0Q1989.0 1358.0 1938.0 1358.0H1503.0V1700.0Q1503.0 1785.0 1483.0 1846.5Q1463.0 1908.0 1397.5 1945.0Q1332.0 1982.0 1198.0 1992.0Q1197.0 1934.0 1190.5 1891.0Q1184.0 1848.0 1167.0 1820.0Q1152.0 1796.0 1124.0 1775.5Q1096.0 1755.0 1034.0 1745.0V1718.0Q1034.0 1718.0 1069.5 1720.0Q1105.0 1722.0 1146.0 1724.0Q1187.0 1726.0 1204.0 1726.0Q1224.0 1726.0 1230.5 1717.5Q1237.0 1709.0 1237.0 1696.0V1552.0Q1217.0 1573.0 1174.0 1566.0Q1080.0 1689.0 961.5 1772.5Q843.0 1856.0 717.0 1906.0L696.0 1886.0Q770.0 1801.0 839.0 1671.0Q908.0 1541.0 952.0 1396.0L1237.0 1523.0V1358.0H813.0ZM115.0 1253.0 320.0 1292.0V1116.0L189.0 1169.0Q171.0 1207.0 129.0 1214.0L41.0 952.0L246.0 946.0Q293.0 845.0 339.5 731.5Q386.0 618.0 426.0 508.5Q466.0 399.0 494.0 309.0L811.0 428.0V362.0L1077.0 463.0H1122.0V282.0H801.0L784.0 225.0H1641.0L1774.0 53.0Q1774.0 53.0 1815.0 85.5Q1856.0 118.0 1911.5 164.0Q1967.0 210.0 2011.0 250.0Q2005.0 282.0 1954.0 282.0H1600.0V463.0H1659.0L1776.0 332.0L1999.0 497.0Q1990.0 511.0 1973.5 520.5Q1957.0 530.0 1923.0 536.0V938.0Q1923.0 944.0 1875.0 963.0Q1827.0 982.0 1743.0 987.0L1872.0 1091.0Q1866.0 1124.0 1817.0 1124.0H930.0L914.0 1067.0H1522.0L1647.0 913.0L1667.0 930.0V899.0H1057.0V968.0Q1057.0 981.0 1005.5 1001.5Q954.0 1022.0 862.0 1024.0Q868.0 1084.0 834.0 1125.5Q800.0 1167.0 746.0 1170.5Q692.0 1174.0 639.0 1122.0Q641.0 1088.0 637.0 1053.5Q633.0 1019.0 627.0 985.0L576.0 1007.0V1229.0L588.0 1224.0Q726.0 1287.0 787.5 1360.5Q849.0 1434.0 853.5 1500.5Q858.0 1567.0 824.5 1610.0Q791.0 1653.0 738.0 1656.0Q685.0 1659.0 633.0 1605.0Q636.0 1521.0 618.0 1430.0Q600.0 1339.0 576.0 1263.0V1929.0Q576.0 1940.0 519.5 1969.5Q463.0 1999.0 367.0 1999.0H320.0V1413.0Q277.0 1547.0 215.0 1657.5Q153.0 1768.0 70.0 1845.0L39.0 1829.0Q74.0 1710.0 93.5 1557.0Q113.0 1404.0 115.0 1253.0ZM1327.0 282.0V463.0H1393.0V282.0ZM1057.0 841.0H1122.0V520.0H1057.0ZM1667.0 841.0V520.0H1600.0V841.0ZM1327.0 520.0V841.0H1393.0V520.0ZM582.0 760.0Q666.0 792.0 722.5 829.5Q779.0 867.0 811.0 907.0V444.0Q793.0 472.0 741.0 467.0Q669.0 565.0 559.5 693.5Q450.0 822.0 330.0 942.0L614.0 928.0Q604.0 883.0 589.5 843.0Q575.0 803.0 561.0 768.0ZM55.0 389.0Q149.0 406.0 215.0 438.0Q234.0 355.0 251.5 251.0Q269.0 147.0 283.0 49.0L629.0 155.0Q616.0 198.0 547.0 198.0Q424.0 356.0 281.0 477.0Q349.0 528.0 358.0 584.5Q367.0 641.0 336.0 682.0Q305.0 723.0 251.5 731.0Q198.0 739.0 141.0 692.0Q138.0 615.0 106.0 535.5Q74.0 456.0 37.0 399.0Z" fill="black"></path></svg>