<?xml version="1.0" standalone="no"?>
<!DOCTYPE svg PUBLIC "-//W3C//DTD SVG 1.1//EN" "http://www.w3.org/Graphics/SVG/1.1/DTD/svg11.dtd" >
<svg xmlns="http://www.w3.org/2000/svg" xmlns:svg="http://www.w3.org/2000/svg" xmlns:xlink="http://www.w3.org/1999/xlink" viewBox="0 0 2048 2048" style=""><path d="M1239.5 1595.0Q1421.5 1574.0 1544.0 1595.5Q1666.5 1617.0 1737.0 1663.0Q1807.5 1709.0 1833.0 1764.5Q1858.5 1820.0 1845.0 1869.0Q1831.5 1918.0 1786.5 1944.5Q1741.5 1971.0 1672.5 1958.0Q1619.5 1898.0 1542.5 1833.5Q1465.5 1769.0 1382.0 1710.5Q1298.5 1652.0 1225.5 1614.0ZM297.5 164.0 330.5 162.0Q381.5 292.0 349.5 379.5Q317.5 467.0 254.5 491.0Q210.5 510.0 164.0 496.0Q117.5 482.0 105.5 434.0Q94.5 388.0 120.0 356.0Q145.5 324.0 185.5 307.0Q229.5 293.0 265.0 253.0Q300.5 213.0 297.5 164.0ZM1147.5 141.0 1180.5 139.0Q1232.5 270.0 1204.0 358.5Q1175.5 447.0 1112.5 473.0Q1071.5 490.0 1025.5 476.5Q979.5 463.0 965.5 416.0Q954.5 371.0 979.0 338.5Q1003.5 306.0 1045.5 291.0Q1086.5 274.0 1119.5 232.0Q1152.5 190.0 1147.5 141.0ZM1248.5 878.0 1563.5 1069.0Q1543.5 1104.0 1473.5 1087.0Q1434.5 1113.0 1383.5 1144.5Q1332.5 1176.0 1272.5 1208.0Q1451.5 1197.0 1570.0 1225.5Q1688.5 1254.0 1754.5 1304.0Q1820.5 1354.0 1841.5 1410.5Q1862.5 1467.0 1846.0 1514.5Q1829.5 1562.0 1783.5 1585.0Q1737.5 1608.0 1670.5 1589.0Q1639.5 1546.0 1595.0 1499.5Q1550.5 1453.0 1500.5 1409.0Q1432.5 1424.0 1355.0 1440.5Q1277.5 1457.0 1188.5 1474.0V1945.0Q1188.5 1953.0 1126.0 1975.0Q1063.5 1997.0 951.5 1997.0H897.5V1526.0L609.5 1575.0L867.5 1743.0Q857.5 1756.0 841.0 1762.5Q824.5 1769.0 789.5 1763.0Q678.5 1837.0 515.5 1895.5Q352.5 1954.0 177.5 1980.0L162.5 1958.0Q238.5 1910.0 312.5 1846.5Q386.5 1783.0 448.5 1715.0Q510.5 1647.0 551.5 1585.0L400.5 1609.0Q389.5 1629.0 372.5 1640.0Q355.5 1651.0 338.5 1655.0L189.5 1360.0Q284.5 1363.0 431.5 1363.5Q578.5 1364.0 764.5 1364.0Q858.5 1291.0 952.5 1202.5Q1046.5 1114.0 1124.5 1028.5Q1202.5 943.0 1248.5 878.0ZM1438.5 1358.0Q1389.5 1319.0 1341.0 1285.0Q1292.5 1251.0 1248.5 1224.0L1254.5 1216.0Q1182.5 1255.0 1099.5 1292.0Q1016.5 1329.0 928.5 1362.0ZM1663.5 139.0 1934.5 270.0Q1924.5 285.0 1904.5 295.0Q1884.5 305.0 1850.5 301.0Q1804.5 332.0 1753.5 360.5Q1702.5 389.0 1653.5 413.0Q1748.5 434.0 1800.5 475.0Q1852.5 516.0 1868.5 563.5Q1884.5 611.0 1870.0 651.5Q1855.5 692.0 1817.5 712.0L1979.5 866.0Q1966.5 880.0 1950.0 885.0Q1933.5 890.0 1899.5 893.0Q1834.5 931.0 1738.0 974.5Q1641.5 1018.0 1561.5 1042.0L1549.5 1032.0Q1558.5 990.0 1568.0 934.0Q1577.5 878.0 1583.5 829.0H914.5L1147.5 940.0Q1141.5 955.0 1121.5 964.5Q1101.5 974.0 1067.5 966.0Q1023.5 993.0 949.5 1024.5Q875.5 1056.0 795.5 1085.0Q835.5 1125.0 839.5 1171.5Q843.5 1218.0 819.5 1255.0Q795.5 1292.0 749.5 1307.5Q703.5 1323.0 643.5 1300.0Q608.5 1227.0 538.0 1151.5Q467.5 1076.0 404.5 1030.0L418.5 1016.0Q520.5 1002.0 593.5 1009.0Q666.5 1016.0 717.5 1036.0Q742.5 984.0 766.5 929.0Q790.5 874.0 807.5 829.0H443.5Q447.5 940.0 403.5 1014.0Q359.5 1088.0 291.5 1114.0Q230.5 1138.0 165.0 1113.5Q99.5 1089.0 82.5 1020.0Q68.5 952.0 104.5 907.5Q140.5 863.0 195.5 841.0Q236.5 829.0 278.5 802.5Q320.5 776.0 349.5 738.0Q378.5 700.0 381.5 655.0H406.5Q427.5 717.0 437.5 772.0H1569.5L1670.5 672.0Q1630.5 618.0 1575.5 565.0Q1520.5 512.0 1465.5 471.0Q1403.5 555.0 1271.5 622.5Q1139.5 690.0 893.5 741.0L877.5 715.0Q1036.5 654.0 1122.5 583.5Q1208.5 513.0 1245.0 431.0Q1281.5 349.0 1288.5 254.5Q1295.5 160.0 1297.5 51.0L1624.5 78.0Q1618.5 120.0 1559.5 129.0Q1553.5 203.0 1543.5 271.0Q1533.5 339.0 1506.5 399.0L1561.5 401.0Q1584.5 349.0 1612.0 279.5Q1639.5 210.0 1663.5 139.0ZM791.5 141.0 1016.5 231.0Q1009.5 248.0 990.5 259.0Q971.5 270.0 938.5 268.0Q898.5 305.0 853.0 341.5Q807.5 378.0 764.5 405.0Q861.5 429.0 905.0 472.0Q948.5 515.0 950.5 562.0Q952.5 609.0 923.5 644.0Q894.5 679.0 845.5 687.5Q796.5 696.0 740.5 661.0Q726.5 606.0 694.5 547.0Q662.5 488.0 627.5 442.0Q576.5 536.0 460.0 612.0Q343.5 688.0 111.5 743.0L93.5 715.0Q229.5 653.0 303.5 582.0Q377.5 511.0 408.5 429.5Q439.5 348.0 445.5 253.5Q451.5 159.0 453.5 51.0L762.5 76.0Q759.5 96.0 744.5 110.0Q729.5 124.0 697.5 129.0Q692.5 199.0 684.0 264.0Q675.5 329.0 652.5 389.0L709.5 395.0Q727.5 346.0 749.5 278.0Q771.5 210.0 791.5 141.0Z" fill="black"></path></svg>