<?xml version="1.0" standalone="no"?>
<!DOCTYPE svg PUBLIC "-//W3C//DTD SVG 1.1//EN" "http://www.w3.org/Graphics/SVG/1.1/DTD/svg11.dtd" >
<svg xmlns="http://www.w3.org/2000/svg" xmlns:svg="http://www.w3.org/2000/svg" xmlns:xlink="http://www.w3.org/1999/xlink" viewBox="0 0 2048 2048" style=""><path d="M187.0 589.5 452.0 611.5Q449.0 628.5 437.0 639.5Q425.0 650.5 394.0 656.5V767.5L446.0 685.5Q446.0 685.5 483.5 724.0Q521.0 762.5 558.0 802.5H626.0V586.5L902.0 611.5Q901.0 628.5 888.5 641.5Q876.0 654.5 845.0 658.5V789.5L915.0 681.5L982.0 748.5L1056.0 826.5Q1047.0 859.5 1005.0 859.5H845.0V1058.5L925.0 937.5Q925.0 937.5 944.5 956.5Q964.0 975.5 992.5 1005.0Q1021.0 1034.5 1048.0 1064.5Q1069.0 996.5 1086.0 925.5Q1103.0 854.5 1115.0 783.5L1222.0 816.5V582.5Q1125.0 695.5 1011.0 765.5L982.0 748.5Q1019.0 673.5 1052.0 565.5Q1085.0 457.5 1105.0 347.5L1222.0 386.5V279.5H970.0L951.0 222.5H1201.0L1306.0 103.5L1459.0 222.5H1658.0L1764.0 101.5L1994.0 275.5Q1974.0 302.5 1918.0 314.5V1336.5Q1918.0 1391.5 1911.0 1436.0Q1904.0 1480.5 1881.0 1514.5L1889.0 1668.5Q1958.0 1686.5 1984.0 1711.5Q2010.0 1736.5 2010.0 1776.5Q2010.0 1822.5 1984.0 1853.0Q1958.0 1883.5 1886.5 1902.0Q1815.0 1920.5 1681.0 1928.5Q1547.0 1936.5 1332.0 1936.5H958.0Q812.0 1936.5 729.5 1921.0Q647.0 1905.5 613.0 1858.5Q579.0 1811.5 579.0 1717.5V1318.5H507.0Q498.0 1478.5 452.0 1607.5Q406.0 1736.5 309.0 1833.0Q212.0 1929.5 48.0 1993.5L38.0 1969.5Q136.0 1882.5 180.5 1781.0Q225.0 1679.5 235.0 1564.0Q245.0 1448.5 241.0 1318.5H77.0L60.0 1260.5H726.0L820.0 1125.5H478.0L462.0 1068.5H626.0V859.5H394.0V972.5L560.0 945.5L566.0 969.5Q508.0 1008.5 419.0 1063.5Q330.0 1118.5 206.0 1189.5Q191.0 1227.5 157.0 1238.5L40.0 1023.5L187.0 1002.5V859.5H58.0L42.0 802.5H187.0ZM1222.0 1049.5Q1138.0 1170.5 1037.0 1258.5L1064.0 1285.5Q1055.0 1318.5 1007.0 1318.5H841.0V1660.5Q841.0 1684.5 861.5 1693.0Q882.0 1701.5 964.0 1701.5H1357.0Q1447.0 1701.5 1533.0 1701.0Q1619.0 1700.5 1660.0 1697.5Q1720.0 1694.5 1750.0 1670.5Q1765.0 1655.5 1785.0 1630.0Q1805.0 1604.5 1828.0 1565.5Q1764.0 1605.5 1637.0 1617.5Q1636.0 1558.5 1629.0 1514.0Q1622.0 1469.5 1607.0 1443.5Q1590.0 1415.5 1561.5 1395.5Q1533.0 1375.5 1478.0 1365.5V1336.5Q1478.0 1336.5 1512.5 1338.5Q1547.0 1340.5 1587.0 1342.5Q1627.0 1344.5 1644.0 1344.5Q1665.0 1344.5 1671.5 1335.5Q1678.0 1326.5 1678.0 1307.5V1010.5Q1631.0 1087.5 1576.5 1153.5Q1522.0 1219.5 1463.0 1268.5L1453.0 1262.5V1371.5Q1453.0 1453.5 1435.5 1511.0Q1418.0 1568.5 1360.0 1602.5Q1302.0 1636.5 1181.0 1647.5Q1179.0 1591.5 1172.0 1547.0Q1165.0 1502.5 1150.0 1477.5Q1133.0 1450.5 1105.5 1431.5Q1078.0 1412.5 1023.0 1402.5V1373.5Q1023.0 1373.5 1057.0 1375.5Q1091.0 1377.5 1131.0 1379.5Q1171.0 1381.5 1187.0 1381.5Q1208.0 1381.5 1215.0 1372.5Q1222.0 1363.5 1222.0 1344.5ZM1539.0 347.5 1678.0 388.5V279.5H1523.0Q1504.0 302.5 1453.0 314.5V709.5Q1479.0 634.5 1502.0 538.5Q1525.0 442.5 1539.0 347.5ZM1543.0 783.5 1678.0 820.5V560.5Q1577.0 696.5 1463.0 773.5L1453.0 767.5V1195.5Q1482.0 1109.5 1505.5 1000.5Q1529.0 891.5 1543.0 783.5ZM994.0 1219.5 1029.0 1125.5H1023.0H892.0ZM372.0 54.5 695.0 81.5Q692.0 101.5 679.5 114.0Q667.0 126.5 630.0 132.5V287.5H640.0L755.0 122.5Q755.0 122.5 791.0 154.0Q827.0 185.5 876.0 230.0Q925.0 274.5 962.0 312.5Q959.0 329.5 943.5 337.5Q928.0 345.5 908.0 345.5H630.0V519.5H697.0L818.0 363.5Q818.0 363.5 856.0 393.5Q894.0 423.5 945.0 465.5Q996.0 507.5 1037.0 543.5Q1028.0 576.5 982.0 576.5H87.0L71.0 519.5H372.0V345.5H134.0L118.0 287.5H372.0Z" fill="black"></path></svg>