<?xml version="1.0" standalone="no"?>
<!DOCTYPE svg PUBLIC "-//W3C//DTD SVG 1.1//EN" "http://www.w3.org/Graphics/SVG/1.1/DTD/svg11.dtd" >
<svg xmlns="http://www.w3.org/2000/svg" xmlns:svg="http://www.w3.org/2000/svg" xmlns:xlink="http://www.w3.org/1999/xlink" viewBox="0 0 2048 2048" style=""><path d="M245.0 265.0Q373.0 245.0 442.0 266.5Q511.0 288.0 532.0 329.5Q553.0 371.0 537.0 411.0Q521.0 451.0 478.5 470.0Q436.0 489.0 378.0 464.0Q359.0 413.0 314.5 360.5Q270.0 308.0 228.0 279.0ZM1148.0 1680.0Q1407.0 1677.0 1566.5 1699.5Q1726.0 1722.0 1805.0 1759.0Q1884.0 1796.0 1900.5 1838.5Q1917.0 1881.0 1889.5 1918.0Q1862.0 1955.0 1807.5 1976.0Q1753.0 1997.0 1689.5 1993.0Q1626.0 1989.0 1574.0 1948.0Q1517.0 1895.0 1408.5 1824.0Q1300.0 1753.0 1142.0 1703.0ZM904.0 1780.0Q811.0 1829.0 684.5 1873.0Q558.0 1917.0 410.5 1950.0Q263.0 1983.0 108.0 1998.0L97.0 1977.0Q201.0 1937.0 299.5 1883.0Q398.0 1829.0 480.0 1769.0Q562.0 1709.0 618.0 1651.0H89.0L73.0 1594.0H628.0V1428.0H218.0L202.0 1371.0H628.0V1246.0H620.0Q595.0 1267.0 524.5 1292.5Q454.0 1318.0 382.0 1318.0H341.0V691.0L290.0 724.0Q279.0 763.0 245.0 777.0L93.0 560.0Q145.0 551.0 235.5 531.5Q326.0 512.0 438.0 486.0Q550.0 460.0 667.0 431.0L673.0 455.0L525.0 564.0L656.0 572.0Q676.0 572.0 682.5 563.5Q689.0 555.0 689.0 539.0V240.0H147.0L128.0 183.0H669.0L783.0 52.0L1037.0 240.0Q1028.0 253.0 1008.0 266.0Q988.0 279.0 955.0 283.0V558.0Q955.0 624.0 935.0 671.5Q915.0 719.0 851.5 747.5Q788.0 776.0 656.0 785.0Q655.0 739.0 650.0 705.5Q645.0 672.0 630.0 652.0Q614.0 634.0 590.5 617.0Q567.0 600.0 509.0 591.0V576.0L353.0 681.0L650.0 793.0H1402.0L1525.0 662.0L1537.0 673.0L1529.0 654.0Q1514.0 634.0 1490.0 616.5Q1466.0 599.0 1406.0 589.0V564.0Q1406.0 564.0 1436.5 566.0Q1467.0 568.0 1503.5 570.0Q1540.0 572.0 1558.0 572.0Q1578.0 572.0 1584.0 563.5Q1590.0 555.0 1590.0 539.0V240.0H1068.0L1050.0 183.0H1570.0L1687.0 50.0L1945.0 242.0Q1935.0 253.0 1915.0 266.0Q1895.0 279.0 1863.0 285.0V558.0Q1863.0 644.0 1831.0 698.0Q1799.0 752.0 1680.0 777.0L1781.0 851.0Q1773.0 860.0 1757.5 869.5Q1742.0 879.0 1717.0 885.0V1203.0Q1717.0 1212.0 1676.0 1225.0Q1695.0 1239.0 1732.5 1267.5Q1770.0 1296.0 1814.0 1330.5Q1858.0 1365.0 1893.0 1395.0Q1887.0 1428.0 1838.0 1428.0H1422.0V1594.0H1609.0L1740.0 1434.0Q1740.0 1434.0 1780.0 1464.5Q1820.0 1495.0 1875.0 1538.0Q1930.0 1581.0 1975.0 1619.0Q1966.0 1651.0 1918.0 1651.0H742.0L1025.0 1742.0Q1017.0 1762.0 989.0 1773.0Q961.0 1784.0 904.0 1780.0ZM984.0 546.0Q1033.0 536.0 1113.0 517.0Q1193.0 498.0 1291.0 474.0Q1265.0 474.0 1234.0 462.0Q1216.0 411.0 1171.0 358.5Q1126.0 306.0 1084.0 277.0L1101.0 263.0Q1225.0 243.0 1293.5 263.0Q1362.0 283.0 1385.0 322.5Q1408.0 362.0 1395.0 402.0Q1382.0 442.0 1345.0 462.0L1558.0 406.0L1564.0 431.0Q1507.0 480.0 1416.5 550.0Q1326.0 620.0 1195.0 713.0Q1186.0 757.0 1152.0 767.0ZM632.0 1047.0V1189.0H869.0V1047.0ZM632.0 990.0H869.0V851.0H632.0ZM1420.0 851.0H1156.0V990.0H1420.0ZM1420.0 1047.0H1156.0V1189.0H1420.0ZM906.0 1246.0V1371.0H1140.0V1246.0ZM1646.0 1238.0Q1607.0 1250.0 1560.5 1259.0Q1514.0 1268.0 1474.0 1268.0H1422.0V1371.0H1537.0ZM906.0 1428.0V1594.0H1140.0V1428.0Z" fill="black"></path></svg>