<?xml version="1.0" standalone="no"?>
<!DOCTYPE svg PUBLIC "-//W3C//DTD SVG 1.1//EN" "http://www.w3.org/Graphics/SVG/1.1/DTD/svg11.dtd" >
<svg xmlns="http://www.w3.org/2000/svg" xmlns:svg="http://www.w3.org/2000/svg" xmlns:xlink="http://www.w3.org/1999/xlink" viewBox="0 0 2048 2048" style=""><path d="M84.0 639.0Q137.0 631.0 228.0 614.0Q319.0 597.0 431.0 575.0Q543.0 553.0 660.0 528.0L666.0 553.0Q606.0 599.0 513.0 665.5Q420.0 732.0 285.0 819.0Q273.0 860.0 238.0 870.0ZM252.0 272.0Q386.0 261.0 462.0 282.5Q538.0 304.0 567.0 343.5Q596.0 383.0 588.5 426.0Q581.0 469.0 546.5 500.0Q512.0 531.0 461.0 536.5Q410.0 542.0 352.0 506.0Q345.0 443.0 310.5 381.0Q276.0 319.0 238.0 283.0ZM1135.0 270.0Q1266.0 257.0 1341.5 277.5Q1417.0 298.0 1448.0 336.5Q1479.0 375.0 1474.0 418.0Q1469.0 461.0 1437.0 493.0Q1405.0 525.0 1355.5 532.0Q1306.0 539.0 1249.0 506.0Q1239.0 443.0 1200.5 381.0Q1162.0 319.0 1120.0 283.0ZM1008.0 184.0H1546.0L1659.0 57.0L1907.0 242.0Q1898.0 254.0 1876.5 266.0Q1855.0 278.0 1823.0 285.0V674.0Q1823.0 754.0 1802.0 809.5Q1781.0 865.0 1704.0 897.0Q1744.0 925.0 1793.0 960.0Q1842.0 995.0 1882.0 1026.0Q1873.0 1059.0 1823.0 1059.0H1356.0L1538.0 1141.0Q1530.0 1156.0 1514.0 1165.0Q1498.0 1174.0 1462.0 1171.0L1430.0 1212.0Q1561.0 1209.0 1634.5 1240.5Q1708.0 1272.0 1735.0 1319.0Q1762.0 1366.0 1753.0 1411.0Q1772.0 1424.0 1814.0 1454.5Q1856.0 1485.0 1906.5 1522.5Q1957.0 1560.0 1999.0 1593.0Q1990.0 1626.0 1942.0 1626.0H1165.0V1931.0Q1165.0 1939.0 1126.0 1953.5Q1087.0 1968.0 1029.5 1979.5Q972.0 1991.0 916.0 1991.0H862.0V1626.0H66.0L49.0 1569.0H862.0V1466.0Q829.0 1480.0 787.5 1476.5Q746.0 1473.0 703.0 1444.0Q701.0 1405.0 686.0 1366.0Q671.0 1327.0 651.0 1294.0Q562.0 1374.0 446.0 1439.0Q330.0 1504.0 197.0 1542.0L180.0 1520.0Q297.0 1432.0 386.0 1305.5Q475.0 1179.0 522.0 1059.0H180.0L164.0 1001.0H862.0V879.0Q801.0 920.0 653.0 932.0Q650.0 878.0 645.0 839.0Q640.0 800.0 623.0 774.0Q607.0 751.0 581.0 732.5Q555.0 714.0 498.0 704.0V678.0Q498.0 678.0 529.5 680.0Q561.0 682.0 599.5 684.0Q638.0 686.0 658.0 686.0Q677.0 686.0 683.5 677.0Q690.0 668.0 690.0 651.0V242.0H117.0L98.0 184.0H670.0L782.0 57.0L1024.0 238.0ZM903.0 1444.0 967.0 1448.0Q1054.0 1368.0 1116.5 1263.5Q1179.0 1159.0 1213.0 1059.0H660.0L842.0 1149.0Q834.0 1164.0 817.5 1172.5Q801.0 1181.0 764.0 1178.0L711.0 1237.0Q812.0 1235.0 867.0 1257.0Q922.0 1279.0 940.0 1313.0Q958.0 1347.0 946.5 1382.5Q935.0 1418.0 903.0 1444.0ZM1165.0 1569.0H1595.0L1645.0 1511.0Q1594.0 1518.0 1542.0 1495.0Q1519.0 1435.0 1474.0 1373.0Q1429.0 1311.0 1382.0 1264.0Q1326.0 1322.0 1254.0 1371.5Q1182.0 1421.0 1096.0 1458.0L1223.0 1468.0Q1220.0 1485.0 1209.0 1497.0Q1198.0 1509.0 1165.0 1515.0ZM979.0 629.0Q1030.0 622.0 1117.5 605.5Q1205.0 589.0 1313.0 567.5Q1421.0 546.0 1534.0 522.0L1538.0 545.0Q1480.0 597.0 1374.0 678.0Q1334.0 709.0 1287.5 744.0Q1241.0 779.0 1186.0 817.0Q1179.0 839.0 1170.0 848.0L1213.0 852.0Q1211.0 867.0 1202.0 877.5Q1193.0 888.0 1165.0 893.0V1001.0H1481.0L1542.0 930.0L1530.0 932.0Q1527.0 878.0 1521.5 839.0Q1516.0 800.0 1499.0 774.0Q1484.0 751.0 1457.5 732.5Q1431.0 714.0 1374.0 704.0V678.0L1534.0 686.0Q1554.0 686.0 1560.5 677.0Q1567.0 668.0 1567.0 651.0V242.0H1030.0Q1021.0 254.0 1000.0 266.0Q979.0 278.0 946.0 285.0V674.0Q946.0 721.0 940.0 759.5Q934.0 798.0 916.0 827.0L1122.0 844.0Z" fill="black"></path></svg>