<?xml version="1.0" standalone="no"?>
<!DOCTYPE svg PUBLIC "-//W3C//DTD SVG 1.1//EN" "http://www.w3.org/Graphics/SVG/1.1/DTD/svg11.dtd" >
<svg xmlns="http://www.w3.org/2000/svg" xmlns:svg="http://www.w3.org/2000/svg" xmlns:xlink="http://www.w3.org/1999/xlink" viewBox="0 0 2048 2048" style=""><path d="M1133.0 55.5 1483.0 86.5Q1480.0 107.5 1465.0 122.5Q1450.0 137.5 1407.0 143.5V252.5H1620.0L1741.0 100.5Q1741.0 100.5 1779.0 129.0Q1817.0 157.5 1869.0 198.5Q1921.0 239.5 1964.0 276.5Q1955.0 309.5 1907.0 309.5H1407.0V475.5H1599.0L1714.0 334.5Q1714.0 334.5 1750.0 361.5Q1786.0 388.5 1835.5 427.0Q1885.0 465.5 1925.0 499.5Q1916.0 532.5 1870.0 532.5H1407.0V708.5H1649.0L1769.0 557.5Q1769.0 557.5 1807.0 586.0Q1845.0 614.5 1897.5 655.5Q1950.0 696.5 1993.0 733.5Q1984.0 766.5 1935.0 766.5H1407.0V954.5Q1407.0 964.5 1373.0 980.0Q1339.0 995.5 1286.5 1008.0Q1234.0 1020.5 1180.0 1020.5H1133.0ZM98.0 702.5Q183.0 698.5 341.5 686.0Q500.0 673.5 686.0 657.5Q694.0 625.5 697.0 592.0Q700.0 558.5 700.0 524.5H236.0L217.0 467.5H700.0V305.5H168.0L150.0 248.5H700.0V57.5L1030.0 88.5Q1027.0 109.5 1013.0 123.0Q999.0 136.5 963.0 141.5V516.5Q961.0 616.5 929.0 705.0Q897.0 793.5 818.0 867.0Q739.0 940.5 599.0 996.5Q459.0 1052.5 242.0 1089.5L231.0 1069.5Q416.0 1004.5 516.0 922.0Q616.0 839.5 659.0 741.5Q584.0 770.5 489.5 806.0Q395.0 841.5 279.0 882.5Q264.0 920.5 227.0 928.5ZM684.0 1171.5H498.0L684.0 1290.5ZM471.0 1401.5 684.0 1532.5V1298.5Q675.0 1310.5 659.0 1315.0Q643.0 1319.5 612.0 1313.5Q528.0 1366.5 402.0 1416.0Q276.0 1465.5 147.0 1493.5L127.0 1468.5Q213.0 1410.5 295.5 1327.0Q378.0 1243.5 430.0 1171.5H133.0L115.0 1114.5H664.0L778.0 985.5L1026.0 1171.5Q1017.0 1184.5 996.5 1196.5Q976.0 1208.5 942.0 1214.5V1736.5Q942.0 1811.5 921.5 1864.5Q901.0 1917.5 834.5 1949.5Q768.0 1981.5 631.0 1992.5Q628.0 1940.5 620.0 1902.0Q612.0 1863.5 592.0 1839.5Q572.0 1817.5 539.5 1798.5Q507.0 1779.5 438.0 1767.5V1743.5Q438.0 1743.5 464.0 1745.0Q490.0 1746.5 526.5 1748.5Q563.0 1750.5 597.0 1752.0Q631.0 1753.5 647.0 1753.5Q684.0 1753.5 684.0 1716.5V1581.5L651.0 1579.5Q551.0 1659.5 396.0 1728.5Q241.0 1797.5 72.0 1831.5L55.0 1806.5Q140.0 1755.5 221.0 1685.5Q302.0 1615.5 367.0 1541.0Q432.0 1466.5 471.0 1401.5ZM1356.0 1396.5 1577.0 1530.5V1165.5H1341.0L1554.0 1304.5Q1545.0 1318.5 1528.5 1324.5Q1512.0 1330.5 1479.0 1323.5Q1391.0 1377.5 1261.0 1423.0Q1131.0 1468.5 997.0 1493.5L979.0 1468.5Q1066.0 1410.5 1153.0 1324.0Q1240.0 1237.5 1292.0 1165.5H1049.0L1030.0 1108.5H1556.0L1681.0 968.5L1946.0 1167.5Q1935.0 1179.5 1915.5 1193.0Q1896.0 1206.5 1864.0 1210.5V1730.5Q1864.0 1807.5 1841.5 1862.0Q1819.0 1916.5 1747.5 1948.5Q1676.0 1980.5 1530.0 1990.5Q1527.0 1937.5 1519.5 1897.5Q1512.0 1857.5 1491.0 1833.5Q1473.0 1811.5 1442.5 1792.5Q1412.0 1773.5 1341.0 1761.5V1736.5Q1341.0 1736.5 1366.0 1738.5Q1391.0 1740.5 1426.0 1742.5Q1461.0 1744.5 1493.5 1746.0Q1526.0 1747.5 1540.0 1747.5Q1577.0 1747.5 1577.0 1710.5V1585.5L1550.0 1581.5Q1449.0 1667.5 1291.5 1741.5Q1134.0 1815.5 961.0 1853.5L944.0 1829.5Q1030.0 1773.5 1110.0 1699.0Q1190.0 1624.5 1254.0 1545.0Q1318.0 1465.5 1356.0 1396.5Z" fill="black"></path></svg>