<?xml version="1.0" standalone="no"?>
<!DOCTYPE svg PUBLIC "-//W3C//DTD SVG 1.1//EN" "http://www.w3.org/Graphics/SVG/1.1/DTD/svg11.dtd" >
<svg xmlns="http://www.w3.org/2000/svg" xmlns:svg="http://www.w3.org/2000/svg" xmlns:xlink="http://www.w3.org/1999/xlink" viewBox="0 0 2048 2048" style=""><path d="M221.0 180.0V65.0L524.0 180.0H1528.0L1653.0 43.0L1917.0 239.0Q1908.0 252.0 1887.5 264.5Q1867.0 277.0 1835.0 284.0V581.0Q1833.0 589.0 1782.0 605.0Q1731.0 621.0 1671.0 630.0L1888.0 843.0Q1877.0 852.0 1855.0 856.0H1866.0L1872.0 1005.0Q1923.0 1025.0 1940.5 1048.0Q1958.0 1071.0 1958.0 1104.0Q1958.0 1156.0 1921.0 1185.5Q1884.0 1215.0 1795.5 1227.0Q1707.0 1239.0 1552.0 1239.0H1370.0Q1265.0 1239.0 1211.0 1221.0Q1157.0 1203.0 1138.5 1159.0Q1120.0 1115.0 1120.0 1036.0V590.0L1446.0 614.0Q1440.0 657.0 1382.0 665.0V807.0Q1464.0 764.0 1541.0 715.5Q1618.0 667.0 1667.0 630.0Q1630.0 637.0 1597.0 637.0H1548.0V555.0H502.0V571.0Q502.0 580.0 485.0 590.0L733.0 651.0Q720.0 695.0 657.0 692.0Q625.0 726.0 583.0 764.5Q541.0 803.0 491.0 841.0H778.0Q742.0 765.0 694.0 708.0L711.0 698.0Q849.0 709.0 927.5 746.5Q1006.0 784.0 1037.0 832.5Q1068.0 881.0 1061.5 928.0Q1055.0 975.0 1021.0 1007.0Q987.0 1039.0 937.0 1042.5Q887.0 1046.0 831.0 1007.0Q828.0 983.0 821.0 957.0Q814.0 931.0 805.0 905.0Q703.0 934.0 569.5 968.5Q436.0 1003.0 262.0 1044.0L481.0 1132.0H680.0L795.0 1001.0L1044.0 1190.0Q1035.0 1202.0 1015.0 1214.0Q995.0 1226.0 963.0 1233.0V1749.0Q963.0 1824.0 942.5 1877.5Q922.0 1931.0 858.5 1962.5Q795.0 1994.0 664.0 2005.0Q660.0 1952.0 655.0 1914.0Q650.0 1876.0 633.0 1851.0Q617.0 1828.0 591.5 1809.0Q566.0 1790.0 506.0 1779.0V1755.0Q506.0 1755.0 538.5 1757.0Q571.0 1759.0 610.0 1761.0Q649.0 1763.0 668.0 1763.0Q688.0 1763.0 694.0 1754.0Q700.0 1745.0 700.0 1728.0V1599.0H471.0V1917.0Q471.0 1929.0 440.5 1948.0Q410.0 1967.0 362.0 1982.0Q314.0 1997.0 262.0 1997.0H225.0V1056.0Q204.0 1092.0 168.0 1095.0L78.0 833.0L334.0 839.0Q348.0 790.0 358.5 738.0Q369.0 686.0 377.0 639.0Q318.0 655.0 260.0 655.0H221.0ZM471.0 1392.0V1542.0H700.0V1392.0ZM471.0 1335.0H700.0V1190.0H471.0ZM1843.0 858.0Q1807.0 858.0 1761.0 839.0Q1689.0 852.0 1587.0 863.0Q1485.0 874.0 1382.0 878.0V989.0Q1382.0 1007.0 1391.5 1014.5Q1401.0 1022.0 1438.0 1022.0H1585.0Q1620.0 1022.0 1652.5 1022.0Q1685.0 1022.0 1704.0 1022.0Q1721.0 1020.0 1734.5 1016.0Q1748.0 1012.0 1759.0 1003.0Q1791.0 971.0 1843.0 858.0ZM1706.0 1294.0 1939.0 1505.0Q1900.0 1538.0 1812.0 1505.0Q1729.0 1525.0 1615.0 1543.0Q1501.0 1561.0 1382.0 1571.0V1710.0Q1382.0 1730.0 1391.5 1737.5Q1401.0 1745.0 1440.0 1745.0H1591.0Q1628.0 1745.0 1662.0 1744.0Q1696.0 1743.0 1714.0 1743.0Q1754.0 1739.0 1771.0 1724.0Q1803.0 1690.0 1857.0 1571.0H1878.0L1884.0 1726.0Q1936.0 1748.0 1953.0 1771.5Q1970.0 1795.0 1970.0 1831.0Q1970.0 1883.0 1933.0 1916.5Q1896.0 1950.0 1806.5 1966.0Q1717.0 1982.0 1561.0 1982.0H1374.0Q1268.0 1982.0 1213.0 1964.0Q1158.0 1946.0 1139.0 1899.5Q1120.0 1853.0 1120.0 1769.0V1267.0L1446.0 1294.0Q1439.0 1337.0 1382.0 1345.0V1491.0Q1476.0 1443.0 1564.0 1390.0Q1652.0 1337.0 1706.0 1294.0ZM502.0 497.0H676.0V237.0H502.0ZM1548.0 497.0V237.0H1368.0V497.0ZM932.0 497.0H1110.0V237.0H932.0Z" fill="black"></path></svg>