<?xml version="1.0" standalone="no"?>
<!DOCTYPE svg PUBLIC "-//W3C//DTD SVG 1.1//EN" "http://www.w3.org/Graphics/SVG/1.1/DTD/svg11.dtd" >
<svg xmlns="http://www.w3.org/2000/svg" xmlns:svg="http://www.w3.org/2000/svg" xmlns:xlink="http://www.w3.org/1999/xlink" viewBox="0 0 2048 2048" style=""><path d="M174.5 558.0V468.0L422.5 558.0H731.5L828.5 458.0H160.5L144.5 400.0H428.5V273.0H92.5L76.5 216.0H428.5V50.0L758.5 77.0Q755.5 95.0 741.5 108.5Q727.5 122.0 690.5 128.0V216.0H770.5L877.5 79.0Q877.5 79.0 910.5 105.0Q943.5 131.0 988.5 169.0Q1033.5 207.0 1069.5 240.0Q1060.5 273.0 1016.5 273.0H821.5Q846.5 292.0 903.0 337.5Q959.5 383.0 1004.5 425.0Q995.5 458.0 948.5 458.0H842.5L1049.5 609.0Q1041.5 618.0 1025.0 628.0Q1008.5 638.0 983.5 644.0V875.0Q982.5 882.0 949.5 895.0Q916.5 908.0 872.0 918.5Q827.5 929.0 791.5 929.0H750.5V845.0H356.5Q329.5 914.0 264.5 981.5Q199.5 1049.0 76.5 1096.0L62.5 1074.0Q116.5 1011.0 140.0 941.5Q163.5 872.0 169.0 803.0Q174.5 734.0 174.5 673.0ZM801.5 273.0H690.5V400.0H703.5ZM750.5 615.0H666.5V787.0H750.5ZM387.5 615.0V673.0Q387.5 697.0 385.5 726.0Q383.5 755.0 375.5 787.0H463.5V615.0ZM1383.5 220.0V236.0Q1383.5 275.0 1365.5 329.0Q1347.5 383.0 1294.0 438.0Q1240.5 493.0 1133.5 535.0H1507.5L1565.5 482.0Q1517.5 468.0 1506.5 430.0Q1495.5 392.0 1495.5 326.0V220.0ZM105.5 1664.0 471.5 1660.0V1123.0H174.5L158.5 1066.0H1571.5L1645.5 980.0Q1591.5 961.0 1542.5 939.0Q1493.5 917.0 1450.5 890.0Q1338.5 940.0 1207.5 973.0Q1076.5 1006.0 932.5 1023.0L922.5 994.0Q1038.5 959.0 1141.5 907.0Q1244.5 855.0 1325.5 789.0Q1243.5 708.0 1192.5 593.0H1106.5L1092.5 550.0L1018.5 570.0L1006.5 550.0Q1066.5 502.0 1093.5 446.5Q1120.5 391.0 1127.0 337.0Q1133.5 283.0 1133.5 238.0V62.0L1419.5 163.0H1475.5L1583.5 48.0L1778.5 208.0Q1761.5 227.0 1716.5 236.0V294.0Q1716.5 309.0 1721.0 312.5Q1725.5 316.0 1737.5 316.0H1763.5Q1770.5 316.0 1777.0 316.0Q1783.5 316.0 1788.5 316.0Q1808.5 316.0 1821.5 306.0Q1830.5 294.0 1847.5 265.0Q1864.5 236.0 1882.5 193.0H1903.5L1911.5 306.0Q1948.5 324.0 1958.5 342.0Q1968.5 360.0 1968.5 386.0Q1968.5 447.0 1916.0 469.0Q1863.5 491.0 1749.5 492.0L1872.5 595.0Q1857.5 620.0 1794.5 625.0Q1768.5 661.0 1738.0 694.0Q1707.5 727.0 1671.5 757.0Q1822.5 775.0 1985.5 775.0V797.0Q1862.5 843.0 1827.5 1006.0L1936.5 1090.0Q1930.5 1123.0 1880.5 1123.0H1591.5V1625.0L1954.5 1611.0L1956.5 1645.0Q1876.5 1664.0 1785.5 1682.5Q1694.5 1701.0 1591.5 1719.0V1940.0Q1591.5 1949.0 1530.5 1974.5Q1469.5 2000.0 1360.5 2000.0H1307.5V1768.0Q1098.5 1804.0 845.5 1841.5Q592.5 1879.0 285.5 1922.0Q258.5 1958.0 219.5 1965.0ZM1241.5 593.0Q1312.5 658.0 1424.5 699.0Q1445.5 673.0 1465.0 646.5Q1484.5 620.0 1501.5 593.0ZM746.5 1326.0V1459.0H1307.5V1326.0ZM746.5 1269.0H1307.5V1123.0H746.5ZM746.5 1516.0V1651.0L1307.5 1635.0V1516.0Z" fill="black"></path></svg>