<?xml version="1.0" standalone="no"?>
<!DOCTYPE svg PUBLIC "-//W3C//DTD SVG 1.1//EN" "http://www.w3.org/Graphics/SVG/1.1/DTD/svg11.dtd" >
<svg xmlns="http://www.w3.org/2000/svg" xmlns:svg="http://www.w3.org/2000/svg" xmlns:xlink="http://www.w3.org/1999/xlink" viewBox="0 0 2048 2048" style=""><path d="M1057.5 511.0H1082.5Q1163.5 695.0 1153.0 828.5Q1142.5 962.0 1078.5 1027.0Q1047.5 1058.0 1002.0 1063.5Q956.5 1069.0 915.0 1049.5Q873.5 1030.0 852.5 986.0Q828.5 924.0 853.5 873.0Q878.5 822.0 930.5 789.0Q959.5 766.0 990.5 721.5Q1021.5 677.0 1041.5 622.0Q1061.5 567.0 1057.5 511.0ZM1719.5 478.0 2028.5 679.0Q2020.5 691.0 1999.5 698.5Q1978.5 706.0 1946.5 697.0Q1908.5 736.0 1847.5 790.0Q1786.5 844.0 1714.0 902.0Q1641.5 960.0 1569.5 1010.0Q1621.5 1245.0 1724.5 1398.0Q1827.5 1551.0 2005.5 1643.0L2003.5 1666.0Q1905.5 1693.0 1844.0 1777.0Q1782.5 1861.0 1764.5 1987.0Q1627.5 1855.0 1568.0 1588.5Q1508.5 1322.0 1489.5 947.0Q1472.5 1103.0 1431.5 1255.0Q1390.5 1407.0 1314.0 1545.5Q1237.5 1684.0 1116.0 1799.0Q994.5 1914.0 818.5 1996.0L801.5 1979.0Q945.5 1847.0 1031.0 1687.5Q1116.5 1528.0 1159.5 1353.0Q1202.5 1178.0 1216.0 997.5Q1229.5 817.0 1229.5 644.0V66.0L1579.5 101.0Q1576.5 123.0 1561.5 137.5Q1546.5 152.0 1506.5 159.0V402.0Q1512.5 559.0 1524.0 694.0Q1535.5 829.0 1557.5 943.0Q1589.5 864.0 1621.0 775.5Q1652.5 687.0 1678.5 608.0Q1704.5 529.0 1719.5 478.0ZM19.5 1479.0 162.5 1465.0V281.0H47.5L31.5 224.0H678.5L818.5 52.0Q818.5 52.0 844.0 71.0Q869.5 90.0 909.0 120.0Q948.5 150.0 992.0 184.0Q1035.5 218.0 1071.5 249.0Q1063.5 281.0 1014.5 281.0H830.5V1924.0Q830.5 1936.0 774.0 1966.0Q717.5 1996.0 617.5 1996.0H568.5V1502.0Q492.5 1554.0 393.0 1618.0Q293.5 1682.0 168.5 1756.0Q161.5 1777.0 143.5 1792.0Q125.5 1807.0 105.5 1811.0ZM416.5 281.0V619.0H568.5V281.0ZM416.5 677.0V1017.0H568.5V677.0ZM416.5 1074.0V1434.0L568.5 1414.0V1074.0Z" fill="black"></path></svg>