<?xml version="1.0" standalone="no"?>
<!DOCTYPE svg PUBLIC "-//W3C//DTD SVG 1.1//EN" "http://www.w3.org/Graphics/SVG/1.1/DTD/svg11.dtd" >
<svg xmlns="http://www.w3.org/2000/svg" xmlns:svg="http://www.w3.org/2000/svg" xmlns:xlink="http://www.w3.org/1999/xlink" viewBox="0 0 2048 2048" style=""><path d="M846.5 964.0H1481.5L1631.5 818.0H1610.5Q1524.5 818.0 1484.0 798.5Q1443.5 779.0 1432.0 733.5Q1420.5 688.0 1420.5 609.0V243.0H1248.5V361.0Q1248.5 422.0 1235.0 498.0Q1221.5 574.0 1180.5 652.5Q1139.5 731.0 1057.5 802.5Q975.5 874.0 838.5 927.0L826.5 908.0Q898.5 825.0 931.5 730.5Q964.5 636.0 973.0 540.5Q981.5 445.0 981.5 361.0V81.0L1289.5 185.0H1397.5L1520.5 52.0L1737.5 230.0Q1718.5 253.0 1674.5 261.0V540.0Q1674.5 555.0 1679.0 560.5Q1683.5 566.0 1700.5 566.0H1741.5Q1752.5 566.0 1761.5 566.0Q1770.5 566.0 1776.5 566.0Q1796.5 566.0 1809.5 544.0Q1823.5 522.0 1845.5 464.0Q1867.5 406.0 1895.5 325.0H1917.5L1923.5 554.0Q1965.5 574.0 1976.5 598.5Q1987.5 623.0 1987.5 658.0Q1987.5 731.0 1918.5 774.5Q1849.5 818.0 1706.5 818.0H1643.5L1893.5 1035.0Q1882.5 1054.0 1864.5 1060.5Q1846.5 1067.0 1809.5 1072.0Q1763.5 1204.0 1695.0 1323.5Q1626.5 1443.0 1534.5 1547.0Q1643.5 1604.0 1765.0 1643.5Q1886.5 1683.0 2014.5 1711.0L2009.5 1736.0Q1825.5 1776.0 1762.5 1992.0Q1640.5 1936.0 1538.0 1869.5Q1435.5 1803.0 1352.5 1717.0Q1231.5 1809.0 1079.5 1881.5Q927.5 1954.0 738.5 2002.0L725.5 1979.0Q884.5 1901.0 1010.5 1796.5Q1136.5 1692.0 1233.5 1568.0Q1164.5 1462.0 1115.0 1327.5Q1065.5 1193.0 1033.5 1021.0H865.5ZM1493.5 1021.0H1065.5Q1110.5 1147.0 1179.5 1244.0Q1248.5 1341.0 1336.5 1416.0Q1441.5 1230.0 1493.5 1021.0ZM422.5 241.0V665.0H545.5V241.0ZM156.5 183.0V77.0L463.5 183.0H525.5L648.5 46.0L893.5 241.0Q884.5 251.0 867.0 262.0Q849.5 273.0 822.5 277.0V1676.0Q822.5 1770.0 801.5 1835.0Q780.5 1900.0 713.0 1937.5Q645.5 1975.0 506.5 1988.0Q503.5 1920.0 496.5 1870.0Q489.5 1820.0 473.5 1791.0Q457.5 1760.0 429.0 1738.5Q400.5 1717.0 340.5 1705.0V1678.0Q340.5 1678.0 376.0 1680.0Q411.5 1682.0 452.0 1684.5Q492.5 1687.0 508.5 1687.0Q531.5 1687.0 538.5 1676.5Q545.5 1666.0 545.5 1648.0V1211.0H404.5Q388.5 1349.0 351.0 1486.0Q313.5 1623.0 242.0 1751.0Q170.5 1879.0 54.5 1988.0L33.5 1975.0Q97.5 1797.0 122.5 1593.0Q147.5 1389.0 152.0 1179.0Q156.5 969.0 156.5 773.0ZM422.5 722.0V773.0Q422.5 861.0 421.0 957.5Q419.5 1054.0 410.5 1154.0H545.5V722.0Z" fill="black"></path></svg>