<?xml version="1.0" standalone="no"?>
<!DOCTYPE svg PUBLIC "-//W3C//DTD SVG 1.1//EN" "http://www.w3.org/Graphics/SVG/1.1/DTD/svg11.dtd" >
<svg xmlns="http://www.w3.org/2000/svg" xmlns:svg="http://www.w3.org/2000/svg" xmlns:xlink="http://www.w3.org/1999/xlink" viewBox="0 0 2048 2048" style=""><path d="M210.0 1301.0H1498.0L1637.0 1128.0Q1637.0 1128.0 1662.5 1147.0Q1688.0 1166.0 1728.0 1196.0Q1768.0 1226.0 1811.5 1260.0Q1855.0 1294.0 1891.0 1325.0Q1888.0 1342.0 1871.5 1350.0Q1855.0 1358.0 1834.0 1358.0H1176.0V1595.0H1435.0L1570.0 1425.0Q1570.0 1425.0 1611.5 1457.0Q1653.0 1489.0 1710.0 1534.5Q1767.0 1580.0 1813.0 1620.0Q1804.0 1653.0 1756.0 1653.0H1176.0V1907.0H1592.0L1734.0 1724.0Q1734.0 1724.0 1759.5 1744.5Q1785.0 1765.0 1825.5 1796.5Q1866.0 1828.0 1910.5 1864.0Q1955.0 1900.0 1992.0 1931.0Q1983.0 1964.0 1932.0 1964.0H81.0L64.0 1907.0H875.0V1653.0H306.0L290.0 1595.0H875.0V1358.0H226.0ZM1398.0 385.0V911.0H1602.0V385.0ZM56.0 932.0 245.0 926.0V307.0H77.0L60.0 250.0H765.0L898.0 84.0Q898.0 84.0 937.0 114.0Q976.0 144.0 1030.5 186.5Q1085.0 229.0 1131.0 268.0V219.0L1426.0 328.0H1582.0L1703.0 195.0L1957.0 385.0Q1946.0 397.0 1926.0 409.5Q1906.0 422.0 1875.0 430.0V1016.0Q1873.0 1023.0 1835.0 1038.0Q1797.0 1053.0 1745.5 1065.0Q1694.0 1077.0 1650.0 1077.0H1602.0V969.0H1398.0V1071.0Q1398.0 1083.0 1340.0 1115.0Q1282.0 1147.0 1181.0 1147.0H1131.0V285.0Q1120.0 307.0 1082.0 307.0H953.0V1137.0Q952.0 1146.0 896.0 1169.0Q840.0 1192.0 740.0 1192.0H693.0V981.0Q607.0 1016.0 493.5 1059.5Q380.0 1103.0 234.0 1155.0Q225.0 1175.0 209.5 1186.0Q194.0 1197.0 177.0 1200.0ZM693.0 524.0H501.0V686.0H693.0ZM693.0 467.0V307.0H501.0V467.0ZM693.0 743.0H501.0V913.0L693.0 903.0Z" fill="black"></path></svg>