<?xml version="1.0" standalone="no"?>
<!DOCTYPE svg PUBLIC "-//W3C//DTD SVG 1.1//EN" "http://www.w3.org/Graphics/SVG/1.1/DTD/svg11.dtd" >
<svg xmlns="http://www.w3.org/2000/svg" xmlns:svg="http://www.w3.org/2000/svg" xmlns:xlink="http://www.w3.org/1999/xlink" viewBox="0 0 2048 2048" style=""><path d="M1623.0 109.5 1941.0 316.5Q1929.0 333.5 1909.0 339.5Q1889.0 345.5 1851.0 334.5Q1760.0 451.5 1647.5 572.5Q1535.0 693.5 1400.0 811.5H1603.0L1746.0 627.5Q1746.0 627.5 1772.0 648.0Q1798.0 668.5 1838.0 700.5Q1878.0 732.5 1922.0 768.5Q1966.0 804.5 2002.0 836.5Q1993.0 869.5 1945.0 869.5H1335.0Q1233.0 953.5 1121.5 1035.5Q1010.0 1117.5 888.0 1192.5V1399.5Q1003.0 1346.5 1116.5 1281.0Q1230.0 1215.5 1326.0 1149.0Q1422.0 1082.5 1484.0 1024.5L1779.0 1254.5Q1762.0 1271.5 1728.0 1274.5Q1694.0 1277.5 1642.0 1262.5Q1502.0 1319.5 1301.0 1371.5Q1100.0 1423.5 888.0 1456.5V1659.5Q888.0 1690.5 909.5 1701.5Q931.0 1712.5 999.0 1712.5H1312.0Q1381.0 1712.5 1444.5 1711.5Q1508.0 1710.5 1544.0 1708.5Q1600.0 1705.5 1628.0 1676.5Q1652.0 1648.5 1682.5 1589.0Q1713.0 1529.5 1755.0 1432.5H1775.0L1781.0 1682.5Q1852.0 1705.5 1876.0 1731.5Q1900.0 1757.5 1900.0 1798.5Q1900.0 1848.5 1873.0 1882.0Q1846.0 1915.5 1779.0 1936.0Q1712.0 1956.5 1591.5 1966.0Q1471.0 1975.5 1283.0 1975.5H974.0Q832.0 1975.5 749.5 1957.5Q667.0 1939.5 632.0 1886.5Q597.0 1833.5 597.0 1729.5V1356.5Q471.0 1419.5 337.5 1475.5Q204.0 1531.5 61.0 1575.5L46.0 1551.5Q191.0 1478.5 329.5 1392.0Q468.0 1305.5 597.0 1209.5V983.5L853.0 1004.5Q890.0 970.5 928.0 936.5Q966.0 902.5 1001.0 869.5H112.0L96.0 811.5H724.0V480.5H264.0L247.0 422.5H724.0V72.5L1087.0 101.5Q1084.0 121.5 1071.0 135.0Q1058.0 148.5 1021.0 154.5V422.5H1075.0L1214.0 238.5Q1214.0 238.5 1246.0 264.0Q1278.0 289.5 1325.5 328.5Q1373.0 367.5 1419.0 406.5Q1479.0 329.5 1530.5 254.5Q1582.0 179.5 1623.0 109.5ZM1021.0 480.5V811.5H1060.0Q1226.0 645.5 1361.0 480.5Z" fill="black"></path></svg>