<?xml version="1.0" standalone="no"?>
<!DOCTYPE svg PUBLIC "-//W3C//DTD SVG 1.1//EN" "http://www.w3.org/Graphics/SVG/1.1/DTD/svg11.dtd" >
<svg xmlns="http://www.w3.org/2000/svg" xmlns:svg="http://www.w3.org/2000/svg" xmlns:xlink="http://www.w3.org/1999/xlink" viewBox="0 0 2048 2048" style=""><path d="M189.0 815.5V747.5Q172.0 770.5 142.0 774.5L36.0 473.5L322.0 471.5Q342.0 368.5 359.5 256.0Q377.0 143.5 386.0 55.5L777.0 141.5Q771.0 161.5 753.5 174.0Q736.0 186.5 699.0 186.5Q653.0 246.5 585.0 322.0Q517.0 397.5 443.0 469.5L787.0 461.5Q739.0 357.5 670.0 276.5L687.0 266.5Q849.0 286.5 942.0 335.5Q1035.0 384.5 1073.0 445.5Q1111.0 506.5 1105.5 564.0Q1100.0 621.5 1063.5 660.0Q1027.0 698.5 970.5 703.0Q914.0 707.5 851.0 661.5Q846.0 623.5 834.5 584.0Q823.0 544.5 808.0 506.5Q709.0 547.5 568.5 600.5Q428.0 653.5 234.0 719.5L474.0 815.5H679.0L806.0 671.5L1072.0 874.5Q1063.0 886.5 1042.5 900.0Q1022.0 913.5 990.0 919.5V1673.5Q990.0 1768.5 969.0 1835.5Q948.0 1902.5 879.0 1941.5Q810.0 1980.5 666.0 1992.5Q665.0 1922.5 659.0 1871.5Q653.0 1820.5 638.0 1788.5Q622.0 1755.5 596.0 1732.0Q570.0 1708.5 515.0 1695.5V1671.5Q515.0 1671.5 544.5 1673.0Q574.0 1674.5 610.5 1676.0Q647.0 1677.5 666.0 1677.5Q686.0 1677.5 692.5 1668.5Q699.0 1659.5 699.0 1642.5V1439.5H464.0V1900.5Q464.0 1915.5 430.5 1937.0Q397.0 1958.5 344.5 1975.5Q292.0 1992.5 232.0 1992.5H189.0ZM464.0 1155.5V1382.5H699.0V1155.5ZM464.0 1097.5H699.0V872.5H464.0ZM1701.0 159.5 1967.0 385.5Q1929.0 416.5 1834.0 387.5Q1755.0 408.5 1649.5 434.0Q1544.0 459.5 1432.0 481.5V686.5Q1432.0 707.5 1442.0 715.5Q1452.0 723.5 1486.0 723.5H1615.0Q1644.0 723.5 1672.0 723.5Q1700.0 723.5 1717.0 723.5Q1734.0 721.5 1747.5 717.0Q1761.0 712.5 1772.0 700.5Q1789.0 679.5 1815.0 625.5Q1841.0 571.5 1871.0 497.5H1891.0L1899.0 706.5Q1951.0 731.5 1969.0 757.5Q1987.0 783.5 1987.0 821.5Q1987.0 909.5 1897.0 948.5Q1807.0 987.5 1578.0 987.5H1408.0Q1297.0 987.5 1239.5 967.5Q1182.0 947.5 1161.5 897.0Q1141.0 846.5 1141.0 753.5V82.5L1498.0 110.5Q1495.0 130.5 1480.0 145.0Q1465.0 159.5 1432.0 164.5V413.5Q1508.0 352.5 1582.0 281.5Q1656.0 210.5 1701.0 159.5ZM1699.0 1085.5 1995.0 1310.5Q1979.0 1327.5 1947.0 1331.0Q1915.0 1334.5 1862.0 1321.5Q1779.0 1347.5 1667.5 1378.5Q1556.0 1409.5 1436.0 1435.5V1646.5Q1436.0 1668.5 1446.0 1676.0Q1456.0 1683.5 1492.0 1683.5H1629.0Q1660.0 1683.5 1689.0 1683.5Q1718.0 1683.5 1735.0 1681.5Q1770.0 1681.5 1793.0 1659.5Q1810.0 1634.5 1836.5 1577.0Q1863.0 1519.5 1895.0 1439.5H1914.0L1922.0 1665.5Q1975.0 1689.5 1993.5 1716.5Q2012.0 1743.5 2012.0 1781.5Q2012.0 1869.5 1919.5 1909.5Q1827.0 1949.5 1592.0 1949.5H1414.0Q1302.0 1949.5 1244.0 1929.5Q1186.0 1909.5 1164.5 1858.5Q1143.0 1807.5 1143.0 1714.5V1050.5L1502.0 1079.5Q1498.0 1124.5 1436.0 1132.5V1355.5Q1512.0 1288.5 1583.5 1214.5Q1655.0 1140.5 1699.0 1085.5Z" fill="black"></path></svg>