<?xml version="1.0" standalone="no"?>
<!DOCTYPE svg PUBLIC "-//W3C//DTD SVG 1.1//EN" "http://www.w3.org/Graphics/SVG/1.1/DTD/svg11.dtd" >
<svg xmlns="http://www.w3.org/2000/svg" xmlns:svg="http://www.w3.org/2000/svg" xmlns:xlink="http://www.w3.org/1999/xlink" viewBox="0 0 2048 2048" style=""><path d="M1118.0 1004.0H846.0V1129.0H1118.0ZM1030.0 206.0V101.0L1300.0 206.0H1536.0L1665.0 58.0L1929.0 265.0Q1918.0 277.0 1898.5 289.5Q1879.0 302.0 1847.0 308.0V1664.0Q1847.0 1761.0 1825.0 1828.5Q1803.0 1896.0 1732.0 1935.0Q1661.0 1974.0 1513.0 1988.0Q1510.0 1917.0 1501.5 1864.0Q1493.0 1811.0 1474.0 1781.0Q1459.0 1753.0 1434.5 1732.0Q1410.0 1711.0 1364.0 1697.0V1842.0Q1364.0 1851.0 1311.0 1873.0Q1258.0 1895.0 1163.0 1895.0H1118.0V1572.0Q1029.0 1613.0 904.5 1664.5Q780.0 1716.0 614.0 1779.0Q597.0 1819.0 559.0 1826.0L430.0 1566.0L612.0 1555.0V1004.0H452.0L436.0 947.0H1206.0L1325.0 802.0Q1325.0 802.0 1361.5 829.5Q1398.0 857.0 1448.5 896.5Q1499.0 936.0 1540.0 972.0Q1531.0 1004.0 1485.0 1004.0H1364.0V1666.0L1519.0 1672.0Q1543.0 1672.0 1549.5 1662.0Q1556.0 1652.0 1556.0 1633.0V746.0H1292.0V757.0Q1292.0 769.0 1258.5 788.0Q1225.0 807.0 1173.0 822.0Q1121.0 837.0 1067.0 837.0H1030.0ZM1118.0 1187.0H846.0V1326.0H1118.0ZM1118.0 1383.0H846.0V1537.0L1118.0 1514.0ZM653.0 263.0H405.0V439.0H653.0ZM119.0 206.0V83.0L414.0 206.0H633.0L751.0 81.0L993.0 261.0Q984.0 272.0 966.5 283.0Q949.0 294.0 919.0 300.0V771.0Q918.0 780.0 882.5 798.0Q847.0 816.0 796.0 830.5Q745.0 845.0 700.0 845.0H653.0V746.0H405.0V1881.0Q405.0 1899.0 372.5 1925.0Q340.0 1951.0 285.5 1970.5Q231.0 1990.0 166.0 1990.0H119.0ZM405.0 497.0V689.0H653.0V497.0ZM1556.0 263.0H1292.0V439.0H1556.0ZM1292.0 497.0V689.0H1556.0V497.0Z" fill="black"></path></svg>