<?xml version="1.0" standalone="no"?>
<!DOCTYPE svg PUBLIC "-//W3C//DTD SVG 1.1//EN" "http://www.w3.org/Graphics/SVG/1.1/DTD/svg11.dtd" >
<svg xmlns="http://www.w3.org/2000/svg" xmlns:svg="http://www.w3.org/2000/svg" xmlns:xlink="http://www.w3.org/1999/xlink" viewBox="0 0 2048 2048" style=""><path d="M1355.5 492.5H595.5V867.5H1355.5ZM776.5 54.5 1210.5 124.5Q1205.5 144.5 1188.5 157.0Q1171.5 169.5 1134.5 171.5Q1077.5 229.5 1000.0 301.5Q922.5 373.5 839.5 435.5H1333.5L1478.5 273.5L1761.5 498.5Q1748.5 512.5 1727.5 526.5Q1706.5 540.5 1671.5 548.5V1897.5Q1669.5 1907.5 1627.0 1929.0Q1584.5 1950.5 1523.5 1968.0Q1462.5 1985.5 1404.5 1985.5H1355.5V1823.5H595.5V1883.5Q595.5 1901.5 558.5 1927.5Q521.5 1953.5 462.0 1973.5Q402.5 1993.5 335.5 1993.5H286.5V306.5L616.5 435.5H743.5Q755.5 346.5 764.5 241.0Q773.5 135.5 776.5 54.5ZM595.5 924.5V1313.5H1355.5V924.5ZM595.5 1371.5V1766.5H1355.5V1371.5Z" fill="black"></path></svg>