<?xml version="1.0" standalone="no"?>
<!DOCTYPE svg PUBLIC "-//W3C//DTD SVG 1.1//EN" "http://www.w3.org/Graphics/SVG/1.1/DTD/svg11.dtd" >
<svg xmlns="http://www.w3.org/2000/svg" xmlns:svg="http://www.w3.org/2000/svg" xmlns:xlink="http://www.w3.org/1999/xlink" viewBox="0 0 2048 2048" style=""><path d="M777.0 304.0H450.0V683.0H777.0ZM142.0 246.0V126.0L478.0 246.0H1357.0L1525.0 40.0Q1525.0 40.0 1555.5 62.5Q1586.0 85.0 1633.5 120.5Q1681.0 156.0 1733.5 196.0Q1786.0 236.0 1830.0 271.0Q1821.0 304.0 1769.0 304.0H1074.0V683.0H1302.0L1443.0 527.0L1730.0 746.0Q1719.0 762.0 1695.5 777.0Q1672.0 792.0 1633.0 799.0V1356.0Q1632.0 1366.0 1590.0 1384.0Q1548.0 1402.0 1489.0 1417.0Q1430.0 1432.0 1377.0 1432.0H1326.0V1270.0H1074.0V1772.0H1425.0L1595.0 1555.0Q1595.0 1555.0 1626.5 1578.5Q1658.0 1602.0 1706.5 1639.0Q1755.0 1676.0 1808.5 1718.0Q1862.0 1760.0 1906.0 1797.0Q1897.0 1830.0 1844.0 1830.0H450.0V1911.0Q450.0 1923.0 420.0 1946.0Q390.0 1969.0 334.5 1988.5Q279.0 2008.0 200.0 2008.0H142.0ZM777.0 1772.0V1270.0H450.0V1772.0ZM450.0 740.0V1213.0H1326.0V740.0Z" fill="black"></path></svg>