<?xml version="1.0" standalone="no"?>
<!DOCTYPE svg PUBLIC "-//W3C//DTD SVG 1.1//EN" "http://www.w3.org/Graphics/SVG/1.1/DTD/svg11.dtd" >
<svg xmlns="http://www.w3.org/2000/svg" xmlns:svg="http://www.w3.org/2000/svg" xmlns:xlink="http://www.w3.org/1999/xlink" viewBox="0 0 2048 2048" style=""><path d="M558.5 562.0 840.5 545.0V433.0H523.5V879.0Q523.5 1010.0 512.5 1158.5Q501.5 1307.0 459.5 1458.0Q417.5 1609.0 327.5 1748.0Q237.5 1887.0 78.5 2000.0L60.5 1987.0Q146.5 1823.0 184.5 1635.5Q222.5 1448.0 231.5 1254.5Q240.5 1061.0 240.5 879.0V238.0L566.5 375.0H900.5V48.0L1270.5 74.0Q1267.5 96.0 1254.0 111.0Q1240.5 126.0 1197.5 134.0V232.0H1469.5L1606.5 68.0Q1606.5 68.0 1649.5 99.0Q1692.5 130.0 1752.0 174.0Q1811.5 218.0 1860.5 257.0Q1851.5 286.0 1809.5 289.0L1987.5 457.0Q1968.5 477.0 1907.5 480.0Q1886.5 491.0 1861.5 502.5Q1836.5 514.0 1807.5 525.0L1815.5 611.0Q1874.5 629.0 1894.0 650.5Q1913.5 672.0 1913.5 701.0Q1913.5 744.0 1880.5 768.0Q1847.5 792.0 1748.5 801.0L1922.5 928.0Q1914.5 939.0 1899.0 949.0Q1883.5 959.0 1858.5 963.0V1240.0Q1857.5 1247.0 1816.0 1262.5Q1774.5 1278.0 1723.5 1289.0L1875.5 1402.0Q1865.5 1414.0 1846.0 1426.0Q1826.5 1438.0 1793.5 1445.0V1758.0Q1793.5 1827.0 1769.5 1876.0Q1745.5 1925.0 1671.5 1954.5Q1597.5 1984.0 1447.5 1993.0Q1442.5 1946.0 1433.5 1910.5Q1424.5 1875.0 1399.5 1852.0Q1375.5 1832.0 1339.0 1815.0Q1302.5 1798.0 1219.5 1785.0V1760.0Q1219.5 1760.0 1252.5 1762.0Q1285.5 1764.0 1331.5 1767.0Q1377.5 1770.0 1418.0 1772.0Q1458.5 1774.0 1473.5 1774.0Q1496.5 1774.0 1504.5 1764.0Q1512.5 1754.0 1512.5 1735.0V1694.0H930.5V1914.0Q930.5 1926.0 895.0 1946.5Q859.5 1967.0 805.0 1983.5Q750.5 2000.0 693.5 2000.0H654.5V1340.0L629.5 1342.0H593.5V769.0L869.5 875.0H1574.5L1637.5 808.0L1401.5 812.0H1137.5Q1015.5 812.0 951.5 796.5Q887.5 781.0 864.0 740.5Q840.5 700.0 840.5 625.0V603.0L576.5 617.0ZM1197.5 375.0H1643.5L1729.5 289.0H1197.5ZM1645.5 433.0H1404.5L1531.5 529.0Q1524.5 562.0 1479.5 566.0L1107.5 586.0V605.0Q1107.5 623.0 1119.0 629.5Q1130.5 636.0 1182.5 636.0H1430.5Q1485.5 636.0 1541.0 635.5Q1596.5 635.0 1625.5 634.0Q1648.5 632.0 1665.5 628.0Q1682.5 624.0 1694.5 615.0Q1720.5 596.0 1756.5 545.0Q1714.5 561.0 1672.0 574.0Q1629.5 587.0 1594.5 595.0L1576.5 582.0Q1592.5 553.0 1611.5 512.0Q1630.5 471.0 1645.5 433.0ZM1313.5 433.0H1107.5V531.0L1248.5 523.0ZM1094.5 1191.0V1088.0H855.5V1191.0ZM1361.5 1191.0H1592.5V1088.0H1361.5ZM1094.5 1031.0V933.0H855.5V1031.0ZM1361.5 1031.0H1592.5V933.0H1361.5ZM855.5 1248.0V1264.0Q855.5 1276.0 818.5 1293.0L945.5 1342.0H1492.5L1576.5 1248.0ZM930.5 1547.0V1637.0H1512.5V1547.0ZM930.5 1490.0H1512.5V1399.0H930.5Z" fill="black"></path></svg>