<?xml version="1.0" standalone="no"?>
<!DOCTYPE svg PUBLIC "-//W3C//DTD SVG 1.1//EN" "http://www.w3.org/Graphics/SVG/1.1/DTD/svg11.dtd" >
<svg xmlns="http://www.w3.org/2000/svg" xmlns:svg="http://www.w3.org/2000/svg" xmlns:xlink="http://www.w3.org/1999/xlink" viewBox="0 0 2048 2048" style=""><path d="M1125.0 51.0 1526.0 143.0Q1520.0 163.0 1500.5 176.0Q1481.0 189.0 1444.0 190.0Q1416.0 285.0 1382.5 370.5Q1349.0 456.0 1311.0 534.0H1614.0L1755.0 342.0Q1755.0 342.0 1781.5 363.0Q1808.0 384.0 1848.5 417.5Q1889.0 451.0 1933.0 488.5Q1977.0 526.0 2013.0 559.0Q2004.0 592.0 1954.0 592.0H1829.0Q1800.0 817.0 1735.5 1025.0Q1671.0 1233.0 1555.0 1413.0Q1739.0 1607.0 2011.0 1730.0L2005.0 1751.0Q1898.0 1774.0 1836.5 1835.5Q1775.0 1897.0 1747.0 1997.0Q1640.0 1918.0 1555.0 1819.0Q1470.0 1720.0 1405.0 1603.0Q1292.0 1726.0 1138.0 1825.0Q984.0 1924.0 783.0 1997.0L770.0 1978.0Q956.0 1857.0 1087.5 1707.0Q1219.0 1557.0 1305.0 1386.0Q1254.0 1253.0 1219.0 1102.0Q1184.0 951.0 1159.0 786.0Q1044.0 943.0 897.0 1052.0L875.0 1038.0Q896.0 992.0 916.5 941.5Q937.0 891.0 957.0 837.0Q920.0 873.0 863.0 874.5Q806.0 876.0 748.0 827.0Q748.0 796.0 744.5 763.5Q741.0 731.0 733.0 700.0Q640.0 748.0 510.5 808.0Q381.0 868.0 209.0 942.0Q188.0 984.0 144.0 991.0L35.0 663.0L250.0 655.0Q262.0 572.0 273.5 478.0Q285.0 384.0 293.0 301.0H53.0L37.0 243.0H654.0L797.0 57.0Q797.0 57.0 823.0 77.5Q849.0 98.0 889.5 130.5Q930.0 163.0 974.0 199.5Q1018.0 236.0 1053.0 268.0Q1050.0 285.0 1033.5 293.0Q1017.0 301.0 996.0 301.0H621.0Q569.0 388.0 509.0 479.5Q449.0 571.0 387.0 649.0L711.0 631.0Q692.0 581.0 668.0 536.5Q644.0 492.0 615.0 456.0L631.0 446.0Q820.0 480.0 904.5 551.0Q989.0 622.0 1002.0 694.0Q1046.0 545.0 1078.5 380.0Q1111.0 215.0 1125.0 51.0ZM41.0 1630.0Q95.0 1624.0 180.0 1613.0Q265.0 1602.0 373.0 1587.0V1263.0H72.0L56.0 1206.0H373.0V913.0L725.0 940.0Q724.0 960.0 711.0 973.5Q698.0 987.0 660.0 993.0V1206.0H664.0L801.0 1026.0Q801.0 1026.0 826.0 1045.5Q851.0 1065.0 890.5 1096.5Q930.0 1128.0 973.0 1163.5Q1016.0 1199.0 1051.0 1231.0Q1042.0 1263.0 994.0 1263.0H660.0V1546.0L1067.0 1485.0L1071.0 1505.0Q945.0 1579.0 743.0 1678.0Q541.0 1777.0 240.0 1904.0Q220.0 1948.0 178.0 1958.0ZM1387.0 1196.0Q1439.0 1051.0 1466.5 899.5Q1494.0 748.0 1503.0 592.0H1282.0Q1262.0 630.0 1239.5 666.5Q1217.0 703.0 1194.0 737.0Q1228.0 866.0 1276.0 981.0Q1324.0 1096.0 1387.0 1196.0Z" fill="black"></path></svg>