<?xml version="1.0" standalone="no"?>
<!DOCTYPE svg PUBLIC "-//W3C//DTD SVG 1.1//EN" "http://www.w3.org/Graphics/SVG/1.1/DTD/svg11.dtd" >
<svg xmlns="http://www.w3.org/2000/svg" xmlns:svg="http://www.w3.org/2000/svg" xmlns:xlink="http://www.w3.org/1999/xlink" viewBox="0 0 2048 2048" style=""><path d="M1194.0 503.0V697.0H1540.0V503.0ZM1194.0 445.0H1540.0V257.0H1194.0ZM146.0 191.0V87.0L447.0 191.0H504.0L623.0 58.0L864.0 247.0Q855.0 257.0 836.5 268.0Q818.0 279.0 791.0 285.0V1453.0Q861.0 1362.0 911.0 1247.5Q961.0 1133.0 991.0 1017.0H815.0L799.0 959.0H1655.0L1776.0 802.0Q1747.0 811.0 1700.0 819.5Q1653.0 828.0 1593.0 828.0H1540.0V754.0H1194.0V810.0Q1194.0 824.0 1134.5 847.5Q1075.0 871.0 969.0 871.0H920.0V89.0L1215.0 199.0H1532.0L1663.0 52.0L1907.0 234.0Q1898.0 248.0 1881.0 258.5Q1864.0 269.0 1829.0 275.0V773.0Q1829.0 783.0 1786.0 795.0Q1797.0 805.0 1836.5 836.5Q1876.0 868.0 1924.0 908.5Q1972.0 949.0 2011.0 984.0Q2005.0 1017.0 1956.0 1017.0H1288.0Q1268.0 1063.0 1242.5 1105.0Q1217.0 1147.0 1188.0 1187.0H1655.0L1784.0 1064.0L2011.0 1250.0Q1999.0 1262.0 1979.5 1272.0Q1960.0 1282.0 1929.0 1287.0Q1918.0 1495.0 1899.0 1623.0Q1880.0 1751.0 1847.5 1822.0Q1815.0 1893.0 1763.0 1930.0Q1671.0 1996.0 1524.0 1996.0Q1524.0 1940.0 1518.0 1896.0Q1512.0 1852.0 1495.0 1828.0Q1477.0 1802.0 1449.5 1783.0Q1422.0 1764.0 1376.0 1752.0V1727.0Q1409.0 1729.0 1456.5 1731.0Q1504.0 1733.0 1530.0 1733.0Q1568.0 1733.0 1587.0 1717.0Q1616.0 1692.0 1637.5 1586.0Q1659.0 1480.0 1671.0 1269.0Q1506.0 1722.0 1020.0 1965.0L1002.0 1938.0Q1160.0 1806.0 1261.5 1626.5Q1363.0 1447.0 1413.0 1244.0H1411.0Q1321.0 1434.0 1161.0 1584.0Q1001.0 1734.0 789.0 1842.0L778.0 1828.0Q758.0 1900.0 695.0 1941.0Q632.0 1982.0 490.0 1996.0Q486.0 1931.0 480.0 1882.0Q474.0 1833.0 459.0 1805.0Q443.0 1776.0 417.0 1754.5Q391.0 1733.0 336.0 1721.0V1695.0Q336.0 1695.0 368.0 1697.0Q400.0 1699.0 437.0 1701.0Q474.0 1703.0 490.0 1703.0Q511.0 1703.0 517.5 1693.0Q524.0 1683.0 524.0 1666.0V1219.0H389.0Q375.0 1357.0 339.5 1494.0Q304.0 1631.0 236.5 1759.0Q169.0 1887.0 59.0 1996.0L37.0 1983.0Q94.0 1804.0 116.5 1599.5Q139.0 1395.0 142.5 1185.5Q146.0 976.0 146.0 781.0ZM1141.0 1244.0Q1070.0 1324.0 982.0 1390.5Q894.0 1457.0 791.0 1514.0V1695.0Q791.0 1725.0 789.0 1751.5Q787.0 1778.0 782.0 1803.0Q905.0 1691.0 997.5 1544.5Q1090.0 1398.0 1145.0 1244.0ZM408.0 249.0V673.0H524.0V249.0ZM408.0 730.0V781.0Q408.0 869.0 406.5 965.5Q405.0 1062.0 395.0 1162.0H524.0V730.0Z" fill="black"></path></svg>