<?xml version="1.0" standalone="no"?>
<!DOCTYPE svg PUBLIC "-//W3C//DTD SVG 1.1//EN" "http://www.w3.org/Graphics/SVG/1.1/DTD/svg11.dtd" >
<svg xmlns="http://www.w3.org/2000/svg" xmlns:svg="http://www.w3.org/2000/svg" xmlns:xlink="http://www.w3.org/1999/xlink" viewBox="0 0 2048 2048" style=""><path d="M581.0 1142.0V718.0H454.0V849.0Q454.0 919.0 453.0 992.5Q452.0 1066.0 448.0 1142.0ZM194.0 167.0V83.0L495.0 187.0H562.0L679.0 56.0L917.0 243.0Q899.0 267.0 847.0 279.0V1688.0Q847.0 1780.0 827.0 1843.0Q807.0 1906.0 743.0 1942.0Q679.0 1978.0 546.0 1990.0Q544.0 1927.0 537.5 1878.0Q531.0 1829.0 517.0 1801.0Q502.0 1772.0 476.0 1751.0Q450.0 1730.0 394.0 1719.0V1691.0Q394.0 1691.0 425.5 1693.0Q457.0 1695.0 494.0 1697.0Q531.0 1699.0 546.0 1699.0Q567.0 1699.0 574.0 1689.0Q581.0 1679.0 581.0 1662.0V1199.0H441.0Q429.0 1340.0 393.0 1481.0Q357.0 1622.0 282.5 1752.0Q208.0 1882.0 79.0 1992.0L56.0 1979.0Q126.0 1815.0 154.5 1626.5Q183.0 1438.0 188.5 1240.0Q194.0 1042.0 194.0 851.0ZM581.0 660.0V245.0H454.0V660.0ZM1250.0 1897.0Q1250.0 1912.0 1215.5 1933.0Q1181.0 1954.0 1127.0 1970.5Q1073.0 1987.0 1015.0 1987.0H974.0V961.0L1261.0 1074.0H1564.0L1689.0 937.0L1947.0 1133.0Q1936.0 1146.0 1916.5 1158.0Q1897.0 1170.0 1865.0 1176.0V1903.0Q1864.0 1912.0 1825.0 1928.0Q1786.0 1944.0 1731.5 1957.5Q1677.0 1971.0 1631.0 1971.0H1584.0V1809.0H1250.0ZM1584.0 1131.0H1250.0V1412.0H1584.0ZM1584.0 1752.0V1469.0H1250.0V1752.0ZM1295.0 83.0Q1292.0 127.0 1230.0 136.0V406.0Q1345.0 333.0 1446.5 249.5Q1548.0 166.0 1607.0 95.0L1910.0 302.0Q1895.0 319.0 1863.0 324.0Q1831.0 329.0 1779.0 318.0Q1677.0 367.0 1533.5 413.5Q1390.0 460.0 1230.0 492.0V630.0Q1230.0 654.0 1244.5 663.5Q1259.0 673.0 1310.0 673.0H1529.0Q1581.0 673.0 1626.5 671.5Q1672.0 670.0 1697.0 669.0Q1741.0 669.0 1762.0 644.0Q1782.0 619.0 1808.5 564.0Q1835.0 509.0 1867.0 429.0H1887.0L1896.0 648.0Q1952.0 670.0 1972.0 695.0Q1992.0 720.0 1992.0 759.0Q1992.0 816.0 1949.5 852.0Q1907.0 888.0 1800.0 905.5Q1693.0 923.0 1498.0 923.0H1261.0Q1141.0 923.0 1075.5 905.0Q1010.0 887.0 985.0 838.0Q960.0 789.0 960.0 697.0V56.0Z" fill="black"></path></svg>