<?xml version="1.0" standalone="no"?>
<!DOCTYPE svg PUBLIC "-//W3C//DTD SVG 1.1//EN" "http://www.w3.org/Graphics/SVG/1.1/DTD/svg11.dtd" >
<svg xmlns="http://www.w3.org/2000/svg" xmlns:svg="http://www.w3.org/2000/svg" xmlns:xlink="http://www.w3.org/1999/xlink" viewBox="0 0 2048 2048" style=""><path d="M314.0 346.5V712.5H388.0V346.5ZM1402.0 1265.5V1175.5L1623.0 1265.5H1672.0L1770.0 1161.5L1973.0 1314.5Q1965.0 1324.5 1948.5 1334.0Q1932.0 1343.5 1908.0 1347.5V1917.5Q1906.0 1924.5 1876.0 1937.5Q1846.0 1950.5 1804.5 1961.5Q1763.0 1972.5 1727.0 1972.5H1690.0V1869.5H1615.0V1929.5Q1615.0 1939.5 1588.5 1955.5Q1562.0 1971.5 1520.0 1984.0Q1478.0 1996.5 1432.0 1996.5H1402.0V1321.5Q1381.0 1341.5 1332.0 1353.5V1919.5Q1331.0 1926.5 1301.0 1939.0Q1271.0 1951.5 1230.5 1962.0Q1190.0 1972.5 1156.0 1972.5H1119.0V1857.5H1053.0V1927.5Q1053.0 1937.5 1025.5 1954.0Q998.0 1970.5 954.5 1983.5Q911.0 1996.5 865.0 1996.5H832.0V1765.5H314.0V1894.5Q314.0 1908.5 262.0 1939.5Q210.0 1970.5 118.0 1970.5H75.0V141.5L343.0 288.5H568.0L705.0 90.5Q705.0 90.5 730.0 112.5Q755.0 134.5 793.5 169.0Q832.0 203.5 873.5 242.0Q915.0 280.5 947.0 313.5Q941.0 346.5 890.0 346.5H621.0V692.5L711.0 600.5L914.0 772.5Q905.0 783.5 886.0 794.0Q867.0 804.5 843.0 809.5V1177.5L1060.0 1265.5H1101.0L1199.0 1159.5L1402.0 1312.5ZM314.0 1708.5H386.0V1233.5H314.0ZM832.0 1265.5V1253.5Q817.0 1261.5 762.0 1277.0Q707.0 1292.5 644.0 1292.5H619.0V1708.5H623.0L732.0 1532.5L832.0 1636.5ZM314.0 770.5V1175.5H597.0V770.5ZM1119.0 1800.5V1323.5H1053.0V1800.5ZM1013.0 51.5 1373.0 174.5Q1367.0 191.5 1346.5 203.0Q1326.0 214.5 1291.0 213.5Q1260.0 271.5 1217.0 329.5H1570.0L1711.0 135.5Q1711.0 135.5 1737.0 157.0Q1763.0 178.5 1802.5 212.0Q1842.0 245.5 1885.0 283.5Q1928.0 321.5 1963.0 354.5Q1954.0 387.5 1905.0 387.5H1176.0Q1124.0 454.5 1066.0 516.5L1264.0 592.5H1506.0L1625.0 458.5L1850.0 626.5Q1841.0 640.5 1824.5 650.0Q1808.0 659.5 1774.0 665.5V1058.5Q1774.0 1066.5 1717.5 1087.5Q1661.0 1108.5 1559.0 1108.5H1512.0V1026.5H1244.0V1079.5Q1244.0 1091.5 1190.0 1113.0Q1136.0 1134.5 1041.0 1134.5H996.0V579.5Q959.0 612.5 920.5 641.0Q882.0 669.5 840.0 692.5L816.0 678.5Q862.0 597.5 901.0 491.5Q940.0 385.5 968.5 271.0Q997.0 156.5 1013.0 51.5ZM1244.0 968.5H1512.0V649.5H1244.0ZM1690.0 1812.5V1323.5H1615.0V1812.5Z" fill="black"></path></svg>