<?xml version="1.0" standalone="no"?>
<!DOCTYPE svg PUBLIC "-//W3C//DTD SVG 1.1//EN" "http://www.w3.org/Graphics/SVG/1.1/DTD/svg11.dtd" >
<svg xmlns="http://www.w3.org/2000/svg" xmlns:svg="http://www.w3.org/2000/svg" xmlns:xlink="http://www.w3.org/1999/xlink" viewBox="0 0 2048 2048" style=""><path d="M855.5 1064.0 1218.5 1094.0Q1215.5 1113.0 1202.5 1127.0Q1189.5 1141.0 1152.5 1146.0V1318.0H1193.5L1314.5 1170.0Q1314.5 1170.0 1353.0 1198.0Q1391.5 1226.0 1444.0 1266.0Q1496.5 1306.0 1539.5 1342.0Q1530.5 1375.0 1482.5 1375.0H1152.5V1588.0H1388.5L1527.5 1420.0Q1527.5 1420.0 1553.0 1438.5Q1578.5 1457.0 1618.5 1486.5Q1658.5 1516.0 1702.0 1549.5Q1745.5 1583.0 1781.5 1612.0Q1772.5 1645.0 1724.5 1645.0H1152.5V1932.0Q1152.5 1941.0 1115.0 1957.0Q1077.5 1973.0 1021.5 1986.5Q965.5 2000.0 909.5 2000.0H855.5V1645.0H288.5L272.5 1588.0H855.5V1375.0H534.5L517.5 1318.0H855.5ZM763.5 613.0 1029.5 638.0Q1026.5 671.0 980.5 679.0V941.0H1044.5V507.0H993.5V527.0Q993.5 534.0 965.0 546.5Q936.5 559.0 894.5 568.5Q852.5 578.0 812.5 578.0H771.5V472.0Q768.5 486.0 755.0 492.0Q741.5 498.0 724.5 498.0H524.5L530.5 689.0H563.5L653.5 574.0L763.5 666.0ZM522.5 441.0H542.5L626.5 339.0Q626.5 339.0 651.0 358.0Q675.5 377.0 709.5 405.5Q743.5 434.0 771.5 462.0V271.0L767.5 269.0Q729.5 277.0 660.5 285.0Q591.5 293.0 517.5 298.0ZM771.5 56.0 1042.5 81.0Q1039.5 94.0 1029.5 105.5Q1019.5 117.0 993.5 122.0V271.0H1070.5L1167.5 144.0L1285.5 244.0L1271.5 201.0H1464.5L1572.5 70.0L1834.5 265.0Q1822.5 280.0 1807.0 287.5Q1791.5 295.0 1759.5 300.0L1730.5 922.0L1830.5 773.0Q1830.5 773.0 1865.5 805.0Q1900.5 837.0 1947.0 881.5Q1993.5 926.0 2029.5 965.0Q2020.5 998.0 1974.5 998.0H1408.5Q1477.5 1057.0 1573.5 1102.5Q1669.5 1148.0 1778.5 1178.0Q1887.5 1208.0 1994.5 1221.0L1992.5 1244.0Q1836.5 1292.0 1795.5 1502.0Q1628.5 1424.0 1521.0 1300.0Q1413.5 1176.0 1347.5 998.0H831.5Q713.5 1175.0 505.0 1302.5Q296.5 1430.0 32.5 1508.0L18.5 1486.0Q171.5 1395.0 291.5 1265.0Q411.5 1135.0 485.5 998.0H53.5L36.5 941.0H266.5L241.5 154.0L472.5 222.0Q517.5 176.0 560.5 126.5Q603.5 77.0 626.5 48.0L771.5 199.0ZM1304.5 441.0H1474.5L1482.5 259.0H1302.5L1341.5 296.0Q1335.5 328.0 1288.5 328.0H993.5V449.0H1027.5L1134.5 343.0L1316.5 480.0ZM763.5 746.0H532.5L538.5 941.0H763.5ZM1300.5 689.0H1462.5L1470.5 498.0H1341.5Q1335.5 506.0 1321.5 514.0Q1307.5 522.0 1285.5 527.0V941.0H1449.5L1460.5 746.0H1318.5Z" fill="black"></path></svg>