<?xml version="1.0" standalone="no"?>
<!DOCTYPE svg PUBLIC "-//W3C//DTD SVG 1.1//EN" "http://www.w3.org/Graphics/SVG/1.1/DTD/svg11.dtd" >
<svg xmlns="http://www.w3.org/2000/svg" xmlns:svg="http://www.w3.org/2000/svg" xmlns:xlink="http://www.w3.org/1999/xlink" viewBox="0 0 2048 2048" style=""><path d="M70.0 839.0H870.0V512.0L1225.0 540.0Q1222.0 559.0 1211.0 571.0Q1200.0 583.0 1167.0 588.0V839.0H1577.0L1722.0 651.0Q1722.0 651.0 1748.5 672.0Q1775.0 693.0 1815.5 725.5Q1856.0 758.0 1901.0 795.0Q1946.0 832.0 1982.0 864.0Q1974.0 897.0 1923.0 897.0H1167.0V1249.0H1368.0L1499.0 1106.0L1765.0 1308.0Q1756.0 1321.0 1737.0 1334.0Q1718.0 1347.0 1686.0 1353.0V1896.0Q1684.0 1905.0 1644.0 1924.0Q1604.0 1943.0 1547.0 1958.5Q1490.0 1974.0 1440.0 1974.0H1389.0V1825.0H672.0V1906.0Q672.0 1920.0 634.5 1941.5Q597.0 1963.0 539.5 1980.0Q482.0 1997.0 422.0 1997.0H381.0V1132.0L690.0 1249.0H870.0V897.0H86.0ZM53.0 346.0H512.0V51.0L872.0 82.0Q871.0 102.0 856.0 116.5Q841.0 131.0 801.0 137.0V346.0H1225.0V51.0L1591.0 82.0Q1590.0 102.0 1575.0 116.5Q1560.0 131.0 1520.0 137.0V346.0H1602.0L1743.0 149.0Q1743.0 149.0 1769.5 170.5Q1796.0 192.0 1836.0 226.0Q1876.0 260.0 1919.0 298.5Q1962.0 337.0 1995.0 370.0Q1989.0 403.0 1937.0 403.0H1520.0V596.0Q1520.0 608.0 1485.5 623.5Q1451.0 639.0 1394.5 650.0Q1338.0 661.0 1272.0 661.0H1225.0V403.0H801.0V608.0Q801.0 619.0 767.0 634.5Q733.0 650.0 678.0 662.0Q623.0 674.0 559.0 674.0H512.0V403.0H68.0ZM672.0 1767.0H1389.0V1306.0H672.0Z" fill="black"></path></svg>