<?xml version="1.0" standalone="no"?>
<!DOCTYPE svg PUBLIC "-//W3C//DTD SVG 1.1//EN" "http://www.w3.org/Graphics/SVG/1.1/DTD/svg11.dtd" >
<svg xmlns="http://www.w3.org/2000/svg" xmlns:svg="http://www.w3.org/2000/svg" xmlns:xlink="http://www.w3.org/1999/xlink" viewBox="0 0 2048 2048" style=""><path d="M48.0 325.0H534.0V53.0L892.0 84.0Q891.0 104.0 876.5 117.5Q862.0 131.0 822.0 137.0V325.0H1193.0V53.0L1560.0 84.0Q1558.0 104.0 1543.0 117.5Q1528.0 131.0 1488.0 137.0V325.0H1601.0L1740.0 135.0Q1740.0 135.0 1765.5 155.5Q1791.0 176.0 1830.5 209.0Q1870.0 242.0 1912.5 279.5Q1955.0 317.0 1988.0 350.0Q1979.0 383.0 1930.0 383.0H1488.0V547.0Q1488.0 565.0 1414.0 586.5Q1340.0 608.0 1240.0 608.0H1193.0V590.0Q1178.0 601.0 1152.0 604.0V819.0H1451.0L1592.0 631.0Q1592.0 631.0 1618.5 651.5Q1645.0 672.0 1685.5 705.0Q1726.0 738.0 1770.0 774.5Q1814.0 811.0 1851.0 844.0Q1842.0 876.0 1791.0 876.0H1152.0V889.0Q1151.0 965.0 1144.5 1041.5Q1138.0 1118.0 1121.0 1194.0H1547.0L1693.0 1001.0Q1693.0 1001.0 1720.0 1022.0Q1747.0 1043.0 1788.5 1076.5Q1830.0 1110.0 1875.0 1147.5Q1920.0 1185.0 1957.0 1218.0Q1948.0 1251.0 1898.0 1251.0H1130.0Q1206.0 1405.0 1340.5 1495.0Q1475.0 1585.0 1645.5 1631.5Q1816.0 1678.0 2000.0 1702.0V1724.0Q1825.0 1776.0 1775.0 1995.0Q1603.0 1932.0 1471.5 1845.0Q1340.0 1758.0 1247.0 1623.0Q1154.0 1488.0 1099.0 1282.0Q1063.0 1400.0 991.5 1508.0Q920.0 1616.0 800.0 1708.5Q680.0 1801.0 500.5 1872.5Q321.0 1944.0 69.0 1990.0L61.0 1970.0Q310.0 1879.0 465.0 1765.0Q620.0 1651.0 702.5 1521.0Q785.0 1391.0 818.0 1251.0H85.0L69.0 1194.0H831.0Q844.0 1118.0 849.5 1040.5Q855.0 963.0 855.0 887.0V876.0H237.0L220.0 819.0H855.0V514.0L1193.0 547.0V383.0H822.0V559.0Q822.0 570.0 788.5 584.5Q755.0 599.0 699.5 609.5Q644.0 620.0 581.0 620.0H534.0V383.0H63.0Z" fill="black"></path></svg>