<?xml version="1.0" standalone="no"?>
<!DOCTYPE svg PUBLIC "-//W3C//DTD SVG 1.1//EN" "http://www.w3.org/Graphics/SVG/1.1/DTD/svg11.dtd" >
<svg xmlns="http://www.w3.org/2000/svg" xmlns:svg="http://www.w3.org/2000/svg" xmlns:xlink="http://www.w3.org/1999/xlink" viewBox="0 0 2048 2048" style=""><path d="M1089.0 385.5H754.0Q655.0 515.5 530.0 633.5L631.0 670.5H979.0Q1010.0 611.5 1039.5 531.5Q1069.0 451.5 1089.0 385.5ZM567.0 68.5 969.0 164.5Q962.0 182.5 946.0 190.5Q930.0 198.5 887.0 197.5Q867.0 229.5 844.5 263.0Q822.0 296.5 799.0 328.5H1081.0L1231.0 176.5L1491.0 395.5Q1471.0 420.5 1409.0 426.5Q1334.0 488.5 1236.0 555.5Q1138.0 622.5 1036.0 670.5H1448.0L1581.0 522.5L1857.0 731.5Q1847.0 745.5 1825.0 760.0Q1803.0 774.5 1767.0 780.5V1294.5Q1766.0 1303.5 1725.5 1321.0Q1685.0 1338.5 1628.5 1353.5Q1572.0 1368.5 1522.0 1368.5H1470.0V1233.5H602.0V1604.5Q602.0 1659.5 644.0 1681.0Q686.0 1702.5 792.0 1702.5H1450.0Q1536.0 1702.5 1586.0 1693.0Q1636.0 1683.5 1671.0 1651.5Q1702.0 1617.5 1744.0 1539.0Q1786.0 1460.5 1823.0 1374.5H1843.0L1845.0 1651.5Q1936.0 1678.5 1971.5 1700.0Q2007.0 1721.5 2007.0 1766.5Q2007.0 1831.5 1965.0 1879.5Q1923.0 1927.5 1809.0 1953.5Q1695.0 1979.5 1476.0 1979.5H801.0Q631.0 1979.5 522.5 1945.0Q414.0 1910.5 362.5 1827.0Q311.0 1743.5 311.0 1596.5V817.5Q250.0 862.5 185.5 902.0Q121.0 941.5 55.0 973.5L41.0 959.5Q121.0 882.5 199.5 777.5Q278.0 672.5 348.5 552.5Q419.0 432.5 475.0 308.5Q531.0 184.5 567.0 68.5ZM889.0 727.5H602.0V1176.5H889.0ZM1173.0 727.5V1176.5H1470.0V727.5Z" fill="black"></path></svg>