<?xml version="1.0" standalone="no"?>
<!DOCTYPE svg PUBLIC "-//W3C//DTD SVG 1.1//EN" "http://www.w3.org/Graphics/SVG/1.1/DTD/svg11.dtd" >
<svg xmlns="http://www.w3.org/2000/svg" xmlns:svg="http://www.w3.org/2000/svg" xmlns:xlink="http://www.w3.org/1999/xlink" viewBox="0 0 2048 2048" style=""><path d="M431.5 52.0 810.5 161.0Q804.5 176.0 788.5 183.0Q772.5 190.0 730.5 185.0Q704.5 216.0 674.5 246.5Q644.5 277.0 612.5 308.0H1515.5L1654.5 120.0Q1654.5 120.0 1679.5 140.5Q1704.5 161.0 1743.5 194.0Q1782.5 227.0 1824.5 263.5Q1866.5 300.0 1900.5 333.0Q1891.5 365.0 1842.5 365.0H1656.5V644.0H1670.5L1787.5 455.0Q1787.5 455.0 1823.5 491.0Q1859.5 527.0 1906.5 576.5Q1953.5 626.0 1988.5 668.0Q1979.5 701.0 1933.5 701.0H1656.5V929.0L1744.5 806.0Q1744.5 806.0 1769.0 826.0Q1793.5 846.0 1830.5 877.5Q1867.5 909.0 1908.5 945.0Q1949.5 981.0 1982.5 1012.0Q1973.5 1045.0 1924.5 1045.0H1505.5L1689.5 1062.0Q1686.5 1080.0 1672.5 1093.5Q1658.5 1107.0 1621.5 1113.0V1232.0H1634.5L1744.5 1064.0Q1744.5 1064.0 1779.5 1096.0Q1814.5 1128.0 1861.0 1173.0Q1907.5 1218.0 1943.5 1256.0Q1934.5 1289.0 1888.5 1289.0H1621.5V1621.0H1642.5L1767.5 1430.0Q1767.5 1430.0 1790.5 1451.5Q1813.5 1473.0 1848.5 1506.5Q1883.5 1540.0 1921.5 1577.0Q1959.5 1614.0 1988.5 1645.0Q1982.5 1678.0 1933.5 1678.0H1621.5V1928.0Q1621.5 1938.0 1586.5 1954.0Q1551.5 1970.0 1499.0 1983.0Q1446.5 1996.0 1394.5 1996.0H1345.5V1678.0H849.5L833.5 1621.0H1011.5V1289.0H966.5L935.5 1293.0Q835.5 1540.0 627.5 1721.5Q419.5 1903.0 79.5 1993.0L67.5 1967.0Q208.5 1899.0 318.0 1805.5Q427.5 1712.0 507.5 1600.0Q476.5 1609.0 441.0 1603.5Q405.5 1598.0 370.5 1572.0Q367.5 1502.0 335.5 1438.0Q275.5 1481.0 211.0 1517.5Q146.5 1554.0 75.5 1582.0L59.5 1565.0Q165.5 1476.0 249.5 1333.5Q333.5 1191.0 376.5 1045.0H102.5L85.5 988.0H364.5V701.0H83.5L67.5 644.0H364.5V490.0Q255.5 555.0 141.5 599.0L126.5 584.0Q190.5 522.0 250.5 433.0Q310.5 344.0 358.0 244.5Q405.5 145.0 431.5 52.0ZM628.5 701.0V988.0H706.5V701.0ZM628.5 644.0H706.5V365.0H628.5ZM962.5 701.0V988.0H1048.5V701.0ZM962.5 644.0H1048.5V365.0H962.5ZM1304.5 701.0V988.0H1394.5V701.0ZM1304.5 644.0H1394.5V365.0H1304.5ZM1345.5 1045.0H616.5L730.5 1066.0Q726.5 1083.0 711.0 1091.5Q695.5 1100.0 655.5 1098.0Q624.5 1150.0 583.5 1201.0H665.5L794.5 1074.0L978.5 1232.0H1345.5ZM1257.5 1289.0V1621.0H1345.5V1289.0ZM536.5 1258.0Q510.5 1287.0 481.5 1316.0Q452.5 1345.0 421.5 1371.0Q498.5 1383.0 538.0 1408.5Q577.5 1434.0 589.5 1465.0Q615.5 1416.0 636.0 1364.0Q656.5 1312.0 673.5 1258.0Z" fill="black"></path></svg>