<?xml version="1.0" standalone="no"?>
<!DOCTYPE svg PUBLIC "-//W3C//DTD SVG 1.1//EN" "http://www.w3.org/Graphics/SVG/1.1/DTD/svg11.dtd" >
<svg xmlns="http://www.w3.org/2000/svg" xmlns:svg="http://www.w3.org/2000/svg" xmlns:xlink="http://www.w3.org/1999/xlink" viewBox="0 0 2048 2048" style=""><path d="M50.0 326.5H558.0V54.5L919.0 85.5Q917.0 105.5 902.0 119.0Q887.0 132.5 847.0 138.5V326.5H1173.0V54.5L1539.0 85.5Q1538.0 105.5 1522.5 119.0Q1507.0 132.5 1468.0 138.5V326.5H1603.0L1744.0 136.5Q1744.0 136.5 1769.5 157.0Q1795.0 177.5 1834.0 210.5Q1873.0 243.5 1915.0 281.0Q1957.0 318.5 1990.0 351.5Q1984.0 384.5 1932.0 384.5H1468.0V546.5Q1468.0 558.5 1433.0 573.5Q1398.0 588.5 1341.5 599.0Q1285.0 609.5 1220.0 609.5H1173.0V384.5H847.0V558.5Q847.0 575.5 781.0 597.0Q715.0 618.5 626.0 621.5L749.0 662.5Q735.0 704.5 665.0 701.5Q649.0 735.5 633.5 767.5Q618.0 799.5 601.0 830.5H730.0L872.0 685.5L1085.0 867.5V623.5L1379.0 734.5H1527.0L1646.0 599.5L1906.0 793.5Q1897.0 806.5 1876.5 818.5Q1856.0 830.5 1824.0 836.5V1221.5Q1824.0 1307.5 1803.5 1369.0Q1783.0 1430.5 1716.5 1467.0Q1650.0 1503.5 1513.0 1514.5Q1511.0 1451.5 1505.0 1405.5Q1499.0 1359.5 1484.0 1328.5Q1469.0 1300.5 1442.5 1279.0Q1416.0 1257.5 1359.0 1246.5V1219.5Q1359.0 1219.5 1390.0 1221.5Q1421.0 1223.5 1458.0 1226.0Q1495.0 1228.5 1515.0 1228.5Q1547.0 1228.5 1547.0 1193.5V791.5H1351.0V1615.5Q1351.0 1642.5 1365.5 1653.5Q1380.0 1664.5 1425.0 1664.5H1590.0Q1630.0 1664.5 1667.0 1663.0Q1704.0 1661.5 1724.0 1660.5Q1762.0 1660.5 1785.0 1637.5Q1803.0 1616.5 1828.0 1562.0Q1853.0 1507.5 1879.0 1436.5H1900.0L1910.0 1643.5Q1964.0 1666.5 1983.0 1692.0Q2002.0 1717.5 2002.0 1754.5Q2002.0 1809.5 1962.5 1846.5Q1923.0 1883.5 1826.5 1902.0Q1730.0 1920.5 1560.0 1920.5H1363.0Q1252.0 1920.5 1192.0 1901.5Q1132.0 1882.5 1108.5 1831.5Q1085.0 1780.5 1085.0 1686.5V924.5Q1066.0 932.5 1037.0 935.5Q999.0 1115.5 931.0 1277.5Q863.0 1439.5 751.5 1576.5Q640.0 1713.5 472.5 1819.5Q305.0 1925.5 67.0 1993.5L52.0 1971.5Q258.0 1865.5 394.5 1713.5Q531.0 1561.5 613.0 1377.5Q581.0 1397.5 537.5 1396.5Q494.0 1395.5 448.0 1365.5Q440.0 1309.5 415.0 1252.5Q390.0 1195.5 357.0 1146.5Q291.0 1209.5 218.0 1259.5Q145.0 1309.5 67.0 1350.5L46.0 1332.5Q122.0 1240.5 191.0 1116.0Q260.0 991.5 313.5 845.5Q367.0 699.5 396.0 543.5L558.0 599.5V384.5H65.0ZM419.0 1082.5Q536.0 1099.5 595.0 1140.5Q654.0 1181.5 671.0 1228.5Q697.0 1146.5 715.5 1062.0Q734.0 977.5 747.0 888.5H566.0Q497.0 998.5 419.0 1082.5Z" fill="black"></path></svg>