<?xml version="1.0" standalone="no"?>
<!DOCTYPE svg PUBLIC "-//W3C//DTD SVG 1.1//EN" "http://www.w3.org/Graphics/SVG/1.1/DTD/svg11.dtd" >
<svg xmlns="http://www.w3.org/2000/svg" xmlns:svg="http://www.w3.org/2000/svg" xmlns:xlink="http://www.w3.org/1999/xlink" viewBox="0 0 2048 2048" style=""><path d="M1100.5 1509.0Q1363.5 1525.0 1528.0 1568.5Q1692.5 1612.0 1777.0 1670.5Q1861.5 1729.0 1883.5 1789.0Q1905.5 1849.0 1882.5 1899.0Q1859.5 1949.0 1808.5 1977.0Q1757.5 2005.0 1695.5 1997.5Q1633.5 1990.0 1579.5 1935.0Q1544.5 1875.0 1483.5 1803.0Q1422.5 1731.0 1327.0 1660.0Q1231.5 1589.0 1092.5 1532.0ZM21.5 1388.0H234.5L205.5 160.0L449.5 223.0Q486.5 172.0 520.0 122.0Q553.5 72.0 570.5 43.0L750.5 233.0V73.0L1043.5 100.0Q1041.5 117.0 1030.0 129.0Q1018.5 141.0 986.5 145.0V334.0H1082.5L1188.5 190.0Q1188.5 190.0 1221.5 217.5Q1254.5 245.0 1298.5 284.0Q1342.5 323.0 1377.5 358.0Q1371.5 391.0 1323.5 391.0H986.5V643.0H1041.5L1147.5 536.0L1350.5 692.0Q1342.5 700.0 1328.5 708.0Q1314.5 716.0 1293.5 721.0V1388.0H1493.5L1502.5 1077.0H1360.5L1342.5 1020.0H1502.5L1510.5 680.0H1369.5L1350.5 622.0H1512.5L1518.5 286.0H1364.5L1346.5 229.0H1498.5L1610.5 88.0L1872.5 297.0Q1860.5 312.0 1843.5 319.5Q1826.5 327.0 1790.5 334.0L1766.5 1378.0L1856.5 1233.0Q1856.5 1233.0 1886.5 1263.0Q1916.5 1293.0 1956.5 1335.0Q1996.5 1377.0 2026.5 1413.0Q2017.5 1446.0 1973.5 1446.0H633.5L977.5 1595.0Q967.5 1615.0 939.0 1627.0Q910.5 1639.0 854.5 1634.0Q724.5 1748.0 512.0 1845.0Q299.5 1942.0 54.5 2001.0L46.5 1980.0Q163.5 1913.0 272.5 1821.0Q381.5 1729.0 467.5 1631.0Q553.5 1533.0 605.5 1446.0H37.5ZM750.5 856.0 1016.5 880.0Q1013.5 913.0 967.5 923.0V1388.0H1057.5V700.0H986.5V737.0Q986.5 745.0 956.0 758.5Q925.5 772.0 881.0 782.0Q836.5 792.0 793.5 792.0H750.5V289.0Q740.5 289.0 719.5 278.0Q682.5 288.0 616.5 300.0Q550.5 312.0 478.5 321.0L486.5 622.0H498.5L582.5 491.0Q582.5 491.0 608.0 517.0Q633.5 543.0 668.0 579.0Q702.5 615.0 728.5 647.0Q719.5 680.0 676.5 680.0H488.5L496.5 1020.0H504.5L590.5 882.0Q590.5 882.0 617.5 909.0Q644.5 936.0 680.0 973.5Q715.5 1011.0 742.5 1044.0Q736.5 1077.0 691.5 1077.0H496.5L504.5 1388.0H750.5Z" fill="black"></path></svg>