<?xml version="1.0" standalone="no"?>
<!DOCTYPE svg PUBLIC "-//W3C//DTD SVG 1.1//EN" "http://www.w3.org/Graphics/SVG/1.1/DTD/svg11.dtd" >
<svg xmlns="http://www.w3.org/2000/svg" xmlns:svg="http://www.w3.org/2000/svg" xmlns:xlink="http://www.w3.org/1999/xlink" viewBox="0 0 2048 2048" style=""><path d="M461.0 364.0 565.0 391.0V309.0H102.0L88.0 252.0H565.0V51.0L917.0 82.0Q914.0 102.0 900.0 115.5Q886.0 129.0 846.0 135.0V252.0H1186.0V51.0L1544.0 80.0Q1543.0 101.0 1527.5 115.0Q1512.0 129.0 1472.0 135.0V252.0H1612.0L1739.0 90.0Q1739.0 90.0 1777.0 120.5Q1815.0 151.0 1867.0 194.0Q1919.0 237.0 1960.0 276.0Q1954.0 309.0 1905.0 309.0H1472.0V381.0Q1472.0 393.0 1414.5 409.0Q1357.0 425.0 1264.0 428.0L1282.0 430.0Q1271.0 481.0 1200.0 487.0L1061.0 571.0H1413.0L1548.0 411.0Q1548.0 411.0 1590.5 441.0Q1633.0 471.0 1691.5 514.0Q1750.0 557.0 1798.0 596.0Q1789.0 629.0 1741.0 629.0H1483.0Q1498.0 641.0 1535.0 668.5Q1572.0 696.0 1616.5 729.5Q1661.0 763.0 1698.0 792.0Q1689.0 825.0 1642.0 825.0H1483.0Q1498.0 837.0 1535.0 865.0Q1572.0 893.0 1616.5 926.0Q1661.0 959.0 1698.0 989.0Q1689.0 1022.0 1647.0 1022.0Q1683.0 1048.0 1749.5 1097.5Q1816.0 1147.0 1870.0 1190.0Q1861.0 1222.0 1812.0 1222.0H879.0L1077.0 1397.0Q1040.0 1427.0 956.0 1397.0Q828.0 1433.0 651.0 1458.0Q637.0 1472.0 598.0 1478.0V1601.0H741.0L856.0 1462.0Q856.0 1462.0 892.0 1488.5Q928.0 1515.0 977.5 1553.0Q1027.0 1591.0 1067.0 1626.0Q1058.0 1659.0 1012.0 1659.0H598.0V1818.0H1483.0V1659.0H1157.0L1139.0 1601.0H1483.0V1446.0H1124.0L1106.0 1388.0H1462.0L1587.0 1255.0L1841.0 1446.0Q1833.0 1456.0 1815.0 1467.0Q1797.0 1478.0 1769.0 1485.0V1913.0Q1768.0 1920.0 1728.0 1934.5Q1688.0 1949.0 1633.0 1961.5Q1578.0 1974.0 1532.0 1974.0H1483.0V1876.0H598.0V1933.0Q596.0 1942.0 536.5 1969.5Q477.0 1997.0 360.0 1997.0H317.0V1349.0L524.0 1403.0Q612.0 1363.0 695.5 1314.0Q779.0 1265.0 836.0 1222.0H682.0V1247.0Q682.0 1256.0 654.5 1276.0Q627.0 1296.0 575.5 1312.5Q524.0 1329.0 453.0 1329.0H401.0V819.0Q334.0 870.0 259.0 913.5Q184.0 957.0 104.0 989.0L88.0 973.0Q170.0 903.0 243.0 803.0Q316.0 703.0 372.5 589.0Q429.0 475.0 461.0 364.0ZM1464.0 629.0H1188.0V768.0H1345.0ZM907.0 629.0H682.0V768.0H907.0ZM905.0 375.0 1186.0 416.0V309.0H846.0V389.0Q846.0 398.0 813.0 410.0Q780.0 422.0 723.0 430.0L803.0 450.0Q798.0 467.0 782.0 473.5Q766.0 480.0 725.0 477.0L670.0 555.0L711.0 571.0H889.0Q893.0 525.0 897.5 471.5Q902.0 418.0 905.0 375.0ZM1601.0 1022.0H1188.0V1165.0H1481.0ZM907.0 1165.0V1022.0H682.0V1165.0ZM1464.0 825.0H1188.0V964.0H1345.0ZM907.0 825.0H682.0V964.0H907.0Z" fill="black"></path></svg>