<?xml version="1.0" standalone="no"?>
<!DOCTYPE svg PUBLIC "-//W3C//DTD SVG 1.1//EN" "http://www.w3.org/Graphics/SVG/1.1/DTD/svg11.dtd" >
<svg xmlns="http://www.w3.org/2000/svg" xmlns:svg="http://www.w3.org/2000/svg" xmlns:xlink="http://www.w3.org/1999/xlink" viewBox="0 0 2048 2048" style=""><path d="M48.0 298.0H556.0V52.0L915.0 83.0Q913.0 103.0 899.0 116.5Q885.0 130.0 845.0 136.0V298.0H1169.0V52.0L1535.0 81.0Q1534.0 102.0 1518.5 116.0Q1503.0 130.0 1463.0 136.0V298.0H1611.0L1746.0 118.0Q1746.0 118.0 1770.5 137.5Q1795.0 157.0 1833.0 188.5Q1871.0 220.0 1912.0 255.5Q1953.0 291.0 1986.0 322.0Q1977.0 355.0 1928.0 355.0H1463.0V482.0Q1463.0 499.0 1390.0 520.0Q1317.0 541.0 1216.0 541.0H1169.0V355.0H845.0V492.0Q845.0 509.0 773.5 530.5Q702.0 552.0 603.0 552.0H556.0V355.0H63.0ZM136.0 1287.0H411.0V990.0H61.0L44.0 933.0H411.0V646.0H175.0L159.0 589.0H1533.0L1662.0 429.0Q1662.0 429.0 1702.5 459.0Q1743.0 489.0 1799.0 532.0Q1855.0 575.0 1900.0 613.0Q1891.0 646.0 1842.0 646.0H1605.0V933.0H1619.0L1756.0 765.0Q1756.0 765.0 1798.5 796.5Q1841.0 828.0 1899.0 872.5Q1957.0 917.0 2004.0 957.0Q1995.0 990.0 1947.0 990.0H1605.0V1287.0L1730.0 1127.0Q1730.0 1127.0 1768.0 1157.5Q1806.0 1188.0 1858.5 1231.0Q1911.0 1274.0 1953.0 1312.0Q1944.0 1344.0 1898.0 1344.0H1150.0V1596.0H1556.0L1699.0 1418.0Q1699.0 1418.0 1725.0 1437.5Q1751.0 1457.0 1792.0 1488.0Q1833.0 1519.0 1877.5 1554.0Q1922.0 1589.0 1959.0 1621.0Q1956.0 1638.0 1939.5 1646.0Q1923.0 1654.0 1902.0 1654.0H1150.0V1926.0Q1150.0 1938.0 1088.0 1967.0Q1026.0 1996.0 913.0 1996.0H859.0V1654.0H93.0L77.0 1596.0H859.0V1344.0H153.0ZM859.0 990.0H691.0V1287.0H859.0ZM1150.0 990.0V1287.0H1318.0V990.0ZM859.0 933.0V646.0H691.0V933.0ZM1150.0 933.0H1318.0V646.0H1150.0Z" fill="black"></path></svg>