<?xml version="1.0" standalone="no"?>
<!DOCTYPE svg PUBLIC "-//W3C//DTD SVG 1.1//EN" "http://www.w3.org/Graphics/SVG/1.1/DTD/svg11.dtd" >
<svg xmlns="http://www.w3.org/2000/svg" xmlns:svg="http://www.w3.org/2000/svg" xmlns:xlink="http://www.w3.org/1999/xlink" viewBox="0 0 2048 2048" style=""><path d="M218.0 1465.0Q247.0 1465.0 259.5 1460.0Q272.0 1455.0 294.0 1426.0Q312.0 1405.0 327.0 1385.0Q342.0 1365.0 367.0 1327.5Q392.0 1290.0 439.0 1217.5Q486.0 1145.0 565.0 1019.5Q644.0 894.0 769.0 697.0L796.0 705.0Q766.0 779.0 725.5 876.5Q685.0 974.0 645.5 1072.0Q606.0 1170.0 575.5 1247.5Q545.0 1325.0 535.0 1359.0Q520.0 1403.0 508.5 1452.0Q497.0 1501.0 497.0 1535.0Q499.0 1585.0 524.0 1623.5Q549.0 1662.0 572.5 1710.0Q596.0 1758.0 593.0 1836.0Q590.0 1906.0 532.5 1952.0Q475.0 1998.0 378.0 1998.0Q336.0 1998.0 298.0 1976.0Q260.0 1954.0 243.0 1901.0Q260.0 1811.0 263.5 1732.5Q267.0 1654.0 257.0 1600.5Q247.0 1547.0 222.0 1533.0Q201.0 1519.0 175.5 1510.0Q150.0 1501.0 118.0 1500.0V1465.0Q118.0 1465.0 138.0 1465.0Q158.0 1465.0 182.0 1465.0Q206.0 1465.0 218.0 1465.0ZM212.0 580.0Q361.0 562.0 451.5 583.5Q542.0 605.0 583.0 649.0Q624.0 693.0 624.5 742.5Q625.0 792.0 594.5 831.5Q564.0 871.0 511.0 884.0Q458.0 897.0 392.0 865.0Q369.0 788.0 312.5 713.5Q256.0 639.0 200.0 593.0ZM62.0 898.0Q212.0 885.0 299.5 910.5Q387.0 936.0 424.0 982.5Q461.0 1029.0 457.5 1079.0Q454.0 1129.0 419.5 1166.5Q385.0 1204.0 330.5 1212.5Q276.0 1221.0 212.0 1183.0Q201.0 1106.0 154.0 1030.5Q107.0 955.0 50.0 910.0ZM58.0 322.0H574.0V50.0L933.0 81.0Q931.0 101.0 917.0 114.5Q903.0 128.0 863.0 134.0V322.0H1174.0V50.0L1541.0 79.0Q1540.0 100.0 1524.5 114.5Q1509.0 129.0 1469.0 134.0V322.0H1611.0L1752.0 132.0Q1752.0 132.0 1777.5 152.5Q1803.0 173.0 1842.0 206.0Q1881.0 239.0 1923.0 276.5Q1965.0 314.0 1998.0 347.0Q1992.0 380.0 1942.0 380.0H1469.0V541.0Q1469.0 557.0 1415.5 576.0Q1362.0 595.0 1287.0 601.0L1578.0 623.0Q1576.0 643.0 1563.5 657.0Q1551.0 671.0 1512.0 677.0V914.0H1598.0L1734.0 732.0Q1734.0 732.0 1758.5 752.0Q1783.0 772.0 1821.5 804.0Q1860.0 836.0 1902.5 871.5Q1945.0 907.0 1979.0 939.0Q1970.0 972.0 1922.0 972.0H1119.0V1627.0Q1119.0 1656.0 1136.5 1667.0Q1154.0 1678.0 1211.0 1678.0H1461.0Q1515.0 1678.0 1569.5 1677.0Q1624.0 1676.0 1652.0 1674.0Q1673.0 1672.0 1699.5 1670.5Q1726.0 1669.0 1742.0 1666.0Q1759.0 1664.0 1783.5 1659.0Q1808.0 1654.0 1828.0 1647.0H1846.0L1858.0 1651.0Q1925.0 1675.0 1951.0 1702.5Q1977.0 1730.0 1977.0 1768.0Q1977.0 1828.0 1932.5 1867.0Q1888.0 1906.0 1770.0 1925.0Q1652.0 1944.0 1433.0 1944.0H1170.0Q1039.0 1944.0 965.5 1925.5Q892.0 1907.0 862.0 1854.5Q832.0 1802.0 832.0 1701.0V797.0L1148.0 914.0H1222.0V605.0H1174.0V380.0H863.0V554.0Q863.0 566.0 828.5 581.0Q794.0 596.0 739.0 606.5Q684.0 617.0 621.0 617.0H574.0V380.0H73.0Z" fill="black"></path></svg>