<?xml version="1.0" standalone="no"?>
<!DOCTYPE svg PUBLIC "-//W3C//DTD SVG 1.1//EN" "http://www.w3.org/Graphics/SVG/1.1/DTD/svg11.dtd" >
<svg xmlns="http://www.w3.org/2000/svg" xmlns:svg="http://www.w3.org/2000/svg" xmlns:xlink="http://www.w3.org/1999/xlink" viewBox="0 0 2048 2048" style=""><path d="M53.0 298.0H561.0V52.0L920.0 83.0Q918.0 103.0 904.0 116.5Q890.0 130.0 850.0 136.0V298.0H1174.0V52.0L1540.0 81.0Q1539.0 102.0 1523.5 116.0Q1508.0 130.0 1468.0 136.0V298.0H1616.0L1751.0 118.0Q1751.0 118.0 1775.5 137.5Q1800.0 157.0 1838.0 188.5Q1876.0 220.0 1917.0 255.5Q1958.0 291.0 1991.0 322.0Q1982.0 355.0 1933.0 355.0H1468.0V482.0Q1468.0 499.0 1395.0 520.0Q1322.0 541.0 1221.0 541.0H1174.0V355.0H850.0V492.0Q850.0 509.0 778.5 530.5Q707.0 552.0 608.0 552.0H561.0V355.0H68.0ZM1405.0 980.0H633.0V1226.0H1405.0ZM1405.0 922.0V689.0H633.0V922.0ZM53.0 1529.0H868.0V1283.0H633.0V1338.0Q633.0 1352.0 596.0 1373.5Q559.0 1395.0 503.0 1411.5Q447.0 1428.0 387.0 1428.0H346.0V515.0L649.0 632.0H1384.0L1511.0 496.0L1767.0 689.0Q1760.0 700.0 1742.5 711.5Q1725.0 723.0 1696.0 728.0V1301.0Q1695.0 1312.0 1655.5 1331.0Q1616.0 1350.0 1560.5 1365.5Q1505.0 1381.0 1456.0 1381.0H1405.0V1283.0H1165.0V1529.0H1589.0L1735.0 1338.0Q1735.0 1338.0 1761.0 1359.0Q1787.0 1380.0 1828.0 1413.0Q1869.0 1446.0 1913.5 1483.0Q1958.0 1520.0 1995.0 1553.0Q1986.0 1586.0 1935.0 1586.0H1165.0V1928.0Q1164.0 1937.0 1100.5 1966.5Q1037.0 1996.0 924.0 1996.0H868.0V1586.0H70.0Z" fill="black"></path></svg>