<?xml version="1.0" standalone="no"?>
<!DOCTYPE svg PUBLIC "-//W3C//DTD SVG 1.1//EN" "http://www.w3.org/Graphics/SVG/1.1/DTD/svg11.dtd" >
<svg xmlns="http://www.w3.org/2000/svg" xmlns:svg="http://www.w3.org/2000/svg" xmlns:xlink="http://www.w3.org/1999/xlink" viewBox="0 0 2048 2048" style=""><path d="M54.0 276.0H585.0V51.0L935.0 80.0Q933.0 101.0 919.0 115.0Q905.0 129.0 865.0 135.0V276.0H1164.0V51.0L1523.0 80.0Q1521.0 101.0 1506.0 115.0Q1491.0 129.0 1451.0 135.0V276.0H1631.0L1764.0 106.0Q1764.0 106.0 1804.0 138.0Q1844.0 170.0 1898.0 215.5Q1952.0 261.0 1994.0 301.0Q1985.0 334.0 1936.0 334.0H1451.0V436.0Q1451.0 451.0 1380.0 470.0Q1309.0 489.0 1209.0 489.0H1164.0V334.0H865.0V444.0Q865.0 461.0 796.0 481.5Q727.0 502.0 630.0 502.0H585.0V334.0H69.0ZM1383.0 837.0H1160.0V1014.0H1383.0ZM1383.0 780.0V608.0H1160.0V780.0ZM665.0 837.0V1014.0H884.0V837.0ZM665.0 780.0H884.0V608.0H665.0ZM544.0 1491.0Q599.0 1492.0 687.0 1492.5Q775.0 1493.0 884.0 1493.0V1321.0H513.0V1906.0Q513.0 1920.0 477.0 1941.0Q441.0 1962.0 386.0 1978.5Q331.0 1995.0 273.0 1995.0H232.0V1149.0L536.0 1263.0H884.0V1071.0H665.0V1104.0Q665.0 1117.0 628.5 1137.5Q592.0 1158.0 536.5 1174.0Q481.0 1190.0 423.0 1190.0H384.0V438.0L681.0 551.0H1363.0L1488.0 418.0L1742.0 608.0Q1734.0 619.0 1716.0 630.0Q1698.0 641.0 1670.0 647.0V1073.0Q1669.0 1083.0 1631.0 1102.5Q1593.0 1122.0 1538.5 1138.5Q1484.0 1155.0 1435.0 1155.0H1383.0V1071.0H1160.0V1263.0H1533.0L1656.0 1124.0L1922.0 1323.0Q1913.0 1335.0 1892.5 1348.5Q1872.0 1362.0 1840.0 1368.0V1718.0Q1840.0 1799.0 1816.0 1857.0Q1792.0 1915.0 1717.5 1949.5Q1643.0 1984.0 1490.0 1997.0Q1485.0 1937.0 1476.0 1894.5Q1467.0 1852.0 1443.0 1825.0Q1418.0 1798.0 1381.5 1777.0Q1345.0 1756.0 1265.0 1743.0V1718.0Q1265.0 1718.0 1296.0 1720.0Q1327.0 1722.0 1370.5 1724.5Q1414.0 1727.0 1454.5 1728.5Q1495.0 1730.0 1515.0 1730.0Q1553.0 1730.0 1553.0 1691.0V1607.0Q1541.0 1646.0 1508.5 1671.0Q1476.0 1696.0 1431.5 1696.0Q1387.0 1696.0 1338.0 1659.0Q1338.0 1636.0 1334.0 1613.0Q1330.0 1590.0 1324.0 1567.0Q1210.0 1603.0 1058.0 1648.0Q906.0 1693.0 710.0 1747.0Q687.0 1786.0 646.0 1790.0ZM1230.0 1354.0Q1385.0 1370.0 1460.0 1420.5Q1535.0 1471.0 1553.0 1528.0V1321.0H1160.0V1491.0L1295.0 1489.0Q1261.0 1416.0 1213.0 1366.0Z" fill="black"></path></svg>