<?xml version="1.0" standalone="no"?>
<!DOCTYPE svg PUBLIC "-//W3C//DTD SVG 1.1//EN" "http://www.w3.org/Graphics/SVG/1.1/DTD/svg11.dtd" >
<svg xmlns="http://www.w3.org/2000/svg" xmlns:svg="http://www.w3.org/2000/svg" xmlns:xlink="http://www.w3.org/1999/xlink" viewBox="0 0 2048 2048" style=""><path d="M170.5 1457.0Q200.5 1457.0 213.0 1452.5Q225.5 1448.0 246.5 1420.0Q263.5 1399.0 277.5 1379.5Q291.5 1360.0 315.0 1324.0Q338.5 1288.0 382.0 1219.0Q425.5 1150.0 500.0 1031.5Q574.5 913.0 691.5 726.0L717.5 734.0Q690.5 804.0 653.5 896.5Q616.5 989.0 580.5 1082.0Q544.5 1175.0 517.0 1248.5Q489.5 1322.0 480.5 1355.0Q466.5 1396.0 455.0 1444.5Q443.5 1493.0 445.5 1527.0Q447.5 1576.0 472.0 1614.5Q496.5 1653.0 519.5 1701.5Q542.5 1750.0 539.5 1828.0Q536.5 1900.0 479.0 1944.5Q421.5 1989.0 326.5 1989.0Q286.5 1989.0 248.5 1967.0Q210.5 1945.0 193.5 1893.0Q219.5 1758.0 215.0 1652.0Q210.5 1546.0 174.5 1522.0Q130.5 1497.0 72.5 1492.0V1457.0Q72.5 1457.0 92.0 1457.0Q111.5 1457.0 135.0 1457.0Q158.5 1457.0 170.5 1457.0ZM203.5 515.0Q351.5 509.0 440.5 537.0Q529.5 565.0 569.5 611.0Q609.5 657.0 609.5 706.0Q609.5 755.0 579.0 792.0Q548.5 829.0 496.5 840.0Q444.5 851.0 381.5 820.0Q351.5 742.0 294.0 661.0Q236.5 580.0 189.5 525.0ZM47.5 845.0Q195.5 845.0 281.5 877.5Q367.5 910.0 402.5 958.0Q437.5 1006.0 433.0 1055.5Q428.5 1105.0 394.0 1140.0Q359.5 1175.0 306.0 1181.5Q252.5 1188.0 191.5 1150.0Q174.5 1070.0 128.0 990.0Q81.5 910.0 33.5 855.0ZM940.5 476.0 1160.5 527.0V355.0H836.5V492.0Q836.5 509.0 765.0 530.5Q693.5 552.0 594.5 552.0H547.5V355.0H54.5L39.5 298.0H547.5V52.0L906.5 83.0Q904.5 103.0 890.5 116.5Q876.5 130.0 836.5 136.0V298.0H1160.5V52.0L1526.5 81.0Q1525.5 102.0 1510.0 116.0Q1494.5 130.0 1454.5 136.0V298.0H1602.5L1737.5 118.0Q1737.5 118.0 1762.0 137.5Q1786.5 157.0 1824.5 188.5Q1862.5 220.0 1903.5 255.5Q1944.5 291.0 1977.5 322.0Q1968.5 355.0 1919.5 355.0H1454.5V482.0Q1454.5 499.0 1385.0 519.5Q1315.5 540.0 1217.5 541.0L1295.5 560.0Q1289.5 577.0 1273.0 584.5Q1256.5 592.0 1215.5 589.0L1162.5 668.0H1432.5L1590.5 525.0L1831.5 744.0Q1814.5 771.0 1743.5 777.0Q1623.5 943.0 1450.5 1076.0Q1581.5 1131.0 1725.5 1165.0Q1869.5 1199.0 2014.5 1217.0L2012.5 1240.0Q1930.5 1261.0 1877.5 1326.0Q1824.5 1391.0 1801.5 1490.0L1735.5 1467.0Q1722.5 1483.0 1686.5 1490.0V1914.0Q1685.5 1922.0 1645.5 1937.0Q1605.5 1952.0 1550.5 1964.5Q1495.5 1977.0 1450.5 1977.0H1399.5V1862.0H1080.5V1914.0Q1080.5 1929.0 1020.5 1962.5Q960.5 1996.0 852.5 1996.0H801.5V1402.0Q734.5 1423.0 664.0 1440.0Q593.5 1457.0 521.5 1471.0L508.5 1447.0Q688.5 1375.0 852.5 1275.0Q1016.5 1175.0 1151.5 1056.0Q1078.5 955.0 1026.5 830.0Q940.5 919.0 838.0 996.0Q735.5 1073.0 623.5 1127.0L607.5 1113.0Q679.5 1038.0 745.5 931.5Q811.5 825.0 862.5 706.5Q913.5 588.0 940.5 476.0ZM1399.5 1805.0V1457.0H1080.5V1805.0ZM1381.5 1400.0 1448.5 1328.0Q1353.5 1269.0 1274.5 1197.0Q1202.5 1240.0 1124.5 1277.0Q1046.5 1314.0 963.5 1346.0L1108.5 1400.0ZM1428.5 726.0H1119.5L1061.5 793.0Q1134.5 890.0 1244.5 965.0Q1297.5 909.0 1344.5 849.0Q1391.5 789.0 1428.5 726.0Z" fill="black"></path></svg>