<?xml version="1.0" standalone="no"?>
<!DOCTYPE svg PUBLIC "-//W3C//DTD SVG 1.1//EN" "http://www.w3.org/Graphics/SVG/1.1/DTD/svg11.dtd" >
<svg xmlns="http://www.w3.org/2000/svg" xmlns:svg="http://www.w3.org/2000/svg" xmlns:xlink="http://www.w3.org/1999/xlink" viewBox="0 0 2048 2048" style=""><path d="M603.0 697.0 912.0 834.0Q906.0 850.0 890.0 859.0Q874.0 868.0 839.0 865.0Q777.0 933.0 687.0 998.5Q597.0 1064.0 489.0 1118.0Q381.0 1172.0 267.0 1205.0L251.0 1183.0Q328.0 1119.0 396.5 1034.0Q465.0 949.0 518.5 860.5Q572.0 772.0 603.0 697.0ZM52.0 277.0H525.0V52.0L878.0 83.0Q876.0 103.0 862.0 116.5Q848.0 130.0 808.0 136.0V277.0H1214.0V52.0L1572.0 81.0Q1570.0 102.0 1555.0 116.0Q1540.0 130.0 1500.0 136.0V277.0H1625.0L1754.0 107.0Q1754.0 107.0 1794.5 139.0Q1835.0 171.0 1890.0 216.5Q1945.0 262.0 1988.0 302.0Q1979.0 335.0 1930.0 335.0H1500.0V441.0Q1500.0 456.0 1431.0 473.0Q1362.0 490.0 1261.0 490.0H1214.0V435.0Q1210.0 468.0 1158.0 476.0V619.0H1619.0L1756.0 482.0L1996.0 705.0Q1975.0 729.0 1916.0 732.0Q1862.0 770.0 1782.0 811.0Q1702.0 852.0 1627.0 881.0Q1669.0 931.0 1674.0 982.5Q1679.0 1034.0 1654.5 1074.5Q1630.0 1115.0 1582.5 1131.5Q1535.0 1148.0 1472.0 1127.0Q1431.0 1062.0 1367.0 993.0Q1303.0 924.0 1230.5 864.0Q1158.0 804.0 1093.0 763.0L1107.0 746.0Q1285.0 732.0 1401.5 761.5Q1518.0 791.0 1582.0 838.0Q1594.0 800.0 1607.0 757.5Q1620.0 715.0 1629.0 677.0H396.0Q412.0 789.0 379.0 866.0Q346.0 943.0 288.0 974.0Q231.0 1004.0 167.0 984.0Q103.0 964.0 83.0 898.0Q65.0 833.0 97.5 787.5Q130.0 742.0 183.0 718.0Q233.0 691.0 276.5 628.5Q320.0 566.0 312.0 490.0L337.0 488.0Q354.0 524.0 365.0 556.5Q376.0 589.0 384.0 619.0H867.0V402.0L1214.0 431.0V335.0H808.0V449.0Q808.0 465.0 739.5 484.0Q671.0 503.0 572.0 503.0H525.0V335.0H67.0ZM1267.0 1471.0H775.0V1801.0H1267.0ZM1111.0 1041.0Q1042.0 1129.0 934.0 1214.5Q826.0 1300.0 695.0 1375.0L804.0 1414.0H1248.0L1340.0 1316.0Q1268.0 1257.0 1209.5 1189.0Q1151.0 1121.0 1111.0 1041.0ZM1267.0 1858.0H775.0V1912.0Q775.0 1927.0 713.5 1961.5Q652.0 1996.0 542.0 1996.0H489.0V1482.0Q392.0 1525.0 290.0 1561.0Q188.0 1597.0 87.0 1623.0L77.0 1600.0Q207.0 1536.0 333.0 1446.5Q459.0 1357.0 566.0 1256.5Q673.0 1156.0 748.0 1057.0Q823.0 958.0 851.0 873.0L1246.0 972.0Q1240.0 992.0 1218.0 1002.5Q1196.0 1013.0 1142.0 1019.0Q1213.0 1078.0 1316.0 1120.0Q1419.0 1162.0 1536.5 1190.0Q1654.0 1218.0 1772.5 1233.5Q1891.0 1249.0 1994.0 1254.0V1285.0Q1908.0 1314.0 1858.0 1394.5Q1808.0 1475.0 1799.0 1553.0Q1752.0 1538.0 1704.5 1520.5Q1657.0 1503.0 1613.0 1482.0Q1595.0 1500.0 1558.0 1508.0V1918.0Q1557.0 1926.0 1516.5 1941.5Q1476.0 1957.0 1420.5 1970.0Q1365.0 1983.0 1318.0 1983.0H1267.0Z" fill="black"></path></svg>