<?xml version="1.0" standalone="no"?>
<!DOCTYPE svg PUBLIC "-//W3C//DTD SVG 1.1//EN" "http://www.w3.org/Graphics/SVG/1.1/DTD/svg11.dtd" >
<svg xmlns="http://www.w3.org/2000/svg" xmlns:svg="http://www.w3.org/2000/svg" xmlns:xlink="http://www.w3.org/1999/xlink" viewBox="0 0 2048 2048" style=""><path d="M867.0 455.5 1189.0 484.5V355.5H818.0V494.5Q818.0 510.5 747.0 532.5Q676.0 554.5 577.0 554.5H530.0V355.5H85.0L71.0 298.5H530.0V52.5L890.0 83.5Q888.0 103.5 873.0 117.0Q858.0 130.5 818.0 136.5V298.5H1189.0V52.5L1554.0 81.5Q1552.0 102.5 1538.0 116.5Q1524.0 130.5 1484.0 136.5V298.5H1586.0L1719.0 117.5Q1719.0 117.5 1743.5 137.5Q1768.0 157.5 1806.0 189.0Q1844.0 220.5 1884.5 256.0Q1925.0 291.5 1957.0 322.5Q1948.0 355.5 1900.0 355.5H1484.0V484.5Q1484.0 501.5 1412.5 521.5Q1341.0 541.5 1236.0 541.5H1189.0V527.5L1166.0 533.5V691.5H1506.0L1646.0 496.5Q1646.0 496.5 1671.5 518.0Q1697.0 539.5 1737.0 573.5Q1777.0 607.5 1820.0 645.0Q1863.0 682.5 1898.0 715.5Q1889.0 748.5 1840.0 748.5H1166.0V1143.5Q1180.0 1170.5 1197.0 1195.0Q1214.0 1219.5 1232.0 1242.5Q1287.0 1130.5 1320.0 1000.5Q1353.0 870.5 1365.0 767.5L1715.0 885.5Q1711.0 901.5 1696.0 912.5Q1681.0 923.5 1644.0 926.5Q1622.0 963.5 1595.5 1002.0Q1569.0 1040.5 1537.0 1078.5Q1655.0 1092.5 1721.5 1129.5Q1788.0 1166.5 1813.0 1213.5Q1838.0 1260.5 1830.5 1305.5Q1823.0 1350.5 1791.5 1380.5Q1760.0 1410.5 1713.0 1414.0Q1666.0 1417.5 1613.0 1381.5Q1605.0 1313.5 1572.0 1245.5Q1539.0 1177.5 1494.0 1125.5Q1400.0 1225.5 1283.0 1299.5Q1412.0 1431.5 1598.5 1512.5Q1785.0 1593.5 1990.0 1621.5L1986.0 1645.5Q1903.0 1670.5 1842.0 1744.5Q1781.0 1818.5 1758.0 1932.5Q1528.0 1838.5 1387.0 1681.0Q1246.0 1523.5 1166.0 1273.5V1903.5Q1166.0 1917.5 1128.5 1939.0Q1091.0 1960.5 1035.0 1978.0Q979.0 1995.5 925.0 1995.5H867.0V1518.5Q712.0 1647.5 507.0 1759.5Q302.0 1871.5 73.0 1940.5L58.0 1918.5Q238.0 1816.5 403.5 1656.0Q569.0 1495.5 693.0 1309.5Q666.0 1312.5 635.0 1302.5Q604.0 1292.5 575.0 1264.5Q581.0 1201.5 564.0 1133.5Q494.0 1228.5 399.0 1309.5Q304.0 1390.5 185.0 1440.5L171.0 1420.5Q242.0 1332.5 290.0 1218.0Q338.0 1103.5 366.5 984.5Q395.0 865.5 407.0 763.5L771.0 865.5Q767.0 882.5 751.5 894.0Q736.0 905.5 700.0 908.5Q686.0 937.5 670.5 967.0Q655.0 996.5 638.0 1027.5Q704.0 1048.5 742.0 1078.0Q780.0 1107.5 794.0 1139.5Q835.0 1062.5 867.0 982.5V748.5H149.0L132.0 691.5H867.0Z" fill="black"></path></svg>