<?xml version="1.0" standalone="no"?>
<!DOCTYPE svg PUBLIC "-//W3C//DTD SVG 1.1//EN" "http://www.w3.org/Graphics/SVG/1.1/DTD/svg11.dtd" >
<svg xmlns="http://www.w3.org/2000/svg" xmlns:svg="http://www.w3.org/2000/svg" xmlns:xlink="http://www.w3.org/1999/xlink" viewBox="0 0 2048 2048" style=""><path d="M392.0 458.0 572.0 472.0V329.0H75.0L60.0 271.0H572.0V46.0L925.0 75.0Q923.0 96.0 908.0 110.0Q893.0 124.0 853.0 130.0V271.0H1185.0V46.0L1545.0 75.0Q1544.0 96.0 1528.5 110.0Q1513.0 124.0 1471.0 130.0V271.0H1637.0L1768.0 101.0Q1768.0 101.0 1808.0 133.0Q1848.0 165.0 1902.0 210.5Q1956.0 256.0 1998.0 296.0Q1989.0 329.0 1940.0 329.0H1471.0V431.0Q1471.0 446.0 1402.0 466.0L1656.0 484.0Q1654.0 501.0 1643.5 512.0Q1633.0 523.0 1600.0 529.0V669.0H1619.0L1748.0 501.0Q1748.0 501.0 1788.0 532.5Q1828.0 564.0 1882.5 609.0Q1937.0 654.0 1981.0 693.0Q1972.0 726.0 1924.0 726.0H1600.0V982.0Q1600.0 995.0 1563.0 1017.5Q1526.0 1040.0 1471.5 1058.0Q1417.0 1076.0 1365.0 1076.0H1330.0V976.0H1142.0V1041.0Q1142.0 1052.0 1105.5 1068.5Q1069.0 1085.0 1015.0 1098.0Q961.0 1111.0 908.0 1111.0H865.0V726.0H669.0V1150.0H1543.0L1674.0 988.0Q1674.0 988.0 1715.0 1018.5Q1756.0 1049.0 1812.5 1092.5Q1869.0 1136.0 1914.0 1174.0Q1905.0 1207.0 1856.0 1207.0H1238.0Q1222.0 1230.0 1172.0 1238.0V1392.0H1613.0L1750.0 1222.0Q1750.0 1222.0 1793.0 1254.0Q1836.0 1286.0 1895.0 1331.0Q1954.0 1376.0 2002.0 1416.0Q1993.0 1449.0 1944.0 1449.0H1238.0Q1331.0 1510.0 1457.5 1557.5Q1584.0 1605.0 1724.0 1636.0Q1864.0 1667.0 1996.0 1678.0L1992.0 1703.0Q1915.0 1724.0 1860.0 1791.0Q1805.0 1858.0 1785.0 1961.0Q1571.0 1886.0 1421.0 1759.5Q1271.0 1633.0 1172.0 1455.0V1938.0Q1172.0 1948.0 1135.5 1963.0Q1099.0 1978.0 1043.5 1990.0Q988.0 2002.0 931.0 2002.0H882.0V1596.0Q736.0 1722.0 526.5 1809.0Q317.0 1896.0 56.0 1949.0L46.0 1924.0Q250.0 1843.0 406.0 1719.0Q562.0 1595.0 654.0 1449.0H73.0L56.0 1392.0H882.0V1207.0H669.0V1250.0Q669.0 1263.0 632.0 1284.0Q595.0 1305.0 540.5 1321.5Q486.0 1338.0 433.0 1338.0H392.0V726.0H99.0L83.0 669.0H392.0ZM865.0 447.0 1185.0 474.0V329.0H853.0V441.0Q853.0 452.0 820.5 465.5Q788.0 479.0 736.0 486.0Q733.0 505.0 720.0 518.0Q707.0 531.0 669.0 538.0V669.0H865.0ZM1330.0 726.0H1142.0V918.0H1330.0ZM1330.0 669.0V478.0Q1284.0 484.0 1232.0 484.0H1203.0Q1202.0 500.0 1188.5 511.5Q1175.0 523.0 1142.0 527.0V669.0Z" fill="black"></path></svg>