<?xml version="1.0" standalone="no"?>
<!DOCTYPE svg PUBLIC "-//W3C//DTD SVG 1.1//EN" "http://www.w3.org/Graphics/SVG/1.1/DTD/svg11.dtd" >
<svg xmlns="http://www.w3.org/2000/svg" xmlns:svg="http://www.w3.org/2000/svg" xmlns:xlink="http://www.w3.org/1999/xlink" viewBox="0 0 2048 2048" style=""><path d="M43.0 253.0H516.0V50.0L869.0 81.0Q867.0 101.0 853.0 114.5Q839.0 128.0 799.0 134.0V253.0H1205.0V50.0L1563.0 81.0Q1561.0 101.0 1546.0 114.5Q1531.0 128.0 1491.0 134.0V253.0H1624.0L1749.0 91.0Q1749.0 91.0 1788.5 121.5Q1828.0 152.0 1881.5 195.0Q1935.0 238.0 1977.0 277.0Q1968.0 310.0 1921.0 310.0H1491.0V386.0Q1491.0 400.0 1423.0 415.5Q1355.0 431.0 1252.0 431.0H1205.0V310.0H799.0V394.0Q799.0 408.0 732.0 424.5Q665.0 441.0 563.0 441.0H516.0V310.0H58.0ZM248.0 1049.0 572.0 1080.0Q569.0 1100.0 554.0 1113.5Q539.0 1127.0 504.0 1133.0V1260.0H574.0V1049.0L848.0 1074.0Q847.0 1088.0 837.0 1098.0Q827.0 1108.0 799.0 1113.0V1316.0Q799.0 1323.0 770.0 1334.5Q741.0 1346.0 698.5 1355.5Q656.0 1365.0 615.0 1365.0H574.0V1318.0H504.0V1379.0L502.0 1436.0H865.0V978.0H295.0L277.0 920.0H865.0V781.0H58.0L41.0 724.0H865.0V589.0H310.0L291.0 531.0H865.0V353.0L1205.0 386.0Q1201.0 403.0 1189.0 414.5Q1177.0 426.0 1145.0 431.0V531.0H1391.0L1506.0 410.0L1741.0 587.0Q1733.0 596.0 1717.5 605.5Q1702.0 615.0 1676.0 621.0V724.0H1684.0L1798.0 576.0Q1798.0 576.0 1834.0 604.0Q1870.0 632.0 1918.5 672.0Q1967.0 712.0 2007.0 748.0Q1998.0 781.0 1952.0 781.0H1676.0V974.0Q1675.0 981.0 1637.5 994.5Q1600.0 1008.0 1549.0 1019.5Q1498.0 1031.0 1456.0 1031.0H1409.0V978.0H1145.0V1436.0H1514.0V1318.0H1438.0Q1435.0 1325.0 1406.0 1336.0Q1377.0 1347.0 1336.0 1356.0Q1295.0 1365.0 1256.0 1365.0H1213.0V1049.0L1491.0 1074.0Q1488.0 1088.0 1478.0 1098.5Q1468.0 1109.0 1440.0 1115.0V1260.0H1514.0V1051.0L1856.0 1082.0Q1853.0 1102.0 1838.0 1117.5Q1823.0 1133.0 1780.0 1139.0V1934.0Q1780.0 1943.0 1746.5 1958.5Q1713.0 1974.0 1662.5 1986.0Q1612.0 1998.0 1561.0 1998.0H1514.0V1676.0H1448.0V1883.0Q1448.0 1892.0 1417.0 1908.5Q1386.0 1925.0 1339.5 1939.0Q1293.0 1953.0 1245.0 1953.0H1213.0V1525.0L1454.0 1619.0H1514.0V1494.0H1145.0V1924.0Q1145.0 1934.0 1110.5 1951.0Q1076.0 1968.0 1025.0 1982.0Q974.0 1996.0 924.0 1996.0H865.0V1494.0H496.0Q486.0 1559.0 465.0 1619.0H547.0L645.0 1518.0L850.0 1668.0Q844.0 1676.0 830.5 1684.0Q817.0 1692.0 797.0 1697.0V1899.0Q796.0 1907.0 763.5 1921.0Q731.0 1935.0 686.0 1946.0Q641.0 1957.0 604.0 1957.0H563.0V1676.0H445.0Q403.0 1770.0 322.5 1851.5Q242.0 1933.0 107.0 1991.0L90.0 1973.0Q160.0 1889.0 193.5 1788.5Q227.0 1688.0 237.5 1582.0Q248.0 1476.0 248.0 1377.0ZM1409.0 589.0H1145.0V724.0H1409.0ZM1409.0 920.0V781.0H1145.0V920.0Z" fill="black"></path></svg>