<?xml version="1.0" standalone="no"?>
<!DOCTYPE svg PUBLIC "-//W3C//DTD SVG 1.1//EN" "http://www.w3.org/Graphics/SVG/1.1/DTD/svg11.dtd" >
<svg xmlns="http://www.w3.org/2000/svg" xmlns:svg="http://www.w3.org/2000/svg" xmlns:xlink="http://www.w3.org/1999/xlink" viewBox="0 0 2048 2048" style=""><path d="M174.5 1466.0Q202.5 1466.0 214.5 1461.5Q226.5 1457.0 246.5 1429.0Q261.5 1408.0 274.0 1389.0Q286.5 1370.0 307.5 1335.0Q328.5 1300.0 367.0 1232.0Q405.5 1164.0 472.0 1047.5Q538.5 931.0 641.5 747.0L670.5 756.0Q646.5 823.0 615.5 913.5Q584.5 1004.0 554.0 1095.0Q523.5 1186.0 500.0 1259.0Q476.5 1332.0 467.5 1364.0Q455.5 1405.0 446.5 1451.5Q437.5 1498.0 439.5 1532.0Q441.5 1581.0 465.5 1619.5Q489.5 1658.0 512.0 1706.5Q534.5 1755.0 531.5 1833.0Q528.5 1903.0 473.5 1948.0Q418.5 1993.0 326.5 1993.0Q288.5 1993.0 250.5 1970.0Q212.5 1947.0 197.5 1898.0Q214.5 1809.0 218.5 1731.0Q222.5 1653.0 212.5 1599.5Q202.5 1546.0 179.5 1532.0Q138.5 1507.0 80.5 1501.0V1466.0Q80.5 1466.0 99.5 1466.0Q118.5 1466.0 141.0 1466.0Q163.5 1466.0 174.5 1466.0ZM174.5 442.0Q323.5 436.0 412.0 465.0Q500.5 494.0 538.5 541.0Q576.5 588.0 574.0 638.0Q571.5 688.0 539.0 725.5Q506.5 763.0 454.0 772.0Q401.5 781.0 338.5 745.0Q320.5 665.0 268.0 585.0Q215.5 505.0 160.5 454.0ZM43.5 801.0Q193.5 800.0 279.0 832.5Q364.5 865.0 399.0 914.5Q433.5 964.0 427.0 1014.0Q420.5 1064.0 384.5 1100.0Q348.5 1136.0 293.5 1141.5Q238.5 1147.0 176.5 1106.0Q170.5 1024.0 128.5 943.0Q86.5 862.0 29.5 813.0ZM41.5 266.0H586.5V55.0L936.5 86.0Q935.5 106.0 921.5 119.5Q907.5 133.0 867.5 139.0V266.0H1137.5V55.0L1497.5 84.0Q1496.5 105.0 1480.5 119.5Q1464.5 134.0 1424.5 139.0V266.0H1626.5L1758.5 100.0Q1758.5 100.0 1797.0 131.0Q1835.5 162.0 1888.0 206.5Q1940.5 251.0 1981.5 291.0Q1975.5 323.0 1925.5 323.0H1424.5V389.0Q1545.5 388.0 1604.5 416.5Q1663.5 445.0 1674.5 485.0Q1685.5 525.0 1662.5 559.5Q1639.5 594.0 1596.5 606.0H1669.5L1780.5 450.0Q1780.5 450.0 1815.5 480.0Q1850.5 510.0 1897.5 552.0Q1944.5 594.0 1981.5 631.0Q1972.5 663.0 1925.5 663.0H1377.5V794.0H1508.5L1626.5 670.0L1868.5 850.0Q1859.5 860.0 1842.0 872.0Q1824.5 884.0 1794.5 889.0V1263.0Q1794.5 1273.0 1764.0 1291.5Q1733.5 1310.0 1688.0 1326.0Q1642.5 1342.0 1596.5 1345.0L1686.5 1354.0Q1680.5 1394.0 1620.5 1403.0V1450.0H1667.5L1790.5 1300.0Q1790.5 1300.0 1829.5 1328.5Q1868.5 1357.0 1922.0 1397.5Q1975.5 1438.0 2018.5 1474.0Q2012.5 1507.0 1962.5 1507.0H1620.5V1708.0Q1620.5 1795.0 1600.0 1854.0Q1579.5 1913.0 1512.5 1947.0Q1445.5 1981.0 1307.5 1993.0Q1304.5 1936.0 1297.0 1894.0Q1289.5 1852.0 1270.5 1825.0Q1250.5 1798.0 1220.0 1778.5Q1189.5 1759.0 1123.5 1747.0V1720.0Q1123.5 1720.0 1148.5 1722.0Q1173.5 1724.0 1209.5 1726.5Q1245.5 1729.0 1278.0 1730.5Q1310.5 1732.0 1323.5 1732.0Q1354.5 1732.0 1354.5 1704.0V1507.0H867.5Q979.5 1536.0 1036.5 1581.0Q1093.5 1626.0 1107.0 1674.5Q1120.5 1723.0 1101.0 1765.0Q1081.5 1807.0 1040.0 1830.5Q998.5 1854.0 946.0 1848.5Q893.5 1843.0 842.5 1796.0Q848.5 1718.0 828.0 1641.0Q807.5 1564.0 774.5 1507.0H568.5L551.5 1450.0H1354.5V1327.0L1528.5 1341.0V1304.0H973.5V1339.0Q973.5 1350.0 940.5 1368.5Q907.5 1387.0 857.0 1402.0Q806.5 1417.0 754.5 1417.0H717.5V690.0L985.5 794.0H1119.5V663.0H627.5L611.5 606.0H1119.5V467.0L1434.5 493.0Q1431.5 512.0 1420.5 524.0Q1409.5 536.0 1377.5 540.0V606.0H1532.5Q1506.5 599.0 1479.5 581.0Q1477.5 537.0 1459.0 491.5Q1440.5 446.0 1416.5 416.0Q1396.5 429.0 1332.0 443.0Q1267.5 457.0 1182.5 457.0H1137.5V323.0H867.5V414.0Q867.5 429.0 798.5 449.0Q729.5 469.0 631.5 469.0H586.5V323.0H56.5ZM1528.5 1075.0H1377.5V1247.0H1528.5ZM1528.5 1018.0V852.0H1377.5V1018.0ZM973.5 1075.0V1247.0H1119.5V1075.0ZM973.5 1018.0H1119.5V852.0H973.5Z" fill="black"></path></svg>