<?xml version="1.0" standalone="no"?>
<!DOCTYPE svg PUBLIC "-//W3C//DTD SVG 1.1//EN" "http://www.w3.org/Graphics/SVG/1.1/DTD/svg11.dtd" >
<svg xmlns="http://www.w3.org/2000/svg" xmlns:svg="http://www.w3.org/2000/svg" xmlns:xlink="http://www.w3.org/1999/xlink" viewBox="0 0 2048 2048" style=""><path d="M527.0 733.5 854.0 704.5V524.5H510.0V933.5Q510.0 1056.5 498.0 1196.0Q486.0 1335.5 443.0 1476.5Q400.0 1617.5 308.0 1747.0Q216.0 1876.5 55.0 1980.5L39.0 1966.5Q126.0 1813.5 165.0 1638.5Q204.0 1463.5 213.5 1283.0Q223.0 1102.5 223.0 933.5V356.5L553.0 466.5H854.0V59.5L1225.0 86.5Q1222.0 107.5 1208.0 122.5Q1194.0 137.5 1151.0 145.5V284.5H1403.0L1548.0 102.5Q1548.0 102.5 1575.0 122.5Q1602.0 142.5 1643.0 174.5Q1684.0 206.5 1729.0 242.0Q1774.0 277.5 1811.0 309.5Q1808.0 326.5 1791.5 334.5Q1775.0 342.5 1753.0 342.5H1749.0L1977.0 555.5Q1955.0 578.5 1897.0 581.5Q1838.0 623.5 1749.5 671.0Q1661.0 718.5 1587.0 747.5L1573.0 735.5Q1582.0 692.5 1592.0 633.5Q1602.0 574.5 1608.0 524.5H1020.0L1186.0 536.5Q1180.0 579.5 1122.0 587.5V682.5L1227.0 673.5L1327.0 528.5Q1327.0 528.5 1364.5 552.0Q1402.0 575.5 1452.5 609.5Q1503.0 643.5 1544.0 673.5Q1543.0 690.5 1528.0 701.0Q1513.0 711.5 1493.0 712.5L1122.0 743.5V808.5Q1122.0 827.5 1133.5 833.5Q1145.0 839.5 1194.0 839.5H1411.0Q1460.0 839.5 1509.0 839.5Q1558.0 839.5 1581.0 837.5Q1625.0 837.5 1651.0 821.5Q1666.0 808.5 1690.0 782.5Q1714.0 756.5 1739.0 714.5H1757.0L1768.0 819.5Q1824.0 839.5 1844.0 861.5Q1864.0 883.5 1864.0 915.5Q1864.0 975.5 1811.5 1002.0Q1759.0 1028.5 1616.0 1036.5L1788.0 1177.5Q1769.0 1199.5 1723.0 1208.5V1427.5Q1723.0 1452.5 1741.0 1452.5H1753.0Q1758.0 1452.5 1762.5 1452.5Q1767.0 1452.5 1772.0 1452.5Q1778.0 1452.5 1787.5 1450.0Q1797.0 1447.5 1804.0 1441.5Q1830.0 1416.5 1866.0 1331.5H1886.0L1895.0 1443.5Q1933.0 1462.5 1944.5 1481.5Q1956.0 1500.5 1956.0 1529.5Q1956.0 1594.5 1897.0 1620.5Q1838.0 1646.5 1723.0 1646.5H1653.0Q1577.0 1646.5 1542.5 1629.0Q1508.0 1611.5 1498.5 1572.0Q1489.0 1532.5 1489.0 1468.5V1189.5H1424.0V1273.5Q1424.0 1320.5 1412.0 1377.5Q1400.0 1434.5 1364.5 1493.0Q1329.0 1551.5 1260.0 1604.0Q1191.0 1656.5 1075.0 1693.5L1061.0 1673.5Q1119.0 1613.5 1145.0 1545.0Q1171.0 1476.5 1177.5 1407.0Q1184.0 1337.5 1184.0 1273.5V1040.5H1141.0Q982.0 1040.5 924.0 1009.5Q919.0 1023.5 903.5 1029.5Q888.0 1035.5 854.0 1032.5Q840.0 1073.5 824.0 1114.0Q808.0 1154.5 791.0 1194.5H838.0L961.0 1071.5L1178.0 1251.5Q1163.0 1276.5 1102.0 1282.5Q1070.0 1383.5 1021.0 1476.0Q972.0 1568.5 903.0 1648.5Q976.0 1696.5 1074.0 1711.5Q1172.0 1726.5 1301.0 1726.5Q1359.0 1726.5 1452.5 1726.5Q1546.0 1726.5 1651.0 1726.0Q1756.0 1725.5 1851.5 1724.5Q1947.0 1723.5 2009.0 1722.5V1744.5Q1946.0 1760.5 1916.0 1823.5Q1886.0 1886.5 1886.0 1966.5Q1837.0 1966.5 1758.5 1966.5Q1680.0 1966.5 1592.0 1966.5Q1504.0 1966.5 1424.5 1966.5Q1345.0 1966.5 1295.0 1966.5Q1119.0 1966.5 997.5 1922.0Q876.0 1877.5 799.0 1753.5Q713.0 1828.5 602.0 1888.0Q491.0 1947.5 352.0 1988.5L338.0 1962.5Q470.0 1891.5 565.5 1796.0Q661.0 1700.5 727.0 1587.5Q701.0 1502.5 682.0 1386.5Q633.0 1458.5 572.5 1522.5Q512.0 1586.5 438.0 1638.5L418.0 1624.5Q470.0 1541.5 508.5 1425.5Q547.0 1309.5 570.5 1181.0Q594.0 1052.5 602.0 931.5L907.0 999.5Q877.0 976.5 865.5 938.5Q854.0 900.5 854.0 841.5V765.5L547.0 792.5ZM1151.0 466.5H1594.0L1716.0 342.5H1151.0ZM1200.0 1040.5 1460.0 1132.5H1469.0L1557.0 1038.5L1381.0 1040.5ZM850.0 1251.5H762.0Q750.0 1275.5 736.0 1300.0Q722.0 1324.5 707.0 1347.5Q738.0 1438.5 770.0 1497.5Q822.0 1380.5 850.0 1251.5Z" fill="black"></path></svg>