<?xml version="1.0" standalone="no"?>
<!DOCTYPE svg PUBLIC "-//W3C//DTD SVG 1.1//EN" "http://www.w3.org/Graphics/SVG/1.1/DTD/svg11.dtd" >
<svg xmlns="http://www.w3.org/2000/svg" xmlns:svg="http://www.w3.org/2000/svg" xmlns:xlink="http://www.w3.org/1999/xlink" viewBox="0 0 2048 2048" style=""><path d="M1693.0 185.5Q1816.0 213.5 1883.5 258.0Q1951.0 302.5 1974.0 352.0Q1997.0 401.5 1986.5 445.0Q1976.0 488.5 1942.0 515.5Q1908.0 542.5 1862.0 541.5Q1816.0 540.5 1768.0 499.5Q1768.0 419.5 1739.0 337.0Q1710.0 254.5 1674.0 195.5ZM101.0 451.5V367.5L306.0 451.5H327.0V52.5L615.0 77.5Q612.0 97.5 598.5 111.0Q585.0 124.5 548.0 130.5L550.0 451.5L646.0 351.5L841.0 501.5Q833.0 510.5 816.5 520.0Q800.0 529.5 775.0 533.5V1133.5L992.0 1088.5V746.5H800.0L783.0 689.5H992.0V357.5Q934.0 365.5 873.5 370.5Q813.0 375.5 755.0 378.5L749.0 353.5Q826.0 317.5 909.5 266.0Q993.0 214.5 1065.5 160.0Q1138.0 105.5 1183.0 60.5L1383.0 232.5V77.5L1719.0 114.5Q1716.0 134.5 1699.5 150.0Q1683.0 165.5 1644.0 171.5Q1640.0 308.5 1638.0 438.5Q1636.0 568.5 1637.0 689.5H1639.0L1771.0 501.5Q1771.0 501.5 1794.5 522.5Q1818.0 543.5 1854.5 576.5Q1891.0 609.5 1930.5 646.0Q1970.0 682.5 2002.0 714.5Q1993.0 746.5 1945.0 746.5H1637.0Q1639.0 854.5 1644.0 954.0Q1649.0 1053.5 1660.0 1142.5Q1680.0 1076.5 1696.5 1007.5Q1713.0 938.5 1725.0 867.5L2012.0 986.5Q2005.0 1004.5 1984.5 1015.0Q1964.0 1025.5 1930.0 1021.5Q1856.0 1257.5 1730.0 1457.5Q1746.0 1502.5 1766.5 1542.0Q1787.0 1581.5 1814.0 1615.5Q1829.0 1636.5 1838.5 1635.0Q1848.0 1633.5 1861.0 1609.5Q1884.0 1567.5 1914.0 1496.5Q1944.0 1425.5 1967.0 1361.5L1990.0 1365.5L1949.0 1713.5Q1990.0 1807.5 1999.5 1866.0Q2009.0 1924.5 1979.0 1949.5Q1928.0 1995.5 1868.0 1987.5Q1808.0 1979.5 1754.0 1943.5Q1700.0 1907.5 1666.0 1867.5Q1632.0 1825.5 1604.0 1778.5Q1576.0 1731.5 1553.0 1680.5Q1478.0 1757.5 1391.5 1823.0Q1305.0 1888.5 1205.0 1938.5L1183.0 1918.5Q1275.0 1843.5 1353.5 1746.0Q1432.0 1648.5 1496.0 1533.5Q1442.0 1367.5 1419.5 1170.0Q1397.0 972.5 1390.0 746.5H1238.0V1031.5L1396.0 992.5L1402.0 1013.5Q1334.0 1070.5 1238.0 1146.5V1688.5Q1238.0 1769.5 1218.0 1833.0Q1198.0 1896.5 1135.5 1936.0Q1073.0 1975.5 945.0 1985.5Q944.0 1927.5 937.5 1884.5Q931.0 1841.5 912.0 1813.5Q897.0 1790.5 872.0 1772.5Q847.0 1754.5 800.0 1742.5Q763.0 1782.5 707.5 1781.0Q652.0 1779.5 601.0 1719.5Q606.0 1687.5 608.5 1655.0Q611.0 1622.5 611.0 1588.5Q541.0 1639.5 442.0 1706.0Q343.0 1772.5 214.0 1852.5Q197.0 1895.5 157.0 1906.5L36.0 1619.5Q80.0 1614.5 154.0 1603.5Q228.0 1592.5 321.0 1578.5V1174.5H296.0V1211.5Q296.0 1225.5 244.5 1250.5Q193.0 1275.5 130.0 1275.5H101.0ZM1238.0 689.5H1388.0Q1384.0 598.5 1383.5 503.5Q1383.0 408.5 1383.0 308.5Q1357.0 308.5 1320.0 296.5L1238.0 316.5ZM605.0 1291.5Q727.0 1365.5 782.0 1444.5Q837.0 1523.5 843.0 1594.0Q849.0 1664.5 822.0 1711.5L955.0 1717.5Q992.0 1717.5 992.0 1680.5V1326.5L908.0 1385.5Q896.0 1429.5 855.0 1443.5L742.0 1203.5Q715.0 1215.5 675.0 1226.0Q635.0 1236.5 603.0 1236.5H568.0V1174.5H540.0V1539.5L611.0 1527.5Q608.0 1465.5 600.5 1408.0Q593.0 1350.5 583.0 1297.5ZM568.0 1117.5V509.5H511.0V1117.5ZM351.0 1117.5V509.5H296.0V1117.5Z" fill="black"></path></svg>