<?xml version="1.0" standalone="no"?>
<!DOCTYPE svg PUBLIC "-//W3C//DTD SVG 1.1//EN" "http://www.w3.org/Graphics/SVG/1.1/DTD/svg11.dtd" >
<svg xmlns="http://www.w3.org/2000/svg" xmlns:svg="http://www.w3.org/2000/svg" xmlns:xlink="http://www.w3.org/1999/xlink" viewBox="0 0 2048 2048" style=""><path d="M1514.0 1215.5 1825.0 1242.5Q1822.0 1263.5 1806.5 1278.5Q1791.0 1293.5 1749.0 1299.5V1706.5Q1749.0 1715.5 1719.5 1727.0Q1690.0 1738.5 1645.5 1747.5Q1601.0 1756.5 1554.0 1756.5H1514.0V1631.5H1430.0V1897.5H1604.0L1745.0 1723.5Q1745.0 1723.5 1771.0 1742.5Q1797.0 1761.5 1837.0 1792.0Q1877.0 1822.5 1921.5 1857.0Q1966.0 1891.5 2003.0 1921.5Q1994.0 1954.5 1944.0 1954.5H303.0L287.0 1897.5H825.0V1631.5H748.0V1754.5Q748.0 1762.5 719.0 1774.0Q690.0 1785.5 646.0 1794.5Q602.0 1803.5 557.0 1803.5H518.0V1215.5L823.0 1242.5Q820.0 1263.5 804.5 1278.5Q789.0 1293.5 748.0 1299.5V1573.5H825.0V1162.5L1145.0 1188.5Q1142.0 1208.5 1128.0 1222.0Q1114.0 1235.5 1077.0 1242.5V1897.5H1172.0V1162.5L1495.0 1188.5Q1494.0 1208.5 1480.0 1222.0Q1466.0 1235.5 1430.0 1242.5V1573.5H1514.0ZM229.0 463.5V353.5L559.0 463.5H860.0V62.5L1231.0 89.5Q1228.0 110.5 1214.0 125.5Q1200.0 140.5 1157.0 148.5V275.5H1421.0L1567.0 93.5Q1567.0 93.5 1593.5 113.0Q1620.0 132.5 1661.0 163.5Q1702.0 194.5 1747.0 230.0Q1792.0 265.5 1829.0 295.5Q1823.0 328.5 1774.0 328.5H1751.0L1987.0 553.5Q1965.0 575.5 1907.0 578.5Q1866.0 612.5 1809.5 651.0Q1753.0 689.5 1693.5 725.5Q1634.0 761.5 1583.0 787.5L1567.0 775.5Q1581.0 722.5 1595.0 652.0Q1609.0 581.5 1618.0 521.5H516.0V932.5Q516.0 1056.5 504.0 1196.5Q492.0 1336.5 449.0 1478.5Q406.0 1620.5 314.0 1751.0Q222.0 1881.5 61.0 1985.5L45.0 1971.5Q132.0 1818.5 171.0 1642.5Q210.0 1466.5 219.5 1285.0Q229.0 1103.5 229.0 934.5ZM1157.0 463.5H1604.0L1739.0 328.5H1157.0ZM533.0 779.5 825.0 752.5V527.5L1165.0 551.5Q1162.0 594.5 1102.0 603.5V728.5L1204.0 717.5L1313.0 553.5Q1313.0 553.5 1354.0 579.0Q1395.0 604.5 1451.5 640.5Q1508.0 676.5 1554.0 709.5Q1548.0 744.5 1501.0 748.5L1102.0 785.5V857.5Q1102.0 877.5 1114.0 883.5Q1126.0 889.5 1174.0 889.5H1395.0Q1444.0 889.5 1493.0 889.5Q1542.0 889.5 1565.0 887.5Q1610.0 887.5 1634.0 869.5Q1675.0 839.5 1729.0 740.5H1749.0L1757.0 867.5Q1816.0 888.5 1837.0 912.5Q1858.0 936.5 1858.0 971.5Q1858.0 1028.5 1815.5 1059.5Q1773.0 1090.5 1666.0 1103.0Q1559.0 1115.5 1364.0 1115.5H1122.0Q1002.0 1115.5 937.5 1098.0Q873.0 1080.5 849.0 1034.5Q825.0 988.5 825.0 902.5V809.5L553.0 834.5Z" fill="black"></path></svg>