<?xml version="1.0" standalone="no"?>
<!DOCTYPE svg PUBLIC "-//W3C//DTD SVG 1.1//EN" "http://www.w3.org/Graphics/SVG/1.1/DTD/svg11.dtd" >
<svg xmlns="http://www.w3.org/2000/svg" xmlns:svg="http://www.w3.org/2000/svg" xmlns:xlink="http://www.w3.org/1999/xlink" viewBox="0 0 2048 2048" style=""><path d="M1144.0 910.0Q1141.0 929.0 1128.0 942.0Q1115.0 955.0 1076.0 961.0V1070.0H1193.0L1310.0 945.0L1556.0 1125.0Q1548.0 1136.0 1529.5 1148.0Q1511.0 1160.0 1482.0 1166.0V1402.0Q1481.0 1409.0 1443.0 1422.5Q1405.0 1436.0 1354.0 1447.5Q1303.0 1459.0 1261.0 1459.0H1214.0V1410.0H1076.0V1588.0L1193.0 1584.0Q1158.0 1514.0 1121.0 1465.0L1138.0 1455.0Q1282.0 1468.0 1362.5 1508.5Q1443.0 1549.0 1472.0 1600.5Q1501.0 1652.0 1492.0 1699.0Q1515.0 1696.0 1531.0 1680.0Q1574.0 1642.0 1595.5 1451.0Q1617.0 1260.0 1627.0 873.0H702.0Q662.0 910.0 619.0 944.0Q576.0 978.0 530.0 1010.0L685.0 1070.0H802.0V881.0ZM673.0 1426.0Q673.0 1437.0 639.5 1455.0Q606.0 1473.0 554.5 1487.5Q503.0 1502.0 450.0 1502.0H415.0V1084.0Q249.0 1183.0 65.0 1242.0L52.0 1225.0Q139.0 1164.0 223.0 1075.5Q307.0 987.0 379.0 883.5Q451.0 780.0 503.0 675.0Q468.0 688.0 420.5 699.5Q373.0 711.0 327.0 711.0H288.0V72.0L591.0 187.0H1551.0L1676.0 50.0L1941.0 247.0Q1931.0 259.0 1911.0 271.5Q1891.0 284.0 1859.0 292.0V621.0Q1858.0 628.0 1817.5 642.0Q1777.0 656.0 1721.5 667.5Q1666.0 679.0 1621.0 679.0H1572.0V601.0H697.0L953.0 668.0Q947.0 685.0 930.5 692.5Q914.0 700.0 869.0 697.0Q820.0 759.0 763.0 816.0H1607.0L1752.0 673.0L1996.0 881.0Q1984.0 895.0 1963.0 905.5Q1942.0 916.0 1908.0 922.0Q1901.0 1173.0 1890.0 1345.5Q1879.0 1518.0 1860.5 1629.0Q1842.0 1740.0 1813.0 1805.5Q1784.0 1871.0 1740.0 1907.0Q1638.0 1998.0 1457.0 1998.0Q1457.0 1932.0 1450.5 1883.5Q1444.0 1835.0 1422.0 1807.0L1412.0 1795.0Q1380.0 1807.0 1341.0 1802.0Q1302.0 1797.0 1261.0 1768.0Q1255.0 1737.0 1244.5 1704.5Q1234.0 1672.0 1222.0 1641.0Q1091.0 1681.0 907.5 1730.0Q724.0 1779.0 470.0 1842.0Q450.0 1880.0 411.0 1887.0L274.0 1602.0Q355.0 1604.0 492.5 1601.5Q630.0 1599.0 802.0 1596.0V1410.0H673.0ZM802.0 1127.0H673.0V1352.0H802.0ZM1076.0 1127.0V1352.0H1214.0V1127.0ZM1146.0 244.0H990.0V543.0H1146.0ZM1404.0 244.0V543.0H1572.0V244.0ZM734.0 244.0H568.0V543.0H734.0Z" fill="black"></path></svg>