<?xml version="1.0" standalone="no"?>
<!DOCTYPE svg PUBLIC "-//W3C//DTD SVG 1.1//EN" "http://www.w3.org/Graphics/SVG/1.1/DTD/svg11.dtd" >
<svg xmlns="http://www.w3.org/2000/svg" xmlns:svg="http://www.w3.org/2000/svg" xmlns:xlink="http://www.w3.org/1999/xlink" viewBox="0 0 2048 2048" style=""><path d="M322.5 132.0H353.5Q411.5 276.0 390.0 378.5Q368.5 481.0 310.5 519.0Q270.5 545.0 218.5 535.5Q166.5 526.0 148.5 478.0Q132.5 432.0 155.5 395.0Q178.5 358.0 219.5 337.0Q261.5 312.0 295.0 253.5Q328.5 195.0 322.5 132.0ZM1143.5 140.0H1176.5Q1231.5 283.0 1206.5 381.5Q1181.5 480.0 1123.5 515.0Q1081.5 538.0 1032.0 529.0Q982.5 520.0 965.5 474.0Q951.5 430.0 974.5 394.5Q997.5 359.0 1037.5 341.0Q1080.5 316.0 1114.5 259.5Q1148.5 203.0 1143.5 140.0ZM822.5 136.0 1047.5 226.0Q1039.5 243.0 1020.5 254.0Q1001.5 265.0 969.5 263.0Q921.5 306.0 867.0 349.0Q812.5 392.0 764.5 421.0L733.5 404.0Q753.5 355.0 777.0 282.5Q800.5 210.0 822.5 136.0ZM1665.5 140.0 1927.5 267.0Q1920.5 283.0 1899.5 293.0Q1878.5 303.0 1846.5 298.0Q1784.5 336.0 1715.0 372.0Q1645.5 408.0 1583.5 429.0L1557.5 413.0Q1581.5 363.0 1610.5 290.0Q1639.5 217.0 1665.5 140.0ZM1305.5 1527.0 1368.5 1533.0V1459.0H1172.5V1687.0L1432.5 1684.0Q1404.5 1645.0 1370.0 1608.0Q1335.5 1571.0 1295.5 1543.0ZM1368.5 1402.0V1170.0H1172.5V1402.0ZM1291.5 52.0 1618.5 79.0Q1612.5 122.0 1553.5 130.0Q1547.5 216.0 1536.0 295.0Q1524.5 374.0 1493.5 443.0Q1625.5 453.0 1701.5 492.0Q1777.5 531.0 1806.0 582.5Q1834.5 634.0 1825.5 681.5Q1816.5 729.0 1778.5 755.0L1952.5 921.0Q1940.5 934.0 1923.5 939.0Q1906.5 944.0 1872.5 947.0Q1820.5 978.0 1746.5 1012.5Q1672.5 1047.0 1602.5 1074.0L1737.5 1172.0Q1728.5 1185.0 1708.0 1197.5Q1687.5 1210.0 1655.5 1218.0V1488.0Q1654.5 1495.0 1618.5 1507.5Q1582.5 1520.0 1532.0 1531.0Q1481.5 1542.0 1436.5 1545.0Q1563.5 1568.0 1657.5 1619.0Q1751.5 1670.0 1798.5 1748.0Q1828.5 1800.0 1821.0 1849.0Q1813.5 1898.0 1781.0 1934.5Q1748.5 1971.0 1704.0 1983.5Q1659.5 1996.0 1613.5 1976.0Q1567.5 1956.0 1532.5 1891.0Q1525.5 1864.0 1511.5 1830.0Q1497.5 1796.0 1477.5 1760.0Q1291.5 1800.0 1033.5 1845.5Q775.5 1891.0 420.5 1947.0Q408.5 1967.0 391.5 1978.0Q374.5 1989.0 357.5 1992.0L209.5 1682.0Q317.5 1685.0 491.5 1687.0Q665.5 1689.0 885.5 1689.0V1459.0H701.5V1514.0Q701.5 1526.0 665.5 1545.5Q629.5 1565.0 575.0 1580.5Q520.5 1596.0 465.5 1596.0H428.5V1064.0Q387.5 1135.0 316.5 1164.0Q254.5 1189.0 189.5 1164.0Q124.5 1139.0 107.5 1070.0Q93.5 1002.0 129.0 957.5Q164.5 913.0 219.5 892.0Q281.5 873.0 341.0 824.0Q400.5 775.0 406.5 708.0Q300.5 760.0 146.5 800.0L127.5 773.0Q266.5 706.0 340.5 629.0Q414.5 552.0 445.5 463.0Q476.5 374.0 482.5 272.0Q488.5 170.0 490.5 52.0L799.5 77.0Q796.5 97.0 781.5 111.0Q766.5 125.0 733.5 130.0Q729.5 210.0 720.5 283.5Q711.5 357.0 686.5 423.0Q823.5 438.0 889.5 482.0Q955.5 526.0 966.5 578.0Q977.5 630.0 949.5 671.5Q921.5 713.0 868.5 724.0Q815.5 735.0 754.5 695.0Q743.5 642.0 717.0 586.0Q690.5 530.0 660.5 482.0Q627.5 545.0 568.5 601.5Q509.5 658.0 412.5 706.0H430.5Q443.5 738.0 451.5 768.5Q459.5 799.0 463.5 826.0H1542.5L1630.5 738.0Q1600.5 681.0 1550.5 624.0Q1500.5 567.0 1448.5 519.0Q1390.5 599.0 1274.0 665.0Q1157.5 731.0 955.5 781.0L938.5 755.0Q1073.5 689.0 1145.5 614.0Q1217.5 539.0 1247.5 452.5Q1277.5 366.0 1283.5 266.5Q1289.5 167.0 1291.5 52.0ZM701.5 1402.0H885.5V1170.0H701.5ZM885.5 912.0 1237.5 941.0Q1236.5 959.0 1223.0 973.5Q1209.5 988.0 1172.5 994.0V1113.0H1348.5L1471.5 976.0L1534.5 1023.0L1557.5 884.0H467.5Q470.5 955.0 451.5 1013.0L717.5 1113.0H885.5Z" fill="black"></path></svg>