<?xml version="1.0" standalone="no"?>
<!DOCTYPE svg PUBLIC "-//W3C//DTD SVG 1.1//EN" "http://www.w3.org/Graphics/SVG/1.1/DTD/svg11.dtd" >
<svg xmlns="http://www.w3.org/2000/svg" xmlns:svg="http://www.w3.org/2000/svg" xmlns:xlink="http://www.w3.org/1999/xlink" viewBox="0 0 2048 2048" style=""><path d="M649.5 638.0H536.5V1862.0H649.5ZM915.5 638.0V1862.0H1032.5V638.0ZM22.5 1862.0H253.5V468.0L554.5 580.0H727.5Q742.5 513.0 756.0 432.0Q769.5 351.0 780.5 271.0Q791.5 191.0 798.5 128.0L1224.5 226.0Q1218.5 245.0 1201.0 257.0Q1183.5 269.0 1146.5 269.0Q1080.5 335.0 994.5 421.0Q908.5 507.0 815.5 580.0H1400.5L1519.5 425.0L1808.5 623.0Q1797.5 639.0 1777.0 649.0Q1756.5 659.0 1716.5 666.0V1807.0L1810.5 1651.0Q1810.5 1651.0 1833.0 1675.0Q1855.5 1699.0 1890.0 1735.5Q1924.5 1772.0 1961.0 1812.5Q1997.5 1853.0 2025.5 1887.0Q2019.5 1920.0 1970.5 1920.0H38.5ZM1300.5 638.0V1862.0H1419.5V638.0Z" fill="black"></path></svg>