<?xml version="1.0" standalone="no"?>
<!DOCTYPE svg PUBLIC "-//W3C//DTD SVG 1.1//EN" "http://www.w3.org/Graphics/SVG/1.1/DTD/svg11.dtd" >
<svg xmlns="http://www.w3.org/2000/svg" xmlns:svg="http://www.w3.org/2000/svg" xmlns:xlink="http://www.w3.org/1999/xlink" viewBox="0 0 2048 2048" style=""><path d="M1498.5 482.0H1365.5Q1365.5 634.0 1362.5 769.5Q1359.5 905.0 1349.5 1025.0H1498.5ZM1066.5 56.0 1445.5 89.0Q1436.5 138.0 1367.5 150.0V425.0H1474.5L1613.5 279.0L1881.5 482.0Q1870.5 496.0 1847.0 509.0Q1823.5 522.0 1785.5 529.0V1025.0H1801.5L1881.5 879.0Q1881.5 879.0 1907.0 908.0Q1932.5 937.0 1965.5 977.0Q1998.5 1017.0 2020.5 1049.0Q2014.5 1082.0 1969.5 1082.0H1371.5Q1419.5 1265.0 1578.5 1419.5Q1737.5 1574.0 2025.5 1662.0V1688.0Q1915.5 1714.0 1855.5 1785.0Q1795.5 1856.0 1783.5 1989.0Q1675.5 1919.0 1598.0 1815.0Q1520.5 1711.0 1469.5 1589.5Q1418.5 1468.0 1388.0 1342.5Q1357.5 1217.0 1343.5 1103.0Q1317.5 1315.0 1248.5 1480.0Q1179.5 1645.0 1038.5 1771.5Q897.5 1898.0 656.5 1994.0L640.5 1967.0Q784.5 1855.0 870.0 1723.5Q955.5 1592.0 998.0 1433.5Q1040.5 1275.0 1056.5 1082.0H837.5L820.5 1025.0H1060.5Q1068.5 903.0 1069.5 768.5Q1070.5 634.0 1068.5 482.0H898.5L880.5 425.0H1068.5ZM753.5 726.0 1001.5 883.0Q990.5 899.0 968.0 906.0Q945.5 913.0 915.5 904.0Q873.5 933.0 825.0 959.5Q776.5 986.0 724.5 1006.0Q815.5 1053.0 853.5 1109.5Q891.5 1166.0 889.0 1218.0Q886.5 1270.0 855.5 1304.5Q824.5 1339.0 775.5 1343.0Q726.5 1347.0 673.5 1305.0Q662.5 1235.0 631.5 1160.0Q600.5 1085.0 564.5 1021.0V1912.0Q564.5 1920.0 536.0 1940.0Q507.5 1960.0 455.5 1978.0Q403.5 1996.0 331.5 1996.0H280.5V1223.0Q224.5 1262.0 163.5 1298.0Q102.5 1334.0 38.5 1365.0L22.5 1342.0Q135.5 1236.0 233.0 1097.0Q330.5 958.0 404.0 805.5Q477.5 653.0 519.5 507.0H71.5L52.5 449.0H273.5V52.0L634.5 79.0Q632.5 100.0 618.0 115.0Q603.5 130.0 560.5 138.0V400.0L661.5 302.0L912.5 513.0Q903.5 530.0 886.5 537.5Q869.5 545.0 833.5 548.0Q788.5 652.0 724.5 755.0Q660.5 858.0 579.5 953.0Q603.5 959.0 626.5 966.5Q649.5 974.0 669.5 982.0Q692.5 933.0 713.5 864.5Q734.5 796.0 753.5 726.0Z" fill="black"></path></svg>