<?xml version="1.0" standalone="no"?>
<!DOCTYPE svg PUBLIC "-//W3C//DTD SVG 1.1//EN" "http://www.w3.org/Graphics/SVG/1.1/DTD/svg11.dtd" >
<svg xmlns="http://www.w3.org/2000/svg" xmlns:svg="http://www.w3.org/2000/svg" xmlns:xlink="http://www.w3.org/1999/xlink" viewBox="0 0 2048 2048" style=""><path d="M1572.0 945.0 1898.0 1160.0Q1890.0 1175.0 1872.5 1183.0Q1855.0 1191.0 1818.0 1185.0Q1732.0 1226.0 1614.5 1268.0Q1497.0 1310.0 1377.0 1342.0Q1503.0 1464.0 1665.5 1527.5Q1828.0 1591.0 2012.0 1619.0L2010.0 1649.0Q1795.0 1759.0 1773.0 1975.0Q1493.0 1849.0 1330.5 1599.0Q1168.0 1349.0 1093.0 939.0H1089.0Q1043.0 1002.0 982.5 1060.0Q922.0 1118.0 851.0 1170.0V1594.0L1251.0 1527.0L1253.0 1549.0Q1134.0 1621.0 942.5 1718.0Q751.0 1815.0 464.0 1942.0Q448.0 1985.0 407.0 1996.0L251.0 1684.0L560.0 1641.0V1342.0Q444.0 1397.0 315.0 1442.0Q186.0 1487.0 46.0 1522.0L36.0 1502.0Q170.0 1433.0 288.0 1340.5Q406.0 1248.0 501.0 1144.0Q596.0 1040.0 663.0 939.0H83.0L67.0 881.0H870.0V648.0H282.0L265.0 591.0H870.0V359.0H200.0L184.0 302.0H870.0V52.0L1248.0 83.0Q1245.0 104.0 1230.5 119.0Q1216.0 134.0 1173.0 140.0V302.0H1482.0L1621.0 107.0Q1621.0 107.0 1647.0 128.5Q1673.0 150.0 1712.5 184.0Q1752.0 218.0 1795.5 255.5Q1839.0 293.0 1873.0 326.0Q1864.0 359.0 1816.0 359.0H1173.0V591.0H1439.0L1576.0 400.0Q1576.0 400.0 1601.5 421.0Q1627.0 442.0 1665.5 475.5Q1704.0 509.0 1746.5 546.0Q1789.0 583.0 1824.0 615.0Q1815.0 648.0 1765.0 648.0H1173.0V881.0H1574.0L1715.0 689.0Q1715.0 689.0 1740.5 710.0Q1766.0 731.0 1805.5 764.5Q1845.0 798.0 1888.0 835.5Q1931.0 873.0 1965.0 906.0Q1956.0 939.0 1906.0 939.0H1134.0Q1169.0 1045.0 1216.5 1130.5Q1264.0 1216.0 1322.0 1285.0Q1396.0 1202.0 1465.0 1106.5Q1534.0 1011.0 1572.0 945.0Z" fill="black"></path></svg>