<?xml version="1.0" standalone="no"?>
<!DOCTYPE svg PUBLIC "-//W3C//DTD SVG 1.1//EN" "http://www.w3.org/Graphics/SVG/1.1/DTD/svg11.dtd" >
<svg xmlns="http://www.w3.org/2000/svg" xmlns:svg="http://www.w3.org/2000/svg" xmlns:xlink="http://www.w3.org/1999/xlink" viewBox="0 0 2048 2048" style=""><path d="M346.0 449.0V337.0L643.0 449.0H1401.0L1518.0 324.0H119.0L102.0 267.0H870.0V48.0L1233.0 75.0Q1231.0 95.0 1218.5 108.5Q1206.0 122.0 1167.0 128.0V267.0H1552.0L1694.0 75.0Q1694.0 75.0 1719.5 96.0Q1745.0 117.0 1785.0 150.0Q1825.0 183.0 1868.5 221.0Q1912.0 259.0 1948.0 292.0Q1939.0 324.0 1888.0 324.0H1536.0L1782.0 507.0Q1773.0 517.0 1755.0 529.0Q1737.0 541.0 1708.0 546.0V922.0Q1708.0 927.0 1697.0 932.0Q1686.0 937.0 1669.0 945.0Q1706.0 970.0 1762.0 1007.5Q1818.0 1045.0 1866.0 1080.0Q1857.0 1113.0 1808.0 1113.0H1161.0V1256.0H1616.0L1747.0 1113.0Q1747.0 1113.0 1788.0 1140.0Q1829.0 1167.0 1886.0 1206.0Q1943.0 1245.0 1991.0 1281.0Q1982.0 1314.0 1933.0 1314.0H1606.0L1819.0 1465.0Q1809.0 1479.0 1792.5 1485.5Q1776.0 1492.0 1739.0 1486.0Q1673.0 1503.0 1586.5 1524.0Q1500.0 1545.0 1415.0 1563.0Q1541.0 1623.0 1693.5 1653.0Q1846.0 1683.0 2009.0 1697.0V1719.0Q1843.0 1772.0 1802.0 1983.0Q1625.0 1930.0 1489.0 1852.5Q1353.0 1775.0 1256.5 1652.5Q1160.0 1530.0 1102.0 1340.0Q1050.0 1374.0 990.0 1402.0Q930.0 1430.0 862.0 1455.0V1662.0L1188.0 1623.0L1192.0 1647.0Q1078.0 1704.0 902.5 1778.0Q727.0 1852.0 467.0 1951.0Q447.0 1993.0 412.0 2000.0L266.0 1721.0L578.0 1692.0V1539.0Q455.0 1567.0 322.0 1585.5Q189.0 1604.0 49.0 1617.0L39.0 1592.0Q243.0 1544.0 415.0 1471.0Q587.0 1398.0 709.0 1314.0H104.0L88.0 1256.0H877.0V1113.0H238.0L221.0 1056.0H877.0V927.0H627.0V955.0Q627.0 967.0 590.5 987.0Q554.0 1007.0 498.0 1023.0Q442.0 1039.0 385.0 1039.0H346.0ZM1141.0 1314.0 1135.0 1318.0Q1175.0 1384.0 1228.0 1435.0Q1281.0 1486.0 1346.0 1525.0Q1385.0 1475.0 1429.0 1418.0Q1473.0 1361.0 1505.0 1314.0ZM1569.0 974.0Q1543.0 978.0 1518.5 981.0Q1494.0 984.0 1473.0 984.0H1421.0V927.0H1161.0V1056.0H1491.0ZM1421.0 507.0H1161.0V660.0H1421.0ZM627.0 718.0V869.0H877.0V718.0ZM627.0 660.0H877.0V507.0H627.0ZM1421.0 718.0H1161.0V869.0H1421.0Z" fill="black"></path></svg>