<?xml version="1.0" standalone="no"?>
<!DOCTYPE svg PUBLIC "-//W3C//DTD SVG 1.1//EN" "http://www.w3.org/Graphics/SVG/1.1/DTD/svg11.dtd" >
<svg xmlns="http://www.w3.org/2000/svg" xmlns:svg="http://www.w3.org/2000/svg" xmlns:xlink="http://www.w3.org/1999/xlink" viewBox="0 0 2048 2048" style=""><path d="M521.0 53.0 842.0 256.0Q833.0 271.0 815.5 279.0Q798.0 287.0 763.0 280.0Q684.0 347.0 579.5 417.5Q475.0 488.0 354.5 552.5Q234.0 617.0 107.0 665.0L91.0 645.0Q177.0 562.0 260.5 455.5Q344.0 349.0 412.5 242.5Q481.0 136.0 521.0 53.0ZM924.0 264.0H1561.0L1701.0 80.0Q1701.0 80.0 1726.5 100.5Q1752.0 121.0 1791.0 153.0Q1830.0 185.0 1873.0 221.0Q1916.0 257.0 1950.0 289.0Q1941.0 321.0 1893.0 321.0H941.0ZM548.0 461.0 890.0 661.0Q882.0 675.0 864.0 684.0Q846.0 693.0 808.0 688.0Q768.0 731.0 722.0 778.0Q676.0 825.0 623.0 872.0L718.0 907.0Q708.0 937.0 654.0 948.0V1921.0Q652.0 1931.0 615.5 1948.5Q579.0 1966.0 524.5 1980.5Q470.0 1995.0 412.0 1995.0H357.0V1091.0Q210.0 1198.0 52.0 1280.0L36.0 1261.0Q114.0 1175.0 190.0 1071.0Q266.0 967.0 334.5 857.5Q403.0 748.0 457.5 645.5Q512.0 543.0 548.0 461.0ZM808.0 737.0H1606.0L1752.0 545.0Q1752.0 545.0 1778.5 566.0Q1805.0 587.0 1846.0 620.0Q1887.0 653.0 1931.5 691.0Q1976.0 729.0 2012.0 762.0Q2003.0 794.0 1952.0 794.0H1678.0V1630.0Q1678.0 1726.0 1649.5 1800.0Q1621.0 1874.0 1535.0 1919.0Q1449.0 1964.0 1275.0 1974.0Q1270.0 1903.0 1254.0 1850.0Q1238.0 1797.0 1203.0 1765.0Q1168.0 1735.0 1117.0 1710.0Q1066.0 1685.0 955.0 1667.0V1642.0Q955.0 1642.0 987.5 1644.0Q1020.0 1646.0 1069.0 1649.0Q1118.0 1652.0 1171.0 1654.5Q1224.0 1657.0 1267.0 1659.0Q1310.0 1661.0 1328.0 1661.0Q1375.0 1661.0 1375.0 1622.0V794.0H824.0Z" fill="black"></path></svg>