<?xml version="1.0" standalone="no"?>
<!DOCTYPE svg PUBLIC "-//W3C//DTD SVG 1.1//EN" "http://www.w3.org/Graphics/SVG/1.1/DTD/svg11.dtd" >
<svg xmlns="http://www.w3.org/2000/svg" xmlns:svg="http://www.w3.org/2000/svg" xmlns:xlink="http://www.w3.org/1999/xlink" viewBox="0 0 2048 2048" style=""><path d="M414.0 74.0Q564.0 78.0 648.5 114.0Q733.0 150.0 764.5 200.5Q796.0 251.0 786.5 301.0Q777.0 351.0 738.5 385.0Q700.0 419.0 643.5 422.0Q587.0 425.0 526.0 381.0Q522.0 299.0 485.5 218.5Q449.0 138.0 399.0 84.0ZM858.0 991.0 1221.0 1018.0Q1219.0 1038.0 1206.5 1051.5Q1194.0 1065.0 1155.0 1071.0V1182.0H1575.0L1716.0 989.0Q1716.0 989.0 1742.0 1010.0Q1768.0 1031.0 1808.0 1064.5Q1848.0 1098.0 1891.5 1135.5Q1935.0 1173.0 1970.0 1206.0Q1961.0 1239.0 1911.0 1239.0H1614.0L1843.0 1397.0Q1834.0 1412.0 1817.5 1418.5Q1801.0 1425.0 1765.0 1417.0Q1699.0 1446.0 1612.0 1470.5Q1525.0 1495.0 1436.0 1515.0Q1552.0 1572.0 1688.5 1604.0Q1825.0 1636.0 1966.0 1655.0V1677.0Q1874.0 1703.0 1814.0 1777.5Q1754.0 1852.0 1727.0 1966.0Q1590.0 1909.0 1482.0 1838.0Q1374.0 1767.0 1292.0 1663.0Q1163.0 1720.0 972.0 1790.5Q781.0 1861.0 508.0 1952.0Q487.0 1991.0 447.0 2001.0L313.0 1702.0L596.0 1683.0V1513.0Q475.0 1552.0 338.0 1580.0Q201.0 1608.0 53.0 1626.0L43.0 1601.0Q254.0 1540.0 425.5 1444.5Q597.0 1349.0 709.0 1239.0H102.0L86.0 1182.0H858.0ZM1139.0 1239.0Q1179.0 1313.0 1234.5 1370.0Q1290.0 1427.0 1356.0 1470.0Q1408.0 1418.0 1457.0 1354.5Q1506.0 1291.0 1538.0 1239.0ZM881.0 1399.0V1661.0L1266.0 1626.0Q1161.0 1478.0 1104.0 1247.0Q1056.0 1290.0 1000.5 1328.0Q945.0 1366.0 881.0 1399.0ZM1344.0 61.0 1710.0 178.0Q1697.0 219.0 1632.0 213.0Q1572.0 260.0 1486.0 317.5Q1400.0 375.0 1311.0 424.0H1591.0L1743.0 272.0L2005.0 518.0Q1991.0 532.0 1974.0 537.5Q1957.0 543.0 1923.0 545.0Q1863.0 577.0 1774.5 611.5Q1686.0 646.0 1608.0 668.0L1643.0 694.0Q1635.0 705.0 1617.0 717.0Q1599.0 729.0 1571.0 735.0V999.0Q1570.0 1006.0 1529.0 1021.0Q1488.0 1036.0 1432.0 1048.5Q1376.0 1061.0 1331.0 1061.0H1280.0V975.0H772.0V1018.0Q772.0 1030.0 735.0 1050.5Q698.0 1071.0 641.5 1087.5Q585.0 1104.0 526.0 1104.0H488.0V524.0L784.0 637.0H1260.0L1385.0 504.0L1571.0 641.0Q1591.0 561.0 1604.0 481.0H399.0Q416.0 595.0 381.0 673.0Q346.0 751.0 285.0 780.0Q222.0 811.0 157.0 786.5Q92.0 762.0 72.0 690.0Q55.0 619.0 91.0 571.5Q127.0 524.0 186.0 500.0Q233.0 472.0 272.0 407.0Q311.0 342.0 297.0 262.0L320.0 260.0Q365.0 345.0 387.0 424.0H866.0V47.0L1229.0 76.0Q1227.0 94.0 1214.5 107.5Q1202.0 121.0 1163.0 127.0V424.0H1251.0Q1281.0 342.0 1305.5 241.0Q1330.0 140.0 1344.0 61.0ZM772.0 917.0H1280.0V694.0H772.0Z" fill="black"></path></svg>