<?xml version="1.0" standalone="no"?>
<!DOCTYPE svg PUBLIC "-//W3C//DTD SVG 1.1//EN" "http://www.w3.org/Graphics/SVG/1.1/DTD/svg11.dtd" >
<svg xmlns="http://www.w3.org/2000/svg" xmlns:svg="http://www.w3.org/2000/svg" xmlns:xlink="http://www.w3.org/1999/xlink" viewBox="0 0 2048 2048" style=""><path d="M683.5 547.0H1041.5L1166.5 405.0Q1166.5 405.0 1205.0 432.0Q1243.5 459.0 1297.0 497.5Q1350.5 536.0 1395.5 571.0Q1386.5 604.0 1338.5 604.0H699.5ZM1111.5 219.0Q1040.5 306.0 926.0 391.0Q811.5 476.0 668.0 552.0Q524.5 628.0 367.0 688.0Q209.5 748.0 52.5 784.0L42.5 762.0Q178.5 697.0 308.0 608.0Q437.5 519.0 546.0 419.5Q654.5 320.0 730.5 222.0Q806.5 124.0 834.5 41.0L1250.5 147.0Q1244.5 169.0 1220.5 179.5Q1196.5 190.0 1139.5 197.0Q1214.5 252.0 1321.5 291.5Q1428.5 331.0 1550.5 356.5Q1672.5 382.0 1793.5 394.5Q1914.5 407.0 2016.5 407.0V440.0Q1957.5 461.0 1914.0 508.0Q1870.5 555.0 1845.5 614.0Q1820.5 673.0 1815.5 729.0Q1586.5 661.0 1398.0 531.5Q1209.5 402.0 1111.5 219.0ZM404.5 731.0H1342.5L1459.5 596.0L1721.5 805.0Q1710.5 817.0 1689.0 828.0Q1667.5 839.0 1635.5 844.0Q1617.5 890.0 1587.5 960.0Q1557.5 1030.0 1531.5 1083.0Q1475.5 1103.0 1401.5 1101.0Q1327.5 1099.0 1234.5 1067.0Q1261.5 1002.0 1292.5 926.5Q1323.5 851.0 1346.5 788.0H423.5ZM249.5 1692.0 570.5 1675.0V1491.0Q449.5 1523.0 316.5 1546.5Q183.5 1570.0 42.5 1587.0L31.5 1563.0Q250.5 1504.0 432.0 1414.5Q613.5 1325.0 736.5 1223.0H95.5L79.5 1165.0H883.5V958.0L1246.5 985.0Q1244.5 1005.0 1232.0 1018.5Q1219.5 1032.0 1180.5 1038.0V1165.0H1606.5L1748.5 973.0Q1748.5 973.0 1774.0 994.0Q1799.5 1015.0 1839.5 1048.5Q1879.5 1082.0 1922.5 1119.5Q1965.5 1157.0 2000.5 1190.0Q1991.5 1223.0 1942.5 1223.0H1655.5L1895.5 1390.0Q1886.5 1404.0 1870.0 1410.5Q1853.5 1417.0 1817.5 1411.0Q1744.5 1445.0 1648.5 1476.0Q1552.5 1507.0 1451.5 1532.0Q1574.5 1604.0 1718.0 1646.0Q1861.5 1688.0 2012.5 1714.0L2010.5 1737.0Q1836.5 1783.0 1782.5 1999.0Q1616.5 1927.0 1487.5 1831.0Q1358.5 1735.0 1267.0 1592.5Q1175.5 1450.0 1121.5 1239.0Q1013.5 1326.0 855.5 1393.0V1659.0L1258.5 1630.0V1653.0Q1138.5 1711.0 948.0 1785.5Q757.5 1860.0 466.5 1960.0Q456.5 1980.0 440.0 1992.0Q423.5 2004.0 406.5 2007.0ZM1156.5 1223.0Q1196.5 1302.0 1252.5 1367.0Q1308.5 1432.0 1377.5 1483.0Q1437.5 1421.0 1494.5 1350.0Q1551.5 1279.0 1588.5 1223.0Z" fill="black"></path></svg>