<?xml version="1.0" standalone="no"?>
<!DOCTYPE svg PUBLIC "-//W3C//DTD SVG 1.1//EN" "http://www.w3.org/Graphics/SVG/1.1/DTD/svg11.dtd" >
<svg xmlns="http://www.w3.org/2000/svg" xmlns:svg="http://www.w3.org/2000/svg" xmlns:xlink="http://www.w3.org/1999/xlink" viewBox="0 0 2048 2048" style=""><path d="M171.5 650.5V535.5L485.5 650.5H644.5V322.5H79.5L63.5 265.5H1523.5L1687.5 62.5Q1687.5 62.5 1717.0 84.5Q1746.5 106.5 1793.0 141.5Q1839.5 176.5 1890.5 216.0Q1941.5 255.5 1984.5 290.5Q1975.5 322.5 1922.5 322.5H1318.5V650.5H1558.5L1701.5 484.5L1957.5 687.5Q1946.5 702.5 1927.5 714.5Q1908.5 726.5 1871.5 734.5V1901.5Q1871.5 1909.5 1841.0 1927.5Q1810.5 1945.5 1754.5 1961.5Q1698.5 1977.5 1621.5 1977.5H1568.5V1768.5H460.5V1914.5Q460.5 1927.5 398.0 1956.5Q335.5 1985.5 224.5 1985.5H171.5ZM921.5 322.5V650.5H1046.5V322.5ZM460.5 1711.5H1568.5V1273.5Q1519.5 1355.5 1318.5 1355.5H1236.5Q1150.5 1355.5 1110.0 1334.5Q1069.5 1313.5 1058.0 1265.5Q1046.5 1217.5 1046.5 1135.5V707.5H921.5Q920.5 806.5 906.0 915.0Q891.5 1023.5 846.0 1130.0Q800.5 1236.5 708.5 1333.0Q616.5 1429.5 460.5 1504.5ZM460.5 1471.5Q544.5 1360.5 583.5 1232.0Q622.5 1103.5 633.5 969.5Q644.5 835.5 644.5 707.5H460.5ZM1318.5 707.5V1060.5Q1318.5 1092.5 1339.5 1092.5H1355.5Q1360.5 1092.5 1365.5 1092.5Q1370.5 1092.5 1377.5 1092.5Q1385.5 1092.5 1396.5 1090.0Q1407.5 1087.5 1414.5 1076.5Q1428.5 1059.5 1449.5 1008.5Q1470.5 957.5 1490.5 900.5H1511.5L1519.5 1084.5Q1537.5 1093.5 1549.0 1104.0Q1560.5 1114.5 1568.5 1125.5V707.5Z" fill="black"></path></svg>