<?xml version="1.0" standalone="no"?>
<!DOCTYPE svg PUBLIC "-//W3C//DTD SVG 1.1//EN" "http://www.w3.org/Graphics/SVG/1.1/DTD/svg11.dtd" >
<svg xmlns="http://www.w3.org/2000/svg" xmlns:svg="http://www.w3.org/2000/svg" xmlns:xlink="http://www.w3.org/1999/xlink" viewBox="0 0 2048 2048" style=""><path d="M364.0 200.5V80.5L673.0 200.5H1351.0L1484.0 53.5L1750.0 260.5Q1739.0 274.5 1719.5 286.0Q1700.0 297.5 1668.0 305.5V1263.5Q1667.0 1271.5 1626.5 1289.5Q1586.0 1307.5 1529.0 1322.5Q1472.0 1337.5 1420.0 1337.5H1371.0V1235.5H1341.0V1652.5Q1341.0 1672.5 1352.0 1681.0Q1363.0 1689.5 1404.0 1689.5H1576.0Q1614.0 1689.5 1650.0 1689.5Q1686.0 1689.5 1707.0 1687.5Q1742.0 1685.5 1762.0 1656.5Q1782.0 1627.5 1809.5 1558.0Q1837.0 1488.5 1875.0 1386.5H1896.0L1902.0 1669.5Q1957.0 1690.5 1974.5 1717.5Q1992.0 1744.5 1992.0 1786.5Q1992.0 1842.5 1953.0 1880.0Q1914.0 1917.5 1816.0 1937.0Q1718.0 1956.5 1541.0 1956.5H1336.0Q1221.0 1956.5 1160.0 1936.5Q1099.0 1916.5 1076.5 1866.0Q1054.0 1815.5 1054.0 1722.5V1235.5H939.0Q920.0 1447.5 825.0 1600.0Q730.0 1752.5 543.0 1850.0Q356.0 1947.5 63.0 1994.5L56.0 1972.5Q250.0 1897.5 366.5 1800.0Q483.0 1702.5 540.0 1578.5Q597.0 1454.5 611.0 1300.5Q576.0 1320.5 521.5 1337.0Q467.0 1353.5 409.0 1353.5H364.0ZM1371.0 1177.5V905.5H657.0V1177.5ZM1371.0 848.5V579.5H657.0V848.5ZM1371.0 522.5V258.5H657.0V522.5Z" fill="black"></path></svg>