<?xml version="1.0" standalone="no"?>
<!DOCTYPE svg PUBLIC "-//W3C//DTD SVG 1.1//EN" "http://www.w3.org/Graphics/SVG/1.1/DTD/svg11.dtd" >
<svg xmlns="http://www.w3.org/2000/svg" xmlns:svg="http://www.w3.org/2000/svg" xmlns:xlink="http://www.w3.org/1999/xlink" viewBox="0 0 2048 2048" style=""><path d="M1261.0 589.0H1435.0L1439.0 454.0H1294.0Q1278.0 483.0 1226.0 471.0Q1212.0 491.0 1194.0 509.5Q1176.0 528.0 1156.0 546.0Q1212.0 592.0 1213.5 641.5Q1215.0 691.0 1179.0 718.5Q1143.0 746.0 1085.0 725.0Q1074.0 705.0 1058.0 684.5Q1042.0 664.0 1023.0 643.0Q908.0 711.0 782.0 749.0L765.0 719.0Q814.0 689.0 861.5 652.0Q909.0 615.0 952.0 573.0Q922.0 547.0 892.5 524.5Q863.0 502.0 837.0 485.0L855.0 467.0Q957.0 467.0 1027.0 485.0Q1043.0 465.0 1056.5 444.0Q1070.0 423.0 1083.0 401.0L1074.0 399.0Q1062.0 384.0 1046.5 366.0Q1031.0 348.0 1011.0 331.0Q968.0 359.0 921.5 384.5Q875.0 410.0 829.0 430.0Q820.0 454.0 782.0 454.0H571.0L575.0 589.0H608.0L689.0 481.0Q689.0 481.0 714.5 502.5Q740.0 524.0 774.5 554.5Q809.0 585.0 837.0 614.0Q831.0 647.0 786.0 647.0H575.0L579.0 764.0H1427.0L1433.0 647.0H1279.0ZM804.0 395.0Q838.0 367.0 871.5 335.0Q905.0 303.0 935.0 268.0Q895.0 237.0 855.0 213.0H853.0Q806.0 226.0 728.0 241.5Q650.0 257.0 567.0 266.0L571.0 397.0H605.0L685.0 295.0Q685.0 295.0 724.5 326.5Q764.0 358.0 804.0 395.0ZM255.0 639.0 280.0 637.0Q306.0 686.0 321.0 727.0L309.0 155.0L550.0 196.0Q598.0 158.0 641.5 117.0Q685.0 76.0 710.0 49.0L882.0 176.0Q916.0 176.0 946.0 177.5Q976.0 179.0 1001.0 184.0Q1047.0 119.0 1074.0 61.0L1265.0 157.0Q1252.0 183.0 1197.0 174.0Q1185.0 189.0 1169.5 204.5Q1154.0 220.0 1136.0 237.0Q1187.0 276.0 1189.0 321.5Q1191.0 367.0 1158.0 389.0L1290.0 452.0L1271.0 397.0H1441.0L1447.0 260.0H1267.0L1249.0 202.0H1429.0L1533.0 77.0L1795.0 264.0Q1776.0 288.0 1720.0 299.0L1705.0 688.0L1771.0 622.0L2017.0 854.0Q1995.0 878.0 1939.0 880.0Q1887.0 908.0 1809.0 942.5Q1731.0 977.0 1666.0 1001.0L1693.0 1020.0Q1684.0 1030.0 1665.0 1042.0Q1646.0 1054.0 1617.0 1061.0V1570.0Q1616.0 1578.0 1575.5 1592.5Q1535.0 1607.0 1479.5 1619.5Q1424.0 1632.0 1378.0 1632.0H1357.0V1708.0Q1357.0 1723.0 1365.5 1728.5Q1374.0 1734.0 1412.0 1734.0H1578.0Q1615.0 1734.0 1649.5 1734.0Q1684.0 1734.0 1705.0 1734.0Q1741.0 1732.0 1759.0 1712.0Q1791.0 1677.0 1861.0 1527.0H1879.0L1885.0 1714.0Q1939.0 1735.0 1956.5 1760.5Q1974.0 1786.0 1974.0 1822.0Q1974.0 1873.0 1937.5 1904.5Q1901.0 1936.0 1807.0 1951.0Q1713.0 1966.0 1541.0 1966.0H1343.0Q1229.0 1966.0 1172.0 1947.5Q1115.0 1929.0 1096.0 1883.5Q1077.0 1838.0 1077.0 1755.0V1597.0H982.0Q938.0 1735.0 818.0 1817.5Q698.0 1900.0 516.0 1941.5Q334.0 1983.0 104.0 1999.0L100.0 1972.0Q335.0 1921.0 473.0 1841.0Q611.0 1761.0 657.0 1622.0Q623.0 1642.0 568.0 1658.5Q513.0 1675.0 456.0 1675.0H415.0V845.0L712.0 960.0H1306.0L1433.0 823.0L1636.0 977.0L1646.0 821.0H347.0Q361.0 907.0 333.0 973.0Q305.0 1039.0 229.0 1067.0Q165.0 1090.0 118.0 1067.0Q71.0 1044.0 52.0 997.0Q33.0 950.0 53.0 899.0Q73.0 848.0 143.0 815.0Q187.0 798.0 221.0 753.0Q255.0 708.0 255.0 639.0ZM1326.0 1540.0V1409.0H696.0V1540.0ZM1326.0 1351.0V1220.0H696.0V1351.0ZM1326.0 1163.0V1018.0H696.0V1163.0Z" fill="black"></path></svg>