<?xml version="1.0" standalone="no"?>
<!DOCTYPE svg PUBLIC "-//W3C//DTD SVG 1.1//EN" "http://www.w3.org/Graphics/SVG/1.1/DTD/svg11.dtd" >
<svg xmlns="http://www.w3.org/2000/svg" xmlns:svg="http://www.w3.org/2000/svg" xmlns:xlink="http://www.w3.org/1999/xlink" viewBox="0 0 2048 2048" style=""><path d="M357.5 165.0 646.5 283.0Q791.5 253.0 935.5 212.5Q1079.5 172.0 1204.0 128.5Q1328.5 85.0 1414.5 44.0L1709.5 279.0Q1691.5 296.0 1655.5 301.5Q1619.5 307.0 1564.5 292.0Q1532.5 298.0 1496.0 304.0Q1459.5 310.0 1420.5 316.0Q1602.5 325.0 1706.5 374.0Q1810.5 423.0 1852.0 489.0Q1893.5 555.0 1884.5 618.0Q1875.5 681.0 1829.5 719.0Q1783.5 757.0 1713.5 748.0L1728.5 759.0Q1718.5 769.0 1701.0 780.0Q1683.5 791.0 1654.5 797.0V1461.0Q1653.5 1469.0 1614.5 1485.5Q1575.5 1502.0 1520.5 1515.5Q1465.5 1529.0 1418.5 1529.0H1369.5V1475.0H1361.5V1688.0Q1361.5 1707.0 1371.0 1714.0Q1380.5 1721.0 1418.5 1721.0H1582.5Q1618.5 1721.0 1653.0 1721.0Q1687.5 1721.0 1707.5 1719.0Q1745.5 1716.0 1764.5 1697.0Q1798.5 1657.0 1863.5 1512.0H1883.5L1889.5 1701.0Q1945.5 1722.0 1963.0 1748.5Q1980.5 1775.0 1980.5 1813.0Q1980.5 1868.0 1943.0 1902.5Q1905.5 1937.0 1811.0 1954.0Q1716.5 1971.0 1545.5 1971.0H1349.5Q1235.5 1971.0 1177.5 1952.5Q1119.5 1934.0 1099.0 1886.0Q1078.5 1838.0 1078.5 1750.0V1475.0H947.5Q929.5 1573.0 886.0 1656.0Q842.5 1739.0 751.0 1806.0Q659.5 1873.0 498.0 1922.5Q336.5 1972.0 81.5 2004.0L67.5 1977.0Q270.5 1916.0 385.0 1846.5Q499.5 1777.0 551.5 1700.0Q603.5 1623.0 622.5 1539.0Q586.5 1556.0 539.0 1569.0Q491.5 1582.0 441.5 1582.0H401.5V634.0Q334.5 687.0 263.0 729.5Q191.5 772.0 114.5 806.0L93.5 787.0Q178.5 678.0 250.5 512.5Q322.5 347.0 357.5 165.0ZM1369.5 1418.0V1244.0H681.5V1418.0ZM1369.5 1187.0V1000.0H681.5V1187.0ZM1369.5 943.0V759.0H681.5V943.0ZM1349.5 701.0 1474.5 566.0 1621.5 679.0Q1577.5 579.0 1502.0 485.0Q1426.5 391.0 1351.5 326.0L1353.5 324.0Q1258.5 335.0 1151.5 341.5Q1044.5 348.0 935.5 351.0Q1049.5 379.0 1105.5 422.5Q1161.5 466.0 1171.5 513.5Q1181.5 561.0 1158.5 601.0Q1135.5 641.0 1090.0 662.5Q1044.5 684.0 989.5 675.5Q934.5 667.0 882.5 617.0Q889.5 545.0 874.5 475.0Q859.5 405.0 835.5 353.0L640.5 351.0Q550.5 501.0 437.5 601.0L700.5 701.0Z" fill="black"></path></svg>