<?xml version="1.0" standalone="no"?>
<!DOCTYPE svg PUBLIC "-//W3C//DTD SVG 1.1//EN" "http://www.w3.org/Graphics/SVG/1.1/DTD/svg11.dtd" >
<svg xmlns="http://www.w3.org/2000/svg" xmlns:svg="http://www.w3.org/2000/svg" xmlns:xlink="http://www.w3.org/1999/xlink" viewBox="0 0 2048 2048" style=""><path d="M94.5 1094.0H1555.5L1694.5 920.0Q1694.5 920.0 1720.0 939.0Q1745.5 958.0 1785.5 988.5Q1825.5 1019.0 1869.5 1053.5Q1913.5 1088.0 1950.5 1119.0Q1941.5 1152.0 1891.5 1152.0H1442.5Q1479.5 1175.0 1533.0 1210.5Q1586.5 1246.0 1630.5 1279.0Q1622.5 1311.0 1573.5 1311.0H1440.5Q1474.5 1333.0 1532.0 1371.0Q1589.5 1409.0 1639.5 1445.0Q1633.5 1477.0 1583.5 1477.0H443.5L426.5 1420.0H1282.5L1387.5 1311.0H443.5L426.5 1254.0H1274.5L1370.5 1152.0H111.5ZM1671.5 46.0 1882.5 267.0Q1840.5 296.0 1753.5 259.0Q1657.5 269.0 1520.0 277.5Q1382.5 286.0 1252.5 289.0V382.0Q1252.5 398.0 1251.0 416.5Q1249.5 435.0 1247.5 455.0H1622.5L1747.5 298.0Q1747.5 298.0 1786.5 327.5Q1825.5 357.0 1879.0 399.5Q1932.5 442.0 1975.5 480.0Q1966.5 513.0 1919.5 513.0H1692.5V810.0Q1692.5 815.0 1665.0 832.0Q1637.5 849.0 1585.0 864.0Q1532.5 879.0 1458.5 879.0H1448.5L1559.5 963.0Q1553.5 996.0 1501.5 996.0H461.5L445.5 939.0H1186.5L1317.5 785.0L1405.5 849.0V513.0H1235.5Q1218.5 583.0 1170.0 658.0Q1121.5 733.0 1025.5 799.0Q929.5 865.0 768.5 910.0L756.5 887.0Q852.5 811.0 898.0 721.5Q943.5 632.0 956.5 543.0Q969.5 454.0 969.5 377.0V304.0Q960.5 324.0 924.5 324.0H672.5V418.0L942.5 396.0L944.5 425.0Q889.5 446.0 821.5 470.5Q753.5 495.0 672.5 521.0V677.0Q672.5 758.0 651.0 811.0Q629.5 864.0 561.5 892.5Q493.5 921.0 352.5 930.0Q349.5 884.0 343.0 849.5Q336.5 815.0 318.5 793.0Q299.5 775.0 271.0 756.5Q242.5 738.0 174.5 728.0V703.0Q174.5 703.0 199.5 705.0Q224.5 707.0 259.0 709.5Q293.5 712.0 324.5 713.5Q355.5 715.0 367.5 715.0Q398.5 715.0 398.5 687.0V607.0L250.5 650.0Q229.5 688.0 193.5 695.0L72.5 447.0Q129.5 447.0 213.0 444.0Q296.5 441.0 398.5 435.0V324.0H109.5L92.5 267.0H398.5V52.0L742.5 81.0Q736.5 122.0 672.5 134.0V267.0L781.5 115.0Q781.5 115.0 813.5 142.0Q845.5 169.0 889.5 208.0Q933.5 247.0 969.5 283.0V115.0L1309.5 205.0Q1306.5 216.0 1297.5 218.0Q1401.5 176.0 1504.5 128.5Q1607.5 81.0 1671.5 46.0ZM381.5 1610.0V1498.0L680.5 1610.0H1319.5L1442.5 1481.0L1696.5 1668.0Q1688.5 1677.0 1673.0 1686.5Q1657.5 1696.0 1632.5 1703.0V1928.0Q1631.5 1936.0 1590.0 1951.0Q1548.5 1966.0 1492.5 1978.5Q1436.5 1991.0 1391.5 1991.0H1338.5V1901.0H664.5V1926.0Q664.5 1936.0 625.5 1954.0Q586.5 1972.0 529.5 1987.0Q472.5 2002.0 418.5 2002.0H381.5ZM1338.5 1844.0V1676.0H664.5V1844.0Z" fill="black"></path></svg>