<?xml version="1.0" standalone="no"?>
<!DOCTYPE svg PUBLIC "-//W3C//DTD SVG 1.1//EN" "http://www.w3.org/Graphics/SVG/1.1/DTD/svg11.dtd" >
<svg xmlns="http://www.w3.org/2000/svg" xmlns:svg="http://www.w3.org/2000/svg" xmlns:xlink="http://www.w3.org/1999/xlink" viewBox="0 0 2048 2048" style=""><path d="M113.5 208.0H463.5L580.5 52.0Q580.5 52.0 616.5 81.5Q652.5 111.0 702.0 153.0Q751.5 195.0 791.5 232.0Q782.5 265.0 736.5 265.0H130.5ZM103.5 736.0H472.5L584.5 584.0Q584.5 584.0 620.0 613.5Q655.5 643.0 703.5 684.0Q751.5 725.0 789.5 761.0Q783.5 793.0 734.5 793.0H119.5ZM103.5 1004.0H472.5L584.5 853.0Q584.5 853.0 620.0 882.0Q655.5 911.0 703.5 952.0Q751.5 993.0 789.5 1029.0Q783.5 1062.0 734.5 1062.0H119.5ZM29.5 468.0H551.5L666.5 314.0Q666.5 314.0 702.5 343.5Q738.5 373.0 788.0 414.0Q837.5 455.0 877.5 492.0Q868.5 525.0 822.5 525.0H46.5ZM887.5 552.0H1086.5L1117.5 285.0H865.5L848.5 228.0H1543.5L1678.5 52.0Q1678.5 52.0 1703.0 71.5Q1727.5 91.0 1765.5 121.5Q1803.5 152.0 1845.0 187.0Q1886.5 222.0 1919.5 253.0Q1913.5 285.0 1862.5 285.0H1387.5L1356.5 552.0H1473.5L1594.5 427.0L1829.5 603.0Q1813.5 630.0 1756.5 642.0V996.0L1852.5 826.0Q1852.5 826.0 1882.5 860.0Q1912.5 894.0 1951.5 940.5Q1990.5 987.0 2018.5 1025.0Q2009.5 1058.0 1965.5 1058.0H818.5L801.5 1000.0H1018.5Q1032.5 920.0 1048.5 817.5Q1064.5 715.0 1078.5 609.0H906.5ZM1289.5 1000.0H1493.5V609.0H1348.5Q1333.5 717.0 1318.0 818.5Q1302.5 920.0 1289.5 1000.0ZM1547.5 1295.0H1209.5V1754.0H1547.5ZM934.5 1238.0V1127.0L1221.5 1238.0H1526.5L1653.5 1101.0L1911.5 1297.0Q1902.5 1308.0 1883.5 1320.0Q1864.5 1332.0 1833.5 1338.0V1893.0Q1833.5 1902.0 1795.0 1921.0Q1756.5 1940.0 1701.0 1955.5Q1645.5 1971.0 1596.5 1971.0H1547.5V1811.0H1209.5V1907.0Q1209.5 1921.0 1175.0 1941.5Q1140.5 1962.0 1086.5 1978.0Q1032.5 1994.0 973.5 1994.0H934.5ZM510.5 1346.0H357.5V1766.0H510.5ZM101.5 1289.0V1185.0L365.5 1289.0H492.5L607.5 1166.0L842.5 1344.0Q833.5 1355.0 816.0 1366.0Q798.5 1377.0 768.5 1381.0V1873.0Q768.5 1882.0 734.0 1899.0Q699.5 1916.0 650.0 1930.0Q600.5 1944.0 555.5 1944.0H510.5V1824.0H357.5V1916.0Q357.5 1927.0 325.0 1946.0Q292.5 1965.0 242.5 1980.5Q192.5 1996.0 138.5 1996.0H101.5Z" fill="black"></path></svg>