<?xml version="1.0" standalone="no"?>
<!DOCTYPE svg PUBLIC "-//W3C//DTD SVG 1.1//EN" "http://www.w3.org/Graphics/SVG/1.1/DTD/svg11.dtd" >
<svg xmlns="http://www.w3.org/2000/svg" xmlns:svg="http://www.w3.org/2000/svg" xmlns:xlink="http://www.w3.org/1999/xlink" viewBox="0 0 2048 2048" style=""><path d="M123.0 213.0H435.0L551.0 57.0Q551.0 57.0 587.0 86.5Q623.0 116.0 672.5 158.0Q722.0 200.0 762.0 237.0Q753.0 270.0 707.0 270.0H140.0ZM121.0 741.0H441.0L555.0 589.0Q555.0 589.0 590.5 618.5Q626.0 648.0 674.0 689.0Q722.0 730.0 760.0 766.0Q751.0 798.0 705.0 798.0H138.0ZM121.0 1009.0H441.0L555.0 858.0Q555.0 858.0 590.5 887.0Q626.0 916.0 674.0 957.0Q722.0 998.0 760.0 1034.0Q751.0 1067.0 705.0 1067.0H138.0ZM39.0 473.0H523.0L639.0 319.0Q639.0 319.0 675.0 348.5Q711.0 378.0 760.0 419.0Q809.0 460.0 848.0 497.0Q839.0 530.0 793.0 530.0H56.0ZM1434.0 77.0 1801.0 190.0Q1783.0 236.0 1712.0 233.0Q1657.0 284.0 1580.0 353.5Q1503.0 423.0 1440.0 477.0H1631.0L1753.0 309.0Q1753.0 309.0 1791.5 341.0Q1830.0 373.0 1881.5 418.0Q1933.0 463.0 1973.0 501.0Q1967.0 534.0 1917.0 534.0H1602.0V886.0H1606.0L1723.0 710.0Q1723.0 710.0 1759.0 743.5Q1795.0 777.0 1844.0 824.0Q1893.0 871.0 1930.0 911.0Q1921.0 944.0 1874.0 944.0H1602.0V1306.0H1606.0L1723.0 1130.0Q1723.0 1130.0 1759.0 1163.5Q1795.0 1197.0 1844.0 1244.0Q1893.0 1291.0 1930.0 1331.0Q1921.0 1364.0 1874.0 1364.0H1602.0V1788.0H1645.0L1776.0 1607.0Q1776.0 1607.0 1800.0 1627.0Q1824.0 1647.0 1860.5 1679.0Q1897.0 1711.0 1937.0 1746.0Q1977.0 1781.0 2009.0 1812.0Q2003.0 1845.0 1954.0 1845.0H1157.0V1917.0Q1157.0 1930.0 1097.5 1963.0Q1038.0 1996.0 932.0 1996.0H881.0V796.0Q801.0 880.0 705.0 950.0L680.0 934.0Q744.0 826.0 804.5 681.5Q865.0 537.0 915.5 374.5Q966.0 212.0 998.0 49.0L1354.0 161.0Q1346.0 180.0 1326.5 192.0Q1307.0 204.0 1270.0 202.0Q1241.0 272.0 1207.5 336.5Q1174.0 401.0 1139.0 460.0L1186.0 477.0H1342.0Q1356.0 423.0 1373.0 352.5Q1390.0 282.0 1406.5 210.0Q1423.0 138.0 1434.0 77.0ZM1157.0 534.0V886.0H1334.0V534.0ZM1157.0 944.0V1306.0H1334.0V944.0ZM1157.0 1364.0V1788.0H1334.0V1364.0ZM492.0 1325.0H375.0V1771.0H492.0ZM119.0 1267.0V1163.0L383.0 1267.0H473.0L588.0 1144.0L824.0 1323.0Q814.0 1333.0 796.5 1344.0Q779.0 1355.0 750.0 1360.0V1851.0Q750.0 1860.0 715.0 1877.5Q680.0 1895.0 630.5 1909.0Q581.0 1923.0 537.0 1923.0H492.0V1829.0H375.0V1919.0Q375.0 1930.0 343.0 1949.0Q311.0 1968.0 260.5 1983.5Q210.0 1999.0 156.0 1999.0H119.0Z" fill="black"></path></svg>