<?xml version="1.0" standalone="no"?>
<!DOCTYPE svg PUBLIC "-//W3C//DTD SVG 1.1//EN" "http://www.w3.org/Graphics/SVG/1.1/DTD/svg11.dtd" >
<svg xmlns="http://www.w3.org/2000/svg" xmlns:svg="http://www.w3.org/2000/svg" xmlns:xlink="http://www.w3.org/1999/xlink" viewBox="0 0 2048 2048" style=""><path d="M149.5 208.0H461.5L577.5 52.0Q577.5 52.0 613.5 81.5Q649.5 111.0 699.0 153.0Q748.5 195.0 788.5 232.0Q779.5 265.0 733.5 265.0H166.5ZM868.5 548.0H1276.5L1390.5 388.0Q1390.5 388.0 1427.0 418.0Q1463.5 448.0 1512.5 491.0Q1561.5 534.0 1599.5 572.0Q1593.5 605.0 1544.5 605.0H884.5ZM139.5 736.0H469.5L581.5 584.0Q581.5 584.0 617.0 613.5Q652.5 643.0 701.0 684.0Q749.5 725.0 788.5 761.0Q779.5 793.0 733.5 793.0H155.5ZM139.5 1004.0H469.5L581.5 853.0Q581.5 853.0 617.0 882.0Q652.5 911.0 701.0 952.0Q749.5 993.0 788.5 1029.0Q779.5 1062.0 733.5 1062.0H155.5ZM59.5 468.0H561.5L678.5 314.0Q678.5 314.0 714.5 343.5Q750.5 373.0 799.5 414.0Q848.5 455.0 887.5 492.0Q881.5 525.0 831.5 525.0H76.5ZM538.5 1346.0H393.5V1746.0H538.5ZM137.5 1289.0V1185.0L401.5 1289.0H520.5L635.5 1166.0L870.5 1344.0Q861.5 1355.0 844.0 1366.0Q826.5 1377.0 796.5 1381.0V1889.0Q796.5 1898.0 762.0 1915.5Q727.5 1933.0 677.5 1947.0Q627.5 1961.0 583.5 1961.0H538.5V1803.0H393.5V1916.0Q393.5 1927.0 361.5 1946.0Q329.5 1965.0 279.0 1980.5Q228.5 1996.0 174.5 1996.0H137.5ZM1265.5 898.0H1132.5V1322.0H1265.5ZM891.5 840.0V742.0L1138.5 840.0H1245.5L1356.5 722.0L1583.5 894.0Q1574.5 904.0 1556.0 915.5Q1537.5 927.0 1509.5 933.0V1469.0Q1508.5 1477.0 1475.5 1494.0Q1442.5 1511.0 1395.5 1525.0Q1348.5 1539.0 1306.5 1539.0H1265.5V1379.0H1132.5V1504.0Q1132.5 1515.0 1102.5 1533.0Q1072.5 1551.0 1025.0 1565.5Q977.5 1580.0 925.5 1580.0H891.5ZM833.5 224.0H1605.5L1730.5 81.0L1988.5 283.0Q1979.5 296.0 1959.5 308.0Q1939.5 320.0 1906.5 326.0V1668.0Q1906.5 1761.0 1882.5 1827.0Q1858.5 1893.0 1782.0 1932.5Q1705.5 1972.0 1546.5 1985.0Q1540.5 1918.0 1527.5 1868.0Q1514.5 1818.0 1487.5 1789.0Q1456.5 1756.0 1413.0 1732.5Q1369.5 1709.0 1280.5 1692.0V1666.0Q1280.5 1666.0 1319.0 1668.5Q1357.5 1671.0 1411.5 1674.0Q1465.5 1677.0 1514.0 1679.5Q1562.5 1682.0 1581.5 1682.0Q1607.5 1682.0 1617.0 1670.5Q1626.5 1659.0 1626.5 1637.0V281.0H852.5Z" fill="black"></path></svg>