<?xml version="1.0" standalone="no"?>
<!DOCTYPE svg PUBLIC "-//W3C//DTD SVG 1.1//EN" "http://www.w3.org/Graphics/SVG/1.1/DTD/svg11.dtd" >
<svg xmlns="http://www.w3.org/2000/svg" xmlns:svg="http://www.w3.org/2000/svg" xmlns:xlink="http://www.w3.org/1999/xlink" viewBox="0 0 2048 2048" style=""><path d="M757.5 416.0Q889.5 465.0 946.5 527.0Q1003.5 589.0 1006.0 646.0Q1008.5 703.0 974.5 740.0Q940.5 777.0 889.0 778.5Q837.5 780.0 788.5 729.0Q793.5 651.0 776.0 569.0Q758.5 487.0 735.5 424.0ZM1659.5 192.0Q1785.5 229.0 1852.5 279.5Q1919.5 330.0 1940.5 383.0Q1961.5 436.0 1947.0 480.5Q1932.5 525.0 1895.0 550.5Q1857.5 576.0 1808.5 572.0Q1759.5 568.0 1712.5 522.0Q1713.5 438.0 1691.0 352.5Q1668.5 267.0 1640.5 201.0ZM98.5 205.0H342.5L454.5 57.0Q454.5 57.0 489.0 85.0Q523.5 113.0 570.5 153.0Q617.5 193.0 655.5 229.0Q646.5 262.0 600.5 262.0H114.5ZM88.5 727.0H360.5L467.5 586.0Q467.5 586.0 500.5 613.0Q533.5 640.0 578.5 679.0Q623.5 718.0 659.5 751.0Q653.5 784.0 606.5 784.0H104.5ZM88.5 995.0H360.5L467.5 854.0Q467.5 854.0 500.5 881.5Q533.5 909.0 578.5 947.5Q623.5 986.0 659.5 1020.0Q653.5 1053.0 606.5 1053.0H104.5ZM30.5 465.0H409.5L520.5 315.0Q520.5 315.0 556.0 343.5Q591.5 372.0 639.5 412.5Q687.5 453.0 725.5 489.0Q716.5 522.0 669.5 522.0H47.5ZM1097.5 414.0 1360.5 483.0 1358.5 395.0H686.5L669.5 338.0H876.5V69.0L1208.5 96.0Q1207.5 115.0 1193.5 128.0Q1179.5 141.0 1143.5 147.0V338.0H1153.5L1247.5 196.0L1358.5 301.0V49.0L1702.5 86.0Q1700.5 106.0 1684.5 122.5Q1668.5 139.0 1628.5 145.0Q1623.5 316.0 1621.0 481.5Q1618.5 647.0 1624.5 801.0H1646.5L1771.5 629.0Q1771.5 629.0 1810.5 661.5Q1849.5 694.0 1902.0 739.5Q1954.5 785.0 1994.5 825.0Q1986.5 858.0 1939.5 858.0H1626.5Q1629.5 929.0 1635.5 996.5Q1641.5 1064.0 1648.5 1128.0Q1668.5 1075.0 1683.5 1022.5Q1698.5 970.0 1710.5 917.0L2017.5 1022.0Q2011.5 1039.0 1994.0 1048.5Q1976.5 1058.0 1937.5 1057.0Q1899.5 1155.0 1847.5 1254.5Q1795.5 1354.0 1726.5 1448.0Q1740.5 1485.0 1757.0 1517.5Q1773.5 1550.0 1792.5 1579.0Q1806.5 1603.0 1816.0 1602.0Q1825.5 1601.0 1839.5 1575.0Q1860.5 1533.0 1892.0 1463.5Q1923.5 1394.0 1949.5 1329.0L1970.5 1333.0L1923.5 1700.0Q1963.5 1809.0 1972.5 1877.0Q1981.5 1945.0 1947.5 1968.0Q1901.5 1999.0 1851.0 1995.5Q1800.5 1992.0 1754.0 1967.0Q1707.5 1942.0 1670.0 1906.0Q1632.5 1870.0 1611.5 1835.0Q1588.5 1796.0 1568.5 1755.5Q1548.5 1715.0 1530.5 1673.0Q1433.5 1762.0 1313.0 1838.0Q1192.5 1914.0 1046.5 1968.0L1030.5 1943.0Q1168.5 1856.0 1278.0 1742.5Q1387.5 1629.0 1468.5 1501.0Q1427.5 1357.0 1404.5 1196.0Q1381.5 1035.0 1372.5 858.0H661.5L645.5 801.0H1059.5Q1079.5 715.0 1088.5 607.5Q1097.5 500.0 1097.5 414.0ZM1368.5 801.0Q1365.5 735.0 1363.5 666.0Q1361.5 597.0 1360.5 528.0Q1352.5 531.0 1343.0 531.5Q1333.5 532.0 1321.5 532.0Q1284.5 595.0 1228.0 666.5Q1171.5 738.0 1102.5 801.0ZM1075.5 1059.0H970.5V1294.0H1075.5ZM735.5 1001.0V903.0L977.5 1001.0H1056.5L1163.5 891.0L1378.5 1053.0Q1370.5 1062.0 1354.0 1071.5Q1337.5 1081.0 1312.5 1087.0V1696.0Q1311.5 1705.0 1279.5 1722.5Q1247.5 1740.0 1202.5 1754.5Q1157.5 1769.0 1116.5 1769.0H1075.5V1659.0H970.5V1757.0Q970.5 1768.0 941.5 1786.0Q912.5 1804.0 866.5 1818.5Q820.5 1833.0 770.5 1833.0H735.5ZM970.5 1352.0V1601.0H1075.5V1352.0ZM411.5 1315.0H331.5V1728.0H411.5ZM86.5 1257.0V1157.0L338.5 1257.0H393.5L501.5 1145.0L723.5 1309.0Q715.5 1319.0 700.0 1329.0Q684.5 1339.0 659.5 1343.0V1823.0Q658.5 1832.0 625.0 1849.5Q591.5 1867.0 544.0 1881.5Q496.5 1896.0 454.5 1896.0H411.5V1786.0H331.5V1919.0Q331.5 1931.0 301.0 1949.5Q270.5 1968.0 222.0 1982.5Q173.5 1997.0 121.5 1997.0H86.5Z" fill="black"></path></svg>