<?xml version="1.0" standalone="no"?>
<!DOCTYPE svg PUBLIC "-//W3C//DTD SVG 1.1//EN" "http://www.w3.org/Graphics/SVG/1.1/DTD/svg11.dtd" >
<svg xmlns="http://www.w3.org/2000/svg" xmlns:svg="http://www.w3.org/2000/svg" xmlns:xlink="http://www.w3.org/1999/xlink" viewBox="0 0 2048 2048" style=""><path d="M104.5 208.0H366.5L479.5 60.0Q479.5 60.0 514.0 88.0Q548.5 116.0 596.0 156.0Q643.5 196.0 679.5 232.0Q673.5 265.0 626.5 265.0H120.5ZM94.5 736.0H385.5L491.5 595.0Q491.5 595.0 525.0 622.5Q558.5 650.0 604.0 688.5Q649.5 727.0 686.5 761.0Q677.5 793.0 630.5 793.0H110.5ZM94.5 1004.0H385.5L491.5 863.0Q491.5 863.0 525.0 890.5Q558.5 918.0 604.0 956.5Q649.5 995.0 686.5 1029.0Q677.5 1062.0 630.5 1062.0H110.5ZM92.5 1289.0V1189.0L344.5 1289.0H405.5L514.5 1176.0L686.5 1303.0L641.5 1156.0L724.5 1150.0V503.0Q716.5 525.0 677.5 525.0H36.5L20.5 468.0H417.5L530.5 318.0Q530.5 318.0 563.5 345.0Q596.5 372.0 642.0 410.5Q687.5 449.0 724.5 484.0V224.0L888.5 288.0Q893.5 229.0 895.0 165.0Q896.5 101.0 894.5 50.0L1239.5 103.0Q1231.5 149.0 1167.5 152.0Q1125.5 189.0 1070.0 232.0Q1014.5 275.0 954.5 312.0L983.5 322.0H1042.5L1148.5 202.0L1372.5 374.0Q1354.5 399.0 1304.5 410.0V886.0L1363.5 906.0L1343.5 808.0L1365.5 800.0Q1441.5 841.0 1491.5 885.0Q1541.5 929.0 1568.5 974.0V613.0H1320.5L1306.5 556.0H1568.5V85.0L1910.5 118.0Q1907.5 141.0 1890.5 155.0Q1873.5 169.0 1834.5 175.0V474.0L1877.5 394.0Q1877.5 394.0 1905.0 425.5Q1932.5 457.0 1967.5 501.0Q2002.5 545.0 2027.5 580.0Q2018.5 613.0 1976.5 613.0H1834.5V1690.0Q1834.5 1783.0 1815.0 1846.5Q1795.5 1910.0 1730.5 1946.5Q1665.5 1983.0 1529.5 1996.0Q1526.5 1931.0 1520.0 1883.5Q1513.5 1836.0 1497.5 1805.0Q1480.5 1776.0 1452.5 1754.5Q1424.5 1733.0 1365.5 1721.0V1695.0Q1365.5 1695.0 1401.0 1697.0Q1436.5 1699.0 1477.0 1701.0Q1517.5 1703.0 1533.5 1703.0Q1568.5 1703.0 1568.5 1674.0V1223.0Q1531.5 1260.0 1477.5 1258.5Q1423.5 1257.0 1374.5 1199.0Q1380.5 1144.0 1379.5 1086.5Q1378.5 1029.0 1372.5 974.0H1368.5Q1354.5 1007.0 1338.5 1042.5Q1322.5 1078.0 1304.5 1113.0V1713.0Q1304.5 1798.0 1286.0 1857.5Q1267.5 1917.0 1206.0 1951.5Q1144.5 1986.0 1017.5 1998.0Q1014.5 1939.0 1007.5 1893.5Q1000.5 1848.0 985.5 1824.0Q966.5 1796.0 938.5 1776.0Q910.5 1756.0 851.5 1744.0V1717.0Q851.5 1717.0 888.0 1719.0Q924.5 1721.0 966.0 1723.0Q1007.5 1725.0 1023.5 1725.0Q1047.5 1725.0 1054.0 1716.0Q1060.5 1707.0 1060.5 1688.0V1475.0Q982.5 1564.0 885.5 1643.0Q788.5 1722.0 671.5 1781.0V1821.0Q670.5 1831.0 637.0 1848.0Q603.5 1865.0 556.0 1879.0Q508.5 1893.0 466.5 1893.0H423.5V1789.0H337.5V1918.0Q337.5 1929.0 306.5 1947.5Q275.5 1966.0 227.5 1981.0Q179.5 1996.0 126.5 1996.0H92.5ZM1015.5 1246.0 794.5 1408.0Q773.5 1453.0 733.5 1459.0L704.5 1365.0Q690.5 1372.0 671.5 1375.0V1744.0Q782.5 1641.0 868.5 1512.0Q954.5 1383.0 1015.5 1246.0ZM954.5 1127.0 1060.5 1117.0V902.0H954.5ZM954.5 378.0V582.0H1060.5V378.0ZM954.5 638.0V847.0H1060.5V638.0ZM423.5 1346.0H337.5V1731.0H423.5Z" fill="black"></path></svg>