<?xml version="1.0" standalone="no"?>
<!DOCTYPE svg PUBLIC "-//W3C//DTD SVG 1.1//EN" "http://www.w3.org/Graphics/SVG/1.1/DTD/svg11.dtd" >
<svg xmlns="http://www.w3.org/2000/svg" xmlns:svg="http://www.w3.org/2000/svg" xmlns:xlink="http://www.w3.org/1999/xlink" viewBox="0 0 2048 2048" style=""><path d="M800.5 1595.0 1093.5 1808.0Q1077.5 1825.0 1046.0 1829.5Q1014.5 1834.0 962.5 1820.0Q861.5 1867.0 723.5 1904.5Q585.5 1942.0 428.5 1966.0Q271.5 1990.0 116.5 1999.0L110.5 1974.0Q243.5 1932.0 376.0 1868.0Q508.5 1804.0 620.0 1732.5Q731.5 1661.0 800.5 1595.0ZM1089.5 1665.0Q1356.5 1661.0 1523.0 1684.5Q1689.5 1708.0 1774.5 1747.0Q1859.5 1786.0 1880.5 1830.0Q1901.5 1874.0 1876.5 1913.0Q1851.5 1952.0 1798.5 1975.0Q1745.5 1998.0 1682.5 1994.5Q1619.5 1991.0 1566.5 1949.0Q1503.5 1891.0 1383.0 1816.0Q1262.5 1741.0 1082.5 1687.0ZM421.5 854.0V737.0L728.5 854.0H1351.5L1429.5 772.0H1424.5V469.0H1324.5Q1313.5 530.0 1272.5 597.5Q1231.5 665.0 1143.0 725.0Q1054.5 785.0 898.5 825.0L886.5 800.0Q990.5 725.0 1028.0 636.0Q1065.5 547.0 1072.5 463.0Q1060.5 469.0 1041.5 469.0H855.5V727.0Q854.5 734.0 798.0 757.0Q741.5 780.0 640.5 780.0H593.5V469.0H482.5Q475.5 536.0 440.0 613.5Q404.5 691.0 320.0 761.0Q235.5 831.0 79.5 878.0L65.5 854.0Q141.5 786.0 177.0 708.0Q212.5 630.0 221.5 551.5Q230.5 473.0 230.5 403.0V149.0L493.5 219.0Q583.5 177.0 671.5 130.5Q759.5 84.0 814.5 49.0L1027.5 266.0Q987.5 297.0 900.5 260.0Q820.5 271.0 710.0 280.5Q599.5 290.0 486.5 295.0V405.0V411.0H769.5L886.5 268.0Q886.5 268.0 917.0 291.0Q947.5 314.0 991.0 348.5Q1034.5 383.0 1074.5 415.0V385.0V147.0L1316.5 211.0Q1413.5 171.0 1506.0 127.0Q1598.5 83.0 1656.5 49.0L1871.5 268.0Q1841.5 292.0 1781.5 276.0Q1812.5 299.0 1873.5 346.5Q1934.5 394.0 1982.5 436.0Q1976.5 469.0 1926.5 469.0H1697.5V719.0Q1695.5 723.0 1657.0 740.5Q1618.5 758.0 1547.5 768.0L1740.5 913.0Q1731.5 924.0 1714.0 935.0Q1696.5 946.0 1668.5 952.0V1587.0Q1667.5 1595.0 1626.5 1611.5Q1585.5 1628.0 1528.5 1641.0Q1471.5 1654.0 1422.5 1654.0H1371.5V1568.0H712.5V1618.0Q712.5 1631.0 675.5 1653.0Q638.5 1675.0 581.5 1692.5Q524.5 1710.0 464.5 1710.0H421.5ZM1424.5 411.0H1639.5L1754.5 266.0L1742.5 262.0Q1662.5 271.0 1553.5 280.5Q1444.5 290.0 1332.5 295.0V387.0V411.0ZM1371.5 1126.0H712.5V1288.0H1371.5ZM1371.5 1069.0V911.0H712.5V1069.0ZM1371.5 1345.0H712.5V1511.0H1371.5Z" fill="black"></path></svg>