<?xml version="1.0" standalone="no"?>
<!DOCTYPE svg PUBLIC "-//W3C//DTD SVG 1.1//EN" "http://www.w3.org/Graphics/SVG/1.1/DTD/svg11.dtd" >
<svg xmlns="http://www.w3.org/2000/svg" xmlns:svg="http://www.w3.org/2000/svg" xmlns:xlink="http://www.w3.org/1999/xlink" viewBox="0 0 2048 2048" style=""><path d="M1224.5 562.0V798.0H1586.5V562.0ZM1224.5 505.0H1586.5V261.0H1224.5ZM134.5 206.0V99.0L419.5 206.0H550.5L681.5 54.0L919.5 243.0Q908.5 256.0 889.5 268.0Q870.5 280.0 833.5 288.0V1297.0Q899.5 1225.0 953.5 1137.0Q1007.5 1049.0 1044.5 963.0L1007.5 966.0H958.5V97.0L1244.5 204.0H1578.5L1705.5 58.0L1945.5 241.0Q1934.5 254.0 1917.5 263.5Q1900.5 273.0 1865.5 279.0V886.0Q1865.5 893.0 1804.5 918.0Q1743.5 943.0 1636.5 943.0H1586.5V855.0H1224.5V871.0L1421.5 935.0Q1416.5 952.0 1401.5 963.0Q1386.5 974.0 1349.5 976.0Q1332.5 1000.0 1310.0 1026.0Q1287.5 1052.0 1263.5 1076.0H1664.5L1795.5 949.0L2021.5 1140.0Q2010.5 1152.0 1990.0 1162.0Q1969.5 1172.0 1937.5 1176.0Q1925.5 1414.0 1905.5 1564.0Q1885.5 1714.0 1851.5 1798.5Q1817.5 1883.0 1765.5 1924.0Q1714.5 1962.0 1650.5 1978.0Q1586.5 1994.0 1498.5 1994.0Q1498.5 1941.0 1492.0 1902.0Q1485.5 1863.0 1464.5 1838.0Q1420.5 1782.0 1308.5 1758.0V1734.0Q1357.5 1737.0 1423.0 1740.5Q1488.5 1744.0 1519.5 1744.0Q1561.5 1744.0 1582.5 1725.0Q1619.5 1695.0 1643.5 1558.0Q1667.5 1421.0 1683.5 1166.0Q1587.5 1437.0 1395.0 1642.0Q1202.5 1847.0 896.5 1983.0L876.5 1959.0Q1091.5 1808.0 1227.0 1593.5Q1362.5 1379.0 1427.5 1133.0H1421.5Q1338.5 1304.0 1192.0 1440.0Q1045.5 1576.0 857.5 1676.0L837.5 1647.0Q941.5 1552.0 1023.5 1426.0Q1105.5 1300.0 1158.5 1168.0Q1088.5 1224.0 1005.5 1270.5Q922.5 1317.0 833.5 1346.0V1394.0Q833.5 1406.0 772.0 1434.5Q710.5 1463.0 607.5 1463.0H560.5V1375.0H394.5V1437.0Q394.5 1458.0 329.5 1480.0L542.5 1584.0Q519.5 1526.0 493.5 1482.0L511.5 1471.0Q658.5 1512.0 739.5 1571.5Q820.5 1631.0 849.0 1694.5Q877.5 1758.0 865.5 1813.5Q853.5 1869.0 814.0 1902.5Q774.5 1936.0 719.5 1934.0Q664.5 1932.0 607.5 1881.0Q607.5 1813.0 592.5 1743.5Q577.5 1674.0 552.5 1611.0Q539.5 1631.0 489.5 1625.0Q415.5 1728.0 301.5 1828.5Q187.5 1929.0 44.5 1994.0L26.5 1971.0Q78.5 1908.0 121.5 1826.5Q164.5 1745.0 196.5 1660.0Q228.5 1575.0 247.5 1500.0L181.5 1504.0H134.5ZM394.5 630.0V943.0H560.5V630.0ZM394.5 572.0H560.5V263.0H394.5ZM394.5 1000.0V1318.0H560.5V1000.0Z" fill="black"></path></svg>