<?xml version="1.0" standalone="no"?>
<!DOCTYPE svg PUBLIC "-//W3C//DTD SVG 1.1//EN" "http://www.w3.org/Graphics/SVG/1.1/DTD/svg11.dtd" >
<svg xmlns="http://www.w3.org/2000/svg" xmlns:svg="http://www.w3.org/2000/svg" xmlns:xlink="http://www.w3.org/1999/xlink" viewBox="0 0 2048 2048" style=""><path d="M102.5 436.0Q217.5 462.0 280.0 503.5Q342.5 545.0 363.0 591.0Q383.5 637.0 372.5 677.0Q361.5 717.0 328.5 741.0Q295.5 765.0 251.5 763.5Q207.5 762.0 163.5 723.0Q162.5 651.0 137.5 575.5Q112.5 500.0 81.5 446.0ZM1591.5 436.0H1140.5V715.0H1591.5ZM1218.5 49.0 1627.5 135.0Q1616.5 185.0 1541.5 188.0Q1485.5 228.0 1404.5 282.5Q1323.5 337.0 1257.5 379.0H1572.5L1693.5 252.0L1933.5 434.0Q1925.5 445.0 1909.5 454.5Q1893.5 464.0 1867.5 469.0V1134.0Q1866.5 1143.0 1835.0 1160.0Q1803.5 1177.0 1757.5 1192.5Q1711.5 1208.0 1666.5 1212.0V1655.0Q1666.5 1673.0 1672.0 1680.0Q1677.5 1687.0 1697.5 1687.0H1744.5Q1758.5 1687.0 1769.5 1687.0Q1780.5 1687.0 1789.5 1687.0Q1815.5 1687.0 1830.5 1667.0Q1844.5 1645.0 1867.5 1587.5Q1890.5 1530.0 1916.5 1458.0H1937.5L1943.5 1677.0Q1987.5 1699.0 2001.5 1725.0Q2015.5 1751.0 2015.5 1790.0Q2015.5 1867.0 1946.5 1907.0Q1877.5 1947.0 1709.5 1947.0H1601.5Q1510.5 1947.0 1466.5 1927.0Q1422.5 1907.0 1408.5 1858.5Q1394.5 1810.0 1394.5 1726.0V1118.0H1328.5Q1321.5 1254.0 1296.5 1380.0Q1271.5 1506.0 1208.0 1618.5Q1144.5 1731.0 1021.5 1827.0Q898.5 1923.0 694.5 1999.0L675.5 1972.0Q832.5 1859.0 907.0 1737.0Q981.5 1615.0 1005.0 1484.5Q1028.5 1354.0 1032.5 1214.0Q1004.5 1223.0 973.0 1229.0Q941.5 1235.0 911.5 1235.0H872.5V639.0L841.5 633.0Q778.5 679.0 699.5 723.0Q620.5 767.0 530.5 809.0Q622.5 908.0 681.0 1029.5Q739.5 1151.0 768.0 1278.0Q796.5 1405.0 797.5 1524.0Q798.5 1643.0 776.0 1739.5Q753.5 1836.0 710.5 1894.0Q667.5 1950.0 581.5 1970.0Q495.5 1990.0 374.5 1990.0Q374.5 1929.0 362.5 1887.5Q350.5 1846.0 327.5 1816.0Q310.5 1795.0 267.0 1773.0Q223.5 1751.0 163.5 1734.0V1712.0Q203.5 1716.0 257.5 1719.5Q311.5 1723.0 361.5 1724.5Q411.5 1726.0 438.5 1726.0Q456.5 1726.0 472.5 1723.0Q488.5 1720.0 497.5 1706.0Q515.5 1674.0 528.0 1606.5Q540.5 1539.0 546.5 1452.0Q432.5 1506.0 302.0 1548.5Q171.5 1591.0 42.5 1616.0L32.5 1593.0Q129.5 1547.0 224.5 1475.0Q319.5 1403.0 401.5 1318.5Q483.5 1234.0 540.5 1149.0L536.5 1118.0Q428.5 1169.0 299.0 1211.5Q169.5 1254.0 46.5 1280.0L36.5 1259.0Q120.5 1214.0 205.5 1146.5Q290.5 1079.0 364.5 1003.5Q438.5 928.0 487.5 858.0L479.5 829.0Q379.5 871.0 270.0 905.0Q160.5 939.0 46.5 962.0L32.5 938.0Q160.5 875.0 284.0 788.0Q407.5 701.0 507.5 610.0Q484.5 610.0 459.5 602.5Q434.5 595.0 409.5 575.0Q410.5 523.0 391.0 467.5Q371.5 412.0 343.5 373.0Q270.5 393.0 193.5 408.5Q116.5 424.0 40.5 436.0L32.5 411.0Q124.5 364.0 223.5 300.0Q322.5 236.0 408.0 169.5Q493.5 103.0 546.5 49.0L814.5 258.0Q783.5 293.0 687.5 266.0Q580.5 307.0 436.5 348.0Q534.5 369.0 576.5 411.5Q618.5 454.0 620.5 495.0L669.5 434.0L872.5 583.0V270.0L1150.5 379.0H1191.5Q1199.5 311.0 1206.5 216.0Q1213.5 121.0 1218.5 49.0ZM1140.5 772.0V1061.0H1591.5V772.0Z" fill="black"></path></svg>