<?xml version="1.0" standalone="no"?>
<!DOCTYPE svg PUBLIC "-//W3C//DTD SVG 1.1//EN" "http://www.w3.org/Graphics/SVG/1.1/DTD/svg11.dtd" >
<svg xmlns="http://www.w3.org/2000/svg" xmlns:svg="http://www.w3.org/2000/svg" xmlns:xlink="http://www.w3.org/1999/xlink" viewBox="0 0 2048 2048" style=""><path d="M1392.5 265.5H650.5V718.5H1392.5ZM403.5 1031.5 781.5 1089.5Q777.5 1110.5 759.0 1124.5Q740.5 1138.5 702.5 1140.5Q679.5 1273.5 634.5 1394.5Q680.5 1468.5 741.0 1517.5Q801.5 1566.5 878.5 1597.5V775.5H650.5V855.5Q650.5 869.5 613.0 891.5Q575.5 913.5 517.5 930.5Q459.5 947.5 398.5 947.5H355.5V89.5L669.5 208.5H1371.5L1502.5 65.5L1773.5 269.5Q1763.5 282.5 1744.5 294.5Q1725.5 306.5 1693.5 312.5V829.5Q1692.5 838.5 1651.5 857.0Q1610.5 875.5 1552.5 891.0Q1494.5 906.5 1443.5 906.5H1392.5V775.5H1179.5V1179.5H1412.5L1574.5 976.5Q1574.5 976.5 1604.5 998.5Q1634.5 1020.5 1680.5 1055.5Q1726.5 1090.5 1777.0 1130.0Q1827.5 1169.5 1869.5 1203.5Q1860.5 1236.5 1807.5 1236.5H1179.5V1660.5Q1243.5 1666.5 1316.0 1668.5Q1388.5 1670.5 1468.5 1670.5Q1510.5 1670.5 1577.5 1670.5Q1644.5 1670.5 1720.0 1670.5Q1795.5 1670.5 1865.5 1670.0Q1935.5 1669.5 1984.5 1668.5V1691.5Q1914.5 1708.5 1880.5 1779.0Q1846.5 1849.5 1846.5 1937.5Q1802.5 1937.5 1727.0 1937.5Q1651.5 1937.5 1575.5 1937.5Q1499.5 1937.5 1455.5 1937.5Q1225.5 1937.5 1061.0 1897.5Q896.5 1857.5 786.0 1754.0Q675.5 1650.5 607.5 1457.5Q538.5 1612.5 412.5 1749.0Q286.5 1885.5 77.5 1982.5L63.5 1963.5Q196.5 1834.5 269.5 1674.0Q342.5 1513.5 372.0 1346.5Q401.5 1179.5 403.5 1031.5Z" fill="black"></path></svg>