<?xml version="1.0" standalone="no"?>
<!DOCTYPE svg PUBLIC "-//W3C//DTD SVG 1.1//EN" "http://www.w3.org/Graphics/SVG/1.1/DTD/svg11.dtd" >
<svg xmlns="http://www.w3.org/2000/svg" xmlns:svg="http://www.w3.org/2000/svg" xmlns:xlink="http://www.w3.org/1999/xlink" viewBox="0 0 2048 2048" style=""><path d="M59.0 759.0H442.0V445.0H148.0L131.0 388.0H442.0V50.0L784.0 79.0Q783.0 97.0 770.5 109.5Q758.0 122.0 723.0 128.0V388.0H739.0L864.0 218.0Q864.0 218.0 903.5 250.0Q943.0 282.0 997.0 327.5Q1051.0 373.0 1094.0 412.0Q1085.0 445.0 1036.0 445.0H723.0V759.0H764.0L893.0 580.0Q893.0 580.0 930.5 611.5Q968.0 643.0 1019.5 688.0Q1071.0 733.0 1114.0 773.0V601.0L1409.0 711.0H1563.0V269.0H1081.0L1063.0 212.0H1540.0L1665.0 75.0L1927.0 271.0Q1916.0 285.0 1894.5 298.5Q1873.0 312.0 1839.0 318.0V816.0Q1838.0 823.0 1799.0 837.5Q1760.0 852.0 1707.0 863.5Q1654.0 875.0 1610.0 875.0H1563.0V769.0H1380.0V1264.0Q1380.0 1286.0 1391.5 1293.5Q1403.0 1301.0 1442.0 1301.0H1593.0Q1630.0 1301.0 1662.5 1301.0Q1695.0 1301.0 1712.0 1299.0Q1732.0 1298.0 1743.0 1292.5Q1754.0 1287.0 1763.0 1271.0Q1782.0 1243.0 1808.0 1174.5Q1834.0 1106.0 1866.0 1010.0H1888.0L1894.0 1283.0Q1945.0 1304.0 1960.5 1329.5Q1976.0 1355.0 1976.0 1391.0Q1976.0 1445.0 1938.0 1482.0Q1900.0 1519.0 1809.0 1538.0Q1718.0 1557.0 1561.0 1557.0H1374.0Q1267.0 1557.0 1211.0 1538.0Q1155.0 1519.0 1134.5 1470.0Q1114.0 1421.0 1114.0 1332.0V795.0Q1102.0 816.0 1067.0 816.0H76.0ZM500.0 830.0 842.0 865.0Q839.0 885.0 823.0 900.5Q807.0 916.0 766.0 922.0V1197.0L885.0 1017.0Q885.0 1017.0 908.0 1038.0Q931.0 1059.0 966.5 1092.5Q1002.0 1126.0 1040.0 1163.5Q1078.0 1201.0 1108.0 1234.0Q1102.0 1266.0 1053.0 1266.0H766.0V1668.0Q829.0 1677.0 903.0 1680.5Q977.0 1684.0 1063.0 1684.0Q1126.0 1684.0 1221.5 1684.0Q1317.0 1684.0 1427.5 1684.0Q1538.0 1684.0 1649.0 1683.0Q1760.0 1682.0 1857.0 1681.0Q1954.0 1680.0 2019.0 1678.0V1703.0Q1943.0 1721.0 1906.0 1787.5Q1869.0 1854.0 1868.0 1934.0Q1802.0 1934.0 1694.0 1934.0Q1586.0 1934.0 1465.0 1934.0Q1344.0 1934.0 1236.0 1934.0Q1128.0 1934.0 1061.0 1934.0Q867.0 1934.0 729.5 1897.0Q592.0 1860.0 501.0 1765.5Q410.0 1671.0 354.0 1498.0Q316.0 1639.0 244.0 1768.5Q172.0 1898.0 49.0 1998.0L29.0 1977.0Q82.0 1870.0 113.5 1740.5Q145.0 1611.0 159.0 1473.0Q173.0 1335.0 173.5 1200.0Q174.0 1065.0 164.0 947.0L500.0 1008.0ZM377.0 1404.0Q432.0 1504.0 500.0 1563.0V1013.0Q494.0 1034.0 475.5 1047.0Q457.0 1060.0 422.0 1062.0Q416.0 1145.0 405.5 1231.5Q395.0 1318.0 377.0 1404.0Z" fill="black"></path></svg>