<?xml version="1.0" standalone="no"?>
<!DOCTYPE svg PUBLIC "-//W3C//DTD SVG 1.1//EN" "http://www.w3.org/Graphics/SVG/1.1/DTD/svg11.dtd" >
<svg xmlns="http://www.w3.org/2000/svg" xmlns:svg="http://www.w3.org/2000/svg" xmlns:xlink="http://www.w3.org/1999/xlink" viewBox="0 0 2048 2048" style=""><path d="M1271.5 394.0H679.5V613.0H1271.5ZM858.5 48.0 1282.5 105.0Q1277.5 134.0 1255.5 148.0Q1233.5 162.0 1198.5 167.0Q1159.5 202.0 1102.5 250.0Q1045.5 298.0 999.5 337.0H1249.5L1384.5 183.0L1658.5 398.0Q1648.5 410.0 1628.0 422.5Q1607.5 435.0 1574.5 443.0V802.0Q1605.5 759.0 1632.0 717.0Q1658.5 675.0 1683.5 634.0L1984.5 871.0Q1972.5 885.0 1952.0 889.5Q1931.5 894.0 1896.5 881.0Q1828.5 967.0 1748.5 1052.5Q1668.5 1138.0 1574.5 1219.0V1705.0Q1574.5 1795.0 1549.0 1856.0Q1523.5 1917.0 1443.0 1952.0Q1362.5 1987.0 1200.5 2000.0Q1194.5 1938.0 1183.0 1894.5Q1171.5 1851.0 1142.5 1823.0Q1116.5 1799.0 1076.5 1777.0Q1036.5 1755.0 946.5 1742.0V1717.0Q946.5 1717.0 982.5 1719.0Q1018.5 1721.0 1069.0 1724.0Q1119.5 1727.0 1165.0 1729.0Q1210.5 1731.0 1228.5 1731.0Q1254.5 1731.0 1263.0 1719.5Q1271.5 1708.0 1271.5 1686.0V1453.0Q1033.5 1613.0 735.0 1738.5Q436.5 1864.0 75.5 1936.0L63.5 1907.0Q378.5 1794.0 650.5 1630.0Q922.5 1466.0 1138.5 1277.0Q974.5 1333.0 757.0 1401.0Q539.5 1469.0 260.5 1549.0Q237.5 1589.0 198.5 1598.0L75.5 1289.0L378.5 1264.0V216.0L694.5 337.0H837.5Q843.5 277.0 849.5 194.5Q855.5 112.0 858.5 48.0ZM679.5 1234.0 1253.5 1170.0 1271.5 1152.0V955.0H679.5ZM679.5 670.0V898.0H1271.5V670.0Z" fill="black"></path></svg>