<?xml version="1.0" standalone="no"?>
<!DOCTYPE svg PUBLIC "-//W3C//DTD SVG 1.1//EN" "http://www.w3.org/Graphics/SVG/1.1/DTD/svg11.dtd" >
<svg xmlns="http://www.w3.org/2000/svg" xmlns:svg="http://www.w3.org/2000/svg" xmlns:xlink="http://www.w3.org/1999/xlink" viewBox="0 0 2048 2048" style=""><path d="M343.5 54.5H368.5Q385.5 89.5 398.0 123.5Q410.5 157.5 419.5 189.5H1568.5L1719.5 37.5L1982.5 283.5Q1968.5 297.5 1951.0 303.0Q1933.5 308.5 1900.5 310.5Q1846.5 348.5 1769.0 390.0Q1691.5 431.5 1617.5 461.5L1719.5 551.5Q1711.5 584.5 1660.5 584.5H1160.5V764.5H1392.5L1523.5 623.5L1785.5 824.5Q1776.5 836.5 1757.5 849.0Q1738.5 861.5 1707.5 867.5V1385.5Q1706.5 1397.5 1669.0 1422.5Q1631.5 1447.5 1575.5 1468.5Q1519.5 1489.5 1463.5 1489.5H1412.5V1381.5H1160.5V1606.5H1590.5L1732.5 1412.5Q1732.5 1412.5 1758.0 1433.5Q1783.5 1454.5 1823.5 1488.5Q1863.5 1522.5 1906.5 1560.5Q1949.5 1598.5 1984.5 1631.5Q1975.5 1663.5 1926.5 1663.5H1160.5V1917.5Q1160.5 1931.5 1125.0 1953.5Q1089.5 1975.5 1035.5 1993.0Q981.5 2010.5 927.5 2010.5H874.5V1663.5H79.5L63.5 1606.5H874.5V1381.5H620.5V1446.5Q620.5 1460.5 583.0 1482.0Q545.5 1503.5 488.0 1520.5Q430.5 1537.5 370.5 1537.5H329.5V646.5L640.5 764.5H874.5V584.5H401.5L384.5 527.5H874.5V310.5L1236.5 345.5Q1233.5 366.5 1218.5 381.5Q1203.5 396.5 1160.5 402.5V527.5H1318.5L1461.5 334.5L1558.5 412.5Q1565.5 372.5 1573.0 329.0Q1580.5 285.5 1584.5 246.5H431.5Q450.5 366.5 418.0 448.5Q385.5 530.5 325.5 566.5Q286.5 589.5 241.0 588.0Q195.5 586.5 157.5 560.5Q119.5 534.5 104.5 486.5Q84.5 417.5 118.5 367.5Q152.5 317.5 210.5 291.5Q242.5 272.5 275.0 236.5Q307.5 200.5 328.0 153.5Q348.5 106.5 343.5 54.5ZM620.5 1096.5V1324.5H874.5V1096.5ZM620.5 1039.5H874.5V822.5H620.5ZM1412.5 1096.5H1160.5V1324.5H1412.5ZM1412.5 1039.5V822.5H1160.5V1039.5Z" fill="black"></path></svg>