<?xml version="1.0" standalone="no"?>
<!DOCTYPE svg PUBLIC "-//W3C//DTD SVG 1.1//EN" "http://www.w3.org/Graphics/SVG/1.1/DTD/svg11.dtd" >
<svg xmlns="http://www.w3.org/2000/svg" xmlns:svg="http://www.w3.org/2000/svg" xmlns:xlink="http://www.w3.org/1999/xlink" viewBox="0 0 2048 2048" style=""><path d="M823.5 690.0H1096.5V528.0H1067.5H1020.5V350.0H821.5L807.5 293.0H1020.5V57.0L1325.5 82.0Q1323.5 100.0 1311.0 114.5Q1298.5 129.0 1266.5 135.0V293.0H1462.5V57.0L1771.5 84.0Q1770.5 101.0 1757.5 115.0Q1744.5 129.0 1710.5 135.0V293.0H1739.5L1831.5 156.0Q1831.5 156.0 1861.0 181.5Q1890.5 207.0 1930.5 245.0Q1970.5 283.0 2003.5 317.0Q1994.5 350.0 1952.5 350.0H1710.5V461.0L1970.5 614.0Q1961.5 630.0 1943.5 636.0Q1925.5 642.0 1888.5 635.0Q1762.5 799.0 1573.5 956.0H1665.5L1792.5 799.0Q1792.5 799.0 1832.5 828.5Q1872.5 858.0 1927.0 900.5Q1981.5 943.0 2025.5 981.0Q2016.5 1014.0 1968.5 1014.0H1499.5L1438.5 1059.0Q1529.5 1063.0 1574.5 1090.5Q1619.5 1118.0 1627.5 1155.5Q1635.5 1193.0 1615.5 1227.0Q1595.5 1261.0 1556.5 1278.0H1581.5L1700.5 1151.0L1941.5 1333.0Q1932.5 1344.0 1915.0 1355.0Q1897.5 1366.0 1868.5 1372.0V1915.0Q1867.5 1922.0 1830.0 1936.5Q1792.5 1951.0 1741.5 1963.5Q1690.5 1976.0 1647.5 1976.0H1601.5V1864.0H1255.5V1919.0Q1255.5 1931.0 1198.0 1961.0Q1140.5 1991.0 1038.5 1991.0H989.5V1311.0Q840.5 1376.0 680.5 1421.0L666.5 1395.0Q838.5 1310.0 989.5 1204.0V1165.0L1026.5 1180.0Q1080.5 1140.0 1132.0 1098.5Q1183.5 1057.0 1231.5 1014.0H776.5L760.5 956.0H1096.5V747.0H840.5ZM1264.5 481.0 1413.5 493.0Q1412.5 510.0 1400.5 522.0Q1388.5 534.0 1356.5 541.0V678.0L1458.5 547.0L1575.5 641.0Q1601.5 606.0 1625.0 570.5Q1648.5 535.0 1669.5 500.0Q1644.5 509.0 1605.5 514.5Q1566.5 520.0 1507.5 520.0H1462.5V350.0H1266.5ZM1601.5 1335.0H1255.5V1536.0H1601.5ZM1284.5 1278.0H1446.5L1415.5 1261.0Q1415.5 1222.0 1399.5 1182.5Q1383.5 1143.0 1360.5 1112.0Q1312.5 1143.0 1262.0 1172.5Q1211.5 1202.0 1159.5 1231.0ZM1601.5 1593.0H1255.5V1806.0H1601.5ZM1356.5 747.0V897.0Q1393.5 860.0 1427.0 822.0Q1460.5 784.0 1491.5 747.0ZM360.5 258.0V692.0H567.5V258.0ZM22.5 1675.0 127.5 1661.0V924.0L362.5 946.0Q359.5 973.0 321.5 981.0V1632.0L391.5 1620.0V749.0H360.5V768.0Q360.5 780.0 311.5 806.5Q262.5 833.0 174.5 833.0H133.5V104.0L387.5 201.0H551.5L651.5 96.0L858.5 250.0Q842.5 273.0 797.5 283.0V747.0Q797.5 755.0 768.0 767.5Q738.5 780.0 697.0 791.5Q655.5 803.0 618.5 805.0V1096.0L700.5 962.0Q700.5 962.0 732.5 995.0Q764.5 1028.0 806.5 1073.5Q848.5 1119.0 879.5 1157.0Q873.5 1190.0 825.5 1190.0H618.5V1583.0L893.5 1534.0L897.5 1556.0Q783.5 1621.0 606.0 1712.0Q428.5 1803.0 178.5 1915.0Q162.5 1958.0 121.5 1968.0Z" fill="black"></path></svg>