<?xml version="1.0" standalone="no"?>
<!DOCTYPE svg PUBLIC "-//W3C//DTD SVG 1.1//EN" "http://www.w3.org/Graphics/SVG/1.1/DTD/svg11.dtd" >
<svg xmlns="http://www.w3.org/2000/svg" xmlns:svg="http://www.w3.org/2000/svg" xmlns:xlink="http://www.w3.org/1999/xlink" viewBox="0 0 2048 2048" style=""><path d="M1313.0 1454.5Q1428.0 1490.5 1477.0 1539.5Q1526.0 1588.5 1527.0 1635.5Q1528.0 1682.5 1497.5 1713.0Q1467.0 1743.5 1421.5 1744.5Q1376.0 1745.5 1333.0 1702.5Q1341.0 1640.5 1327.5 1575.0Q1314.0 1509.5 1290.0 1464.5ZM10.0 1673.5 109.0 1659.5V932.5L338.0 952.5Q335.0 981.5 297.0 989.5V1628.5L373.0 1616.5V757.5H346.0V776.5Q346.0 788.5 297.0 815.0Q248.0 841.5 160.0 841.5H119.0V112.5L373.0 209.5H514.0L615.0 104.5L807.0 248.5H1182.0V53.5L1532.0 80.5Q1531.0 101.5 1516.0 116.5Q1501.0 131.5 1458.0 137.5V248.5H1577.0L1700.0 96.5Q1700.0 96.5 1738.5 125.0Q1777.0 153.5 1829.5 194.5Q1882.0 235.5 1925.0 272.5Q1916.0 305.5 1868.0 305.5H1458.0V452.5H1563.0L1682.0 305.5Q1682.0 305.5 1719.0 333.5Q1756.0 361.5 1807.0 401.5Q1858.0 441.5 1899.0 477.5Q1893.0 510.5 1843.0 510.5H1839.0L2038.0 698.5Q2026.0 710.5 2007.5 715.0Q1989.0 719.5 1960.0 721.5Q1919.0 757.5 1856.0 800.0Q1793.0 842.5 1739.0 868.5L1716.0 854.5H1448.0V993.5H1549.0L1655.0 860.5Q1655.0 860.5 1689.0 886.0Q1723.0 911.5 1769.0 948.5Q1815.0 985.5 1852.0 1018.5Q1846.0 1050.5 1800.0 1050.5Q1831.0 1073.5 1887.5 1117.5Q1944.0 1161.5 1989.0 1200.5Q1980.0 1233.5 1934.0 1233.5H774.0L764.0 1198.5H594.0V1575.5L754.0 1544.5V1286.5L975.0 1374.5H1034.0L1129.0 1276.5L1288.0 1394.5H1553.0V1235.5L1862.0 1261.5Q1856.0 1304.5 1792.0 1312.5V1394.5L1870.0 1294.5Q1870.0 1294.5 1894.0 1314.5Q1918.0 1334.5 1950.5 1363.5Q1983.0 1392.5 2009.0 1419.5Q2003.0 1452.5 1958.0 1452.5H1792.0V1747.5Q1792.0 1823.5 1774.0 1875.5Q1756.0 1927.5 1697.5 1956.5Q1639.0 1985.5 1518.0 1994.5Q1515.0 1947.5 1509.5 1912.5Q1504.0 1877.5 1489.0 1855.5Q1474.0 1835.5 1449.0 1818.5Q1424.0 1801.5 1368.0 1792.5V1765.5Q1368.0 1765.5 1401.0 1767.5Q1434.0 1769.5 1472.0 1771.5Q1510.0 1773.5 1524.0 1773.5Q1553.0 1773.5 1553.0 1747.5V1452.5H1268.0V1786.5Q1267.0 1793.5 1236.5 1806.5Q1206.0 1819.5 1164.5 1830.5Q1123.0 1841.5 1088.0 1841.5H1051.0V1759.5H969.0V1824.5Q969.0 1834.5 941.5 1850.0Q914.0 1865.5 872.0 1878.0Q830.0 1890.5 785.0 1890.5H754.0V1601.5Q651.0 1663.5 503.5 1743.5Q356.0 1823.5 162.0 1919.5Q145.0 1962.5 105.0 1972.5ZM789.0 622.5H1725.0L1835.0 510.5H846.0L830.0 452.5H1182.0V305.5H795.0L789.0 282.5L760.0 291.5V755.5Q760.0 762.5 733.5 774.5Q707.0 786.5 668.5 797.5Q630.0 808.5 594.0 811.5V1108.5L678.0 970.5Q678.0 970.5 710.0 1003.5Q742.0 1036.5 784.0 1082.0Q826.0 1127.5 856.0 1165.5Q856.0 1173.5 848.0 1175.5H1663.0L1766.0 1050.5H813.0L797.0 993.5H1172.0V854.5H891.0L875.0 796.5H1491.0L1587.0 680.5H807.0ZM1604.0 680.5 1729.0 780.5 1743.0 680.5ZM969.0 1702.5H1051.0V1431.5H969.0ZM346.0 266.5V700.5H531.0V266.5Z" fill="black"></path></svg>