<?xml version="1.0" standalone="no"?>
<!DOCTYPE svg PUBLIC "-//W3C//DTD SVG 1.1//EN" "http://www.w3.org/Graphics/SVG/1.1/DTD/svg11.dtd" >
<svg xmlns="http://www.w3.org/2000/svg" xmlns:svg="http://www.w3.org/2000/svg" xmlns:xlink="http://www.w3.org/1999/xlink" viewBox="0 0 2048 2048" style=""><path d="M1270.0 295.0H897.0L940.0 332.0V326.0L1196.0 426.0H1270.0ZM94.0 569.0V477.0L324.0 569.0H342.0V397.0H64.0L47.0 340.0H342.0V39.0L676.0 66.0Q675.0 86.0 661.0 99.5Q647.0 113.0 609.0 119.0V340.0H627.0L752.0 174.0L881.0 281.0L869.0 238.0H1270.0V39.0L1598.0 68.0Q1595.0 89.0 1579.0 104.0Q1563.0 119.0 1522.0 125.0V238.0H1639.0L1766.0 74.0Q1766.0 74.0 1804.5 105.0Q1843.0 136.0 1896.5 179.5Q1950.0 223.0 1993.0 262.0Q1984.0 295.0 1938.0 295.0H1522.0V426.0H1600.0L1712.0 307.0L1946.0 479.0Q1927.0 505.0 1880.0 514.0V891.0Q1879.0 900.0 1839.5 918.0Q1800.0 936.0 1749.0 948.0Q1851.0 967.0 1899.5 1009.5Q1948.0 1052.0 1954.0 1101.0Q1960.0 1150.0 1933.5 1188.5Q1907.0 1227.0 1860.0 1237.0Q1889.0 1266.0 1934.5 1313.5Q1980.0 1361.0 2013.0 1401.0Q2005.0 1434.0 1958.0 1434.0H1706.0V1714.0Q1706.0 1804.0 1684.5 1865.5Q1663.0 1927.0 1595.0 1962.5Q1527.0 1998.0 1387.0 2009.0Q1384.0 1948.0 1377.0 1903.0Q1370.0 1858.0 1352.0 1829.0Q1337.0 1804.0 1312.0 1784.5Q1287.0 1765.0 1235.0 1753.0Q1197.0 1773.0 1148.0 1767.5Q1099.0 1762.0 1051.0 1716.0Q1059.0 1644.0 1040.5 1569.0Q1022.0 1494.0 992.0 1442.0L1004.0 1434.0H901.0L1008.0 1524.0Q1002.0 1556.0 953.0 1556.0H609.0V1919.0Q607.0 1931.0 550.0 1961.0Q493.0 1991.0 391.0 1991.0H342.0V1556.0H51.0L35.0 1499.0H342.0V1241.0H316.0V1313.0Q316.0 1323.0 288.0 1340.0Q260.0 1357.0 216.5 1370.5Q173.0 1384.0 127.0 1384.0H94.0ZM1270.0 684.0H1186.0V827.0H1270.0ZM1522.0 684.0V827.0H1618.0V684.0ZM1270.0 627.0V483.0H1186.0V627.0ZM1522.0 627.0H1618.0V483.0H1522.0ZM940.0 426.0V395.0L922.0 397.0H609.0V569.0H619.0L723.0 457.0L938.0 621.0Q929.0 631.0 909.5 642.0Q890.0 653.0 862.0 659.0V1284.0Q861.0 1293.0 831.0 1310.0Q801.0 1327.0 758.0 1340.5Q715.0 1354.0 676.0 1354.0H637.0V1241.0H609.0V1499.0H654.0L779.0 1335.0L883.0 1417.0L871.0 1376.0H1430.0V1184.0Q1351.0 1208.0 1260.0 1237.0Q1169.0 1266.0 1063.0 1296.0Q1043.0 1334.0 1004.0 1341.0L887.0 1069.0Q949.0 1069.0 1048.0 1066.0Q1147.0 1063.0 1270.0 1059.0V885.0H1186.0V934.0Q1186.0 944.0 1154.5 961.5Q1123.0 979.0 1074.5 993.5Q1026.0 1008.0 975.0 1008.0H940.0ZM1581.0 940.0 1618.0 938.0V885.0H1522.0V1051.0L1653.0 1044.0Q1632.0 1017.0 1609.0 994.0Q1586.0 971.0 1565.0 952.0ZM1813.0 1239.0Q1802.0 1238.0 1790.0 1234.5Q1778.0 1231.0 1768.0 1225.0Q1752.0 1250.0 1706.0 1255.0V1376.0H1727.0ZM1018.0 1434.0Q1132.0 1455.0 1196.5 1492.5Q1261.0 1530.0 1286.0 1573.5Q1311.0 1617.0 1305.0 1657.5Q1299.0 1698.0 1272.0 1726.0L1399.0 1733.0Q1430.0 1733.0 1430.0 1706.0V1434.0ZM1692.0 1094.0 1448.0 1178.0 1751.0 1202.0Q1741.0 1176.0 1725.0 1148.0Q1709.0 1120.0 1692.0 1094.0ZM369.0 930.0H316.0V1184.0H369.0ZM582.0 930.0V1184.0H637.0V930.0ZM369.0 872.0V627.0H316.0V872.0ZM582.0 872.0H637.0V627.0H582.0Z" fill="black"></path></svg>