<?xml version="1.0" standalone="no"?>
<!DOCTYPE svg PUBLIC "-//W3C//DTD SVG 1.1//EN" "http://www.w3.org/Graphics/SVG/1.1/DTD/svg11.dtd" >
<svg xmlns="http://www.w3.org/2000/svg" xmlns:svg="http://www.w3.org/2000/svg" xmlns:xlink="http://www.w3.org/1999/xlink" viewBox="0 0 2048 2048" style=""><path d="M174.5 85.0Q328.5 73.0 424.0 99.5Q519.5 126.0 564.5 173.0Q609.5 220.0 614.0 272.0Q618.5 324.0 590.5 365.0Q562.5 406.0 511.5 420.0Q460.5 434.0 395.5 404.0Q361.5 321.0 292.0 236.5Q222.5 152.0 159.5 97.0ZM81.5 511.0Q240.5 496.0 339.0 521.0Q437.5 546.0 486.0 593.0Q534.5 640.0 540.5 692.5Q546.5 745.0 519.0 787.5Q491.5 830.0 439.5 846.0Q387.5 862.0 319.5 834.0Q282.5 750.0 209.0 664.0Q135.5 578.0 67.5 523.0ZM808.5 52.0 1189.5 171.0Q1183.5 191.0 1163.0 203.0Q1142.5 215.0 1105.5 214.0Q1089.5 251.0 1070.0 285.0Q1050.5 319.0 1030.5 351.0H1548.5L1695.5 150.0Q1695.5 150.0 1722.5 172.0Q1749.5 194.0 1791.0 229.0Q1832.5 264.0 1878.0 303.0Q1923.5 342.0 1959.5 376.0Q1955.5 392.0 1939.0 400.0Q1922.5 408.0 1900.5 408.0H993.5Q967.5 447.0 938.5 481.0Q909.5 515.0 880.5 548.0L1114.5 574.0Q1111.5 593.0 1096.5 608.0Q1081.5 623.0 1044.5 627.0V785.0L1185.5 750.0V435.0L1499.5 464.0Q1496.5 484.0 1481.5 498.5Q1466.5 513.0 1425.5 519.0V687.0L1548.5 656.0L1564.5 652.0H1558.5L1677.5 541.0L1888.5 711.0Q1868.5 735.0 1812.5 746.0Q1811.5 881.0 1804.0 961.0Q1796.5 1041.0 1776.5 1084.0Q1756.5 1127.0 1718.5 1152.0Q1681.5 1176.0 1636.0 1188.5Q1590.5 1201.0 1525.5 1201.0Q1525.5 1152.0 1522.0 1111.0Q1518.5 1070.0 1503.5 1047.0Q1490.5 1027.0 1477.5 1013.0Q1464.5 999.0 1433.5 988.0V963.0Q1447.5 963.0 1471.5 964.0Q1495.5 965.0 1515.5 965.0Q1533.5 965.0 1541.5 962.0Q1549.5 959.0 1554.5 953.0Q1565.5 942.0 1570.5 887.0Q1575.5 832.0 1578.5 709.0L1425.5 748.0V1211.0Q1425.5 1219.0 1395.5 1233.0Q1365.5 1247.0 1320.0 1257.5Q1274.5 1268.0 1228.5 1268.0H1185.5V810.0L1044.5 847.0V1268.0Q1044.5 1316.0 1058.5 1326.0Q1072.5 1336.0 1132.5 1336.0H1619.5Q1664.5 1336.0 1690.5 1332.5Q1716.5 1329.0 1730.5 1314.0Q1754.5 1287.0 1812.5 1119.0H1832.5L1834.5 1305.0Q1904.5 1336.0 1921.0 1353.0Q1937.5 1370.0 1937.5 1406.0Q1937.5 1487.0 1863.5 1534.5Q1789.5 1582.0 1597.5 1582.0H1118.5Q988.5 1582.0 919.0 1555.0Q849.5 1528.0 823.0 1458.0Q796.5 1388.0 796.5 1258.0V910.0L628.5 953.0L595.5 902.0L796.5 851.0V629.0Q747.5 673.0 695.0 708.5Q642.5 744.0 585.5 775.0L563.5 761.0Q643.5 630.0 711.0 441.0Q778.5 252.0 808.5 52.0ZM583.5 1191.0V1541.0Q635.5 1588.0 690.0 1616.5Q744.5 1645.0 815.5 1659.0Q886.5 1673.0 986.0 1677.5Q1085.5 1682.0 1226.5 1682.0Q1337.5 1682.0 1469.5 1681.5Q1601.5 1681.0 1738.5 1679.5Q1875.5 1678.0 2002.5 1674.0V1697.0Q1837.5 1740.0 1818.5 1946.0Q1737.5 1946.0 1636.0 1946.0Q1534.5 1946.0 1429.5 1946.0Q1324.5 1946.0 1230.5 1946.0Q1084.5 1946.0 979.5 1930.5Q874.5 1915.0 799.0 1874.5Q723.5 1834.0 667.0 1760.0Q610.5 1686.0 561.5 1570.0Q513.5 1632.0 454.5 1701.5Q395.5 1771.0 338.0 1834.5Q280.5 1898.0 235.5 1942.0Q233.5 1964.0 222.5 1976.5Q211.5 1989.0 196.5 1996.0L49.5 1676.0Q99.5 1662.0 167.0 1642.5Q234.5 1623.0 307.5 1600.0V1154.0H57.5L45.5 1094.0H274.5L407.5 918.0L692.5 1144.0Q678.5 1159.0 653.5 1172.0Q628.5 1185.0 583.5 1191.0Z" fill="black"></path></svg>