<?xml version="1.0" standalone="no"?>
<!DOCTYPE svg PUBLIC "-//W3C//DTD SVG 1.1//EN" "http://www.w3.org/Graphics/SVG/1.1/DTD/svg11.dtd" >
<svg xmlns="http://www.w3.org/2000/svg" xmlns:svg="http://www.w3.org/2000/svg" xmlns:xlink="http://www.w3.org/1999/xlink" viewBox="0 0 2048 2048" style=""><path d="M1500.5 621.0 1642.5 634.0V531.0H1150.5V859.0V873.0H1212.5V619.0L1480.5 644.0Q1478.5 659.0 1469.5 669.5Q1460.5 680.0 1435.5 685.0V873.0H1500.5ZM1150.5 474.0H1642.5V257.0H1150.5ZM85.5 584.0V494.0L309.5 584.0H331.5V402.0H48.5L32.5 345.0H331.5V52.0L653.5 79.0Q650.5 99.0 636.0 112.5Q621.5 126.0 583.5 132.0V345.0H612.5L730.5 185.0Q730.5 185.0 756.0 205.0Q781.5 225.0 819.0 256.0Q856.5 287.0 894.5 320.0V97.0L1189.5 199.0H1621.5L1738.5 74.0L1982.5 255.0Q1974.5 265.0 1956.0 277.0Q1937.5 289.0 1908.5 294.0V582.0Q1907.5 590.0 1873.0 602.5Q1838.5 615.0 1790.5 626.5Q1742.5 638.0 1701.5 640.0L1773.5 646.0Q1770.5 678.0 1728.5 687.0V873.0H1736.5L1828.5 744.0Q1828.5 744.0 1858.0 769.5Q1887.5 795.0 1926.5 830.5Q1965.5 866.0 1996.5 898.0Q1987.5 931.0 1943.5 931.0H1728.5V1156.0L1822.5 1021.0Q1822.5 1021.0 1855.5 1050.0Q1888.5 1079.0 1934.0 1119.5Q1979.5 1160.0 2015.5 1195.0Q2006.5 1228.0 1959.5 1228.0H1773.5L1986.5 1385.0Q1975.5 1399.0 1953.0 1405.5Q1930.5 1412.0 1898.5 1402.0Q1846.5 1423.0 1793.0 1445.5Q1739.5 1468.0 1685.5 1488.0Q1825.5 1622.0 2023.5 1662.0L2021.5 1684.0Q1945.5 1709.0 1893.0 1781.0Q1840.5 1853.0 1820.5 1965.0Q1659.5 1855.0 1584.5 1678.0Q1521.5 1727.0 1429.5 1791.0Q1337.5 1855.0 1210.5 1936.0Q1200.5 1958.0 1184.0 1970.0Q1167.5 1982.0 1148.5 1985.0L1003.5 1666.0L1181.5 1656.0V1228.0H1132.5Q1114.5 1367.0 1069.0 1502.5Q1023.5 1638.0 933.5 1761.5Q843.5 1885.0 694.5 1987.0L673.5 1973.0Q730.5 1885.0 769.5 1788.0Q808.5 1691.0 833.5 1590.0H583.5V1928.0Q583.5 1940.0 528.5 1968.0Q473.5 1996.0 376.5 1996.0H331.5V1590.0H40.5L24.5 1533.0H331.5V1271.0H298.5V1338.0Q298.5 1348.0 272.5 1364.5Q246.5 1381.0 204.5 1394.5Q162.5 1408.0 116.5 1408.0H85.5ZM1212.5 931.0H1150.5Q1149.5 989.0 1147.0 1049.5Q1144.5 1110.0 1138.5 1170.0H1212.5ZM1435.5 931.0V1170.0H1500.5V931.0ZM894.5 402.0H583.5V584.0H599.5L700.5 480.0L894.5 629.0ZM855.5 1481.0Q881.5 1331.0 888.0 1174.5Q894.5 1018.0 894.5 861.0V638.0Q887.5 645.0 872.0 653.5Q856.5 662.0 833.5 668.0V1309.0Q832.5 1318.0 803.5 1334.0Q774.5 1350.0 733.5 1363.5Q692.5 1377.0 655.5 1377.0H618.5V1271.0H583.5V1533.0H612.5L728.5 1377.0ZM1419.5 1228.0V1639.0L1564.5 1629.0Q1535.5 1548.0 1516.0 1448.5Q1496.5 1349.0 1484.5 1228.0ZM1517.5 1228.0Q1558.5 1343.0 1638.5 1438.0L1742.5 1228.0ZM352.5 949.0H298.5V1213.0H352.5ZM562.5 949.0V1213.0H618.5V949.0ZM352.5 892.0V642.0H298.5V892.0ZM562.5 892.0H618.5V642.0H562.5Z" fill="black"></path></svg>