<?xml version="1.0" standalone="no"?>
<!DOCTYPE svg PUBLIC "-//W3C//DTD SVG 1.1//EN" "http://www.w3.org/Graphics/SVG/1.1/DTD/svg11.dtd" >
<svg xmlns="http://www.w3.org/2000/svg" xmlns:svg="http://www.w3.org/2000/svg" xmlns:xlink="http://www.w3.org/1999/xlink" viewBox="0 0 2048 2048" style=""><path d="M88.5 115.0Q253.5 137.0 347.5 187.0Q441.5 237.0 479.0 299.0Q516.5 361.0 508.5 419.0Q500.5 477.0 461.0 515.5Q421.5 554.0 362.5 557.5Q303.5 561.0 238.5 513.0Q226.5 408.0 178.5 304.5Q130.5 201.0 72.5 126.0ZM1282.5 50.0 1643.5 140.0Q1629.5 184.0 1563.5 187.0Q1543.5 232.0 1522.0 274.5Q1500.5 317.0 1477.5 355.0H1588.5L1723.5 177.0Q1723.5 177.0 1748.0 196.5Q1772.5 216.0 1810.0 247.5Q1847.5 279.0 1888.5 314.0Q1929.5 349.0 1962.5 380.0Q1956.5 412.0 1905.5 412.0H1438.5Q1330.5 567.0 1184.5 660.0L1315.5 771.0Q1291.5 799.0 1235.5 808.0L1229.5 1021.0H1411.5V814.0L1538.5 824.0Q1557.5 784.0 1575.0 735.5Q1592.5 687.0 1606.5 644.0H1303.5L1284.5 586.0H1600.5L1725.5 457.0L1952.5 652.0Q1930.5 674.0 1872.5 677.0Q1818.5 715.0 1749.0 756.5Q1679.5 798.0 1608.5 830.0L1739.5 840.0Q1733.5 885.0 1672.5 894.0V1021.0H1692.5L1805.5 855.0Q1805.5 855.0 1840.0 886.5Q1874.5 918.0 1921.0 962.5Q1967.5 1007.0 2003.5 1045.0Q1994.5 1078.0 1948.5 1078.0H1672.5V1371.0Q1672.5 1457.0 1652.5 1515.5Q1632.5 1574.0 1569.5 1607.5Q1506.5 1641.0 1375.5 1651.0Q1373.5 1595.0 1367.5 1553.0Q1361.5 1511.0 1344.5 1484.0Q1328.5 1459.0 1302.5 1438.5Q1276.5 1418.0 1219.5 1408.0V1381.0Q1219.5 1381.0 1254.0 1383.5Q1288.5 1386.0 1328.0 1388.5Q1367.5 1391.0 1383.5 1391.0Q1411.5 1391.0 1411.5 1365.0V1078.0H1227.5Q1216.5 1308.0 1193.0 1426.0Q1169.5 1544.0 1112.5 1592.0Q1072.5 1624.0 1024.5 1636.0Q976.5 1648.0 916.5 1649.0Q916.5 1613.0 911.5 1573.0Q906.5 1533.0 893.5 1510.0Q879.5 1487.0 854.5 1465.0Q829.5 1443.0 789.5 1430.0L791.5 1404.0Q822.5 1407.0 855.5 1408.5Q888.5 1410.0 908.5 1410.0Q927.5 1410.0 936.5 1395.0Q964.5 1362.0 976.0 1218.0Q987.5 1074.0 992.5 769.0H908.5Q886.5 1005.0 815.5 1218.0Q744.5 1431.0 578.5 1594.0Q642.5 1640.0 721.5 1663.0Q800.5 1686.0 914.5 1693.5Q1028.5 1701.0 1198.5 1701.0Q1315.5 1701.0 1454.5 1700.0Q1593.5 1699.0 1737.5 1696.5Q1881.5 1694.0 2014.5 1690.0V1715.0Q1848.5 1755.0 1829.5 1953.0Q1742.5 1953.0 1635.0 1953.0Q1527.5 1953.0 1415.0 1953.0Q1302.5 1953.0 1200.5 1953.0Q1048.5 1953.0 937.5 1937.5Q826.5 1922.0 746.0 1881.0Q665.5 1840.0 605.0 1765.5Q544.5 1691.0 492.5 1572.0Q452.5 1634.0 402.5 1703.5Q352.5 1773.0 302.0 1837.0Q251.5 1901.0 211.5 1946.0Q211.5 1968.0 202.0 1979.5Q192.5 1991.0 176.5 1998.0L33.5 1694.0Q76.5 1681.0 132.5 1660.5Q188.5 1640.0 248.5 1617.0V1015.0H47.5L35.5 957.0H215.5L346.5 783.0L621.5 1004.0Q609.5 1020.0 584.5 1032.5Q559.5 1045.0 514.5 1051.0V1541.0L543.5 1567.0Q618.5 1403.0 647.0 1218.5Q675.5 1034.0 676.0 840.5Q676.5 647.0 666.5 455.0H551.5L535.5 398.0H725.5V54.0L1067.5 81.0Q1066.5 101.0 1053.0 114.5Q1039.5 128.0 1002.5 134.0V398.0H1018.5L1112.5 257.0Q1112.5 257.0 1153.0 294.0Q1193.5 331.0 1237.5 376.0Q1254.5 297.0 1265.5 214.0Q1276.5 131.0 1282.5 50.0ZM1217.5 455.0H924.5Q922.5 520.0 920.5 584.0Q918.5 648.0 914.5 711.0H971.5L1098.5 589.0L1157.5 638.0Q1193.5 554.0 1217.5 455.0Z" fill="black"></path></svg>