<?xml version="1.0" standalone="no"?>
<!DOCTYPE svg PUBLIC "-//W3C//DTD SVG 1.1//EN" "http://www.w3.org/Graphics/SVG/1.1/DTD/svg11.dtd" >
<svg xmlns="http://www.w3.org/2000/svg" xmlns:svg="http://www.w3.org/2000/svg" xmlns:xlink="http://www.w3.org/1999/xlink" viewBox="0 0 2048 2048" style=""><path d="M935.0 662.0H1015.0L1103.0 541.0Q1103.0 541.0 1130.5 565.0Q1158.0 589.0 1195.5 623.0Q1233.0 657.0 1263.0 687.0Q1254.0 720.0 1212.0 720.0H950.0ZM931.0 847.0H1011.0L1099.0 728.0Q1099.0 728.0 1126.5 751.5Q1154.0 775.0 1191.5 808.0Q1229.0 841.0 1259.0 871.0Q1250.0 904.0 1208.0 904.0H945.0ZM1275.0 507.0 1588.0 533.0Q1585.0 550.0 1574.0 562.0Q1563.0 574.0 1531.0 578.0V865.0Q1531.0 872.0 1498.0 884.5Q1465.0 897.0 1416.0 906.5Q1367.0 916.0 1320.0 916.0H1275.0ZM169.0 107.0Q318.0 102.0 408.5 131.0Q499.0 160.0 540.5 207.0Q582.0 254.0 584.0 304.0Q586.0 354.0 557.0 392.5Q528.0 431.0 478.0 442.5Q428.0 454.0 366.0 423.0Q337.0 341.0 275.0 257.0Q213.0 173.0 155.0 120.0ZM104.0 531.0Q254.0 527.0 345.5 556.5Q437.0 586.0 479.0 633.0Q521.0 680.0 523.5 730.5Q526.0 781.0 497.0 819.5Q468.0 858.0 417.5 870.0Q367.0 882.0 304.0 851.0Q274.0 768.0 211.0 683.5Q148.0 599.0 89.0 543.0ZM515.0 1209.0V1547.0L564.0 1592.0Q615.0 1469.0 635.0 1328.0Q655.0 1187.0 659.0 1039.0Q663.0 891.0 663.0 746.0V74.0L964.0 179.0H1611.0L1728.0 50.0L1980.0 236.0Q1970.0 249.0 1950.0 261.5Q1930.0 274.0 1898.0 281.0V488.0Q1896.0 496.0 1845.5 512.0Q1795.0 528.0 1738.0 537.0Q1739.0 538.0 1767.5 562.5Q1796.0 587.0 1833.5 621.5Q1871.0 656.0 1900.0 687.0Q1894.0 720.0 1849.0 720.0H1748.0Q1751.0 722.0 1780.0 746.5Q1809.0 771.0 1846.5 805.5Q1884.0 840.0 1914.0 871.0Q1908.0 904.0 1863.0 904.0H1568.0L1554.0 847.0H1654.0L1744.0 720.0H1568.0L1554.0 662.0H1644.0L1734.0 537.0L1679.0 541.0H1631.0V484.0H925.0V746.0Q925.0 855.0 917.5 970.5Q910.0 1086.0 880.5 1201.0Q851.0 1316.0 786.5 1423.5Q722.0 1531.0 610.0 1623.0Q671.0 1662.0 748.5 1681.0Q826.0 1700.0 934.0 1706.5Q1042.0 1713.0 1195.0 1713.0Q1313.0 1713.0 1452.0 1712.5Q1591.0 1712.0 1734.0 1710.5Q1877.0 1709.0 2008.0 1705.0V1729.0Q1930.0 1748.0 1886.5 1805.5Q1843.0 1863.0 1834.0 1953.0Q1744.0 1953.0 1635.5 1953.0Q1527.0 1953.0 1414.5 1953.0Q1302.0 1953.0 1199.0 1953.0Q1047.0 1953.0 937.0 1938.0Q827.0 1923.0 746.5 1883.0Q666.0 1843.0 605.5 1770.0Q545.0 1697.0 493.0 1580.0Q454.0 1640.0 405.5 1708.5Q357.0 1777.0 308.0 1839.5Q259.0 1902.0 220.0 1946.0Q220.0 1984.0 188.0 1998.0L48.0 1711.0Q90.0 1697.0 142.5 1676.5Q195.0 1656.0 253.0 1631.0V1174.0H52.0L40.0 1115.0H220.0L349.0 943.0L622.0 1162.0Q610.0 1177.0 585.0 1190.0Q560.0 1203.0 515.0 1209.0ZM982.0 959.0 1261.0 1037.0Q1250.0 1082.0 1185.0 1082.0L1134.0 1158.0H1275.0V957.0L1597.0 986.0Q1594.0 1004.0 1581.0 1017.5Q1568.0 1031.0 1531.0 1037.0V1158.0H1582.0L1699.0 1004.0Q1699.0 1004.0 1736.0 1033.5Q1773.0 1063.0 1823.5 1104.5Q1874.0 1146.0 1914.0 1182.0Q1905.0 1215.0 1859.0 1215.0H1531.0V1379.0H1646.0L1767.0 1219.0Q1767.0 1219.0 1805.0 1249.5Q1843.0 1280.0 1895.0 1323.0Q1947.0 1366.0 1988.0 1404.0Q1979.0 1436.0 1933.0 1436.0H1531.0V1629.0Q1531.0 1637.0 1498.5 1650.5Q1466.0 1664.0 1417.0 1675.0Q1368.0 1686.0 1320.0 1686.0H1275.0V1436.0H853.0L837.0 1379.0H1275.0V1215.0H1089.0Q1052.0 1258.0 1011.5 1295.5Q971.0 1333.0 929.0 1361.0L900.0 1344.0Q928.0 1271.0 949.0 1166.5Q970.0 1062.0 982.0 959.0ZM925.0 236.0V427.0H1631.0V236.0Z" fill="black"></path></svg>