<?xml version="1.0" standalone="no"?>
<!DOCTYPE svg PUBLIC "-//W3C//DTD SVG 1.1//EN" "http://www.w3.org/Graphics/SVG/1.1/DTD/svg11.dtd" >
<svg xmlns="http://www.w3.org/2000/svg" xmlns:svg="http://www.w3.org/2000/svg" xmlns:xlink="http://www.w3.org/1999/xlink" viewBox="0 0 2048 2048" style=""><path d="M846.0 53.0Q990.0 69.0 1069.0 110.5Q1148.0 152.0 1174.5 203.0Q1201.0 254.0 1187.5 301.0Q1174.0 348.0 1134.0 378.0Q1094.0 408.0 1038.5 406.5Q983.0 405.0 926.0 358.0Q923.0 278.0 894.0 199.0Q865.0 120.0 829.0 63.0ZM133.0 116.0Q302.0 135.0 398.5 184.0Q495.0 233.0 533.5 295.0Q572.0 357.0 565.5 416.0Q559.0 475.0 519.0 514.5Q479.0 554.0 419.0 558.0Q359.0 562.0 293.0 514.0Q279.0 409.0 229.0 305.5Q179.0 202.0 119.0 127.0ZM768.0 661.0V544.0L1067.0 661.0H1108.0Q1111.0 565.0 1108.0 473.0H621.0L604.0 415.0H1344.0Q1357.0 331.0 1367.5 229.0Q1378.0 127.0 1384.0 47.0L1780.0 121.0Q1770.0 165.0 1704.0 168.0Q1650.0 221.0 1568.0 289.0Q1486.0 357.0 1405.0 415.0H1606.0L1745.0 227.0Q1745.0 227.0 1771.0 248.0Q1797.0 269.0 1837.0 301.5Q1877.0 334.0 1920.5 371.0Q1964.0 408.0 1999.0 440.0Q1990.0 473.0 1942.0 473.0H1413.0Q1375.0 519.0 1329.5 569.5Q1284.0 620.0 1239.0 661.0H1466.0L1595.0 524.0L1849.0 719.0Q1842.0 729.0 1824.5 740.0Q1807.0 751.0 1778.0 757.0V1548.0Q1777.0 1556.0 1737.0 1573.0Q1697.0 1590.0 1641.0 1604.0Q1585.0 1618.0 1536.0 1618.0H1487.0V1470.0H1055.0V1540.0Q1055.0 1554.0 1019.0 1576.0Q983.0 1598.0 927.0 1615.0Q871.0 1632.0 811.0 1632.0H768.0ZM1487.0 966.0H1055.0V1159.0H1487.0ZM1487.0 909.0V719.0H1055.0V909.0ZM1487.0 1216.0H1055.0V1413.0H1487.0ZM569.0 1052.0V1540.0Q622.0 1589.0 677.0 1618.5Q732.0 1648.0 803.5 1663.0Q875.0 1678.0 975.5 1682.5Q1076.0 1687.0 1219.0 1687.0Q1329.0 1687.0 1461.0 1687.0Q1593.0 1687.0 1730.5 1685.0Q1868.0 1683.0 1995.0 1679.0V1702.0Q1830.0 1745.0 1810.0 1951.0Q1730.0 1951.0 1628.5 1951.0Q1527.0 1951.0 1421.0 1951.0Q1315.0 1951.0 1221.0 1951.0Q1074.0 1951.0 968.5 1935.5Q863.0 1920.0 787.0 1879.0Q711.0 1838.0 654.0 1763.0Q597.0 1688.0 547.0 1568.0Q502.0 1632.0 445.5 1702.5Q389.0 1773.0 333.5 1837.5Q278.0 1902.0 234.0 1947.0Q234.0 1969.0 223.0 1981.0Q212.0 1993.0 197.0 2001.0L49.0 1681.0Q98.0 1669.0 161.0 1648.5Q224.0 1628.0 293.0 1605.0V1016.0H61.0L49.0 956.0H260.0L393.0 780.0L678.0 1005.0Q664.0 1021.0 639.0 1033.0Q614.0 1045.0 569.0 1052.0Z" fill="black"></path></svg>