<?xml version="1.0" standalone="no"?>
<!DOCTYPE svg PUBLIC "-//W3C//DTD SVG 1.1//EN" "http://www.w3.org/Graphics/SVG/1.1/DTD/svg11.dtd" >
<svg xmlns="http://www.w3.org/2000/svg" xmlns:svg="http://www.w3.org/2000/svg" xmlns:xlink="http://www.w3.org/1999/xlink" viewBox="0 0 2048 2048" style=""><path d="M513.5 1084.5V1373.5H751.5V1084.5ZM1195.5 234.5V93.5L1504.5 234.5H1611.5L1752.5 95.5L2026.5 341.5Q2004.5 369.5 1934.5 372.5Q1895.5 438.5 1842.0 525.5Q1788.5 612.5 1728.0 700.0Q1667.5 787.5 1607.5 857.5Q1733.5 923.5 1812.5 1014.0Q1891.5 1104.5 1928.5 1203.0Q1965.5 1301.5 1965.5 1389.5Q1965.5 1548.5 1887.5 1644.5Q1809.5 1740.5 1613.5 1742.5Q1613.5 1702.5 1610.0 1654.5Q1606.5 1606.5 1600.0 1566.0Q1593.5 1525.5 1584.5 1506.5Q1558.5 1461.5 1490.5 1443.5V1418.5Q1518.5 1418.5 1557.5 1418.5Q1596.5 1418.5 1615.5 1418.5Q1640.5 1418.5 1656.5 1408.5Q1676.5 1396.5 1687.0 1371.5Q1697.5 1346.5 1697.5 1303.5Q1697.5 1194.5 1665.0 1077.0Q1632.5 959.5 1553.5 861.5Q1568.5 789.5 1584.0 689.0Q1599.5 588.5 1612.5 483.0Q1625.5 377.5 1631.5 292.5H1476.5V1899.5Q1476.5 1910.5 1449.0 1931.0Q1421.5 1951.5 1370.5 1968.5Q1319.5 1985.5 1246.5 1985.5H1195.5V814.5Q1189.5 816.5 1183.0 817.5Q1176.5 818.5 1168.5 818.5H783.5Q737.5 872.5 686.5 924.5Q635.5 976.5 579.5 1027.5H730.5L853.5 894.5L1103.5 1084.5Q1094.5 1095.5 1075.5 1107.5Q1056.5 1119.5 1027.5 1125.5V1891.5Q1026.5 1898.5 988.5 1914.5Q950.5 1930.5 897.5 1944.0Q844.5 1957.5 798.5 1957.5H751.5V1775.5H513.5V1901.5Q513.5 1915.5 455.5 1946.5Q397.5 1977.5 296.5 1977.5H247.5V1275.5Q151.5 1335.5 40.5 1385.5L21.5 1363.5Q137.5 1280.5 247.5 1177.5V921.5L425.5 986.5Q459.5 945.5 492.0 903.5Q524.5 861.5 556.5 818.5H50.5L34.5 761.5H361.5V447.5H101.5L85.5 390.5H361.5V62.5L714.5 91.5Q711.5 113.5 696.5 128.0Q681.5 142.5 638.5 148.5V386.5L742.5 228.5L841.5 320.5Q887.5 216.5 921.5 118.5L1195.5 253.5ZM513.5 1430.5V1717.5H751.5V1430.5ZM638.5 447.5V695.5Q678.5 634.5 714.0 572.0Q749.5 509.5 779.5 447.5ZM832.5 761.5H900.5L1017.5 599.5Q1017.5 599.5 1046.0 624.0Q1074.5 648.5 1116.0 685.0Q1157.5 721.5 1195.5 757.5V292.5Q1184.5 295.5 1170.5 296.5Q1156.5 297.5 1138.5 294.5Q1079.5 407.5 1003.0 526.0Q926.5 644.5 832.5 761.5Z" fill="black"></path></svg>