<?xml version="1.0" standalone="no"?>
<!DOCTYPE svg PUBLIC "-//W3C//DTD SVG 1.1//EN" "http://www.w3.org/Graphics/SVG/1.1/DTD/svg11.dtd" >
<svg xmlns="http://www.w3.org/2000/svg" xmlns:svg="http://www.w3.org/2000/svg" xmlns:xlink="http://www.w3.org/1999/xlink" viewBox="0 0 2048 2048" style=""><path d="M137.0 115.0Q304.0 136.0 399.0 186.0Q494.0 236.0 531.5 298.0Q569.0 360.0 562.0 418.5Q555.0 477.0 515.0 516.0Q475.0 555.0 415.5 558.5Q356.0 562.0 291.0 513.0Q277.0 408.0 229.0 304.5Q181.0 201.0 123.0 126.0ZM1628.0 494.0 1939.0 707.0Q1932.0 721.0 1914.0 728.5Q1896.0 736.0 1860.0 730.0Q1790.0 765.0 1701.5 810.0Q1613.0 855.0 1526.0 894.0Q1687.0 931.0 1783.5 992.5Q1880.0 1054.0 1923.0 1124.0Q1966.0 1194.0 1966.0 1258.0Q1966.0 1322.0 1933.5 1365.0Q1901.0 1408.0 1846.0 1416.0Q1791.0 1424.0 1726.0 1381.0Q1699.0 1266.0 1626.5 1146.5Q1554.0 1027.0 1466.0 937.0Q1527.0 1061.0 1541.0 1184.5Q1555.0 1308.0 1531.5 1409.5Q1508.0 1511.0 1456.0 1570.0Q1412.0 1622.0 1326.5 1641.0Q1241.0 1660.0 1124.0 1660.0Q1124.0 1600.0 1111.0 1556.5Q1098.0 1513.0 1075.0 1486.0Q1034.0 1438.0 909.0 1404.0L911.0 1383.0Q952.0 1386.0 1003.5 1389.0Q1055.0 1392.0 1101.0 1393.5Q1147.0 1395.0 1171.0 1395.0Q1191.0 1395.0 1205.5 1392.0Q1220.0 1389.0 1229.0 1377.0Q1259.0 1338.0 1272.0 1240.0Q1105.0 1325.0 911.0 1383.0Q836.0 1406.0 758.5 1423.0Q681.0 1440.0 604.0 1451.0L594.0 1426.0Q725.0 1377.0 849.5 1297.5Q974.0 1218.0 1078.5 1121.0Q1183.0 1024.0 1253.0 920.0Q1126.0 991.0 962.5 1048.5Q799.0 1106.0 635.0 1133.0L625.0 1113.0Q721.0 1069.0 815.0 1002.5Q909.0 936.0 991.5 857.0Q1074.0 778.0 1135.0 697.0Q1021.0 752.0 889.0 794.0Q757.0 836.0 614.0 867.0L602.0 842.0Q742.0 778.0 856.5 681.5Q971.0 585.0 1044.0 484.0H639.0L623.0 427.0H961.0Q930.0 415.0 895.0 386.0Q897.0 300.0 869.0 215.0Q841.0 130.0 803.0 68.0L819.0 58.0Q980.0 81.0 1061.5 133.0Q1143.0 185.0 1162.5 245.0Q1182.0 305.0 1157.0 355.5Q1132.0 406.0 1079.0 427.0H1303.0Q1327.0 338.0 1347.5 233.5Q1368.0 129.0 1380.0 48.0L1765.0 152.0Q1759.0 171.0 1741.0 182.0Q1723.0 193.0 1688.0 191.0Q1634.0 242.0 1556.0 305.0Q1478.0 368.0 1397.0 427.0H1585.0L1724.0 255.0Q1724.0 255.0 1750.0 273.5Q1776.0 292.0 1815.5 322.0Q1855.0 352.0 1898.5 386.5Q1942.0 421.0 1978.0 451.0Q1972.0 484.0 1921.0 484.0H1434.0Q1350.0 577.0 1227.0 648.0Q1293.0 699.0 1344.0 756.5Q1395.0 814.0 1432.0 875.0L1462.0 881.0Q1493.0 821.0 1526.0 749.0Q1559.0 677.0 1586.5 609.0Q1614.0 541.0 1628.0 494.0ZM553.0 1051.0V1541.0Q606.0 1593.0 662.5 1624.5Q719.0 1656.0 792.0 1672.0Q865.0 1688.0 967.0 1693.5Q1069.0 1699.0 1212.0 1699.0Q1325.0 1699.0 1459.0 1698.0Q1593.0 1697.0 1732.0 1695.0Q1871.0 1693.0 1999.0 1690.0V1713.0Q1919.0 1733.0 1873.5 1795.5Q1828.0 1858.0 1819.0 1955.0Q1735.0 1955.0 1631.5 1955.0Q1528.0 1955.0 1420.0 1955.0Q1312.0 1955.0 1214.0 1955.0Q1066.0 1955.0 959.0 1939.0Q852.0 1923.0 774.5 1882.0Q697.0 1841.0 638.5 1766.0Q580.0 1691.0 530.0 1572.0Q488.0 1634.0 435.5 1704.0Q383.0 1774.0 330.5 1838.0Q278.0 1902.0 236.0 1948.0Q236.0 1970.0 226.0 1981.5Q216.0 1993.0 201.0 2000.0L55.0 1692.0Q100.0 1679.0 158.0 1658.5Q216.0 1638.0 279.0 1615.0V1015.0H61.0L49.0 957.0H246.0L379.0 779.0L662.0 1004.0Q648.0 1020.0 623.0 1032.0Q598.0 1044.0 553.0 1051.0Z" fill="black"></path></svg>