<?xml version="1.0" standalone="no"?>
<!DOCTYPE svg PUBLIC "-//W3C//DTD SVG 1.1//EN" "http://www.w3.org/Graphics/SVG/1.1/DTD/svg11.dtd" >
<svg xmlns="http://www.w3.org/2000/svg" xmlns:svg="http://www.w3.org/2000/svg" xmlns:xlink="http://www.w3.org/1999/xlink" viewBox="0 0 2048 2048" style=""><path d="M156.0 104.0Q297.0 96.0 381.0 122.0Q465.0 148.0 502.5 191.5Q540.0 235.0 539.5 282.0Q539.0 329.0 509.5 364.5Q480.0 400.0 430.5 410.0Q381.0 420.0 322.0 389.0Q299.0 315.0 245.5 239.5Q192.0 164.0 142.0 116.0ZM60.0 532.0Q205.0 527.0 291.5 555.0Q378.0 583.0 416.5 628.5Q455.0 674.0 454.0 722.5Q453.0 771.0 422.5 807.5Q392.0 844.0 341.5 854.0Q291.0 864.0 230.0 831.0Q205.0 753.0 150.5 674.0Q96.0 595.0 45.0 544.0ZM862.0 385.0 1012.0 401.0Q1009.0 428.0 977.0 434.0V555.0Q977.0 565.0 946.5 580.5Q916.0 596.0 885.0 596.0H862.0ZM1510.0 383.0 1663.0 399.0Q1660.0 425.0 1628.0 434.0V561.0Q1628.0 569.0 1596.5 581.5Q1565.0 594.0 1536.0 594.0H1510.0ZM641.0 321.0V260.0H582.0L566.0 202.0H934.0L1053.0 55.0Q1053.0 55.0 1085.0 79.5Q1117.0 104.0 1163.5 140.0Q1210.0 176.0 1252.0 211.0L1250.0 202.0H1608.0L1733.0 49.0Q1733.0 49.0 1772.0 78.0Q1811.0 107.0 1864.0 148.5Q1917.0 190.0 1960.0 227.0Q1951.0 260.0 1903.0 260.0H1813.0L1942.0 356.0Q1933.0 368.0 1917.0 376.0Q1901.0 384.0 1870.0 389.0V549.0Q1870.0 561.0 1807.0 577.0Q1843.0 606.0 1888.0 644.0Q1933.0 682.0 1968.0 714.0Q1959.0 747.0 1913.0 747.0H1524.0V860.0H1610.0L1717.0 747.0L1942.0 913.0Q1934.0 922.0 1917.5 931.5Q1901.0 941.0 1876.0 946.0V1124.0Q1875.0 1133.0 1825.5 1150.5Q1776.0 1168.0 1721.0 1175.0L1917.0 1315.0Q1908.0 1328.0 1891.5 1333.0Q1875.0 1338.0 1841.0 1329.0Q1786.0 1346.0 1710.5 1360.5Q1635.0 1375.0 1563.0 1386.0V1437.0Q1563.0 1453.0 1569.0 1459.5Q1575.0 1466.0 1598.0 1466.0H1674.0Q1693.0 1466.0 1711.5 1466.0Q1730.0 1466.0 1741.0 1464.0Q1752.0 1464.0 1763.0 1462.0Q1774.0 1460.0 1782.0 1454.0Q1811.0 1428.0 1846.0 1353.0H1866.0L1874.0 1454.0Q1914.0 1471.0 1928.0 1490.0Q1942.0 1509.0 1942.0 1538.0Q1942.0 1602.0 1875.0 1631.5Q1808.0 1661.0 1647.0 1661.0H1528.0Q1448.0 1661.0 1408.5 1645.5Q1369.0 1630.0 1356.0 1593.5Q1343.0 1557.0 1342.0 1495.0Q1274.0 1525.0 1174.0 1567.0Q1074.0 1609.0 936.0 1665.0Q924.0 1699.0 893.0 1706.0Q953.0 1710.0 1024.5 1712.0Q1096.0 1714.0 1184.0 1714.0Q1303.0 1714.0 1443.5 1713.5Q1584.0 1713.0 1728.5 1711.5Q1873.0 1710.0 2005.0 1706.0V1730.0Q1928.0 1749.0 1884.0 1806.5Q1840.0 1864.0 1831.0 1954.0Q1740.0 1954.0 1629.5 1954.0Q1519.0 1954.0 1404.5 1954.0Q1290.0 1954.0 1186.0 1954.0Q1032.0 1954.0 920.5 1939.0Q809.0 1924.0 728.0 1884.0Q647.0 1844.0 585.5 1771.0Q524.0 1698.0 471.0 1581.0Q434.0 1641.0 388.0 1709.0Q342.0 1777.0 296.0 1839.5Q250.0 1902.0 213.0 1947.0Q213.0 1982.0 181.0 1999.0L43.0 1712.0Q83.0 1696.0 136.5 1675.0Q190.0 1654.0 248.0 1628.0V1177.0H58.0L45.0 1120.0H217.0L338.0 956.0L600.0 1167.0Q588.0 1181.0 562.5 1193.5Q537.0 1206.0 494.0 1212.0V1548.0Q506.0 1560.0 519.5 1572.0Q533.0 1584.0 545.0 1595.0Q602.0 1461.0 609.5 1306.5Q617.0 1152.0 617.0 1007.0V594.0L641.0 602.0ZM768.0 1495.0 877.0 1489.0V1126.0L1155.0 1149.0Q1152.0 1166.0 1140.0 1177.5Q1128.0 1189.0 1096.0 1194.0V1315.0H1110.0L1200.0 1186.0Q1200.0 1186.0 1223.0 1206.0Q1246.0 1226.0 1279.0 1257.0Q1312.0 1288.0 1342.0 1319.0V1128.0L1622.0 1151.0Q1616.0 1193.0 1563.0 1202.0V1319.0Q1603.0 1283.0 1640.5 1244.5Q1678.0 1206.0 1702.0 1177.0L1671.0 1179.0H1628.0V1114.0H848.0Q843.0 1200.0 820.5 1291.0Q798.0 1382.0 743.5 1468.0Q689.0 1554.0 590.0 1626.0Q647.0 1661.0 716.5 1679.5Q786.0 1698.0 883.0 1706.0ZM852.0 747.0V860.0H946.0V747.0ZM889.0 690.0H1127.0V598.0Q1099.0 606.0 1053.0 606.0H1020.0V379.0H819.0V592.0Q819.0 599.0 794.5 612.0Q770.0 625.0 725.0 633.0ZM1368.0 690.0H1612.0L1690.0 590.0H1682.0V379.0H1467.0V573.0Q1467.0 587.0 1418.0 604.0Q1402.0 616.0 1368.0 622.0ZM1293.0 747.0H1178.0V860.0H1293.0ZM852.0 917.0V1007.0V1056.0H946.0V917.0ZM1286.0 321.0V260.0H1266.0L1260.0 241.0Q1251.0 260.0 1215.0 260.0H1147.0L1276.0 356.0Q1267.0 368.0 1251.0 376.0Q1235.0 384.0 1205.0 389.0V551.0L1286.0 557.0ZM1069.0 260.0H688.0L842.0 321.0H1014.0ZM1731.0 260.0H1334.0L1489.0 321.0H1676.0ZM1628.0 917.0H1524.0V1056.0H1628.0ZM1293.0 917.0H1178.0V1056.0H1293.0ZM1342.0 1366.0Q1329.0 1372.0 1309.0 1372.0H1096.0V1474.0L1342.0 1456.0Z" fill="black"></path></svg>