<?xml version="1.0" standalone="no"?>
<!DOCTYPE svg PUBLIC "-//W3C//DTD SVG 1.1//EN" "http://www.w3.org/Graphics/SVG/1.1/DTD/svg11.dtd" >
<svg xmlns="http://www.w3.org/2000/svg" xmlns:svg="http://www.w3.org/2000/svg" xmlns:xlink="http://www.w3.org/1999/xlink" viewBox="0 0 2048 2048" style=""><path d="M589.0 215.0H1598.0L1738.0 45.0Q1738.0 45.0 1781.0 77.0Q1824.0 109.0 1883.5 154.0Q1943.0 199.0 1992.0 239.0Q1983.0 272.0 1932.0 272.0H605.0ZM136.0 120.0Q301.0 142.0 395.0 192.0Q489.0 242.0 526.0 304.0Q563.0 366.0 555.5 424.0Q548.0 482.0 508.5 520.5Q469.0 559.0 410.0 562.5Q351.0 566.0 286.0 518.0Q273.0 413.0 225.5 309.5Q178.0 206.0 120.0 131.0ZM531.0 1056.0V1542.0Q601.0 1390.0 632.5 1223.0Q664.0 1056.0 672.5 895.0Q681.0 734.0 681.0 600.0V317.0L980.0 422.0H1543.0L1662.0 295.0L1908.0 479.0Q1900.0 490.0 1882.0 501.0Q1864.0 512.0 1836.0 518.0V759.0Q1834.0 766.0 1811.0 778.0Q1788.0 790.0 1754.0 800.0L1975.0 968.0Q1966.0 979.0 1946.0 992.0Q1926.0 1005.0 1893.0 1011.0V1429.0Q1893.0 1504.0 1876.0 1556.5Q1859.0 1609.0 1803.0 1639.5Q1747.0 1670.0 1631.0 1679.0Q1631.0 1628.0 1628.5 1590.0Q1626.0 1552.0 1617.0 1527.0Q1611.0 1511.0 1601.0 1496.0Q1591.0 1481.0 1570.0 1472.0V1609.0Q1570.0 1617.0 1525.0 1636.5Q1480.0 1656.0 1402.0 1656.0H1365.0V1276.0H1295.0V1611.0Q1295.0 1618.0 1250.5 1637.0Q1206.0 1656.0 1129.0 1656.0H1093.0V1276.0H1023.0V1603.0Q1023.0 1613.0 994.0 1630.5Q965.0 1648.0 919.5 1661.5Q874.0 1675.0 826.0 1675.0H794.0V1296.0Q752.0 1371.0 694.5 1442.0Q637.0 1513.0 560.0 1572.0Q628.0 1631.0 707.0 1659.5Q786.0 1688.0 902.5 1697.0Q1019.0 1706.0 1199.0 1706.0Q1314.0 1706.0 1450.0 1705.0Q1586.0 1704.0 1727.0 1701.5Q1868.0 1699.0 1998.0 1695.0V1720.0Q1916.0 1740.0 1871.0 1801.0Q1826.0 1862.0 1816.0 1958.0Q1731.0 1958.0 1625.5 1958.0Q1520.0 1958.0 1410.5 1958.0Q1301.0 1958.0 1203.0 1958.0Q1053.0 1958.0 944.5 1942.5Q836.0 1927.0 757.5 1886.0Q679.0 1845.0 619.5 1770.5Q560.0 1696.0 509.0 1577.0Q469.0 1639.0 419.0 1708.5Q369.0 1778.0 318.5 1842.0Q268.0 1906.0 228.0 1951.0Q228.0 1973.0 218.5 1984.5Q209.0 1996.0 194.0 2003.0L50.0 1699.0Q93.0 1686.0 149.0 1665.5Q205.0 1645.0 265.0 1622.0V1020.0H64.0L52.0 962.0H232.0L363.0 788.0L638.0 1009.0Q626.0 1025.0 601.0 1037.5Q576.0 1050.0 531.0 1056.0ZM1705.0 815.0Q1682.0 819.0 1657.0 823.0Q1632.0 827.0 1611.0 827.0H1564.0V749.0H937.0L925.0 866.0L1037.0 911.0H1621.0ZM1564.0 479.0H941.0V598.0L939.0 692.0H1564.0ZM1641.0 1276.0H1570.0V1437.0H1615.0Q1632.0 1437.0 1636.5 1429.5Q1641.0 1422.0 1641.0 1407.0ZM1641.0 1218.0V968.0H1570.0V1218.0ZM1023.0 1218.0H1093.0V968.0H1023.0ZM1295.0 1218.0H1365.0V968.0H1295.0Z" fill="black"></path></svg>