<?xml version="1.0" standalone="no"?>
<!DOCTYPE svg PUBLIC "-//W3C//DTD SVG 1.1//EN" "http://www.w3.org/Graphics/SVG/1.1/DTD/svg11.dtd" >
<svg xmlns="http://www.w3.org/2000/svg" xmlns:svg="http://www.w3.org/2000/svg" xmlns:xlink="http://www.w3.org/1999/xlink" viewBox="0 0 2048 2048" style=""><path d="M93.0 115.0Q260.0 136.0 355.0 186.0Q450.0 236.0 487.5 298.0Q525.0 360.0 518.0 418.5Q511.0 477.0 471.5 516.0Q432.0 555.0 372.5 558.5Q313.0 562.0 247.0 513.0Q233.0 408.0 185.5 304.5Q138.0 201.0 79.0 126.0ZM1550.0 1164.0H1398.0V1387.0H1595.0L1724.0 1230.0Q1693.0 1239.0 1660.5 1244.5Q1628.0 1250.0 1599.0 1250.0H1550.0ZM1550.0 1107.0V871.0H1398.0V1107.0ZM1550.0 814.0V593.0H1398.0V814.0ZM565.0 1387.0H1111.0V1164.0H964.0V1211.0Q964.0 1224.0 928.5 1245.0Q893.0 1266.0 838.0 1282.5Q783.0 1299.0 724.0 1299.0H683.0V423.0L978.0 535.0H1111.0V369.0H595.0L579.0 312.0H1111.0V48.0L1474.0 81.0Q1471.0 104.0 1456.0 119.0Q1441.0 134.0 1398.0 140.0V312.0H1560.0L1703.0 134.0Q1703.0 134.0 1729.5 153.5Q1756.0 173.0 1796.5 204.0Q1837.0 235.0 1881.5 270.0Q1926.0 305.0 1963.0 337.0Q1960.0 354.0 1943.5 361.5Q1927.0 369.0 1906.0 369.0H1398.0V535.0H1529.0L1656.0 396.0L1918.0 595.0Q1908.0 607.0 1888.5 619.5Q1869.0 632.0 1836.0 638.0V1176.0Q1835.0 1182.0 1811.0 1195.0Q1787.0 1208.0 1750.0 1221.0Q1769.0 1235.0 1812.5 1267.0Q1856.0 1299.0 1907.0 1338.0Q1958.0 1377.0 2000.0 1412.0Q1991.0 1445.0 1941.0 1445.0H1398.0V1584.0Q1398.0 1596.0 1362.5 1617.0Q1327.0 1638.0 1273.0 1655.0Q1219.0 1672.0 1165.0 1672.0H1111.0V1445.0H581.0ZM964.0 1107.0H1111.0V871.0H964.0ZM964.0 814.0H1111.0V593.0H964.0ZM540.0 1051.0V1541.0Q594.0 1593.0 651.0 1624.5Q708.0 1656.0 782.5 1672.0Q857.0 1688.0 961.0 1693.5Q1065.0 1699.0 1212.0 1699.0Q1326.0 1699.0 1462.5 1698.5Q1599.0 1698.0 1740.5 1696.0Q1882.0 1694.0 2012.0 1690.0V1713.0Q1849.0 1756.0 1830.0 1955.0Q1744.0 1955.0 1638.5 1955.0Q1533.0 1955.0 1423.0 1955.0Q1313.0 1955.0 1214.0 1955.0Q1063.0 1955.0 954.0 1939.0Q845.0 1923.0 766.5 1882.0Q688.0 1841.0 628.5 1766.0Q569.0 1691.0 517.0 1572.0Q475.0 1634.0 422.5 1704.0Q370.0 1774.0 317.5 1838.0Q265.0 1902.0 223.0 1948.0Q223.0 1970.0 213.0 1981.5Q203.0 1993.0 188.0 2000.0L42.0 1692.0Q87.0 1679.0 145.0 1658.5Q203.0 1638.0 266.0 1615.0V1015.0H48.0L36.0 957.0H233.0L366.0 779.0L649.0 1004.0Q635.0 1020.0 610.0 1032.0Q585.0 1044.0 540.0 1051.0Z" fill="black"></path></svg>