<?xml version="1.0" standalone="no"?>
<!DOCTYPE svg PUBLIC "-//W3C//DTD SVG 1.1//EN" "http://www.w3.org/Graphics/SVG/1.1/DTD/svg11.dtd" >
<svg xmlns="http://www.w3.org/2000/svg" xmlns:svg="http://www.w3.org/2000/svg" xmlns:xlink="http://www.w3.org/1999/xlink" viewBox="0 0 2048 2048" style=""><path d="M811.5 73.5Q811.5 73.5 847.0 105.0Q882.5 136.5 933.0 182.0Q983.5 227.5 1028.5 270.5V79.5L1344.5 223.5H1586.5L1737.5 77.5L2024.5 337.5Q2002.5 365.5 1926.5 368.5Q1878.5 435.5 1811.5 521.5Q1744.5 607.5 1669.5 693.5Q1594.5 779.5 1522.5 845.5Q1675.5 907.5 1771.5 996.5Q1867.5 1085.5 1913.0 1186.0Q1958.5 1286.5 1958.5 1380.5Q1958.5 1485.5 1920.5 1565.5Q1882.5 1645.5 1794.5 1690.5Q1706.5 1735.5 1557.5 1736.5Q1557.5 1669.5 1548.0 1595.0Q1538.5 1520.5 1520.5 1490.5Q1490.5 1444.5 1403.5 1423.5V1400.5Q1442.5 1400.5 1497.5 1400.5Q1552.5 1400.5 1575.5 1400.5Q1606.5 1400.5 1626.5 1390.5Q1653.5 1376.5 1668.0 1351.5Q1682.5 1326.5 1682.5 1283.5Q1682.5 1174.5 1631.0 1061.5Q1579.5 948.5 1469.5 851.5Q1492.5 779.5 1518.0 679.0Q1543.5 578.5 1566.5 473.0Q1589.5 367.5 1604.5 280.5H1315.5V1886.5Q1315.5 1896.5 1287.5 1917.5Q1259.5 1938.5 1207.0 1956.5Q1154.5 1974.5 1082.5 1974.5H1028.5V323.5Q1016.5 329.5 998.5 329.5H668.5V1277.5L977.5 1214.5L981.5 1234.5Q869.5 1311.5 683.5 1420.0Q497.5 1528.5 222.5 1666.5Q200.5 1712.5 162.5 1722.5L23.5 1392.5Q78.5 1384.5 169.0 1369.5Q259.5 1354.5 373.5 1333.5V329.5H72.5L56.5 272.5H674.5Z" fill="black"></path></svg>