<?xml version="1.0" standalone="no"?>
<!DOCTYPE svg PUBLIC "-//W3C//DTD SVG 1.1//EN" "http://www.w3.org/Graphics/SVG/1.1/DTD/svg11.dtd" >
<svg xmlns="http://www.w3.org/2000/svg" xmlns:svg="http://www.w3.org/2000/svg" xmlns:xlink="http://www.w3.org/1999/xlink" viewBox="0 0 2048 2048" style=""><path d="M87.5 107.0Q250.5 133.0 342.0 185.5Q433.5 238.0 468.0 300.5Q502.5 363.0 493.0 420.5Q483.5 478.0 443.0 515.0Q402.5 552.0 343.5 553.5Q284.5 555.0 221.5 505.0Q213.5 402.0 170.0 298.0Q126.5 194.0 71.5 118.0ZM1308.5 1334.0Q1519.5 1342.0 1645.0 1371.5Q1770.5 1401.0 1828.0 1442.0Q1885.5 1483.0 1891.0 1525.5Q1896.5 1568.0 1866.5 1603.5Q1836.5 1639.0 1785.5 1657.0Q1734.5 1675.0 1679.0 1666.5Q1623.5 1658.0 1580.5 1613.0Q1548.5 1557.0 1479.0 1485.5Q1409.5 1414.0 1300.5 1357.0ZM1306.5 757.0 1634.5 783.0Q1632.5 802.0 1621.0 814.0Q1609.5 826.0 1576.5 832.0V945.0L1689.5 808.0Q1689.5 808.0 1727.0 836.0Q1764.5 864.0 1815.5 904.0Q1866.5 944.0 1908.5 980.0Q1899.5 1013.0 1853.5 1013.0H1576.5V1232.0L1714.5 1064.0Q1714.5 1064.0 1756.5 1095.5Q1798.5 1127.0 1856.5 1171.5Q1914.5 1216.0 1961.5 1256.0Q1952.5 1289.0 1904.5 1289.0H933.5L1238.5 1482.0Q1223.5 1500.0 1193.0 1506.5Q1162.5 1513.0 1109.5 1502.0Q1030.5 1547.0 915.0 1581.5Q799.5 1616.0 667.5 1637.0Q753.5 1673.0 876.5 1683.0Q999.5 1693.0 1198.5 1693.0Q1315.5 1693.0 1455.0 1692.0Q1594.5 1691.0 1739.5 1688.5Q1884.5 1686.0 2017.5 1682.0V1707.0Q1851.5 1747.0 1832.5 1945.0Q1744.5 1945.0 1636.5 1945.0Q1528.5 1945.0 1416.0 1945.0Q1303.5 1945.0 1202.5 1945.0Q1047.5 1945.0 936.0 1929.5Q824.5 1914.0 744.0 1873.0Q663.5 1832.0 603.0 1757.5Q542.5 1683.0 489.5 1564.0Q449.5 1626.0 399.5 1695.5Q349.5 1765.0 299.0 1829.0Q248.5 1893.0 208.5 1938.0Q208.5 1960.0 199.0 1971.5Q189.5 1983.0 174.5 1990.0L30.5 1686.0Q73.5 1673.0 129.5 1652.5Q185.5 1632.0 245.5 1609.0V1007.0H44.5L32.5 949.0H212.5L343.5 775.0L618.5 996.0Q606.5 1012.0 581.5 1024.5Q556.5 1037.0 511.5 1043.0V1533.0Q555.5 1577.0 602.5 1605.0Q695.5 1540.0 778.5 1452.0Q861.5 1364.0 907.5 1289.0H556.5L540.5 1232.0H851.5V1013.0H632.5L616.5 955.0H851.5V757.0L1175.5 783.0Q1172.5 802.0 1160.5 814.0Q1148.5 826.0 1118.5 830.0V955.0H1306.5ZM604.5 361.0V261.0L868.5 361.0H919.5V228.0H624.5L606.5 171.0H901.5L1005.5 60.0L1226.5 222.0Q1208.5 247.0 1159.5 259.0V392.0Q1159.5 401.0 1126.5 416.5Q1093.5 432.0 1047.5 444.0Q1001.5 456.0 962.5 456.0H919.5V419.0H839.5V523.0Q839.5 539.0 846.5 544.5Q853.5 550.0 878.5 550.0H968.5Q991.5 550.0 1013.5 550.0Q1035.5 550.0 1046.5 550.0Q1075.5 550.0 1089.5 535.0Q1101.5 523.0 1120.5 492.5Q1139.5 462.0 1161.5 415.0H1181.5L1189.5 535.0Q1232.5 555.0 1246.0 574.5Q1259.5 594.0 1259.5 624.0Q1259.5 690.0 1187.0 717.0Q1114.5 744.0 937.5 744.0H804.5Q715.5 744.0 673.0 727.5Q630.5 711.0 617.5 672.0Q604.5 633.0 604.5 564.0ZM1249.5 171.0H1564.5L1671.5 58.0L1896.5 224.0Q1888.5 233.0 1871.5 243.5Q1854.5 254.0 1828.5 259.0V392.0Q1828.5 400.0 1795.0 415.5Q1761.5 431.0 1714.5 443.5Q1667.5 456.0 1626.5 456.0H1583.5V419.0H1519.5V523.0Q1519.5 539.0 1525.5 544.5Q1531.5 550.0 1556.5 550.0H1646.5Q1669.5 550.0 1691.5 550.0Q1713.5 550.0 1724.5 550.0Q1753.5 550.0 1767.5 535.0Q1779.5 523.0 1798.5 492.5Q1817.5 462.0 1839.5 415.0H1861.5L1867.5 535.0Q1910.5 555.0 1924.0 575.5Q1937.5 596.0 1937.5 626.0Q1937.5 692.0 1865.0 719.0Q1792.5 746.0 1615.5 746.0H1482.5Q1392.5 746.0 1349.5 729.5Q1306.5 713.0 1293.0 673.5Q1279.5 634.0 1279.5 564.0V259.0L1546.5 361.0H1583.5V228.0H1267.5ZM1118.5 1013.0V1232.0H1306.5V1013.0Z" fill="black"></path></svg>