<?xml version="1.0" standalone="no"?>
<!DOCTYPE svg PUBLIC "-//W3C//DTD SVG 1.1//EN" "http://www.w3.org/Graphics/SVG/1.1/DTD/svg11.dtd" >
<svg xmlns="http://www.w3.org/2000/svg" xmlns:svg="http://www.w3.org/2000/svg" xmlns:xlink="http://www.w3.org/1999/xlink" viewBox="0 0 2048 2048" style=""><path d="M1161.5 426.5Q1296.5 465.5 1369.0 520.5Q1441.5 575.5 1466.0 634.0Q1490.5 692.5 1478.0 742.5Q1465.5 792.5 1428.0 822.0Q1390.5 851.5 1339.5 849.0Q1288.5 846.5 1237.5 798.5Q1240.5 705.5 1212.0 607.0Q1183.5 508.5 1143.5 436.5ZM697.5 1081.5 971.5 1169.5Q957.5 1212.5 893.5 1212.5Q842.5 1292.5 783.5 1374.5Q724.5 1456.5 664.5 1517.5L631.5 1503.5Q648.5 1423.5 666.0 1307.0Q683.5 1190.5 697.5 1081.5ZM131.5 1085.5Q247.5 1164.5 296.0 1246.0Q344.5 1327.5 343.5 1396.0Q342.5 1464.5 309.0 1506.5Q275.5 1548.5 227.0 1550.0Q178.5 1551.5 133.5 1497.5Q147.5 1395.5 137.5 1287.5Q127.5 1179.5 107.5 1093.5ZM1067.5 596.5Q1101.5 808.5 1171.5 972.0Q1241.5 1135.5 1338.5 1259.5Q1447.5 1049.5 1508.0 811.0Q1568.5 572.5 1596.5 315.5H907.5L889.5 258.5H1575.5L1721.5 102.5L1977.5 334.5Q1966.5 354.5 1947.5 362.5Q1928.5 370.5 1888.5 377.5Q1849.5 671.5 1765.5 942.5Q1681.5 1213.5 1508.5 1435.5Q1620.5 1532.5 1751.0 1602.5Q1881.5 1672.5 2024.5 1726.5L2017.5 1749.5Q1816.5 1774.5 1731.5 1986.5Q1612.5 1909.5 1515.5 1820.0Q1418.5 1730.5 1340.5 1618.5Q1212.5 1734.5 1042.0 1829.0Q871.5 1923.5 649.5 1992.5L633.5 1972.5Q828.5 1867.5 977.5 1732.0Q1126.5 1596.5 1233.5 1433.5Q1164.5 1286.5 1117.0 1095.5Q1069.5 904.5 1043.5 657.5Q1024.5 706.5 1002.5 759.5Q980.5 812.5 965.5 846.5Q983.5 873.5 961.5 895.5L832.5 766.5Q872.5 735.5 930.5 682.5Q988.5 629.5 1026.5 587.5L1041.5 471.5L1135.5 489.5ZM45.5 1683.5Q97.5 1677.5 179.5 1664.0Q261.5 1650.5 363.5 1632.5V1011.5H90.5L74.5 954.5H363.5V706.5H223.5L219.5 694.5Q136.5 771.5 41.5 829.5L23.5 815.5Q78.5 739.5 127.5 641.5Q176.5 543.5 216.0 438.5Q255.5 333.5 283.5 234.0Q311.5 134.5 324.5 55.5L668.5 164.5Q662.5 184.5 644.5 195.5Q626.5 206.5 586.5 211.5Q747.5 241.5 825.5 293.5Q903.5 345.5 919.5 401.0Q935.5 456.5 908.5 499.5Q881.5 542.5 830.5 558.0Q779.5 573.5 725.5 542.5Q756.5 572.5 795.0 608.0Q833.5 643.5 862.5 674.5Q853.5 706.5 807.5 706.5H600.5V954.5H615.5L727.5 782.5Q727.5 782.5 763.0 815.5Q798.5 848.5 845.0 894.5Q891.5 940.5 926.5 979.5Q917.5 1011.5 871.5 1011.5H600.5V1591.5L955.5 1525.5L959.5 1546.5Q853.5 1617.5 686.0 1711.5Q518.5 1805.5 266.5 1929.5Q250.5 1973.5 211.5 1982.5ZM553.5 272.5Q502.5 367.5 430.5 464.5Q358.5 561.5 268.5 649.5H547.5L660.5 485.5L703.5 522.5Q683.5 473.5 644.5 405.5Q605.5 337.5 553.5 272.5Z" fill="black"></path></svg>