<?xml version="1.0" standalone="no"?>
<!DOCTYPE svg PUBLIC "-//W3C//DTD SVG 1.1//EN" "http://www.w3.org/Graphics/SVG/1.1/DTD/svg11.dtd" >
<svg xmlns="http://www.w3.org/2000/svg" xmlns:svg="http://www.w3.org/2000/svg" xmlns:xlink="http://www.w3.org/1999/xlink" viewBox="0 0 2048 2048" style=""><path d="M1298.0 69.0 1630.0 96.0Q1628.0 114.0 1614.5 127.5Q1601.0 141.0 1564.0 147.0V383.0H1656.0L1779.0 213.0Q1779.0 213.0 1818.0 245.5Q1857.0 278.0 1908.5 323.0Q1960.0 368.0 2000.0 407.0Q1994.0 440.0 1945.0 440.0H960.0L944.0 383.0H1298.0ZM1298.0 1157.0 1644.0 1188.0Q1641.0 1208.0 1625.5 1223.5Q1610.0 1239.0 1568.0 1245.0V1374.0H1663.0L1785.0 1204.0Q1785.0 1204.0 1823.5 1236.5Q1862.0 1269.0 1913.5 1314.5Q1965.0 1360.0 2005.0 1399.0Q1999.0 1431.0 1949.0 1431.0H1568.0V1939.0Q1568.0 1948.0 1534.0 1962.5Q1500.0 1977.0 1448.5 1988.0Q1397.0 1999.0 1345.0 1999.0H1298.0V1431.0H966.0L950.0 1374.0H1298.0ZM475.0 223.0H679.0L804.0 49.0Q804.0 49.0 843.5 82.0Q883.0 115.0 936.5 161.5Q990.0 208.0 1032.0 248.0Q1023.0 280.0 974.0 280.0H698.0V571.0L796.0 467.0L1017.0 641.0Q1008.0 652.0 989.5 662.5Q971.0 673.0 944.0 678.0V1073.0Q1004.0 948.0 1043.5 791.0Q1083.0 634.0 1095.0 465.0L1415.0 540.0Q1401.0 585.0 1337.0 588.0Q1322.0 634.0 1305.0 676.0Q1288.0 718.0 1269.0 758.0Q1368.0 782.0 1413.0 823.0Q1458.0 864.0 1464.0 905.0Q1507.0 808.0 1537.5 695.5Q1568.0 583.0 1581.0 461.0L1902.0 545.0Q1888.0 590.0 1822.0 590.0Q1786.0 695.0 1736.0 782.0Q1863.0 820.0 1922.0 876.5Q1981.0 933.0 1988.5 990.0Q1996.0 1047.0 1967.5 1088.0Q1939.0 1129.0 1889.0 1137.0Q1839.0 1145.0 1783.0 1102.0Q1779.0 1039.0 1754.5 973.0Q1730.0 907.0 1697.0 850.0Q1627.0 956.0 1537.5 1032.0Q1448.0 1108.0 1341.0 1159.0L1318.0 1140.0Q1343.0 1111.0 1365.0 1079.0Q1387.0 1047.0 1409.0 1011.0Q1379.0 1027.0 1343.0 1023.5Q1307.0 1020.0 1271.0 989.0Q1275.0 903.0 1234.0 823.0Q1121.0 1031.0 944.0 1153.0V1896.0Q942.0 1904.0 909.5 1921.0Q877.0 1938.0 831.0 1952.0Q785.0 1966.0 743.0 1966.0H704.0V1794.0H313.0V1911.0Q313.0 1924.0 287.0 1943.0Q261.0 1962.0 219.0 1976.0Q177.0 1990.0 129.0 1990.0H92.0V489.0L301.0 577.0V280.0H59.0L43.0 223.0ZM524.0 280.0H475.0V588.0H524.0ZM704.0 1450.0H313.0V1736.0H704.0ZM704.0 1392.0V1163.0L669.0 1165.0H626.0Q559.0 1165.0 541.5 1138.0Q524.0 1111.0 524.0 1048.0V645.0H475.0V721.0Q475.0 791.0 466.0 882.5Q457.0 974.0 423.0 1067.0Q389.0 1160.0 313.0 1237.0V1392.0ZM704.0 1011.0V645.0H651.0V985.0Q651.0 1011.0 667.0 1011.0H684.0Q687.0 1011.0 691.0 1011.0Q695.0 1011.0 700.0 1011.0ZM313.0 1132.0Q345.0 1025.0 349.5 916.5Q354.0 808.0 354.0 719.0V645.0H313.0Z" fill="black"></path></svg>