<?xml version="1.0" standalone="no"?>
<!DOCTYPE svg PUBLIC "-//W3C//DTD SVG 1.1//EN" "http://www.w3.org/Graphics/SVG/1.1/DTD/svg11.dtd" >
<svg xmlns="http://www.w3.org/2000/svg" xmlns:svg="http://www.w3.org/2000/svg" xmlns:xlink="http://www.w3.org/1999/xlink" viewBox="0 0 2048 2048" style=""><path d="M306.0 786.0V667.0L620.0 786.0H861.0V604.0H110.0L93.0 547.0H861.0V395.0Q697.0 401.0 530.0 402.5Q363.0 404.0 206.0 399.0L204.0 368.0Q371.0 348.0 555.0 317.0Q739.0 286.0 918.0 248.0Q1097.0 210.0 1252.5 169.5Q1408.0 129.0 1519.0 90.0L1762.0 340.0Q1721.0 374.0 1619.0 331.0Q1521.0 345.0 1405.5 356.0Q1290.0 367.0 1164.0 377.0V547.0H1525.0L1676.0 364.0Q1676.0 364.0 1704.0 384.0Q1732.0 404.0 1775.0 435.5Q1818.0 467.0 1865.5 503.0Q1913.0 539.0 1953.0 571.0Q1948.0 588.0 1931.5 596.0Q1915.0 604.0 1893.0 604.0H1164.0V786.0H1416.0L1547.0 643.0L1818.0 848.0Q1808.0 860.0 1789.0 872.0Q1770.0 884.0 1738.0 891.0V1398.0Q1736.0 1406.0 1705.0 1422.0Q1674.0 1438.0 1629.0 1452.0Q1669.0 1481.0 1739.0 1532.5Q1809.0 1584.0 1865.0 1630.0Q1856.0 1663.0 1805.0 1663.0H1164.0V1900.0H1523.0L1691.0 1685.0Q1691.0 1685.0 1721.5 1708.5Q1752.0 1732.0 1800.0 1769.0Q1848.0 1806.0 1900.0 1847.5Q1952.0 1889.0 1994.0 1925.0Q1985.0 1958.0 1932.0 1958.0H71.0L54.0 1900.0H861.0V1663.0H235.0L218.0 1605.0H861.0V1388.0H603.0V1433.0Q603.0 1447.0 565.0 1468.5Q527.0 1490.0 468.5 1507.5Q410.0 1525.0 349.0 1525.0H306.0ZM1164.0 1605.0H1449.0L1562.0 1468.0Q1542.0 1473.0 1523.5 1474.5Q1505.0 1476.0 1488.0 1476.0H1437.0V1388.0H1164.0ZM861.0 1331.0V1112.0H603.0V1331.0ZM1164.0 1331.0H1437.0V1112.0H1164.0ZM861.0 1054.0V843.0H603.0V1054.0ZM1164.0 1054.0H1437.0V843.0H1164.0Z" fill="black"></path></svg>