<?xml version="1.0" standalone="no"?>
<!DOCTYPE svg PUBLIC "-//W3C//DTD SVG 1.1//EN" "http://www.w3.org/Graphics/SVG/1.1/DTD/svg11.dtd" >
<svg xmlns="http://www.w3.org/2000/svg" xmlns:svg="http://www.w3.org/2000/svg" xmlns:xlink="http://www.w3.org/1999/xlink" viewBox="0 0 2048 2048" style=""><path d="M390.5 1324.0Q541.5 1376.0 621.0 1444.0Q700.5 1512.0 723.5 1581.5Q746.5 1651.0 727.5 1708.0Q708.5 1765.0 662.0 1796.5Q615.5 1828.0 555.0 1820.5Q494.5 1813.0 435.5 1752.0Q443.5 1641.0 424.0 1532.5Q404.5 1424.0 372.5 1332.0ZM1343.5 1309.0 1724.5 1445.0Q1710.5 1489.0 1640.5 1486.0Q1549.5 1584.0 1445.5 1675.5Q1341.5 1767.0 1244.5 1832.0L1222.5 1817.0Q1239.5 1756.0 1260.5 1671.0Q1281.5 1586.0 1303.0 1492.5Q1324.5 1399.0 1343.5 1309.0ZM1117.5 279.0Q1022.5 430.0 867.5 574.5Q712.5 719.0 528.5 840.0H1113.5L1251.5 666.0Q1251.5 666.0 1293.5 699.0Q1335.5 732.0 1393.5 778.0Q1451.5 824.0 1498.5 865.0Q1489.5 898.0 1441.5 898.0H1140.5V1191.0H1445.5L1593.5 996.0Q1593.5 996.0 1621.0 1017.5Q1648.5 1039.0 1691.0 1072.5Q1733.5 1106.0 1779.5 1144.0Q1825.5 1182.0 1863.5 1215.0Q1854.5 1248.0 1803.5 1248.0H1140.5V1903.0H1502.5L1666.5 1690.0Q1666.5 1690.0 1697.0 1713.5Q1727.5 1737.0 1774.0 1773.5Q1820.5 1810.0 1871.5 1851.0Q1922.5 1892.0 1963.5 1928.0Q1954.5 1961.0 1902.5 1961.0H97.5L81.5 1903.0H831.5V1248.0H202.5L186.5 1191.0H831.5V898.0H532.5L517.5 847.0Q401.5 923.0 279.0 986.5Q156.5 1050.0 36.5 1094.0L24.5 1074.0Q155.5 983.0 284.5 860.5Q413.5 738.0 523.5 602.0Q633.5 466.0 711.0 332.5Q788.5 199.0 816.5 87.0L1261.5 204.0Q1255.5 227.0 1230.5 238.0Q1205.5 249.0 1148.5 255.0Q1219.5 349.0 1323.5 418.5Q1427.5 488.0 1548.5 537.0Q1669.5 586.0 1792.0 620.0Q1914.5 654.0 2023.5 677.0L2021.5 709.0Q1954.5 729.0 1904.5 778.0Q1854.5 827.0 1823.0 889.5Q1791.5 952.0 1781.5 1013.0Q1637.5 934.0 1507.0 830.0Q1376.5 726.0 1275.5 590.0Q1174.5 454.0 1117.5 279.0Z" fill="black"></path></svg>