<?xml version="1.0" standalone="no"?>
<!DOCTYPE svg PUBLIC "-//W3C//DTD SVG 1.1//EN" "http://www.w3.org/Graphics/SVG/1.1/DTD/svg11.dtd" >
<svg xmlns="http://www.w3.org/2000/svg" xmlns:svg="http://www.w3.org/2000/svg" xmlns:xlink="http://www.w3.org/1999/xlink" viewBox="0 0 2048 2048" style=""><path d="M274.0 259.0V134.0L597.0 259.0H1429.0L1564.0 110.0L1836.0 320.0Q1827.0 333.0 1808.0 345.0Q1789.0 357.0 1756.0 363.0V1160.0Q1755.0 1168.0 1713.0 1185.5Q1671.0 1203.0 1612.0 1217.5Q1553.0 1232.0 1500.0 1232.0H1449.0V1129.0H1171.0V1447.0H1394.0L1551.0 1246.0Q1551.0 1246.0 1580.5 1268.0Q1610.0 1290.0 1655.0 1324.5Q1700.0 1359.0 1750.0 1398.0Q1800.0 1437.0 1840.0 1471.0Q1836.0 1488.0 1819.0 1496.0Q1802.0 1504.0 1781.0 1504.0H1171.0V1881.0H1523.0L1691.0 1666.0Q1691.0 1666.0 1721.5 1689.5Q1752.0 1713.0 1800.0 1750.0Q1848.0 1787.0 1900.0 1828.5Q1952.0 1870.0 1994.0 1906.0Q1985.0 1938.0 1932.0 1938.0H71.0L54.0 1881.0H855.0V1504.0H247.0L231.0 1447.0H855.0V1129.0H579.0V1205.0Q579.0 1221.0 540.5 1244.5Q502.0 1268.0 442.5 1287.0Q383.0 1306.0 319.0 1306.0H274.0ZM1449.0 316.0H1171.0V660.0H1449.0ZM1449.0 718.0H1171.0V1072.0H1449.0ZM579.0 718.0V1072.0H855.0V718.0ZM579.0 660.0H855.0V316.0H579.0Z" fill="black"></path></svg>