<?xml version="1.0" standalone="no"?>
<!DOCTYPE svg PUBLIC "-//W3C//DTD SVG 1.1//EN" "http://www.w3.org/Graphics/SVG/1.1/DTD/svg11.dtd" >
<svg xmlns="http://www.w3.org/2000/svg" xmlns:svg="http://www.w3.org/2000/svg" xmlns:xlink="http://www.w3.org/1999/xlink" viewBox="0 0 2048 2048" style=""><path d="M1029.0 769.0H1359.0L1492.0 595.0Q1492.0 595.0 1533.0 627.5Q1574.0 660.0 1630.0 706.0Q1686.0 752.0 1730.0 793.0Q1721.0 826.0 1672.0 826.0H1046.0ZM697.0 1094.0 972.0 1176.0Q959.0 1219.0 894.0 1219.0Q848.0 1301.0 792.0 1383.5Q736.0 1466.0 679.0 1529.0L648.0 1514.0Q661.0 1434.0 674.5 1318.0Q688.0 1202.0 697.0 1094.0ZM142.0 1098.0Q259.0 1180.0 305.5 1263.0Q352.0 1346.0 349.0 1415.5Q346.0 1485.0 311.0 1526.5Q276.0 1568.0 226.0 1567.5Q176.0 1567.0 130.0 1510.0Q147.0 1410.0 141.0 1301.0Q135.0 1192.0 118.0 1105.0ZM894.0 1053.0H1588.0L1697.0 931.0L1941.0 1109.0Q1931.0 1119.0 1914.0 1130.0Q1897.0 1141.0 1869.0 1146.0V1514.0Q1869.0 1603.0 1849.5 1666.5Q1830.0 1730.0 1768.0 1767.0Q1706.0 1804.0 1578.0 1815.0Q1577.0 1751.0 1571.0 1701.0Q1565.0 1651.0 1551.0 1621.0Q1538.0 1590.0 1514.0 1569.5Q1490.0 1549.0 1441.0 1537.0V1510.0Q1441.0 1510.0 1468.5 1511.5Q1496.0 1513.0 1528.5 1514.5Q1561.0 1516.0 1576.0 1516.0Q1607.0 1516.0 1607.0 1483.0V1111.0H1404.0V1942.0Q1402.0 1951.0 1343.5 1975.5Q1285.0 2000.0 1179.0 2000.0H1127.0V1111.0H912.0ZM52.0 1692.0 372.0 1641.0V1025.0H97.0L81.0 967.0H372.0V720.0H239.0L233.0 697.0Q186.0 737.0 137.0 773.5Q88.0 810.0 36.0 840.0L17.0 826.0Q77.0 749.0 130.5 650.0Q184.0 551.0 227.0 444.0Q270.0 337.0 300.5 235.0Q331.0 133.0 345.0 52.0L689.0 165.0Q685.0 185.0 667.0 197.0Q649.0 209.0 609.0 212.0Q753.0 238.0 832.0 281.0Q911.0 324.0 940.0 373.0Q969.0 422.0 960.0 466.0Q951.0 510.0 916.5 539.0Q882.0 568.0 834.0 571.0Q786.0 574.0 738.0 539.0Q717.0 489.0 674.0 416.5Q631.0 344.0 572.0 273.0Q519.0 371.0 442.0 472.0Q365.0 573.0 269.0 662.0H552.0L671.0 490.0Q671.0 490.0 708.0 522.5Q745.0 555.0 794.5 601.0Q844.0 647.0 882.0 687.0Q876.0 720.0 826.0 720.0H620.0V955.0L734.0 779.0L798.0 838.0Q867.0 756.0 932.5 654.5Q998.0 553.0 1052.5 445.5Q1107.0 338.0 1144.5 235.0Q1182.0 132.0 1195.0 48.0L1576.0 132.0Q1570.0 152.0 1552.0 162.0Q1534.0 172.0 1488.0 177.0Q1540.0 276.0 1632.5 352.0Q1725.0 428.0 1831.0 481.0Q1937.0 534.0 2031.0 566.0V593.0Q1943.0 620.0 1891.0 698.0Q1839.0 776.0 1828.0 865.0Q1700.0 754.0 1602.5 576.5Q1505.0 399.0 1465.0 197.0Q1408.0 332.0 1306.5 456.0Q1205.0 580.0 1079.5 684.0Q954.0 788.0 826.0 865.0Q857.0 896.0 890.0 929.5Q923.0 963.0 949.0 992.0Q940.0 1025.0 894.0 1025.0H620.0V1598.0L992.0 1529.0L996.0 1551.0Q886.0 1622.0 711.0 1717.0Q536.0 1812.0 273.0 1938.0Q257.0 1982.0 218.0 1991.0Z" fill="black"></path></svg>