<?xml version="1.0" standalone="no"?>
<!DOCTYPE svg PUBLIC "-//W3C//DTD SVG 1.1//EN" "http://www.w3.org/Graphics/SVG/1.1/DTD/svg11.dtd" >
<svg xmlns="http://www.w3.org/2000/svg" xmlns:svg="http://www.w3.org/2000/svg" xmlns:xlink="http://www.w3.org/1999/xlink" viewBox="0 0 2048 2048" style=""><path d="M684.5 1077.0 965.5 1159.0Q951.5 1201.0 887.5 1204.0Q841.5 1284.0 785.5 1367.0Q729.5 1450.0 672.5 1513.0L641.5 1501.0Q652.5 1420.0 664.5 1303.0Q676.5 1186.0 684.5 1077.0ZM137.5 1091.0Q258.5 1171.0 307.5 1254.0Q356.5 1337.0 354.5 1406.5Q352.5 1476.0 317.0 1518.0Q281.5 1560.0 230.5 1560.5Q179.5 1561.0 131.5 1503.0Q147.5 1403.0 139.5 1294.5Q131.5 1186.0 113.5 1100.0ZM1225.5 620.0V930.0H1587.5V620.0ZM1225.5 563.0H1587.5V262.0H1225.5ZM1225.5 987.0V1622.0L1481.5 1575.0Q1435.5 1460.0 1405.0 1315.5Q1374.5 1171.0 1356.5 987.0ZM1387.5 987.0Q1413.5 1093.0 1451.5 1180.0Q1489.5 1267.0 1538.5 1339.0Q1581.5 1282.0 1626.5 1211.0Q1671.5 1140.0 1708.5 1069.0Q1691.5 1070.0 1673.0 1071.5Q1654.5 1073.0 1634.5 1073.0H1587.5V987.0ZM764.5 1696.0 969.5 1665.0V98.0L1254.5 205.0H1567.5L1680.5 57.0L1944.5 252.0Q1934.5 264.0 1915.5 274.0Q1896.5 284.0 1862.5 289.0V1003.0Q1862.5 1016.0 1828.5 1035.0Q1794.5 1054.0 1731.5 1065.0L1991.5 1259.0Q1977.5 1278.0 1956.0 1282.0Q1934.5 1286.0 1892.5 1274.0Q1808.5 1311.0 1730.0 1341.5Q1651.5 1372.0 1577.5 1392.0Q1669.5 1506.0 1785.0 1585.0Q1900.5 1664.0 2026.5 1722.0L2022.5 1745.0Q1840.5 1776.0 1768.5 1988.0Q1682.5 1909.0 1616.5 1820.0Q1550.5 1731.0 1501.5 1622.0Q1414.5 1685.0 1287.0 1766.0Q1159.5 1847.0 981.5 1950.0Q961.5 1993.0 924.5 2003.0ZM49.5 1681.0Q102.5 1674.0 184.5 1661.0Q266.5 1648.0 369.5 1630.0V1012.0H84.5L68.5 954.0H369.5V704.0H242.5L236.5 680.0Q144.5 760.0 39.5 821.0L21.5 807.0Q80.5 731.0 133.5 633.0Q186.5 535.0 230.5 429.5Q274.5 324.0 306.0 224.0Q337.5 124.0 352.5 45.0L701.5 160.0Q694.5 178.0 679.0 190.0Q663.5 202.0 629.5 205.0Q763.5 227.0 836.5 267.5Q909.5 308.0 934.5 355.0Q959.5 402.0 948.5 445.0Q937.5 488.0 902.0 515.5Q866.5 543.0 818.5 545.0Q770.5 547.0 723.5 512.0Q705.5 464.0 668.0 398.5Q630.5 333.0 580.5 268.0Q524.5 363.0 446.5 461.0Q368.5 559.0 273.5 647.0H555.5L676.5 477.0Q676.5 477.0 713.5 509.5Q750.5 542.0 801.0 587.5Q851.5 633.0 891.5 672.0Q882.5 704.0 836.5 704.0H621.5V936.0L731.5 768.0Q731.5 768.0 754.5 788.5Q777.5 809.0 812.5 841.5Q847.5 874.0 884.5 910.5Q921.5 947.0 950.5 979.0Q941.5 1012.0 895.5 1012.0H621.5V1585.0L936.5 1526.0L940.5 1548.0Q839.5 1617.0 677.5 1711.0Q515.5 1805.0 273.5 1929.0Q265.5 1951.0 250.0 1964.5Q234.5 1978.0 217.5 1984.0Z" fill="black"></path></svg>