<?xml version="1.0" standalone="no"?>
<!DOCTYPE svg PUBLIC "-//W3C//DTD SVG 1.1//EN" "http://www.w3.org/Graphics/SVG/1.1/DTD/svg11.dtd" >
<svg xmlns="http://www.w3.org/2000/svg" xmlns:svg="http://www.w3.org/2000/svg" xmlns:xlink="http://www.w3.org/1999/xlink" viewBox="0 0 2048 2048" style=""><path d="M655.5 1094.5 921.5 1174.5Q914.5 1193.5 895.5 1205.5Q876.5 1217.5 843.5 1217.5Q799.5 1296.5 746.0 1378.0Q692.5 1459.5 639.5 1522.5L606.5 1508.5Q618.5 1430.5 632.5 1315.5Q646.5 1200.5 655.5 1094.5ZM151.5 1098.5Q264.5 1180.5 310.5 1263.0Q356.5 1345.5 353.5 1414.0Q350.5 1482.5 316.0 1524.0Q281.5 1565.5 232.5 1565.5Q183.5 1565.5 139.5 1510.5Q156.5 1410.5 150.0 1301.5Q143.5 1192.5 125.5 1105.5ZM1267.5 64.5 1599.5 91.5Q1598.5 109.5 1585.0 123.0Q1571.5 136.5 1534.5 142.5V275.5H1622.5L1751.5 101.5Q1751.5 101.5 1792.0 134.5Q1832.5 167.5 1887.0 214.0Q1941.5 260.5 1984.5 300.5Q1975.5 332.5 1927.5 332.5H1636.5L1847.5 386.5Q1842.5 404.5 1824.0 416.5Q1805.5 428.5 1771.5 427.5Q1722.5 470.5 1654.0 526.5Q1585.5 582.5 1519.5 629.5H1652.5L1779.5 476.5Q1779.5 476.5 1820.0 505.5Q1860.5 534.5 1915.5 576.0Q1970.5 617.5 2015.5 654.5Q2006.5 687.5 1958.5 687.5H1767.5L1990.5 855.5Q1980.5 869.5 1963.5 880.0Q1946.5 890.5 1910.5 896.5V1406.5Q1910.5 1412.5 1870.0 1431.0Q1829.5 1449.5 1755.5 1457.5Q1770.5 1467.5 1807.0 1494.5Q1843.5 1521.5 1887.0 1555.0Q1930.5 1588.5 1966.5 1619.5Q1957.5 1651.5 1910.5 1651.5H1530.5V1893.5H1663.5L1792.5 1721.5Q1792.5 1721.5 1832.0 1754.0Q1871.5 1786.5 1925.5 1832.5Q1979.5 1878.5 2021.5 1918.5Q2015.5 1950.5 1966.5 1950.5H784.5L768.5 1893.5H1267.5V1651.5H917.5L901.5 1594.5H1267.5V1395.5H1175.5V1443.5Q1175.5 1455.5 1120.5 1478.0Q1065.5 1500.5 968.5 1500.5H923.5V718.5L1196.5 820.5H1640.5L1757.5 687.5H878.5L862.5 629.5H1474.5Q1485.5 565.5 1498.0 483.0Q1510.5 400.5 1519.5 332.5H1153.5Q1257.5 364.5 1306.5 406.5Q1355.5 448.5 1362.0 491.5Q1368.5 534.5 1345.0 569.0Q1321.5 603.5 1279.0 620.0Q1236.5 636.5 1186.5 626.5Q1136.5 616.5 1091.5 568.5Q1101.5 505.5 1093.0 443.0Q1084.5 380.5 1067.5 332.5H897.5L880.5 275.5H1267.5ZM1646.5 1395.5H1530.5V1594.5H1624.5L1738.5 1457.5L1693.5 1459.5H1646.5ZM1175.5 1338.5H1267.5V1137.5H1175.5ZM1646.5 1338.5V1137.5H1530.5V1338.5ZM1175.5 1080.5H1267.5V877.5H1175.5ZM1646.5 1080.5V877.5H1530.5V1080.5ZM57.5 1692.5Q106.5 1686.5 184.0 1673.5Q261.5 1660.5 358.5 1643.5V1025.5H110.5L94.5 967.5H358.5V720.5H243.5L233.5 687.5Q190.5 727.5 143.0 763.5Q95.5 799.5 45.5 830.5L26.5 816.5Q82.5 740.5 131.0 642.5Q179.5 544.5 219.5 439.5Q259.5 334.5 287.0 235.0Q314.5 135.5 327.5 56.5L671.5 165.5Q665.5 183.5 648.5 195.5Q631.5 207.5 596.5 210.5Q726.5 233.5 797.0 274.0Q867.5 314.5 891.5 360.0Q915.5 405.5 904.0 447.0Q892.5 488.5 857.5 515.0Q822.5 541.5 776.0 542.5Q729.5 543.5 684.5 509.5Q668.5 463.5 635.0 399.5Q601.5 335.5 555.5 273.5Q504.5 371.5 429.5 472.5Q354.5 573.5 260.5 662.5H547.5L661.5 498.5Q661.5 498.5 697.0 530.0Q732.5 561.5 780.0 605.5Q827.5 649.5 864.5 687.5Q855.5 720.5 809.5 720.5H596.5V967.5H606.5L719.5 795.5Q719.5 795.5 754.0 828.5Q788.5 861.5 835.0 907.5Q881.5 953.5 917.5 992.5Q908.5 1025.5 862.5 1025.5H596.5V1600.5L927.5 1537.5L932.5 1559.5Q832.5 1627.5 674.5 1721.0Q516.5 1814.5 278.5 1938.5Q262.5 1981.5 225.5 1991.5Z" fill="black"></path></svg>