<?xml version="1.0" standalone="no"?>
<!DOCTYPE svg PUBLIC "-//W3C//DTD SVG 1.1//EN" "http://www.w3.org/Graphics/SVG/1.1/DTD/svg11.dtd" >
<svg xmlns="http://www.w3.org/2000/svg" xmlns:svg="http://www.w3.org/2000/svg" xmlns:xlink="http://www.w3.org/1999/xlink" viewBox="0 0 2048 2048" style=""><path d="M455.0 226.0V105.0L787.0 226.0H1372.0L1520.0 46.0Q1520.0 46.0 1547.0 66.0Q1574.0 86.0 1616.5 117.0Q1659.0 148.0 1705.5 183.5Q1752.0 219.0 1790.0 251.0Q1781.0 284.0 1731.0 284.0H758.0V503.0H1311.0L1452.0 329.0Q1452.0 329.0 1478.5 348.0Q1505.0 367.0 1546.0 397.5Q1587.0 428.0 1632.0 462.5Q1677.0 497.0 1714.0 527.0Q1705.0 560.0 1655.0 560.0H758.0V783.0H1311.0L1452.0 609.0Q1452.0 609.0 1478.5 628.0Q1505.0 647.0 1546.0 677.5Q1587.0 708.0 1632.0 742.5Q1677.0 777.0 1714.0 808.0Q1705.0 841.0 1655.0 841.0H758.0V1068.0H1546.0L1702.0 882.0Q1702.0 882.0 1730.5 902.0Q1759.0 922.0 1803.5 954.0Q1848.0 986.0 1897.0 1022.5Q1946.0 1059.0 1987.0 1092.0Q1978.0 1125.0 1927.0 1125.0H1626.0L1888.0 1324.0Q1879.0 1338.0 1861.5 1344.0Q1844.0 1350.0 1809.0 1340.0Q1718.0 1377.0 1597.0 1414.5Q1476.0 1452.0 1350.0 1482.0Q1483.0 1566.0 1650.0 1610.5Q1817.0 1655.0 2001.0 1678.0V1701.0Q1824.0 1750.0 1774.0 1963.0Q1573.0 1896.0 1423.5 1798.5Q1274.0 1701.0 1173.5 1540.5Q1073.0 1380.0 1020.0 1125.0H758.0V1600.0L1129.0 1539.0L1133.0 1561.0Q1016.0 1634.0 831.5 1728.5Q647.0 1823.0 365.0 1949.0Q357.0 1969.0 341.5 1982.5Q326.0 1996.0 309.0 2002.0L133.0 1693.0Q187.0 1686.0 269.5 1674.5Q352.0 1663.0 455.0 1647.0V1125.0H64.0L47.0 1068.0H455.0ZM1057.0 1125.0Q1095.0 1224.0 1151.5 1300.0Q1208.0 1376.0 1280.0 1432.0Q1365.0 1360.0 1446.0 1275.5Q1527.0 1191.0 1579.0 1125.0Z" fill="black"></path></svg>