<?xml version="1.0" standalone="no"?>
<!DOCTYPE svg PUBLIC "-//W3C//DTD SVG 1.1//EN" "http://www.w3.org/Graphics/SVG/1.1/DTD/svg11.dtd" >
<svg xmlns="http://www.w3.org/2000/svg" xmlns:svg="http://www.w3.org/2000/svg" xmlns:xlink="http://www.w3.org/1999/xlink" viewBox="0 0 2048 2048" style=""><path d="M116.0 204.0V83.0L406.0 204.0H609.0L728.0 79.0L970.0 259.0Q960.0 270.0 942.5 281.0Q925.0 292.0 896.0 298.0V769.0Q894.0 777.0 872.0 789.5Q850.0 802.0 816.0 814.0L1078.0 875.0Q1074.0 892.0 1058.0 899.5Q1042.0 907.0 1000.0 904.0Q985.0 924.0 968.0 945.0Q951.0 966.0 933.0 986.0H1090.0L1219.0 869.0L1424.0 1045.0Q1414.0 1061.0 1395.5 1066.0Q1377.0 1071.0 1340.0 1074.0Q1303.0 1125.0 1258.5 1170.0Q1214.0 1215.0 1162.0 1256.0Q1254.0 1287.0 1355.0 1306.5Q1456.0 1326.0 1557.0 1336.0L1555.0 1359.0Q1441.0 1393.0 1412.0 1543.0L1377.0 1533.0Q1365.0 1549.0 1332.0 1557.0V1836.0Q1331.0 1845.0 1299.0 1862.5Q1267.0 1880.0 1223.0 1894.0Q1179.0 1908.0 1140.0 1908.0H1097.0V1830.0H865.0V1848.0Q865.0 1861.0 814.5 1889.5Q764.0 1918.0 677.0 1918.0H636.0V1512.0Q588.0 1526.0 538.0 1538.0Q488.0 1550.0 437.0 1560.0L425.0 1531.0Q558.0 1482.0 679.5 1411.0Q801.0 1340.0 898.0 1254.0Q869.0 1224.0 843.0 1189.0Q817.0 1154.0 793.0 1117.0Q720.0 1176.0 636.5 1225.0Q553.0 1274.0 464.0 1308.0L445.0 1289.0Q545.0 1211.0 630.5 1084.5Q716.0 958.0 761.0 830.0Q718.0 843.0 677.0 843.0H630.0V749.0H396.0V1881.0Q396.0 1899.0 364.0 1924.5Q332.0 1950.0 279.0 1969.0Q226.0 1988.0 163.0 1988.0H116.0ZM1097.0 1773.0V1541.0H865.0V1773.0ZM1082.0 1484.0 1136.0 1431.0Q1103.0 1414.0 1072.5 1395.0Q1042.0 1376.0 1015.0 1355.0Q919.0 1410.0 812.0 1453.0L892.0 1484.0ZM1080.0 1043.0H877.0L836.0 1080.0Q896.0 1134.0 976.0 1179.0Q1037.0 1114.0 1080.0 1043.0ZM630.0 261.0H396.0V443.0H630.0ZM396.0 501.0V691.0H630.0V501.0ZM1564.0 261.0H1322.0V443.0H1564.0ZM1052.0 204.0V95.0L1330.0 204.0H1543.0L1670.0 58.0L1932.0 263.0Q1921.0 275.0 1901.0 287.5Q1881.0 300.0 1850.0 306.0V1670.0Q1850.0 1766.0 1828.5 1833.0Q1807.0 1900.0 1736.5 1938.5Q1666.0 1977.0 1521.0 1990.0Q1517.0 1920.0 1509.0 1869.0Q1501.0 1818.0 1484.0 1787.0Q1464.0 1755.0 1434.5 1733.0Q1405.0 1711.0 1340.0 1697.0V1670.0Q1340.0 1670.0 1363.5 1671.5Q1387.0 1673.0 1420.0 1674.5Q1453.0 1676.0 1483.0 1677.0Q1513.0 1678.0 1527.0 1678.0Q1550.0 1678.0 1557.0 1668.0Q1564.0 1658.0 1564.0 1639.0V749.0H1322.0V753.0Q1322.0 765.0 1287.5 784.5Q1253.0 804.0 1200.0 819.5Q1147.0 835.0 1090.0 835.0H1052.0ZM1322.0 501.0V691.0H1564.0V501.0Z" fill="black"></path></svg>