<?xml version="1.0" standalone="no"?>
<!DOCTYPE svg PUBLIC "-//W3C//DTD SVG 1.1//EN" "http://www.w3.org/Graphics/SVG/1.1/DTD/svg11.dtd" >
<svg xmlns="http://www.w3.org/2000/svg" xmlns:svg="http://www.w3.org/2000/svg" xmlns:xlink="http://www.w3.org/1999/xlink" viewBox="0 0 2048 2048" style=""><path d="M1049.0 204.0V97.0L1328.0 204.0H1543.0L1670.0 58.0L1932.0 263.0Q1921.0 275.0 1901.0 287.5Q1881.0 300.0 1850.0 306.0V1670.0Q1850.0 1766.0 1828.5 1833.0Q1807.0 1900.0 1736.5 1938.5Q1666.0 1977.0 1521.0 1990.0Q1517.0 1920.0 1509.5 1869.0Q1502.0 1818.0 1484.0 1787.0Q1471.0 1793.0 1451.0 1793.0H472.0L456.0 1736.0H843.0V1539.0H546.0L529.0 1482.0H843.0V1295.0H501.0L484.0 1238.0H843.0V1072.0H556.0L540.0 1015.0H843.0V837.0L1166.0 863.0Q1165.0 880.0 1153.0 892.0Q1141.0 904.0 1109.0 910.0V1015.0H1148.0L1252.0 888.0Q1252.0 888.0 1285.5 912.0Q1319.0 936.0 1364.5 971.5Q1410.0 1007.0 1447.0 1039.0Q1438.0 1072.0 1392.0 1072.0H1109.0V1238.0H1189.0L1297.0 1105.0Q1297.0 1105.0 1331.0 1130.5Q1365.0 1156.0 1411.5 1193.0Q1458.0 1230.0 1496.0 1263.0Q1490.0 1295.0 1443.0 1295.0H867.0L1166.0 1320.0Q1165.0 1338.0 1153.0 1349.5Q1141.0 1361.0 1109.0 1367.0V1482.0H1148.0L1256.0 1349.0Q1256.0 1349.0 1290.0 1374.5Q1324.0 1400.0 1370.5 1437.0Q1417.0 1474.0 1455.0 1506.0Q1452.0 1523.0 1437.0 1531.0Q1422.0 1539.0 1402.0 1539.0H1109.0V1736.0H1189.0L1299.0 1598.0L1398.0 1672.0L1527.0 1678.0Q1550.0 1678.0 1557.0 1668.0Q1564.0 1658.0 1564.0 1641.0V716.0H1318.0V753.0Q1318.0 765.0 1283.5 784.5Q1249.0 804.0 1196.5 819.5Q1144.0 835.0 1088.0 835.0H1049.0ZM632.0 261.0H396.0V427.0H632.0ZM116.0 204.0V83.0L406.0 204.0H611.0L730.0 79.0L970.0 259.0Q962.0 270.0 944.0 281.0Q926.0 292.0 898.0 298.0V769.0Q897.0 778.0 860.5 796.0Q824.0 814.0 773.5 828.5Q723.0 843.0 679.0 843.0H632.0V716.0H396.0V1881.0Q396.0 1899.0 364.0 1924.5Q332.0 1950.0 279.0 1969.0Q226.0 1988.0 163.0 1988.0H116.0ZM396.0 484.0V658.0H632.0V484.0ZM1564.0 261.0H1318.0V427.0H1564.0ZM1318.0 484.0V658.0H1564.0V484.0Z" fill="black"></path></svg>