<?xml version="1.0" standalone="no"?>
<!DOCTYPE svg PUBLIC "-//W3C//DTD SVG 1.1//EN" "http://www.w3.org/Graphics/SVG/1.1/DTD/svg11.dtd" >
<svg xmlns="http://www.w3.org/2000/svg" xmlns:svg="http://www.w3.org/2000/svg" xmlns:xlink="http://www.w3.org/1999/xlink" viewBox="0 0 2048 2048" style=""><path d="M1140.0 1177.0 1246.0 1222.0V1162.0H1090.0V1431.0H1246.0V1306.0Q1220.0 1327.0 1185.0 1352.0Q1150.0 1377.0 1115.0 1402.0L1092.0 1390.0Q1106.0 1343.0 1119.5 1279.0Q1133.0 1215.0 1140.0 1177.0ZM1230.0 1105.0 1320.0 1015.0 1502.0 1150.0Q1488.0 1171.0 1445.0 1181.0V1474.0Q1444.0 1483.0 1416.5 1498.0Q1389.0 1513.0 1351.5 1525.0Q1314.0 1537.0 1281.0 1537.0H1246.0V1488.0H1152.0Q1216.0 1545.0 1309.0 1582.5Q1402.0 1620.0 1496.0 1637.0L1494.0 1658.0Q1474.0 1663.0 1455.0 1676.0L1529.0 1678.0Q1550.0 1678.0 1557.0 1669.0Q1564.0 1660.0 1564.0 1641.0V716.0H1318.0V736.0Q1318.0 747.0 1288.5 765.0Q1259.0 783.0 1212.0 798.0Q1165.0 813.0 1113.0 816.0L1146.0 820.0Q1144.0 837.0 1132.5 849.0Q1121.0 861.0 1090.0 865.0V941.0H1219.0L1330.0 808.0Q1330.0 808.0 1364.5 833.5Q1399.0 859.0 1446.0 895.5Q1493.0 932.0 1531.0 966.0Q1528.0 983.0 1512.5 990.5Q1497.0 998.0 1478.0 998.0H1090.0V1105.0ZM1049.0 204.0V97.0L1328.0 204.0H1543.0L1670.0 58.0L1932.0 263.0Q1921.0 275.0 1901.0 287.5Q1881.0 300.0 1850.0 306.0V1672.0Q1850.0 1768.0 1829.0 1834.5Q1808.0 1901.0 1740.5 1939.0Q1673.0 1977.0 1533.0 1990.0Q1531.0 1920.0 1524.5 1868.0Q1518.0 1816.0 1504.0 1787.0Q1492.0 1759.0 1473.0 1739.0Q1454.0 1719.0 1414.0 1707.0Q1350.0 1771.0 1326.0 1891.0Q1237.0 1827.0 1181.5 1728.5Q1126.0 1630.0 1090.0 1498.0V1889.0Q1090.0 1899.0 1061.0 1915.5Q1032.0 1932.0 989.0 1944.5Q946.0 1957.0 904.0 1957.0H859.0V1678.0Q776.0 1746.0 676.0 1800.0Q576.0 1854.0 464.0 1895.0L447.0 1867.0Q553.0 1793.0 635.0 1693.5Q717.0 1594.0 769.0 1488.0H710.0V1529.0Q710.0 1537.0 684.5 1551.0Q659.0 1565.0 620.5 1576.5Q582.0 1588.0 542.0 1588.0H515.0V1023.0L720.0 1105.0H859.0V998.0H466.0L449.0 941.0H859.0V794.0L1049.0 812.0ZM710.0 1431.0H859.0V1371.0Q839.0 1394.0 806.0 1396.0Q773.0 1398.0 742.0 1367.0Q745.0 1329.0 735.0 1286.5Q725.0 1244.0 710.0 1211.0ZM722.0 1177.0Q776.0 1195.0 809.0 1217.5Q842.0 1240.0 859.0 1263.0V1162.0H710.0V1183.0ZM632.0 261.0H396.0V427.0H632.0ZM116.0 204.0V83.0L406.0 204.0H611.0L730.0 79.0L970.0 259.0Q962.0 270.0 944.0 281.0Q926.0 292.0 898.0 298.0V753.0Q897.0 762.0 860.5 779.0Q824.0 796.0 773.5 810.0Q723.0 824.0 679.0 824.0H632.0V716.0H396.0V1881.0Q396.0 1899.0 364.0 1924.5Q332.0 1950.0 279.0 1969.0Q226.0 1988.0 163.0 1988.0H116.0ZM396.0 484.0V658.0H632.0V484.0ZM1564.0 261.0H1318.0V427.0H1564.0ZM1318.0 484.0V658.0H1564.0V484.0Z" fill="black"></path></svg>