<?xml version="1.0" standalone="no"?>
<!DOCTYPE svg PUBLIC "-//W3C//DTD SVG 1.1//EN" "http://www.w3.org/Graphics/SVG/1.1/DTD/svg11.dtd" >
<svg xmlns="http://www.w3.org/2000/svg" xmlns:svg="http://www.w3.org/2000/svg" xmlns:xlink="http://www.w3.org/1999/xlink" viewBox="0 0 2048 2048" style=""><path d="M629.0 271.5H409.0V509.5H629.0ZM119.0 214.5V89.5L418.0 214.5H608.0L729.0 85.5L973.0 269.5Q965.0 282.5 947.0 293.5Q929.0 304.5 901.0 308.5V927.5Q899.0 934.5 861.0 950.0Q823.0 965.5 771.5 978.0Q720.0 990.5 676.0 990.5H629.0V869.5H409.0V1873.5Q409.0 1891.5 376.0 1917.5Q343.0 1943.5 288.0 1963.0Q233.0 1982.5 168.0 1982.5H119.0ZM409.0 566.5V812.5H629.0V566.5ZM1550.0 271.5H1325.0V509.5H1550.0ZM1048.0 214.5V104.5L1333.0 214.5H1530.0L1663.0 65.5L1929.0 274.5Q1909.0 304.5 1849.0 319.5V1648.5Q1849.0 1744.5 1822.5 1812.5Q1796.0 1880.5 1711.0 1921.5Q1626.0 1962.5 1452.0 1977.5Q1444.0 1907.5 1429.0 1855.5Q1414.0 1803.5 1380.0 1773.5Q1343.0 1739.5 1292.5 1714.5Q1242.0 1689.5 1137.0 1670.5V1646.5Q1137.0 1646.5 1184.0 1649.0Q1231.0 1651.5 1296.5 1654.5Q1362.0 1657.5 1420.5 1660.0Q1479.0 1662.5 1501.0 1662.5Q1530.0 1662.5 1540.0 1650.5Q1550.0 1638.5 1550.0 1615.5V869.5H1325.0V900.5Q1325.0 913.5 1290.0 933.5Q1255.0 953.5 1200.5 970.0Q1146.0 986.5 1087.0 986.5H1048.0ZM1325.0 566.5V812.5H1550.0V566.5Z" fill="black"></path></svg>