<?xml version="1.0" standalone="no"?>
<!DOCTYPE svg PUBLIC "-//W3C//DTD SVG 1.1//EN" "http://www.w3.org/Graphics/SVG/1.1/DTD/svg11.dtd" >
<svg xmlns="http://www.w3.org/2000/svg" xmlns:svg="http://www.w3.org/2000/svg" xmlns:xlink="http://www.w3.org/1999/xlink" viewBox="0 0 2048 2048" style=""><path d="M1031.0 1030.5H900.0V1272.5L898.0 1327.5H1031.0ZM419.0 1327.5H660.0V1272.5V1030.5H484.0L468.0 973.5H1181.0L1299.0 817.5Q1299.0 817.5 1336.5 847.5Q1374.0 877.5 1424.0 919.5Q1474.0 961.5 1514.0 997.5Q1505.0 1030.5 1459.0 1030.5H1275.0V1286.5L1357.0 1172.5Q1357.0 1172.5 1390.5 1202.0Q1424.0 1231.5 1469.5 1273.5Q1515.0 1315.5 1551.0 1352.5Q1542.0 1385.5 1496.0 1385.5H1275.0V1819.5Q1273.0 1826.5 1220.5 1848.5Q1168.0 1870.5 1076.0 1870.5H1031.0V1385.5H894.0Q884.0 1476.5 846.0 1570.0Q808.0 1663.5 720.5 1747.5Q633.0 1831.5 474.0 1894.5L458.0 1876.5Q571.0 1769.5 611.0 1642.0Q651.0 1514.5 658.0 1385.5H435.0ZM626.0 264.5H394.0V455.5H626.0ZM114.0 207.5V86.5L404.0 207.5H605.0L724.0 80.5L966.0 262.5Q956.0 273.5 938.5 284.5Q921.0 295.5 892.0 301.5V789.5Q891.0 798.5 855.0 816.0Q819.0 833.5 768.5 848.0Q718.0 862.5 673.0 862.5H626.0V764.5H394.0V1876.5Q394.0 1894.5 362.0 1920.0Q330.0 1945.5 277.0 1964.5Q224.0 1983.5 161.0 1983.5H114.0ZM394.0 512.5V707.5H626.0V512.5ZM1566.0 264.5H1326.0V455.5H1566.0ZM1056.0 207.5V98.5L1334.0 207.5H1545.0L1672.0 62.5L1934.0 266.5Q1923.0 279.5 1903.0 291.5Q1883.0 303.5 1852.0 309.5V1665.5Q1852.0 1760.5 1830.5 1827.0Q1809.0 1893.5 1738.5 1932.5Q1668.0 1971.5 1523.0 1985.5Q1520.0 1914.5 1511.5 1863.0Q1503.0 1811.5 1486.0 1782.5Q1466.0 1750.5 1436.5 1727.5Q1407.0 1704.5 1342.0 1690.5V1665.5Q1342.0 1665.5 1365.5 1667.0Q1389.0 1668.5 1422.0 1670.0Q1455.0 1671.5 1485.0 1672.5Q1515.0 1673.5 1529.0 1673.5Q1552.0 1673.5 1559.0 1663.5Q1566.0 1653.5 1566.0 1634.5V764.5H1326.0Q1326.0 776.5 1291.5 796.0Q1257.0 815.5 1204.0 831.0Q1151.0 846.5 1095.0 846.5H1056.0ZM1326.0 512.5V707.5H1566.0V512.5Z" fill="black"></path></svg>