<?xml version="1.0" standalone="no"?>
<!DOCTYPE svg PUBLIC "-//W3C//DTD SVG 1.1//EN" "http://www.w3.org/Graphics/SVG/1.1/DTD/svg11.dtd" >
<svg xmlns="http://www.w3.org/2000/svg" xmlns:svg="http://www.w3.org/2000/svg" xmlns:xlink="http://www.w3.org/1999/xlink" viewBox="0 0 2048 2048" style=""><path d="M1030.0 210.0V101.0L1313.0 210.0H1536.0L1665.0 62.0L1929.0 269.0Q1918.0 282.0 1898.5 294.0Q1879.0 306.0 1847.0 312.0V1660.0Q1847.0 1756.0 1825.0 1823.5Q1803.0 1891.0 1731.5 1930.0Q1660.0 1969.0 1511.0 1981.0Q1508.0 1911.0 1500.5 1859.0Q1493.0 1807.0 1474.0 1777.0Q1458.0 1751.0 1435.5 1730.5Q1413.0 1710.0 1372.0 1695.0Q1346.0 1713.0 1281.0 1735.5Q1216.0 1758.0 1159.0 1758.0H1112.0V1635.0H833.0V1707.0Q833.0 1719.0 800.0 1738.5Q767.0 1758.0 715.0 1773.5Q663.0 1789.0 608.0 1789.0H571.0V919.0L842.0 1025.0H1091.0L1212.0 896.0L1456.0 1080.0Q1448.0 1093.0 1430.0 1104.0Q1412.0 1115.0 1384.0 1119.0V1662.0L1519.0 1668.0Q1543.0 1668.0 1549.5 1657.0Q1556.0 1646.0 1556.0 1629.0V771.0H1304.0V806.0Q1304.0 818.0 1269.0 838.5Q1234.0 859.0 1180.0 875.5Q1126.0 892.0 1069.0 892.0H1030.0ZM833.0 1578.0H1112.0V1355.0H833.0ZM833.0 1297.0H1112.0V1082.0H833.0ZM651.0 267.0H405.0V460.0H651.0ZM119.0 210.0V87.0L414.0 210.0H631.0L749.0 83.0L993.0 265.0Q984.0 276.0 966.5 288.0Q949.0 300.0 919.0 304.0V830.0Q918.0 838.0 881.0 852.5Q844.0 867.0 792.5 879.5Q741.0 892.0 698.0 892.0H651.0V771.0H405.0V1877.0Q405.0 1895.0 372.5 1921.0Q340.0 1947.0 285.5 1966.5Q231.0 1986.0 166.0 1986.0H119.0ZM405.0 517.0V714.0H651.0V517.0ZM1556.0 267.0H1304.0V460.0H1556.0ZM1304.0 517.0V714.0H1556.0V517.0Z" fill="black"></path></svg>