<?xml version="1.0" standalone="no"?>
<!DOCTYPE svg PUBLIC "-//W3C//DTD SVG 1.1//EN" "http://www.w3.org/Graphics/SVG/1.1/DTD/svg11.dtd" >
<svg xmlns="http://www.w3.org/2000/svg" xmlns:svg="http://www.w3.org/2000/svg" xmlns:xlink="http://www.w3.org/1999/xlink" viewBox="0 0 2048 2048" style=""><path d="M637.0 263.0H409.0V445.0H637.0ZM123.0 206.0V83.0L418.0 206.0H616.0L735.0 79.0L979.0 261.0Q971.0 272.0 952.5 283.5Q934.0 295.0 905.0 300.0V796.0Q904.0 805.0 867.5 822.5Q831.0 840.0 780.0 854.5Q729.0 869.0 684.0 869.0H637.0V751.0H409.0V1881.0Q409.0 1899.0 376.5 1925.0Q344.0 1951.0 289.5 1970.5Q235.0 1990.0 170.0 1990.0H123.0ZM409.0 503.0V693.0H637.0V503.0ZM1552.0 263.0H1315.0V445.0H1552.0ZM622.0 998.0V900.0L901.0 998.0H1087.0L1198.0 873.0L1438.0 1054.0Q1428.0 1066.0 1407.0 1079.0Q1386.0 1092.0 1354.0 1097.0V1609.0L1352.0 1666.0L1515.0 1672.0Q1538.0 1672.0 1545.0 1662.0Q1552.0 1652.0 1552.0 1633.0V751.0H1315.0V777.0Q1315.0 789.0 1280.0 809.5Q1245.0 830.0 1191.0 846.5Q1137.0 863.0 1079.0 863.0H1040.0V97.0L1323.0 206.0H1532.0L1661.0 58.0L1925.0 265.0Q1914.0 277.0 1894.5 289.5Q1875.0 302.0 1843.0 308.0V1664.0Q1843.0 1761.0 1821.0 1829.0Q1799.0 1897.0 1728.0 1936.0Q1657.0 1975.0 1509.0 1988.0Q1506.0 1917.0 1497.5 1864.0Q1489.0 1811.0 1470.0 1781.0Q1453.0 1751.0 1427.0 1729.5Q1401.0 1708.0 1347.0 1695.0Q1335.0 1775.0 1276.0 1821.0Q1217.0 1867.0 1061.0 1881.0Q1058.0 1824.0 1051.0 1782.5Q1044.0 1741.0 1024.0 1715.0Q1005.0 1689.0 975.5 1668.5Q946.0 1648.0 885.0 1637.0V1611.0Q885.0 1611.0 922.5 1613.5Q960.0 1616.0 1005.0 1618.5Q1050.0 1621.0 1073.0 1621.0Q1108.0 1621.0 1108.0 1584.0V1473.0H842.0Q814.0 1581.0 739.0 1686.5Q664.0 1792.0 506.0 1869.0L489.0 1850.0Q553.0 1763.0 581.0 1662.5Q609.0 1562.0 615.5 1458.5Q622.0 1355.0 622.0 1258.0ZM1315.0 503.0V693.0H1552.0V503.0ZM864.0 1056.0V1203.0H1108.0V1056.0ZM864.0 1260.0Q864.0 1296.0 862.0 1335.5Q860.0 1375.0 852.0 1416.0H1108.0V1260.0Z" fill="black"></path></svg>