<?xml version="1.0" standalone="no"?>
<!DOCTYPE svg PUBLIC "-//W3C//DTD SVG 1.1//EN" "http://www.w3.org/Graphics/SVG/1.1/DTD/svg11.dtd" >
<svg xmlns="http://www.w3.org/2000/svg" xmlns:svg="http://www.w3.org/2000/svg" xmlns:xlink="http://www.w3.org/1999/xlink" viewBox="0 0 2048 2048" style=""><path d="M1049.0 204.0V97.0L1328.0 204.0H1543.0L1670.0 58.0L1932.0 263.0Q1921.0 275.0 1901.0 287.5Q1881.0 300.0 1850.0 306.0V1670.0Q1850.0 1766.0 1828.5 1833.0Q1807.0 1900.0 1736.5 1938.5Q1666.0 1977.0 1521.0 1990.0Q1517.0 1920.0 1509.5 1869.0Q1502.0 1818.0 1484.0 1787.0L1467.0 1762.0Q1467.0 1817.0 1439.0 1851.5Q1411.0 1886.0 1369.5 1888.0Q1328.0 1890.0 1287.0 1848.0Q1289.0 1781.0 1274.5 1707.5Q1260.0 1634.0 1240.0 1568.0Q1202.0 1671.0 1117.5 1762.5Q1033.0 1854.0 865.0 1926.0L841.0 1897.0Q956.0 1816.0 1012.5 1720.5Q1069.0 1625.0 1088.0 1519.5Q1107.0 1414.0 1111.0 1301.0Q1094.0 1326.0 1076.5 1348.0Q1059.0 1370.0 1039.0 1390.0L1006.0 1375.0Q1041.0 1259.0 1060.0 1115.0L1049.0 1117.0H822.0V1416.0V1451.0H869.0V1166.0L1035.0 1185.0Q1032.0 1209.0 1000.0 1218.0V1549.0Q1000.0 1560.0 965.0 1577.0Q930.0 1594.0 896.0 1594.0H869.0V1508.0H818.0Q811.0 1591.0 780.0 1671.0Q749.0 1751.0 675.5 1820.5Q602.0 1890.0 466.0 1943.0L445.0 1920.0Q559.0 1835.0 597.5 1730.0Q636.0 1625.0 642.0 1508.0H597.0V1588.0Q597.0 1599.0 562.0 1615.0Q527.0 1631.0 494.0 1631.0H468.0V1166.0L632.0 1185.0Q628.0 1209.0 597.0 1218.0V1451.0H644.0V1416.0V1117.0H458.0L441.0 1060.0H613.0Q577.0 1057.0 544.0 1023.0Q550.0 971.0 537.5 916.5Q525.0 862.0 505.0 826.0L525.0 816.0Q628.0 841.0 675.0 879.0Q722.0 917.0 727.5 956.0Q733.0 995.0 710.0 1024.0Q687.0 1053.0 650.0 1060.0H759.0Q769.0 1005.0 779.0 935.5Q789.0 866.0 793.0 812.0L1035.0 882.0Q1029.0 900.0 1010.5 912.0Q992.0 924.0 959.0 921.0Q930.0 951.0 890.5 988.5Q851.0 1026.0 808.0 1060.0H877.0L955.0 968.0L1066.0 1056.0Q1078.0 942.0 1078.0 828.0L1338.0 875.0Q1334.0 895.0 1317.0 908.5Q1300.0 922.0 1267.0 925.0Q1257.0 960.0 1246.5 994.0Q1236.0 1028.0 1226.0 1060.0H1328.0L1420.0 966.0L1564.0 1103.0V716.0H1318.0V728.0Q1318.0 740.0 1283.5 759.5Q1249.0 779.0 1196.0 794.5Q1143.0 810.0 1086.0 810.0H1049.0ZM1262.0 1486.0Q1338.0 1532.0 1382.5 1581.0Q1427.0 1630.0 1447.0 1676.0L1527.0 1678.0Q1550.0 1678.0 1557.0 1668.0Q1564.0 1658.0 1564.0 1641.0V1140.0Q1554.0 1144.0 1541.0 1145.0Q1528.0 1146.0 1512.0 1148.0Q1480.0 1200.0 1432.5 1265.0Q1385.0 1330.0 1340.0 1373.0L1314.0 1359.0Q1318.0 1333.0 1323.5 1300.0Q1329.0 1267.0 1332.0 1232.0Q1319.0 1245.0 1291.0 1248.0Q1287.0 1308.0 1281.5 1367.5Q1276.0 1427.0 1262.0 1486.0ZM1205.0 1117.0 1176.0 1183.0 1338.0 1195.0 1346.0 1117.0ZM632.0 261.0H396.0V427.0H632.0ZM116.0 204.0V83.0L406.0 204.0H611.0L730.0 79.0L970.0 259.0Q962.0 270.0 944.0 281.0Q926.0 292.0 898.0 298.0V744.0Q897.0 754.0 860.5 771.0Q824.0 788.0 773.5 802.0Q723.0 816.0 679.0 816.0H632.0V716.0H396.0V1881.0Q396.0 1899.0 364.0 1924.5Q332.0 1950.0 279.0 1969.0Q226.0 1988.0 163.0 1988.0H116.0ZM396.0 484.0V658.0H632.0V484.0ZM1564.0 261.0H1318.0V427.0H1564.0ZM1318.0 484.0V658.0H1564.0V484.0Z" fill="black"></path></svg>