<?xml version="1.0" standalone="no"?>
<!DOCTYPE svg PUBLIC "-//W3C//DTD SVG 1.1//EN" "http://www.w3.org/Graphics/SVG/1.1/DTD/svg11.dtd" >
<svg xmlns="http://www.w3.org/2000/svg" xmlns:svg="http://www.w3.org/2000/svg" xmlns:xlink="http://www.w3.org/1999/xlink" viewBox="0 0 2048 2048" style=""><path d="M375.0 652.0H562.0L660.0 536.0Q660.0 536.0 690.5 558.5Q721.0 581.0 764.0 614.0Q807.0 647.0 842.0 677.0Q833.0 710.0 789.0 710.0H392.0ZM332.0 861.0H547.0L652.0 738.0Q652.0 738.0 684.5 762.0Q717.0 786.0 762.5 820.0Q808.0 854.0 844.0 886.0Q836.0 918.0 791.0 918.0H349.0ZM1172.0 861.0H1406.0L1516.0 732.0Q1516.0 732.0 1550.5 757.0Q1585.0 782.0 1632.5 817.5Q1680.0 853.0 1719.0 886.0Q1713.0 918.0 1666.0 918.0H1189.0ZM1174.0 652.0H1371.0L1473.0 531.0Q1473.0 531.0 1498.0 550.0Q1523.0 569.0 1560.0 597.5Q1597.0 626.0 1633.0 654.0L1649.0 482.0H1143.0V951.0Q1143.0 959.0 1080.5 983.0Q1018.0 1007.0 906.0 1007.0H853.0V482.0H369.0Q389.0 597.0 358.5 677.0Q328.0 757.0 271.0 789.0Q216.0 820.0 151.0 800.5Q86.0 781.0 64.0 714.0Q46.0 649.0 77.5 602.5Q109.0 556.0 165.0 531.0Q211.0 505.0 253.0 442.5Q295.0 380.0 287.0 308.0L312.0 306.0Q327.0 337.0 338.0 367.0Q349.0 397.0 357.0 425.0H853.0V267.0H271.0L255.0 210.0H1436.0L1569.0 54.0Q1569.0 54.0 1610.5 83.5Q1652.0 113.0 1709.0 155.0Q1766.0 197.0 1813.0 234.0Q1804.0 267.0 1756.0 267.0H1143.0V425.0H1631.0L1766.0 288.0L2002.0 511.0Q1980.0 535.0 1922.0 538.0Q1869.0 588.0 1789.5 648.0Q1710.0 708.0 1641.0 746.0L1623.0 736.0L1627.0 708.0L1608.0 710.0H1191.0ZM601.0 1373.0V1560.0H855.0V1373.0ZM601.0 1316.0H855.0V1131.0H601.0ZM1418.0 1373.0H1141.0V1560.0H1418.0ZM1418.0 1316.0V1131.0H1141.0V1316.0ZM314.0 1074.0V957.0L619.0 1074.0H1397.0L1526.0 935.0L1791.0 1134.0Q1781.0 1146.0 1761.0 1158.5Q1741.0 1171.0 1709.0 1179.0V1621.0Q1708.0 1630.0 1668.0 1648.0Q1628.0 1666.0 1572.5 1680.5Q1517.0 1695.0 1469.0 1695.0H1418.0V1617.0H1141.0V1684.0Q1141.0 1735.0 1152.5 1745.5Q1164.0 1756.0 1215.0 1756.0H1635.0Q1680.0 1756.0 1703.0 1752.5Q1726.0 1749.0 1741.0 1736.0Q1767.0 1713.0 1827.0 1549.0H1848.0L1850.0 1725.0Q1924.0 1758.0 1940.5 1773.0Q1957.0 1788.0 1957.0 1824.0Q1957.0 1875.0 1927.0 1913.0Q1897.0 1951.0 1823.0 1972.5Q1749.0 1994.0 1617.0 1994.0H1193.0Q1052.0 1994.0 979.5 1968.0Q907.0 1942.0 881.0 1872.0Q855.0 1802.0 855.0 1670.0V1617.0H601.0V1693.0Q601.0 1705.0 563.5 1726.0Q526.0 1747.0 469.5 1764.0Q413.0 1781.0 355.0 1781.0H314.0Z" fill="black"></path></svg>