<?xml version="1.0" standalone="no"?>
<!DOCTYPE svg PUBLIC "-//W3C//DTD SVG 1.1//EN" "http://www.w3.org/Graphics/SVG/1.1/DTD/svg11.dtd" >
<svg xmlns="http://www.w3.org/2000/svg" xmlns:svg="http://www.w3.org/2000/svg" xmlns:xlink="http://www.w3.org/1999/xlink" viewBox="0 0 2048 2048" style=""><path d="M379.0 720.5H556.0L660.0 597.5Q660.0 597.5 692.0 621.5Q724.0 645.5 769.0 679.5Q814.0 713.5 850.0 745.5Q842.0 778.5 797.0 778.5H396.0ZM306.0 978.5H531.0L644.0 835.5Q644.0 835.5 679.0 863.0Q714.0 890.5 761.5 929.5Q809.0 968.5 848.0 1003.5Q839.0 1036.5 793.0 1036.5H322.0ZM1192.0 978.5H1426.0L1543.0 837.5Q1543.0 837.5 1579.5 864.5Q1616.0 891.5 1666.5 930.0Q1717.0 968.5 1758.0 1003.5Q1749.0 1036.5 1702.0 1036.5H1209.0ZM273.0 1841.5H1389.0V1593.5H361.0L343.0 1535.5H1389.0V1302.5H326.0L308.0 1245.5H1369.0L1500.0 1101.5L1766.0 1304.5Q1757.0 1316.5 1737.5 1330.0Q1718.0 1343.5 1686.0 1349.5V1933.5Q1685.0 1942.5 1644.5 1961.5Q1604.0 1980.5 1547.0 1997.0Q1490.0 2013.5 1440.0 2013.5H1389.0V1898.5H291.0ZM1186.0 720.5H1362.0L1469.0 593.5Q1469.0 593.5 1493.0 611.0Q1517.0 628.5 1553.0 655.0Q1589.0 681.5 1625.0 710.5Q1629.0 659.5 1633.5 606.5Q1638.0 553.5 1641.0 507.5H1152.0V1093.5Q1152.0 1102.5 1089.0 1127.5Q1026.0 1152.5 914.0 1152.5H861.0V507.5H386.0Q406.0 629.5 370.0 711.0Q334.0 792.5 273.0 823.5Q213.0 855.5 150.5 835.0Q88.0 814.5 66.0 749.5Q49.0 684.5 81.0 639.0Q113.0 593.5 168.0 569.5Q221.0 540.5 262.5 468.5Q304.0 396.5 291.0 309.5L316.0 307.5Q354.0 380.5 373.0 450.5H861.0V257.5H277.0L261.0 200.5H1414.0L1555.0 34.5Q1555.0 34.5 1598.5 65.5Q1642.0 96.5 1702.0 141.0Q1762.0 185.5 1811.0 225.5Q1802.0 257.5 1754.0 257.5H1152.0V450.5H1620.0L1760.0 309.5L2001.0 538.5Q1980.0 562.5 1922.0 565.5Q1868.0 623.5 1785.0 693.0Q1702.0 762.5 1629.0 806.5L1612.0 794.5L1614.0 778.5H1612.0H1203.0Z" fill="black"></path></svg>