<?xml version="1.0" standalone="no"?>
<!DOCTYPE svg PUBLIC "-//W3C//DTD SVG 1.1//EN" "http://www.w3.org/Graphics/SVG/1.1/DTD/svg11.dtd" >
<svg xmlns="http://www.w3.org/2000/svg" xmlns:svg="http://www.w3.org/2000/svg" xmlns:xlink="http://www.w3.org/1999/xlink" viewBox="0 0 2048 2048" style=""><path d="M35.5 300.0H213.5V58.0L504.5 85.0Q503.5 102.0 492.0 116.0Q480.5 130.0 451.5 136.0V300.0H578.5V58.0L873.5 85.0Q871.5 100.0 859.5 115.0Q847.5 130.0 818.5 136.0V300.0H838.5L922.5 175.0Q922.5 175.0 949.5 199.0Q976.5 223.0 1013.5 258.0Q1050.5 293.0 1080.5 324.0Q1071.5 357.0 1027.5 357.0H818.5V484.0Q818.5 495.0 778.5 514.0Q738.5 533.0 623.5 533.0H578.5V357.0H451.5V490.0Q451.5 499.0 414.0 519.0Q376.5 539.0 263.5 539.0H213.5V357.0H50.5ZM97.5 605.0V513.0L330.5 605.0H699.5L797.5 505.0L996.5 654.0Q980.5 674.0 938.5 683.0V988.0Q938.5 997.0 901.0 1016.0Q863.5 1035.0 816.5 1045.0Q831.5 1057.0 865.0 1082.5Q898.5 1108.0 938.0 1139.5Q977.5 1171.0 1010.5 1199.0Q1001.5 1232.0 955.5 1232.0H633.5Q630.5 1278.0 624.0 1325.0Q617.5 1372.0 607.5 1418.0H705.5L822.5 1275.0Q822.5 1275.0 858.5 1302.5Q894.5 1330.0 944.5 1369.0Q994.5 1408.0 1035.5 1443.0Q1026.5 1475.0 979.5 1475.0H590.5L564.5 1541.0Q696.5 1550.0 775.0 1586.0Q853.5 1622.0 887.5 1671.0Q921.5 1720.0 919.0 1768.5Q916.5 1817.0 887.0 1852.5Q857.5 1888.0 809.0 1896.0Q760.5 1904.0 703.5 1871.0Q686.5 1797.0 640.5 1723.0Q594.5 1649.0 539.5 1592.0Q479.5 1703.0 363.0 1801.5Q246.5 1900.0 50.5 1975.0L33.5 1955.0Q178.5 1850.0 255.0 1728.5Q331.5 1607.0 363.5 1475.0H46.5L29.5 1418.0H375.5Q384.5 1372.0 390.0 1325.5Q395.5 1279.0 398.5 1232.0H103.5L86.5 1174.0H400.5V1109.0V996.0H320.5V1037.0Q320.5 1046.0 291.5 1062.5Q262.5 1079.0 218.5 1092.0Q174.5 1105.0 127.5 1105.0H97.5ZM637.5 1174.0H695.5L795.5 1049.0L754.5 1053.0H715.5V996.0H637.5V1107.0ZM400.5 939.0V662.0H320.5V939.0ZM637.5 939.0H715.5V662.0H637.5ZM1436.5 560.0H1319.5V922.0H1436.5ZM1528.5 79.0 1846.5 173.0Q1840.5 191.0 1822.0 202.0Q1803.5 213.0 1768.5 212.0Q1714.5 275.0 1634.0 355.0Q1553.5 435.0 1469.5 503.0H1635.5L1756.5 345.0Q1756.5 345.0 1794.0 374.5Q1831.5 404.0 1883.0 446.5Q1934.5 489.0 1975.5 527.0Q1966.5 560.0 1919.5 560.0H1680.5V896.0L1768.5 763.0Q1768.5 763.0 1801.5 793.5Q1834.5 824.0 1879.5 867.0Q1924.5 910.0 1958.5 947.0Q1949.5 980.0 1903.5 980.0H1680.5V1326.0L1768.5 1193.0Q1768.5 1193.0 1801.5 1223.5Q1834.5 1254.0 1879.5 1297.0Q1924.5 1340.0 1958.5 1377.0Q1949.5 1410.0 1903.5 1410.0H1680.5V1785.0L1790.5 1633.0Q1790.5 1633.0 1830.0 1666.0Q1869.5 1699.0 1923.0 1745.5Q1976.5 1792.0 2018.5 1832.0Q2009.5 1864.0 1960.5 1864.0H1319.5V1918.0Q1319.5 1930.0 1263.0 1962.0Q1206.5 1994.0 1106.5 1994.0H1057.5V761.0Q1037.5 781.0 1016.0 800.0Q994.5 819.0 971.5 836.0L947.5 820.0Q990.5 723.0 1028.5 597.0Q1066.5 471.0 1095.0 331.5Q1123.5 192.0 1137.5 54.0L1485.5 150.0Q1472.5 192.0 1403.5 195.0Q1376.5 272.0 1344.0 341.5Q1311.5 411.0 1274.5 476.0L1346.5 503.0H1420.5Q1452.5 407.0 1482.0 289.0Q1511.5 171.0 1528.5 79.0ZM1436.5 980.0H1319.5V1352.0H1436.5ZM1436.5 1410.0H1319.5V1807.0H1436.5Z" fill="black"></path></svg>