<?xml version="1.0" standalone="no"?>
<!DOCTYPE svg PUBLIC "-//W3C//DTD SVG 1.1//EN" "http://www.w3.org/Graphics/SVG/1.1/DTD/svg11.dtd" >
<svg xmlns="http://www.w3.org/2000/svg" xmlns:svg="http://www.w3.org/2000/svg" xmlns:xlink="http://www.w3.org/1999/xlink" viewBox="0 0 2048 2048" style=""><path d="M279.0 1158.5H1424.0L1555.0 998.5Q1555.0 998.5 1596.5 1028.5Q1638.0 1058.5 1695.0 1101.0Q1752.0 1143.5 1799.0 1182.5Q1790.0 1215.5 1741.0 1215.5H295.0ZM375.0 687.5H562.0L664.0 564.5Q664.0 564.5 696.5 588.0Q729.0 611.5 774.5 645.5Q820.0 679.5 856.0 711.5Q848.0 744.5 801.0 744.5H392.0ZM1180.0 922.5H1414.0L1528.0 789.5Q1528.0 789.5 1563.5 815.0Q1599.0 840.5 1648.0 877.0Q1697.0 913.5 1737.0 947.5Q1728.0 979.5 1682.0 979.5H1196.0ZM1239.0 1500.5Q1438.0 1515.5 1563.0 1565.5Q1688.0 1615.5 1751.5 1682.5Q1815.0 1749.5 1827.5 1816.0Q1840.0 1882.5 1813.0 1932.0Q1786.0 1981.5 1729.5 1998.0Q1673.0 2014.5 1600.0 1979.5Q1574.0 1924.5 1535.5 1867.0Q1497.0 1809.5 1452.0 1754.5Q1273.0 1798.5 1013.0 1849.5Q753.0 1900.5 379.0 1965.5Q359.0 2003.5 318.0 2010.5L177.0 1719.5L562.0 1717.5Q586.0 1657.5 608.5 1588.0Q631.0 1518.5 650.0 1457.5H97.0L80.0 1399.5H1569.0L1706.0 1231.5Q1706.0 1231.5 1749.0 1263.0Q1792.0 1294.5 1851.0 1339.5Q1910.0 1384.5 1958.0 1424.5Q1949.0 1457.5 1901.0 1457.5H1018.0Q861.0 1597.5 691.0 1717.5L1411.0 1704.5Q1365.0 1651.5 1317.0 1603.0Q1269.0 1554.5 1223.0 1514.5ZM1182.0 687.5H1368.0L1475.0 560.5Q1475.0 560.5 1501.0 579.5Q1527.0 598.5 1565.5 628.0Q1604.0 657.5 1641.0 687.5Q1645.0 642.5 1649.5 592.0Q1654.0 541.5 1655.0 496.5H1151.0V1014.5Q1151.0 1022.5 1088.5 1047.5Q1026.0 1072.5 914.0 1072.5H861.0V496.5H369.0Q384.0 607.5 350.5 683.0Q317.0 758.5 258.0 787.5Q202.0 816.5 137.0 796.0Q72.0 775.5 52.0 707.5Q36.0 643.5 69.0 597.0Q102.0 550.5 156.0 527.5Q205.0 504.5 251.5 447.5Q298.0 390.5 293.0 322.5H318.0Q332.0 353.5 342.5 382.5Q353.0 411.5 359.0 439.5H861.0V259.5H275.0L258.0 201.5H1422.0L1559.0 33.5Q1559.0 33.5 1602.0 65.0Q1645.0 96.5 1704.0 141.5Q1763.0 186.5 1811.0 226.5Q1802.0 259.5 1753.0 259.5H1151.0V439.5H1635.0L1772.0 299.5L2014.0 527.5Q2001.0 541.5 1983.5 546.0Q1966.0 550.5 1934.0 553.5Q1880.0 600.5 1801.0 655.5Q1722.0 710.5 1651.0 744.5L1645.0 740.5Q1633.0 744.5 1618.0 744.5H1198.0ZM314.0 922.5H557.0L664.0 795.5Q664.0 795.5 697.5 820.0Q731.0 844.5 777.0 880.0Q823.0 915.5 861.0 947.5Q855.0 979.5 807.0 979.5H330.0Z" fill="black"></path></svg>