<?xml version="1.0" standalone="no"?>
<!DOCTYPE svg PUBLIC "-//W3C//DTD SVG 1.1//EN" "http://www.w3.org/Graphics/SVG/1.1/DTD/svg11.dtd" >
<svg xmlns="http://www.w3.org/2000/svg" xmlns:svg="http://www.w3.org/2000/svg" xmlns:xlink="http://www.w3.org/1999/xlink" viewBox="0 0 2048 2048" style=""><path d="M352.0 257.0V1318.0H410.0Q437.0 1318.0 453.0 1308.0Q488.0 1286.0 488.0 1205.0Q488.0 1104.0 463.0 993.5Q438.0 883.0 377.0 790.0Q392.0 722.0 408.5 628.0Q425.0 534.0 439.0 435.5Q453.0 337.0 461.0 257.0ZM772.0 60.0 1094.0 87.0Q1092.0 105.0 1078.5 118.5Q1065.0 132.0 1028.0 138.0V374.0H1039.0L1145.0 208.0Q1145.0 208.0 1173.0 234.5Q1201.0 261.0 1240.5 300.0Q1280.0 339.0 1315.0 376.0V60.0L1639.0 87.0Q1636.0 107.0 1620.5 121.5Q1605.0 136.0 1573.0 140.0V388.0Q1618.0 330.0 1658.5 268.0Q1699.0 206.0 1718.0 169.0L1958.0 384.0Q1936.0 409.0 1882.0 388.0Q1836.0 407.0 1749.0 432.0Q1662.0 457.0 1573.0 474.0V652.0Q1573.0 671.0 1580.0 678.0Q1587.0 685.0 1610.0 685.0H1678.0Q1694.0 685.0 1711.0 685.0Q1728.0 685.0 1739.0 685.0Q1751.0 684.0 1763.0 681.0Q1775.0 678.0 1786.0 669.0Q1798.0 656.0 1818.5 619.0Q1839.0 582.0 1858.0 536.0H1878.0L1888.0 673.0Q1933.0 694.0 1947.5 717.5Q1962.0 741.0 1962.0 773.0Q1962.0 848.0 1888.5 882.5Q1815.0 917.0 1645.0 917.0H1526.0Q1434.0 917.0 1389.0 897.5Q1344.0 878.0 1329.5 832.5Q1315.0 787.0 1315.0 710.0V423.0Q1304.0 431.0 1280.0 431.0H1028.0V673.0L1295.0 642.0L1297.0 665.0Q1221.0 717.0 1100.0 788.5Q979.0 860.0 801.0 955.0Q785.0 998.0 744.0 1005.0L608.0 716.0L772.0 701.0V331.0L746.0 333.0Q708.0 394.0 655.5 475.5Q603.0 557.0 544.5 639.0Q486.0 721.0 428.0 783.0Q536.0 846.0 605.5 931.5Q675.0 1017.0 708.5 1109.5Q742.0 1202.0 742.0 1287.0Q743.0 1436.0 674.5 1526.5Q606.0 1617.0 426.0 1619.0Q426.0 1562.0 418.5 1494.0Q411.0 1426.0 398.0 1400.0Q382.0 1374.0 352.0 1357.0V1904.0Q352.0 1913.0 326.0 1933.0Q300.0 1953.0 251.5 1970.5Q203.0 1988.0 135.0 1988.0H86.0V91.0L381.0 200.0H441.0L578.0 67.0L772.0 245.0ZM1069.0 1512.0V1803.0H1526.0V1512.0ZM1069.0 1455.0H1526.0V1179.0H1069.0ZM1114.0 847.0 1489.0 945.0Q1475.0 994.0 1403.0 994.0L1227.0 1121.0H1518.0L1647.0 974.0L1888.0 1158.0Q1878.0 1172.0 1860.0 1182.5Q1842.0 1193.0 1807.0 1199.0V1910.0Q1807.0 1919.0 1746.0 1944.0Q1685.0 1969.0 1577.0 1969.0H1526.0V1861.0H1069.0V1920.0Q1069.0 1934.0 1011.5 1959.0Q954.0 1984.0 852.0 1984.0H803.0V1013.0L1092.0 1121.0H1100.0Q1105.0 1066.0 1109.0 987.0Q1113.0 908.0 1114.0 847.0Z" fill="black"></path></svg>