<?xml version="1.0" standalone="no"?>
<!DOCTYPE svg PUBLIC "-//W3C//DTD SVG 1.1//EN" "http://www.w3.org/Graphics/SVG/1.1/DTD/svg11.dtd" >
<svg xmlns="http://www.w3.org/2000/svg" xmlns:svg="http://www.w3.org/2000/svg" xmlns:xlink="http://www.w3.org/1999/xlink" viewBox="0 0 2048 2048" style=""><path d="M517.5 170.0 830.5 344.0Q822.5 358.0 806.0 366.5Q789.5 375.0 754.5 370.0Q643.5 473.0 472.0 569.0Q300.5 665.0 107.5 719.0L93.5 698.0Q183.5 628.0 266.0 535.5Q348.5 443.0 414.0 347.0Q479.5 251.0 517.5 170.0ZM1422.5 192.0Q1606.5 206.0 1720.0 253.5Q1833.5 301.0 1888.5 365.0Q1943.5 429.0 1950.5 492.5Q1957.5 556.0 1927.5 602.5Q1897.5 649.0 1841.5 662.0Q1785.5 675.0 1715.5 637.0Q1687.5 560.0 1637.5 480.5Q1587.5 401.0 1527.0 329.5Q1466.5 258.0 1405.5 205.0ZM416.5 1030.0V913.0L576.5 971.0Q761.5 875.0 920.5 760.0L848.5 766.0Q844.5 712.0 836.5 672.0Q828.5 632.0 805.5 606.0Q784.5 585.0 752.0 565.0Q719.5 545.0 643.5 532.0V508.0Q643.5 508.0 673.0 509.5Q702.5 511.0 743.5 513.5Q784.5 516.0 821.0 518.0Q857.5 520.0 871.5 520.0Q902.5 520.0 902.5 491.0V49.0L1260.5 78.0Q1254.5 120.0 1192.5 129.0V487.0L1190.5 534.0Q1287.5 441.0 1360.5 342.0L1633.5 547.0Q1622.5 560.0 1603.5 565.0Q1584.5 570.0 1549.5 559.0Q1426.5 679.0 1248.5 794.0L1498.5 850.0Q1484.5 893.0 1422.5 893.0Q1380.5 925.0 1324.0 960.5Q1267.5 996.0 1207.5 1030.0H1543.5L1674.5 866.0Q1674.5 866.0 1716.0 897.0Q1757.5 928.0 1814.5 972.0Q1871.5 1016.0 1917.5 1055.0Q1908.5 1087.0 1860.5 1087.0H1285.5V1288.0H1504.5L1631.5 1130.0Q1631.5 1130.0 1671.5 1160.0Q1711.5 1190.0 1766.0 1232.5Q1820.5 1275.0 1864.5 1313.0Q1855.5 1345.0 1807.5 1345.0H1285.5V1552.0H1504.5L1631.5 1394.0Q1631.5 1394.0 1671.5 1424.0Q1711.5 1454.0 1766.0 1496.5Q1820.5 1539.0 1864.5 1577.0Q1855.5 1610.0 1807.5 1610.0H1285.5V1820.0H1600.5L1739.5 1648.0Q1739.5 1648.0 1765.0 1667.0Q1790.5 1686.0 1830.5 1716.0Q1870.5 1746.0 1914.0 1780.0Q1957.5 1814.0 1993.5 1845.0Q1984.5 1878.0 1936.5 1878.0H707.5V1915.0Q707.5 1930.0 645.0 1964.5Q582.5 1999.0 469.5 1999.0H416.5V1147.0Q332.5 1170.0 244.0 1187.5Q155.5 1205.0 64.5 1218.0L54.5 1192.0Q241.5 1130.0 416.5 1050.0ZM779.5 1030.0H1104.5Q1110.5 993.0 1115.5 950.5Q1120.5 908.0 1125.5 868.0Q969.5 955.0 779.5 1030.0ZM1000.5 1087.0H707.5V1288.0H1000.5ZM1000.5 1820.0V1610.0H707.5V1820.0ZM1000.5 1345.0H707.5V1552.0H1000.5Z" fill="black"></path></svg>