<?xml version="1.0" standalone="no"?>
<!DOCTYPE svg PUBLIC "-//W3C//DTD SVG 1.1//EN" "http://www.w3.org/Graphics/SVG/1.1/DTD/svg11.dtd" >
<svg xmlns="http://www.w3.org/2000/svg" xmlns:svg="http://www.w3.org/2000/svg" xmlns:xlink="http://www.w3.org/1999/xlink" viewBox="0 0 2048 2048" style=""><path d="M480.0 758.0Q620.0 773.0 697.5 812.5Q775.0 852.0 802.5 902.0Q830.0 952.0 819.0 999.0Q808.0 1046.0 770.5 1076.5Q733.0 1107.0 680.5 1107.5Q628.0 1108.0 573.0 1064.0Q571.0 985.0 539.0 904.5Q507.0 824.0 464.0 769.0ZM478.0 1205.0Q620.0 1224.0 698.0 1267.0Q776.0 1310.0 803.5 1362.5Q831.0 1415.0 819.5 1462.5Q808.0 1510.0 770.0 1541.0Q732.0 1572.0 679.0 1572.0Q626.0 1572.0 571.0 1526.0Q566.0 1444.0 533.0 1359.5Q500.0 1275.0 462.0 1215.0ZM1185.0 761.0Q1324.0 772.0 1402.0 809.0Q1480.0 846.0 1509.0 894.5Q1538.0 943.0 1529.5 989.5Q1521.0 1036.0 1485.5 1067.0Q1450.0 1098.0 1398.5 1100.5Q1347.0 1103.0 1291.0 1062.0Q1284.0 983.0 1247.0 904.5Q1210.0 826.0 1169.0 771.0ZM1193.0 1207.0Q1332.0 1226.0 1407.5 1268.0Q1483.0 1310.0 1508.5 1360.5Q1534.0 1411.0 1520.5 1457.0Q1507.0 1503.0 1467.5 1531.5Q1428.0 1560.0 1374.5 1558.0Q1321.0 1556.0 1267.0 1510.0Q1267.0 1432.0 1239.5 1352.5Q1212.0 1273.0 1177.0 1217.0ZM159.0 578.0V457.0L468.0 578.0H855.0V292.0H67.0L50.0 234.0H1558.0L1713.0 48.0Q1713.0 48.0 1741.5 68.5Q1770.0 89.0 1814.5 121.0Q1859.0 153.0 1908.0 190.0Q1957.0 227.0 1998.0 259.0Q1993.0 276.0 1976.5 284.0Q1960.0 292.0 1939.0 292.0H1152.0V578.0H1545.0L1676.0 431.0L1947.0 640.0Q1936.0 652.0 1916.5 664.5Q1897.0 677.0 1865.0 683.0V1690.0Q1865.0 1782.0 1840.0 1846.5Q1815.0 1911.0 1736.0 1948.5Q1657.0 1986.0 1496.0 2000.0Q1492.0 1934.0 1481.5 1887.0Q1471.0 1840.0 1443.0 1809.0Q1417.0 1780.0 1378.0 1756.5Q1339.0 1733.0 1253.0 1719.0V1694.0Q1253.0 1694.0 1286.5 1696.0Q1320.0 1698.0 1367.5 1700.5Q1415.0 1703.0 1459.0 1705.0Q1503.0 1707.0 1523.0 1707.0Q1549.0 1707.0 1557.5 1696.5Q1566.0 1686.0 1566.0 1666.0V636.0H1152.0V1903.0Q1151.0 1917.0 1087.5 1950.0Q1024.0 1983.0 911.0 1983.0H855.0V636.0H446.0V1895.0Q446.0 1913.0 410.5 1937.0Q375.0 1961.0 319.5 1979.5Q264.0 1998.0 204.0 1998.0H159.0Z" fill="black"></path></svg>