<?xml version="1.0" standalone="no"?>
<!DOCTYPE svg PUBLIC "-//W3C//DTD SVG 1.1//EN" "http://www.w3.org/Graphics/SVG/1.1/DTD/svg11.dtd" >
<svg xmlns="http://www.w3.org/2000/svg" xmlns:svg="http://www.w3.org/2000/svg" xmlns:xlink="http://www.w3.org/1999/xlink" viewBox="0 0 2048 2048" style=""><path d="M442.0 402.0V570.0H538.0V402.0ZM469.0 345.0H569.0Q582.0 260.0 592.0 161.0Q575.0 201.0 512.0 195.0Q493.0 231.0 472.0 264.5Q451.0 298.0 430.0 330.0ZM297.0 50.0 592.0 158.0 600.0 70.0 932.0 140.0Q926.0 160.0 908.0 172.5Q890.0 185.0 856.0 185.0Q814.0 220.0 756.5 263.0Q699.0 306.0 641.0 345.0H741.0L848.0 218.0Q848.0 218.0 881.0 242.5Q914.0 267.0 960.0 302.5Q1006.0 338.0 1044.0 369.0Q1038.0 402.0 991.0 402.0H764.0V554.0L846.0 449.0Q846.0 449.0 888.0 483.5Q930.0 518.0 975.0 558.0Q1036.0 455.0 1088.0 323.0Q1140.0 191.0 1169.0 50.0L1468.0 154.0L1474.0 72.0L1814.0 142.0Q1810.0 161.0 1792.0 173.0Q1774.0 185.0 1741.0 185.0Q1699.0 220.0 1640.5 263.0Q1582.0 306.0 1524.0 345.0H1665.0L1773.0 216.0Q1773.0 216.0 1807.0 240.5Q1841.0 265.0 1888.0 301.0Q1935.0 337.0 1974.0 369.0Q1965.0 402.0 1919.0 402.0H1665.0V564.0L1761.0 443.0Q1761.0 443.0 1792.0 467.5Q1823.0 492.0 1865.5 527.5Q1908.0 563.0 1941.0 595.0Q1935.0 627.0 1888.0 627.0H1665.0V793.0L1761.0 673.0Q1761.0 673.0 1792.0 697.5Q1823.0 722.0 1865.5 757.0Q1908.0 792.0 1941.0 824.0Q1935.0 857.0 1888.0 857.0H1665.0V1033.0H1679.0L1794.0 885.0Q1794.0 885.0 1830.0 913.5Q1866.0 942.0 1915.0 982.0Q1964.0 1022.0 2003.0 1058.0Q1994.0 1090.0 1948.0 1090.0H1323.0V1125.0Q1323.0 1139.0 1269.0 1169.0Q1215.0 1199.0 1118.0 1199.0H1073.0V574.0Q1009.0 622.0 948.0 654.0L924.0 636.0L930.0 627.0H764.0V783.0L846.0 679.0Q846.0 679.0 875.0 702.5Q904.0 726.0 944.5 759.5Q985.0 793.0 1018.0 824.0Q1009.0 857.0 964.0 857.0H764.0V1031.0L870.0 892.0Q870.0 892.0 905.0 919.0Q940.0 946.0 987.5 984.5Q1035.0 1023.0 1073.0 1058.0Q1064.0 1090.0 1018.0 1090.0H442.0V1133.0Q442.0 1147.0 388.5 1177.0Q335.0 1207.0 242.0 1207.0H196.0V580.0Q129.0 635.0 65.0 673.0L41.0 654.0Q118.0 545.0 187.5 383.5Q257.0 222.0 297.0 50.0ZM442.0 627.0V799.0H538.0V627.0ZM442.0 857.0V1033.0H538.0V857.0ZM1323.0 402.0V570.0H1436.0V402.0ZM1349.0 345.0H1448.0Q1454.0 303.0 1459.5 253.5Q1465.0 204.0 1468.0 156.0Q1461.0 173.0 1441.5 184.0Q1422.0 195.0 1388.0 193.0Q1370.0 229.0 1349.0 262.5Q1328.0 296.0 1306.0 328.0ZM1323.0 627.0V799.0H1436.0V627.0ZM1323.0 857.0V1033.0H1436.0V857.0ZM1319.0 1320.0H569.0Q655.0 1406.0 775.0 1468.5Q895.0 1531.0 1038.0 1574.0Q1206.0 1461.0 1319.0 1320.0ZM143.0 1262.0H1329.0L1503.0 1117.0L1745.0 1352.0Q1728.0 1380.0 1651.0 1385.0Q1584.0 1459.0 1506.5 1522.5Q1429.0 1586.0 1341.0 1641.0Q1503.0 1667.0 1672.0 1677.5Q1841.0 1688.0 2007.0 1688.0V1715.0Q1913.0 1744.0 1860.5 1817.0Q1808.0 1890.0 1788.0 1998.0Q1576.0 1970.0 1385.5 1922.5Q1195.0 1875.0 1034.0 1797.0Q825.0 1881.0 582.5 1929.5Q340.0 1978.0 76.0 1993.0L65.0 1969.0Q277.0 1921.0 477.5 1850.5Q678.0 1780.0 850.0 1688.0Q748.0 1618.0 664.5 1526.5Q581.0 1435.0 518.0 1320.0H162.0Z" fill="black"></path></svg>