<?xml version="1.0" standalone="no"?>
<!DOCTYPE svg PUBLIC "-//W3C//DTD SVG 1.1//EN" "http://www.w3.org/Graphics/SVG/1.1/DTD/svg11.dtd" >
<svg xmlns="http://www.w3.org/2000/svg" xmlns:svg="http://www.w3.org/2000/svg" xmlns:xlink="http://www.w3.org/1999/xlink" viewBox="0 0 2048 2048" style=""><path d="M1077.0 519.5V726.5H1483.0V519.5ZM1077.0 462.5H1483.0V251.5H1077.0ZM688.0 961.5H1602.0L1694.0 834.5Q1666.0 844.5 1625.0 852.0Q1584.0 859.5 1532.0 859.5H1483.0V783.5H1077.0V841.5Q1077.0 854.5 1021.0 877.5Q965.0 900.5 867.0 900.5H819.0V320.5Q800.0 337.5 748.0 337.5Q711.0 398.5 659.5 479.0Q608.0 559.5 550.5 640.5Q493.0 721.5 438.0 783.5Q536.0 845.5 600.0 929.0Q664.0 1012.5 695.5 1104.0Q727.0 1195.5 727.0 1279.5Q727.0 1329.5 721.0 1375.5Q793.0 1298.5 847.0 1207.5Q901.0 1116.5 936.0 1019.5H705.0ZM78.0 204.5V95.5L373.0 204.5H451.0L584.0 75.5L819.0 292.5V89.5L1098.0 193.5H1475.0L1600.0 54.5L1833.0 228.5Q1822.0 242.5 1805.5 253.0Q1789.0 263.5 1753.0 269.5V800.5Q1775.0 817.5 1813.0 849.5Q1851.0 881.5 1893.0 918.0Q1935.0 954.5 1968.0 986.5Q1959.0 1019.5 1911.0 1019.5H1223.0Q1201.0 1062.5 1174.0 1101.5Q1147.0 1140.5 1116.0 1177.5H1606.0L1741.0 1050.5L1970.0 1242.5Q1945.0 1270.5 1884.0 1279.5Q1857.0 1569.5 1806.0 1718.0Q1755.0 1866.5 1667.0 1924.5Q1566.0 1993.5 1411.0 1990.5Q1413.0 1934.5 1407.0 1890.5Q1401.0 1846.5 1383.0 1820.5Q1364.0 1792.5 1334.0 1772.5Q1304.0 1752.5 1252.0 1740.5V1729.5Q1056.0 1888.5 758.0 1990.5L742.0 1961.5Q974.0 1835.5 1122.0 1649.5Q1270.0 1463.5 1344.0 1234.5H1333.0Q1223.0 1424.5 1032.5 1570.0Q842.0 1715.5 596.0 1811.5L578.0 1783.5Q744.0 1678.5 873.0 1534.0Q1002.0 1389.5 1082.0 1234.5H1061.0Q987.0 1306.5 893.0 1366.5Q799.0 1426.5 690.0 1473.5Q660.0 1535.5 596.5 1570.5Q533.0 1605.5 428.0 1607.5Q428.0 1551.5 421.5 1485.0Q415.0 1418.5 402.0 1394.5Q387.0 1361.5 344.0 1342.5V1908.5Q344.0 1917.5 318.0 1937.5Q292.0 1957.5 243.5 1975.0Q195.0 1992.5 127.0 1992.5H78.0ZM1616.0 1234.5Q1561.0 1377.5 1475.5 1498.5Q1390.0 1619.5 1270.0 1717.5Q1308.0 1719.5 1356.0 1721.5Q1404.0 1723.5 1430.0 1723.5Q1471.0 1723.5 1495.0 1707.5Q1534.0 1678.5 1568.0 1561.0Q1602.0 1443.5 1622.0 1234.5ZM344.0 1312.5H404.0Q429.0 1312.5 445.0 1301.5Q477.0 1278.5 477.0 1199.5Q477.0 1099.5 457.5 991.0Q438.0 882.5 387.0 789.5Q402.0 723.5 417.5 629.5Q433.0 535.5 447.0 438.0Q461.0 340.5 469.0 261.5H344.0Z" fill="black"></path></svg>