<?xml version="1.0" standalone="no"?>
<!DOCTYPE svg PUBLIC "-//W3C//DTD SVG 1.1//EN" "http://www.w3.org/Graphics/SVG/1.1/DTD/svg11.dtd" >
<svg xmlns="http://www.w3.org/2000/svg" xmlns:svg="http://www.w3.org/2000/svg" xmlns:xlink="http://www.w3.org/1999/xlink" viewBox="0 0 2048 2048" style=""><path d="M202.0 628.5V512.5L519.0 628.5H781.0L798.0 325.5H71.0L54.0 268.5H1533.0L1697.0 65.5Q1697.0 65.5 1727.0 87.5Q1757.0 109.5 1803.5 144.5Q1850.0 179.5 1901.0 219.0Q1952.0 258.5 1994.0 293.5Q1989.0 309.5 1972.5 317.5Q1956.0 325.5 1934.0 325.5H1199.0Q1124.0 404.5 1034.5 486.0Q945.0 567.5 865.0 628.5H1519.0L1666.0 461.5L1926.0 665.5Q1914.0 681.5 1894.5 694.0Q1875.0 706.5 1838.0 712.5V1888.5Q1838.0 1900.5 1769.5 1932.5Q1701.0 1964.5 1584.0 1964.5H1531.0V1816.5H495.0V1908.5Q495.0 1924.5 431.0 1953.5Q367.0 1982.5 255.0 1982.5H202.0ZM495.0 1759.5H650.0V686.5H495.0ZM1531.0 1759.5V686.5H1371.0V1759.5ZM923.0 686.5V999.5H1097.0V686.5ZM923.0 1056.5V1380.5H1097.0V1056.5ZM923.0 1437.5V1759.5H1097.0V1437.5Z" fill="black"></path></svg>