<?xml version="1.0" standalone="no"?>
<!DOCTYPE svg PUBLIC "-//W3C//DTD SVG 1.1//EN" "http://www.w3.org/Graphics/SVG/1.1/DTD/svg11.dtd" >
<svg xmlns="http://www.w3.org/2000/svg" xmlns:svg="http://www.w3.org/2000/svg" xmlns:xlink="http://www.w3.org/1999/xlink" viewBox="0 0 2048 2048" style=""><path d="M352.0 568.5H557.0L653.0 455.5Q653.0 455.5 682.5 477.5Q712.0 499.5 753.0 531.5Q794.0 563.5 827.0 592.5Q822.0 625.5 776.0 625.5H369.0ZM311.0 746.5H555.0L653.0 631.5Q653.0 631.5 684.0 654.0Q715.0 676.5 757.0 709.0Q799.0 741.5 834.0 770.5Q825.0 803.5 780.0 803.5H328.0ZM1170.0 824.5 1499.0 893.5Q1495.0 910.5 1480.0 918.5Q1465.0 926.5 1423.0 924.5Q1393.0 958.5 1356.0 992.5H1616.0L1737.0 844.5Q1737.0 844.5 1774.0 872.0Q1811.0 899.5 1862.0 939.0Q1913.0 978.5 1956.0 1016.5Q1947.0 1049.5 1901.0 1049.5H1788.0Q1733.0 1158.5 1636.0 1239.5Q1724.0 1255.5 1817.5 1263.5Q1911.0 1271.5 2005.0 1272.5V1297.5Q1874.0 1343.5 1845.0 1520.5Q1778.0 1505.5 1716.0 1483.5L1894.0 1626.5Q1873.0 1651.5 1819.0 1659.5Q1810.0 1793.5 1786.0 1865.5Q1762.0 1937.5 1702.0 1971.5Q1630.0 2014.5 1481.0 2014.5Q1481.0 1967.5 1474.5 1932.5Q1468.0 1897.5 1448.0 1872.5Q1427.0 1849.5 1390.5 1833.5Q1354.0 1817.5 1305.0 1807.5V1788.5Q1229.0 1860.5 1104.5 1917.0Q980.0 1973.5 787.0 2012.5L776.0 1985.5Q954.0 1917.5 1042.5 1824.0Q1131.0 1730.5 1161.0 1622.5H963.0L944.0 1565.5H1174.0Q1178.0 1537.5 1181.0 1510.0Q1184.0 1482.5 1184.0 1452.5Q1119.0 1469.5 1051.5 1482.0Q984.0 1494.5 911.0 1504.5L905.0 1483.5Q825.0 1551.5 748.0 1596.5L727.0 1583.5Q741.0 1536.5 753.0 1471.0Q765.0 1405.5 772.0 1348.5H701.0V1747.5Q701.0 1825.5 682.0 1881.5Q663.0 1937.5 603.0 1970.0Q543.0 2002.5 420.0 2012.5Q418.0 1961.5 412.5 1923.5Q407.0 1885.5 391.0 1860.5Q377.0 1838.5 351.0 1821.0Q325.0 1803.5 268.0 1792.5V1768.5Q268.0 1768.5 300.0 1770.0Q332.0 1771.5 369.0 1773.0Q406.0 1774.5 422.0 1774.5Q442.0 1774.5 448.5 1766.0Q455.0 1757.5 455.0 1743.5V1592.5Q291.0 1752.5 51.0 1858.5L33.0 1831.5Q145.0 1736.5 226.0 1610.0Q307.0 1483.5 356.0 1348.5H94.0L76.0 1291.5H502.0Q462.0 1237.5 403.0 1183.0Q344.0 1128.5 293.0 1094.5L309.0 1078.5Q411.0 1064.5 481.5 1073.0Q552.0 1081.5 596.0 1102.5Q614.0 1079.5 632.0 1054.0Q650.0 1028.5 664.0 1004.5H148.0L129.0 947.5H674.0L791.0 830.5L868.0 904.5L993.0 1022.5Q981.0 1035.5 962.5 1040.0Q944.0 1044.5 911.0 1047.5Q864.0 1075.5 796.5 1104.0Q729.0 1132.5 662.0 1155.5Q688.0 1189.5 686.5 1226.5Q685.0 1263.5 664.0 1291.5H758.0L875.0 1172.5L1081.0 1368.5Q1060.0 1390.5 1002.0 1393.5Q963.0 1432.5 914.0 1475.5Q1043.0 1435.5 1147.5 1384.5Q1252.0 1333.5 1329.0 1268.5Q1262.0 1201.5 1208.0 1106.5Q1091.0 1184.5 954.0 1231.5L938.0 1215.5Q1010.0 1146.5 1074.5 1037.0Q1139.0 927.5 1170.0 824.5ZM1579.0 1622.5H1417.0Q1400.0 1665.5 1375.0 1705.5Q1350.0 1745.5 1313.0 1780.5L1493.0 1790.5Q1515.0 1790.5 1526.0 1787.5Q1537.0 1784.5 1544.0 1778.5Q1567.0 1761.5 1579.0 1622.5ZM1563.0 1565.5 1669.0 1469.5Q1608.0 1446.5 1551.5 1420.0Q1495.0 1393.5 1446.0 1360.5Q1381.0 1391.5 1311.0 1416.5L1528.0 1436.5Q1523.0 1459.5 1506.0 1474.0Q1489.0 1488.5 1452.0 1491.5Q1449.0 1510.5 1445.5 1529.0Q1442.0 1547.5 1436.0 1565.5ZM1288.0 1049.5 1245.0 1080.5Q1314.0 1139.5 1417.0 1180.5Q1465.0 1120.5 1493.0 1049.5ZM1192.0 568.5H1426.0L1522.0 455.5Q1522.0 455.5 1545.5 473.0Q1569.0 490.5 1604.5 517.5Q1640.0 544.5 1673.0 572.5L1684.0 439.5H1155.0V852.5Q1154.0 860.5 1093.0 883.5Q1032.0 906.5 922.0 906.5L868.0 904.5V439.5H350.0Q369.0 545.5 333.0 616.0Q297.0 686.5 236.0 709.5Q179.0 727.5 123.0 703.5Q67.0 679.5 53.0 615.5Q41.0 552.5 76.0 511.0Q111.0 469.5 166.0 451.5Q209.0 434.5 246.0 392.5Q283.0 350.5 277.0 297.5L303.0 295.5Q314.0 318.5 322.0 340.0Q330.0 361.5 336.0 381.5H868.0V248.5H256.0L240.0 191.5H1450.0L1585.0 33.5Q1585.0 33.5 1627.0 63.5Q1669.0 93.5 1727.0 136.0Q1785.0 178.5 1833.0 215.5Q1824.0 248.5 1776.0 248.5H1155.0V381.5H1663.0L1790.0 252.5L2015.0 463.5Q2003.0 477.5 1985.5 482.5Q1968.0 487.5 1938.0 490.5Q1888.0 531.5 1816.0 580.5Q1744.0 629.5 1682.0 660.5L1663.0 648.5L1667.0 621.5L1645.0 625.5H1208.0ZM1186.0 746.5H1458.0L1561.0 625.5Q1561.0 625.5 1592.5 649.0Q1624.0 672.5 1668.0 706.5Q1712.0 740.5 1749.0 770.5Q1740.0 803.5 1694.0 803.5H1202.0Z" fill="black"></path></svg>