<?xml version="1.0" standalone="no"?>
<!DOCTYPE svg PUBLIC "-//W3C//DTD SVG 1.1//EN" "http://www.w3.org/Graphics/SVG/1.1/DTD/svg11.dtd" >
<svg xmlns="http://www.w3.org/2000/svg" xmlns:svg="http://www.w3.org/2000/svg" xmlns:xlink="http://www.w3.org/1999/xlink" viewBox="0 0 2048 2048" style=""><path d="M745.0 1284.0V1472.0H1324.0V1284.0ZM745.0 1226.0H1324.0V1044.0H745.0ZM454.0 987.0V868.0L761.0 987.0H1304.0L1433.0 843.0L1701.0 1048.0Q1692.0 1061.0 1672.5 1073.0Q1653.0 1085.0 1621.0 1091.0V1706.0Q1621.0 1791.0 1595.5 1851.5Q1570.0 1912.0 1490.5 1948.0Q1411.0 1984.0 1250.0 1997.0Q1246.0 1934.0 1234.5 1889.5Q1223.0 1845.0 1195.0 1816.0Q1167.0 1789.0 1127.5 1767.5Q1088.0 1746.0 998.0 1730.0V1706.0Q998.0 1706.0 1034.0 1708.0Q1070.0 1710.0 1120.0 1713.0Q1170.0 1716.0 1216.0 1718.0Q1262.0 1720.0 1283.0 1720.0Q1324.0 1720.0 1324.0 1679.0V1530.0H745.0V1904.0Q745.0 1919.0 708.5 1941.0Q672.0 1963.0 615.0 1981.0Q558.0 1999.0 497.0 1999.0H454.0ZM273.0 504.0H865.0V315.0H206.0L190.0 258.0H865.0V49.0L1236.0 78.0Q1233.0 99.0 1219.0 114.0Q1205.0 129.0 1162.0 137.0V258.0H1496.0L1637.0 80.0Q1637.0 80.0 1663.0 99.5Q1689.0 119.0 1728.5 150.0Q1768.0 181.0 1811.5 216.5Q1855.0 252.0 1891.0 282.0Q1882.0 315.0 1832.0 315.0H1162.0V504.0H1455.0L1590.0 336.0Q1590.0 336.0 1632.0 367.5Q1674.0 399.0 1731.0 443.5Q1788.0 488.0 1834.0 528.0Q1825.0 561.0 1777.0 561.0H1162.0V762.0H1588.0L1730.0 581.0Q1730.0 581.0 1755.5 601.0Q1781.0 621.0 1821.5 652.5Q1862.0 684.0 1906.5 719.5Q1951.0 755.0 1988.0 786.0Q1979.0 819.0 1928.0 819.0H77.0L60.0 762.0H865.0V561.0H290.0Z" fill="black"></path></svg>