<?xml version="1.0" standalone="no"?>
<!DOCTYPE svg PUBLIC "-//W3C//DTD SVG 1.1//EN" "http://www.w3.org/Graphics/SVG/1.1/DTD/svg11.dtd" >
<svg xmlns="http://www.w3.org/2000/svg" xmlns:svg="http://www.w3.org/2000/svg" xmlns:xlink="http://www.w3.org/1999/xlink" viewBox="0 0 2048 2048" style=""><path d="M348.0 575.5H553.0L650.0 462.5Q650.0 462.5 679.0 484.5Q708.0 506.5 749.0 538.5Q790.0 570.5 824.0 599.5Q818.0 632.5 772.0 632.5H365.0ZM1188.0 575.5H1422.0L1518.0 462.5Q1518.0 462.5 1541.5 480.5Q1565.0 498.5 1600.0 525.0Q1635.0 551.5 1667.0 579.5L1680.0 446.5H1151.0V858.5Q1150.0 865.5 1089.0 889.5Q1028.0 913.5 918.0 913.5H912.0L1006.0 995.5Q973.0 1024.5 887.0 997.5Q773.0 1032.5 607.0 1054.5Q592.0 1071.5 553.0 1075.5V1220.5H684.0L787.0 1091.5Q787.0 1091.5 819.5 1116.5Q852.0 1141.5 896.5 1177.5Q941.0 1213.5 977.0 1245.5Q971.0 1277.5 924.0 1277.5H553.0V1447.5H1475.0V1277.5H1145.0L1127.0 1220.5H1475.0V1054.5H1102.0L1084.0 997.5H1454.0L1577.0 866.5L1829.0 1054.5Q1820.0 1065.5 1802.5 1076.5Q1785.0 1087.5 1755.0 1093.5V1509.5Q1755.0 1518.5 1717.0 1536.0Q1679.0 1553.5 1625.0 1568.5Q1571.0 1583.5 1524.0 1583.5H1475.0V1505.5H1344.0V1710.5Q1344.0 1728.5 1353.5 1734.5Q1363.0 1740.5 1401.0 1740.5H1569.0Q1606.0 1740.5 1642.0 1740.5Q1678.0 1740.5 1698.0 1740.5Q1718.0 1739.5 1731.5 1735.0Q1745.0 1730.5 1755.0 1718.5Q1790.0 1680.5 1852.0 1542.5H1872.0L1878.0 1722.5Q1932.0 1742.5 1949.0 1767.0Q1966.0 1791.5 1966.0 1828.5Q1966.0 1879.5 1930.5 1912.0Q1895.0 1944.5 1801.0 1959.5Q1707.0 1974.5 1534.0 1974.5H1334.0Q1221.0 1974.5 1164.0 1956.0Q1107.0 1937.5 1087.0 1891.5Q1067.0 1845.5 1067.0 1761.5V1505.5H930.0Q896.0 1664.5 784.5 1767.5Q673.0 1870.5 490.5 1928.5Q308.0 1986.5 62.0 2011.5L56.0 1988.5Q317.0 1913.5 446.0 1800.0Q575.0 1686.5 602.0 1505.5H553.0V1533.5Q550.0 1543.5 492.5 1569.5Q435.0 1595.5 318.0 1595.5H277.0V948.5L484.0 1001.5Q567.0 958.5 645.0 906.0Q723.0 853.5 772.0 810.5H324.0L308.0 753.5H551.0L650.0 638.5Q650.0 638.5 680.5 661.0Q711.0 683.5 753.0 716.0Q795.0 748.5 830.0 778.5Q824.0 805.5 791.0 808.5L865.0 874.5V446.5H346.0Q363.0 550.5 327.0 621.0Q291.0 691.5 230.0 712.5Q173.0 731.5 117.0 706.0Q61.0 680.5 47.0 616.5Q37.0 553.5 71.5 513.5Q106.0 473.5 160.0 454.5Q205.0 437.5 242.0 397.5Q279.0 357.5 273.0 305.5L299.0 303.5Q310.0 326.5 318.0 348.0Q326.0 369.5 332.0 389.5H865.0V245.5H252.0L236.0 188.5H1446.0L1575.0 36.5Q1575.0 36.5 1615.5 65.5Q1656.0 94.5 1712.0 135.5Q1768.0 176.5 1813.0 212.5Q1804.0 245.5 1755.0 245.5H1151.0V389.5H1659.0L1786.0 260.5L2011.0 470.5Q1999.0 484.5 1981.5 489.5Q1964.0 494.5 1934.0 497.5Q1884.0 537.5 1812.5 584.5Q1741.0 631.5 1678.0 659.5L1659.0 647.5L1661.0 630.5L1641.0 632.5H1205.0ZM1182.0 753.5H1454.0L1557.0 632.5Q1557.0 632.5 1588.5 656.0Q1620.0 679.5 1664.0 713.5Q1708.0 747.5 1745.0 778.5Q1736.0 810.5 1690.0 810.5H1198.0Z" fill="black"></path></svg>