<?xml version="1.0" standalone="no"?>
<!DOCTYPE svg PUBLIC "-//W3C//DTD SVG 1.1//EN" "http://www.w3.org/Graphics/SVG/1.1/DTD/svg11.dtd" >
<svg xmlns="http://www.w3.org/2000/svg" xmlns:svg="http://www.w3.org/2000/svg" xmlns:xlink="http://www.w3.org/1999/xlink" viewBox="0 0 2048 2048" style=""><path d="M706.5 1487.0V1773.0H1324.5V1487.0ZM706.5 1429.0H1324.5V1153.0H706.5ZM409.5 1095.0V975.0L722.5 1095.0H1302.5L1443.5 942.0L1724.5 1159.0Q1713.5 1171.0 1692.5 1184.5Q1671.5 1198.0 1638.5 1206.0V1886.0Q1637.5 1897.0 1596.5 1920.5Q1555.5 1944.0 1495.5 1963.0Q1435.5 1982.0 1378.5 1982.0H1324.5V1831.0H706.5V1898.0Q706.5 1913.0 669.0 1935.0Q631.5 1957.0 573.0 1975.0Q514.5 1993.0 452.5 1993.0H409.5ZM511.5 385.0Q651.5 415.0 733.0 463.5Q814.5 512.0 849.0 567.5Q883.5 623.0 880.5 675.5Q877.5 728.0 847.5 766.0Q817.5 804.0 769.5 817.0H1130.5Q1167.5 717.0 1201.5 596.5Q1235.5 476.0 1257.5 381.0H161.5L145.5 323.0H849.5V55.0L1222.5 84.0Q1220.5 102.0 1208.0 115.5Q1195.5 129.0 1156.5 135.0V323.0H1480.5L1629.5 129.0Q1629.5 129.0 1657.0 150.5Q1684.5 172.0 1727.5 205.5Q1770.5 239.0 1816.5 277.0Q1862.5 315.0 1900.5 348.0Q1897.5 365.0 1881.0 373.0Q1864.5 381.0 1842.5 381.0H1300.5L1636.5 483.0Q1629.5 502.0 1611.5 513.0Q1593.5 524.0 1558.5 522.0Q1492.5 585.0 1394.5 665.5Q1296.5 746.0 1197.5 817.0H1541.5L1695.5 614.0Q1695.5 614.0 1724.0 636.0Q1752.5 658.0 1796.5 693.0Q1840.5 728.0 1888.5 767.5Q1936.5 807.0 1976.5 842.0Q1971.5 858.0 1955.0 866.0Q1938.5 874.0 1916.5 874.0H87.5L71.5 817.0H687.5Q643.5 805.0 597.5 766.0Q596.5 667.0 565.0 569.0Q533.5 471.0 495.5 393.0Z" fill="black"></path></svg>