<?xml version="1.0" standalone="no"?>
<!DOCTYPE svg PUBLIC "-//W3C//DTD SVG 1.1//EN" "http://www.w3.org/Graphics/SVG/1.1/DTD/svg11.dtd" >
<svg xmlns="http://www.w3.org/2000/svg" xmlns:svg="http://www.w3.org/2000/svg" xmlns:xlink="http://www.w3.org/1999/xlink" viewBox="0 0 2048 2048" style=""><path d="M369.0 615.5H574.0L672.0 500.5Q672.0 500.5 702.0 523.0Q732.0 545.5 773.5 578.0Q815.0 610.5 850.0 639.5Q841.0 672.5 797.0 672.5H385.0ZM1168.0 811.5H1430.0L1536.0 687.5Q1536.0 687.5 1569.0 711.5Q1602.0 735.5 1647.5 770.0Q1693.0 804.5 1731.0 836.5Q1722.0 869.5 1675.0 869.5H1184.0ZM1272.0 1350.5V1543.5H1559.0V1350.5ZM1272.0 1293.5H1559.0V1110.5H1272.0ZM1272.0 1600.5V1805.5H1559.0V1600.5ZM1174.0 615.5H1399.0L1497.0 498.5Q1497.0 498.5 1523.5 518.0Q1550.0 537.5 1588.5 566.0Q1627.0 594.5 1663.0 623.5L1675.0 474.5H1151.0V900.5Q1151.0 906.5 1114.0 922.0Q1077.0 937.5 1010.0 947.5L1282.0 1053.5H1538.0L1665.0 912.5L1927.0 1113.5Q1917.0 1125.5 1897.5 1137.5Q1878.0 1149.5 1845.0 1156.5V1934.5Q1844.0 1941.5 1804.5 1958.0Q1765.0 1974.5 1710.0 1988.0Q1655.0 2001.5 1608.0 2001.5H1559.0V1862.5H1272.0V1917.5Q1272.0 1932.5 1237.5 1953.5Q1203.0 1974.5 1149.0 1991.5Q1095.0 2008.5 1036.0 2008.5H996.0V1235.5Q986.0 1260.5 946.0 1260.5H664.0V1379.5Q791.0 1393.5 861.5 1431.0Q932.0 1468.5 957.0 1515.5Q982.0 1562.5 972.0 1606.5Q962.0 1650.5 927.5 1679.0Q893.0 1707.5 844.5 1708.5Q796.0 1709.5 746.0 1668.5Q746.0 1605.5 722.5 1539.5Q699.0 1473.5 664.0 1424.5V1942.5Q664.0 1952.5 630.5 1969.0Q597.0 1985.5 547.0 1999.0Q497.0 2012.5 447.0 2012.5H398.0V1608.5Q255.0 1750.5 51.0 1854.5L33.0 1829.5Q142.0 1719.5 215.0 1569.0Q288.0 1418.5 330.0 1260.5H82.0L66.0 1203.5H398.0V928.5L731.0 959.5Q728.0 977.5 714.5 991.0Q701.0 1004.5 664.0 1010.5V1203.5H674.0L791.0 1051.5Q791.0 1051.5 825.5 1079.0Q860.0 1106.5 908.0 1146.0Q956.0 1185.5 996.0 1221.5V949.5Q977.0 950.5 957.0 952.0Q937.0 953.5 914.0 953.5H860.0V474.5H371.0Q388.0 580.5 354.5 652.0Q321.0 723.5 262.0 746.5Q206.0 769.5 148.5 746.0Q91.0 722.5 76.0 658.5Q62.0 595.5 96.5 554.0Q131.0 512.5 185.0 492.5Q228.0 470.5 262.0 420.5Q296.0 370.5 287.0 310.5L314.0 308.5Q327.0 337.5 338.0 364.0Q349.0 390.5 357.0 416.5H860.0V250.5H252.0L236.0 193.5H1446.0L1581.0 35.5Q1581.0 35.5 1623.0 65.5Q1665.0 95.5 1722.5 138.0Q1780.0 180.5 1827.0 218.5Q1818.0 250.5 1770.0 250.5H1151.0V416.5H1655.0L1786.0 283.5L2015.0 500.5Q2003.0 514.5 1985.5 519.5Q1968.0 524.5 1938.0 527.5Q1887.0 567.5 1812.5 613.5Q1738.0 659.5 1673.0 687.5L1655.0 674.5L1657.0 668.5Q1641.0 672.5 1628.0 672.5H1190.0ZM330.0 811.5H574.0L674.0 693.5Q674.0 693.5 705.5 716.5Q737.0 739.5 781.0 772.5Q825.0 805.5 860.0 836.5Q854.0 869.5 807.0 869.5H346.0Z" fill="black"></path></svg>