<?xml version="1.0" standalone="no"?>
<!DOCTYPE svg PUBLIC "-//W3C//DTD SVG 1.1//EN" "http://www.w3.org/Graphics/SVG/1.1/DTD/svg11.dtd" >
<svg xmlns="http://www.w3.org/2000/svg" xmlns:svg="http://www.w3.org/2000/svg" xmlns:xlink="http://www.w3.org/1999/xlink" viewBox="0 0 2048 2048" style=""><path d="M293.0 525.5H245.0V845.5H293.0ZM434.0 525.5V845.5H485.0V525.5ZM131.0 1404.5 342.0 1465.5V1357.5H28.0L12.0 1299.5H628.0L735.0 1156.5Q735.0 1156.5 761.5 1178.5Q788.0 1200.5 826.0 1234.0Q864.0 1267.5 899.0 1299.5Q906.0 1183.5 907.5 1066.0Q909.0 948.5 909.0 832.5V259.5H903.0H626.0V468.5H665.0L741.0 392.5L897.0 509.5Q883.0 526.5 845.0 536.5V902.5Q845.0 909.5 822.0 921.5Q799.0 933.5 767.0 942.5Q735.0 951.5 708.0 951.5H692.0Q718.0 973.5 763.0 1013.5Q808.0 1053.5 843.0 1088.5Q837.0 1121.5 790.0 1121.5H106.0L90.0 1064.5H573.0L669.0 933.5L680.0 941.5V902.5H245.0V935.5Q245.0 944.5 208.0 965.5Q171.0 986.5 108.0 986.5H80.0V390.5L270.0 468.5H293.0V259.5H39.0L22.0 202.5H630.0L747.0 46.5L909.0 183.5V95.5L1142.0 183.5H1638.0L1745.0 60.5L1960.0 243.5Q1949.0 253.5 1926.5 264.5Q1904.0 275.5 1867.0 282.5Q1858.0 408.5 1852.5 558.5Q1847.0 708.5 1847.0 863.5Q1847.0 1018.5 1852.5 1161.5Q1858.0 1304.5 1870.0 1417.0Q1882.0 1529.5 1900.0 1592.5Q1913.0 1639.5 1929.0 1590.5Q1949.0 1532.5 1965.5 1470.0Q1982.0 1407.5 1994.0 1355.5L2017.0 1359.5L1982.0 1754.5Q2040.0 1957.5 1966.0 1983.5Q1915.0 2001.5 1873.0 1980.5Q1831.0 1959.5 1799.0 1914.0Q1767.0 1868.5 1747.0 1811.5Q1741.0 1868.5 1709.0 1902.0Q1677.0 1935.5 1632.0 1934.5Q1587.0 1933.5 1544.0 1885.5Q1547.0 1839.5 1544.5 1791.0Q1542.0 1742.5 1536.0 1693.5Q1479.0 1737.5 1403.5 1793.0Q1328.0 1848.5 1228.0 1914.5Q1221.0 1935.5 1205.5 1948.0Q1190.0 1960.5 1171.0 1965.5L1032.0 1674.5Q1076.0 1673.5 1144.5 1667.5Q1213.0 1661.5 1296.0 1654.5V1328.5H1276.0V1387.5Q1276.0 1395.5 1247.5 1413.5Q1219.0 1431.5 1173.0 1431.5H1155.0V663.5L1292.0 722.5V505.5Q1247.0 511.5 1202.0 515.0Q1157.0 518.5 1114.0 519.5L1110.0 501.5V830.5Q1110.0 969.5 1102.5 1122.5Q1095.0 1275.5 1064.0 1429.0Q1033.0 1582.5 965.0 1726.0Q897.0 1869.5 776.0 1990.5L749.0 1975.5Q781.0 1908.5 805.0 1836.5Q829.0 1764.5 845.0 1689.5Q831.0 1725.5 797.5 1746.5Q764.0 1767.5 722.0 1762.0Q680.0 1756.5 641.0 1715.5Q651.0 1638.5 634.0 1558.0Q617.0 1477.5 587.0 1418.5L608.0 1408.5Q748.0 1456.5 802.0 1522.0Q856.0 1587.5 856.0 1643.5Q870.0 1573.5 879.5 1500.0Q889.0 1426.5 895.0 1353.5L870.0 1357.5H557.0V1725.5Q557.0 1799.5 540.0 1855.0Q523.0 1910.5 470.5 1944.5Q418.0 1978.5 311.0 1988.5Q309.0 1940.5 304.5 1903.0Q300.0 1865.5 286.0 1840.5Q274.0 1819.5 250.0 1802.0Q226.0 1784.5 176.0 1775.5V1748.5Q176.0 1748.5 203.5 1750.0Q231.0 1751.5 264.0 1753.0Q297.0 1754.5 311.0 1754.5Q342.0 1754.5 342.0 1723.5V1525.5L327.0 1527.5Q271.0 1633.5 196.0 1718.0Q121.0 1802.5 34.0 1854.5L8.0 1838.5Q49.0 1757.5 82.0 1641.5Q115.0 1525.5 131.0 1404.5ZM434.0 468.5H485.0V259.5H434.0ZM626.0 525.5V845.5H680.0V525.5ZM1276.0 783.5V1271.5H1327.0V783.5ZM1493.0 783.5H1441.0V1271.5H1493.0ZM1482.0 726.5 1540.0 671.5 1652.0 757.5 1654.0 472.5Q1627.0 472.5 1585.0 456.5Q1539.0 467.5 1470.0 480.5V726.5ZM1515.0 1471.5Q1586.0 1516.5 1633.0 1563.0Q1680.0 1609.5 1706.0 1654.5Q1675.0 1486.5 1663.5 1253.5Q1652.0 1020.5 1652.0 765.5Q1641.0 777.5 1613.0 783.5V1363.5Q1613.0 1374.5 1577.5 1391.5Q1542.0 1408.5 1511.0 1408.5H1493.0V1328.5H1472.0V1633.5L1525.0 1625.5Q1510.0 1547.5 1491.0 1480.5ZM1478.0 249.5 1657.0 407.5 1659.0 241.5H1110.0V493.5Q1174.0 461.5 1244.0 418.0Q1314.0 374.5 1376.0 330.0Q1438.0 285.5 1478.0 249.5Z" fill="black"></path></svg>