<?xml version="1.0" standalone="no"?>
<!DOCTYPE svg PUBLIC "-//W3C//DTD SVG 1.1//EN" "http://www.w3.org/Graphics/SVG/1.1/DTD/svg11.dtd" >
<svg xmlns="http://www.w3.org/2000/svg" xmlns:svg="http://www.w3.org/2000/svg" xmlns:xlink="http://www.w3.org/1999/xlink" viewBox="0 0 2048 2048" style=""><path d="M1675.0 149.0 1910.0 317.0Q1903.0 329.0 1886.5 334.0Q1870.0 339.0 1837.0 331.0Q1810.0 343.0 1770.5 358.0Q1731.0 373.0 1689.0 388.0Q1770.0 406.0 1809.5 443.0Q1849.0 480.0 1855.0 522.5Q1861.0 565.0 1840.0 599.5Q1819.0 634.0 1778.0 648.0Q1737.0 662.0 1683.0 640.0Q1657.0 580.0 1601.5 517.5Q1546.0 455.0 1490.0 413.0Q1518.0 528.0 1586.0 625.0Q1654.0 722.0 1775.0 757.0Q1798.0 765.0 1808.5 761.5Q1819.0 758.0 1828.0 743.0Q1847.0 711.0 1865.0 665.5Q1883.0 620.0 1898.0 571.0L1918.0 575.0L1908.0 798.0Q2004.0 900.0 1966.0 976.0Q1939.0 1025.0 1888.5 1039.0Q1838.0 1053.0 1779.0 1042.0Q1720.0 1031.0 1667.0 1005.0Q1509.0 940.0 1413.5 829.0Q1318.0 718.0 1270.0 572.0Q1222.0 426.0 1206.0 257.0H174.0L155.0 200.0H1179.0L1300.0 69.0L1548.0 245.0Q1529.0 268.0 1470.0 278.0Q1471.0 304.0 1474.5 330.0Q1478.0 356.0 1484.0 382.0Q1540.0 376.0 1583.0 376.0Q1607.0 324.0 1634.0 258.0Q1661.0 192.0 1675.0 149.0ZM1654.0 1003.0 1925.0 1146.0Q1918.0 1160.0 1902.0 1166.5Q1886.0 1173.0 1849.0 1169.0Q1823.0 1187.0 1781.5 1210.5Q1740.0 1234.0 1697.0 1257.0Q1785.0 1279.0 1828.0 1320.0Q1871.0 1361.0 1878.5 1406.5Q1886.0 1452.0 1864.5 1488.0Q1843.0 1524.0 1801.0 1537.5Q1759.0 1551.0 1703.0 1527.0Q1677.0 1466.0 1622.5 1400.5Q1568.0 1335.0 1511.0 1285.0Q1540.0 1413.0 1606.0 1519.0Q1672.0 1625.0 1787.0 1668.0Q1810.0 1678.0 1821.5 1675.5Q1833.0 1673.0 1843.0 1656.0Q1861.0 1621.0 1879.0 1572.5Q1897.0 1524.0 1914.0 1472.0L1935.0 1474.0L1923.0 1722.0Q2018.0 1839.0 1974.0 1910.0Q1944.0 1958.0 1892.5 1968.5Q1841.0 1979.0 1782.5 1964.0Q1724.0 1949.0 1673.0 1920.0Q1512.0 1845.0 1417.0 1712.0Q1322.0 1579.0 1276.0 1406.5Q1230.0 1234.0 1216.0 1040.0H1083.0V1881.0Q1083.0 1894.0 1047.0 1915.5Q1011.0 1937.0 957.5 1954.5Q904.0 1972.0 851.0 1972.0H796.0V1040.0H630.0Q629.0 1170.0 605.0 1304.5Q581.0 1439.0 519.0 1565.0Q457.0 1691.0 343.0 1796.0Q229.0 1901.0 47.0 1974.0L32.0 1957.0Q170.0 1833.0 238.0 1680.0Q306.0 1527.0 328.0 1362.0Q350.0 1197.0 350.0 1040.0H49.0L30.0 982.0H350.0V669.0Q276.0 694.0 197.5 714.0Q119.0 734.0 40.0 749.0L32.0 728.0Q131.0 673.0 229.5 598.0Q328.0 523.0 411.0 444.0Q494.0 365.0 544.0 298.0L796.0 444.0V300.0L1150.0 333.0Q1147.0 353.0 1133.5 366.5Q1120.0 380.0 1083.0 386.0V982.0H1189.0L1312.0 847.0L1560.0 1029.0Q1539.0 1055.0 1480.0 1064.0Q1482.0 1107.0 1486.5 1152.5Q1491.0 1198.0 1501.0 1242.0Q1553.0 1239.0 1597.0 1242.0Q1614.0 1183.0 1629.5 1114.5Q1645.0 1046.0 1654.0 1003.0ZM630.0 982.0H796.0V509.0Q775.0 512.0 735.0 505.0Q637.0 563.0 495.0 620.0L702.0 638.0Q699.0 658.0 684.0 673.5Q669.0 689.0 630.0 694.0Z" fill="black"></path></svg>