<?xml version="1.0" standalone="no"?>
<!DOCTYPE svg PUBLIC "-//W3C//DTD SVG 1.1//EN" "http://www.w3.org/Graphics/SVG/1.1/DTD/svg11.dtd" >
<svg xmlns="http://www.w3.org/2000/svg" xmlns:svg="http://www.w3.org/2000/svg" xmlns:xlink="http://www.w3.org/1999/xlink" viewBox="0 0 2048 2048" style=""><path d="M211.0 1187.0Q333.0 1232.0 395.5 1287.5Q458.0 1343.0 473.5 1398.5Q489.0 1454.0 470.0 1498.5Q451.0 1543.0 411.0 1566.0Q371.0 1589.0 321.0 1581.0Q271.0 1573.0 225.0 1522.0Q238.0 1438.0 226.5 1350.0Q215.0 1262.0 191.0 1195.0ZM1464.0 1576.0Q1642.0 1576.0 1753.5 1612.5Q1865.0 1649.0 1921.0 1705.0Q1977.0 1761.0 1987.5 1820.0Q1998.0 1879.0 1972.0 1925.0Q1946.0 1971.0 1893.5 1987.5Q1841.0 2004.0 1772.0 1973.0Q1738.0 1905.0 1684.0 1834.5Q1630.0 1764.0 1568.0 1700.0Q1506.0 1636.0 1450.0 1590.0ZM1002.0 539.0V425.0L1286.0 537.0L1288.0 296.0H1000.0L1002.0 298.0Q993.0 331.0 944.0 331.0H74.0L57.0 273.0H608.0L750.0 83.0Q750.0 83.0 778.0 106.0Q806.0 129.0 849.0 164.5Q892.0 200.0 936.0 238.0H1591.0L1741.0 44.0Q1741.0 44.0 1768.0 65.5Q1795.0 87.0 1837.5 120.5Q1880.0 154.0 1926.0 192.0Q1972.0 230.0 2009.0 263.0Q2000.0 296.0 1950.0 296.0H1606.0Q1554.0 360.0 1492.0 424.5Q1430.0 489.0 1370.0 539.0H1581.0L1706.0 404.0L1956.0 597.0Q1948.0 608.0 1931.0 617.5Q1914.0 627.0 1886.0 634.0V1492.0Q1885.0 1501.0 1846.0 1518.5Q1807.0 1536.0 1752.0 1550.5Q1697.0 1565.0 1649.0 1565.0H1600.0V1482.0H1284.0V1525.0Q1284.0 1546.0 1229.0 1572.0L1487.0 1740.0Q1472.0 1764.0 1419.0 1752.0Q1336.0 1806.0 1206.5 1857.0Q1077.0 1908.0 928.5 1945.5Q780.0 1983.0 641.0 1998.0L631.0 1973.0Q722.0 1931.0 816.5 1870.0Q911.0 1809.0 995.5 1740.5Q1080.0 1672.0 1141.0 1606.0Q1095.0 1619.0 1045.0 1619.0H1002.0ZM152.0 587.0V490.0L397.0 587.0H604.0L721.0 460.0L963.0 644.0Q953.0 655.0 933.0 668.0Q913.0 681.0 881.0 687.0V1082.0Q880.0 1091.0 845.5 1109.0Q811.0 1127.0 762.5 1141.5Q714.0 1156.0 670.0 1156.0H625.0V1068.0H387.0V1105.0Q387.0 1115.0 357.0 1132.0Q327.0 1149.0 280.5 1162.5Q234.0 1176.0 184.0 1176.0H152.0ZM387.0 1010.0H625.0V644.0H387.0ZM39.0 1651.0Q110.0 1644.0 235.0 1627.5Q360.0 1611.0 516.0 1588.0Q538.0 1491.0 557.5 1377.0Q577.0 1263.0 586.0 1174.0L922.0 1258.0Q911.0 1301.0 846.0 1301.0Q800.0 1360.0 734.5 1433.5Q669.0 1507.0 598.0 1576.0L989.0 1516.0L991.0 1539.0Q878.0 1606.0 697.0 1699.0Q516.0 1792.0 244.0 1912.0Q224.0 1955.0 184.0 1965.0ZM1284.0 890.0V1129.0H1600.0V890.0ZM1284.0 832.0H1600.0V597.0H1284.0ZM1284.0 1187.0V1424.0H1600.0V1187.0Z" fill="black"></path></svg>