<?xml version="1.0" standalone="no"?>
<!DOCTYPE svg PUBLIC "-//W3C//DTD SVG 1.1//EN" "http://www.w3.org/Graphics/SVG/1.1/DTD/svg11.dtd" >
<svg xmlns="http://www.w3.org/2000/svg" xmlns:svg="http://www.w3.org/2000/svg" xmlns:xlink="http://www.w3.org/1999/xlink" viewBox="0 0 2048 2048" style=""><path d="M247.0 203.5V68.5L577.0 203.5H1457.0L1601.0 39.5L1869.0 265.5Q1849.0 291.5 1777.0 306.5Q1766.0 417.5 1761.5 560.0Q1757.0 702.5 1759.5 853.0Q1762.0 1003.5 1773.5 1140.0Q1785.0 1276.5 1807.0 1377.5Q1829.0 1478.5 1863.0 1520.5Q1886.0 1549.5 1904.0 1508.5Q1922.0 1457.5 1938.5 1397.0Q1955.0 1336.5 1969.0 1274.5L1990.0 1276.5L1967.0 1672.5Q2004.0 1785.5 2003.0 1865.0Q2002.0 1944.5 1963.0 1967.5Q1906.0 2001.5 1852.0 1992.0Q1798.0 1982.5 1752.5 1944.5Q1707.0 1906.5 1674.0 1856.5Q1605.0 1764.5 1564.0 1609.0Q1523.0 1453.5 1504.0 1256.5Q1485.0 1059.5 1480.0 844.5Q1474.0 850.5 1460.5 857.5Q1447.0 864.5 1429.0 867.5V1301.5Q1429.0 1308.5 1397.5 1322.0Q1366.0 1335.5 1323.0 1346.0Q1280.0 1356.5 1244.0 1356.5H1205.0V1268.5H1130.0V1594.5L1255.0 1588.5Q1239.0 1540.5 1220.0 1496.5Q1201.0 1452.5 1181.0 1414.5L1199.0 1403.5Q1347.0 1454.5 1429.0 1522.0Q1511.0 1589.5 1540.5 1659.0Q1570.0 1728.5 1559.5 1787.5Q1549.0 1846.5 1510.5 1881.5Q1472.0 1916.5 1417.5 1915.0Q1363.0 1913.5 1306.0 1860.5Q1306.0 1811.5 1297.5 1761.5Q1289.0 1711.5 1277.0 1661.5Q1159.0 1706.5 997.5 1758.5Q836.0 1810.5 620.0 1877.5Q598.0 1917.5 558.0 1924.5L417.0 1616.5Q489.0 1616.5 608.0 1613.5Q727.0 1610.5 876.0 1604.5V1268.5H804.0V1344.5Q804.0 1353.5 776.0 1369.5Q748.0 1385.5 705.5 1398.0Q663.0 1410.5 618.0 1410.5H587.0V697.5L814.0 787.5H876.0V582.5Q790.0 587.5 703.5 588.0Q617.0 588.5 534.0 586.5V793.5Q534.0 939.5 522.5 1101.5Q511.0 1263.5 467.0 1426.0Q423.0 1588.5 327.5 1738.0Q232.0 1887.5 63.0 2008.5L44.0 1995.5Q140.0 1819.5 183.0 1617.5Q226.0 1415.5 236.5 1205.0Q247.0 994.5 247.0 793.5ZM804.0 1211.5H876.0V844.5H804.0ZM1205.0 1211.5V844.5H1130.0V1211.5ZM1189.0 787.5 1287.0 685.5 1480.0 828.5 1478.0 554.5Q1435.0 563.5 1365.0 537.5Q1314.0 546.5 1254.0 553.5Q1194.0 560.5 1130.0 566.5V787.5ZM1248.0 283.5 1478.0 513.5 1482.0 261.5H534.0V551.5Q662.0 519.5 797.5 473.5Q933.0 427.5 1052.0 377.5Q1171.0 327.5 1248.0 283.5Z" fill="black"></path></svg>