<?xml version="1.0" standalone="no"?>
<!DOCTYPE svg PUBLIC "-//W3C//DTD SVG 1.1//EN" "http://www.w3.org/Graphics/SVG/1.1/DTD/svg11.dtd" >
<svg xmlns="http://www.w3.org/2000/svg" xmlns:svg="http://www.w3.org/2000/svg" xmlns:xlink="http://www.w3.org/1999/xlink" viewBox="0 0 2048 2048" style=""><path d="M1128.0 490.5V385.5L1387.0 490.5H1391.0L1393.0 299.5H1022.0L1020.0 295.5H709.0L897.0 334.5Q892.0 352.5 874.5 366.0Q857.0 379.5 823.0 379.5Q793.0 413.5 752.0 455.0Q711.0 496.5 668.0 535.5H791.0L895.0 424.5L1108.0 586.5Q1100.0 597.5 1083.5 607.0Q1067.0 616.5 1040.0 621.5V1149.5Q1039.0 1156.5 1007.0 1170.5Q975.0 1184.5 930.5 1195.5Q886.0 1206.5 848.0 1206.5H840.0V1684.5Q840.0 1764.5 822.0 1826.5Q804.0 1888.5 746.5 1926.5Q689.0 1964.5 571.0 1974.5Q570.0 1919.5 565.0 1876.5Q560.0 1833.5 545.0 1806.5Q531.0 1780.5 506.0 1761.5Q481.0 1742.5 426.0 1733.5V1704.5Q426.0 1704.5 456.5 1706.5Q487.0 1708.5 522.0 1710.5Q557.0 1712.5 571.0 1712.5Q591.0 1712.5 597.5 1704.0Q604.0 1695.5 604.0 1679.5V1415.5H600.0Q543.0 1530.5 468.0 1628.5Q393.0 1726.5 307.0 1792.5L279.0 1776.5Q317.0 1684.5 348.5 1554.0Q380.0 1423.5 397.0 1292.5L604.0 1350.5V1202.5Q578.0 1218.5 538.0 1230.0Q498.0 1241.5 455.0 1241.5H424.0V445.5L600.0 516.5Q602.0 464.5 601.5 405.5Q601.0 346.5 598.0 295.5H350.0V905.5Q350.0 1034.5 344.5 1174.0Q339.0 1313.5 313.0 1453.5Q287.0 1593.5 226.0 1724.5Q165.0 1855.5 53.0 1966.5L29.0 1952.5Q81.0 1800.5 100.0 1625.5Q119.0 1450.5 121.0 1266.5Q123.0 1082.5 123.0 905.5V143.5L387.0 238.5H743.0L877.0 64.5Q877.0 64.5 912.0 92.5Q947.0 120.5 997.5 162.0Q1048.0 203.5 1094.0 242.5H1632.0L1772.0 57.5Q1772.0 57.5 1797.0 78.0Q1822.0 98.5 1861.0 131.0Q1900.0 163.5 1942.5 199.5Q1985.0 235.5 2019.0 266.5Q2010.0 299.5 1962.0 299.5H1669.0Q1623.0 350.5 1571.5 400.5Q1520.0 450.5 1471.0 490.5H1624.0L1739.0 369.5L1966.0 543.5Q1958.0 552.5 1941.5 562.0Q1925.0 571.5 1901.0 578.5V1499.5Q1900.0 1507.5 1864.5 1524.0Q1829.0 1540.5 1779.5 1554.0Q1730.0 1567.5 1686.0 1567.5H1675.0Q1814.0 1609.5 1882.5 1673.0Q1951.0 1736.5 1964.0 1802.0Q1977.0 1867.5 1949.0 1916.0Q1921.0 1964.5 1865.5 1977.5Q1810.0 1990.5 1743.0 1948.5Q1723.0 1878.5 1685.0 1806.0Q1647.0 1733.5 1600.0 1666.5Q1553.0 1599.5 1509.0 1546.5L1526.0 1534.5Q1558.0 1539.5 1587.0 1545.0Q1616.0 1550.5 1643.0 1557.5V1485.5H1378.0V1518.5Q1378.0 1532.5 1350.0 1548.5L1571.0 1663.5Q1556.0 1686.5 1505.0 1677.5Q1451.0 1740.5 1360.5 1800.5Q1270.0 1860.5 1162.5 1908.5Q1055.0 1956.5 948.0 1983.5L934.0 1958.5Q1025.0 1889.5 1108.0 1789.5Q1191.0 1689.5 1243.0 1593.5Q1225.0 1597.5 1205.5 1600.0Q1186.0 1602.5 1167.0 1602.5H1128.0V1581.5Q1115.0 1621.5 1080.5 1644.5Q1046.0 1667.5 1000.5 1663.0Q955.0 1658.5 911.0 1616.5Q913.0 1533.5 890.0 1446.0Q867.0 1358.5 840.0 1292.5L860.0 1284.5Q986.0 1326.5 1049.0 1382.0Q1112.0 1437.5 1128.0 1489.5ZM1643.0 854.5H1378.0V1114.5H1643.0ZM1643.0 797.5V547.5H1378.0V797.5ZM809.0 881.5H637.0V1104.5H809.0ZM809.0 823.5V592.5H637.0V823.5ZM1643.0 1172.5H1378.0V1428.5H1643.0Z" fill="black"></path></svg>