<?xml version="1.0" standalone="no"?>
<!DOCTYPE svg PUBLIC "-//W3C//DTD SVG 1.1//EN" "http://www.w3.org/Graphics/SVG/1.1/DTD/svg11.dtd" >
<svg xmlns="http://www.w3.org/2000/svg" xmlns:svg="http://www.w3.org/2000/svg" xmlns:xlink="http://www.w3.org/1999/xlink" viewBox="0 0 2048 2048" style=""><path d="M1482.0 1553.5Q1651.0 1569.5 1754.5 1615.0Q1858.0 1660.5 1907.0 1720.0Q1956.0 1779.5 1960.5 1838.0Q1965.0 1896.5 1935.5 1939.0Q1906.0 1981.5 1853.5 1992.5Q1801.0 2003.5 1736.0 1967.5Q1710.0 1896.5 1665.5 1823.5Q1621.0 1750.5 1568.0 1684.0Q1515.0 1617.5 1465.0 1565.5ZM726.0 1066.5 986.0 1238.5Q975.0 1253.5 959.0 1257.0Q943.0 1260.5 910.0 1254.5Q795.0 1329.5 650.5 1392.5Q506.0 1455.5 370.0 1494.5L351.0 1465.5Q459.0 1388.5 554.0 1284.0Q649.0 1179.5 726.0 1066.5ZM744.0 1375.5 1050.0 1551.5Q1039.0 1568.5 1021.0 1573.5Q1003.0 1578.5 968.0 1572.5Q817.0 1711.5 632.0 1805.0Q447.0 1898.5 243.0 1951.5L228.0 1922.5Q391.0 1827.5 518.0 1690.5Q645.0 1553.5 744.0 1375.5ZM136.0 740.5V642.5L249.0 681.5Q303.0 655.5 353.5 624.5Q404.0 593.5 452.0 556.5Q336.0 475.5 234.0 425.5L249.0 404.5Q355.0 401.5 438.5 411.5Q522.0 421.5 585.0 439.5L634.0 388.5H97.0L81.0 331.5H404.0V68.5L753.0 95.5Q751.0 115.5 735.5 130.5Q720.0 145.5 679.0 152.5V331.5H728.0L855.0 154.5L988.0 267.5L980.0 238.5H1588.0L1738.0 44.5Q1738.0 44.5 1765.0 66.0Q1792.0 87.5 1834.0 121.0Q1876.0 154.5 1922.0 192.5Q1968.0 230.5 2006.0 263.5Q1997.0 296.5 1947.0 296.5H1613.0Q1561.0 354.5 1500.5 413.5Q1440.0 472.5 1383.0 517.5H1592.0L1713.0 388.5L1953.0 572.5Q1945.0 583.5 1928.0 594.0Q1911.0 604.5 1883.0 609.5V1482.5Q1882.0 1490.5 1845.0 1507.0Q1808.0 1523.5 1756.0 1537.5Q1704.0 1551.5 1658.0 1551.5H1611.0V1498.5H1332.0V1516.5Q1332.0 1537.5 1277.0 1563.5L1523.0 1705.5Q1508.0 1729.5 1457.0 1717.5Q1389.0 1775.5 1280.0 1831.5Q1171.0 1887.5 1046.0 1931.0Q921.0 1974.5 802.0 1996.5L787.0 1971.5Q861.0 1927.5 934.5 1865.0Q1008.0 1802.5 1072.0 1732.5Q1136.0 1662.5 1181.0 1596.5Q1162.0 1601.5 1143.5 1603.0Q1125.0 1604.5 1107.0 1604.5H1066.0V791.5Q1054.0 797.5 1035.0 797.5H755.0L978.0 953.5Q966.0 967.5 949.0 970.5Q932.0 973.5 900.0 965.5Q789.0 1022.5 652.0 1070.5Q515.0 1118.5 390.0 1146.5L376.0 1121.5Q373.0 1212.5 360.0 1316.5Q347.0 1420.5 314.0 1526.5Q281.0 1632.5 220.0 1731.5Q159.0 1830.5 60.0 1912.5L42.0 1895.5Q91.0 1764.5 110.5 1616.5Q130.0 1468.5 133.0 1320.5Q136.0 1172.5 136.0 1041.5ZM1066.0 517.5V406.5L1312.0 505.5L1314.0 296.5H1021.0L1086.0 355.5Q1078.0 388.5 1029.0 388.5H765.0L912.0 480.5Q896.0 508.5 837.0 496.5L765.0 541.5Q811.0 592.5 811.0 641.5Q811.0 690.5 775.0 719.0Q739.0 747.5 677.0 736.5Q654.0 713.5 624.0 687.5Q594.0 661.5 560.0 634.5Q502.0 657.5 441.0 674.5Q380.0 691.5 318.0 705.5L415.0 740.5H804.0L906.0 587.5Q906.0 587.5 932.5 611.5Q959.0 635.5 996.0 671.0Q1033.0 706.5 1066.0 740.5ZM1611.0 873.5H1332.0V1129.5H1611.0ZM1611.0 816.5V574.5H1332.0V816.5ZM1611.0 1187.5H1332.0V1441.5H1611.0ZM376.0 797.5V1041.5V1115.5Q465.0 1053.5 548.0 970.5Q631.0 887.5 701.0 797.5Z" fill="black"></path></svg>