<?xml version="1.0" standalone="no"?>
<!DOCTYPE svg PUBLIC "-//W3C//DTD SVG 1.1//EN" "http://www.w3.org/Graphics/SVG/1.1/DTD/svg11.dtd" >
<svg xmlns="http://www.w3.org/2000/svg" xmlns:svg="http://www.w3.org/2000/svg" xmlns:xlink="http://www.w3.org/1999/xlink" viewBox="0 0 2048 2048" style=""><path d="M1156.0 523.5V419.5L1390.0 513.5Q1393.0 462.5 1393.5 402.5Q1394.0 342.5 1394.0 292.5H1097.0Q1084.0 298.5 1064.0 298.5H91.0L75.0 240.5H730.0L869.0 66.5Q869.0 66.5 904.0 92.5Q939.0 118.5 989.0 157.0Q1039.0 195.5 1086.0 234.5H1617.0L1756.0 50.5Q1756.0 50.5 1781.5 71.0Q1807.0 91.5 1845.5 123.5Q1884.0 155.5 1926.5 191.5Q1969.0 227.5 2004.0 259.5Q1998.0 292.5 1947.0 292.5H1674.0Q1628.0 348.5 1573.0 411.5Q1518.0 474.5 1465.0 523.5H1621.0L1736.0 402.5L1963.0 576.5Q1955.0 585.5 1938.5 595.5Q1922.0 605.5 1897.0 611.5V1498.5Q1896.0 1506.5 1861.0 1522.5Q1826.0 1538.5 1776.0 1552.0Q1726.0 1565.5 1682.0 1565.5H1650.0Q1784.0 1595.5 1862.5 1645.5Q1941.0 1695.5 1973.5 1753.0Q2006.0 1810.5 2001.5 1863.0Q1997.0 1915.5 1964.5 1951.0Q1932.0 1986.5 1880.5 1992.0Q1829.0 1997.5 1768.0 1959.5Q1739.0 1854.5 1671.0 1746.5Q1603.0 1638.5 1537.0 1561.5L1553.0 1549.5L1639.0 1563.5V1498.5H1406.0V1518.5Q1406.0 1529.5 1386.5 1544.5Q1367.0 1559.5 1336.0 1572.5L1558.0 1686.5Q1542.0 1711.5 1492.0 1703.5Q1437.0 1763.5 1346.0 1821.5Q1255.0 1879.5 1147.5 1925.5Q1040.0 1971.5 935.0 1996.5L921.0 1971.5Q957.0 1945.5 992.5 1912.5Q1028.0 1879.5 1062.0 1844.5H611.0V1893.5Q611.0 1904.5 565.0 1931.0Q519.0 1957.5 439.0 1957.5H400.0V1365.5L368.0 1389.5Q334.0 1541.5 264.0 1687.0Q194.0 1832.5 65.0 1950.5L42.0 1936.5Q108.0 1772.5 135.5 1587.5Q163.0 1402.5 169.0 1216.0Q175.0 1029.5 175.0 861.5V363.5L452.0 462.5H744.0L853.0 345.5L1084.0 515.5Q1077.0 526.5 1059.5 537.0Q1042.0 547.5 1015.0 552.5V804.5Q1014.0 811.5 978.5 824.5Q943.0 837.5 895.0 848.5Q847.0 859.5 808.0 859.5H763.0V791.5H415.0V859.5Q415.0 933.5 412.5 1018.0Q410.0 1102.5 400.0 1191.5Q457.0 1026.5 482.0 845.5L753.0 933.5L763.0 863.5L1009.0 943.5Q994.0 986.5 931.0 980.5Q872.0 1035.5 792.0 1096.5H884.0L972.0 988.5Q972.0 988.5 998.5 1010.0Q1025.0 1031.5 1062.0 1062.0Q1099.0 1092.5 1129.0 1121.5Q1121.0 1154.5 1078.0 1154.5H896.0V1318.5H908.0L982.0 1217.5Q982.0 1217.5 1005.0 1238.0Q1028.0 1258.5 1059.5 1287.5Q1091.0 1316.5 1115.0 1342.5Q1109.0 1375.5 1064.0 1375.5H896.0V1547.5H908.0L984.0 1443.5Q984.0 1443.5 1007.5 1464.5Q1031.0 1485.5 1063.0 1515.5Q1095.0 1545.5 1119.0 1572.5Q1113.0 1604.5 1070.0 1604.5H896.0V1787.5H902.0L994.0 1672.5L1121.0 1774.5Q1190.0 1687.5 1238.0 1600.5L1195.0 1602.5H1156.0ZM763.0 519.5H415.0V734.5H763.0ZM611.0 1154.5V1318.5H697.0V1154.5ZM638.0 1096.5H724.0L751.0 953.5Q733.0 981.5 685.0 978.5Q671.0 1007.5 657.0 1036.5Q643.0 1065.5 626.0 1092.5ZM611.0 1375.5V1547.5H697.0V1375.5ZM611.0 1604.5V1787.5H697.0V1604.5ZM1639.0 883.5H1406.0V1131.5H1639.0ZM1639.0 826.5V580.5H1406.0V826.5ZM1639.0 1189.5H1406.0V1441.5H1639.0Z" fill="black"></path></svg>