<?xml version="1.0" standalone="no"?>
<!DOCTYPE svg PUBLIC "-//W3C//DTD SVG 1.1//EN" "http://www.w3.org/Graphics/SVG/1.1/DTD/svg11.dtd" >
<svg xmlns="http://www.w3.org/2000/svg" xmlns:svg="http://www.w3.org/2000/svg" xmlns:xlink="http://www.w3.org/1999/xlink" viewBox="0 0 2048 2048" style=""><path d="M292.5 1306.0Q374.5 1384.0 408.0 1457.5Q441.5 1531.0 440.5 1589.5Q439.5 1648.0 415.5 1683.5Q391.5 1719.0 356.5 1721.5Q321.5 1724.0 288.5 1685.0Q300.5 1594.0 290.5 1491.5Q280.5 1389.0 263.5 1312.0ZM419.5 1267.0Q519.5 1327.0 567.0 1389.0Q614.5 1451.0 623.5 1504.5Q632.5 1558.0 614.0 1592.5Q595.5 1627.0 562.0 1632.5Q528.5 1638.0 493.5 1605.0Q490.5 1526.0 458.5 1434.5Q426.5 1343.0 392.5 1277.0ZM155.5 1328.0H181.5Q237.5 1483.0 239.5 1583.5Q241.5 1684.0 212.0 1737.0Q182.5 1790.0 140.5 1804.0Q98.5 1818.0 64.5 1799.5Q30.5 1781.0 22.5 1737.5Q14.5 1694.0 54.5 1633.0Q94.5 1584.0 122.0 1502.0Q149.5 1420.0 155.5 1328.0ZM1582.5 310.0H1169.5Q1248.5 748.0 1425.5 1070.0Q1486.5 887.0 1524.5 695.5Q1562.5 504.0 1582.5 310.0ZM530.5 1220.0Q645.5 1240.0 703.0 1282.0Q760.5 1324.0 775.5 1365.0Q791.5 1263.0 800.5 1129.0H384.5V1191.0Q384.5 1203.0 335.0 1231.0Q285.5 1259.0 198.5 1259.0H157.5V116.0L411.5 212.0H724.5L843.5 60.0Q843.5 60.0 880.0 89.0Q916.5 118.0 967.0 159.0Q1017.5 200.0 1058.5 237.0Q1055.5 250.0 1046.5 253.0H1562.5L1709.5 93.0L1969.5 327.0Q1959.5 347.0 1941.0 355.5Q1922.5 364.0 1883.5 370.0Q1850.5 619.0 1784.5 861.5Q1718.5 1104.0 1593.5 1322.0Q1688.5 1437.0 1798.5 1525.5Q1908.5 1614.0 2033.5 1672.0L2027.5 1695.0Q1941.5 1718.0 1867.5 1793.0Q1793.5 1868.0 1756.5 1984.0Q1545.5 1817.0 1416.5 1570.0Q1309.5 1693.0 1169.5 1799.0Q1029.5 1905.0 849.5 1988.0L829.5 1969.0Q988.5 1842.0 1109.0 1681.5Q1229.5 1521.0 1316.5 1338.0Q1245.5 1136.0 1203.5 881.5Q1161.5 627.0 1138.5 310.0H1015.5L1003.5 269.0H712.5V497.0H724.5L822.5 364.0Q822.5 364.0 853.5 389.5Q884.5 415.0 926.5 451.5Q968.5 488.0 1001.5 521.0Q992.5 554.0 947.5 554.0H712.5V787.0H724.5L822.5 654.0Q822.5 654.0 853.5 680.0Q884.5 706.0 926.5 742.5Q968.5 779.0 1001.5 812.0Q992.5 845.0 947.5 845.0H712.5V1072.0H782.5L898.5 957.0L1103.5 1132.0Q1077.5 1158.0 1017.5 1166.0Q1001.5 1399.0 974.0 1549.0Q946.5 1699.0 906.0 1785.0Q865.5 1871.0 810.5 1912.0Q761.5 1950.0 703.0 1967.0Q644.5 1984.0 575.5 1984.0Q575.5 1936.0 569.5 1897.0Q563.5 1858.0 546.5 1836.0Q529.5 1813.0 500.5 1795.0Q471.5 1777.0 425.5 1766.0V1740.0Q464.5 1743.0 516.5 1745.5Q568.5 1748.0 595.5 1748.0Q640.5 1748.0 663.5 1728.0Q690.5 1706.0 716.0 1641.0Q741.5 1576.0 761.5 1461.0Q746.5 1481.0 720.0 1484.0Q693.5 1487.0 663.5 1467.0Q649.5 1406.0 603.5 1341.0Q557.5 1276.0 509.5 1236.0ZM384.5 269.0V497.0H487.5V269.0ZM384.5 554.0V787.0H487.5V554.0ZM384.5 845.0V1072.0H487.5V845.0Z" fill="black"></path></svg>