<?xml version="1.0" standalone="no"?>
<!DOCTYPE svg PUBLIC "-//W3C//DTD SVG 1.1//EN" "http://www.w3.org/Graphics/SVG/1.1/DTD/svg11.dtd" >
<svg xmlns="http://www.w3.org/2000/svg" xmlns:svg="http://www.w3.org/2000/svg" xmlns:xlink="http://www.w3.org/1999/xlink" viewBox="0 0 2048 2048" style=""><path d="M325.5 1335.0 347.5 1333.0Q417.5 1472.0 424.5 1584.0Q431.5 1696.0 395.5 1772.0Q359.5 1848.0 298.5 1880.0Q234.5 1914.0 163.5 1888.5Q92.5 1863.0 69.5 1788.0Q49.5 1715.0 86.0 1664.0Q122.5 1613.0 181.5 1587.0Q217.5 1568.0 252.5 1530.5Q287.5 1493.0 309.0 1442.5Q330.5 1392.0 325.5 1335.0ZM573.5 1339.0Q685.5 1409.0 739.0 1482.5Q792.5 1556.0 800.5 1623.0Q808.5 1690.0 784.5 1740.0Q760.5 1790.0 716.5 1814.0Q672.5 1838.0 622.0 1826.0Q571.5 1814.0 528.5 1755.0Q557.5 1652.0 561.5 1544.0Q565.5 1436.0 550.5 1345.0ZM841.5 1331.0Q976.5 1371.0 1049.5 1427.5Q1122.5 1484.0 1147.5 1544.0Q1172.5 1604.0 1160.0 1654.5Q1147.5 1705.0 1110.0 1735.0Q1072.5 1765.0 1021.5 1762.5Q970.5 1760.0 919.5 1712.0Q922.5 1617.0 892.5 1516.5Q862.5 1416.0 822.5 1341.0ZM1123.5 1302.0Q1264.5 1302.0 1348.0 1332.5Q1431.5 1363.0 1468.0 1409.5Q1504.5 1456.0 1503.5 1504.0Q1502.5 1552.0 1473.5 1587.0Q1444.5 1622.0 1396.5 1630.5Q1348.5 1639.0 1291.5 1605.0Q1275.5 1526.0 1221.5 1445.5Q1167.5 1365.0 1107.5 1315.0ZM648.5 295.0V540.0H931.5V295.0ZM351.5 237.0V119.0L677.5 237.0H1431.5L1580.5 53.0Q1580.5 53.0 1608.0 73.0Q1635.5 93.0 1677.5 125.0Q1719.5 157.0 1766.0 193.5Q1812.5 230.0 1851.5 262.0Q1846.5 279.0 1830.0 287.0Q1813.5 295.0 1791.5 295.0H1222.5V540.0H1396.5L1537.5 366.0Q1537.5 366.0 1563.5 385.5Q1589.5 405.0 1630.0 435.0Q1670.5 465.0 1714.5 499.5Q1758.5 534.0 1795.5 565.0Q1786.5 598.0 1736.5 598.0H1222.5V848.0H1396.5L1537.5 674.0Q1537.5 674.0 1563.5 693.0Q1589.5 712.0 1630.0 742.5Q1670.5 773.0 1714.5 807.0Q1758.5 841.0 1795.5 872.0Q1786.5 905.0 1736.5 905.0H1222.5V1151.0H1601.5L1748.5 1014.0L1996.5 1220.0Q1984.5 1234.0 1964.5 1244.5Q1944.5 1255.0 1912.5 1259.0Q1886.5 1551.0 1840.0 1709.0Q1793.5 1867.0 1705.5 1927.0Q1648.5 1965.0 1577.0 1980.0Q1505.5 1995.0 1396.5 1995.0Q1396.5 1936.0 1387.5 1894.0Q1378.5 1852.0 1351.5 1822.0Q1320.5 1790.0 1265.5 1767.0Q1210.5 1744.0 1136.5 1728.0V1706.0Q1185.5 1710.0 1245.5 1713.5Q1305.5 1717.0 1356.5 1719.5Q1407.5 1722.0 1431.5 1722.0Q1477.5 1722.0 1500.5 1704.0Q1539.5 1675.0 1569.5 1546.0Q1599.5 1417.0 1619.5 1208.0H648.5V1253.0Q648.5 1262.0 620.0 1282.5Q591.5 1303.0 537.0 1320.0Q482.5 1337.0 407.5 1337.0H351.5ZM648.5 598.0V848.0H931.5V598.0ZM648.5 905.0V1151.0H931.5V905.0Z" fill="black"></path></svg>