<?xml version="1.0" standalone="no"?>
<!DOCTYPE svg PUBLIC "-//W3C//DTD SVG 1.1//EN" "http://www.w3.org/Graphics/SVG/1.1/DTD/svg11.dtd" >
<svg xmlns="http://www.w3.org/2000/svg" xmlns:svg="http://www.w3.org/2000/svg" xmlns:xlink="http://www.w3.org/1999/xlink" viewBox="0 0 2048 2048" style=""><path d="M1183.0 43.0 1553.0 139.0Q1547.0 157.0 1529.0 168.0Q1511.0 179.0 1476.0 178.0Q1423.0 215.0 1345.0 260.0Q1267.0 305.0 1187.0 342.0H1555.0L1693.0 176.0Q1693.0 176.0 1736.0 207.0Q1779.0 238.0 1837.5 282.0Q1896.0 326.0 1945.0 366.0Q1939.0 399.0 1887.0 399.0H1631.0Q1651.0 413.0 1689.5 441.0Q1728.0 469.0 1773.0 502.5Q1818.0 536.0 1854.0 567.0Q1846.0 600.0 1797.0 600.0H1738.0Q1759.0 615.0 1800.0 644.5Q1841.0 674.0 1888.0 709.0Q1935.0 744.0 1975.0 776.0Q1966.0 809.0 1916.0 809.0H1394.0Q1467.0 877.0 1572.0 925.0Q1677.0 973.0 1793.5 1004.0Q1910.0 1035.0 2018.0 1052.0L2016.0 1075.0Q1939.0 1098.0 1889.0 1165.5Q1839.0 1233.0 1816.0 1337.0Q1743.0 1297.0 1680.0 1252.0Q1617.0 1207.0 1562.0 1153.0V1427.0L1611.0 1358.0L1867.0 1544.0Q1858.0 1558.0 1841.0 1564.0Q1824.0 1570.0 1789.0 1562.0Q1731.0 1588.0 1656.0 1617.5Q1581.0 1647.0 1502.0 1673.0Q1614.0 1696.0 1736.5 1706.0Q1859.0 1716.0 1981.0 1718.0L1984.0 1743.0Q1907.0 1769.0 1861.5 1833.0Q1816.0 1897.0 1799.0 1992.0Q1584.0 1948.0 1412.0 1873.5Q1240.0 1799.0 1117.0 1667.0Q1011.0 1721.0 844.5 1790.5Q678.0 1860.0 425.0 1956.0Q407.0 1998.0 368.0 2005.0L206.0 1702.0L480.0 1687.0V1184.0Q385.0 1246.0 275.0 1298.5Q165.0 1351.0 44.0 1392.0L30.0 1368.0Q186.0 1263.0 304.5 1113.5Q423.0 964.0 493.0 809.0H103.0L87.0 751.0H871.0V600.0H239.0L222.0 542.0H871.0V399.0H151.0L134.0 342.0H644.0Q621.0 268.0 572.0 194.5Q523.0 121.0 480.0 71.0L495.0 61.0Q655.0 50.0 743.5 80.5Q832.0 111.0 863.0 161.5Q894.0 212.0 880.0 262.5Q866.0 313.0 820.0 342.0H1115.0Q1137.0 274.0 1155.5 190.5Q1174.0 107.0 1183.0 43.0ZM1705.0 600.0H1158.0V751.0H1576.0ZM888.0 854.0 1216.0 880.0Q1214.0 897.0 1202.0 909.0Q1190.0 921.0 1158.0 928.0V1024.0H1259.0L1377.0 899.0Q1367.0 877.0 1356.5 854.5Q1346.0 832.0 1338.0 809.0H849.0Q821.0 858.0 786.5 904.0Q752.0 950.0 712.0 993.0L796.0 1024.0H888.0ZM1603.0 399.0H1158.0V542.0H1482.0ZM984.0 1407.0 988.0 1411.0H1277.0V1278.0H767.0V1411.0H978.0ZM1277.0 1220.0V1081.0H767.0V1220.0ZM1277.0 1468.0H1039.0Q1104.0 1530.0 1191.0 1573.5Q1278.0 1617.0 1381.0 1644.0Q1412.0 1611.0 1444.5 1573.5Q1477.0 1536.0 1506.0 1499.0Q1469.0 1511.0 1419.5 1522.5Q1370.0 1534.0 1328.0 1534.0H1277.0ZM982.0 1468.0H767.0V1669.0L1097.0 1644.0Q1031.0 1566.0 982.0 1468.0Z" fill="black"></path></svg>