<?xml version="1.0" standalone="no"?>
<!DOCTYPE svg PUBLIC "-//W3C//DTD SVG 1.1//EN" "http://www.w3.org/Graphics/SVG/1.1/DTD/svg11.dtd" >
<svg xmlns="http://www.w3.org/2000/svg" xmlns:svg="http://www.w3.org/2000/svg" xmlns:xlink="http://www.w3.org/1999/xlink" viewBox="0 0 2048 2048" style=""><path d="M865.0 51.0 1236.0 78.0Q1233.0 99.0 1219.0 114.0Q1205.0 129.0 1162.0 135.0V301.0H1519.0L1680.0 100.0Q1680.0 100.0 1710.0 122.0Q1740.0 144.0 1786.0 178.5Q1832.0 213.0 1882.5 252.0Q1933.0 291.0 1975.0 325.0Q1966.0 358.0 1914.0 358.0H85.0L69.0 301.0H865.0ZM607.0 1298.0V1194.0L882.0 1298.0H1142.0L1259.0 1173.0L1500.0 1353.0Q1493.0 1364.0 1474.5 1375.0Q1456.0 1386.0 1429.0 1392.0V1698.0L1566.0 1704.0Q1603.0 1704.0 1603.0 1667.0V1122.0H443.0V1900.0Q443.0 1915.0 406.5 1937.0Q370.0 1959.0 313.0 1977.0Q256.0 1995.0 196.0 1995.0H153.0V946.0L466.0 1065.0H1582.0L1709.0 921.0L1979.0 1126.0Q1970.0 1138.0 1951.0 1150.5Q1932.0 1163.0 1900.0 1169.0V1696.0Q1900.0 1784.0 1876.0 1846.5Q1852.0 1909.0 1777.5 1946.5Q1703.0 1984.0 1549.0 1997.0Q1545.0 1931.0 1536.5 1884.0Q1528.0 1837.0 1506.0 1806.0Q1489.0 1783.0 1467.0 1764.5Q1445.0 1746.0 1402.0 1732.0Q1370.0 1749.0 1313.5 1765.5Q1257.0 1782.0 1209.0 1782.0H1162.0V1669.0H874.0V1734.0Q874.0 1746.0 839.0 1765.0Q804.0 1784.0 751.0 1799.0Q698.0 1814.0 644.0 1814.0H607.0ZM1271.0 573.0H765.0V833.0H1271.0ZM474.0 516.0V401.0L777.0 516.0H1250.0L1377.0 375.0L1648.0 575.0Q1638.0 588.0 1619.0 601.0Q1600.0 614.0 1568.0 620.0V932.0Q1567.0 939.0 1524.5 953.0Q1482.0 967.0 1425.0 979.0Q1368.0 991.0 1322.0 991.0H1271.0V891.0H765.0V928.0Q765.0 940.0 727.5 961.0Q690.0 982.0 632.5 999.0Q575.0 1016.0 515.0 1016.0H474.0ZM1162.0 1356.0H874.0V1612.0H1162.0Z" fill="black"></path></svg>