<?xml version="1.0" standalone="no"?>
<!DOCTYPE svg PUBLIC "-//W3C//DTD SVG 1.1//EN" "http://www.w3.org/Graphics/SVG/1.1/DTD/svg11.dtd" >
<svg xmlns="http://www.w3.org/2000/svg" xmlns:svg="http://www.w3.org/2000/svg" xmlns:xlink="http://www.w3.org/1999/xlink" viewBox="0 0 2048 2048" style=""><path d="M589.0 1578.0Q699.0 1632.0 750.5 1690.0Q802.0 1748.0 808.5 1801.0Q815.0 1854.0 791.0 1893.5Q767.0 1933.0 724.5 1950.0Q682.0 1967.0 635.0 1953.5Q588.0 1940.0 550.0 1887.0Q571.0 1810.0 575.0 1729.0Q579.0 1648.0 566.0 1584.0ZM869.0 1561.0Q992.0 1595.0 1057.0 1643.0Q1122.0 1691.0 1142.0 1742.0Q1162.0 1793.0 1148.0 1836.5Q1134.0 1880.0 1097.5 1904.5Q1061.0 1929.0 1013.0 1925.0Q965.0 1921.0 919.0 1877.0Q923.0 1797.0 901.5 1714.0Q880.0 1631.0 851.0 1572.0ZM1197.0 1561.0Q1354.0 1575.0 1418.5 1625.5Q1483.0 1676.0 1486.0 1729.0H1490.0Q1528.0 1729.0 1541.0 1719.0Q1558.0 1707.0 1572.5 1661.0Q1587.0 1615.0 1596.0 1531.0H638.0Q636.0 1544.0 580.0 1573.0Q524.0 1602.0 427.0 1606.0Q461.0 1752.0 416.0 1848.0Q371.0 1944.0 294.0 1975.0Q232.0 1998.0 169.0 1973.0Q106.0 1948.0 89.0 1881.0Q75.0 1815.0 110.5 1771.5Q146.0 1728.0 202.0 1707.0Q243.0 1694.0 286.0 1667.5Q329.0 1641.0 353.0 1602.0V822.0Q329.0 830.0 299.0 836.0Q269.0 842.0 239.0 842.0H210.0V584.0Q143.0 616.0 73.0 638.0L56.0 621.0Q125.0 561.0 179.5 466.5Q234.0 372.0 259.0 277.0L306.0 285.0V255.0H95.0L83.0 197.0H306.0V52.0L605.0 79.0Q604.0 97.0 592.5 111.5Q581.0 126.0 550.0 132.0V197.0H671.0V52.0L974.0 79.0Q972.0 95.0 959.5 110.5Q947.0 126.0 914.0 132.0V197.0H951.0L1037.0 89.0Q1037.0 89.0 1067.0 110.0Q1097.0 131.0 1138.0 162.0Q1179.0 193.0 1211.0 222.0Q1202.0 255.0 1158.0 255.0H914.0V275.0Q914.0 286.0 873.0 305.0Q832.0 324.0 720.0 324.0H671.0V255.0H550.0V281.0Q550.0 287.0 535.5 299.0Q521.0 311.0 482.0 318.0L564.0 335.0Q560.0 351.0 544.5 359.0Q529.0 367.0 490.0 365.0L466.0 394.0H832.0L943.0 290.0L1146.0 451.0Q1125.0 475.0 1072.0 484.0Q1068.0 599.0 1058.0 669.5Q1048.0 740.0 1028.0 780.5Q1008.0 821.0 972.0 845.0Q933.0 869.0 885.0 878.5Q837.0 888.0 769.0 888.0Q769.0 845.0 764.0 813.5Q759.0 782.0 740.0 759.0Q725.0 771.0 671.0 786.5Q617.0 802.0 574.0 802.0H536.0V750.0H423.0V779.0Q423.0 790.0 384.0 810.0L669.0 912.0H1334.0L1461.0 771.0Q1461.0 771.0 1500.5 797.5Q1540.0 824.0 1594.5 862.5Q1649.0 901.0 1695.0 937.0Q1686.0 969.0 1637.0 969.0H1486.0Q1520.0 993.0 1582.0 1037.0Q1644.0 1081.0 1695.0 1121.0Q1686.0 1154.0 1637.0 1154.0H1482.0Q1514.0 1175.0 1578.0 1220.5Q1642.0 1266.0 1695.0 1307.0Q1686.0 1340.0 1637.0 1340.0H1164.0V1473.0H1582.0L1717.0 1350.0L1953.0 1541.0Q1942.0 1553.0 1924.0 1562.0Q1906.0 1571.0 1875.0 1576.0Q1860.0 1737.0 1826.0 1822.5Q1792.0 1908.0 1721.0 1948.0Q1629.0 1998.0 1496.0 1998.0Q1496.0 1942.0 1490.5 1895.0Q1485.0 1848.0 1469.0 1823.0L1459.0 1809.0Q1428.0 1844.0 1375.0 1852.0Q1322.0 1860.0 1267.0 1815.0Q1270.0 1749.0 1244.0 1682.0Q1218.0 1615.0 1181.0 1574.0ZM536.0 693.0V582.0H423.0V693.0ZM519.0 525.0 591.0 451.0H409.0L353.0 496.0L429.0 525.0ZM644.0 451.0 810.0 572.0Q796.0 594.0 753.0 603.0V683.0H773.0Q808.0 683.0 818.0 673.0Q830.0 660.0 838.0 608.0Q846.0 556.0 851.0 451.0ZM1539.0 335.0H1404.0L1344.0 400.0Q1391.0 465.0 1459.0 515.0Q1510.0 434.0 1539.0 335.0ZM1269.0 50.0 1598.0 140.0Q1594.0 157.0 1578.0 163.0Q1562.0 169.0 1525.0 165.0Q1490.0 224.0 1449.0 277.0H1621.0L1754.0 115.0Q1754.0 115.0 1794.0 144.5Q1834.0 174.0 1889.5 217.5Q1945.0 261.0 1992.0 302.0Q1983.0 335.0 1934.0 335.0H1832.0Q1771.0 492.0 1639.0 605.0Q1713.0 631.0 1799.5 648.5Q1886.0 666.0 1988.0 677.0L1983.0 697.0Q1916.0 728.0 1883.0 785.0Q1850.0 842.0 1844.0 933.0Q1720.0 899.0 1630.0 844.5Q1540.0 790.0 1474.0 718.0Q1384.0 765.0 1277.5 800.5Q1171.0 836.0 1050.0 861.0L1041.0 836.0Q1263.0 744.0 1390.0 605.0Q1365.0 567.0 1344.5 524.5Q1324.0 482.0 1306.0 437.0Q1261.0 477.0 1210.5 513.0Q1160.0 549.0 1105.0 578.0L1086.0 564.0Q1133.0 503.0 1169.5 416.5Q1206.0 330.0 1231.0 234.5Q1256.0 139.0 1269.0 50.0ZM640.0 1473.0H884.0V1340.0H640.0ZM640.0 969.0V1096.0H884.0V969.0ZM640.0 1154.0V1283.0H884.0V1154.0ZM1447.0 969.0H1164.0V1096.0H1334.0ZM1449.0 1154.0H1164.0V1283.0H1334.0Z" fill="black"></path></svg>