<?xml version="1.0" standalone="no"?>
<!DOCTYPE svg PUBLIC "-//W3C//DTD SVG 1.1//EN" "http://www.w3.org/Graphics/SVG/1.1/DTD/svg11.dtd" >
<svg xmlns="http://www.w3.org/2000/svg" xmlns:svg="http://www.w3.org/2000/svg" xmlns:xlink="http://www.w3.org/1999/xlink" viewBox="0 0 2048 2048" style=""><path d="M272.5 1303.5Q358.5 1391.5 382.0 1471.5Q405.5 1551.5 389.0 1606.0Q372.5 1660.5 337.0 1675.0Q301.5 1689.5 268.5 1647.5Q282.5 1567.5 272.5 1473.0Q262.5 1378.5 242.5 1311.5ZM375.5 1260.5Q481.5 1333.5 519.5 1405.0Q557.5 1476.5 550.0 1529.0Q542.5 1581.5 509.0 1598.0Q475.5 1614.5 438.5 1577.5Q438.5 1503.5 409.5 1417.0Q380.5 1330.5 348.5 1270.5ZM164.5 1325.5H192.5Q238.5 1467.5 238.0 1557.5Q237.5 1647.5 209.5 1694.0Q181.5 1740.5 143.5 1751.5Q105.5 1762.5 75.0 1745.5Q44.5 1728.5 38.5 1690.0Q32.5 1651.5 70.5 1600.5Q157.5 1525.5 164.5 1325.5ZM1431.5 203.5H1694.5L1806.5 62.5Q1806.5 62.5 1842.0 89.5Q1877.5 116.5 1926.0 155.0Q1974.5 193.5 2013.5 227.5Q2004.5 260.5 1958.5 260.5H1448.5ZM1085.5 428.5 1218.5 445.5Q1215.5 469.5 1184.5 477.5V619.5Q1184.5 628.5 1157.5 643.5Q1130.5 658.5 1106.5 658.5H1085.5ZM1646.5 428.5 1780.5 445.5Q1776.5 469.5 1745.5 477.5V619.5Q1745.5 628.5 1719.5 643.5Q1693.5 658.5 1667.5 658.5H1646.5ZM346.5 264.5V494.5H414.5V264.5ZM1816.5 1368.5 1984.5 1542.5Q1967.5 1563.5 1923.5 1544.5Q1886.5 1560.5 1823.0 1580.0Q1759.5 1599.5 1690.5 1614.5V1706.5Q1690.5 1735.5 1720.5 1735.5H1778.5Q1793.5 1735.5 1807.5 1735.0Q1821.5 1734.5 1829.5 1733.5Q1838.5 1733.5 1848.0 1731.5Q1857.5 1729.5 1864.5 1723.5Q1889.5 1697.5 1919.5 1614.5H1941.5L1948.5 1723.5Q1984.5 1739.5 1997.0 1758.0Q2009.5 1776.5 2009.5 1806.5Q2009.5 1863.5 1952.5 1897.5Q1895.5 1931.5 1755.5 1931.5H1657.5Q1585.5 1931.5 1551.0 1916.5Q1516.5 1901.5 1506.0 1865.0Q1495.5 1828.5 1495.5 1766.5V1743.5Q1378.5 1810.5 1134.5 1929.5Q1127.5 1949.5 1113.0 1961.0Q1098.5 1972.5 1081.5 1976.5L983.5 1753.5L1110.5 1745.5V1331.5L1343.5 1352.5Q1340.5 1381.5 1302.5 1389.5V1516.5L1370.5 1417.5Q1370.5 1417.5 1392.0 1437.5Q1413.5 1457.5 1441.5 1486.5Q1469.5 1515.5 1491.5 1540.5Q1485.5 1573.5 1442.5 1573.5H1302.5V1731.5L1495.5 1712.5V1327.5L1739.5 1350.5V1292.5H1104.5Q1093.5 1407.5 1062.0 1531.5Q1030.5 1655.5 965.0 1772.5Q899.5 1889.5 786.5 1985.5L764.5 1966.5Q824.5 1839.5 853.5 1700.0Q882.5 1560.5 891.5 1420.5Q900.5 1280.5 901.5 1151.5Q880.5 1172.5 833.5 1178.5Q824.5 1417.5 808.0 1562.5Q791.5 1707.5 763.0 1785.0Q734.5 1862.5 688.5 1899.5Q606.5 1966.5 469.5 1966.5Q469.5 1919.5 464.5 1882.0Q459.5 1844.5 440.5 1823.5Q407.5 1778.5 326.5 1757.5V1729.5Q361.5 1732.5 408.5 1735.0Q455.5 1737.5 481.5 1737.5Q520.5 1737.5 539.5 1718.5Q560.5 1700.5 576.0 1636.5Q591.5 1572.5 602.5 1452.5Q587.5 1448.5 575.5 1440.5Q568.5 1386.5 527.5 1328.5Q486.5 1270.5 440.5 1235.5L463.5 1219.5Q564.5 1243.5 614.5 1286.5L620.5 1143.5H346.5V1206.5Q346.5 1219.5 299.0 1246.0Q251.5 1272.5 170.5 1272.5H131.5V115.5L373.5 207.5H612.5L723.5 66.5Q723.5 66.5 750.0 87.0Q776.5 107.5 815.5 139.0Q854.5 170.5 891.5 203.5H1126.5L1235.5 66.5Q1235.5 66.5 1269.5 92.5Q1303.5 118.5 1350.0 156.5Q1396.5 194.5 1434.5 227.5Q1428.5 260.5 1380.5 260.5H895.5Q889.5 262.5 883.0 263.5Q876.5 264.5 868.5 264.5H618.5V492.5L706.5 373.5Q706.5 373.5 735.0 397.0Q763.5 420.5 801.5 454.5Q839.5 488.5 868.5 518.5Q862.5 551.5 817.5 551.5H618.5V780.5L706.5 662.5Q706.5 662.5 735.0 686.0Q763.5 709.5 801.5 743.0Q839.5 776.5 868.5 807.5Q862.5 840.5 817.5 840.5H618.5V1067.5L713.5 975.5L901.5 1133.5V1071.5V729.5L1145.5 819.5H1309.5V688.5Q1295.5 691.5 1282.0 694.0Q1268.5 696.5 1257.5 696.5H1231.5V408.5H1044.5V662.5Q1044.5 671.5 1009.5 691.5Q974.5 711.5 917.5 711.5H891.5V277.5L1069.5 350.5H1216.5L1288.5 279.5L1436.5 391.5Q1429.5 397.5 1416.5 405.5Q1403.5 413.5 1384.5 416.5V649.5Q1384.5 658.5 1345.5 676.5L1444.5 684.5V277.5L1624.5 350.5H1782.5L1857.5 273.5L2017.5 393.5Q2011.5 401.5 1997.0 409.5Q1982.5 417.5 1962.5 420.5V641.5Q1961.5 648.5 1938.0 660.0Q1914.5 671.5 1882.5 680.0Q1850.5 688.5 1825.5 688.5H1804.5Q1810.5 693.5 1844.0 719.5Q1877.5 745.5 1920.5 779.5Q1963.5 813.5 1999.5 844.5Q1990.5 877.5 1943.5 877.5H1667.5V1006.5H1722.5L1808.5 918.5L1989.5 1051.5Q1975.5 1071.5 1931.5 1081.5V1301.5Q1930.5 1308.5 1903.5 1320.5Q1876.5 1332.5 1839.5 1342.5Q1802.5 1352.5 1771.5 1352.5H1749.5Q1742.5 1392.5 1690.5 1401.5V1510.5Q1728.5 1470.5 1763.0 1432.0Q1797.5 1393.5 1816.5 1368.5ZM346.5 551.5V782.5H414.5V551.5ZM346.5 840.5V1086.5H414.5V840.5ZM1112.5 1063.5V1071.5Q1112.5 1108.5 1112.0 1150.0Q1111.5 1191.5 1108.5 1235.5H1182.5V1063.5ZM1112.5 1006.5H1182.5V877.5H1112.5ZM1739.5 1063.5H1667.5V1235.5H1739.5ZM1462.5 1063.5H1382.5V1235.5H1462.5ZM1462.5 1006.5V877.5H1382.5V1006.5ZM1526.5 819.5H1694.5L1800.5 688.5H1796.5V408.5H1599.5V645.5Q1599.5 651.5 1573.5 668.0Q1547.5 684.5 1501.5 690.5L1567.5 696.5Q1564.5 710.5 1556.0 720.0Q1547.5 729.5 1526.5 733.5Z" fill="black"></path></svg>