<?xml version="1.0" standalone="no"?>
<!DOCTYPE svg PUBLIC "-//W3C//DTD SVG 1.1//EN" "http://www.w3.org/Graphics/SVG/1.1/DTD/svg11.dtd" >
<svg xmlns="http://www.w3.org/2000/svg" xmlns:svg="http://www.w3.org/2000/svg" xmlns:xlink="http://www.w3.org/1999/xlink" viewBox="0 0 2048 2048" style=""><path d="M1626.5 61.0 1895.5 248.0Q1882.5 263.0 1865.0 266.5Q1847.5 270.0 1813.5 262.0Q1662.5 333.0 1489.5 381.0Q1316.5 429.0 1145.5 452.0L1131.5 424.0Q1271.5 359.0 1396.0 266.0Q1520.5 173.0 1626.5 61.0ZM1669.5 350.0 1934.5 528.0Q1914.5 557.0 1854.5 542.0Q1702.5 616.0 1527.0 661.0Q1351.5 706.0 1178.5 725.0L1164.5 694.0Q1309.5 636.0 1436.5 548.5Q1563.5 461.0 1669.5 350.0ZM1665.5 633.0 1960.5 825.0Q1938.5 853.0 1876.5 841.0Q1707.5 934.0 1516.5 986.5Q1325.5 1039.0 1129.5 1061.0L1116.5 1032.0Q1440.5 898.0 1665.5 633.0ZM1186.5 1077.0Q1325.5 1050.0 1406.0 1067.0Q1486.5 1084.0 1518.5 1124.5Q1550.5 1165.0 1544.0 1210.5Q1537.5 1256.0 1501.5 1288.0H1583.5L1721.5 1118.0Q1721.5 1118.0 1747.0 1137.0Q1772.5 1156.0 1812.0 1185.5Q1851.5 1215.0 1894.5 1249.0Q1937.5 1283.0 1973.5 1313.0Q1964.5 1345.0 1915.5 1345.0H1321.5L1590.5 1495.0Q1580.5 1510.0 1562.0 1516.5Q1543.5 1523.0 1510.5 1517.0Q1442.5 1594.0 1362.5 1657.0Q1504.5 1681.0 1662.0 1687.5Q1819.5 1694.0 1981.5 1691.0L1983.5 1716.0Q1897.5 1747.0 1847.5 1818.5Q1797.5 1890.0 1780.5 1995.0Q1586.5 1968.0 1422.0 1924.0Q1257.5 1880.0 1127.5 1800.0Q965.5 1880.0 765.5 1930.0Q565.5 1980.0 336.5 1992.0L328.5 1966.0Q515.5 1918.0 677.0 1844.5Q838.5 1771.0 967.5 1677.0Q879.5 1592.0 819.5 1483.0Q709.5 1638.0 530.0 1770.0Q350.5 1902.0 78.5 1992.0L64.5 1972.0Q274.5 1843.0 403.5 1678.5Q532.5 1514.0 602.5 1345.0H82.5L66.5 1288.0H625.5Q650.5 1220.0 667.5 1153.5Q684.5 1087.0 695.5 1024.0L1065.5 1112.0Q1059.5 1133.0 1040.0 1145.5Q1020.5 1158.0 983.5 1157.0Q973.5 1189.0 960.5 1222.5Q947.5 1256.0 932.5 1288.0H1325.5Q1302.5 1231.0 1259.0 1175.5Q1215.5 1120.0 1172.5 1089.0ZM903.5 1345.0Q881.5 1388.0 852.5 1435.0Q898.5 1481.0 957.5 1517.0Q1016.5 1553.0 1084.5 1581.0Q1144.5 1526.0 1193.0 1467.0Q1241.5 1408.0 1278.5 1345.0ZM760.5 778.0Q896.5 764.0 980.0 784.5Q1063.5 805.0 1103.5 845.0Q1143.5 885.0 1147.0 930.0Q1150.5 975.0 1125.5 1011.5Q1100.5 1048.0 1055.0 1061.0Q1009.5 1074.0 951.5 1048.0Q938.5 1018.0 919.5 986.5Q900.5 955.0 877.5 925.0Q779.5 961.0 640.5 1006.5Q501.5 1052.0 305.5 1112.0Q296.5 1132.0 281.5 1143.0Q266.5 1154.0 250.5 1157.0L115.5 901.0L346.5 897.0L367.5 764.0H84.5L68.5 706.0H314.5V200.0V92.0L609.5 200.0H809.5L932.5 53.0Q932.5 53.0 971.5 81.0Q1010.5 109.0 1063.5 149.0Q1116.5 189.0 1159.5 225.0Q1153.5 258.0 1104.5 258.0H928.5Q957.5 279.0 1008.5 317.0Q1059.5 355.0 1100.5 389.0Q1094.5 422.0 1047.5 422.0H920.5Q946.5 440.0 1001.5 481.0Q1056.5 522.0 1100.5 559.0Q1094.5 592.0 1047.5 592.0H983.5Q1016.5 613.0 1072.5 653.5Q1128.5 694.0 1174.5 731.0Q1165.5 764.0 1118.5 764.0H654.5Q609.5 797.0 561.5 831.0Q513.5 865.0 467.5 893.0L838.5 878.0Q789.5 827.0 746.5 792.0ZM582.5 706.0H838.5L940.5 592.0H582.5ZM582.5 258.0V364.0H797.5L887.5 258.0ZM582.5 534.0H797.5L893.5 422.0H582.5Z" fill="black"></path></svg>