<?xml version="1.0" standalone="no"?>
<!DOCTYPE svg PUBLIC "-//W3C//DTD SVG 1.1//EN" "http://www.w3.org/Graphics/SVG/1.1/DTD/svg11.dtd" >
<svg xmlns="http://www.w3.org/2000/svg" xmlns:svg="http://www.w3.org/2000/svg" xmlns:xlink="http://www.w3.org/1999/xlink" viewBox="0 0 2048 2048" style=""><path d="M1637.0 52.0 1865.0 220.0Q1845.0 245.0 1785.0 230.0Q1627.0 285.0 1448.0 319.0Q1269.0 353.0 1097.0 363.0L1080.0 330.0Q1387.0 236.0 1637.0 52.0ZM1672.0 267.0 1899.0 427.0Q1879.0 453.0 1822.0 439.0Q1674.0 496.0 1504.0 527.5Q1334.0 559.0 1168.0 570.0L1152.0 537.0Q1295.0 493.0 1428.5 424.5Q1562.0 356.0 1672.0 267.0ZM1082.0 1785.0Q1156.0 1781.0 1221.0 1780.0Q1286.0 1779.0 1342.0 1780.0V1750.0H888.0L1050.0 1854.0Q1022.0 1893.0 937.0 1875.0Q846.0 1913.0 715.0 1940.5Q584.0 1968.0 437.5 1983.5Q291.0 1999.0 153.0 2000.0L146.0 1969.0Q302.0 1935.0 458.5 1875.5Q615.0 1816.0 726.0 1750.0H687.0Q686.0 1756.0 629.5 1774.5Q573.0 1793.0 470.0 1793.0H421.0V1330.0Q341.0 1335.0 261.0 1337.5Q181.0 1340.0 101.0 1340.0L95.0 1301.0Q292.0 1286.0 499.0 1254.0Q706.0 1222.0 896.0 1180.0V1049.0H710.0L818.0 1146.0Q790.0 1171.0 720.0 1146.0Q637.0 1172.0 512.0 1196.0Q387.0 1220.0 267.0 1228.0L255.0 1193.0Q343.0 1168.0 435.5 1128.5Q528.0 1089.0 597.0 1049.0H431.0L415.0 992.0H1349.0L1398.0 943.0H368.0Q378.0 1037.0 342.0 1097.5Q306.0 1158.0 251.0 1176.0Q200.0 1192.0 152.0 1173.5Q104.0 1155.0 93.0 1103.0Q82.0 1050.0 111.5 1016.5Q141.0 983.0 185.0 967.0Q227.0 954.0 260.5 920.5Q294.0 887.0 300.0 842.0L269.0 849.0Q260.0 869.0 245.5 879.0Q231.0 889.0 216.0 892.0L110.0 677.0L286.0 679.0L298.0 601.0H69.0L52.0 543.0H286.0V79.0L517.0 167.0H802.0L904.0 46.0Q904.0 46.0 936.5 69.5Q969.0 93.0 1014.0 127.0Q1059.0 161.0 1097.0 191.0Q1088.0 224.0 1041.0 224.0H912.0Q938.0 242.0 970.5 267.5Q1003.0 293.0 1031.0 316.0Q1022.0 349.0 978.0 349.0H912.0Q938.0 367.0 970.5 392.5Q1003.0 418.0 1031.0 441.0Q1027.0 457.0 1017.0 460.0Q1046.0 481.0 1086.0 511.5Q1126.0 542.0 1160.0 568.0Q1154.0 601.0 1107.0 601.0H820.0Q932.0 624.0 969.5 673.0Q1007.0 722.0 994.0 767.0L1107.0 775.0L1097.0 750.0Q1267.0 715.0 1412.0 652.5Q1557.0 590.0 1678.0 490.0L1936.0 654.0Q1915.0 684.0 1854.0 670.0Q1702.0 730.0 1535.5 756.0Q1369.0 782.0 1195.0 783.0Q1193.0 797.0 1184.0 807.0Q1175.0 817.0 1152.0 822.0V885.0H1664.0L1785.0 763.0L1996.0 965.0Q1985.0 978.0 1967.0 982.5Q1949.0 987.0 1918.0 990.0Q1870.0 1030.0 1797.0 1075.0Q1724.0 1120.0 1660.0 1148.0L1641.0 1135.0Q1652.0 1097.0 1662.5 1043.5Q1673.0 990.0 1680.0 943.0H1531.0L1641.0 1017.0Q1633.0 1049.0 1586.0 1049.0H1492.0L1625.0 1170.0Q1595.0 1201.0 1512.0 1170.0L1453.0 1185.0L1672.0 1346.0Q1664.0 1356.0 1650.0 1364.0Q1636.0 1372.0 1615.0 1377.0V1740.0Q1613.0 1747.0 1581.0 1760.5Q1549.0 1774.0 1504.0 1787.0Q1660.0 1798.0 1741.5 1823.5Q1823.0 1849.0 1846.0 1879.5Q1869.0 1910.0 1850.5 1938.0Q1832.0 1966.0 1787.0 1984.0Q1742.0 2002.0 1686.5 2001.5Q1631.0 2001.0 1582.0 1973.0Q1505.0 1938.0 1373.0 1890.0Q1241.0 1842.0 1076.0 1811.0ZM517.0 543.0H871.0L933.0 474.0H517.0ZM710.0 601.0H531.0Q502.0 621.0 470.5 640.5Q439.0 660.0 407.0 677.0L759.0 673.0Q746.0 653.0 734.0 634.5Q722.0 616.0 710.0 601.0ZM517.0 224.0V292.0H787.0L847.0 224.0ZM517.0 417.0H787.0L847.0 349.0H517.0ZM785.0 732.0Q701.0 752.0 590.5 777.0Q480.0 802.0 339.0 834.0L357.0 885.0H886.0V845.0Q867.0 843.0 847.5 836.5Q828.0 830.0 808.0 816.0Q805.0 774.0 785.0 732.0ZM1142.0 1049.0V1119.0Q1205.0 1102.0 1261.5 1085.0Q1318.0 1068.0 1369.0 1049.0ZM826.0 1293.0H1326.0L1422.0 1193.0Q1293.0 1222.0 1142.0 1247.5Q991.0 1273.0 826.0 1293.0ZM1342.0 1481.0H687.0V1557.0H1342.0ZM1342.0 1424.0V1350.0H687.0V1424.0ZM1342.0 1615.0H687.0V1692.0H1342.0Z" fill="black"></path></svg>