<?xml version="1.0" standalone="no"?>
<!DOCTYPE svg PUBLIC "-//W3C//DTD SVG 1.1//EN" "http://www.w3.org/Graphics/SVG/1.1/DTD/svg11.dtd" >
<svg xmlns="http://www.w3.org/2000/svg" xmlns:svg="http://www.w3.org/2000/svg" xmlns:xlink="http://www.w3.org/1999/xlink" viewBox="0 0 2048 2048" style=""><path d="M338.5 519.0V992.0H459.5V519.0ZM267.5 62.0 643.5 111.0Q632.5 165.0 562.5 171.0Q535.5 212.0 499.0 263.5Q462.5 315.0 424.0 366.0Q385.5 417.0 355.5 457.0L365.5 461.0H439.5L559.5 330.0L799.5 517.0Q790.5 528.0 772.0 539.0Q753.5 550.0 725.5 556.0V1612.0Q724.5 1622.0 688.5 1639.0Q652.5 1656.0 601.5 1670.0Q550.5 1684.0 504.5 1684.0H459.5V1600.0H338.5V1729.0Q338.5 1743.0 282.0 1776.0Q225.5 1809.0 123.5 1809.0H76.5V355.0L252.5 421.0Q257.5 341.0 261.5 241.5Q265.5 142.0 267.5 62.0ZM338.5 1049.0V1543.0H459.5V1049.0ZM1065.5 736.0V1035.0H1194.5V736.0ZM1065.5 679.0H1194.5V392.0H1065.5ZM1581.5 736.0H1438.5V1035.0H1581.5ZM1581.5 679.0V392.0H1438.5V679.0ZM1127.5 48.0 1557.5 103.0Q1546.5 158.0 1473.5 165.0Q1427.5 200.0 1359.5 248.0Q1291.5 296.0 1235.5 334.0H1573.5L1698.5 191.0L1934.5 371.0Q1923.5 385.0 1905.5 395.5Q1887.5 406.0 1852.5 412.0V1096.0Q1852.5 1106.0 1793.0 1131.0Q1733.5 1156.0 1629.5 1156.0H1581.5V1092.0H1512.5V1469.0L1563.5 1467.0Q1574.5 1399.0 1583.0 1318.0Q1591.5 1237.0 1596.5 1174.0L1866.5 1242.0Q1862.5 1260.0 1844.5 1272.5Q1826.5 1285.0 1792.5 1285.0Q1763.5 1325.0 1722.5 1372.0Q1681.5 1419.0 1637.5 1465.0L1762.5 1459.0Q1757.5 1434.0 1752.5 1413.0Q1747.5 1392.0 1741.5 1375.0L1764.5 1367.0Q1852.5 1402.0 1895.0 1443.5Q1937.5 1485.0 1945.0 1524.5Q1952.5 1564.0 1935.0 1594.5Q1917.5 1625.0 1887.5 1639.0L1893.5 1715.0Q1939.5 1735.0 1955.5 1758.0Q1971.5 1781.0 1971.5 1815.0Q1971.5 1886.0 1899.5 1918.0Q1827.5 1950.0 1629.5 1950.0H1487.5Q1394.5 1950.0 1347.5 1932.0Q1300.5 1914.0 1284.5 1870.0Q1268.5 1826.0 1268.5 1750.0V1092.0H1235.5Q1219.5 1318.0 1146.5 1494.0Q1073.5 1670.0 917.0 1797.0Q760.5 1924.0 494.5 2000.0L486.5 1977.0Q655.5 1879.0 752.0 1759.0Q848.5 1639.0 892.5 1496.5Q936.5 1354.0 947.5 1189.0Q927.5 1192.0 904.5 1194.5Q881.5 1197.0 854.5 1197.0H807.5V230.0L1088.5 334.0H1121.5Q1124.5 275.0 1126.0 193.0Q1127.5 111.0 1127.5 48.0ZM1766.5 1551.0 1631.5 1651.0Q1621.5 1673.0 1607.0 1683.0Q1592.5 1693.0 1575.5 1696.0L1512.5 1533.0V1692.0Q1512.5 1712.0 1520.5 1720.5Q1528.5 1729.0 1559.5 1729.0H1657.5Q1682.5 1729.0 1705.5 1729.0Q1728.5 1729.0 1743.5 1727.0Q1771.5 1727.0 1792.5 1715.0Q1811.5 1693.0 1837.5 1645.0Q1793.5 1642.0 1760.5 1602.0Z" fill="black"></path></svg>