<?xml version="1.0" standalone="no"?>
<!DOCTYPE svg PUBLIC "-//W3C//DTD SVG 1.1//EN" "http://www.w3.org/Graphics/SVG/1.1/DTD/svg11.dtd" >
<svg xmlns="http://www.w3.org/2000/svg" xmlns:svg="http://www.w3.org/2000/svg" xmlns:xlink="http://www.w3.org/1999/xlink" viewBox="0 0 2048 2048" style=""><path d="M93.0 306.0H415.0L552.0 126.0Q552.0 126.0 577.0 145.5Q602.0 165.0 641.5 196.5Q681.0 228.0 723.5 263.5Q766.0 299.0 802.0 330.0Q793.0 363.0 742.0 363.0H109.0ZM1154.0 48.0 1584.0 103.0Q1573.0 158.0 1500.0 165.0Q1454.0 200.0 1386.0 248.0Q1318.0 296.0 1263.0 334.0H1609.0L1742.0 185.0L1985.0 371.0Q1975.0 385.0 1957.0 395.5Q1939.0 406.0 1904.0 412.0V1105.0Q1904.0 1114.0 1841.5 1140.0Q1779.0 1166.0 1668.0 1166.0H1617.0V1092.0H1553.0V1469.0L1615.0 1467.0Q1626.0 1399.0 1634.5 1318.0Q1643.0 1237.0 1648.0 1174.0L1918.0 1242.0Q1913.0 1260.0 1895.5 1272.5Q1878.0 1285.0 1844.0 1285.0Q1815.0 1323.0 1774.0 1371.0Q1733.0 1419.0 1689.0 1465.0L1822.0 1457.0Q1815.0 1407.0 1803.0 1375.0L1826.0 1367.0Q1918.0 1404.0 1960.0 1448.0Q2002.0 1492.0 2007.0 1532.5Q2012.0 1573.0 1991.0 1602.5Q1970.0 1632.0 1936.0 1641.0L1942.0 1715.0Q1990.0 1735.0 2006.0 1760.0Q2022.0 1785.0 2022.0 1819.0Q2022.0 1895.0 1947.5 1928.0Q1873.0 1961.0 1670.0 1961.0H1525.0Q1428.0 1961.0 1379.5 1942.5Q1331.0 1924.0 1314.0 1878.5Q1297.0 1833.0 1297.0 1752.0V1092.0H1265.0Q1246.0 1317.0 1171.0 1493.5Q1096.0 1670.0 936.5 1797.5Q777.0 1925.0 507.0 2000.0L499.0 1977.0Q668.0 1879.0 764.5 1758.5Q861.0 1638.0 905.5 1495.5Q950.0 1353.0 961.0 1189.0Q940.0 1193.0 915.5 1195.0Q891.0 1197.0 865.0 1197.0H816.0V793.0Q800.0 797.0 787.0 797.0H546.0Q506.0 893.0 456.0 990.0Q410.0 1082.0 359.0 1167.0Q308.0 1252.0 257.0 1320.0L533.0 1279.0Q506.0 1124.0 456.0 990.0L476.0 982.0Q622.0 1054.0 701.5 1138.0Q781.0 1222.0 807.0 1304.0Q833.0 1386.0 819.0 1452.0Q805.0 1518.0 763.5 1555.5Q722.0 1593.0 665.0 1589.0Q608.0 1585.0 550.0 1524.0Q551.0 1486.0 550.5 1447.5Q550.0 1409.0 546.0 1369.0Q489.0 1422.0 411.5 1488.5Q334.0 1555.0 234.0 1633.0Q215.0 1679.0 173.0 1688.0L26.0 1348.0L189.0 1328.0Q202.0 1258.0 212.5 1167.0Q223.0 1076.0 231.5 979.5Q240.0 883.0 245.0 797.0H64.0L48.0 740.0H456.0L593.0 558.0Q593.0 558.0 629.0 586.5Q665.0 615.0 717.0 657.0Q769.0 699.0 816.0 740.0V224.0L1111.0 334.0H1148.0Q1151.0 275.0 1152.5 193.0Q1154.0 111.0 1154.0 48.0ZM1088.0 736.0V1035.0H1226.0V736.0ZM1088.0 679.0H1226.0V392.0H1088.0ZM1617.0 736.0H1482.0V1035.0H1617.0ZM1617.0 679.0V392.0H1482.0V679.0ZM1828.0 1537.0 1676.0 1651.0Q1667.0 1673.0 1652.5 1683.0Q1638.0 1693.0 1621.0 1696.0L1553.0 1522.0V1692.0Q1553.0 1712.0 1562.0 1720.5Q1571.0 1729.0 1600.0 1729.0H1701.0Q1725.0 1729.0 1748.0 1729.0Q1771.0 1729.0 1787.0 1727.0Q1799.0 1727.0 1813.0 1723.5Q1827.0 1720.0 1838.0 1713.0Q1847.0 1705.0 1859.0 1686.5Q1871.0 1668.0 1885.0 1643.0Q1854.0 1637.0 1822.0 1602.0Q1828.0 1571.0 1828.0 1537.0Z" fill="black"></path></svg>