<?xml version="1.0" standalone="no"?>
<!DOCTYPE svg PUBLIC "-//W3C//DTD SVG 1.1//EN" "http://www.w3.org/Graphics/SVG/1.1/DTD/svg11.dtd" >
<svg xmlns="http://www.w3.org/2000/svg" xmlns:svg="http://www.w3.org/2000/svg" xmlns:xlink="http://www.w3.org/1999/xlink" viewBox="0 0 2048 2048" style=""><path d="M335.5 1420.0 357.5 1418.0Q421.5 1551.0 422.0 1656.0Q422.5 1761.0 381.0 1830.0Q339.5 1899.0 276.5 1924.0Q210.5 1950.0 145.0 1923.0Q79.5 1896.0 61.5 1823.0Q45.5 1751.0 83.5 1703.5Q121.5 1656.0 181.5 1633.0Q238.5 1612.0 289.5 1554.5Q340.5 1497.0 335.5 1420.0ZM552.5 1424.0Q669.5 1488.0 725.0 1557.0Q780.5 1626.0 789.0 1689.5Q797.5 1753.0 773.0 1801.0Q748.5 1849.0 704.0 1871.5Q659.5 1894.0 608.5 1881.0Q557.5 1868.0 513.5 1809.0Q541.5 1714.0 544.0 1614.0Q546.5 1514.0 530.5 1432.0ZM808.5 1408.0Q948.5 1441.0 1025.5 1493.5Q1102.5 1546.0 1129.5 1604.0Q1156.5 1662.0 1145.0 1712.5Q1133.5 1763.0 1096.0 1794.5Q1058.5 1826.0 1006.5 1824.5Q954.5 1823.0 900.5 1776.0Q900.5 1683.0 867.0 1586.0Q833.5 1489.0 790.5 1418.0ZM1097.5 1369.0Q1231.5 1359.0 1311.5 1382.5Q1391.5 1406.0 1427.0 1447.0Q1462.5 1488.0 1461.5 1533.5Q1460.5 1579.0 1432.5 1613.5Q1404.5 1648.0 1357.0 1658.0Q1309.5 1668.0 1252.5 1637.0Q1237.5 1565.0 1187.0 1494.5Q1136.5 1424.0 1082.5 1381.0ZM869.5 44.0 1289.5 105.0Q1278.5 158.0 1205.5 165.0Q1161.5 198.0 1098.5 243.5Q1035.5 289.0 984.5 324.0H1322.5L1451.5 183.0L1719.5 384.0Q1710.5 396.0 1691.5 409.5Q1672.5 423.0 1640.5 429.0V879.0Q1639.5 889.0 1599.0 906.5Q1558.5 924.0 1501.5 938.5Q1444.5 953.0 1394.5 953.0H1343.5V859.0H663.5V1039.0H1576.5L1728.5 851.0Q1728.5 851.0 1756.0 871.5Q1783.5 892.0 1827.0 925.0Q1870.5 958.0 1918.0 994.5Q1965.5 1031.0 2004.5 1064.0Q1995.5 1096.0 1945.5 1096.0H663.5V1271.0H1586.5L1728.5 1139.0L1971.5 1340.0Q1959.5 1352.0 1940.0 1362.0Q1920.5 1372.0 1889.5 1377.0Q1866.5 1624.0 1824.5 1755.0Q1782.5 1886.0 1699.5 1940.0Q1647.5 1972.0 1583.5 1988.0Q1519.5 2004.0 1427.5 2004.0Q1427.5 1945.0 1420.0 1897.0Q1412.5 1849.0 1388.5 1821.0Q1337.5 1758.0 1218.5 1731.0V1709.0Q1253.5 1712.0 1299.5 1714.5Q1345.5 1717.0 1386.0 1719.0Q1426.5 1721.0 1445.5 1721.0Q1487.5 1721.0 1508.5 1705.0Q1539.5 1683.0 1563.0 1587.5Q1586.5 1492.0 1603.5 1328.0H646.5Q620.5 1352.0 553.5 1378.0Q486.5 1404.0 411.5 1404.0H366.5V204.0L679.5 324.0H845.5ZM663.5 802.0H1343.5V617.0H663.5ZM663.5 560.0H1343.5V382.0H663.5Z" fill="black"></path></svg>