<?xml version="1.0" standalone="no"?>
<!DOCTYPE svg PUBLIC "-//W3C//DTD SVG 1.1//EN" "http://www.w3.org/Graphics/SVG/1.1/DTD/svg11.dtd" >
<svg xmlns="http://www.w3.org/2000/svg" xmlns:svg="http://www.w3.org/2000/svg" xmlns:xlink="http://www.w3.org/1999/xlink" viewBox="0 0 2048 2048" style=""><path d="M143.5 1351.0Q166.5 1351.0 177.5 1346.0Q188.5 1341.0 206.5 1310.0Q218.5 1289.0 229.5 1269.0Q240.5 1249.0 258.0 1209.5Q275.5 1170.0 309.0 1093.0Q342.5 1016.0 399.0 883.0Q455.5 750.0 544.5 540.0L575.5 547.0Q555.5 626.0 530.5 730.0Q505.5 834.0 481.0 938.0Q456.5 1042.0 438.0 1125.0Q419.5 1208.0 411.5 1245.0Q402.5 1293.0 396.0 1343.0Q389.5 1393.0 390.5 1431.0Q392.5 1490.0 416.5 1540.0Q440.5 1590.0 462.0 1653.0Q483.5 1716.0 478.5 1812.0Q475.5 1894.0 423.0 1943.0Q370.5 1992.0 292.5 1992.0Q257.5 1992.0 221.5 1968.0Q185.5 1944.0 171.5 1884.0Q192.5 1774.0 197.0 1675.0Q201.5 1576.0 191.0 1508.0Q180.5 1440.0 157.5 1423.0Q120.5 1394.0 52.5 1388.0V1351.0Q52.5 1351.0 70.5 1351.0Q88.5 1351.0 110.0 1351.0Q131.5 1351.0 143.5 1351.0ZM134.5 63.0Q281.5 86.0 364.5 132.5Q447.5 179.0 479.0 234.5Q510.5 290.0 503.0 340.5Q495.5 391.0 459.5 424.5Q423.5 458.0 370.5 460.5Q317.5 463.0 259.5 420.0Q246.5 327.0 204.0 235.0Q161.5 143.0 118.5 73.0ZM44.5 534.0Q181.5 561.0 257.0 608.0Q332.5 655.0 360.0 709.0Q387.5 763.0 377.0 811.5Q366.5 860.0 330.5 890.0Q294.5 920.0 243.5 920.0Q192.5 920.0 139.5 876.0Q135.5 789.0 102.5 699.0Q69.5 609.0 26.5 545.0ZM859.5 1405.0H884.5Q934.5 1555.0 936.0 1657.0Q937.5 1759.0 907.0 1820.0Q876.5 1881.0 830.0 1905.5Q783.5 1930.0 736.5 1925.0Q689.5 1920.0 657.5 1890.5Q625.5 1861.0 625.0 1812.5Q624.5 1764.0 671.5 1704.0Q739.5 1668.0 792.0 1594.5Q844.5 1521.0 859.5 1405.0ZM1019.5 1427.0Q1134.5 1503.0 1181.0 1581.5Q1227.5 1660.0 1224.5 1726.0Q1221.5 1792.0 1186.5 1832.0Q1151.5 1872.0 1102.5 1872.0Q1053.5 1872.0 1009.5 1816.0Q1027.5 1721.0 1021.5 1618.0Q1015.5 1515.0 995.5 1435.0ZM1048.5 317.0V211.0L1285.5 307.0Q1290.5 247.0 1293.5 177.0Q1296.5 107.0 1298.5 53.0L1654.5 106.0Q1649.5 126.0 1632.0 140.0Q1614.5 154.0 1580.5 155.0Q1534.5 191.0 1472.5 235.0Q1410.5 279.0 1349.5 317.0H1588.5L1705.5 194.0L1943.5 372.0Q1935.5 382.0 1920.0 391.5Q1904.5 401.0 1879.5 405.0V841.0Q1879.5 846.0 1863.0 854.5Q1846.5 863.0 1820.5 872.0Q1852.5 898.0 1908.0 946.5Q1963.5 995.0 2006.5 1036.0Q1997.5 1069.0 1951.5 1069.0H1304.5V1212.0H1656.5L1789.5 1087.0L2021.5 1276.0Q1995.5 1304.0 1939.5 1313.0Q1929.5 1513.0 1913.0 1636.0Q1896.5 1759.0 1866.0 1826.5Q1835.5 1894.0 1785.5 1929.0Q1696.5 1995.0 1541.5 1995.0Q1541.5 1938.0 1536.5 1893.5Q1531.5 1849.0 1513.5 1822.0Q1496.5 1796.0 1469.0 1777.5Q1441.5 1759.0 1396.5 1747.0Q1371.5 1753.0 1343.5 1746.0Q1315.5 1739.0 1285.5 1714.0Q1287.5 1640.0 1255.0 1562.0Q1222.5 1484.0 1179.5 1431.0L1199.5 1419.0Q1314.5 1442.0 1378.0 1482.5Q1441.5 1523.0 1464.5 1569.0Q1487.5 1615.0 1479.0 1656.5Q1470.5 1698.0 1441.5 1722.0L1548.5 1726.0Q1583.5 1726.0 1603.5 1712.0Q1630.5 1688.0 1648.5 1575.0Q1626.5 1593.0 1594.5 1597.0Q1562.5 1601.0 1525.5 1581.0Q1511.5 1527.0 1468.0 1471.0Q1424.5 1415.0 1380.5 1384.0L1396.5 1370.0Q1510.5 1361.0 1574.5 1382.5Q1638.5 1404.0 1664.5 1440.0L1675.5 1270.0H1304.5V1302.0Q1304.5 1316.0 1273.0 1336.0Q1241.5 1356.0 1192.0 1372.0Q1142.5 1388.0 1087.5 1388.0H1048.5V1200.0Q976.5 1257.0 871.0 1332.0Q765.5 1407.0 624.5 1501.0Q608.5 1543.0 571.5 1556.0L421.5 1272.0L646.5 1231.0V424.0H530.5L513.5 366.0H767.5L888.5 182.0Q888.5 182.0 913.0 204.5Q937.5 227.0 974.5 262.0Q1011.5 297.0 1048.5 334.0ZM1607.5 608.0H1304.5V784.0H1607.5ZM1607.5 551.0V375.0H1304.5V551.0ZM1607.5 841.0H1304.5V1011.0H1677.5L1767.5 887.0Q1708.5 903.0 1654.5 903.0H1607.5ZM894.5 1179.0 1048.5 1147.0V424.0H894.5Z" fill="black"></path></svg>