<?xml version="1.0" standalone="no"?>
<!DOCTYPE svg PUBLIC "-//W3C//DTD SVG 1.1//EN" "http://www.w3.org/Graphics/SVG/1.1/DTD/svg11.dtd" >
<svg xmlns="http://www.w3.org/2000/svg" xmlns:svg="http://www.w3.org/2000/svg" xmlns:xlink="http://www.w3.org/1999/xlink" viewBox="0 0 2048 2048" style=""><path d="M866.5 1588.0Q987.5 1618.0 1050.5 1663.0Q1113.5 1708.0 1132.5 1756.5Q1151.5 1805.0 1136.5 1846.0Q1121.5 1887.0 1085.5 1910.5Q1049.5 1934.0 1002.5 1929.5Q955.5 1925.0 910.5 1881.0Q914.5 1807.0 895.5 1730.0Q876.5 1653.0 848.5 1598.0ZM756.5 310.0H584.5L508.5 375.0Q580.5 385.0 619.5 409.5Q658.5 434.0 670.5 464.0Q722.5 390.0 756.5 310.0ZM391.5 1561.0H416.5L420.5 1574.0V830.0Q340.5 858.0 252.0 880.5Q163.5 903.0 68.5 918.0L58.5 892.0Q359.5 789.0 549.5 605.0Q514.5 605.0 471.5 578.0Q467.5 543.0 453.0 507.5Q438.5 472.0 420.5 441.0Q342.5 493.0 257.0 536.5Q171.5 580.0 80.5 609.0L64.5 591.0Q146.5 530.0 222.0 441.5Q297.5 353.0 357.5 251.5Q417.5 150.0 451.5 50.0L799.5 136.0Q793.5 151.0 777.5 158.5Q761.5 166.0 719.5 165.0Q702.5 188.0 683.0 209.5Q663.5 231.0 643.5 253.0H754.5L891.5 126.0L1102.5 308.0V95.0L1383.5 201.0H1526.5L1628.5 85.0L1864.5 257.0Q1855.5 267.0 1834.0 280.5Q1812.5 294.0 1780.5 300.0V341.0Q1780.5 397.0 1763.0 436.5Q1745.5 476.0 1690.0 499.5Q1634.5 523.0 1522.5 531.0Q1519.5 496.0 1515.5 470.0Q1511.5 444.0 1497.5 427.0Q1487.5 413.0 1467.0 400.0Q1446.5 387.0 1395.5 380.0V353.0Q1395.5 353.0 1419.0 354.5Q1442.5 356.0 1471.5 357.5Q1500.5 359.0 1516.5 359.0Q1546.5 359.0 1546.5 326.0V259.0H1354.5V541.0Q1354.5 560.0 1365.0 567.0Q1375.5 574.0 1413.5 574.0H1571.5Q1608.5 574.0 1645.0 574.0Q1681.5 574.0 1698.5 572.0Q1737.5 569.0 1755.5 556.0Q1769.5 540.0 1791.5 506.5Q1813.5 473.0 1837.5 423.0H1856.5L1864.5 556.0Q1915.5 576.0 1932.0 597.0Q1948.5 618.0 1948.5 650.0Q1948.5 698.0 1912.0 726.0Q1875.5 754.0 1786.5 765.5Q1697.5 777.0 1540.5 777.0H1512.5L1694.5 912.0Q1686.5 923.0 1669.0 934.5Q1651.5 946.0 1622.5 951.0V1234.0Q1621.5 1242.0 1582.5 1258.5Q1543.5 1275.0 1489.0 1289.0Q1434.5 1303.0 1387.5 1303.0H1335.5V1250.0H707.5V1352.0H1604.5L1739.5 1187.0Q1739.5 1187.0 1782.5 1217.5Q1825.5 1248.0 1884.0 1292.5Q1942.5 1337.0 1989.5 1377.0Q1980.5 1410.0 1931.5 1410.0H1737.5L1948.5 1578.0Q1937.5 1590.0 1919.5 1599.0Q1901.5 1608.0 1872.5 1612.0Q1861.5 1763.0 1835.0 1839.0Q1808.5 1915.0 1743.5 1950.0Q1703.5 1973.0 1653.0 1985.5Q1602.5 1998.0 1534.5 1998.0Q1536.5 1945.0 1532.0 1901.5Q1527.5 1858.0 1512.5 1834.0Q1502.5 1821.0 1495.0 1810.5Q1487.5 1800.0 1475.5 1793.0Q1466.5 1831.0 1433.0 1857.0Q1399.5 1883.0 1353.0 1884.0Q1306.5 1885.0 1258.5 1846.0Q1261.5 1780.0 1235.5 1713.0Q1209.5 1646.0 1172.5 1604.0L1188.5 1592.0Q1334.5 1604.0 1400.5 1649.5Q1466.5 1695.0 1475.5 1746.0H1528.5Q1561.5 1746.0 1575.5 1737.0Q1587.5 1727.0 1598.0 1687.0Q1608.5 1647.0 1614.5 1572.0H694.5Q684.5 1581.0 665.0 1592.0Q645.5 1603.0 621.5 1612.0Q737.5 1673.0 777.5 1737.0Q817.5 1801.0 805.0 1854.0Q792.5 1907.0 747.5 1935.5Q702.5 1964.0 647.0 1955.0Q591.5 1946.0 547.5 1885.0Q567.5 1819.0 573.0 1751.5Q578.5 1684.0 572.5 1629.0Q545.5 1635.0 517.5 1639.0Q489.5 1643.0 461.5 1643.0H438.5Q465.5 1775.0 419.5 1862.0Q373.5 1949.0 295.5 1975.0Q234.5 1995.0 171.5 1967.0Q108.5 1939.0 94.5 1868.0Q82.5 1802.0 120.5 1759.0Q158.5 1716.0 215.5 1696.0Q271.5 1684.0 328.5 1648.0Q385.5 1612.0 391.5 1561.0ZM535.5 783.0 721.5 855.0H774.5Q779.5 809.0 786.0 743.5Q792.5 678.0 795.5 627.0Q738.5 672.0 673.5 711.5Q608.5 751.0 535.5 783.0ZM799.5 623.0 1110.5 670.0Q1102.5 638.0 1102.5 582.0V324.0Q1090.5 341.0 1032.5 347.0Q943.5 507.0 799.5 623.0ZM1598.5 1514.0 1712.5 1410.0H707.5V1514.0ZM1335.5 912.0H707.5V1021.0H1335.5ZM1315.5 855.0 1389.5 777.0H1350.5Q1265.5 777.0 1215.5 766.0Q1165.5 755.0 1139.5 728.0Q1131.5 732.0 1121.0 734.0Q1110.5 736.0 1098.5 738.0Q1055.5 764.0 995.5 797.0Q935.5 830.0 887.5 855.0ZM707.5 1078.0V1193.0H1335.5V1078.0Z" fill="black"></path></svg>