<?xml version="1.0" standalone="no"?>
<!DOCTYPE svg PUBLIC "-//W3C//DTD SVG 1.1//EN" "http://www.w3.org/Graphics/SVG/1.1/DTD/svg11.dtd" >
<svg xmlns="http://www.w3.org/2000/svg" xmlns:svg="http://www.w3.org/2000/svg" xmlns:xlink="http://www.w3.org/1999/xlink" viewBox="0 0 2048 2048" style=""><path d="M626.0 1598.0Q735.0 1645.0 787.0 1698.0Q839.0 1751.0 847.0 1800.0Q855.0 1849.0 832.5 1885.5Q810.0 1922.0 769.0 1939.0Q728.0 1956.0 681.5 1943.5Q635.0 1931.0 597.0 1881.0Q617.0 1810.0 617.5 1736.0Q618.0 1662.0 605.0 1606.0ZM882.0 1592.0Q1006.0 1612.0 1073.5 1651.5Q1141.0 1691.0 1163.5 1737.5Q1186.0 1784.0 1175.0 1826.0Q1164.0 1868.0 1129.5 1894.5Q1095.0 1921.0 1048.0 1920.0Q1001.0 1919.0 953.0 1879.0Q953.0 1805.0 926.5 1730.0Q900.0 1655.0 863.0 1602.0ZM1197.0 1586.0Q1354.0 1594.0 1417.0 1642.5Q1480.0 1691.0 1480.0 1744.0H1500.0Q1536.0 1744.0 1551.0 1733.0Q1582.0 1709.0 1601.0 1545.0H712.0Q692.0 1567.0 627.0 1592.5Q562.0 1618.0 489.0 1621.0Q515.0 1762.0 463.0 1853.5Q411.0 1945.0 333.0 1973.0Q275.0 1993.0 214.5 1971.5Q154.0 1950.0 140.0 1887.0Q127.0 1829.0 159.5 1788.5Q192.0 1748.0 243.0 1729.0Q297.0 1719.0 352.0 1686.5Q407.0 1654.0 433.0 1606.0V857.0Q355.0 880.0 264.0 900.5Q173.0 921.0 69.0 941.0L54.0 914.0Q306.0 837.0 460.5 753.5Q615.0 670.0 702.0 580.0H73.0L56.0 523.0H386.0V142.0L679.0 253.0H863.0Q871.0 204.0 874.5 153.5Q878.0 103.0 880.0 52.0L1234.0 81.0Q1231.0 101.0 1215.5 114.5Q1200.0 128.0 1166.0 134.0L1148.0 253.0H1322.0L1439.0 103.0L1721.0 294.0Q1711.0 309.0 1691.0 318.0Q1671.0 327.0 1629.0 335.0V523.0H1642.0L1766.0 369.0Q1766.0 369.0 1804.5 398.5Q1843.0 428.0 1896.5 469.5Q1950.0 511.0 1994.0 548.0Q1985.0 580.0 1936.0 580.0H1277.0Q1363.0 629.0 1480.0 656.0Q1597.0 683.0 1729.0 693.5Q1861.0 704.0 1992.0 703.0L1994.0 726.0Q1926.0 750.0 1887.0 810.0Q1848.0 870.0 1834.0 959.0Q1799.0 952.0 1765.0 943.0Q1731.0 934.0 1699.0 925.0Q1691.0 931.0 1678.5 936.5Q1666.0 942.0 1648.0 945.0V1236.0Q1647.0 1244.0 1607.5 1260.5Q1568.0 1277.0 1513.5 1291.0Q1459.0 1305.0 1412.0 1305.0H1361.0V1234.0H720.0V1332.0H1603.0L1738.0 1166.0Q1738.0 1166.0 1780.0 1197.0Q1822.0 1228.0 1880.5 1272.5Q1939.0 1317.0 1986.0 1357.0Q1980.0 1389.0 1928.0 1389.0H1734.0L1936.0 1551.0Q1914.0 1577.0 1859.0 1586.0Q1845.0 1743.0 1814.0 1826.5Q1783.0 1910.0 1715.0 1946.0Q1632.0 1996.0 1496.0 1996.0Q1496.0 1945.0 1490.0 1901.5Q1484.0 1858.0 1467.0 1834.0L1451.0 1815.0Q1422.0 1846.0 1374.0 1852.0Q1326.0 1858.0 1275.0 1822.0Q1270.0 1760.0 1241.0 1698.0Q1212.0 1636.0 1179.0 1596.0ZM661.0 523.0H753.0Q793.0 471.0 816.0 418.0Q839.0 365.0 851.0 310.0H661.0ZM1340.0 523.0V310.0H1134.0Q1120.0 365.0 1095.5 418.5Q1071.0 472.0 1031.0 523.0ZM1199.0 580.0H982.0Q958.0 605.0 928.5 628.5Q899.0 652.0 865.0 675.0L1230.0 722.0Q1219.0 772.0 1148.0 781.0L1017.0 849.0H1340.0L1400.0 787.0Q1338.0 746.0 1288.0 694.5Q1238.0 643.0 1199.0 580.0ZM607.0 800.0 734.0 849.0H849.0L853.0 681.0Q804.0 713.0 742.5 742.5Q681.0 772.0 607.0 800.0ZM1586.0 1488.0 1695.0 1389.0H720.0V1488.0ZM1361.0 906.0H720.0V1011.0H1361.0ZM720.0 1068.0V1176.0H1361.0V1068.0Z" fill="black"></path></svg>