<?xml version="1.0" standalone="no"?>
<!DOCTYPE svg PUBLIC "-//W3C//DTD SVG 1.1//EN" "http://www.w3.org/Graphics/SVG/1.1/DTD/svg11.dtd" >
<svg xmlns="http://www.w3.org/2000/svg" xmlns:svg="http://www.w3.org/2000/svg" xmlns:xlink="http://www.w3.org/1999/xlink" viewBox="0 0 2048 2048"><path d="M1113.0 1613.0Q1385.0 1617.0 1553.0 1647.5Q1721.0 1678.0 1806.5 1722.5Q1892.0 1767.0 1912.0 1815.0Q1932.0 1863.0 1906.0 1904.5Q1880.0 1946.0 1826.0 1969.5Q1772.0 1993.0 1708.0 1989.0Q1644.0 1985.0 1590.0 1940.0Q1529.0 1874.0 1408.5 1787.5Q1288.0 1701.0 1107.0 1635.0ZM685.0 1543.0 1019.0 1756.0Q1003.0 1774.0 971.0 1781.5Q939.0 1789.0 884.0 1778.0Q786.0 1830.0 651.5 1873.0Q517.0 1916.0 363.0 1947.5Q209.0 1979.0 54.0 1996.0L48.0 1975.0Q171.0 1923.0 294.0 1848.5Q417.0 1774.0 520.0 1694.0Q623.0 1614.0 685.0 1543.0ZM1426.0 965.0H1164.0V1174.0H1426.0ZM58.0 699.0H1547.0L1707.0 500.0Q1707.0 500.0 1736.5 521.5Q1766.0 543.0 1812.0 577.5Q1858.0 612.0 1908.0 650.5Q1958.0 689.0 2000.0 724.0Q1991.0 756.0 1940.0 756.0H1164.0V908.0H1406.0L1537.0 765.0L1809.0 969.0Q1799.0 982.0 1779.5 994.0Q1760.0 1006.0 1727.0 1012.0V1543.0Q1726.0 1550.0 1684.0 1565.5Q1642.0 1581.0 1584.0 1593.5Q1526.0 1606.0 1478.0 1606.0H1426.0V1520.0H632.0V1555.0Q632.0 1569.0 593.5 1590.5Q555.0 1612.0 496.5 1629.5Q438.0 1647.0 378.0 1647.0H335.0V789.0L648.0 908.0H873.0V756.0H75.0ZM632.0 1463.0H873.0V1232.0H632.0ZM632.0 1174.0H873.0V965.0H632.0ZM1426.0 1463.0V1232.0H1164.0V1463.0ZM1144.0 52.0 1514.0 83.0Q1513.0 103.0 1498.5 118.5Q1484.0 134.0 1441.0 140.0V298.0H1519.0L1666.0 113.0Q1666.0 113.0 1693.0 133.5Q1720.0 154.0 1762.5 186.0Q1805.0 218.0 1851.5 254.0Q1898.0 290.0 1936.0 322.0Q1927.0 355.0 1877.0 355.0H1441.0V603.0Q1441.0 611.0 1403.0 624.0Q1365.0 637.0 1308.0 647.5Q1251.0 658.0 1193.0 658.0H1144.0V558.0H886.0V613.0Q886.0 621.0 849.5 634.5Q813.0 648.0 757.0 658.0Q701.0 668.0 644.0 668.0H595.0V355.0H189.0L173.0 298.0H595.0V52.0L962.0 83.0Q958.0 103.0 943.5 118.5Q929.0 134.0 886.0 140.0V298.0H1144.0ZM886.0 355.0V500.0H1144.0V355.0Z" fill="black"></path></svg>