<?xml version="1.0" standalone="no"?>
<!DOCTYPE svg PUBLIC "-//W3C//DTD SVG 1.1//EN" "http://www.w3.org/Graphics/SVG/1.1/DTD/svg11.dtd" >
<svg xmlns="http://www.w3.org/2000/svg" xmlns:svg="http://www.w3.org/2000/svg" xmlns:xlink="http://www.w3.org/1999/xlink" viewBox="0 0 2048 2048" style=""><path d="M156.0 191.5H735.0L856.0 41.5Q856.0 41.5 894.0 70.5Q932.0 99.5 983.5 140.0Q1035.0 180.5 1077.0 216.5Q1068.0 248.5 1020.0 248.5H172.0ZM508.0 443.5Q621.0 456.5 671.0 490.5Q721.0 524.5 724.0 563.0Q727.0 601.5 698.5 630.0Q670.0 658.5 625.5 662.0Q581.0 665.5 536.0 627.5Q540.0 580.5 524.5 532.5Q509.0 484.5 487.0 453.5ZM1382.0 441.5Q1503.0 450.5 1558.0 485.0Q1613.0 519.5 1619.0 560.5Q1625.0 601.5 1597.5 633.5Q1570.0 665.5 1523.5 671.0Q1477.0 676.5 1429.0 637.5Q1429.0 587.5 1408.5 535.5Q1388.0 483.5 1364.0 451.5ZM950.0 795.5V678.5Q916.0 691.5 869.5 701.5Q823.0 711.5 786.0 711.5H741.0V422.5H483.0V656.5Q483.0 668.5 435.5 692.0Q388.0 715.5 325.0 726.5L534.0 795.5ZM1237.0 795.5H1610.0L1671.0 711.5H1630.0V422.5H1356.0V642.5Q1356.0 661.5 1288.0 685.5Q1282.0 713.5 1237.0 721.5ZM1100.0 365.5V265.5L1364.0 365.5H1612.0L1722.0 248.5H1104.0L1087.0 191.5H1628.0L1753.0 35.5Q1753.0 35.5 1792.0 65.5Q1831.0 95.5 1884.0 137.5Q1937.0 179.5 1980.0 216.5Q1971.0 248.5 1923.0 248.5H1726.0L1962.0 418.5Q1954.0 429.5 1938.0 439.5Q1922.0 449.5 1896.0 453.5V654.5Q1896.0 658.5 1881.5 665.5Q1867.0 672.5 1845.0 678.5Q1884.0 712.5 1926.5 750.0Q1969.0 787.5 2003.0 820.5Q1994.0 852.5 1945.0 852.5H1409.0V1002.5H1556.0L1677.0 875.5L1927.0 1059.5Q1918.0 1070.5 1900.0 1081.5Q1882.0 1092.5 1853.0 1098.5V1278.5Q1852.0 1287.5 1814.0 1304.0Q1776.0 1320.5 1723.5 1334.5Q1671.0 1348.5 1626.0 1348.5H1577.0V1305.5H487.0Q480.0 1423.5 444.0 1548.0Q408.0 1672.5 318.0 1787.0Q228.0 1901.5 59.0 1989.5L45.0 1975.5Q121.0 1859.5 154.5 1725.5Q188.0 1591.5 196.5 1452.5Q205.0 1313.5 205.0 1182.5V685.5L225.0 691.5V265.5L491.0 365.5H725.0L831.0 254.5L1055.0 416.5Q1047.0 425.5 1033.0 434.0Q1019.0 442.5 997.0 447.5V652.5L1100.0 660.5ZM491.0 852.5V1002.5H692.0V852.5ZM950.0 852.5V1002.5H1145.0V852.5ZM491.0 1059.5V1182.5V1248.5H692.0V1059.5ZM1577.0 1059.5H1409.0V1248.5H1577.0ZM950.0 1059.5V1248.5H1145.0V1059.5ZM1702.0 1344.5 1945.0 1528.5Q1936.0 1542.5 1918.5 1548.5Q1901.0 1554.5 1868.0 1545.5Q1794.0 1563.5 1693.5 1578.5Q1593.0 1593.5 1495.0 1602.5V1709.5Q1495.0 1725.5 1503.0 1732.5Q1511.0 1739.5 1540.0 1739.5H1655.0Q1681.0 1739.5 1706.0 1739.5Q1731.0 1739.5 1747.0 1737.5Q1780.0 1737.5 1800.0 1723.5Q1834.0 1696.5 1882.0 1600.5H1902.0L1911.0 1723.5Q1961.0 1746.5 1978.0 1770.5Q1995.0 1794.5 1995.0 1827.5Q1995.0 1907.5 1911.0 1938.5Q1827.0 1969.5 1618.0 1969.5H1460.0Q1357.0 1969.5 1305.0 1950.5Q1253.0 1931.5 1235.5 1885.5Q1218.0 1839.5 1218.0 1758.5V1563.5Q1207.0 1571.5 1184.0 1571.5H854.0V1702.5L1210.0 1690.5V1715.5Q1113.0 1761.5 960.0 1822.5Q807.0 1883.5 581.0 1965.5Q561.0 2005.5 520.0 2012.5L395.0 1713.5L581.0 1711.5V1321.5L911.0 1348.5Q910.0 1363.5 899.0 1376.5Q888.0 1389.5 854.0 1393.5V1514.5H928.0L1038.0 1364.5Q1038.0 1364.5 1067.5 1389.0Q1097.0 1413.5 1139.0 1449.5Q1181.0 1485.5 1218.0 1520.5V1324.5L1558.0 1348.5Q1552.0 1393.5 1495.0 1401.5V1520.5Q1556.0 1476.5 1612.0 1428.0Q1668.0 1379.5 1702.0 1344.5Z" fill="black"></path></svg>