<?xml version="1.0" standalone="no"?>
<!DOCTYPE svg PUBLIC "-//W3C//DTD SVG 1.1//EN" "http://www.w3.org/Graphics/SVG/1.1/DTD/svg11.dtd" >
<svg xmlns="http://www.w3.org/2000/svg" xmlns:svg="http://www.w3.org/2000/svg" xmlns:xlink="http://www.w3.org/1999/xlink" viewBox="0 0 2048 2048" style=""><path d="M1284.0 73.5Q1406.0 42.5 1483.5 48.0Q1561.0 53.5 1600.0 82.0Q1639.0 110.5 1647.0 148.5Q1655.0 186.5 1637.5 220.0Q1620.0 253.5 1583.0 269.5Q1546.0 285.5 1497.0 269.5Q1471.0 239.5 1411.0 189.5Q1351.0 139.5 1274.0 99.5ZM1028.0 1605.5Q1176.0 1615.5 1262.5 1654.5Q1349.0 1693.5 1385.5 1745.5Q1422.0 1797.5 1418.5 1848.0Q1415.0 1898.5 1382.5 1934.0Q1350.0 1969.5 1298.5 1976.0Q1247.0 1982.5 1188.0 1943.5Q1171.0 1855.5 1119.0 1766.5Q1067.0 1677.5 1012.0 1617.5ZM1479.0 1599.5Q1640.0 1598.5 1740.0 1631.5Q1840.0 1664.5 1889.5 1715.0Q1939.0 1765.5 1946.5 1819.5Q1954.0 1873.5 1928.5 1915.0Q1903.0 1956.5 1853.0 1971.5Q1803.0 1986.5 1739.0 1957.5Q1710.0 1897.5 1663.5 1833.5Q1617.0 1769.5 1564.5 1712.0Q1512.0 1654.5 1464.0 1611.5ZM49.0 1529.5H871.0V1390.5H264.0L248.0 1332.5H871.0V1207.5H574.0Q566.0 1222.5 528.0 1241.5Q490.0 1260.5 436.0 1275.0Q382.0 1289.5 328.0 1289.5H287.0V648.5L367.0 679.5V478.5Q291.0 512.5 212.0 541.0Q133.0 569.5 53.0 589.5L39.0 568.5Q132.0 498.5 219.0 405.0Q306.0 311.5 375.5 215.0Q445.0 118.5 486.0 38.5L836.0 190.5Q830.0 205.5 813.5 215.0Q797.0 224.5 760.0 224.5Q728.0 255.5 688.0 287.0Q648.0 318.5 602.0 347.5L711.0 388.5Q706.0 400.5 690.5 411.5Q675.0 422.5 647.0 427.5V663.5Q644.0 675.5 599.5 695.5Q555.0 715.5 492.0 726.5L596.0 765.5H1444.0L1503.0 702.5Q1344.0 652.5 1235.5 580.5Q1127.0 508.5 1055.0 419.5L750.0 448.5L729.0 390.5L1014.0 364.5Q965.0 291.5 932.5 209.5Q900.0 127.5 877.0 36.5L1251.0 56.5Q1248.0 98.5 1190.0 110.5Q1215.0 174.5 1248.5 231.0Q1282.0 287.5 1331.0 333.5L1630.0 304.5L1745.0 134.5Q1745.0 134.5 1787.5 160.5Q1830.0 186.5 1888.0 223.5Q1946.0 260.5 1993.0 294.5Q1991.0 311.5 1976.5 321.5Q1962.0 331.5 1942.0 333.5L1915.0 335.5L1903.0 513.5Q1976.0 562.5 1992.5 592.5Q2009.0 622.5 1995.0 661.5Q1970.0 730.5 1897.0 748.5Q1824.0 766.5 1741.0 757.5L1831.0 824.5Q1823.0 835.5 1806.0 846.5Q1789.0 857.5 1759.0 863.5V1187.5Q1758.0 1193.5 1721.5 1207.5Q1685.0 1221.5 1634.0 1232.5Q1673.0 1260.5 1717.0 1293.5Q1761.0 1326.5 1796.0 1357.5Q1790.0 1381.5 1761.0 1388.5Q1784.0 1403.5 1823.0 1431.5Q1862.0 1459.5 1905.5 1492.5Q1949.0 1525.5 1985.0 1553.5Q1979.0 1586.5 1927.0 1586.5H475.0Q496.0 1697.5 472.0 1781.0Q448.0 1864.5 396.5 1917.5Q345.0 1970.5 283.0 1990.5Q217.0 2011.5 152.0 1986.5Q87.0 1961.5 72.0 1891.5Q60.0 1828.5 95.5 1786.0Q131.0 1743.5 187.0 1723.5Q254.0 1713.5 324.0 1678.0Q394.0 1642.5 428.0 1586.5H66.0ZM1884.0 339.5 1399.0 386.5Q1457.0 425.5 1537.0 454.0Q1617.0 482.5 1723.0 499.5Q1756.0 505.5 1774.0 504.0Q1792.0 502.5 1804.0 486.5Q1821.0 463.5 1842.5 423.0Q1864.0 382.5 1884.0 339.5ZM1464.0 1207.5H1137.0V1332.5H1430.0L1499.0 1248.5H1464.0ZM1464.0 1150.5V1015.5H1137.0V1150.5ZM578.0 1150.5H871.0V1015.5H578.0ZM1464.0 958.5V822.5H1137.0V958.5ZM578.0 958.5H871.0V822.5H578.0ZM1137.0 1390.5V1529.5H1606.0L1723.0 1390.5ZM684.0 1586.5Q810.0 1633.5 872.5 1690.0Q935.0 1746.5 949.5 1801.5Q964.0 1856.5 943.0 1900.5Q922.0 1944.5 879.5 1966.5Q837.0 1988.5 785.5 1979.0Q734.0 1969.5 688.0 1916.5Q701.0 1831.5 691.5 1747.0Q682.0 1662.5 664.0 1594.5Z" fill="black"></path></svg>