<?xml version="1.0" standalone="no"?>
<!DOCTYPE svg PUBLIC "-//W3C//DTD SVG 1.1//EN" "http://www.w3.org/Graphics/SVG/1.1/DTD/svg11.dtd" >
<svg xmlns="http://www.w3.org/2000/svg" xmlns:svg="http://www.w3.org/2000/svg" xmlns:xlink="http://www.w3.org/1999/xlink" viewBox="0 0 2048 2048" style=""><path d="M1097.0 823.0V751.0Q1086.0 768.0 1054.0 768.0H58.0L42.0 710.0H378.0Q320.0 707.0 273.0 657.0Q283.0 582.0 266.5 502.5Q250.0 423.0 224.0 364.0H81.0L65.0 307.0H396.0V49.0L742.0 76.0Q741.0 96.0 727.5 108.5Q714.0 121.0 677.0 129.0V307.0H712.0L837.0 135.0Q837.0 135.0 875.5 167.5Q914.0 200.0 966.5 246.0Q1019.0 292.0 1060.0 332.0Q1051.0 364.0 1005.0 364.0H704.0L960.0 424.0Q955.0 442.0 937.0 454.5Q919.0 467.0 884.0 467.0Q841.0 519.0 779.0 585.0Q717.0 651.0 652.0 710.0H765.0L888.0 543.0Q888.0 543.0 923.0 572.0Q958.0 601.0 1007.0 643.0Q1056.0 685.0 1097.0 723.0V49.0L1455.0 78.0Q1454.0 99.0 1439.0 114.0Q1424.0 129.0 1381.0 135.0V340.0H1588.0L1725.0 149.0Q1725.0 149.0 1750.5 170.0Q1776.0 191.0 1815.5 224.5Q1855.0 258.0 1898.0 295.0Q1941.0 332.0 1975.0 364.0Q1966.0 397.0 1916.0 397.0H1381.0V551.0H1590.0L1707.0 422.0L1959.0 608.0Q1950.0 620.0 1929.5 632.5Q1909.0 645.0 1877.0 651.0V897.0Q1875.0 903.0 1830.0 917.5Q1785.0 932.0 1732.0 940.0Q1765.0 966.0 1816.5 1008.0Q1868.0 1050.0 1910.0 1087.0Q1901.0 1120.0 1854.0 1120.0H1373.0V1274.0H1570.0L1680.0 1132.0Q1680.0 1132.0 1715.0 1159.0Q1750.0 1186.0 1797.5 1224.5Q1845.0 1263.0 1883.0 1298.0Q1880.0 1315.0 1865.0 1323.0Q1850.0 1331.0 1830.0 1331.0H1373.0V1493.0H1609.0L1728.0 1341.0Q1728.0 1341.0 1765.0 1370.0Q1802.0 1399.0 1853.5 1440.0Q1905.0 1481.0 1947.0 1517.0Q1936.0 1548.0 1900.0 1548.0L1910.0 1689.0Q1965.0 1712.0 1985.5 1738.5Q2006.0 1765.0 2006.0 1802.0Q2006.0 1858.0 1966.0 1896.0Q1926.0 1934.0 1830.5 1953.0Q1735.0 1972.0 1568.0 1972.0H1375.0Q1264.0 1972.0 1203.5 1952.0Q1143.0 1932.0 1120.0 1880.5Q1097.0 1829.0 1097.0 1734.0ZM269.0 364.0Q398.0 407.0 453.5 464.0Q509.0 521.0 511.5 576.0Q514.0 631.0 480.5 669.0Q447.0 707.0 396.0 710.0H593.0Q608.0 632.0 621.0 536.5Q634.0 441.0 640.0 364.0ZM1611.0 608.0H1381.0V645.0Q1381.0 655.0 1344.5 671.0Q1308.0 687.0 1252.0 700.0Q1196.0 713.0 1140.0 713.0H1103.0L1402.0 823.0H1611.0ZM1611.0 880.0H1373.0V1063.0H1580.0L1670.0 948.0H1658.0H1611.0ZM665.0 1220.0H427.0V1409.0H665.0ZM665.0 1163.0V983.0H427.0V1163.0ZM159.0 926.0V815.0L437.0 926.0H644.0L767.0 786.0L1027.0 985.0Q1018.0 997.0 997.5 1009.5Q977.0 1022.0 945.0 1028.0V1710.0Q945.0 1796.0 924.0 1856.5Q903.0 1917.0 835.0 1952.0Q767.0 1987.0 628.0 1999.0Q626.0 1937.0 620.0 1892.5Q614.0 1848.0 597.0 1818.0Q580.0 1791.0 554.0 1770.0Q528.0 1749.0 468.0 1737.0V1712.0Q468.0 1712.0 500.5 1714.0Q533.0 1716.0 571.5 1718.0Q610.0 1720.0 630.0 1720.0Q651.0 1720.0 658.0 1710.0Q665.0 1700.0 665.0 1683.0V1466.0H427.0V1898.0Q427.0 1913.0 394.0 1934.0Q361.0 1955.0 309.0 1971.5Q257.0 1988.0 200.0 1988.0H159.0ZM1875.0 1550.0H1373.0V1663.0Q1373.0 1689.0 1386.0 1698.5Q1399.0 1708.0 1441.0 1708.0H1601.0Q1636.0 1708.0 1670.5 1707.5Q1705.0 1707.0 1725.0 1706.0Q1744.0 1706.0 1760.5 1702.0Q1777.0 1698.0 1789.0 1687.0Q1806.0 1674.0 1829.0 1636.5Q1852.0 1599.0 1875.0 1550.0Z" fill="black"></path></svg>