<?xml version="1.0" standalone="no"?>
<!DOCTYPE svg PUBLIC "-//W3C//DTD SVG 1.1//EN" "http://www.w3.org/Graphics/SVG/1.1/DTD/svg11.dtd" >
<svg xmlns="http://www.w3.org/2000/svg" xmlns:svg="http://www.w3.org/2000/svg" xmlns:xlink="http://www.w3.org/1999/xlink" viewBox="0 0 2048 2048" style=""><path d="M186.5 517.5V431.5H141.5L125.5 373.5H428.5V261.5H92.5L75.5 203.5H428.5V54.5L778.5 81.5Q776.5 101.5 764.0 115.0Q751.5 128.5 712.5 134.5V203.5H770.5L888.5 64.5Q888.5 64.5 926.0 91.0Q963.5 117.5 1015.5 155.5Q1067.5 193.5 1110.5 228.5Q1101.5 261.5 1054.5 261.5H903.5Q935.5 284.5 989.0 324.0Q1042.5 363.5 1085.5 398.5Q1076.5 431.5 1030.5 431.5H874.5L1063.5 568.5Q1052.5 585.5 1015.5 595.5V693.5Q1015.5 702.5 978.5 721.0Q941.5 739.5 889.5 754.5Q837.5 769.5 792.5 769.5L931.5 799.5Q927.5 818.5 910.0 830.5Q892.5 842.5 858.5 842.5L798.5 879.5L1079.5 859.5L1081.5 887.5Q1027.5 906.5 965.5 926.5Q903.5 946.5 829.5 967.5L1187.5 1027.5Q1176.5 1079.5 1103.5 1082.5L911.5 1143.5H1372.5L1501.5 1006.5L1767.5 1203.5Q1759.5 1214.5 1742.5 1225.5Q1725.5 1236.5 1695.5 1242.5V1518.5Q1695.5 1524.5 1683.5 1531.5Q1688.5 1535.5 1735.5 1570.5Q1782.5 1605.5 1844.0 1653.5Q1905.5 1701.5 1955.5 1742.5Q1951.5 1758.5 1935.0 1766.5Q1918.5 1774.5 1896.5 1774.5H1374.5V1938.5Q1372.5 1946.5 1308.0 1970.0Q1243.5 1993.5 1128.5 1993.5H1071.5V1774.5H84.5L67.5 1717.5H456.5L444.5 1694.5Q562.5 1661.5 638.0 1623.5Q713.5 1585.5 759.5 1541.5H630.5Q628.5 1553.5 590.0 1574.0Q551.5 1594.5 494.5 1611.0Q437.5 1627.5 379.5 1627.5H338.5V1098.5L227.5 1127.5Q210.5 1164.5 172.5 1174.5L49.5 922.5Q99.5 921.5 173.5 918.5Q247.5 915.5 338.5 910.5Q321.5 902.5 305.5 885.5Q309.5 859.5 307.5 833.5Q305.5 807.5 299.5 785.5Q280.5 788.5 261.0 791.0Q241.5 793.5 221.5 793.5H186.5ZM1673.5 1535.5Q1641.5 1553.5 1573.0 1573.0Q1504.5 1592.5 1446.5 1592.5H1392.5V1541.5H1374.5V1717.5H1527.5ZM487.5 1717.5H1071.5V1541.5H1013.5Q943.5 1599.5 818.5 1643.0Q693.5 1686.5 487.5 1717.5ZM1392.5 1201.5H1147.5Q1145.5 1230.5 1142.5 1257.0Q1139.5 1283.5 1136.5 1309.5H1392.5ZM1392.5 1483.5V1367.5H1124.5Q1105.5 1433.5 1067.5 1483.5ZM632.5 1483.5H804.5Q838.5 1431.5 847.5 1367.5H632.5ZM632.5 1309.5H856.5L860.5 1201.5H632.5ZM757.5 1143.5 780.5 982.5 452.5 1070.5 651.5 1143.5ZM858.5 261.5H712.5V373.5H761.5ZM643.5 736.5 741.5 758.5V726.5H446.5Q436.5 736.5 411.5 748.5Q486.5 764.5 516.0 791.5Q545.5 818.5 540.5 848.0Q535.5 877.5 508.5 900.5L628.5 892.5Q635.5 853.5 638.5 812.0Q641.5 770.5 643.5 736.5ZM741.5 668.5V574.5H452.5V668.5ZM811.5 431.5H229.5L460.5 517.5H727.5ZM1282.5 54.5 1638.5 83.5Q1636.5 101.5 1624.0 115.0Q1611.5 128.5 1572.5 134.5V271.5H1593.5L1726.5 105.5Q1726.5 105.5 1768.5 137.0Q1810.5 168.5 1868.0 213.0Q1925.5 257.5 1972.5 296.5Q1963.5 328.5 1915.5 328.5H1572.5V433.5L1667.5 345.5L1902.5 537.5Q1887.5 562.5 1826.5 568.5Q1783.5 631.5 1726.0 685.5Q1668.5 739.5 1599.5 783.5Q1694.5 812.5 1796.0 830.5Q1897.5 848.5 1998.5 859.5V881.5Q1922.5 904.5 1873.5 968.5Q1824.5 1032.5 1804.5 1129.5Q1676.5 1086.5 1569.5 1029.5Q1462.5 972.5 1376.5 896.5Q1291.5 928.5 1197.5 952.0Q1103.5 975.5 1003.5 990.5L993.5 963.5Q1076.5 933.5 1150.0 892.5Q1223.5 851.5 1288.5 804.5Q1198.5 693.5 1136.5 535.5H1026.5L1007.5 478.5H1282.5V328.5H1011.5L995.5 271.5H1282.5ZM1398.5 703.5Q1473.5 629.5 1521.5 535.5H1185.5Q1227.5 587.5 1281.5 629.5Q1335.5 671.5 1398.5 703.5Z" fill="black"></path></svg>