<?xml version="1.0" standalone="no"?>
<!DOCTYPE svg PUBLIC "-//W3C//DTD SVG 1.1//EN" "http://www.w3.org/Graphics/SVG/1.1/DTD/svg11.dtd" >
<svg xmlns="http://www.w3.org/2000/svg" xmlns:svg="http://www.w3.org/2000/svg" xmlns:xlink="http://www.w3.org/1999/xlink" viewBox="0 0 2048 2048" style=""><path d="M383.5 52.0 734.5 81.0Q732.5 99.0 719.5 112.5Q706.5 126.0 668.5 132.0V320.0H721.5L848.5 144.0Q848.5 144.0 872.0 164.0Q895.5 184.0 932.0 215.0Q968.5 246.0 1007.5 280.5Q1046.5 315.0 1078.5 345.0Q1069.5 378.0 1022.5 378.0H668.5V609.0H691.5L807.5 447.0Q807.5 447.0 844.0 478.0Q880.5 509.0 930.0 552.5Q979.5 596.0 1018.5 634.0Q1009.5 666.0 963.5 666.0H99.5L82.5 609.0H383.5V378.0H54.5L37.5 320.0H383.5ZM125.5 828.0V724.0L400.5 828.0H656.5L773.5 705.0L973.5 853.0L971.5 849.0H1262.5V515.0H914.5L897.5 458.0H1262.5V50.0L1620.5 79.0Q1617.5 99.0 1604.5 112.5Q1591.5 126.0 1553.5 132.0V458.0H1620.5L1756.5 271.0Q1756.5 271.0 1781.0 292.0Q1805.5 313.0 1844.0 345.5Q1882.5 378.0 1923.5 414.5Q1964.5 451.0 1997.5 482.0Q1991.5 515.0 1940.5 515.0H1553.5V845.0L1700.5 699.0L1954.5 922.0Q1943.5 941.0 1925.5 948.0Q1907.5 955.0 1870.5 959.0Q1821.5 1118.0 1747.5 1259.5Q1673.5 1401.0 1567.5 1520.0Q1665.5 1587.0 1778.0 1634.5Q1890.5 1682.0 2010.5 1719.0L2005.5 1744.0Q1910.5 1761.0 1841.5 1826.5Q1772.5 1892.0 1737.5 1998.0Q1630.5 1933.0 1541.0 1859.5Q1451.5 1786.0 1381.5 1693.0Q1253.5 1791.0 1086.5 1865.5Q919.5 1940.0 709.5 1987.0L697.5 1963.0Q884.5 1883.0 1028.5 1772.5Q1172.5 1662.0 1278.5 1527.0Q1220.5 1408.0 1179.0 1256.0Q1137.5 1104.0 1112.5 906.0H990.5V904.0Q982.5 909.0 972.0 912.0Q961.5 915.0 949.5 918.0V1197.0Q949.5 1205.0 912.0 1222.5Q874.5 1240.0 822.0 1254.5Q769.5 1269.0 723.5 1269.0L951.5 1318.0Q940.5 1360.0 877.5 1363.0Q839.5 1406.0 784.5 1460.5Q729.5 1515.0 672.5 1568.0L1078.5 1510.0L1080.5 1531.0Q958.5 1604.0 759.0 1701.0Q559.5 1798.0 254.5 1926.0Q236.5 1969.0 193.5 1979.0L41.5 1641.0Q121.5 1634.0 264.0 1617.5Q406.5 1601.0 584.5 1578.0Q596.5 1499.0 605.5 1408.5Q614.5 1318.0 619.5 1246.0L674.5 1258.0V1191.0H392.5V1215.0Q392.5 1225.0 370.0 1239.0Q347.5 1253.0 310.5 1267.0Q425.5 1310.0 471.0 1365.0Q516.5 1420.0 511.5 1471.5Q506.5 1523.0 468.5 1555.5Q430.5 1588.0 376.5 1587.0Q322.5 1586.0 271.5 1535.0Q275.5 1470.0 264.0 1405.5Q252.5 1341.0 234.5 1287.0Q217.5 1292.0 199.5 1293.5Q181.5 1295.0 162.5 1295.0H125.5ZM674.5 1133.0V886.0H392.5V1133.0ZM1387.5 1369.0Q1448.5 1263.0 1492.0 1146.5Q1535.5 1030.0 1563.5 906.0H1145.5Q1182.5 1054.0 1244.5 1167.5Q1306.5 1281.0 1387.5 1369.0Z" fill="black"></path></svg>