<?xml version="1.0" standalone="no"?>
<!DOCTYPE svg PUBLIC "-//W3C//DTD SVG 1.1//EN" "http://www.w3.org/Graphics/SVG/1.1/DTD/svg11.dtd" >
<svg xmlns="http://www.w3.org/2000/svg" xmlns:svg="http://www.w3.org/2000/svg" xmlns:xlink="http://www.w3.org/1999/xlink" viewBox="0 0 1024 1024"><path d="M943.28 903.96Q925 933.5 927.45 922.64Q842.86 905.52 838.67 945.5Q805.71 984.31 758.58 886.22Q750.05 899.31 745.95 754.32Q649.21 865.88 624.75 918.83Q616.84 917.77 588.82 892.56Q547.04 950.1 506.84 936.33Q515.23 935.94 474.14 944.41Q524.56 936.7 556.93 865.27Q557.75 837.51 526.66 879.59Q631.95 764.94 711.26 692.15Q687.74 659.39 635.36 556.87Q660.67 425.73 606.87 252.23H404.49Q339.72 272.19 314.51 262.36Q357.12 521.94 352 628.75Q306.03 805.45 249.3 887.38Q248.52 954.87 236.2 912.25Q152.3 905.29 154.9 926.51Q148.57 868.17 205.05 855.69Q237.58 764.73 254.38 652.28Q224.56 535.71 244.61 422.64V252.51Q253.65 235.11 306.93 238.55Q270.44 202.74 358.08 212.31H619.6V125.82Q663.86 74.46 673.65 77.18Q670.3 22.76 644.69 58.55Q696.92 16.78 736.02 88.69Q737.75 39.71 736.69 61.37V209.86H926.71Q879.45 148.58 906.56 201.8Q963.24 199.21 922.62 205.17Q904.19 209.48 922.66 286.83Q884.57 234.03 895.34 279.38H717.66V269.62Q742.11 472.86 759.84 605.09Q740.11 576.09 751.37 506.06Q837.37 483.99 852.08 402.85Q830.74 331.92 851.04 339.26Q817.64 371.48 854.64 306.53Q886.44 360.6 917.02 388.85Q903.12 423.61 897.39 395.29Q877.2 486.46 877.87 530.3Q794.37 650.65 730.44 718.13Q761.3 767.33 775.01 804.72Q820.65 835.88 849.01 816.08Q847.1 832.5 899.27 792.63Q869.29 811.44 841.08 755.14Q880.58 704.34 880.94 697.32Q847.78 646.12 873.72 691.21Q905.45 656.75 915.75 706.27Q931.16 706.21 901.32 696.69Q935.59 859.65 904.55 887.45ZM816.97 143.54Q803.12 138.52 813.51 87.03Q806.34 70.36 758.9 125.71Q753.06 28.75 773.85 34.22Q846.36 82.1 860.08 107.67Q897.07 125.89 901.23 173.15Q913.09 141.87 855.64 149.69Q804.26 155.28 795.92 125.09ZM83.11 68.24Q71.22 62.2 140.96 78.36Q161.73 98.15 232.67 90.82Q257.13 127.95 254.45 108.58Q247.16 202.72 234.46 158.35Q223.58 218.72 220.14 208.52Q175.18 220.55 149.34 207.51L146.79 119.89Q110.65 103.63 64.68 115.74Q128.33 127.74 63.47 125.15ZM17.52 340.73Q19.85 282.84 58.55 317.2Q137.92 281.35 203.36 344.43Q183.09 330.85 253.12 394.7Q233.65 446.28 146.94 454.55Q182.92 402.05 150.02 401.41Q146.87 458.96 98.98 402.52Q53.96 363.39 86.67 376.85ZM503.86 752.77L480.78 726.37L488.39 747.77Q507.19 771.36 417.8 843.72Q419.41 870.32 393.92 867.72Q288.49 863.2 342.08 841.16Q331.2 842.8 333.38 842.91Q399.19 757.82 447.88 686.04Q465.7 586.29 467.01 480.29V417.12H366.33Q371.32 413.86 347.56 353.22Q357.17 339.92 402.69 350.58H616Q648.98 340.35 601.35 374.59Q654.61 406.76 618.11 398.04H521.28Q513.14 588.78 556.4 679.46Q610.17 714.5 589.56 770.04Q580.91 806.81 540.58 807.99Q583.84 776.39 554.07 745.6ZM389.19 667.68Q336.02 676.95 386.19 644.67Q359.19 643.84 367.8 645.9Q411.75 625.79 376.33 452.17Q401.02 446.34 415.8 470.57Q450.66 466 434.65 529.46Q426.41 680.59 351.27 669.01ZM603.53 464.81Q592.72 499.04 654.17 437.36Q671.48 482.77 604.31 518.23Q621.79 527.79 657.32 579.86Q591.72 620.94 613.95 651.11Q614.25 637.7 619.65 682.91Q578.18 614.06 592 654.78L549.13 612.16L608.95 468.91Q549.23 454.21 583.77 427.09ZM190.67 600.12Q176.25 612.43 150.25 786.33Q185.64 814.54 114.57 900.42Q131.32 911.95 104.09 959.91Q88.34 931.39 81.34 907.97Q46.67 940.41 6.98 861.41Q7.91 899.6 49.61 829.9Q62.94 737.21 167.55 574.93Q166.74 590.79 158.03 558.89Q239.3 579.11 233.63 595.31Z" fill="black"></path></svg>