<?xml version="1.0" standalone="no"?>
<!DOCTYPE svg PUBLIC "-//W3C//DTD SVG 1.1//EN" "http://www.w3.org/Graphics/SVG/1.1/DTD/svg11.dtd" >
<svg xmlns="http://www.w3.org/2000/svg" xmlns:svg="http://www.w3.org/2000/svg" xmlns:xlink="http://www.w3.org/1999/xlink" viewBox="0 0 1024 1024"><path d="M938.5 910.0Q927.5 938.0 908.0 951.5Q888.5 965.0 864.5 965.0Q823.5 965.0 792.0 923.5Q760.5 882.0 735.5 812.0Q699.5 859.0 653.5 903.0Q623.5 933.0 600.0 947.5Q576.5 962.0 561.5 962.0Q527.5 962.0 527.5 926.0Q527.5 917.0 541.5 903.0Q555.5 889.0 586.5 865.0Q654.5 812.0 708.5 729.0Q689.5 662.0 678.0 540.5Q666.5 419.0 665.5 282.0H386.5Q354.5 282.0 354.5 315.0Q354.5 557.0 342.5 674.0Q329.5 792.0 301.5 871.0Q270.5 958.0 234.5 958.0Q196.5 958.0 196.5 912.0Q196.5 900.0 211.5 872.0Q243.5 811.0 261.5 700.0Q279.5 589.0 279.5 432.0V299.0Q279.5 251.0 301.0 228.0Q322.5 205.0 367.5 205.0H665.5V107.0Q665.5 83.0 674.5 71.0Q683.5 59.0 703.5 59.0Q723.5 59.0 732.5 70.5Q741.5 82.0 741.5 107.0V205.0H910.5Q933.5 205.0 945.5 214.5Q957.5 224.0 957.5 243.0Q957.5 262.0 945.5 272.0Q933.5 282.0 910.5 282.0H741.5V327.0Q741.5 501.0 763.5 634.0Q789.5 583.0 806.5 532.0Q823.5 481.0 837.5 417.0Q843.5 388.0 854.0 374.0Q864.5 360.0 882.5 360.0Q917.5 360.0 917.5 402.0Q917.5 408.0 915.5 424.0Q903.5 490.0 866.5 580.5Q829.5 671.0 789.5 735.0Q806.5 793.0 825.0 830.0Q843.5 867.0 857.5 867.0Q873.5 867.0 880.0 844.5Q886.5 822.0 885.5 759.0Q884.5 727.0 893.5 713.0Q902.5 699.0 922.5 699.0Q941.5 699.0 950.0 711.5Q958.5 724.0 959.5 751.0Q962.5 851.0 938.5 910.0ZM822.5 154.0Q808.5 137.0 800.0 124.0Q791.5 111.0 791.5 106.0Q791.5 71.0 830.5 71.0Q848.5 71.0 880.5 104.0Q912.5 138.0 912.5 155.0Q912.5 191.0 873.5 191.0Q850.5 191.0 822.5 154.0ZM112.5 128.0Q112.5 86.0 155.5 86.0Q173.5 86.0 224.5 110.0Q276.5 134.0 276.5 164.0Q276.5 185.0 260.5 197.0Q245.5 209.0 236.5 209.0Q218.5 209.0 190.5 193.0L152.5 173.0Q131.5 162.0 122.0 152.0Q112.5 142.0 112.5 128.0ZM67.5 384.0Q67.5 340.0 112.5 340.0Q135.5 340.0 203.5 373.0Q235.5 388.0 235.5 416.0Q235.5 460.0 196.5 460.0Q181.5 460.0 156.5 448.0Q145.5 443.0 108.5 428.0Q67.5 411.0 67.5 384.0ZM563.5 797.0 539.5 766.0 525.5 747.0Q502.5 812.0 458.5 863.0Q414.5 916.0 379.5 916.0Q346.5 916.0 346.5 880.0Q346.5 862.0 367.5 846.0Q447.5 783.0 470.5 708.0Q490.5 642.0 490.5 497.0V421.0H406.5Q374.5 421.0 374.5 388.0Q374.5 356.0 406.5 356.0H618.5Q650.5 356.0 650.5 388.0Q650.5 421.0 618.5 421.0H554.5Q553.5 594.0 539.5 681.0Q631.5 756.0 631.5 786.0Q631.5 822.0 597.5 822.0Q583.5 822.0 563.5 797.0ZM403.5 727.0Q374.5 727.0 374.5 702.0Q374.5 692.0 380.5 676.0Q396.5 631.0 396.5 512.0Q396.5 477.0 422.5 477.0Q449.5 477.0 449.5 516.0Q449.5 727.0 403.5 727.0ZM626.5 481.0Q640.5 481.0 648.0 488.5Q655.5 496.0 654.5 510.0Q648.5 565.0 639.5 611.0Q632.5 647.0 624.0 658.5Q615.5 670.0 602.5 670.0Q575.5 670.0 575.5 641.0L577.5 626.0L598.5 503.0Q602.5 481.0 626.5 481.0ZM230.5 615.0Q230.5 639.0 189.5 782.0Q166.5 859.0 154.0 896.5Q141.5 934.0 134.5 941.0Q118.5 957.0 106.5 957.0Q61.5 957.0 61.5 915.0Q61.5 903.0 90.5 819.0Q119.5 736.0 153.5 617.0Q165.5 575.0 193.5 575.0Q230.5 575.0 230.5 615.0Z" fill="black"></path></svg>